G04 EAGLE Gerber RS-274X export*
G75*
%MOMM*%
%FSLAX34Y34*%
%LPD*%
%INBottom Copper*%
%IPPOS*%
%AMOC8*
5,1,8,0,0,1.08239X$1,22.5*%
G01*
%ADD10R,1.270000X9.525000*%
%ADD11C,5.715000*%
%ADD12R,1.800000X1.800000*%
%ADD13C,1.219200*%
%ADD14C,1.219200*%
%ADD15C,1.950000*%
%ADD16P,1.319650X8X292.500000*%
%ADD17C,1.371600*%
%ADD18P,1.319650X8X22.500000*%
%ADD19C,0.254000*%
%ADD20C,0.965200*%
%ADD21C,0.406400*%

G36*
X256072Y126254D02*
X256072Y126254D01*
X256163Y126261D01*
X256192Y126273D01*
X256224Y126279D01*
X256305Y126321D01*
X256389Y126357D01*
X256421Y126383D01*
X256442Y126394D01*
X256464Y126417D01*
X256520Y126462D01*
X263873Y133815D01*
X263926Y133889D01*
X263985Y133958D01*
X263998Y133988D01*
X264016Y134014D01*
X264043Y134101D01*
X264077Y134186D01*
X264082Y134227D01*
X264089Y134249D01*
X264088Y134282D01*
X264096Y134353D01*
X264096Y136403D01*
X265217Y139110D01*
X267290Y141183D01*
X269997Y142304D01*
X272928Y142304D01*
X275635Y141183D01*
X277708Y139110D01*
X278829Y136403D01*
X278829Y133472D01*
X277708Y130765D01*
X275635Y128692D01*
X273248Y127703D01*
X273165Y127652D01*
X273079Y127606D01*
X273061Y127588D01*
X273039Y127574D01*
X272976Y127498D01*
X272910Y127428D01*
X272899Y127404D01*
X272882Y127384D01*
X272847Y127293D01*
X272806Y127205D01*
X272803Y127179D01*
X272794Y127155D01*
X272790Y127057D01*
X272779Y126961D01*
X272784Y126935D01*
X272783Y126909D01*
X272810Y126815D01*
X272831Y126720D01*
X272845Y126698D01*
X272852Y126673D01*
X272907Y126593D01*
X272957Y126509D01*
X272977Y126492D01*
X272992Y126471D01*
X273070Y126412D01*
X273144Y126349D01*
X273169Y126339D01*
X273189Y126324D01*
X273282Y126294D01*
X273372Y126257D01*
X273405Y126254D01*
X273423Y126248D01*
X273456Y126248D01*
X273539Y126239D01*
X281178Y126239D01*
X281198Y126242D01*
X281217Y126240D01*
X281319Y126262D01*
X281421Y126279D01*
X281438Y126288D01*
X281458Y126292D01*
X281547Y126345D01*
X281638Y126394D01*
X281652Y126408D01*
X281669Y126418D01*
X281736Y126497D01*
X281808Y126572D01*
X281816Y126590D01*
X281829Y126605D01*
X281868Y126701D01*
X281911Y126795D01*
X281913Y126815D01*
X281921Y126833D01*
X281939Y127000D01*
X281939Y154521D01*
X281932Y154567D01*
X281934Y154613D01*
X281912Y154687D01*
X281900Y154764D01*
X281878Y154805D01*
X281865Y154849D01*
X281821Y154913D01*
X281784Y154982D01*
X281751Y155013D01*
X281725Y155051D01*
X281663Y155097D01*
X281606Y155151D01*
X281564Y155170D01*
X281528Y155198D01*
X281454Y155222D01*
X281383Y155255D01*
X281337Y155260D01*
X281294Y155274D01*
X281216Y155273D01*
X281139Y155282D01*
X281094Y155272D01*
X281048Y155271D01*
X280916Y155233D01*
X280898Y155229D01*
X280894Y155227D01*
X280887Y155225D01*
X279278Y154558D01*
X276347Y154558D01*
X273640Y155680D01*
X273455Y155864D01*
X273439Y155876D01*
X273426Y155891D01*
X273339Y155948D01*
X273255Y156008D01*
X273236Y156014D01*
X273220Y156024D01*
X273119Y156050D01*
X273020Y156080D01*
X273000Y156080D01*
X272981Y156085D01*
X272878Y156077D01*
X272774Y156074D01*
X272756Y156067D01*
X272736Y156065D01*
X272641Y156025D01*
X272543Y155989D01*
X272528Y155977D01*
X272509Y155969D01*
X272378Y155864D01*
X267559Y151044D01*
X265103Y148589D01*
X200215Y148589D01*
X200196Y148586D01*
X200176Y148588D01*
X200075Y148566D01*
X199973Y148550D01*
X199955Y148540D01*
X199936Y148536D01*
X199847Y148483D01*
X199755Y148434D01*
X199742Y148420D01*
X199725Y148410D01*
X199657Y148331D01*
X199586Y148256D01*
X199578Y148238D01*
X199565Y148223D01*
X199526Y148127D01*
X199482Y148033D01*
X199480Y148013D01*
X199473Y147995D01*
X199454Y147828D01*
X199454Y146172D01*
X198333Y143465D01*
X196260Y141392D01*
X193553Y140271D01*
X190622Y140271D01*
X187915Y141392D01*
X185842Y143465D01*
X184721Y146172D01*
X184721Y149180D01*
X184731Y149222D01*
X184731Y149228D01*
X184732Y149234D01*
X184721Y149351D01*
X184712Y149467D01*
X184710Y149473D01*
X184709Y149479D01*
X184661Y149587D01*
X184616Y149694D01*
X184611Y149699D01*
X184609Y149704D01*
X184597Y149718D01*
X184511Y149825D01*
X145414Y188922D01*
X145414Y379483D01*
X145407Y379529D01*
X145409Y379574D01*
X145387Y379649D01*
X145375Y379726D01*
X145353Y379767D01*
X145340Y379811D01*
X145296Y379875D01*
X145259Y379943D01*
X145226Y379975D01*
X145200Y380013D01*
X145137Y380059D01*
X145081Y380113D01*
X145039Y380132D01*
X145003Y380160D01*
X144929Y380184D01*
X144858Y380216D01*
X144812Y380221D01*
X144769Y380236D01*
X144691Y380235D01*
X144614Y380244D01*
X144569Y380234D01*
X144523Y380233D01*
X144391Y380195D01*
X144373Y380191D01*
X144369Y380189D01*
X144362Y380187D01*
X141418Y378967D01*
X137982Y378967D01*
X135440Y380020D01*
X135346Y380042D01*
X135252Y380071D01*
X135226Y380070D01*
X135201Y380076D01*
X135104Y380067D01*
X135007Y380065D01*
X134982Y380056D01*
X134956Y380053D01*
X134867Y380014D01*
X134776Y379980D01*
X134755Y379964D01*
X134731Y379953D01*
X134659Y379887D01*
X134583Y379826D01*
X134569Y379804D01*
X134550Y379787D01*
X134503Y379701D01*
X134450Y379620D01*
X134444Y379594D01*
X134431Y379571D01*
X134414Y379475D01*
X134390Y379381D01*
X134392Y379355D01*
X134388Y379329D01*
X134402Y379233D01*
X134410Y379136D01*
X134420Y379112D01*
X134424Y379086D01*
X134468Y378999D01*
X134506Y378909D01*
X134526Y378884D01*
X134535Y378867D01*
X134559Y378843D01*
X134611Y378779D01*
X135573Y377816D01*
X135573Y264079D01*
X135592Y263964D01*
X135609Y263848D01*
X135612Y263842D01*
X135613Y263836D01*
X135667Y263734D01*
X135721Y263629D01*
X135725Y263624D01*
X135728Y263619D01*
X135813Y263538D01*
X135896Y263456D01*
X135903Y263453D01*
X135903Y263452D01*
X138008Y261348D01*
X139129Y258640D01*
X139129Y255710D01*
X138008Y253002D01*
X135935Y250930D01*
X133228Y249808D01*
X130297Y249808D01*
X127590Y250930D01*
X125517Y253002D01*
X124396Y255710D01*
X124396Y256729D01*
X124388Y256774D01*
X124390Y256820D01*
X124369Y256895D01*
X124356Y256971D01*
X124335Y257012D01*
X124322Y257056D01*
X124277Y257120D01*
X124241Y257189D01*
X124208Y257220D01*
X124181Y257258D01*
X124119Y257305D01*
X124063Y257358D01*
X124021Y257378D01*
X123984Y257405D01*
X123910Y257429D01*
X123840Y257462D01*
X123794Y257467D01*
X123750Y257481D01*
X123672Y257480D01*
X123595Y257489D01*
X123550Y257479D01*
X123504Y257479D01*
X123373Y257441D01*
X123355Y257437D01*
X123350Y257434D01*
X123343Y257432D01*
X123028Y257301D01*
X105572Y257301D01*
X102118Y258732D01*
X99474Y261376D01*
X98043Y264830D01*
X98043Y268570D01*
X99474Y272024D01*
X102118Y274668D01*
X105572Y276099D01*
X123028Y276099D01*
X126482Y274668D01*
X126652Y274498D01*
X126710Y274456D01*
X126762Y274406D01*
X126810Y274384D01*
X126852Y274354D01*
X126921Y274333D01*
X126986Y274303D01*
X127037Y274297D01*
X127087Y274282D01*
X127159Y274284D01*
X127230Y274276D01*
X127281Y274287D01*
X127333Y274288D01*
X127400Y274313D01*
X127470Y274328D01*
X127515Y274355D01*
X127564Y274372D01*
X127620Y274417D01*
X127681Y274454D01*
X127715Y274494D01*
X127756Y274526D01*
X127795Y274586D01*
X127841Y274641D01*
X127861Y274689D01*
X127889Y274733D01*
X127906Y274803D01*
X127933Y274869D01*
X127941Y274940D01*
X127949Y274972D01*
X127947Y274995D01*
X127952Y275036D01*
X127952Y283764D01*
X127940Y283835D01*
X127938Y283907D01*
X127920Y283956D01*
X127912Y284007D01*
X127879Y284070D01*
X127854Y284138D01*
X127821Y284178D01*
X127797Y284224D01*
X127745Y284274D01*
X127700Y284330D01*
X127656Y284358D01*
X127619Y284394D01*
X127554Y284424D01*
X127493Y284463D01*
X127443Y284475D01*
X127396Y284497D01*
X127324Y284505D01*
X127255Y284523D01*
X127203Y284519D01*
X127151Y284524D01*
X127081Y284509D01*
X127009Y284504D01*
X126962Y284483D01*
X126911Y284472D01*
X126849Y284435D01*
X126783Y284407D01*
X126727Y284362D01*
X126700Y284346D01*
X126684Y284328D01*
X126652Y284302D01*
X126482Y284132D01*
X123028Y282701D01*
X105572Y282701D01*
X102118Y284132D01*
X99474Y286776D01*
X98043Y290230D01*
X98043Y293970D01*
X99474Y297424D01*
X102118Y300068D01*
X105572Y301499D01*
X123028Y301499D01*
X126482Y300068D01*
X126652Y299898D01*
X126710Y299856D01*
X126762Y299806D01*
X126810Y299784D01*
X126852Y299754D01*
X126921Y299733D01*
X126986Y299703D01*
X127037Y299697D01*
X127087Y299682D01*
X127159Y299684D01*
X127230Y299676D01*
X127281Y299687D01*
X127333Y299688D01*
X127400Y299713D01*
X127470Y299728D01*
X127515Y299755D01*
X127564Y299772D01*
X127620Y299817D01*
X127681Y299854D01*
X127715Y299894D01*
X127756Y299926D01*
X127795Y299986D01*
X127841Y300041D01*
X127861Y300089D01*
X127889Y300133D01*
X127906Y300203D01*
X127933Y300269D01*
X127941Y300340D01*
X127949Y300372D01*
X127947Y300395D01*
X127952Y300436D01*
X127952Y309164D01*
X127940Y309235D01*
X127938Y309307D01*
X127920Y309356D01*
X127912Y309407D01*
X127879Y309470D01*
X127854Y309538D01*
X127821Y309578D01*
X127797Y309624D01*
X127745Y309674D01*
X127700Y309730D01*
X127656Y309758D01*
X127619Y309794D01*
X127554Y309824D01*
X127493Y309863D01*
X127443Y309875D01*
X127396Y309897D01*
X127324Y309905D01*
X127255Y309923D01*
X127203Y309919D01*
X127151Y309924D01*
X127081Y309909D01*
X127009Y309904D01*
X126962Y309883D01*
X126911Y309872D01*
X126849Y309835D01*
X126783Y309807D01*
X126727Y309762D01*
X126700Y309746D01*
X126684Y309728D01*
X126652Y309702D01*
X126482Y309532D01*
X123028Y308101D01*
X105572Y308101D01*
X102118Y309532D01*
X99474Y312176D01*
X98043Y315630D01*
X98043Y319370D01*
X99474Y322824D01*
X102118Y325468D01*
X105572Y326899D01*
X123028Y326899D01*
X126482Y325468D01*
X126652Y325298D01*
X126710Y325256D01*
X126762Y325206D01*
X126810Y325184D01*
X126852Y325154D01*
X126921Y325133D01*
X126986Y325103D01*
X127037Y325097D01*
X127087Y325082D01*
X127159Y325084D01*
X127230Y325076D01*
X127281Y325087D01*
X127333Y325088D01*
X127400Y325113D01*
X127470Y325128D01*
X127515Y325155D01*
X127564Y325172D01*
X127620Y325217D01*
X127681Y325254D01*
X127715Y325294D01*
X127756Y325326D01*
X127795Y325386D01*
X127841Y325441D01*
X127861Y325489D01*
X127889Y325533D01*
X127906Y325603D01*
X127933Y325669D01*
X127941Y325740D01*
X127949Y325772D01*
X127947Y325795D01*
X127952Y325836D01*
X127952Y374344D01*
X127937Y374434D01*
X127930Y374525D01*
X127917Y374554D01*
X127912Y374586D01*
X127869Y374667D01*
X127834Y374751D01*
X127808Y374783D01*
X127797Y374804D01*
X127774Y374826D01*
X127729Y374882D01*
X121299Y381312D01*
X121283Y381324D01*
X121270Y381339D01*
X121183Y381395D01*
X121099Y381456D01*
X121080Y381461D01*
X121063Y381472D01*
X120963Y381497D01*
X120864Y381528D01*
X120844Y381527D01*
X120825Y381532D01*
X120722Y381524D01*
X120618Y381522D01*
X120599Y381515D01*
X120579Y381513D01*
X120485Y381473D01*
X120387Y381437D01*
X120371Y381425D01*
X120353Y381417D01*
X120222Y381312D01*
X119192Y380282D01*
X116018Y378967D01*
X112582Y378967D01*
X109408Y380282D01*
X106978Y382712D01*
X105663Y385886D01*
X105663Y396632D01*
X105649Y396722D01*
X105641Y396813D01*
X105629Y396843D01*
X105624Y396875D01*
X105581Y396956D01*
X105545Y397040D01*
X105519Y397072D01*
X105508Y397092D01*
X105485Y397115D01*
X105440Y397170D01*
X98657Y403954D01*
X97725Y404885D01*
X97646Y404942D01*
X97571Y405004D01*
X97547Y405014D01*
X97526Y405029D01*
X97433Y405058D01*
X97342Y405092D01*
X97316Y405094D01*
X97291Y405101D01*
X97193Y405099D01*
X97096Y405103D01*
X97071Y405096D01*
X97045Y405095D01*
X96953Y405061D01*
X96860Y405034D01*
X96838Y405019D01*
X96814Y405010D01*
X96738Y404950D01*
X96658Y404894D01*
X96642Y404873D01*
X96622Y404857D01*
X96569Y404775D01*
X96511Y404697D01*
X96503Y404672D01*
X96489Y404650D01*
X96465Y404555D01*
X96435Y404463D01*
X96435Y404437D01*
X96429Y404411D01*
X96436Y404314D01*
X96437Y404217D01*
X96446Y404186D01*
X96448Y404166D01*
X96461Y404136D01*
X96484Y404056D01*
X97537Y401514D01*
X97537Y385886D01*
X96222Y382712D01*
X93792Y380282D01*
X90618Y378967D01*
X87182Y378967D01*
X84008Y380282D01*
X81578Y382712D01*
X80263Y385886D01*
X80263Y401514D01*
X81578Y404688D01*
X84008Y407118D01*
X87182Y408433D01*
X90618Y408433D01*
X93792Y407118D01*
X94902Y406008D01*
X94960Y405966D01*
X95012Y405917D01*
X95060Y405895D01*
X95102Y405864D01*
X95170Y405843D01*
X95236Y405813D01*
X95287Y405807D01*
X95337Y405792D01*
X95409Y405794D01*
X95480Y405786D01*
X95531Y405797D01*
X95583Y405798D01*
X95650Y405823D01*
X95720Y405838D01*
X95765Y405865D01*
X95814Y405883D01*
X95870Y405928D01*
X95931Y405964D01*
X95965Y406004D01*
X96006Y406037D01*
X96045Y406097D01*
X96091Y406151D01*
X96111Y406200D01*
X96139Y406243D01*
X96156Y406313D01*
X96183Y406380D01*
X96191Y406451D01*
X96199Y406482D01*
X96197Y406505D01*
X96202Y406546D01*
X96202Y533254D01*
X96190Y533324D01*
X96188Y533396D01*
X96170Y533445D01*
X96162Y533497D01*
X96128Y533560D01*
X96104Y533627D01*
X96071Y533668D01*
X96047Y533714D01*
X95995Y533763D01*
X95950Y533819D01*
X95906Y533847D01*
X95869Y533883D01*
X95804Y533913D01*
X95743Y533952D01*
X95693Y533965D01*
X95646Y533987D01*
X95574Y533995D01*
X95505Y534012D01*
X95453Y534008D01*
X95401Y534014D01*
X95331Y533999D01*
X95260Y533993D01*
X95212Y533973D01*
X95161Y533962D01*
X95099Y533925D01*
X95033Y533897D01*
X94977Y533852D01*
X94950Y533836D01*
X94934Y533818D01*
X94902Y533792D01*
X93792Y532682D01*
X90618Y531367D01*
X87182Y531367D01*
X84008Y532682D01*
X81578Y535112D01*
X80263Y538286D01*
X80263Y553914D01*
X81578Y557088D01*
X84008Y559518D01*
X87182Y560833D01*
X90753Y560833D01*
X90823Y560844D01*
X90895Y560846D01*
X90944Y560864D01*
X90996Y560872D01*
X91059Y560906D01*
X91126Y560931D01*
X91167Y560963D01*
X91213Y560988D01*
X91262Y561040D01*
X91318Y561084D01*
X91346Y561128D01*
X91382Y561166D01*
X91412Y561231D01*
X91451Y561291D01*
X91464Y561342D01*
X91486Y561389D01*
X91494Y561460D01*
X91511Y561530D01*
X91507Y561582D01*
X91513Y561633D01*
X91498Y561704D01*
X91492Y561775D01*
X91472Y561823D01*
X91461Y561874D01*
X91424Y561935D01*
X91396Y562001D01*
X91351Y562057D01*
X91335Y562085D01*
X91317Y562100D01*
X91291Y562132D01*
X85957Y567466D01*
X85707Y567716D01*
X85691Y567728D01*
X85678Y567743D01*
X85591Y567799D01*
X85507Y567860D01*
X85488Y567866D01*
X85471Y567876D01*
X85371Y567902D01*
X85272Y567932D01*
X85252Y567932D01*
X85233Y567937D01*
X85130Y567929D01*
X85026Y567926D01*
X85008Y567919D01*
X84988Y567917D01*
X84893Y567877D01*
X84795Y567841D01*
X84780Y567829D01*
X84761Y567821D01*
X84630Y567716D01*
X79777Y562863D01*
X74345Y562863D01*
X74255Y562849D01*
X74164Y562841D01*
X74135Y562829D01*
X74103Y562824D01*
X74022Y562781D01*
X73938Y562745D01*
X73906Y562719D01*
X73885Y562708D01*
X73863Y562685D01*
X73807Y562640D01*
X70077Y558910D01*
X70065Y558894D01*
X70050Y558881D01*
X69994Y558794D01*
X69933Y558710D01*
X69927Y558691D01*
X69917Y558674D01*
X69891Y558574D01*
X69861Y558475D01*
X69861Y558455D01*
X69857Y558436D01*
X69865Y558333D01*
X69867Y558229D01*
X69874Y558210D01*
X69876Y558191D01*
X69916Y558096D01*
X69952Y557998D01*
X69964Y557983D01*
X69972Y557964D01*
X70077Y557833D01*
X70822Y557088D01*
X72137Y553914D01*
X72137Y538286D01*
X70822Y535112D01*
X68392Y532682D01*
X65218Y531367D01*
X61782Y531367D01*
X58608Y532682D01*
X56178Y535112D01*
X54863Y538286D01*
X54863Y553914D01*
X56178Y557088D01*
X58704Y559614D01*
X58746Y559673D01*
X58794Y559723D01*
X58802Y559741D01*
X58817Y559758D01*
X58829Y559788D01*
X58848Y559814D01*
X58870Y559888D01*
X58898Y559946D01*
X58899Y559963D01*
X58909Y559986D01*
X58913Y560027D01*
X58920Y560049D01*
X58919Y560081D01*
X58927Y560153D01*
X58927Y560694D01*
X67340Y569107D01*
X67393Y569181D01*
X67453Y569251D01*
X67465Y569281D01*
X67484Y569307D01*
X67511Y569394D01*
X67545Y569479D01*
X67549Y569520D01*
X67556Y569542D01*
X67555Y569574D01*
X67563Y569645D01*
X67563Y575077D01*
X72623Y580137D01*
X79777Y580137D01*
X82202Y577712D01*
X82260Y577670D01*
X82312Y577621D01*
X82360Y577599D01*
X82402Y577568D01*
X82470Y577547D01*
X82536Y577517D01*
X82587Y577511D01*
X82637Y577496D01*
X82709Y577498D01*
X82780Y577490D01*
X82831Y577501D01*
X82883Y577502D01*
X82950Y577527D01*
X83020Y577542D01*
X83065Y577569D01*
X83114Y577587D01*
X83170Y577632D01*
X83231Y577668D01*
X83265Y577708D01*
X83306Y577741D01*
X83345Y577801D01*
X83391Y577855D01*
X83411Y577904D01*
X83439Y577947D01*
X83456Y578017D01*
X83483Y578083D01*
X83491Y578155D01*
X83499Y578186D01*
X83497Y578209D01*
X83502Y578250D01*
X83502Y591831D01*
X83487Y591921D01*
X83480Y592012D01*
X83467Y592042D01*
X83462Y592074D01*
X83419Y592155D01*
X83384Y592239D01*
X83358Y592271D01*
X83347Y592291D01*
X83324Y592314D01*
X83279Y592369D01*
X77152Y598497D01*
X77152Y677853D01*
X88041Y688743D01*
X90497Y691198D01*
X268278Y691198D01*
X270511Y688966D01*
X270511Y685402D01*
X270514Y685382D01*
X270512Y685363D01*
X270534Y685261D01*
X270550Y685159D01*
X270560Y685142D01*
X270564Y685122D01*
X270617Y685033D01*
X270666Y684942D01*
X270680Y684928D01*
X270690Y684911D01*
X270769Y684844D01*
X270844Y684772D01*
X270862Y684764D01*
X270877Y684751D01*
X270973Y684712D01*
X271067Y684669D01*
X271087Y684667D01*
X271105Y684659D01*
X271272Y684641D01*
X289452Y684641D01*
X290941Y683152D01*
X290941Y663048D01*
X289452Y661559D01*
X271272Y661559D01*
X271252Y661556D01*
X271233Y661558D01*
X271131Y661536D01*
X271029Y661520D01*
X271012Y661510D01*
X270992Y661506D01*
X270903Y661453D01*
X270812Y661404D01*
X270798Y661390D01*
X270781Y661380D01*
X270714Y661301D01*
X270642Y661226D01*
X270634Y661208D01*
X270621Y661193D01*
X270582Y661097D01*
X270539Y661003D01*
X270537Y660983D01*
X270529Y660965D01*
X270511Y660798D01*
X270511Y640069D01*
X270513Y640055D01*
X270512Y640043D01*
X270525Y639984D01*
X270525Y639979D01*
X270533Y639888D01*
X270545Y639858D01*
X270550Y639826D01*
X270593Y639745D01*
X270629Y639661D01*
X270655Y639629D01*
X270666Y639609D01*
X270689Y639586D01*
X270734Y639531D01*
X276200Y634064D01*
X276274Y634011D01*
X276344Y633951D01*
X276374Y633939D01*
X276400Y633920D01*
X276487Y633893D01*
X276572Y633859D01*
X276613Y633855D01*
X276635Y633848D01*
X276667Y633849D01*
X276739Y633841D01*
X289452Y633841D01*
X290941Y632352D01*
X290941Y612248D01*
X289452Y610759D01*
X275943Y610759D01*
X275872Y610748D01*
X275800Y610746D01*
X275751Y610728D01*
X275700Y610720D01*
X275637Y610686D01*
X275569Y610661D01*
X275529Y610629D01*
X275483Y610604D01*
X275433Y610552D01*
X275377Y610508D01*
X275349Y610464D01*
X275313Y610426D01*
X275283Y610361D01*
X275244Y610301D01*
X275232Y610250D01*
X275210Y610203D01*
X275202Y610132D01*
X275184Y610062D01*
X275188Y610010D01*
X275183Y609959D01*
X275198Y609888D01*
X275203Y609817D01*
X275224Y609769D01*
X275235Y609718D01*
X275272Y609657D01*
X275300Y609591D01*
X275344Y609535D01*
X275361Y609507D01*
X275379Y609492D01*
X275404Y609460D01*
X280036Y604828D01*
X280036Y604304D01*
X280039Y604284D01*
X280037Y604264D01*
X280042Y604239D01*
X280041Y604212D01*
X280063Y604138D01*
X280075Y604061D01*
X280085Y604043D01*
X280089Y604024D01*
X280102Y604002D01*
X280110Y603976D01*
X280154Y603912D01*
X280191Y603843D01*
X280205Y603830D01*
X280215Y603813D01*
X280235Y603796D01*
X280250Y603774D01*
X280312Y603728D01*
X280369Y603674D01*
X280387Y603666D01*
X280402Y603653D01*
X280426Y603643D01*
X280447Y603627D01*
X280521Y603603D01*
X280592Y603570D01*
X280612Y603568D01*
X280630Y603561D01*
X280662Y603557D01*
X280681Y603551D01*
X280716Y603552D01*
X280797Y603543D01*
X280816Y603546D01*
X280836Y603543D01*
X280881Y603553D01*
X280927Y603554D01*
X281008Y603577D01*
X281040Y603582D01*
X281057Y603591D01*
X281059Y603592D01*
X281077Y603596D01*
X281081Y603598D01*
X281088Y603600D01*
X282697Y604267D01*
X285705Y604267D01*
X285747Y604256D01*
X285753Y604257D01*
X285759Y604255D01*
X285876Y604266D01*
X285992Y604275D01*
X285998Y604278D01*
X286004Y604278D01*
X286112Y604326D01*
X286219Y604372D01*
X286224Y604376D01*
X286229Y604378D01*
X286243Y604391D01*
X286350Y604476D01*
X293152Y611279D01*
X293163Y611295D01*
X293179Y611307D01*
X293235Y611395D01*
X293295Y611478D01*
X293301Y611497D01*
X293312Y611514D01*
X293337Y611614D01*
X293368Y611713D01*
X293367Y611733D01*
X293372Y611753D01*
X293364Y611856D01*
X293361Y611959D01*
X293354Y611978D01*
X293353Y611998D01*
X293312Y612093D01*
X293277Y612190D01*
X293264Y612206D01*
X293259Y612218D01*
X293259Y632352D01*
X294748Y633841D01*
X313811Y633841D01*
X313901Y633855D01*
X313992Y633863D01*
X314022Y633875D01*
X314054Y633880D01*
X314135Y633923D01*
X314219Y633959D01*
X314251Y633985D01*
X314271Y633996D01*
X314294Y634019D01*
X314350Y634064D01*
X340546Y660260D01*
X340587Y660318D01*
X340637Y660370D01*
X340659Y660417D01*
X340689Y660459D01*
X340710Y660528D01*
X340740Y660593D01*
X340746Y660645D01*
X340761Y660695D01*
X340760Y660766D01*
X340767Y660837D01*
X340756Y660888D01*
X340755Y660940D01*
X340730Y661008D01*
X340715Y661078D01*
X340689Y661122D01*
X340671Y661171D01*
X340626Y661227D01*
X340589Y661289D01*
X340549Y661323D01*
X340517Y661363D01*
X340457Y661402D01*
X340402Y661449D01*
X340354Y661468D01*
X340310Y661496D01*
X340241Y661514D01*
X340174Y661541D01*
X340103Y661549D01*
X340071Y661557D01*
X340048Y661555D01*
X340007Y661559D01*
X320148Y661559D01*
X318659Y663048D01*
X318659Y683152D01*
X320148Y684641D01*
X340252Y684641D01*
X341741Y683152D01*
X341741Y663293D01*
X341752Y663222D01*
X341754Y663150D01*
X341772Y663101D01*
X341780Y663050D01*
X341814Y662987D01*
X341839Y662919D01*
X341871Y662879D01*
X341896Y662833D01*
X341947Y662783D01*
X341992Y662727D01*
X342036Y662699D01*
X342074Y662663D01*
X342139Y662633D01*
X342199Y662594D01*
X342250Y662582D01*
X342297Y662560D01*
X342368Y662552D01*
X342438Y662534D01*
X342490Y662538D01*
X342541Y662533D01*
X342612Y662548D01*
X342683Y662553D01*
X342731Y662574D01*
X342782Y662585D01*
X342843Y662622D01*
X342909Y662650D01*
X342965Y662694D01*
X342993Y662711D01*
X343008Y662729D01*
X343040Y662754D01*
X343836Y663550D01*
X343889Y663624D01*
X343949Y663694D01*
X343961Y663724D01*
X343980Y663750D01*
X344007Y663837D01*
X344041Y663922D01*
X344045Y663963D01*
X344052Y663985D01*
X344051Y664017D01*
X344059Y664089D01*
X344059Y683152D01*
X345548Y684641D01*
X365652Y684641D01*
X367141Y683152D01*
X367141Y664972D01*
X367144Y664952D01*
X367142Y664933D01*
X367164Y664831D01*
X367180Y664729D01*
X367190Y664712D01*
X367194Y664692D01*
X367247Y664603D01*
X367296Y664512D01*
X367310Y664498D01*
X367320Y664481D01*
X367399Y664414D01*
X367474Y664342D01*
X367492Y664334D01*
X367507Y664321D01*
X367603Y664282D01*
X367697Y664239D01*
X367717Y664237D01*
X367735Y664229D01*
X367902Y664211D01*
X368698Y664211D01*
X368718Y664214D01*
X368737Y664212D01*
X368839Y664234D01*
X368941Y664250D01*
X368958Y664260D01*
X368978Y664264D01*
X369067Y664317D01*
X369158Y664366D01*
X369172Y664380D01*
X369189Y664390D01*
X369256Y664469D01*
X369328Y664544D01*
X369336Y664562D01*
X369349Y664577D01*
X369388Y664673D01*
X369431Y664767D01*
X369433Y664787D01*
X369441Y664805D01*
X369459Y664972D01*
X369459Y683152D01*
X370948Y684641D01*
X391052Y684641D01*
X392541Y683152D01*
X392541Y664972D01*
X392544Y664952D01*
X392542Y664933D01*
X392564Y664831D01*
X392580Y664729D01*
X392590Y664712D01*
X392594Y664692D01*
X392647Y664603D01*
X392696Y664512D01*
X392710Y664498D01*
X392720Y664481D01*
X392799Y664414D01*
X392874Y664342D01*
X392892Y664334D01*
X392907Y664321D01*
X393003Y664282D01*
X393097Y664239D01*
X393117Y664237D01*
X393135Y664229D01*
X393302Y664211D01*
X394098Y664211D01*
X394118Y664214D01*
X394137Y664212D01*
X394239Y664234D01*
X394341Y664250D01*
X394358Y664260D01*
X394378Y664264D01*
X394467Y664317D01*
X394558Y664366D01*
X394572Y664380D01*
X394589Y664390D01*
X394656Y664469D01*
X394728Y664544D01*
X394736Y664562D01*
X394749Y664577D01*
X394788Y664673D01*
X394831Y664767D01*
X394833Y664787D01*
X394841Y664805D01*
X394859Y664972D01*
X394859Y683152D01*
X396348Y684641D01*
X416452Y684641D01*
X417941Y683152D01*
X417941Y664972D01*
X417944Y664952D01*
X417942Y664933D01*
X417964Y664831D01*
X417980Y664729D01*
X417990Y664712D01*
X417994Y664692D01*
X418047Y664603D01*
X418096Y664512D01*
X418110Y664498D01*
X418120Y664481D01*
X418199Y664414D01*
X418274Y664342D01*
X418292Y664334D01*
X418307Y664321D01*
X418403Y664282D01*
X418497Y664239D01*
X418517Y664237D01*
X418535Y664229D01*
X418702Y664211D01*
X419498Y664211D01*
X419518Y664214D01*
X419537Y664212D01*
X419639Y664234D01*
X419741Y664250D01*
X419758Y664260D01*
X419778Y664264D01*
X419867Y664317D01*
X419958Y664366D01*
X419972Y664380D01*
X419989Y664390D01*
X420056Y664469D01*
X420128Y664544D01*
X420136Y664562D01*
X420149Y664577D01*
X420188Y664673D01*
X420231Y664767D01*
X420233Y664787D01*
X420241Y664805D01*
X420259Y664972D01*
X420259Y683152D01*
X421748Y684641D01*
X440811Y684641D01*
X440901Y684655D01*
X440992Y684663D01*
X441022Y684675D01*
X441054Y684680D01*
X441135Y684723D01*
X441219Y684759D01*
X441251Y684785D01*
X441271Y684796D01*
X441294Y684819D01*
X441349Y684864D01*
X454034Y697548D01*
X879466Y697548D01*
X881698Y695316D01*
X881698Y660409D01*
X856429Y635140D01*
X856388Y635082D01*
X856338Y635030D01*
X856316Y634983D01*
X856286Y634941D01*
X856265Y634872D01*
X856235Y634807D01*
X856229Y634755D01*
X856214Y634705D01*
X856215Y634634D01*
X856208Y634563D01*
X856219Y634512D01*
X856220Y634460D01*
X856245Y634392D01*
X856260Y634322D01*
X856286Y634277D01*
X856304Y634229D01*
X856349Y634173D01*
X856386Y634111D01*
X856426Y634077D01*
X856458Y634037D01*
X856518Y633998D01*
X856573Y633951D01*
X856621Y633932D01*
X856665Y633904D01*
X856734Y633886D01*
X856801Y633859D01*
X856872Y633851D01*
X856904Y633843D01*
X856927Y633845D01*
X856968Y633841D01*
X873652Y633841D01*
X875141Y632352D01*
X875141Y612248D01*
X873652Y610759D01*
X853548Y610759D01*
X852059Y612248D01*
X852059Y628932D01*
X852048Y629003D01*
X852046Y629075D01*
X852028Y629124D01*
X852020Y629175D01*
X851986Y629238D01*
X851961Y629306D01*
X851929Y629346D01*
X851904Y629392D01*
X851852Y629442D01*
X851808Y629498D01*
X851764Y629526D01*
X851726Y629562D01*
X851661Y629592D01*
X851601Y629631D01*
X851550Y629643D01*
X851503Y629665D01*
X851432Y629673D01*
X851362Y629691D01*
X851310Y629687D01*
X851259Y629692D01*
X851188Y629677D01*
X851117Y629672D01*
X851069Y629651D01*
X851018Y629640D01*
X850957Y629603D01*
X850891Y629575D01*
X850835Y629531D01*
X850807Y629514D01*
X850792Y629496D01*
X850760Y629471D01*
X849964Y628674D01*
X849911Y628600D01*
X849851Y628531D01*
X849839Y628501D01*
X849820Y628475D01*
X849793Y628388D01*
X849759Y628303D01*
X849755Y628262D01*
X849748Y628240D01*
X849749Y628207D01*
X849741Y628136D01*
X849741Y612248D01*
X848252Y610759D01*
X828148Y610759D01*
X826659Y612248D01*
X826659Y632352D01*
X828148Y633841D01*
X844036Y633841D01*
X844126Y633855D01*
X844217Y633863D01*
X844247Y633875D01*
X844279Y633880D01*
X844360Y633923D01*
X844444Y633959D01*
X844476Y633985D01*
X844496Y633996D01*
X844519Y634019D01*
X844574Y634064D01*
X870771Y660260D01*
X870812Y660318D01*
X870862Y660370D01*
X870884Y660417D01*
X870914Y660459D01*
X870935Y660528D01*
X870965Y660593D01*
X870971Y660645D01*
X870986Y660695D01*
X870985Y660766D01*
X870992Y660837D01*
X870981Y660888D01*
X870980Y660940D01*
X870955Y661008D01*
X870940Y661078D01*
X870914Y661123D01*
X870896Y661171D01*
X870851Y661227D01*
X870814Y661289D01*
X870774Y661323D01*
X870742Y661363D01*
X870682Y661402D01*
X870627Y661449D01*
X870579Y661468D01*
X870535Y661496D01*
X870466Y661514D01*
X870399Y661541D01*
X870328Y661549D01*
X870296Y661557D01*
X870273Y661555D01*
X870232Y661559D01*
X865123Y661559D01*
X865123Y672338D01*
X865120Y672358D01*
X865122Y672377D01*
X865100Y672479D01*
X865083Y672581D01*
X865074Y672598D01*
X865070Y672618D01*
X865017Y672707D01*
X864968Y672798D01*
X864954Y672812D01*
X864944Y672829D01*
X864865Y672896D01*
X864790Y672967D01*
X864772Y672976D01*
X864757Y672989D01*
X864661Y673027D01*
X864567Y673071D01*
X864547Y673073D01*
X864529Y673081D01*
X864362Y673099D01*
X863599Y673099D01*
X863599Y673101D01*
X864362Y673101D01*
X864382Y673104D01*
X864401Y673102D01*
X864503Y673124D01*
X864605Y673141D01*
X864622Y673150D01*
X864642Y673154D01*
X864731Y673207D01*
X864822Y673256D01*
X864836Y673270D01*
X864853Y673280D01*
X864920Y673359D01*
X864991Y673434D01*
X865000Y673452D01*
X865013Y673467D01*
X865052Y673563D01*
X865095Y673657D01*
X865097Y673677D01*
X865105Y673695D01*
X865123Y673862D01*
X865123Y684641D01*
X872934Y684641D01*
X873118Y684591D01*
X873238Y684580D01*
X873355Y684567D01*
X873359Y684567D01*
X873363Y684567D01*
X873478Y684593D01*
X873595Y684619D01*
X873599Y684621D01*
X873603Y684622D01*
X873704Y684684D01*
X873806Y684745D01*
X873809Y684748D01*
X873813Y684750D01*
X873889Y684841D01*
X873966Y684932D01*
X873968Y684936D01*
X873971Y684939D01*
X874014Y685049D01*
X874058Y685160D01*
X874059Y685165D01*
X874060Y685168D01*
X874061Y685182D01*
X874077Y685327D01*
X874077Y689166D01*
X874074Y689185D01*
X874076Y689205D01*
X874054Y689306D01*
X874037Y689408D01*
X874028Y689426D01*
X874023Y689445D01*
X873970Y689534D01*
X873922Y689626D01*
X873908Y689639D01*
X873897Y689656D01*
X873819Y689724D01*
X873744Y689795D01*
X873726Y689803D01*
X873710Y689816D01*
X873614Y689855D01*
X873521Y689899D01*
X873501Y689901D01*
X873482Y689908D01*
X873316Y689927D01*
X563372Y689927D01*
X563352Y689924D01*
X563333Y689926D01*
X563231Y689904D01*
X563129Y689887D01*
X563112Y689878D01*
X563092Y689873D01*
X563003Y689820D01*
X562912Y689772D01*
X562898Y689758D01*
X562881Y689747D01*
X562814Y689669D01*
X562742Y689594D01*
X562734Y689576D01*
X562721Y689560D01*
X562682Y689464D01*
X562639Y689371D01*
X562637Y689351D01*
X562629Y689332D01*
X562611Y689166D01*
X562611Y685402D01*
X562614Y685382D01*
X562612Y685363D01*
X562634Y685261D01*
X562650Y685159D01*
X562660Y685142D01*
X562664Y685122D01*
X562717Y685033D01*
X562766Y684942D01*
X562780Y684928D01*
X562790Y684911D01*
X562869Y684844D01*
X562944Y684772D01*
X562962Y684764D01*
X562977Y684751D01*
X563073Y684712D01*
X563167Y684669D01*
X563187Y684667D01*
X563205Y684659D01*
X563372Y684641D01*
X568852Y684641D01*
X570341Y683152D01*
X570341Y663048D01*
X568852Y661559D01*
X548748Y661559D01*
X547259Y663048D01*
X547259Y682816D01*
X547256Y682835D01*
X547258Y682855D01*
X547236Y682956D01*
X547220Y683058D01*
X547210Y683076D01*
X547206Y683095D01*
X547153Y683184D01*
X547104Y683276D01*
X547090Y683289D01*
X547080Y683306D01*
X547001Y683374D01*
X546926Y683445D01*
X546908Y683453D01*
X546893Y683466D01*
X546797Y683505D01*
X546703Y683549D01*
X546683Y683551D01*
X546665Y683558D01*
X546498Y683577D01*
X545702Y683577D01*
X545682Y683574D01*
X545663Y683576D01*
X545561Y683554D01*
X545459Y683537D01*
X545442Y683528D01*
X545422Y683523D01*
X545333Y683470D01*
X545242Y683422D01*
X545228Y683408D01*
X545211Y683397D01*
X545144Y683319D01*
X545072Y683244D01*
X545064Y683226D01*
X545051Y683210D01*
X545012Y683114D01*
X544969Y683021D01*
X544967Y683001D01*
X544959Y682982D01*
X544941Y682816D01*
X544941Y663048D01*
X543452Y661559D01*
X537972Y661559D01*
X537952Y661556D01*
X537933Y661558D01*
X537831Y661536D01*
X537729Y661520D01*
X537712Y661510D01*
X537692Y661506D01*
X537603Y661453D01*
X537512Y661404D01*
X537498Y661390D01*
X537481Y661380D01*
X537414Y661301D01*
X537342Y661226D01*
X537334Y661208D01*
X537321Y661193D01*
X537282Y661097D01*
X537239Y661003D01*
X537237Y660983D01*
X537229Y660965D01*
X537211Y660798D01*
X537211Y655447D01*
X537214Y655427D01*
X537212Y655408D01*
X537234Y655306D01*
X537250Y655204D01*
X537260Y655187D01*
X537264Y655167D01*
X537317Y655078D01*
X537366Y654987D01*
X537380Y654973D01*
X537390Y654956D01*
X537469Y654889D01*
X537544Y654817D01*
X537562Y654809D01*
X537577Y654796D01*
X537673Y654757D01*
X537767Y654714D01*
X537787Y654712D01*
X537805Y654704D01*
X537972Y654686D01*
X579628Y654686D01*
X579648Y654689D01*
X579667Y654687D01*
X579769Y654709D01*
X579871Y654725D01*
X579888Y654735D01*
X579908Y654739D01*
X579997Y654792D01*
X580088Y654841D01*
X580102Y654855D01*
X580119Y654865D01*
X580186Y654944D01*
X580258Y655019D01*
X580266Y655037D01*
X580279Y655052D01*
X580318Y655148D01*
X580361Y655242D01*
X580363Y655262D01*
X580371Y655280D01*
X580389Y655447D01*
X580389Y660798D01*
X580386Y660818D01*
X580388Y660837D01*
X580366Y660939D01*
X580350Y661041D01*
X580340Y661058D01*
X580336Y661078D01*
X580283Y661167D01*
X580234Y661258D01*
X580220Y661272D01*
X580210Y661289D01*
X580131Y661356D01*
X580056Y661428D01*
X580038Y661436D01*
X580023Y661449D01*
X579927Y661488D01*
X579833Y661531D01*
X579813Y661533D01*
X579795Y661541D01*
X579628Y661559D01*
X574148Y661559D01*
X572659Y663048D01*
X572659Y683152D01*
X574148Y684641D01*
X594252Y684641D01*
X595741Y683152D01*
X595741Y663048D01*
X594252Y661559D01*
X588772Y661559D01*
X588752Y661556D01*
X588733Y661558D01*
X588631Y661536D01*
X588529Y661520D01*
X588512Y661510D01*
X588492Y661506D01*
X588403Y661453D01*
X588312Y661404D01*
X588298Y661390D01*
X588281Y661380D01*
X588214Y661301D01*
X588142Y661226D01*
X588134Y661208D01*
X588121Y661193D01*
X588082Y661097D01*
X588039Y661003D01*
X588037Y660983D01*
X588029Y660965D01*
X588011Y660798D01*
X588011Y649297D01*
X585778Y647064D01*
X490844Y647064D01*
X490754Y647050D01*
X490663Y647042D01*
X490633Y647030D01*
X490601Y647025D01*
X490520Y646982D01*
X490436Y646946D01*
X490404Y646920D01*
X490384Y646909D01*
X490361Y646886D01*
X490306Y646841D01*
X478604Y635140D01*
X478563Y635082D01*
X478513Y635030D01*
X478491Y634983D01*
X478461Y634941D01*
X478440Y634872D01*
X478410Y634807D01*
X478404Y634755D01*
X478389Y634705D01*
X478390Y634634D01*
X478383Y634563D01*
X478394Y634512D01*
X478395Y634460D01*
X478420Y634392D01*
X478435Y634322D01*
X478461Y634277D01*
X478479Y634229D01*
X478524Y634173D01*
X478561Y634111D01*
X478601Y634077D01*
X478633Y634037D01*
X478693Y633998D01*
X478748Y633951D01*
X478796Y633932D01*
X478840Y633904D01*
X478909Y633886D01*
X478976Y633859D01*
X479047Y633851D01*
X479079Y633843D01*
X479102Y633845D01*
X479143Y633841D01*
X492652Y633841D01*
X494141Y632352D01*
X494141Y612248D01*
X492652Y610759D01*
X473589Y610759D01*
X473499Y610745D01*
X473408Y610737D01*
X473378Y610725D01*
X473346Y610720D01*
X473265Y610677D01*
X473181Y610641D01*
X473149Y610615D01*
X473129Y610604D01*
X473106Y610581D01*
X473051Y610536D01*
X464409Y601894D01*
X464356Y601821D01*
X464296Y601751D01*
X464284Y601721D01*
X464265Y601695D01*
X464238Y601608D01*
X464204Y601523D01*
X464200Y601482D01*
X464193Y601460D01*
X464194Y601427D01*
X464186Y601356D01*
X464186Y554438D01*
X464197Y554367D01*
X464199Y554295D01*
X464217Y554246D01*
X464225Y554195D01*
X464259Y554132D01*
X464284Y554064D01*
X464316Y554024D01*
X464341Y553978D01*
X464393Y553928D01*
X464437Y553872D01*
X464481Y553844D01*
X464519Y553808D01*
X464584Y553778D01*
X464644Y553739D01*
X464695Y553727D01*
X464742Y553705D01*
X464813Y553697D01*
X464883Y553679D01*
X464935Y553683D01*
X464986Y553677D01*
X465057Y553693D01*
X465128Y553698D01*
X465176Y553719D01*
X465227Y553730D01*
X465288Y553767D01*
X465354Y553795D01*
X465410Y553839D01*
X465438Y553856D01*
X465453Y553874D01*
X465485Y553899D01*
X466323Y554737D01*
X473477Y554737D01*
X478537Y549677D01*
X478537Y542523D01*
X473477Y537463D01*
X466323Y537463D01*
X465485Y538301D01*
X465427Y538342D01*
X465375Y538392D01*
X465328Y538414D01*
X465286Y538444D01*
X465217Y538465D01*
X465152Y538495D01*
X465100Y538501D01*
X465050Y538516D01*
X464979Y538515D01*
X464908Y538523D01*
X464857Y538511D01*
X464805Y538510D01*
X464737Y538485D01*
X464667Y538470D01*
X464622Y538444D01*
X464574Y538426D01*
X464518Y538381D01*
X464456Y538344D01*
X464422Y538305D01*
X464382Y538272D01*
X464343Y538212D01*
X464296Y538157D01*
X464277Y538109D01*
X464249Y538065D01*
X464231Y537996D01*
X464204Y537929D01*
X464196Y537858D01*
X464188Y537827D01*
X464190Y537803D01*
X464186Y537762D01*
X464186Y519419D01*
X464200Y519329D01*
X464208Y519238D01*
X464220Y519208D01*
X464225Y519176D01*
X464268Y519095D01*
X464304Y519011D01*
X464330Y518979D01*
X464341Y518959D01*
X464364Y518936D01*
X464409Y518881D01*
X466430Y516860D01*
X466503Y516807D01*
X466573Y516747D01*
X466603Y516735D01*
X466629Y516716D01*
X466716Y516689D01*
X466801Y516655D01*
X466842Y516651D01*
X466864Y516644D01*
X466897Y516645D01*
X466968Y516637D01*
X473477Y516637D01*
X478537Y511577D01*
X478537Y504423D01*
X476859Y502745D01*
X476847Y502728D01*
X476832Y502716D01*
X476775Y502629D01*
X476715Y502545D01*
X476709Y502526D01*
X476699Y502509D01*
X476673Y502409D01*
X476643Y502310D01*
X476643Y502290D01*
X476638Y502270D01*
X476646Y502168D01*
X476649Y502064D01*
X476656Y502045D01*
X476658Y502025D01*
X476698Y501930D01*
X476734Y501833D01*
X476746Y501817D01*
X476754Y501799D01*
X476859Y501668D01*
X526098Y452428D01*
X526098Y450316D01*
X526106Y450271D01*
X526104Y450225D01*
X526125Y450150D01*
X526138Y450073D01*
X526159Y450033D01*
X526172Y449989D01*
X526217Y449925D01*
X526253Y449856D01*
X526286Y449824D01*
X526313Y449787D01*
X526375Y449740D01*
X526431Y449687D01*
X526473Y449667D01*
X526510Y449640D01*
X526584Y449616D01*
X526654Y449583D01*
X526700Y449578D01*
X526744Y449564D01*
X526822Y449564D01*
X526899Y449556D01*
X526944Y449566D01*
X526990Y449566D01*
X527121Y449604D01*
X527139Y449608D01*
X527144Y449611D01*
X527151Y449613D01*
X528760Y450279D01*
X531690Y450279D01*
X534398Y449158D01*
X536470Y447085D01*
X537592Y444378D01*
X537592Y441447D01*
X536470Y438740D01*
X534343Y436613D01*
X534306Y436590D01*
X534302Y436586D01*
X534297Y436582D01*
X534223Y436493D01*
X534146Y436403D01*
X534144Y436398D01*
X534140Y436393D01*
X534098Y436285D01*
X534054Y436175D01*
X534053Y436168D01*
X534052Y436163D01*
X534051Y436145D01*
X534036Y436009D01*
X534036Y350767D01*
X534043Y350721D01*
X534041Y350676D01*
X534063Y350601D01*
X534075Y350524D01*
X534097Y350483D01*
X534110Y350439D01*
X534154Y350375D01*
X534191Y350307D01*
X534224Y350275D01*
X534250Y350237D01*
X534313Y350191D01*
X534369Y350137D01*
X534411Y350118D01*
X534447Y350090D01*
X534521Y350066D01*
X534592Y350034D01*
X534638Y350029D01*
X534681Y350014D01*
X534759Y350015D01*
X534836Y350006D01*
X534881Y350016D01*
X534927Y350017D01*
X535059Y350055D01*
X535077Y350059D01*
X535081Y350061D01*
X535088Y350063D01*
X538032Y351283D01*
X539749Y351283D01*
X539820Y351294D01*
X539891Y351296D01*
X539940Y351314D01*
X539992Y351322D01*
X540055Y351356D01*
X540122Y351381D01*
X540163Y351413D01*
X540209Y351438D01*
X540258Y351490D01*
X540314Y351534D01*
X540342Y351578D01*
X540378Y351616D01*
X540409Y351681D01*
X540447Y351741D01*
X540460Y351792D01*
X540482Y351839D01*
X540490Y351910D01*
X540507Y351980D01*
X540503Y352032D01*
X540509Y352083D01*
X540494Y352154D01*
X540488Y352225D01*
X540468Y352273D01*
X540457Y352324D01*
X540420Y352385D01*
X540392Y352451D01*
X540347Y352507D01*
X540331Y352535D01*
X540313Y352550D01*
X540287Y352582D01*
X539855Y353015D01*
X538733Y355722D01*
X538733Y358653D01*
X539855Y361360D01*
X541304Y362810D01*
X541357Y362884D01*
X541417Y362953D01*
X541429Y362983D01*
X541448Y363010D01*
X541475Y363097D01*
X541509Y363181D01*
X541513Y363222D01*
X541520Y363245D01*
X541519Y363277D01*
X541527Y363348D01*
X541527Y500043D01*
X541526Y500051D01*
X541526Y500052D01*
X541525Y500059D01*
X541513Y500133D01*
X541505Y500224D01*
X541493Y500254D01*
X541488Y500286D01*
X541445Y500367D01*
X541409Y500451D01*
X541383Y500483D01*
X541372Y500503D01*
X541349Y500526D01*
X541304Y500582D01*
X537463Y504423D01*
X537463Y511577D01*
X541304Y515418D01*
X541357Y515492D01*
X541417Y515562D01*
X541429Y515592D01*
X541448Y515618D01*
X541475Y515705D01*
X541509Y515790D01*
X541513Y515831D01*
X541520Y515853D01*
X541519Y515885D01*
X541527Y515957D01*
X541527Y538143D01*
X541513Y538233D01*
X541505Y538324D01*
X541493Y538354D01*
X541488Y538386D01*
X541445Y538467D01*
X541409Y538551D01*
X541383Y538583D01*
X541372Y538603D01*
X541349Y538626D01*
X541304Y538682D01*
X537463Y542523D01*
X537463Y549677D01*
X542523Y554737D01*
X546367Y554737D01*
X546457Y554751D01*
X546548Y554759D01*
X546578Y554771D01*
X546610Y554776D01*
X546691Y554819D01*
X546774Y554855D01*
X546807Y554881D01*
X546827Y554892D01*
X546849Y554915D01*
X546905Y554960D01*
X554004Y562059D01*
X554057Y562133D01*
X554117Y562202D01*
X554129Y562232D01*
X554148Y562258D01*
X554175Y562345D01*
X554209Y562430D01*
X554213Y562471D01*
X554220Y562493D01*
X554219Y562526D01*
X554227Y562597D01*
X554227Y609998D01*
X554224Y610018D01*
X554226Y610037D01*
X554204Y610139D01*
X554188Y610241D01*
X554178Y610258D01*
X554174Y610278D01*
X554121Y610367D01*
X554072Y610458D01*
X554058Y610472D01*
X554048Y610489D01*
X553969Y610556D01*
X553894Y610628D01*
X553876Y610636D01*
X553861Y610649D01*
X553765Y610688D01*
X553671Y610731D01*
X553651Y610733D01*
X553633Y610741D01*
X553466Y610759D01*
X548748Y610759D01*
X547259Y612248D01*
X547259Y632352D01*
X548748Y633841D01*
X568852Y633841D01*
X570341Y632352D01*
X570341Y612248D01*
X568852Y610759D01*
X564134Y610759D01*
X564114Y610756D01*
X564095Y610758D01*
X563993Y610736D01*
X563891Y610720D01*
X563874Y610710D01*
X563854Y610706D01*
X563765Y610653D01*
X563674Y610604D01*
X563660Y610590D01*
X563643Y610580D01*
X563576Y610501D01*
X563504Y610426D01*
X563496Y610408D01*
X563483Y610393D01*
X563444Y610297D01*
X563401Y610203D01*
X563399Y610183D01*
X563391Y610165D01*
X563373Y609998D01*
X563373Y558493D01*
X554960Y550080D01*
X554907Y550006D01*
X554847Y549937D01*
X554835Y549907D01*
X554816Y549881D01*
X554789Y549794D01*
X554755Y549709D01*
X554751Y549668D01*
X554744Y549646D01*
X554745Y549613D01*
X554737Y549542D01*
X554737Y542523D01*
X550896Y538682D01*
X550843Y538608D01*
X550783Y538538D01*
X550771Y538508D01*
X550752Y538482D01*
X550725Y538395D01*
X550691Y538310D01*
X550687Y538269D01*
X550680Y538247D01*
X550681Y538215D01*
X550673Y538143D01*
X550673Y515957D01*
X550687Y515867D01*
X550695Y515776D01*
X550707Y515746D01*
X550712Y515714D01*
X550755Y515633D01*
X550791Y515549D01*
X550817Y515517D01*
X550828Y515497D01*
X550851Y515474D01*
X550896Y515418D01*
X554737Y511577D01*
X554737Y504423D01*
X550896Y500582D01*
X550843Y500508D01*
X550783Y500438D01*
X550771Y500408D01*
X550752Y500382D01*
X550725Y500295D01*
X550691Y500210D01*
X550687Y500169D01*
X550680Y500147D01*
X550681Y500115D01*
X550673Y500043D01*
X550673Y446799D01*
X550680Y446754D01*
X550678Y446708D01*
X550700Y446633D01*
X550712Y446556D01*
X550734Y446516D01*
X550747Y446472D01*
X550791Y446408D01*
X550828Y446339D01*
X550861Y446307D01*
X550887Y446270D01*
X550949Y446223D01*
X551006Y446170D01*
X551048Y446150D01*
X551084Y446123D01*
X551158Y446099D01*
X551229Y446066D01*
X551275Y446061D01*
X551318Y446047D01*
X551396Y446048D01*
X551473Y446039D01*
X551518Y446049D01*
X551564Y446049D01*
X551696Y446087D01*
X551714Y446091D01*
X551718Y446094D01*
X551725Y446096D01*
X554160Y447104D01*
X557090Y447104D01*
X559798Y445983D01*
X561870Y443910D01*
X562992Y441203D01*
X562992Y438272D01*
X561870Y435565D01*
X559743Y433438D01*
X559706Y433415D01*
X559702Y433411D01*
X559697Y433407D01*
X559623Y433318D01*
X559546Y433228D01*
X559544Y433223D01*
X559540Y433218D01*
X559498Y433110D01*
X559454Y433000D01*
X559453Y432993D01*
X559452Y432988D01*
X559451Y432970D01*
X559436Y432834D01*
X559436Y374116D01*
X559443Y374071D01*
X559441Y374025D01*
X559463Y373950D01*
X559475Y373873D01*
X559497Y373833D01*
X559510Y373789D01*
X559554Y373725D01*
X559591Y373656D01*
X559624Y373624D01*
X559650Y373587D01*
X559712Y373540D01*
X559769Y373487D01*
X559811Y373467D01*
X559847Y373440D01*
X559921Y373416D01*
X559992Y373383D01*
X560038Y373378D01*
X560081Y373364D01*
X560159Y373364D01*
X560236Y373356D01*
X560281Y373366D01*
X560327Y373366D01*
X560459Y373404D01*
X560477Y373408D01*
X560481Y373411D01*
X560488Y373413D01*
X562097Y374079D01*
X565028Y374079D01*
X567735Y372958D01*
X569565Y371128D01*
X569623Y371087D01*
X569675Y371037D01*
X569722Y371015D01*
X569764Y370985D01*
X569833Y370964D01*
X569898Y370934D01*
X569950Y370928D01*
X570000Y370912D01*
X570071Y370914D01*
X570142Y370906D01*
X570193Y370918D01*
X570245Y370919D01*
X570313Y370943D01*
X570383Y370959D01*
X570428Y370985D01*
X570476Y371003D01*
X570532Y371048D01*
X570594Y371085D01*
X570628Y371124D01*
X570668Y371157D01*
X570707Y371217D01*
X570754Y371272D01*
X570773Y371320D01*
X570801Y371364D01*
X570819Y371433D01*
X570846Y371500D01*
X570854Y371571D01*
X570862Y371602D01*
X570860Y371626D01*
X570864Y371667D01*
X570864Y575709D01*
X570846Y575823D01*
X570828Y575940D01*
X570826Y575945D01*
X570825Y575951D01*
X570770Y576054D01*
X570717Y576159D01*
X570712Y576163D01*
X570709Y576169D01*
X570625Y576249D01*
X570541Y576331D01*
X570535Y576335D01*
X570534Y576335D01*
X568430Y578440D01*
X567308Y581147D01*
X567308Y584078D01*
X568430Y586785D01*
X570502Y588858D01*
X573210Y589979D01*
X576140Y589979D01*
X578848Y588858D01*
X580920Y586785D01*
X582042Y584078D01*
X582042Y581147D01*
X580920Y578440D01*
X578793Y576313D01*
X578756Y576290D01*
X578752Y576286D01*
X578747Y576282D01*
X578673Y576193D01*
X578596Y576103D01*
X578594Y576098D01*
X578590Y576093D01*
X578548Y575985D01*
X578504Y575875D01*
X578503Y575868D01*
X578502Y575863D01*
X578501Y575845D01*
X578486Y575709D01*
X578486Y331713D01*
X578497Y331642D01*
X578499Y331570D01*
X578517Y331521D01*
X578525Y331470D01*
X578559Y331407D01*
X578584Y331339D01*
X578616Y331299D01*
X578641Y331253D01*
X578693Y331203D01*
X578737Y331147D01*
X578781Y331119D01*
X578819Y331083D01*
X578884Y331053D01*
X578944Y331014D01*
X578995Y331002D01*
X579042Y330980D01*
X579113Y330972D01*
X579183Y330954D01*
X579235Y330958D01*
X579286Y330953D01*
X579357Y330968D01*
X579428Y330973D01*
X579476Y330994D01*
X579527Y331005D01*
X579588Y331042D01*
X579654Y331070D01*
X579710Y331114D01*
X579738Y331131D01*
X579753Y331149D01*
X579785Y331174D01*
X581690Y333080D01*
X581743Y333154D01*
X581803Y333223D01*
X581815Y333253D01*
X581834Y333279D01*
X581861Y333366D01*
X581895Y333451D01*
X581899Y333492D01*
X581906Y333514D01*
X581905Y333547D01*
X581913Y333618D01*
X581913Y344364D01*
X583228Y347538D01*
X585658Y349968D01*
X588832Y351283D01*
X592268Y351283D01*
X595442Y349968D01*
X597872Y347538D01*
X597975Y347290D01*
X598026Y347207D01*
X598072Y347121D01*
X598090Y347103D01*
X598104Y347081D01*
X598179Y347019D01*
X598250Y346952D01*
X598274Y346941D01*
X598294Y346924D01*
X598385Y346889D01*
X598473Y346848D01*
X598499Y346845D01*
X598523Y346836D01*
X598621Y346832D01*
X598717Y346821D01*
X598743Y346827D01*
X598769Y346826D01*
X598863Y346853D01*
X598958Y346873D01*
X598980Y346887D01*
X599005Y346894D01*
X599085Y346950D01*
X599169Y347000D01*
X599186Y347019D01*
X599207Y347034D01*
X599266Y347112D01*
X599329Y347186D01*
X599339Y347211D01*
X599354Y347232D01*
X599384Y347324D01*
X599421Y347415D01*
X599424Y347447D01*
X599430Y347465D01*
X599430Y347498D01*
X599439Y347581D01*
X599439Y391559D01*
X599421Y391673D01*
X599403Y391790D01*
X599401Y391795D01*
X599400Y391801D01*
X599345Y391904D01*
X599292Y392009D01*
X599287Y392013D01*
X599284Y392019D01*
X599200Y392099D01*
X599116Y392181D01*
X599110Y392185D01*
X599109Y392185D01*
X597005Y394290D01*
X595883Y396997D01*
X595883Y399928D01*
X597005Y402635D01*
X599077Y404708D01*
X601785Y405829D01*
X604715Y405829D01*
X607423Y404708D01*
X609495Y402635D01*
X610617Y399928D01*
X610617Y396997D01*
X609495Y394290D01*
X607368Y392163D01*
X607331Y392140D01*
X607327Y392136D01*
X607322Y392132D01*
X607248Y392043D01*
X607171Y391953D01*
X607169Y391948D01*
X607165Y391943D01*
X607123Y391835D01*
X607079Y391725D01*
X607078Y391718D01*
X607077Y391713D01*
X607076Y391695D01*
X607061Y391559D01*
X607061Y347581D01*
X607076Y347485D01*
X607086Y347388D01*
X607096Y347364D01*
X607100Y347339D01*
X607146Y347253D01*
X607186Y347163D01*
X607203Y347144D01*
X607216Y347121D01*
X607286Y347054D01*
X607352Y346982D01*
X607375Y346970D01*
X607394Y346952D01*
X607482Y346911D01*
X607568Y346864D01*
X607593Y346859D01*
X607617Y346848D01*
X607714Y346837D01*
X607810Y346820D01*
X607836Y346824D01*
X607861Y346821D01*
X607957Y346842D01*
X608053Y346856D01*
X608076Y346868D01*
X608102Y346873D01*
X608185Y346923D01*
X608272Y346967D01*
X608291Y346986D01*
X608313Y347000D01*
X608376Y347074D01*
X608444Y347143D01*
X608460Y347172D01*
X608473Y347186D01*
X608485Y347217D01*
X608525Y347290D01*
X608628Y347538D01*
X611058Y349968D01*
X614232Y351283D01*
X617668Y351283D01*
X619024Y350721D01*
X619069Y350710D01*
X619111Y350691D01*
X619188Y350683D01*
X619264Y350665D01*
X619309Y350669D01*
X619355Y350664D01*
X619431Y350681D01*
X619509Y350688D01*
X619550Y350707D01*
X619595Y350716D01*
X619662Y350756D01*
X619733Y350788D01*
X619767Y350819D01*
X619806Y350842D01*
X619857Y350902D01*
X619914Y350954D01*
X619936Y350994D01*
X619966Y351029D01*
X619995Y351102D01*
X620033Y351170D01*
X620041Y351215D01*
X620058Y351258D01*
X620073Y351393D01*
X620077Y351412D01*
X620076Y351417D01*
X620077Y351424D01*
X620077Y590541D01*
X638996Y609460D01*
X639037Y609518D01*
X639087Y609570D01*
X639109Y609617D01*
X639139Y609659D01*
X639160Y609728D01*
X639190Y609793D01*
X639196Y609845D01*
X639211Y609895D01*
X639210Y609966D01*
X639217Y610037D01*
X639206Y610088D01*
X639205Y610140D01*
X639180Y610208D01*
X639165Y610278D01*
X639139Y610323D01*
X639121Y610371D01*
X639076Y610427D01*
X639039Y610489D01*
X638999Y610523D01*
X638967Y610563D01*
X638907Y610602D01*
X638852Y610649D01*
X638804Y610668D01*
X638760Y610696D01*
X638691Y610714D01*
X638624Y610741D01*
X638553Y610749D01*
X638521Y610757D01*
X638498Y610755D01*
X638457Y610759D01*
X624948Y610759D01*
X623459Y612248D01*
X623459Y632352D01*
X624948Y633841D01*
X644011Y633841D01*
X644101Y633855D01*
X644192Y633863D01*
X644222Y633875D01*
X644254Y633880D01*
X644335Y633923D01*
X644419Y633959D01*
X644451Y633985D01*
X644471Y633996D01*
X644494Y634019D01*
X644549Y634064D01*
X646344Y635859D01*
X646345Y635859D01*
X670654Y660168D01*
X670745Y660260D01*
X670787Y660318D01*
X670837Y660370D01*
X670859Y660417D01*
X670889Y660459D01*
X670910Y660528D01*
X670940Y660593D01*
X670946Y660645D01*
X670961Y660694D01*
X670960Y660766D01*
X670967Y660837D01*
X670956Y660888D01*
X670955Y660940D01*
X670930Y661008D01*
X670915Y661078D01*
X670889Y661122D01*
X670871Y661171D01*
X670826Y661227D01*
X670789Y661289D01*
X670750Y661323D01*
X670717Y661363D01*
X670657Y661402D01*
X670602Y661449D01*
X670554Y661468D01*
X670510Y661496D01*
X670441Y661514D01*
X670374Y661541D01*
X670303Y661549D01*
X670272Y661557D01*
X670248Y661555D01*
X670207Y661559D01*
X650348Y661559D01*
X648859Y663048D01*
X648859Y683152D01*
X650348Y684641D01*
X670452Y684641D01*
X671941Y683152D01*
X671941Y663293D01*
X671952Y663222D01*
X671954Y663150D01*
X671972Y663101D01*
X671980Y663050D01*
X672014Y662987D01*
X672039Y662919D01*
X672071Y662879D01*
X672096Y662833D01*
X672148Y662783D01*
X672192Y662727D01*
X672236Y662699D01*
X672274Y662663D01*
X672339Y662633D01*
X672399Y662594D01*
X672450Y662582D01*
X672497Y662560D01*
X672568Y662552D01*
X672638Y662534D01*
X672690Y662538D01*
X672741Y662533D01*
X672812Y662548D01*
X672883Y662553D01*
X672931Y662574D01*
X672982Y662585D01*
X673043Y662622D01*
X673047Y662623D01*
X673498Y662623D01*
X673518Y662626D01*
X673537Y662624D01*
X673639Y662646D01*
X673741Y662663D01*
X673758Y662672D01*
X673778Y662677D01*
X673867Y662730D01*
X673958Y662778D01*
X673972Y662792D01*
X673989Y662803D01*
X674056Y662881D01*
X674128Y662956D01*
X674136Y662974D01*
X674149Y662990D01*
X674188Y663086D01*
X674231Y663179D01*
X674233Y663199D01*
X674241Y663218D01*
X674259Y663384D01*
X674259Y683152D01*
X675748Y684641D01*
X695852Y684641D01*
X697341Y683152D01*
X697341Y663384D01*
X697344Y663365D01*
X697342Y663345D01*
X697364Y663244D01*
X697380Y663142D01*
X697390Y663124D01*
X697394Y663105D01*
X697447Y663016D01*
X697496Y662924D01*
X697510Y662911D01*
X697520Y662894D01*
X697599Y662826D01*
X697674Y662755D01*
X697692Y662747D01*
X697707Y662734D01*
X697803Y662695D01*
X697897Y662651D01*
X697917Y662649D01*
X697935Y662642D01*
X698102Y662623D01*
X698898Y662623D01*
X698918Y662626D01*
X698937Y662624D01*
X699039Y662646D01*
X699141Y662663D01*
X699158Y662672D01*
X699178Y662677D01*
X699267Y662730D01*
X699358Y662778D01*
X699372Y662792D01*
X699389Y662803D01*
X699456Y662881D01*
X699528Y662956D01*
X699536Y662974D01*
X699549Y662990D01*
X699588Y663086D01*
X699631Y663179D01*
X699633Y663199D01*
X699641Y663218D01*
X699659Y663384D01*
X699659Y683152D01*
X701148Y684641D01*
X721252Y684641D01*
X722741Y683152D01*
X722741Y663384D01*
X722744Y663365D01*
X722742Y663345D01*
X722764Y663244D01*
X722780Y663142D01*
X722790Y663124D01*
X722794Y663105D01*
X722847Y663016D01*
X722896Y662924D01*
X722910Y662911D01*
X722920Y662894D01*
X722999Y662826D01*
X723074Y662755D01*
X723092Y662747D01*
X723107Y662734D01*
X723203Y662695D01*
X723297Y662651D01*
X723317Y662649D01*
X723335Y662642D01*
X723502Y662623D01*
X724298Y662623D01*
X724318Y662626D01*
X724337Y662624D01*
X724439Y662646D01*
X724541Y662663D01*
X724558Y662672D01*
X724578Y662677D01*
X724667Y662730D01*
X724758Y662778D01*
X724772Y662792D01*
X724789Y662803D01*
X724856Y662881D01*
X724928Y662956D01*
X724936Y662974D01*
X724949Y662990D01*
X724988Y663086D01*
X725031Y663179D01*
X725033Y663199D01*
X725041Y663218D01*
X725059Y663384D01*
X725059Y683152D01*
X726548Y684641D01*
X746652Y684641D01*
X748141Y683152D01*
X748141Y663384D01*
X748144Y663365D01*
X748142Y663345D01*
X748164Y663244D01*
X748180Y663142D01*
X748190Y663124D01*
X748194Y663105D01*
X748247Y663016D01*
X748296Y662924D01*
X748310Y662911D01*
X748320Y662894D01*
X748399Y662826D01*
X748474Y662755D01*
X748492Y662747D01*
X748507Y662734D01*
X748603Y662695D01*
X748697Y662651D01*
X748717Y662649D01*
X748735Y662642D01*
X748902Y662623D01*
X749698Y662623D01*
X749718Y662626D01*
X749737Y662624D01*
X749839Y662646D01*
X749941Y662663D01*
X749958Y662672D01*
X749978Y662677D01*
X750067Y662730D01*
X750158Y662778D01*
X750172Y662792D01*
X750189Y662803D01*
X750256Y662881D01*
X750328Y662956D01*
X750336Y662974D01*
X750349Y662990D01*
X750388Y663086D01*
X750431Y663179D01*
X750433Y663199D01*
X750441Y663218D01*
X750459Y663384D01*
X750459Y683152D01*
X751948Y684641D01*
X772052Y684641D01*
X773541Y683152D01*
X773541Y663384D01*
X773544Y663365D01*
X773542Y663345D01*
X773564Y663244D01*
X773580Y663142D01*
X773590Y663124D01*
X773594Y663105D01*
X773647Y663016D01*
X773696Y662924D01*
X773710Y662911D01*
X773720Y662894D01*
X773799Y662826D01*
X773874Y662755D01*
X773892Y662747D01*
X773907Y662734D01*
X774003Y662695D01*
X774097Y662651D01*
X774117Y662649D01*
X774135Y662642D01*
X774302Y662623D01*
X775098Y662623D01*
X775118Y662626D01*
X775137Y662624D01*
X775239Y662646D01*
X775341Y662663D01*
X775358Y662672D01*
X775378Y662677D01*
X775467Y662730D01*
X775558Y662778D01*
X775572Y662792D01*
X775589Y662803D01*
X775656Y662881D01*
X775728Y662956D01*
X775736Y662974D01*
X775749Y662990D01*
X775788Y663086D01*
X775831Y663179D01*
X775833Y663199D01*
X775841Y663218D01*
X775859Y663384D01*
X775859Y683152D01*
X777348Y684641D01*
X797452Y684641D01*
X798941Y683152D01*
X798941Y663384D01*
X798944Y663365D01*
X798942Y663345D01*
X798964Y663244D01*
X798980Y663142D01*
X798990Y663124D01*
X798994Y663105D01*
X799047Y663016D01*
X799096Y662924D01*
X799110Y662911D01*
X799120Y662894D01*
X799199Y662826D01*
X799274Y662755D01*
X799292Y662747D01*
X799307Y662734D01*
X799403Y662695D01*
X799497Y662651D01*
X799517Y662649D01*
X799535Y662642D01*
X799702Y662623D01*
X800498Y662623D01*
X800518Y662626D01*
X800537Y662624D01*
X800639Y662646D01*
X800741Y662663D01*
X800758Y662672D01*
X800778Y662677D01*
X800867Y662730D01*
X800958Y662778D01*
X800972Y662792D01*
X800989Y662803D01*
X801056Y662881D01*
X801128Y662956D01*
X801136Y662974D01*
X801149Y662990D01*
X801188Y663086D01*
X801231Y663179D01*
X801233Y663199D01*
X801241Y663218D01*
X801259Y663384D01*
X801259Y683152D01*
X802748Y684641D01*
X822852Y684641D01*
X824341Y683152D01*
X824341Y663384D01*
X824344Y663365D01*
X824342Y663345D01*
X824364Y663244D01*
X824380Y663142D01*
X824390Y663124D01*
X824394Y663105D01*
X824447Y663016D01*
X824496Y662924D01*
X824510Y662911D01*
X824520Y662894D01*
X824599Y662826D01*
X824674Y662755D01*
X824692Y662747D01*
X824707Y662734D01*
X824803Y662695D01*
X824897Y662651D01*
X824917Y662649D01*
X824935Y662642D01*
X825102Y662623D01*
X825898Y662623D01*
X825918Y662626D01*
X825937Y662624D01*
X826039Y662646D01*
X826141Y662663D01*
X826158Y662672D01*
X826178Y662677D01*
X826267Y662730D01*
X826358Y662778D01*
X826372Y662792D01*
X826389Y662803D01*
X826456Y662881D01*
X826528Y662956D01*
X826536Y662974D01*
X826549Y662990D01*
X826588Y663086D01*
X826631Y663179D01*
X826633Y663199D01*
X826641Y663218D01*
X826659Y663384D01*
X826659Y683152D01*
X828148Y684641D01*
X848252Y684641D01*
X849741Y683152D01*
X849741Y663048D01*
X848252Y661559D01*
X842772Y661559D01*
X842752Y661556D01*
X842733Y661558D01*
X842631Y661536D01*
X842529Y661520D01*
X842512Y661510D01*
X842492Y661506D01*
X842403Y661453D01*
X842312Y661404D01*
X842298Y661390D01*
X842281Y661380D01*
X842214Y661301D01*
X842142Y661226D01*
X842134Y661208D01*
X842121Y661193D01*
X842082Y661097D01*
X842039Y661003D01*
X842037Y660983D01*
X842029Y660965D01*
X842011Y660798D01*
X842011Y657234D01*
X839778Y655002D01*
X676581Y655002D01*
X676491Y654987D01*
X676400Y654980D01*
X676370Y654967D01*
X676339Y654962D01*
X676258Y654919D01*
X676174Y654884D01*
X676142Y654858D01*
X676121Y654847D01*
X676099Y654824D01*
X676043Y654779D01*
X661374Y640110D01*
X661333Y640052D01*
X661283Y640000D01*
X661261Y639953D01*
X661231Y639911D01*
X661210Y639842D01*
X661180Y639777D01*
X661174Y639725D01*
X661159Y639675D01*
X661160Y639604D01*
X661153Y639533D01*
X661164Y639482D01*
X661165Y639430D01*
X661190Y639362D01*
X661205Y639292D01*
X661231Y639248D01*
X661249Y639199D01*
X661294Y639143D01*
X661331Y639081D01*
X661371Y639047D01*
X661403Y639007D01*
X661463Y638968D01*
X661518Y638921D01*
X661566Y638902D01*
X661610Y638874D01*
X661679Y638856D01*
X661746Y638829D01*
X661817Y638821D01*
X661849Y638813D01*
X661872Y638815D01*
X661913Y638811D01*
X747703Y638811D01*
X752451Y634064D01*
X752524Y634011D01*
X752594Y633951D01*
X752624Y633939D01*
X752650Y633920D01*
X752737Y633893D01*
X752822Y633859D01*
X752863Y633855D01*
X752885Y633848D01*
X752918Y633849D01*
X752989Y633841D01*
X772052Y633841D01*
X773541Y632352D01*
X773541Y612248D01*
X772052Y610759D01*
X758543Y610759D01*
X758472Y610748D01*
X758400Y610746D01*
X758351Y610728D01*
X758300Y610720D01*
X758237Y610686D01*
X758169Y610661D01*
X758129Y610629D01*
X758083Y610604D01*
X758033Y610552D01*
X757977Y610508D01*
X757949Y610464D01*
X757913Y610426D01*
X757883Y610361D01*
X757844Y610301D01*
X757832Y610250D01*
X757810Y610203D01*
X757802Y610132D01*
X757784Y610062D01*
X757788Y610010D01*
X757783Y609959D01*
X757798Y609888D01*
X757803Y609817D01*
X757824Y609769D01*
X757835Y609718D01*
X757872Y609657D01*
X757900Y609591D01*
X757944Y609535D01*
X757961Y609507D01*
X757979Y609492D01*
X758004Y609460D01*
X876936Y490528D01*
X876936Y271769D01*
X876950Y271679D01*
X876958Y271588D01*
X876970Y271558D01*
X876975Y271526D01*
X877018Y271445D01*
X877054Y271361D01*
X877080Y271329D01*
X877091Y271309D01*
X877114Y271286D01*
X877159Y271231D01*
X882001Y266388D01*
X882017Y266376D01*
X882030Y266361D01*
X882117Y266305D01*
X882201Y266244D01*
X882220Y266239D01*
X882237Y266228D01*
X882337Y266203D01*
X882436Y266172D01*
X882456Y266173D01*
X882475Y266168D01*
X882578Y266176D01*
X882682Y266178D01*
X882701Y266185D01*
X882720Y266187D01*
X882815Y266227D01*
X882913Y266263D01*
X882929Y266275D01*
X882947Y266283D01*
X883078Y266388D01*
X884108Y267418D01*
X887282Y268733D01*
X890718Y268733D01*
X893892Y267418D01*
X896322Y264988D01*
X897637Y261814D01*
X897637Y246186D01*
X896322Y243012D01*
X893892Y240582D01*
X890718Y239267D01*
X887282Y239267D01*
X884108Y240582D01*
X881678Y243012D01*
X880363Y246186D01*
X880363Y256932D01*
X880349Y257022D01*
X880341Y257113D01*
X880329Y257143D01*
X880324Y257175D01*
X880281Y257256D01*
X880245Y257340D01*
X880219Y257372D01*
X880208Y257392D01*
X880185Y257415D01*
X880140Y257470D01*
X872425Y265185D01*
X872346Y265242D01*
X872271Y265304D01*
X872247Y265314D01*
X872226Y265329D01*
X872133Y265357D01*
X872042Y265392D01*
X872016Y265393D01*
X871991Y265401D01*
X871893Y265399D01*
X871796Y265403D01*
X871771Y265396D01*
X871745Y265395D01*
X871653Y265361D01*
X871560Y265334D01*
X871538Y265319D01*
X871514Y265310D01*
X871438Y265249D01*
X871358Y265194D01*
X871342Y265173D01*
X871322Y265157D01*
X871269Y265075D01*
X871211Y264997D01*
X871203Y264972D01*
X871189Y264950D01*
X871165Y264855D01*
X871135Y264763D01*
X871135Y264737D01*
X871129Y264711D01*
X871136Y264614D01*
X871137Y264517D01*
X871146Y264485D01*
X871148Y264466D01*
X871161Y264436D01*
X871184Y264356D01*
X872237Y261814D01*
X872237Y246186D01*
X870922Y243012D01*
X868492Y240582D01*
X865318Y239267D01*
X861882Y239267D01*
X858708Y240582D01*
X856278Y243012D01*
X854963Y246186D01*
X854963Y261814D01*
X856278Y264988D01*
X858708Y267418D01*
X861882Y268733D01*
X865318Y268733D01*
X868262Y267513D01*
X868306Y267503D01*
X868348Y267484D01*
X868425Y267475D01*
X868501Y267457D01*
X868547Y267462D01*
X868592Y267456D01*
X868669Y267473D01*
X868746Y267480D01*
X868788Y267499D01*
X868833Y267509D01*
X868900Y267549D01*
X868971Y267580D01*
X869005Y267611D01*
X869044Y267635D01*
X869095Y267694D01*
X869152Y267747D01*
X869174Y267787D01*
X869204Y267822D01*
X869233Y267894D01*
X869270Y267962D01*
X869279Y268007D01*
X869296Y268050D01*
X869311Y268186D01*
X869314Y268204D01*
X869313Y268209D01*
X869314Y268217D01*
X869314Y315983D01*
X869307Y316029D01*
X869309Y316074D01*
X869287Y316149D01*
X869275Y316226D01*
X869253Y316267D01*
X869240Y316311D01*
X869196Y316375D01*
X869159Y316443D01*
X869126Y316475D01*
X869100Y316513D01*
X869037Y316559D01*
X868981Y316613D01*
X868939Y316632D01*
X868903Y316660D01*
X868829Y316684D01*
X868758Y316716D01*
X868712Y316721D01*
X868669Y316736D01*
X868591Y316735D01*
X868514Y316744D01*
X868469Y316734D01*
X868423Y316733D01*
X868291Y316695D01*
X868273Y316691D01*
X868269Y316689D01*
X868262Y316687D01*
X865318Y315467D01*
X861882Y315467D01*
X858708Y316782D01*
X857678Y317812D01*
X857662Y317824D01*
X857649Y317839D01*
X857562Y317895D01*
X857478Y317956D01*
X857459Y317961D01*
X857442Y317972D01*
X857342Y317997D01*
X857243Y318028D01*
X857223Y318027D01*
X857204Y318032D01*
X857101Y318024D01*
X856997Y318022D01*
X856978Y318015D01*
X856959Y318013D01*
X856864Y317973D01*
X856766Y317937D01*
X856750Y317925D01*
X856732Y317917D01*
X856601Y317812D01*
X826359Y287569D01*
X826306Y287496D01*
X826246Y287426D01*
X826234Y287396D01*
X826215Y287370D01*
X826188Y287283D01*
X826154Y287198D01*
X826150Y287157D01*
X826143Y287135D01*
X826144Y287102D01*
X826136Y287031D01*
X826136Y218041D01*
X826154Y217927D01*
X826172Y217810D01*
X826174Y217805D01*
X826175Y217799D01*
X826230Y217696D01*
X826283Y217591D01*
X826288Y217587D01*
X826291Y217581D01*
X826375Y217501D01*
X826459Y217419D01*
X826465Y217415D01*
X826466Y217415D01*
X828570Y215310D01*
X829692Y212603D01*
X829692Y209672D01*
X828570Y206965D01*
X826498Y204892D01*
X823790Y203771D01*
X820860Y203771D01*
X818152Y204892D01*
X816080Y206965D01*
X814958Y209672D01*
X814958Y212603D01*
X816080Y215310D01*
X818207Y217437D01*
X818244Y217460D01*
X818248Y217464D01*
X818253Y217468D01*
X818327Y217557D01*
X818404Y217647D01*
X818406Y217652D01*
X818410Y217657D01*
X818452Y217765D01*
X818496Y217875D01*
X818497Y217882D01*
X818498Y217887D01*
X818499Y217905D01*
X818514Y218041D01*
X818514Y239783D01*
X818507Y239829D01*
X818509Y239874D01*
X818487Y239949D01*
X818475Y240026D01*
X818453Y240067D01*
X818440Y240111D01*
X818396Y240175D01*
X818359Y240243D01*
X818326Y240275D01*
X818300Y240313D01*
X818237Y240359D01*
X818181Y240413D01*
X818139Y240432D01*
X818103Y240460D01*
X818029Y240484D01*
X817958Y240516D01*
X817912Y240521D01*
X817869Y240536D01*
X817791Y240535D01*
X817714Y240544D01*
X817669Y240534D01*
X817623Y240533D01*
X817491Y240495D01*
X817473Y240491D01*
X817469Y240489D01*
X817462Y240487D01*
X814518Y239267D01*
X811082Y239267D01*
X807908Y240582D01*
X805478Y243012D01*
X804163Y246186D01*
X804163Y261814D01*
X805478Y264988D01*
X807908Y267418D01*
X811082Y268733D01*
X812991Y268733D01*
X813010Y268736D01*
X813030Y268734D01*
X813131Y268756D01*
X813233Y268772D01*
X813251Y268782D01*
X813270Y268786D01*
X813359Y268839D01*
X813451Y268888D01*
X813464Y268902D01*
X813481Y268912D01*
X813549Y268991D01*
X813620Y269066D01*
X813628Y269084D01*
X813641Y269099D01*
X813680Y269195D01*
X813724Y269289D01*
X813726Y269309D01*
X813733Y269327D01*
X813752Y269494D01*
X813752Y314706D01*
X813749Y314726D01*
X813751Y314745D01*
X813729Y314847D01*
X813712Y314949D01*
X813703Y314966D01*
X813698Y314986D01*
X813645Y315075D01*
X813597Y315166D01*
X813583Y315180D01*
X813572Y315197D01*
X813494Y315264D01*
X813419Y315336D01*
X813401Y315344D01*
X813385Y315357D01*
X813289Y315396D01*
X813196Y315439D01*
X813176Y315441D01*
X813157Y315449D01*
X812991Y315467D01*
X811082Y315467D01*
X807908Y316782D01*
X805478Y319212D01*
X804163Y322386D01*
X804163Y333132D01*
X804149Y333222D01*
X804141Y333313D01*
X804129Y333343D01*
X804124Y333375D01*
X804081Y333456D01*
X804045Y333540D01*
X804019Y333572D01*
X804008Y333592D01*
X803985Y333615D01*
X803940Y333671D01*
X796149Y341461D01*
X796110Y341490D01*
X796076Y341526D01*
X796033Y341549D01*
X796018Y341562D01*
X795998Y341570D01*
X795950Y341605D01*
X795903Y341619D01*
X795860Y341643D01*
X795786Y341655D01*
X795715Y341677D01*
X795665Y341676D01*
X795617Y341684D01*
X795543Y341673D01*
X795469Y341671D01*
X795422Y341654D01*
X795374Y341647D01*
X795308Y341612D01*
X795238Y341587D01*
X795199Y341556D01*
X795156Y341533D01*
X795104Y341480D01*
X795046Y341433D01*
X795019Y341392D01*
X794985Y341356D01*
X794953Y341289D01*
X794913Y341226D01*
X794901Y341178D01*
X794880Y341134D01*
X794871Y341060D01*
X794853Y340987D01*
X794856Y340939D01*
X794851Y340890D01*
X794866Y340817D01*
X794872Y340742D01*
X794891Y340697D01*
X794901Y340649D01*
X794959Y340538D01*
X794968Y340516D01*
X794974Y340509D01*
X794978Y340500D01*
X795054Y340387D01*
X795705Y338815D01*
X796037Y337147D01*
X796037Y331723D01*
X788923Y331723D01*
X788923Y344799D01*
X789919Y344601D01*
X791491Y343950D01*
X791604Y343874D01*
X791649Y343854D01*
X791689Y343825D01*
X791760Y343803D01*
X791828Y343772D01*
X791877Y343767D01*
X791924Y343753D01*
X791999Y343755D01*
X792073Y343747D01*
X792121Y343758D01*
X792170Y343759D01*
X792240Y343785D01*
X792313Y343801D01*
X792355Y343827D01*
X792401Y343844D01*
X792459Y343890D01*
X792523Y343929D01*
X792554Y343967D01*
X792593Y343997D01*
X792633Y344060D01*
X792681Y344117D01*
X792699Y344163D01*
X792726Y344204D01*
X792744Y344277D01*
X792771Y344346D01*
X792774Y344395D01*
X792786Y344443D01*
X792780Y344517D01*
X792784Y344592D01*
X792770Y344639D01*
X792767Y344688D01*
X792737Y344757D01*
X792717Y344829D01*
X792689Y344869D01*
X792670Y344914D01*
X792592Y345012D01*
X792579Y345032D01*
X792571Y345038D01*
X792565Y345045D01*
X789587Y348024D01*
X789492Y348092D01*
X789398Y348162D01*
X789392Y348164D01*
X789387Y348167D01*
X789275Y348202D01*
X789164Y348238D01*
X789158Y348238D01*
X789152Y348240D01*
X789035Y348236D01*
X788918Y348235D01*
X788911Y348233D01*
X788910Y348233D01*
X785935Y348233D01*
X783227Y349355D01*
X781155Y351427D01*
X780033Y354135D01*
X780033Y357065D01*
X781155Y359773D01*
X783227Y361845D01*
X785935Y362967D01*
X788865Y362967D01*
X791573Y361845D01*
X793645Y359773D01*
X794767Y357065D01*
X794767Y354058D01*
X794756Y354015D01*
X794757Y354009D01*
X794755Y354004D01*
X794766Y353886D01*
X794775Y353770D01*
X794778Y353765D01*
X794778Y353759D01*
X794826Y353651D01*
X794872Y353544D01*
X794876Y353538D01*
X794878Y353534D01*
X794890Y353521D01*
X794976Y353413D01*
X805801Y342588D01*
X805817Y342576D01*
X805830Y342561D01*
X805917Y342505D01*
X806001Y342444D01*
X806020Y342439D01*
X806037Y342428D01*
X806137Y342402D01*
X806236Y342372D01*
X806256Y342373D01*
X806275Y342368D01*
X806378Y342376D01*
X806482Y342378D01*
X806501Y342385D01*
X806520Y342387D01*
X806615Y342427D01*
X806713Y342463D01*
X806729Y342475D01*
X806747Y342483D01*
X806878Y342588D01*
X807908Y343618D01*
X811082Y344933D01*
X814518Y344933D01*
X817692Y343618D01*
X820122Y341188D01*
X820225Y340940D01*
X820276Y340857D01*
X820322Y340771D01*
X820340Y340753D01*
X820354Y340731D01*
X820429Y340669D01*
X820500Y340602D01*
X820524Y340591D01*
X820544Y340574D01*
X820635Y340539D01*
X820723Y340498D01*
X820749Y340495D01*
X820773Y340486D01*
X820871Y340482D01*
X820967Y340471D01*
X820993Y340477D01*
X821019Y340476D01*
X821113Y340503D01*
X821208Y340523D01*
X821230Y340537D01*
X821255Y340544D01*
X821335Y340600D01*
X821419Y340650D01*
X821436Y340669D01*
X821457Y340684D01*
X821516Y340762D01*
X821579Y340836D01*
X821589Y340861D01*
X821604Y340882D01*
X821634Y340974D01*
X821671Y341065D01*
X821674Y341097D01*
X821680Y341115D01*
X821680Y341148D01*
X821689Y341231D01*
X821689Y455603D01*
X830755Y464669D01*
X830823Y464763D01*
X830893Y464858D01*
X830895Y464864D01*
X830898Y464869D01*
X830932Y464980D01*
X830969Y465091D01*
X830969Y465098D01*
X830971Y465104D01*
X830968Y465220D01*
X830966Y465337D01*
X830964Y465345D01*
X830964Y465350D01*
X830958Y465367D01*
X830920Y465499D01*
X830109Y467455D01*
X830109Y472345D01*
X831980Y476862D01*
X835438Y480320D01*
X839955Y482191D01*
X844845Y482191D01*
X849362Y480320D01*
X852820Y476862D01*
X854691Y472345D01*
X854691Y467455D01*
X852820Y462938D01*
X849362Y459480D01*
X844845Y457609D01*
X839955Y457609D01*
X836549Y459020D01*
X836435Y459047D01*
X836322Y459075D01*
X836316Y459075D01*
X836309Y459076D01*
X836193Y459065D01*
X836077Y459056D01*
X836071Y459054D01*
X836065Y459053D01*
X835957Y459005D01*
X835850Y458960D01*
X835844Y458955D01*
X835840Y458953D01*
X835826Y458941D01*
X835719Y458855D01*
X829534Y452669D01*
X829481Y452596D01*
X829421Y452526D01*
X829409Y452496D01*
X829390Y452470D01*
X829363Y452383D01*
X829329Y452298D01*
X829325Y452257D01*
X829318Y452235D01*
X829319Y452202D01*
X829311Y452131D01*
X829311Y382054D01*
X829318Y382008D01*
X829316Y381962D01*
X829338Y381888D01*
X829350Y381811D01*
X829372Y381770D01*
X829385Y381726D01*
X829429Y381662D01*
X829466Y381593D01*
X829499Y381562D01*
X829525Y381524D01*
X829587Y381478D01*
X829644Y381424D01*
X829686Y381405D01*
X829722Y381377D01*
X829796Y381353D01*
X829867Y381320D01*
X829913Y381315D01*
X829956Y381301D01*
X830034Y381302D01*
X830111Y381293D01*
X830156Y381303D01*
X830202Y381304D01*
X830334Y381342D01*
X830352Y381346D01*
X830356Y381348D01*
X830363Y381350D01*
X831972Y382017D01*
X834903Y382017D01*
X837610Y380895D01*
X839683Y378823D01*
X840804Y376115D01*
X840804Y373185D01*
X839683Y370477D01*
X837556Y368350D01*
X837519Y368328D01*
X837514Y368323D01*
X837509Y368320D01*
X837435Y368230D01*
X837359Y368141D01*
X837356Y368135D01*
X837352Y368130D01*
X837311Y368022D01*
X837267Y367913D01*
X837266Y367905D01*
X837264Y367901D01*
X837263Y367883D01*
X837248Y367746D01*
X837248Y345694D01*
X837251Y345674D01*
X837249Y345655D01*
X837271Y345553D01*
X837288Y345451D01*
X837297Y345434D01*
X837302Y345414D01*
X837355Y345325D01*
X837403Y345234D01*
X837417Y345220D01*
X837428Y345203D01*
X837506Y345136D01*
X837581Y345064D01*
X837599Y345056D01*
X837615Y345043D01*
X837711Y345004D01*
X837804Y344961D01*
X837824Y344959D01*
X837843Y344951D01*
X838009Y344933D01*
X839918Y344933D01*
X843092Y343618D01*
X845522Y341188D01*
X846837Y338014D01*
X846837Y322386D01*
X845784Y319844D01*
X845776Y319809D01*
X845772Y319801D01*
X845770Y319787D01*
X845762Y319749D01*
X845733Y319656D01*
X845734Y319630D01*
X845728Y319605D01*
X845737Y319508D01*
X845739Y319411D01*
X845748Y319386D01*
X845751Y319360D01*
X845790Y319271D01*
X845824Y319180D01*
X845840Y319159D01*
X845851Y319135D01*
X845917Y319063D01*
X845978Y318987D01*
X846000Y318973D01*
X846017Y318954D01*
X846103Y318907D01*
X846184Y318854D01*
X846210Y318848D01*
X846233Y318835D01*
X846329Y318818D01*
X846423Y318794D01*
X846449Y318796D01*
X846475Y318792D01*
X846571Y318806D01*
X846668Y318814D01*
X846692Y318824D01*
X846718Y318828D01*
X846805Y318872D01*
X846895Y318910D01*
X846920Y318930D01*
X846937Y318939D01*
X846961Y318963D01*
X847025Y319015D01*
X854740Y326730D01*
X854793Y326803D01*
X854853Y326873D01*
X854865Y326903D01*
X854884Y326929D01*
X854911Y327016D01*
X854945Y327101D01*
X854949Y327142D01*
X854956Y327164D01*
X854955Y327197D01*
X854963Y327268D01*
X854963Y338014D01*
X856278Y341188D01*
X858708Y343618D01*
X861882Y344933D01*
X865318Y344933D01*
X868262Y343713D01*
X868306Y343703D01*
X868348Y343684D01*
X868425Y343675D01*
X868501Y343657D01*
X868547Y343662D01*
X868592Y343656D01*
X868669Y343673D01*
X868746Y343680D01*
X868788Y343699D01*
X868833Y343709D01*
X868900Y343749D01*
X868971Y343780D01*
X869005Y343811D01*
X869044Y343835D01*
X869095Y343894D01*
X869152Y343947D01*
X869174Y343987D01*
X869204Y344022D01*
X869233Y344094D01*
X869270Y344162D01*
X869279Y344207D01*
X869296Y344250D01*
X869311Y344386D01*
X869314Y344404D01*
X869313Y344409D01*
X869314Y344417D01*
X869314Y487056D01*
X869300Y487146D01*
X869292Y487237D01*
X869280Y487267D01*
X869275Y487299D01*
X869232Y487380D01*
X869196Y487464D01*
X869170Y487496D01*
X869159Y487516D01*
X869136Y487539D01*
X869127Y487549D01*
X869120Y487562D01*
X869111Y487569D01*
X869091Y487594D01*
X746149Y610536D01*
X746076Y610589D01*
X746006Y610649D01*
X745976Y610661D01*
X745950Y610680D01*
X745863Y610707D01*
X745778Y610741D01*
X745737Y610745D01*
X745715Y610752D01*
X745682Y610751D01*
X745611Y610759D01*
X741172Y610759D01*
X741152Y610756D01*
X741133Y610758D01*
X741031Y610736D01*
X740929Y610720D01*
X740912Y610710D01*
X740892Y610706D01*
X740803Y610653D01*
X740712Y610604D01*
X740698Y610590D01*
X740681Y610580D01*
X740614Y610501D01*
X740542Y610426D01*
X740534Y610408D01*
X740521Y610393D01*
X740482Y610297D01*
X740439Y610203D01*
X740437Y610183D01*
X740429Y610165D01*
X740411Y609998D01*
X740411Y601129D01*
X740418Y601083D01*
X740416Y601037D01*
X740438Y600963D01*
X740450Y600886D01*
X740472Y600845D01*
X740485Y600801D01*
X740529Y600737D01*
X740566Y600668D01*
X740599Y600637D01*
X740625Y600599D01*
X740687Y600553D01*
X740744Y600499D01*
X740786Y600480D01*
X740822Y600452D01*
X740896Y600428D01*
X740967Y600395D01*
X741013Y600390D01*
X741056Y600376D01*
X741134Y600377D01*
X741211Y600368D01*
X741256Y600378D01*
X741302Y600379D01*
X741434Y600417D01*
X741452Y600421D01*
X741456Y600423D01*
X741463Y600425D01*
X743072Y601092D01*
X746003Y601092D01*
X748710Y599970D01*
X750783Y597898D01*
X751904Y595190D01*
X751904Y592260D01*
X751581Y591480D01*
X751566Y591416D01*
X751542Y591355D01*
X751533Y591272D01*
X751525Y591240D01*
X751527Y591221D01*
X751523Y591188D01*
X751523Y282584D01*
X738667Y269728D01*
X738640Y269690D01*
X738606Y269659D01*
X738569Y269591D01*
X738523Y269528D01*
X738510Y269484D01*
X738488Y269444D01*
X738474Y269367D01*
X738451Y269293D01*
X738452Y269247D01*
X738444Y269202D01*
X738455Y269125D01*
X738457Y269047D01*
X738473Y269004D01*
X738480Y268958D01*
X738515Y268889D01*
X738542Y268816D01*
X738570Y268780D01*
X738591Y268739D01*
X738647Y268685D01*
X738695Y268624D01*
X738734Y268599D01*
X738767Y268567D01*
X738887Y268501D01*
X738902Y268491D01*
X738907Y268490D01*
X738914Y268486D01*
X741492Y267418D01*
X743922Y264988D01*
X745237Y261814D01*
X745237Y246186D01*
X743922Y243012D01*
X742638Y241728D01*
X742626Y241712D01*
X742611Y241699D01*
X742575Y241643D01*
X742549Y241616D01*
X742533Y241582D01*
X742494Y241528D01*
X742489Y241509D01*
X742478Y241492D01*
X742462Y241428D01*
X742445Y241393D01*
X742441Y241354D01*
X742422Y241293D01*
X742423Y241273D01*
X742418Y241254D01*
X742423Y241190D01*
X742418Y241148D01*
X742427Y241107D01*
X742428Y241047D01*
X742435Y241028D01*
X742437Y241008D01*
X742460Y240953D01*
X742470Y240908D01*
X742494Y240868D01*
X742513Y240816D01*
X742525Y240800D01*
X742533Y240782D01*
X742581Y240722D01*
X742596Y240697D01*
X742613Y240682D01*
X742638Y240651D01*
X746141Y237148D01*
X746236Y237080D01*
X746329Y237010D01*
X746335Y237008D01*
X746341Y237005D01*
X746452Y236971D01*
X746563Y236934D01*
X746570Y236934D01*
X746576Y236932D01*
X746692Y236936D01*
X746809Y236937D01*
X746817Y236939D01*
X746822Y236939D01*
X746839Y236945D01*
X746970Y236983D01*
X747582Y237237D01*
X751018Y237237D01*
X754192Y235922D01*
X756622Y233492D01*
X757937Y230318D01*
X757937Y226882D01*
X756622Y223708D01*
X754192Y221278D01*
X751018Y219963D01*
X747582Y219963D01*
X744408Y221278D01*
X741978Y223708D01*
X740663Y226882D01*
X740663Y230318D01*
X740917Y230930D01*
X740943Y231044D01*
X740972Y231157D01*
X740971Y231163D01*
X740973Y231169D01*
X740962Y231286D01*
X740953Y231402D01*
X740950Y231408D01*
X740950Y231414D01*
X740902Y231522D01*
X740856Y231628D01*
X740852Y231634D01*
X740850Y231639D01*
X740837Y231653D01*
X740752Y231759D01*
X735244Y237266D01*
X732770Y239740D01*
X732753Y239856D01*
X732751Y239862D01*
X732750Y239868D01*
X732695Y239971D01*
X732642Y240076D01*
X732637Y240080D01*
X732634Y240086D01*
X732550Y240166D01*
X732466Y240248D01*
X732460Y240252D01*
X732456Y240255D01*
X732439Y240263D01*
X732319Y240329D01*
X731938Y240487D01*
X731894Y240497D01*
X731852Y240516D01*
X731775Y240525D01*
X731699Y240543D01*
X731653Y240538D01*
X731608Y240544D01*
X731531Y240527D01*
X731454Y240520D01*
X731412Y240501D01*
X731367Y240491D01*
X731300Y240451D01*
X731229Y240420D01*
X731195Y240389D01*
X731156Y240365D01*
X731105Y240306D01*
X731048Y240253D01*
X731026Y240213D01*
X730996Y240178D01*
X730967Y240106D01*
X730930Y240038D01*
X730921Y239993D01*
X730904Y239950D01*
X730889Y239814D01*
X730886Y239796D01*
X730887Y239791D01*
X730886Y239783D01*
X730886Y206681D01*
X730900Y206591D01*
X730908Y206500D01*
X730920Y206471D01*
X730925Y206439D01*
X730968Y206358D01*
X731004Y206274D01*
X731030Y206242D01*
X731041Y206221D01*
X731064Y206199D01*
X731109Y206143D01*
X738823Y198428D01*
X738823Y131462D01*
X738839Y131368D01*
X738847Y131273D01*
X738858Y131247D01*
X738863Y131220D01*
X738908Y131135D01*
X738946Y131048D01*
X738965Y131027D01*
X738978Y131002D01*
X739047Y130937D01*
X739111Y130866D01*
X739136Y130852D01*
X739156Y130833D01*
X739243Y130793D01*
X739326Y130746D01*
X739354Y130741D01*
X739379Y130729D01*
X739474Y130719D01*
X739568Y130701D01*
X739596Y130705D01*
X739624Y130702D01*
X739717Y130722D01*
X739811Y130736D01*
X739844Y130750D01*
X739864Y130754D01*
X739893Y130771D01*
X739965Y130803D01*
X741063Y131437D01*
X741074Y131446D01*
X953643Y131446D01*
X953663Y131449D01*
X953682Y131447D01*
X953784Y131469D01*
X953886Y131485D01*
X953903Y131495D01*
X953923Y131499D01*
X954012Y131552D01*
X954103Y131601D01*
X954117Y131615D01*
X954134Y131625D01*
X954201Y131704D01*
X954273Y131779D01*
X954281Y131797D01*
X954294Y131812D01*
X954333Y131908D01*
X954376Y132002D01*
X954378Y132022D01*
X954386Y132040D01*
X954404Y132207D01*
X954404Y705993D01*
X954401Y706013D01*
X954403Y706032D01*
X954381Y706134D01*
X954365Y706236D01*
X954355Y706253D01*
X954351Y706273D01*
X954298Y706362D01*
X954249Y706453D01*
X954235Y706467D01*
X954225Y706484D01*
X954146Y706551D01*
X954071Y706623D01*
X954053Y706631D01*
X954038Y706644D01*
X953942Y706683D01*
X953848Y706726D01*
X953828Y706728D01*
X953810Y706736D01*
X953643Y706754D01*
X-1143Y706754D01*
X-1163Y706751D01*
X-1182Y706753D01*
X-1284Y706731D01*
X-1386Y706715D01*
X-1403Y706705D01*
X-1423Y706701D01*
X-1512Y706648D01*
X-1603Y706599D01*
X-1617Y706585D01*
X-1634Y706575D01*
X-1701Y706496D01*
X-1773Y706421D01*
X-1781Y706403D01*
X-1794Y706388D01*
X-1833Y706292D01*
X-1876Y706198D01*
X-1878Y706178D01*
X-1886Y706160D01*
X-1904Y705993D01*
X-1904Y132207D01*
X-1901Y132187D01*
X-1903Y132168D01*
X-1881Y132066D01*
X-1865Y131964D01*
X-1855Y131947D01*
X-1851Y131927D01*
X-1798Y131838D01*
X-1749Y131747D01*
X-1735Y131733D01*
X-1725Y131716D01*
X-1646Y131649D01*
X-1571Y131577D01*
X-1553Y131569D01*
X-1538Y131556D01*
X-1442Y131517D01*
X-1348Y131474D01*
X-1328Y131472D01*
X-1310Y131464D01*
X-1143Y131446D01*
X211425Y131446D01*
X211437Y131437D01*
X214664Y129574D01*
X216370Y126619D01*
X216412Y126567D01*
X216447Y126509D01*
X216490Y126473D01*
X216525Y126429D01*
X216583Y126393D01*
X216634Y126349D01*
X216686Y126328D01*
X216734Y126298D01*
X216799Y126283D01*
X216862Y126257D01*
X216941Y126249D01*
X216973Y126241D01*
X216994Y126243D01*
X217029Y126239D01*
X255982Y126239D01*
X256072Y126254D01*
G37*
G36*
X131529Y382304D02*
X131529Y382304D01*
X131555Y382305D01*
X131647Y382339D01*
X131740Y382366D01*
X131762Y382381D01*
X131786Y382390D01*
X131862Y382450D01*
X131942Y382506D01*
X131958Y382527D01*
X131978Y382543D01*
X132031Y382625D01*
X132089Y382703D01*
X132097Y382728D01*
X132111Y382750D01*
X132135Y382845D01*
X132165Y382937D01*
X132165Y382963D01*
X132171Y382989D01*
X132164Y383086D01*
X132163Y383183D01*
X132154Y383215D01*
X132152Y383234D01*
X132139Y383264D01*
X132116Y383344D01*
X131063Y385886D01*
X131063Y401514D01*
X132378Y404688D01*
X134808Y407118D01*
X137982Y408433D01*
X141418Y408433D01*
X144362Y407213D01*
X144406Y407203D01*
X144448Y407184D01*
X144525Y407175D01*
X144601Y407157D01*
X144647Y407162D01*
X144692Y407156D01*
X144769Y407173D01*
X144846Y407180D01*
X144888Y407199D01*
X144933Y407209D01*
X145000Y407249D01*
X145071Y407280D01*
X145105Y407311D01*
X145144Y407335D01*
X145195Y407394D01*
X145252Y407447D01*
X145274Y407487D01*
X145304Y407522D01*
X145333Y407594D01*
X145370Y407662D01*
X145379Y407707D01*
X145396Y407750D01*
X145411Y407886D01*
X145414Y407904D01*
X145413Y407909D01*
X145414Y407917D01*
X145414Y429159D01*
X145407Y429204D01*
X145409Y429250D01*
X145387Y429325D01*
X145375Y429402D01*
X145353Y429442D01*
X145340Y429486D01*
X145296Y429550D01*
X145259Y429619D01*
X145226Y429651D01*
X145200Y429688D01*
X145138Y429735D01*
X145081Y429788D01*
X145039Y429808D01*
X145003Y429835D01*
X144929Y429859D01*
X144858Y429892D01*
X144812Y429897D01*
X144769Y429911D01*
X144691Y429911D01*
X144614Y429919D01*
X144569Y429909D01*
X144523Y429909D01*
X144391Y429871D01*
X144373Y429867D01*
X144369Y429864D01*
X144362Y429862D01*
X142753Y429196D01*
X139822Y429196D01*
X137115Y430317D01*
X135042Y432390D01*
X133921Y435097D01*
X133921Y438105D01*
X133931Y438147D01*
X133931Y438153D01*
X133932Y438159D01*
X133921Y438276D01*
X133912Y438392D01*
X133910Y438398D01*
X133909Y438404D01*
X133861Y438512D01*
X133816Y438619D01*
X133811Y438624D01*
X133809Y438629D01*
X133797Y438643D01*
X133711Y438750D01*
X123189Y449272D01*
X123189Y535069D01*
X123174Y535165D01*
X123164Y535262D01*
X123154Y535286D01*
X123150Y535311D01*
X123104Y535397D01*
X123064Y535486D01*
X123047Y535506D01*
X123034Y535529D01*
X122964Y535596D01*
X122898Y535668D01*
X122875Y535680D01*
X122856Y535698D01*
X122768Y535739D01*
X122682Y535786D01*
X122657Y535791D01*
X122633Y535802D01*
X122536Y535813D01*
X122440Y535830D01*
X122414Y535826D01*
X122389Y535829D01*
X122294Y535808D01*
X122197Y535794D01*
X122174Y535782D01*
X122148Y535777D01*
X122065Y535727D01*
X121978Y535683D01*
X121959Y535664D01*
X121937Y535650D01*
X121874Y535576D01*
X121806Y535507D01*
X121790Y535478D01*
X121777Y535464D01*
X121765Y535433D01*
X121725Y535360D01*
X121622Y535112D01*
X119192Y532682D01*
X116018Y531367D01*
X112582Y531367D01*
X109408Y532682D01*
X106978Y535112D01*
X105663Y538286D01*
X105663Y553914D01*
X106978Y557088D01*
X109408Y559518D01*
X112582Y560833D01*
X116018Y560833D01*
X119192Y559518D01*
X121622Y557088D01*
X121725Y556840D01*
X121776Y556757D01*
X121822Y556671D01*
X121841Y556653D01*
X121854Y556631D01*
X121929Y556569D01*
X122000Y556502D01*
X122024Y556491D01*
X122044Y556474D01*
X122135Y556439D01*
X122223Y556398D01*
X122249Y556395D01*
X122273Y556386D01*
X122371Y556382D01*
X122467Y556371D01*
X122493Y556377D01*
X122519Y556376D01*
X122613Y556403D01*
X122708Y556423D01*
X122730Y556437D01*
X122755Y556444D01*
X122835Y556500D01*
X122919Y556550D01*
X122936Y556569D01*
X122957Y556584D01*
X123016Y556662D01*
X123079Y556736D01*
X123089Y556761D01*
X123104Y556782D01*
X123134Y556874D01*
X123171Y556965D01*
X123174Y556997D01*
X123180Y557016D01*
X123180Y557049D01*
X123189Y557131D01*
X123189Y609998D01*
X123186Y610018D01*
X123188Y610037D01*
X123166Y610139D01*
X123150Y610241D01*
X123140Y610258D01*
X123136Y610278D01*
X123083Y610367D01*
X123034Y610458D01*
X123020Y610472D01*
X123010Y610489D01*
X122931Y610556D01*
X122856Y610628D01*
X122838Y610636D01*
X122823Y610649D01*
X122727Y610688D01*
X122633Y610731D01*
X122613Y610733D01*
X122595Y610741D01*
X122428Y610759D01*
X116948Y610759D01*
X115459Y612248D01*
X115459Y632352D01*
X116948Y633841D01*
X137052Y633841D01*
X138541Y632352D01*
X138541Y612248D01*
X137052Y610759D01*
X131572Y610759D01*
X131552Y610756D01*
X131533Y610758D01*
X131431Y610736D01*
X131329Y610720D01*
X131312Y610710D01*
X131292Y610706D01*
X131203Y610653D01*
X131112Y610604D01*
X131098Y610590D01*
X131081Y610580D01*
X131014Y610501D01*
X130942Y610426D01*
X130934Y610408D01*
X130921Y610393D01*
X130882Y610297D01*
X130839Y610203D01*
X130837Y610183D01*
X130829Y610165D01*
X130811Y609998D01*
X130811Y557131D01*
X130826Y557035D01*
X130836Y556938D01*
X130846Y556914D01*
X130850Y556889D01*
X130896Y556803D01*
X130936Y556714D01*
X130953Y556694D01*
X130966Y556671D01*
X131036Y556604D01*
X131102Y556532D01*
X131125Y556520D01*
X131144Y556502D01*
X131232Y556461D01*
X131318Y556414D01*
X131343Y556409D01*
X131367Y556398D01*
X131464Y556387D01*
X131560Y556370D01*
X131586Y556374D01*
X131611Y556371D01*
X131706Y556392D01*
X131803Y556406D01*
X131826Y556418D01*
X131852Y556423D01*
X131935Y556473D01*
X132022Y556517D01*
X132041Y556536D01*
X132063Y556550D01*
X132126Y556624D01*
X132194Y556693D01*
X132210Y556722D01*
X132223Y556736D01*
X132235Y556767D01*
X132275Y556840D01*
X132378Y557088D01*
X134808Y559518D01*
X137982Y560833D01*
X141418Y560833D01*
X144592Y559518D01*
X147022Y557088D01*
X148337Y553914D01*
X148337Y543168D01*
X148351Y543078D01*
X148359Y542987D01*
X148371Y542957D01*
X148376Y542925D01*
X148419Y542844D01*
X148455Y542760D01*
X148481Y542728D01*
X148492Y542708D01*
X148515Y542685D01*
X148560Y542629D01*
X151862Y539327D01*
X151878Y539316D01*
X151890Y539300D01*
X151978Y539244D01*
X152061Y539184D01*
X152080Y539178D01*
X152097Y539167D01*
X152198Y539142D01*
X152297Y539112D01*
X152316Y539112D01*
X152336Y539107D01*
X152439Y539115D01*
X152542Y539118D01*
X152561Y539125D01*
X152581Y539126D01*
X152676Y539167D01*
X152773Y539202D01*
X152789Y539215D01*
X152807Y539223D01*
X152938Y539327D01*
X156240Y542630D01*
X156293Y542703D01*
X156353Y542773D01*
X156365Y542803D01*
X156384Y542829D01*
X156411Y542916D01*
X156445Y543001D01*
X156449Y543042D01*
X156456Y543064D01*
X156455Y543097D01*
X156463Y543168D01*
X156463Y553914D01*
X157778Y557088D01*
X160208Y559518D01*
X163382Y560833D01*
X166818Y560833D01*
X169992Y559518D01*
X172422Y557088D01*
X172525Y556840D01*
X172576Y556757D01*
X172622Y556671D01*
X172641Y556653D01*
X172654Y556631D01*
X172729Y556569D01*
X172800Y556502D01*
X172824Y556491D01*
X172844Y556474D01*
X172935Y556439D01*
X173023Y556398D01*
X173049Y556395D01*
X173073Y556386D01*
X173171Y556382D01*
X173267Y556371D01*
X173293Y556377D01*
X173319Y556376D01*
X173413Y556403D01*
X173508Y556423D01*
X173530Y556437D01*
X173555Y556444D01*
X173635Y556500D01*
X173719Y556550D01*
X173736Y556569D01*
X173757Y556584D01*
X173816Y556662D01*
X173879Y556736D01*
X173889Y556761D01*
X173904Y556782D01*
X173934Y556874D01*
X173971Y556965D01*
X173974Y556997D01*
X173980Y557016D01*
X173980Y557049D01*
X173989Y557131D01*
X173989Y609998D01*
X173986Y610018D01*
X173988Y610037D01*
X173966Y610139D01*
X173950Y610241D01*
X173940Y610258D01*
X173936Y610278D01*
X173883Y610367D01*
X173834Y610458D01*
X173820Y610472D01*
X173810Y610489D01*
X173731Y610556D01*
X173656Y610628D01*
X173638Y610636D01*
X173623Y610649D01*
X173527Y610688D01*
X173433Y610731D01*
X173413Y610733D01*
X173395Y610741D01*
X173228Y610759D01*
X167748Y610759D01*
X166259Y612248D01*
X166259Y630428D01*
X166256Y630448D01*
X166258Y630467D01*
X166236Y630569D01*
X166220Y630671D01*
X166210Y630688D01*
X166206Y630708D01*
X166153Y630797D01*
X166104Y630888D01*
X166090Y630902D01*
X166080Y630919D01*
X166001Y630986D01*
X165926Y631058D01*
X165908Y631066D01*
X165893Y631079D01*
X165797Y631118D01*
X165703Y631161D01*
X165683Y631163D01*
X165665Y631171D01*
X165498Y631189D01*
X164702Y631189D01*
X164682Y631186D01*
X164663Y631188D01*
X164561Y631166D01*
X164459Y631150D01*
X164442Y631140D01*
X164422Y631136D01*
X164333Y631083D01*
X164242Y631034D01*
X164228Y631020D01*
X164211Y631010D01*
X164144Y630931D01*
X164072Y630856D01*
X164064Y630838D01*
X164051Y630823D01*
X164012Y630727D01*
X163969Y630633D01*
X163967Y630613D01*
X163959Y630595D01*
X163941Y630428D01*
X163941Y612248D01*
X162452Y610759D01*
X142348Y610759D01*
X140859Y612248D01*
X140859Y632352D01*
X142348Y633841D01*
X147828Y633841D01*
X147848Y633844D01*
X147867Y633842D01*
X147969Y633864D01*
X148071Y633880D01*
X148088Y633890D01*
X148108Y633894D01*
X148197Y633947D01*
X148288Y633996D01*
X148302Y634010D01*
X148319Y634020D01*
X148386Y634099D01*
X148458Y634174D01*
X148466Y634192D01*
X148479Y634207D01*
X148518Y634303D01*
X148561Y634397D01*
X148563Y634417D01*
X148571Y634435D01*
X148589Y634602D01*
X148589Y636578D01*
X150822Y638811D01*
X214303Y638811D01*
X219051Y634064D01*
X219124Y634011D01*
X219194Y633951D01*
X219224Y633939D01*
X219250Y633920D01*
X219337Y633893D01*
X219422Y633859D01*
X219463Y633855D01*
X219485Y633848D01*
X219518Y633849D01*
X219589Y633841D01*
X233325Y633841D01*
X233370Y633848D01*
X233416Y633846D01*
X233491Y633868D01*
X233568Y633880D01*
X233608Y633902D01*
X233652Y633915D01*
X233716Y633959D01*
X233785Y633996D01*
X233817Y634029D01*
X233854Y634055D01*
X233901Y634117D01*
X233954Y634174D01*
X233974Y634216D01*
X234001Y634252D01*
X234025Y634326D01*
X234058Y634397D01*
X234063Y634443D01*
X234077Y634486D01*
X234076Y634564D01*
X234085Y634641D01*
X234075Y634686D01*
X234075Y634732D01*
X234037Y634864D01*
X234033Y634882D01*
X234030Y634886D01*
X234028Y634893D01*
X233933Y635122D01*
X233933Y638053D01*
X234600Y639662D01*
X234610Y639706D01*
X234630Y639748D01*
X234638Y639825D01*
X234656Y639901D01*
X234652Y639947D01*
X234657Y639992D01*
X234640Y640069D01*
X234633Y640146D01*
X234614Y640188D01*
X234604Y640233D01*
X234564Y640300D01*
X234533Y640371D01*
X234502Y640405D01*
X234478Y640444D01*
X234419Y640495D01*
X234366Y640552D01*
X234326Y640574D01*
X234291Y640604D01*
X234219Y640633D01*
X234151Y640670D01*
X234106Y640679D01*
X234063Y640696D01*
X233927Y640711D01*
X233909Y640714D01*
X233904Y640713D01*
X233896Y640714D01*
X106172Y640714D01*
X106152Y640711D01*
X106133Y640713D01*
X106031Y640691D01*
X105929Y640675D01*
X105912Y640665D01*
X105892Y640661D01*
X105803Y640608D01*
X105712Y640559D01*
X105698Y640545D01*
X105681Y640535D01*
X105614Y640456D01*
X105542Y640381D01*
X105534Y640363D01*
X105521Y640348D01*
X105482Y640252D01*
X105439Y640158D01*
X105437Y640138D01*
X105429Y640120D01*
X105411Y639953D01*
X105411Y634602D01*
X105414Y634582D01*
X105412Y634563D01*
X105434Y634461D01*
X105450Y634359D01*
X105460Y634342D01*
X105464Y634322D01*
X105517Y634233D01*
X105566Y634142D01*
X105580Y634128D01*
X105590Y634111D01*
X105669Y634044D01*
X105744Y633972D01*
X105762Y633964D01*
X105777Y633951D01*
X105873Y633912D01*
X105967Y633869D01*
X105987Y633867D01*
X106005Y633859D01*
X106172Y633841D01*
X111652Y633841D01*
X113141Y632352D01*
X113141Y612248D01*
X111652Y610759D01*
X91548Y610759D01*
X90059Y612248D01*
X90059Y632352D01*
X91548Y633841D01*
X97028Y633841D01*
X97048Y633844D01*
X97067Y633842D01*
X97169Y633864D01*
X97271Y633880D01*
X97288Y633890D01*
X97308Y633894D01*
X97397Y633947D01*
X97488Y633996D01*
X97502Y634010D01*
X97519Y634020D01*
X97586Y634099D01*
X97658Y634174D01*
X97666Y634192D01*
X97679Y634207D01*
X97718Y634303D01*
X97761Y634397D01*
X97763Y634417D01*
X97771Y634435D01*
X97789Y634602D01*
X97789Y646103D01*
X100022Y648336D01*
X255578Y648336D01*
X258034Y645881D01*
X261590Y642324D01*
X261648Y642283D01*
X261700Y642233D01*
X261747Y642211D01*
X261789Y642181D01*
X261858Y642160D01*
X261923Y642130D01*
X261975Y642124D01*
X262025Y642109D01*
X262096Y642110D01*
X262167Y642103D01*
X262218Y642114D01*
X262270Y642115D01*
X262338Y642140D01*
X262408Y642155D01*
X262453Y642181D01*
X262501Y642199D01*
X262557Y642244D01*
X262619Y642281D01*
X262653Y642321D01*
X262693Y642353D01*
X262732Y642413D01*
X262779Y642468D01*
X262798Y642516D01*
X262826Y642560D01*
X262844Y642629D01*
X262871Y642696D01*
X262879Y642767D01*
X262887Y642799D01*
X262885Y642822D01*
X262889Y642863D01*
X262889Y660798D01*
X262886Y660818D01*
X262888Y660837D01*
X262866Y660939D01*
X262850Y661041D01*
X262840Y661058D01*
X262836Y661078D01*
X262783Y661167D01*
X262734Y661258D01*
X262720Y661272D01*
X262710Y661289D01*
X262631Y661356D01*
X262556Y661428D01*
X262538Y661436D01*
X262523Y661449D01*
X262427Y661488D01*
X262333Y661531D01*
X262313Y661533D01*
X262295Y661541D01*
X262128Y661559D01*
X243948Y661559D01*
X242459Y663048D01*
X242459Y682816D01*
X242456Y682835D01*
X242458Y682855D01*
X242436Y682956D01*
X242420Y683058D01*
X242410Y683076D01*
X242406Y683095D01*
X242353Y683184D01*
X242304Y683276D01*
X242290Y683289D01*
X242280Y683306D01*
X242201Y683374D01*
X242126Y683445D01*
X242108Y683453D01*
X242093Y683466D01*
X241997Y683505D01*
X241903Y683549D01*
X241883Y683551D01*
X241865Y683558D01*
X241698Y683577D01*
X240902Y683577D01*
X240882Y683574D01*
X240863Y683576D01*
X240761Y683554D01*
X240659Y683537D01*
X240642Y683528D01*
X240622Y683523D01*
X240533Y683470D01*
X240442Y683422D01*
X240428Y683408D01*
X240411Y683397D01*
X240344Y683319D01*
X240272Y683244D01*
X240264Y683226D01*
X240251Y683210D01*
X240212Y683114D01*
X240169Y683021D01*
X240167Y683001D01*
X240159Y682982D01*
X240141Y682816D01*
X240141Y663048D01*
X238652Y661559D01*
X218548Y661559D01*
X217059Y663048D01*
X217059Y682816D01*
X217056Y682835D01*
X217058Y682855D01*
X217036Y682956D01*
X217020Y683058D01*
X217010Y683076D01*
X217006Y683095D01*
X216953Y683184D01*
X216904Y683276D01*
X216890Y683289D01*
X216880Y683306D01*
X216801Y683374D01*
X216726Y683445D01*
X216708Y683453D01*
X216693Y683466D01*
X216597Y683505D01*
X216503Y683549D01*
X216483Y683551D01*
X216465Y683558D01*
X216298Y683577D01*
X215502Y683577D01*
X215482Y683574D01*
X215463Y683576D01*
X215361Y683554D01*
X215259Y683537D01*
X215242Y683528D01*
X215222Y683523D01*
X215133Y683470D01*
X215042Y683422D01*
X215028Y683408D01*
X215011Y683397D01*
X214944Y683319D01*
X214872Y683244D01*
X214864Y683226D01*
X214851Y683210D01*
X214812Y683114D01*
X214769Y683021D01*
X214767Y683001D01*
X214759Y682982D01*
X214741Y682816D01*
X214741Y663048D01*
X213252Y661559D01*
X193148Y661559D01*
X191659Y663048D01*
X191659Y682816D01*
X191656Y682835D01*
X191658Y682855D01*
X191636Y682956D01*
X191620Y683058D01*
X191610Y683076D01*
X191606Y683095D01*
X191553Y683184D01*
X191504Y683276D01*
X191490Y683289D01*
X191480Y683306D01*
X191401Y683374D01*
X191326Y683445D01*
X191308Y683453D01*
X191293Y683466D01*
X191197Y683505D01*
X191103Y683549D01*
X191083Y683551D01*
X191065Y683558D01*
X190898Y683577D01*
X190102Y683577D01*
X190082Y683574D01*
X190063Y683576D01*
X189961Y683554D01*
X189859Y683537D01*
X189842Y683528D01*
X189822Y683523D01*
X189733Y683470D01*
X189642Y683422D01*
X189628Y683408D01*
X189611Y683397D01*
X189544Y683319D01*
X189472Y683244D01*
X189464Y683226D01*
X189451Y683210D01*
X189412Y683114D01*
X189369Y683021D01*
X189367Y683001D01*
X189359Y682982D01*
X189341Y682816D01*
X189341Y663048D01*
X187852Y661559D01*
X167748Y661559D01*
X166259Y663048D01*
X166259Y682816D01*
X166256Y682835D01*
X166258Y682855D01*
X166236Y682956D01*
X166220Y683058D01*
X166210Y683076D01*
X166206Y683095D01*
X166153Y683184D01*
X166104Y683276D01*
X166090Y683289D01*
X166080Y683306D01*
X166001Y683374D01*
X165926Y683445D01*
X165908Y683453D01*
X165893Y683466D01*
X165797Y683505D01*
X165703Y683549D01*
X165683Y683551D01*
X165665Y683558D01*
X165498Y683577D01*
X164702Y683577D01*
X164682Y683574D01*
X164663Y683576D01*
X164561Y683554D01*
X164459Y683537D01*
X164442Y683528D01*
X164422Y683523D01*
X164333Y683470D01*
X164242Y683422D01*
X164228Y683408D01*
X164211Y683397D01*
X164144Y683319D01*
X164072Y683244D01*
X164064Y683226D01*
X164051Y683210D01*
X164012Y683114D01*
X163969Y683021D01*
X163967Y683001D01*
X163959Y682982D01*
X163941Y682816D01*
X163941Y663048D01*
X162452Y661559D01*
X142348Y661559D01*
X140859Y663048D01*
X140859Y682816D01*
X140856Y682835D01*
X140858Y682855D01*
X140836Y682956D01*
X140820Y683058D01*
X140810Y683076D01*
X140806Y683095D01*
X140753Y683184D01*
X140704Y683276D01*
X140690Y683289D01*
X140680Y683306D01*
X140601Y683374D01*
X140526Y683445D01*
X140508Y683453D01*
X140493Y683466D01*
X140397Y683505D01*
X140303Y683549D01*
X140283Y683551D01*
X140265Y683558D01*
X140098Y683577D01*
X139302Y683577D01*
X139282Y683574D01*
X139263Y683576D01*
X139161Y683554D01*
X139059Y683537D01*
X139042Y683528D01*
X139022Y683523D01*
X138933Y683470D01*
X138842Y683422D01*
X138828Y683408D01*
X138811Y683397D01*
X138744Y683319D01*
X138672Y683244D01*
X138664Y683226D01*
X138651Y683210D01*
X138612Y683114D01*
X138569Y683021D01*
X138567Y683001D01*
X138559Y682982D01*
X138541Y682816D01*
X138541Y663048D01*
X137052Y661559D01*
X116948Y661559D01*
X115459Y663048D01*
X115459Y682816D01*
X115456Y682835D01*
X115458Y682855D01*
X115436Y682956D01*
X115420Y683058D01*
X115410Y683076D01*
X115406Y683095D01*
X115353Y683184D01*
X115304Y683276D01*
X115290Y683289D01*
X115280Y683306D01*
X115201Y683374D01*
X115126Y683445D01*
X115108Y683453D01*
X115093Y683466D01*
X114997Y683505D01*
X114903Y683549D01*
X114883Y683551D01*
X114865Y683558D01*
X114698Y683577D01*
X113827Y683577D01*
X113710Y683558D01*
X113592Y683540D01*
X113588Y683538D01*
X113584Y683537D01*
X113480Y683482D01*
X113373Y683427D01*
X113370Y683424D01*
X113367Y683422D01*
X113285Y683336D01*
X113202Y683250D01*
X113200Y683247D01*
X113197Y683244D01*
X113147Y683136D01*
X113096Y683028D01*
X113095Y683024D01*
X113094Y683021D01*
X113080Y682901D01*
X113066Y682784D01*
X113067Y682779D01*
X113067Y682776D01*
X113069Y682763D01*
X113091Y682618D01*
X113141Y682434D01*
X113141Y674623D01*
X102362Y674623D01*
X102342Y674620D01*
X102323Y674622D01*
X102221Y674600D01*
X102119Y674583D01*
X102102Y674574D01*
X102082Y674570D01*
X101993Y674517D01*
X101902Y674468D01*
X101888Y674454D01*
X101871Y674444D01*
X101804Y674365D01*
X101733Y674290D01*
X101724Y674272D01*
X101711Y674257D01*
X101673Y674161D01*
X101629Y674067D01*
X101627Y674047D01*
X101619Y674029D01*
X101601Y673862D01*
X101601Y673099D01*
X101599Y673099D01*
X101599Y673862D01*
X101596Y673882D01*
X101598Y673901D01*
X101576Y674003D01*
X101559Y674105D01*
X101550Y674122D01*
X101546Y674142D01*
X101493Y674231D01*
X101444Y674322D01*
X101430Y674336D01*
X101420Y674353D01*
X101341Y674420D01*
X101266Y674491D01*
X101248Y674500D01*
X101233Y674513D01*
X101137Y674552D01*
X101043Y674595D01*
X101023Y674597D01*
X101005Y674605D01*
X100838Y674623D01*
X90059Y674623D01*
X90059Y678145D01*
X90048Y678215D01*
X90046Y678287D01*
X90028Y678336D01*
X90020Y678388D01*
X89986Y678451D01*
X89961Y678518D01*
X89929Y678559D01*
X89904Y678605D01*
X89852Y678654D01*
X89808Y678710D01*
X89764Y678738D01*
X89726Y678774D01*
X89661Y678804D01*
X89601Y678843D01*
X89550Y678856D01*
X89503Y678878D01*
X89432Y678886D01*
X89362Y678903D01*
X89310Y678899D01*
X89259Y678905D01*
X89188Y678890D01*
X89117Y678884D01*
X89069Y678864D01*
X89018Y678853D01*
X88957Y678816D01*
X88891Y678788D01*
X88835Y678743D01*
X88807Y678727D01*
X88792Y678709D01*
X88760Y678683D01*
X84996Y674919D01*
X84943Y674845D01*
X84884Y674776D01*
X84872Y674746D01*
X84853Y674720D01*
X84826Y674633D01*
X84792Y674548D01*
X84787Y674507D01*
X84780Y674485D01*
X84781Y674452D01*
X84773Y674381D01*
X84773Y601969D01*
X84788Y601879D01*
X84795Y601788D01*
X84808Y601758D01*
X84813Y601726D01*
X84856Y601645D01*
X84891Y601561D01*
X84917Y601529D01*
X84928Y601509D01*
X84951Y601486D01*
X84996Y601431D01*
X91123Y595303D01*
X91123Y573394D01*
X91138Y573304D01*
X91145Y573213D01*
X91158Y573183D01*
X91163Y573151D01*
X91206Y573070D01*
X91241Y572986D01*
X91267Y572954D01*
X91278Y572934D01*
X91301Y572911D01*
X91346Y572856D01*
X91664Y572538D01*
X91722Y572496D01*
X91774Y572447D01*
X91821Y572425D01*
X91863Y572394D01*
X91932Y572373D01*
X91997Y572343D01*
X92049Y572337D01*
X92099Y572322D01*
X92170Y572324D01*
X92241Y572316D01*
X92292Y572327D01*
X92344Y572328D01*
X92412Y572353D01*
X92482Y572368D01*
X92526Y572395D01*
X92575Y572413D01*
X92631Y572458D01*
X92693Y572494D01*
X92727Y572534D01*
X92767Y572567D01*
X92806Y572627D01*
X92853Y572681D01*
X92872Y572730D01*
X92900Y572774D01*
X92918Y572843D01*
X92945Y572910D01*
X92953Y572981D01*
X92961Y573012D01*
X92959Y573035D01*
X92963Y573076D01*
X92963Y575077D01*
X98023Y580137D01*
X100077Y580137D01*
X100077Y572262D01*
X100080Y572242D01*
X100078Y572223D01*
X100100Y572121D01*
X100117Y572019D01*
X100126Y572002D01*
X100130Y571982D01*
X100183Y571893D01*
X100232Y571802D01*
X100246Y571788D01*
X100256Y571771D01*
X100335Y571704D01*
X100410Y571633D01*
X100428Y571624D01*
X100443Y571611D01*
X100539Y571573D01*
X100633Y571529D01*
X100653Y571527D01*
X100671Y571519D01*
X100838Y571501D01*
X101601Y571501D01*
X101601Y570738D01*
X101604Y570718D01*
X101602Y570699D01*
X101624Y570597D01*
X101641Y570495D01*
X101650Y570478D01*
X101654Y570458D01*
X101707Y570369D01*
X101756Y570278D01*
X101770Y570264D01*
X101780Y570247D01*
X101859Y570180D01*
X101934Y570109D01*
X101952Y570100D01*
X101967Y570087D01*
X102063Y570048D01*
X102157Y570005D01*
X102177Y570003D01*
X102195Y569995D01*
X102362Y569977D01*
X110237Y569977D01*
X110237Y567923D01*
X105177Y562863D01*
X103176Y562863D01*
X103106Y562852D01*
X103034Y562850D01*
X102985Y562832D01*
X102933Y562824D01*
X102870Y562790D01*
X102803Y562765D01*
X102762Y562733D01*
X102716Y562708D01*
X102667Y562656D01*
X102611Y562612D01*
X102583Y562568D01*
X102547Y562530D01*
X102517Y562465D01*
X102478Y562405D01*
X102465Y562354D01*
X102443Y562307D01*
X102435Y562236D01*
X102418Y562166D01*
X102422Y562114D01*
X102416Y562063D01*
X102431Y561992D01*
X102437Y561921D01*
X102457Y561873D01*
X102468Y561822D01*
X102505Y561761D01*
X102533Y561695D01*
X102578Y561639D01*
X102594Y561611D01*
X102612Y561596D01*
X102638Y561564D01*
X103823Y560378D01*
X103823Y409881D01*
X103838Y409791D01*
X103845Y409700D01*
X103858Y409671D01*
X103863Y409639D01*
X103906Y409558D01*
X103941Y409474D01*
X103967Y409442D01*
X103978Y409421D01*
X104001Y409399D01*
X104046Y409343D01*
X107301Y406088D01*
X107317Y406076D01*
X107330Y406061D01*
X107417Y406005D01*
X107501Y405944D01*
X107520Y405939D01*
X107537Y405928D01*
X107637Y405903D01*
X107736Y405872D01*
X107756Y405873D01*
X107775Y405868D01*
X107878Y405876D01*
X107982Y405878D01*
X108001Y405885D01*
X108021Y405887D01*
X108115Y405927D01*
X108213Y405963D01*
X108229Y405975D01*
X108247Y405983D01*
X108378Y406088D01*
X109408Y407118D01*
X112582Y408433D01*
X116018Y408433D01*
X119192Y407118D01*
X121622Y404688D01*
X122937Y401514D01*
X122937Y390768D01*
X122951Y390678D01*
X122959Y390587D01*
X122971Y390557D01*
X122976Y390525D01*
X123019Y390444D01*
X123055Y390360D01*
X123081Y390328D01*
X123092Y390308D01*
X123115Y390285D01*
X123160Y390230D01*
X130875Y382515D01*
X130954Y382458D01*
X131029Y382396D01*
X131053Y382386D01*
X131074Y382371D01*
X131167Y382342D01*
X131258Y382308D01*
X131284Y382306D01*
X131309Y382299D01*
X131407Y382301D01*
X131504Y382297D01*
X131529Y382304D01*
G37*
G36*
X684187Y126254D02*
X684187Y126254D01*
X684278Y126261D01*
X684308Y126273D01*
X684339Y126279D01*
X684420Y126321D01*
X684504Y126357D01*
X684536Y126383D01*
X684557Y126394D01*
X684579Y126417D01*
X684635Y126462D01*
X700449Y142275D01*
X700516Y142369D01*
X700587Y142464D01*
X700589Y142470D01*
X700592Y142475D01*
X700626Y142587D01*
X700663Y142698D01*
X700663Y142704D01*
X700665Y142710D01*
X700661Y142828D01*
X700660Y142944D01*
X700658Y142951D01*
X700658Y145928D01*
X701780Y148635D01*
X703852Y150708D01*
X705933Y151570D01*
X706016Y151621D01*
X706102Y151667D01*
X706120Y151685D01*
X706142Y151699D01*
X706204Y151775D01*
X706271Y151845D01*
X706282Y151869D01*
X706299Y151889D01*
X706334Y151980D01*
X706375Y152068D01*
X706378Y152094D01*
X706387Y152118D01*
X706391Y152216D01*
X706402Y152312D01*
X706397Y152338D01*
X706398Y152364D01*
X706371Y152458D01*
X706350Y152553D01*
X706336Y152575D01*
X706329Y152600D01*
X706274Y152680D01*
X706224Y152764D01*
X706204Y152781D01*
X706189Y152802D01*
X706111Y152861D01*
X706037Y152924D01*
X706012Y152934D01*
X705991Y152949D01*
X705899Y152979D01*
X705809Y153016D01*
X705776Y153019D01*
X705758Y153025D01*
X705725Y153025D01*
X705642Y153034D01*
X698849Y153034D01*
X690935Y155155D01*
X683840Y159251D01*
X678046Y165045D01*
X673950Y172140D01*
X671829Y180054D01*
X671829Y188246D01*
X673950Y196160D01*
X677911Y203021D01*
X677954Y203135D01*
X677997Y203247D01*
X677997Y203249D01*
X677998Y203251D01*
X678003Y203374D01*
X678008Y203493D01*
X678007Y203495D01*
X678007Y203497D01*
X677972Y203615D01*
X677939Y203729D01*
X677938Y203731D01*
X677937Y203733D01*
X677868Y203832D01*
X677799Y203931D01*
X677797Y203933D01*
X677796Y203934D01*
X677700Y204005D01*
X677601Y204078D01*
X677599Y204079D01*
X677598Y204080D01*
X677484Y204117D01*
X677368Y204154D01*
X677365Y204154D01*
X677363Y204155D01*
X677242Y204153D01*
X677122Y204152D01*
X677119Y204151D01*
X677117Y204151D01*
X677110Y204149D01*
X676960Y204105D01*
X676153Y203771D01*
X673222Y203771D01*
X670515Y204892D01*
X668442Y206965D01*
X667321Y209672D01*
X667321Y212603D01*
X668442Y215310D01*
X670515Y217383D01*
X673222Y218504D01*
X676230Y218504D01*
X676272Y218494D01*
X676278Y218494D01*
X676284Y218493D01*
X676401Y218504D01*
X676517Y218513D01*
X676523Y218515D01*
X676529Y218516D01*
X676637Y218564D01*
X676744Y218609D01*
X676749Y218614D01*
X676754Y218616D01*
X676768Y218628D01*
X676875Y218714D01*
X681766Y223606D01*
X681819Y223679D01*
X681879Y223749D01*
X681891Y223779D01*
X681910Y223805D01*
X681937Y223892D01*
X681971Y223977D01*
X681975Y224018D01*
X681982Y224040D01*
X681981Y224073D01*
X681989Y224144D01*
X681989Y224371D01*
X681982Y224417D01*
X681984Y224463D01*
X681962Y224537D01*
X681950Y224614D01*
X681928Y224655D01*
X681915Y224699D01*
X681871Y224763D01*
X681834Y224832D01*
X681801Y224863D01*
X681775Y224901D01*
X681713Y224947D01*
X681656Y225001D01*
X681614Y225020D01*
X681578Y225048D01*
X681504Y225072D01*
X681433Y225105D01*
X681387Y225110D01*
X681344Y225124D01*
X681266Y225123D01*
X681189Y225132D01*
X681144Y225122D01*
X681098Y225121D01*
X680966Y225083D01*
X680948Y225079D01*
X680944Y225077D01*
X680937Y225075D01*
X679328Y224408D01*
X676397Y224408D01*
X673690Y225530D01*
X671617Y227602D01*
X670496Y230310D01*
X670496Y233240D01*
X671617Y235948D01*
X673744Y238075D01*
X673781Y238097D01*
X673786Y238102D01*
X673791Y238105D01*
X673865Y238195D01*
X673941Y238284D01*
X673944Y238290D01*
X673948Y238295D01*
X673989Y238403D01*
X674033Y238512D01*
X674034Y238520D01*
X674036Y238524D01*
X674037Y238542D01*
X674052Y238679D01*
X674052Y247504D01*
X674040Y247575D01*
X674038Y247646D01*
X674020Y247695D01*
X674012Y247747D01*
X673979Y247810D01*
X673954Y247877D01*
X673921Y247918D01*
X673897Y247964D01*
X673845Y248013D01*
X673800Y248069D01*
X673756Y248097D01*
X673719Y248133D01*
X673653Y248164D01*
X673593Y248202D01*
X673543Y248215D01*
X673496Y248237D01*
X673424Y248245D01*
X673355Y248262D01*
X673303Y248258D01*
X673251Y248264D01*
X673181Y248249D01*
X673109Y248243D01*
X673062Y248223D01*
X673011Y248212D01*
X672949Y248175D01*
X672883Y248147D01*
X672827Y248102D01*
X672800Y248086D01*
X672784Y248068D01*
X672752Y248042D01*
X672256Y247545D01*
X670841Y246600D01*
X669269Y245949D01*
X668273Y245751D01*
X668273Y259588D01*
X668270Y259608D01*
X668272Y259627D01*
X668250Y259729D01*
X668233Y259831D01*
X668224Y259848D01*
X668220Y259868D01*
X668167Y259957D01*
X668118Y260048D01*
X668104Y260062D01*
X668094Y260079D01*
X668015Y260146D01*
X667940Y260217D01*
X667922Y260226D01*
X667907Y260239D01*
X667811Y260277D01*
X667717Y260321D01*
X667697Y260323D01*
X667679Y260331D01*
X667512Y260349D01*
X666749Y260349D01*
X666749Y260351D01*
X667512Y260351D01*
X667532Y260354D01*
X667551Y260352D01*
X667653Y260374D01*
X667755Y260391D01*
X667772Y260400D01*
X667792Y260404D01*
X667881Y260457D01*
X667972Y260506D01*
X667986Y260520D01*
X668003Y260530D01*
X668070Y260609D01*
X668141Y260684D01*
X668150Y260702D01*
X668163Y260717D01*
X668202Y260813D01*
X668245Y260907D01*
X668247Y260927D01*
X668255Y260945D01*
X668273Y261112D01*
X668273Y274949D01*
X669269Y274751D01*
X670841Y274100D01*
X672256Y273155D01*
X672752Y272658D01*
X672811Y272616D01*
X672862Y272567D01*
X672910Y272545D01*
X672952Y272514D01*
X673020Y272493D01*
X673086Y272463D01*
X673137Y272457D01*
X673187Y272442D01*
X673259Y272444D01*
X673330Y272436D01*
X673381Y272447D01*
X673433Y272448D01*
X673500Y272473D01*
X673570Y272488D01*
X673615Y272515D01*
X673664Y272533D01*
X673720Y272578D01*
X673781Y272614D01*
X673815Y272654D01*
X673856Y272687D01*
X673895Y272747D01*
X673941Y272801D01*
X673961Y272850D01*
X673989Y272893D01*
X674006Y272963D01*
X674033Y273029D01*
X674041Y273101D01*
X674049Y273132D01*
X674047Y273155D01*
X674052Y273196D01*
X674052Y323704D01*
X674040Y323774D01*
X674038Y323846D01*
X674020Y323895D01*
X674012Y323947D01*
X673978Y324010D01*
X673954Y324077D01*
X673921Y324118D01*
X673897Y324164D01*
X673845Y324213D01*
X673800Y324269D01*
X673756Y324297D01*
X673719Y324333D01*
X673654Y324363D01*
X673593Y324402D01*
X673543Y324415D01*
X673496Y324437D01*
X673424Y324445D01*
X673355Y324462D01*
X673303Y324458D01*
X673251Y324464D01*
X673181Y324449D01*
X673110Y324443D01*
X673062Y324423D01*
X673011Y324412D01*
X672949Y324375D01*
X672883Y324347D01*
X672827Y324302D01*
X672800Y324286D01*
X672784Y324268D01*
X672752Y324242D01*
X671642Y323132D01*
X668468Y321817D01*
X665032Y321817D01*
X661858Y323132D01*
X659428Y325562D01*
X658113Y328736D01*
X658113Y344364D01*
X658119Y344377D01*
X658134Y344441D01*
X658158Y344502D01*
X658167Y344585D01*
X658175Y344617D01*
X658173Y344636D01*
X658177Y344669D01*
X658177Y490231D01*
X658162Y490321D01*
X658155Y490412D01*
X658142Y490442D01*
X658137Y490474D01*
X658094Y490555D01*
X658059Y490639D01*
X658033Y490671D01*
X658022Y490691D01*
X657999Y490714D01*
X657954Y490769D01*
X639127Y509597D01*
X639127Y540284D01*
X639119Y540329D01*
X639121Y540375D01*
X639100Y540450D01*
X639087Y540527D01*
X639066Y540567D01*
X639053Y540611D01*
X639008Y540675D01*
X638972Y540744D01*
X638939Y540776D01*
X638912Y540813D01*
X638850Y540860D01*
X638794Y540913D01*
X638752Y540933D01*
X638715Y540960D01*
X638641Y540984D01*
X638571Y541017D01*
X638525Y541022D01*
X638481Y541036D01*
X638403Y541036D01*
X638326Y541044D01*
X638281Y541034D01*
X638235Y541034D01*
X638104Y540996D01*
X638086Y540992D01*
X638081Y540989D01*
X638074Y540987D01*
X636465Y540321D01*
X633457Y540321D01*
X633415Y540331D01*
X633409Y540331D01*
X633403Y540332D01*
X633286Y540321D01*
X633170Y540312D01*
X633164Y540310D01*
X633158Y540309D01*
X633051Y540261D01*
X632944Y540216D01*
X632938Y540211D01*
X632933Y540209D01*
X632920Y540197D01*
X632813Y540111D01*
X632684Y539982D01*
X632631Y539908D01*
X632571Y539839D01*
X632559Y539808D01*
X632540Y539782D01*
X632513Y539695D01*
X632479Y539610D01*
X632475Y539569D01*
X632468Y539547D01*
X632469Y539515D01*
X632461Y539444D01*
X632461Y479180D01*
X632472Y479110D01*
X632474Y479038D01*
X632492Y478989D01*
X632500Y478937D01*
X632534Y478874D01*
X632559Y478807D01*
X632591Y478766D01*
X632616Y478720D01*
X632667Y478671D01*
X632712Y478615D01*
X632756Y478587D01*
X632794Y478551D01*
X632859Y478521D01*
X632919Y478482D01*
X632970Y478469D01*
X633017Y478447D01*
X633088Y478439D01*
X633158Y478422D01*
X633210Y478426D01*
X633261Y478420D01*
X633332Y478435D01*
X633403Y478441D01*
X633451Y478461D01*
X633502Y478472D01*
X633563Y478509D01*
X633629Y478537D01*
X633685Y478582D01*
X633713Y478598D01*
X633728Y478616D01*
X633760Y478642D01*
X634393Y479275D01*
X635958Y480412D01*
X637682Y481290D01*
X639522Y481888D01*
X640877Y482103D01*
X640877Y470662D01*
X640880Y470642D01*
X640878Y470623D01*
X640900Y470521D01*
X640917Y470419D01*
X640926Y470402D01*
X640930Y470382D01*
X640983Y470293D01*
X641032Y470202D01*
X641046Y470188D01*
X641056Y470171D01*
X641135Y470104D01*
X641210Y470033D01*
X641228Y470024D01*
X641243Y470011D01*
X641339Y469973D01*
X641433Y469929D01*
X641453Y469927D01*
X641471Y469919D01*
X641638Y469901D01*
X642401Y469901D01*
X642401Y469899D01*
X641638Y469899D01*
X641618Y469896D01*
X641599Y469898D01*
X641497Y469876D01*
X641395Y469859D01*
X641378Y469850D01*
X641358Y469846D01*
X641269Y469793D01*
X641178Y469744D01*
X641164Y469730D01*
X641147Y469720D01*
X641080Y469641D01*
X641009Y469566D01*
X641000Y469548D01*
X640987Y469533D01*
X640948Y469437D01*
X640905Y469343D01*
X640903Y469323D01*
X640895Y469305D01*
X640877Y469138D01*
X640877Y457697D01*
X639522Y457912D01*
X637682Y458510D01*
X635958Y459388D01*
X634393Y460525D01*
X633760Y461158D01*
X633702Y461200D01*
X633650Y461249D01*
X633603Y461271D01*
X633561Y461302D01*
X633492Y461323D01*
X633427Y461353D01*
X633375Y461359D01*
X633325Y461374D01*
X633254Y461372D01*
X633183Y461380D01*
X633132Y461369D01*
X633080Y461368D01*
X633012Y461343D01*
X632942Y461328D01*
X632897Y461301D01*
X632849Y461283D01*
X632793Y461238D01*
X632731Y461202D01*
X632697Y461162D01*
X632657Y461129D01*
X632618Y461069D01*
X632571Y461015D01*
X632552Y460966D01*
X632524Y460923D01*
X632506Y460853D01*
X632479Y460786D01*
X632471Y460715D01*
X632463Y460684D01*
X632465Y460661D01*
X632461Y460620D01*
X632461Y347581D01*
X632476Y347485D01*
X632486Y347388D01*
X632496Y347364D01*
X632500Y347339D01*
X632546Y347253D01*
X632586Y347164D01*
X632603Y347144D01*
X632616Y347121D01*
X632686Y347054D01*
X632752Y346982D01*
X632775Y346970D01*
X632794Y346952D01*
X632882Y346911D01*
X632968Y346864D01*
X632993Y346859D01*
X633017Y346848D01*
X633114Y346837D01*
X633210Y346820D01*
X633236Y346824D01*
X633261Y346821D01*
X633356Y346842D01*
X633453Y346856D01*
X633476Y346868D01*
X633502Y346873D01*
X633585Y346923D01*
X633672Y346967D01*
X633691Y346986D01*
X633713Y347000D01*
X633776Y347074D01*
X633844Y347143D01*
X633860Y347172D01*
X633873Y347186D01*
X633885Y347217D01*
X633925Y347290D01*
X634028Y347538D01*
X636458Y349968D01*
X639632Y351283D01*
X643068Y351283D01*
X646242Y349968D01*
X648672Y347538D01*
X649987Y344364D01*
X649987Y333618D01*
X650001Y333528D01*
X650009Y333437D01*
X650021Y333407D01*
X650026Y333375D01*
X650069Y333294D01*
X650105Y333210D01*
X650131Y333178D01*
X650142Y333158D01*
X650165Y333136D01*
X650210Y333079D01*
X650643Y332646D01*
X653098Y330191D01*
X653098Y273356D01*
X653113Y273266D01*
X653120Y273175D01*
X653133Y273146D01*
X653138Y273114D01*
X653181Y273033D01*
X653216Y272949D01*
X653242Y272917D01*
X653253Y272896D01*
X653276Y272874D01*
X653321Y272818D01*
X656993Y269146D01*
X657267Y268872D01*
X657304Y268845D01*
X657336Y268811D01*
X657404Y268774D01*
X657467Y268728D01*
X657511Y268715D01*
X657551Y268693D01*
X657628Y268679D01*
X657702Y268656D01*
X657748Y268657D01*
X657793Y268649D01*
X657870Y268660D01*
X657948Y268662D01*
X657991Y268678D01*
X658036Y268685D01*
X658106Y268720D01*
X658179Y268747D01*
X658215Y268776D01*
X658256Y268796D01*
X658310Y268852D01*
X658371Y268901D01*
X658396Y268939D01*
X658428Y268972D01*
X658494Y269092D01*
X658504Y269107D01*
X658505Y269112D01*
X658509Y269119D01*
X659096Y270537D01*
X660041Y271952D01*
X661244Y273155D01*
X662659Y274100D01*
X664231Y274751D01*
X665227Y274949D01*
X665227Y261873D01*
X660209Y261873D01*
X660190Y261870D01*
X660170Y261872D01*
X660069Y261850D01*
X659967Y261833D01*
X659949Y261824D01*
X659930Y261820D01*
X659841Y261767D01*
X659749Y261718D01*
X659736Y261704D01*
X659719Y261694D01*
X659651Y261615D01*
X659580Y261540D01*
X659572Y261522D01*
X659559Y261507D01*
X659520Y261411D01*
X659476Y261317D01*
X659474Y261297D01*
X659467Y261279D01*
X659448Y261112D01*
X659448Y259588D01*
X659451Y259568D01*
X659449Y259549D01*
X659471Y259447D01*
X659488Y259345D01*
X659497Y259328D01*
X659502Y259308D01*
X659555Y259219D01*
X659603Y259128D01*
X659617Y259114D01*
X659628Y259097D01*
X659706Y259030D01*
X659781Y258959D01*
X659799Y258950D01*
X659815Y258937D01*
X659911Y258898D01*
X660004Y258855D01*
X660024Y258853D01*
X660043Y258845D01*
X660209Y258827D01*
X665227Y258827D01*
X665227Y245751D01*
X664231Y245949D01*
X662659Y246600D01*
X661244Y247545D01*
X660748Y248042D01*
X660689Y248084D01*
X660638Y248133D01*
X660590Y248155D01*
X660548Y248186D01*
X660480Y248207D01*
X660414Y248237D01*
X660363Y248243D01*
X660313Y248258D01*
X660241Y248256D01*
X660170Y248264D01*
X660119Y248253D01*
X660067Y248252D01*
X660000Y248227D01*
X659930Y248212D01*
X659885Y248185D01*
X659836Y248167D01*
X659780Y248122D01*
X659719Y248086D01*
X659685Y248046D01*
X659644Y248013D01*
X659605Y247953D01*
X659559Y247899D01*
X659539Y247850D01*
X659511Y247807D01*
X659494Y247737D01*
X659467Y247671D01*
X659459Y247599D01*
X659451Y247568D01*
X659453Y247545D01*
X659448Y247504D01*
X659448Y132316D01*
X659451Y132302D01*
X659449Y132289D01*
X659463Y132226D01*
X659467Y132202D01*
X659484Y132085D01*
X659487Y132080D01*
X659488Y132074D01*
X659542Y131971D01*
X659596Y131866D01*
X659600Y131862D01*
X659603Y131856D01*
X659688Y131776D01*
X659771Y131694D01*
X659778Y131690D01*
X661883Y129585D01*
X663037Y126798D01*
X663044Y126757D01*
X663053Y126740D01*
X663058Y126720D01*
X663111Y126631D01*
X663159Y126540D01*
X663173Y126526D01*
X663184Y126509D01*
X663262Y126442D01*
X663337Y126371D01*
X663355Y126362D01*
X663371Y126349D01*
X663467Y126310D01*
X663560Y126267D01*
X663580Y126265D01*
X663599Y126257D01*
X663765Y126239D01*
X684097Y126239D01*
X684187Y126254D01*
G37*
G36*
X385682Y238893D02*
X385682Y238893D01*
X385753Y238898D01*
X385801Y238919D01*
X385852Y238930D01*
X385913Y238967D01*
X385979Y238995D01*
X386035Y239039D01*
X386063Y239056D01*
X386078Y239074D01*
X386110Y239099D01*
X387582Y240571D01*
X389299Y242288D01*
X389367Y242383D01*
X389437Y242477D01*
X389439Y242483D01*
X389442Y242488D01*
X389477Y242600D01*
X389513Y242711D01*
X389513Y242717D01*
X389515Y242723D01*
X389511Y242840D01*
X389510Y242957D01*
X389508Y242964D01*
X389508Y242965D01*
X389508Y245940D01*
X390630Y248648D01*
X392702Y250720D01*
X395410Y251842D01*
X396685Y251842D01*
X396704Y251845D01*
X396724Y251843D01*
X396825Y251865D01*
X396927Y251881D01*
X396945Y251891D01*
X396964Y251895D01*
X397053Y251948D01*
X397145Y251997D01*
X397158Y252011D01*
X397175Y252021D01*
X397243Y252100D01*
X397314Y252175D01*
X397322Y252193D01*
X397335Y252208D01*
X397374Y252304D01*
X397418Y252398D01*
X397420Y252418D01*
X397427Y252436D01*
X397446Y252603D01*
X397446Y253878D01*
X398567Y256585D01*
X400640Y258658D01*
X403347Y259779D01*
X406278Y259779D01*
X407887Y259113D01*
X407931Y259102D01*
X407973Y259083D01*
X408050Y259074D01*
X408126Y259057D01*
X408172Y259061D01*
X408217Y259056D01*
X408294Y259072D01*
X408371Y259080D01*
X408413Y259098D01*
X408458Y259108D01*
X408525Y259148D01*
X408596Y259180D01*
X408630Y259211D01*
X408669Y259234D01*
X408720Y259293D01*
X408777Y259346D01*
X408799Y259386D01*
X408829Y259421D01*
X408858Y259493D01*
X408895Y259562D01*
X408904Y259607D01*
X408921Y259649D01*
X408936Y259785D01*
X408939Y259804D01*
X408938Y259809D01*
X408939Y259816D01*
X408939Y404621D01*
X408928Y404692D01*
X408926Y404763D01*
X408908Y404812D01*
X408900Y404864D01*
X408866Y404927D01*
X408841Y404994D01*
X408809Y405035D01*
X408784Y405081D01*
X408733Y405130D01*
X408688Y405186D01*
X408644Y405214D01*
X408606Y405250D01*
X408541Y405281D01*
X408481Y405319D01*
X408430Y405332D01*
X408383Y405354D01*
X408312Y405362D01*
X408242Y405379D01*
X408190Y405375D01*
X408139Y405381D01*
X408068Y405366D01*
X407997Y405360D01*
X407949Y405340D01*
X407898Y405329D01*
X407837Y405292D01*
X407771Y405264D01*
X407715Y405219D01*
X407687Y405203D01*
X407672Y405185D01*
X407640Y405159D01*
X407398Y404917D01*
X404690Y403796D01*
X402531Y403796D01*
X402486Y403788D01*
X402440Y403790D01*
X402365Y403769D01*
X402288Y403756D01*
X402248Y403735D01*
X402203Y403722D01*
X402139Y403677D01*
X402071Y403641D01*
X402039Y403608D01*
X402001Y403581D01*
X401955Y403519D01*
X401901Y403463D01*
X401882Y403421D01*
X401855Y403384D01*
X401831Y403310D01*
X401798Y403240D01*
X401793Y403194D01*
X401778Y403150D01*
X401779Y403072D01*
X401771Y402995D01*
X401780Y402950D01*
X401781Y402904D01*
X401819Y402773D01*
X401823Y402755D01*
X401825Y402750D01*
X401828Y402743D01*
X402005Y402315D01*
X402337Y400647D01*
X402337Y395223D01*
X395223Y395223D01*
X395223Y408311D01*
X395270Y408309D01*
X395389Y408304D01*
X395392Y408305D01*
X395395Y408305D01*
X395509Y408339D01*
X395626Y408373D01*
X395628Y408375D01*
X395631Y408376D01*
X395729Y408445D01*
X395828Y408513D01*
X395829Y408516D01*
X395832Y408518D01*
X395903Y408615D01*
X395974Y408711D01*
X395975Y408714D01*
X395977Y408716D01*
X396013Y408828D01*
X396051Y408944D01*
X396051Y408948D01*
X396051Y408951D01*
X396049Y409069D01*
X396048Y409190D01*
X396047Y409194D01*
X396047Y409197D01*
X396044Y409206D01*
X396001Y409352D01*
X395858Y409697D01*
X395858Y412705D01*
X395869Y412747D01*
X395868Y412753D01*
X395870Y412759D01*
X395859Y412876D01*
X395850Y412992D01*
X395847Y412998D01*
X395847Y413004D01*
X395799Y413112D01*
X395753Y413219D01*
X395749Y413224D01*
X395747Y413229D01*
X395734Y413243D01*
X395649Y413350D01*
X389889Y419109D01*
X389889Y531725D01*
X389871Y531840D01*
X389853Y531956D01*
X389851Y531962D01*
X389850Y531968D01*
X389795Y532071D01*
X389742Y532176D01*
X389737Y532180D01*
X389734Y532186D01*
X389649Y532266D01*
X389566Y532348D01*
X389560Y532352D01*
X389556Y532355D01*
X389539Y532363D01*
X389419Y532429D01*
X388808Y532682D01*
X386378Y535112D01*
X385063Y538286D01*
X385063Y553914D01*
X386116Y556456D01*
X386138Y556551D01*
X386167Y556644D01*
X386166Y556670D01*
X386172Y556695D01*
X386163Y556792D01*
X386161Y556889D01*
X386152Y556914D01*
X386149Y556940D01*
X386110Y557029D01*
X386076Y557120D01*
X386060Y557141D01*
X386049Y557165D01*
X385983Y557236D01*
X385922Y557312D01*
X385900Y557327D01*
X385883Y557346D01*
X385797Y557393D01*
X385716Y557445D01*
X385690Y557452D01*
X385667Y557464D01*
X385571Y557482D01*
X385477Y557506D01*
X385451Y557504D01*
X385425Y557508D01*
X385329Y557494D01*
X385232Y557486D01*
X385208Y557476D01*
X385182Y557472D01*
X385095Y557428D01*
X385005Y557390D01*
X384980Y557370D01*
X384963Y557361D01*
X384939Y557337D01*
X384875Y557285D01*
X377160Y549570D01*
X377107Y549497D01*
X377047Y549427D01*
X377035Y549397D01*
X377016Y549371D01*
X376989Y549284D01*
X376955Y549199D01*
X376951Y549158D01*
X376944Y549136D01*
X376945Y549103D01*
X376937Y549032D01*
X376937Y538286D01*
X375622Y535112D01*
X373192Y532682D01*
X370018Y531367D01*
X366582Y531367D01*
X363638Y532587D01*
X363594Y532597D01*
X363552Y532616D01*
X363475Y532625D01*
X363399Y532643D01*
X363353Y532638D01*
X363308Y532644D01*
X363231Y532627D01*
X363154Y532620D01*
X363112Y532601D01*
X363067Y532591D01*
X363000Y532551D01*
X362929Y532520D01*
X362895Y532489D01*
X362856Y532465D01*
X362805Y532406D01*
X362748Y532353D01*
X362726Y532313D01*
X362696Y532278D01*
X362667Y532206D01*
X362630Y532138D01*
X362621Y532093D01*
X362604Y532050D01*
X362589Y531914D01*
X362586Y531896D01*
X362587Y531891D01*
X362586Y531883D01*
X362586Y493179D01*
X362593Y493133D01*
X362591Y493087D01*
X362613Y493013D01*
X362625Y492936D01*
X362647Y492895D01*
X362660Y492851D01*
X362704Y492787D01*
X362741Y492718D01*
X362774Y492687D01*
X362800Y492649D01*
X362862Y492603D01*
X362919Y492549D01*
X362961Y492530D01*
X362997Y492502D01*
X363071Y492478D01*
X363142Y492445D01*
X363188Y492440D01*
X363231Y492426D01*
X363309Y492427D01*
X363386Y492418D01*
X363431Y492428D01*
X363477Y492429D01*
X363609Y492467D01*
X363627Y492471D01*
X363631Y492473D01*
X363638Y492475D01*
X365247Y493142D01*
X368178Y493142D01*
X370885Y492020D01*
X372958Y489948D01*
X374079Y487240D01*
X374079Y484310D01*
X372958Y481602D01*
X372334Y480978D01*
X372281Y480904D01*
X372221Y480835D01*
X372209Y480804D01*
X372190Y480778D01*
X372163Y480691D01*
X372129Y480606D01*
X372125Y480566D01*
X372118Y480543D01*
X372119Y480511D01*
X372111Y480440D01*
X372111Y408075D01*
X372129Y407960D01*
X372147Y407844D01*
X372149Y407838D01*
X372150Y407832D01*
X372205Y407729D01*
X372258Y407624D01*
X372263Y407620D01*
X372266Y407614D01*
X372351Y407534D01*
X372434Y407452D01*
X372440Y407448D01*
X372444Y407445D01*
X372461Y407437D01*
X372581Y407371D01*
X373192Y407118D01*
X375622Y404688D01*
X376937Y401514D01*
X376937Y385886D01*
X376931Y385873D01*
X376916Y385809D01*
X376892Y385748D01*
X376883Y385665D01*
X376875Y385633D01*
X376877Y385614D01*
X376873Y385581D01*
X376873Y383641D01*
X376881Y383596D01*
X376879Y383550D01*
X376900Y383475D01*
X376913Y383398D01*
X376934Y383358D01*
X376947Y383314D01*
X376992Y383250D01*
X377028Y383181D01*
X377061Y383149D01*
X377088Y383112D01*
X377150Y383065D01*
X377206Y383012D01*
X377248Y382992D01*
X377285Y382965D01*
X377359Y382941D01*
X377429Y382908D01*
X377475Y382903D01*
X377519Y382889D01*
X377597Y382889D01*
X377674Y382881D01*
X377719Y382891D01*
X377765Y382891D01*
X377896Y382929D01*
X377914Y382933D01*
X377919Y382936D01*
X377926Y382938D01*
X379535Y383604D01*
X382465Y383604D01*
X385044Y382536D01*
X385114Y382520D01*
X385181Y382494D01*
X385233Y382492D01*
X385284Y382480D01*
X385355Y382487D01*
X385427Y382483D01*
X385477Y382498D01*
X385529Y382503D01*
X385594Y382532D01*
X385663Y382552D01*
X385706Y382582D01*
X385753Y382603D01*
X385806Y382651D01*
X385865Y382692D01*
X385896Y382734D01*
X385935Y382769D01*
X385969Y382832D01*
X386012Y382890D01*
X386028Y382939D01*
X386053Y382985D01*
X386066Y383055D01*
X386088Y383124D01*
X386088Y383176D01*
X386097Y383227D01*
X386086Y383298D01*
X386086Y383369D01*
X386066Y383438D01*
X386061Y383470D01*
X386050Y383491D01*
X386039Y383531D01*
X385395Y385085D01*
X385063Y386753D01*
X385063Y392177D01*
X392177Y392177D01*
X392177Y379101D01*
X391181Y379299D01*
X389609Y379950D01*
X388691Y380564D01*
X388670Y380573D01*
X388652Y380588D01*
X388558Y380624D01*
X388467Y380666D01*
X388444Y380668D01*
X388422Y380676D01*
X388322Y380680D01*
X388222Y380691D01*
X388200Y380686D01*
X388177Y380687D01*
X388080Y380659D01*
X387982Y380636D01*
X387963Y380625D01*
X387940Y380618D01*
X387858Y380561D01*
X387772Y380509D01*
X387757Y380491D01*
X387738Y380478D01*
X387678Y380397D01*
X387614Y380320D01*
X387605Y380299D01*
X387592Y380280D01*
X387560Y380185D01*
X387524Y380092D01*
X387523Y380069D01*
X387515Y380047D01*
X387516Y379946D01*
X387511Y379846D01*
X387518Y379824D01*
X387518Y379801D01*
X387565Y379640D01*
X388367Y377703D01*
X388367Y374772D01*
X387245Y372065D01*
X385118Y369938D01*
X385081Y369915D01*
X385077Y369911D01*
X385072Y369907D01*
X384998Y369818D01*
X384921Y369728D01*
X384919Y369723D01*
X384915Y369718D01*
X384873Y369610D01*
X384829Y369500D01*
X384828Y369493D01*
X384827Y369488D01*
X384826Y369470D01*
X384811Y369334D01*
X384811Y239638D01*
X384812Y239629D01*
X384812Y239626D01*
X384816Y239608D01*
X384822Y239567D01*
X384824Y239495D01*
X384842Y239446D01*
X384850Y239395D01*
X384884Y239332D01*
X384909Y239264D01*
X384941Y239224D01*
X384966Y239178D01*
X385018Y239128D01*
X385062Y239072D01*
X385106Y239044D01*
X385144Y239008D01*
X385209Y238978D01*
X385269Y238939D01*
X385320Y238927D01*
X385367Y238905D01*
X385438Y238897D01*
X385508Y238879D01*
X385560Y238883D01*
X385611Y238878D01*
X385682Y238893D01*
G37*
G36*
X193981Y225735D02*
X193981Y225735D01*
X194059Y225742D01*
X194100Y225761D01*
X194145Y225771D01*
X194212Y225811D01*
X194283Y225842D01*
X194317Y225873D01*
X194356Y225897D01*
X194407Y225956D01*
X194464Y226009D01*
X194487Y226049D01*
X194516Y226084D01*
X194545Y226156D01*
X194583Y226224D01*
X194591Y226269D01*
X194608Y226312D01*
X194623Y226448D01*
X194627Y226466D01*
X194626Y226471D01*
X194627Y226479D01*
X194627Y364819D01*
X194612Y364909D01*
X194605Y365000D01*
X194592Y365029D01*
X194587Y365061D01*
X194544Y365142D01*
X194509Y365226D01*
X194483Y365258D01*
X194472Y365279D01*
X194449Y365301D01*
X194404Y365357D01*
X174583Y385178D01*
X174546Y385205D01*
X174514Y385239D01*
X174446Y385276D01*
X174383Y385322D01*
X174339Y385335D01*
X174299Y385357D01*
X174222Y385371D01*
X174148Y385394D01*
X174102Y385393D01*
X174057Y385401D01*
X173980Y385390D01*
X173902Y385388D01*
X173859Y385372D01*
X173814Y385365D01*
X173744Y385330D01*
X173671Y385303D01*
X173635Y385274D01*
X173594Y385254D01*
X173540Y385198D01*
X173479Y385149D01*
X173454Y385111D01*
X173422Y385078D01*
X173356Y384958D01*
X173346Y384943D01*
X173345Y384938D01*
X173341Y384931D01*
X172422Y382712D01*
X169992Y380282D01*
X166818Y378967D01*
X163382Y378967D01*
X160438Y380187D01*
X160394Y380197D01*
X160352Y380216D01*
X160275Y380225D01*
X160199Y380243D01*
X160153Y380238D01*
X160108Y380244D01*
X160031Y380227D01*
X159954Y380220D01*
X159912Y380201D01*
X159867Y380191D01*
X159800Y380151D01*
X159729Y380120D01*
X159695Y380089D01*
X159656Y380065D01*
X159605Y380006D01*
X159548Y379953D01*
X159526Y379913D01*
X159496Y379878D01*
X159467Y379806D01*
X159430Y379738D01*
X159421Y379693D01*
X159404Y379650D01*
X159389Y379514D01*
X159386Y379496D01*
X159387Y379491D01*
X159386Y379483D01*
X159386Y255894D01*
X159400Y255804D01*
X159408Y255713D01*
X159420Y255683D01*
X159425Y255651D01*
X159468Y255570D01*
X159504Y255486D01*
X159530Y255454D01*
X159541Y255434D01*
X159564Y255411D01*
X159609Y255356D01*
X188313Y226651D01*
X188407Y226584D01*
X188502Y226513D01*
X188508Y226511D01*
X188513Y226508D01*
X188624Y226474D01*
X188735Y226437D01*
X188742Y226437D01*
X188748Y226435D01*
X188865Y226439D01*
X188981Y226440D01*
X188989Y226442D01*
X191965Y226442D01*
X193574Y225775D01*
X193619Y225765D01*
X193661Y225745D01*
X193738Y225737D01*
X193814Y225719D01*
X193859Y225723D01*
X193905Y225718D01*
X193981Y225735D01*
G37*
G36*
X341206Y132066D02*
X341206Y132066D01*
X341252Y132066D01*
X341384Y132104D01*
X341402Y132108D01*
X341406Y132111D01*
X341413Y132113D01*
X343022Y132779D01*
X346030Y132779D01*
X346072Y132769D01*
X346078Y132769D01*
X346084Y132768D01*
X346201Y132779D01*
X346317Y132788D01*
X346323Y132790D01*
X346329Y132791D01*
X346437Y132838D01*
X346544Y132884D01*
X346549Y132888D01*
X346554Y132890D01*
X346567Y132902D01*
X346675Y132989D01*
X364266Y150581D01*
X364319Y150654D01*
X364379Y150724D01*
X364391Y150754D01*
X364410Y150780D01*
X364437Y150867D01*
X364471Y150952D01*
X364475Y150993D01*
X364482Y151015D01*
X364481Y151048D01*
X364489Y151119D01*
X364489Y174071D01*
X364471Y174186D01*
X364453Y174302D01*
X364451Y174308D01*
X364450Y174314D01*
X364395Y174416D01*
X364342Y174521D01*
X364337Y174526D01*
X364334Y174531D01*
X364250Y174612D01*
X364166Y174694D01*
X364160Y174697D01*
X364159Y174698D01*
X362055Y176802D01*
X360933Y179510D01*
X360933Y182440D01*
X362055Y185148D01*
X364127Y187220D01*
X366835Y188342D01*
X368491Y188342D01*
X368510Y188345D01*
X368530Y188343D01*
X368631Y188365D01*
X368733Y188381D01*
X368751Y188391D01*
X368770Y188395D01*
X368859Y188448D01*
X368951Y188497D01*
X368964Y188511D01*
X368981Y188521D01*
X369049Y188600D01*
X369120Y188675D01*
X369128Y188693D01*
X369141Y188708D01*
X369180Y188804D01*
X369224Y188898D01*
X369226Y188918D01*
X369233Y188936D01*
X369252Y189103D01*
X369252Y241154D01*
X369240Y241225D01*
X369238Y241296D01*
X369220Y241345D01*
X369212Y241397D01*
X369179Y241460D01*
X369154Y241527D01*
X369121Y241568D01*
X369097Y241614D01*
X369045Y241663D01*
X369000Y241719D01*
X368956Y241747D01*
X368919Y241783D01*
X368853Y241814D01*
X368793Y241852D01*
X368743Y241865D01*
X368696Y241887D01*
X368624Y241895D01*
X368555Y241912D01*
X368503Y241908D01*
X368451Y241914D01*
X368381Y241899D01*
X368309Y241893D01*
X368262Y241873D01*
X368211Y241862D01*
X368149Y241825D01*
X368083Y241797D01*
X368027Y241752D01*
X368000Y241736D01*
X367984Y241718D01*
X367952Y241692D01*
X367456Y241195D01*
X366041Y240250D01*
X364469Y239599D01*
X363473Y239401D01*
X363473Y253238D01*
X363470Y253258D01*
X363472Y253277D01*
X363450Y253379D01*
X363433Y253481D01*
X363424Y253498D01*
X363420Y253518D01*
X363367Y253607D01*
X363318Y253698D01*
X363304Y253712D01*
X363294Y253729D01*
X363215Y253796D01*
X363140Y253867D01*
X363122Y253876D01*
X363107Y253889D01*
X363011Y253927D01*
X362917Y253971D01*
X362897Y253973D01*
X362879Y253981D01*
X362712Y253999D01*
X361949Y253999D01*
X361949Y254001D01*
X362712Y254001D01*
X362732Y254004D01*
X362751Y254002D01*
X362853Y254024D01*
X362955Y254041D01*
X362972Y254050D01*
X362992Y254054D01*
X363081Y254107D01*
X363172Y254156D01*
X363186Y254170D01*
X363203Y254180D01*
X363270Y254259D01*
X363341Y254334D01*
X363350Y254352D01*
X363363Y254367D01*
X363402Y254463D01*
X363445Y254557D01*
X363447Y254577D01*
X363455Y254595D01*
X363473Y254762D01*
X363473Y268599D01*
X364469Y268401D01*
X366041Y267750D01*
X367456Y266805D01*
X367952Y266308D01*
X368011Y266266D01*
X368062Y266217D01*
X368110Y266195D01*
X368152Y266164D01*
X368220Y266143D01*
X368286Y266113D01*
X368337Y266107D01*
X368387Y266092D01*
X368459Y266094D01*
X368530Y266086D01*
X368581Y266097D01*
X368633Y266098D01*
X368700Y266123D01*
X368770Y266138D01*
X368815Y266165D01*
X368864Y266183D01*
X368920Y266228D01*
X368981Y266264D01*
X369015Y266304D01*
X369056Y266337D01*
X369095Y266397D01*
X369141Y266451D01*
X369161Y266500D01*
X369189Y266543D01*
X369206Y266613D01*
X369233Y266679D01*
X369241Y266751D01*
X369249Y266782D01*
X369247Y266805D01*
X369252Y266846D01*
X369252Y317354D01*
X369240Y317424D01*
X369238Y317496D01*
X369220Y317545D01*
X369212Y317597D01*
X369178Y317660D01*
X369154Y317727D01*
X369121Y317768D01*
X369097Y317814D01*
X369045Y317863D01*
X369000Y317919D01*
X368956Y317947D01*
X368919Y317983D01*
X368854Y318013D01*
X368793Y318052D01*
X368743Y318065D01*
X368696Y318087D01*
X368624Y318095D01*
X368555Y318112D01*
X368503Y318108D01*
X368451Y318114D01*
X368381Y318099D01*
X368310Y318093D01*
X368262Y318073D01*
X368211Y318062D01*
X368149Y318025D01*
X368083Y317997D01*
X368027Y317952D01*
X368000Y317936D01*
X367984Y317918D01*
X367952Y317892D01*
X366842Y316782D01*
X363668Y315467D01*
X360232Y315467D01*
X357058Y316782D01*
X354628Y319212D01*
X354525Y319460D01*
X354474Y319543D01*
X354428Y319629D01*
X354409Y319647D01*
X354396Y319669D01*
X354321Y319731D01*
X354250Y319798D01*
X354226Y319809D01*
X354206Y319826D01*
X354115Y319861D01*
X354027Y319902D01*
X354001Y319905D01*
X353977Y319914D01*
X353879Y319918D01*
X353783Y319929D01*
X353757Y319923D01*
X353731Y319924D01*
X353637Y319897D01*
X353542Y319877D01*
X353520Y319863D01*
X353495Y319856D01*
X353415Y319800D01*
X353331Y319750D01*
X353314Y319731D01*
X353293Y319716D01*
X353234Y319638D01*
X353171Y319564D01*
X353161Y319539D01*
X353146Y319518D01*
X353116Y319426D01*
X353079Y319335D01*
X353076Y319303D01*
X353070Y319284D01*
X353070Y319251D01*
X353061Y319169D01*
X353061Y273604D01*
X353079Y273489D01*
X353097Y273373D01*
X353099Y273367D01*
X353100Y273361D01*
X353155Y273259D01*
X353208Y273154D01*
X353213Y273149D01*
X353216Y273144D01*
X353300Y273063D01*
X353384Y272981D01*
X353390Y272978D01*
X353391Y272977D01*
X355495Y270873D01*
X356666Y268047D01*
X356716Y267966D01*
X356759Y267883D01*
X356780Y267862D01*
X356795Y267838D01*
X356868Y267777D01*
X356936Y267712D01*
X356962Y267699D01*
X356985Y267681D01*
X357073Y267647D01*
X357158Y267607D01*
X357187Y267603D01*
X357215Y267593D01*
X357309Y267589D01*
X357403Y267577D01*
X357431Y267583D01*
X357460Y267582D01*
X357551Y267609D01*
X357643Y267628D01*
X357676Y267645D01*
X357697Y267651D01*
X357724Y267669D01*
X357792Y267705D01*
X357859Y267750D01*
X359431Y268401D01*
X360427Y268599D01*
X360427Y255523D01*
X353313Y255523D01*
X353313Y259270D01*
X353306Y259315D01*
X353308Y259361D01*
X353286Y259436D01*
X353274Y259513D01*
X353252Y259553D01*
X353239Y259597D01*
X353195Y259661D01*
X353158Y259730D01*
X353125Y259762D01*
X353099Y259800D01*
X353036Y259846D01*
X352980Y259900D01*
X352938Y259919D01*
X352902Y259946D01*
X352828Y259970D01*
X352757Y260003D01*
X352711Y260008D01*
X352668Y260022D01*
X352590Y260022D01*
X352513Y260030D01*
X352468Y260021D01*
X352422Y260020D01*
X352290Y259982D01*
X352272Y259978D01*
X352268Y259975D01*
X352261Y259973D01*
X350715Y259333D01*
X347785Y259333D01*
X346239Y259973D01*
X346195Y259984D01*
X346153Y260003D01*
X346076Y260012D01*
X346000Y260030D01*
X345954Y260025D01*
X345909Y260030D01*
X345832Y260014D01*
X345755Y260006D01*
X345713Y259988D01*
X345668Y259978D01*
X345601Y259938D01*
X345530Y259906D01*
X345496Y259875D01*
X345457Y259852D01*
X345406Y259793D01*
X345349Y259740D01*
X345327Y259700D01*
X345297Y259665D01*
X345268Y259593D01*
X345231Y259525D01*
X345222Y259479D01*
X345205Y259437D01*
X345190Y259301D01*
X345187Y259282D01*
X345188Y259278D01*
X345187Y259270D01*
X345187Y246186D01*
X343872Y243012D01*
X341442Y240582D01*
X340175Y240057D01*
X340136Y240033D01*
X340093Y240017D01*
X340032Y239969D01*
X339966Y239927D01*
X339936Y239892D01*
X339900Y239863D01*
X339858Y239798D01*
X339809Y239738D01*
X339792Y239695D01*
X339767Y239656D01*
X339748Y239581D01*
X339721Y239508D01*
X339719Y239462D01*
X339707Y239418D01*
X339713Y239340D01*
X339710Y239263D01*
X339723Y239218D01*
X339727Y239173D01*
X339757Y239101D01*
X339779Y239026D01*
X339805Y238989D01*
X339823Y238946D01*
X339908Y238840D01*
X339919Y238824D01*
X339923Y238821D01*
X339928Y238815D01*
X341208Y237535D01*
X342329Y234828D01*
X342329Y231897D01*
X341208Y229190D01*
X340584Y228566D01*
X340531Y228492D01*
X340471Y228422D01*
X340459Y228392D01*
X340440Y228366D01*
X340413Y228279D01*
X340379Y228194D01*
X340375Y228153D01*
X340368Y228131D01*
X340369Y228099D01*
X340361Y228027D01*
X340361Y132816D01*
X340368Y132771D01*
X340366Y132725D01*
X340388Y132650D01*
X340400Y132573D01*
X340422Y132533D01*
X340435Y132489D01*
X340479Y132425D01*
X340516Y132356D01*
X340549Y132324D01*
X340575Y132287D01*
X340637Y132240D01*
X340694Y132187D01*
X340736Y132167D01*
X340772Y132140D01*
X340846Y132116D01*
X340917Y132083D01*
X340963Y132078D01*
X341006Y132064D01*
X341084Y132064D01*
X341161Y132056D01*
X341206Y132066D01*
G37*
G36*
X690456Y262241D02*
X690456Y262241D01*
X690502Y262241D01*
X690634Y262279D01*
X690652Y262283D01*
X690656Y262286D01*
X690663Y262288D01*
X692272Y262954D01*
X695280Y262954D01*
X695322Y262944D01*
X695328Y262944D01*
X695334Y262943D01*
X695451Y262954D01*
X695567Y262963D01*
X695573Y262965D01*
X695579Y262966D01*
X695687Y263013D01*
X695794Y263059D01*
X695799Y263063D01*
X695804Y263065D01*
X695817Y263077D01*
X695925Y263164D01*
X721454Y288693D01*
X721507Y288767D01*
X721566Y288836D01*
X721579Y288867D01*
X721597Y288893D01*
X721624Y288980D01*
X721658Y289065D01*
X721663Y289106D01*
X721670Y289128D01*
X721669Y289160D01*
X721677Y289231D01*
X721677Y356134D01*
X721669Y356179D01*
X721671Y356225D01*
X721650Y356300D01*
X721637Y356377D01*
X721616Y356417D01*
X721603Y356461D01*
X721558Y356525D01*
X721522Y356594D01*
X721489Y356626D01*
X721462Y356663D01*
X721400Y356710D01*
X721344Y356763D01*
X721302Y356783D01*
X721265Y356810D01*
X721191Y356834D01*
X721121Y356867D01*
X721075Y356872D01*
X721031Y356886D01*
X720953Y356886D01*
X720876Y356894D01*
X720831Y356884D01*
X720785Y356884D01*
X720654Y356846D01*
X720636Y356842D01*
X720631Y356839D01*
X720624Y356837D01*
X719015Y356171D01*
X716007Y356171D01*
X715965Y356181D01*
X715959Y356181D01*
X715953Y356182D01*
X715836Y356171D01*
X715720Y356162D01*
X715714Y356160D01*
X715708Y356159D01*
X715601Y356111D01*
X715494Y356066D01*
X715488Y356061D01*
X715483Y356059D01*
X715470Y356047D01*
X715363Y355961D01*
X689834Y330432D01*
X689781Y330358D01*
X689721Y330289D01*
X689709Y330258D01*
X689690Y330232D01*
X689663Y330145D01*
X689629Y330060D01*
X689625Y330019D01*
X689618Y329997D01*
X689619Y329965D01*
X689611Y329894D01*
X689611Y316915D01*
X689622Y316845D01*
X689624Y316773D01*
X689642Y316724D01*
X689650Y316673D01*
X689684Y316609D01*
X689709Y316542D01*
X689741Y316501D01*
X689766Y316455D01*
X689818Y316406D01*
X689862Y316350D01*
X689906Y316322D01*
X689944Y316286D01*
X690009Y316256D01*
X690069Y316217D01*
X690120Y316204D01*
X690167Y316182D01*
X690238Y316174D01*
X690308Y316157D01*
X690360Y316161D01*
X690411Y316155D01*
X690482Y316170D01*
X690553Y316176D01*
X690601Y316196D01*
X690652Y316207D01*
X690713Y316244D01*
X690779Y316272D01*
X690835Y316317D01*
X690863Y316334D01*
X690878Y316351D01*
X690910Y316377D01*
X693654Y319121D01*
X702340Y327807D01*
X702393Y327881D01*
X702453Y327951D01*
X702465Y327981D01*
X702484Y328007D01*
X702511Y328094D01*
X702545Y328179D01*
X702549Y328220D01*
X702556Y328242D01*
X702555Y328274D01*
X702563Y328345D01*
X702563Y333777D01*
X707623Y338837D01*
X714777Y338837D01*
X719837Y333777D01*
X719837Y326623D01*
X714777Y321563D01*
X709345Y321563D01*
X709255Y321549D01*
X709164Y321541D01*
X709135Y321529D01*
X709103Y321524D01*
X709022Y321481D01*
X708938Y321445D01*
X708906Y321419D01*
X708885Y321408D01*
X708863Y321385D01*
X708807Y321340D01*
X701822Y314355D01*
X701755Y314261D01*
X701684Y314167D01*
X701682Y314161D01*
X701679Y314156D01*
X701644Y314045D01*
X701608Y313933D01*
X701608Y313926D01*
X701606Y313920D01*
X701609Y313804D01*
X701610Y313687D01*
X701612Y313680D01*
X701613Y313675D01*
X701619Y313657D01*
X701657Y313526D01*
X702692Y311028D01*
X702692Y310344D01*
X702703Y310273D01*
X702705Y310201D01*
X702723Y310152D01*
X702731Y310101D01*
X702765Y310038D01*
X702790Y309970D01*
X702822Y309930D01*
X702847Y309884D01*
X702899Y309834D01*
X702943Y309778D01*
X702987Y309750D01*
X703025Y309714D01*
X703090Y309684D01*
X703150Y309645D01*
X703201Y309633D01*
X703248Y309611D01*
X703319Y309603D01*
X703389Y309585D01*
X703441Y309589D01*
X703492Y309583D01*
X703563Y309599D01*
X703634Y309604D01*
X703682Y309625D01*
X703733Y309636D01*
X703794Y309673D01*
X703860Y309701D01*
X703916Y309745D01*
X703944Y309762D01*
X703959Y309780D01*
X703991Y309805D01*
X707623Y313437D01*
X709677Y313437D01*
X709677Y306323D01*
X702466Y306323D01*
X702351Y306304D01*
X702235Y306287D01*
X702229Y306284D01*
X702223Y306283D01*
X702120Y306229D01*
X702015Y306176D01*
X702011Y306171D01*
X702005Y306168D01*
X701925Y306083D01*
X701843Y306000D01*
X701840Y305994D01*
X701836Y305990D01*
X701828Y305973D01*
X701762Y305853D01*
X701570Y305390D01*
X699498Y303317D01*
X696790Y302196D01*
X693860Y302196D01*
X691152Y303317D01*
X690910Y303559D01*
X690852Y303601D01*
X690800Y303650D01*
X690753Y303672D01*
X690711Y303703D01*
X690642Y303724D01*
X690577Y303754D01*
X690525Y303760D01*
X690475Y303775D01*
X690404Y303773D01*
X690333Y303781D01*
X690282Y303770D01*
X690230Y303769D01*
X690162Y303744D01*
X690092Y303729D01*
X690047Y303702D01*
X689999Y303684D01*
X689943Y303639D01*
X689881Y303603D01*
X689847Y303563D01*
X689807Y303531D01*
X689768Y303470D01*
X689721Y303416D01*
X689702Y303367D01*
X689674Y303324D01*
X689656Y303254D01*
X689629Y303188D01*
X689621Y303116D01*
X689613Y303085D01*
X689615Y303062D01*
X689611Y303021D01*
X689611Y262991D01*
X689618Y262946D01*
X689616Y262900D01*
X689638Y262825D01*
X689650Y262748D01*
X689672Y262708D01*
X689685Y262664D01*
X689729Y262600D01*
X689766Y262531D01*
X689799Y262499D01*
X689825Y262462D01*
X689887Y262415D01*
X689944Y262362D01*
X689986Y262342D01*
X690022Y262315D01*
X690096Y262291D01*
X690167Y262258D01*
X690213Y262253D01*
X690256Y262239D01*
X690334Y262239D01*
X690411Y262231D01*
X690456Y262241D01*
G37*
%LPC*%
G36*
X574148Y610759D02*
X574148Y610759D01*
X572659Y612248D01*
X572659Y632352D01*
X574148Y633841D01*
X588959Y633841D01*
X589049Y633855D01*
X589140Y633863D01*
X589169Y633875D01*
X589201Y633880D01*
X589282Y633923D01*
X589366Y633959D01*
X589398Y633985D01*
X589419Y633996D01*
X589441Y634019D01*
X589497Y634064D01*
X604804Y649371D01*
X604857Y649445D01*
X604917Y649515D01*
X604929Y649545D01*
X604948Y649571D01*
X604975Y649658D01*
X605009Y649743D01*
X605013Y649784D01*
X605020Y649806D01*
X605019Y649838D01*
X605027Y649909D01*
X605027Y660798D01*
X605024Y660818D01*
X605026Y660837D01*
X605004Y660939D01*
X604988Y661041D01*
X604978Y661058D01*
X604974Y661078D01*
X604921Y661167D01*
X604872Y661258D01*
X604858Y661272D01*
X604848Y661289D01*
X604769Y661356D01*
X604694Y661428D01*
X604676Y661436D01*
X604661Y661449D01*
X604565Y661488D01*
X604471Y661531D01*
X604451Y661533D01*
X604433Y661541D01*
X604266Y661559D01*
X599548Y661559D01*
X598059Y663048D01*
X598059Y683152D01*
X599548Y684641D01*
X619652Y684641D01*
X621141Y683152D01*
X621141Y663048D01*
X619652Y661559D01*
X614934Y661559D01*
X614914Y661556D01*
X614895Y661558D01*
X614793Y661536D01*
X614691Y661520D01*
X614674Y661510D01*
X614654Y661506D01*
X614565Y661453D01*
X614474Y661404D01*
X614460Y661390D01*
X614443Y661380D01*
X614376Y661301D01*
X614304Y661226D01*
X614296Y661208D01*
X614283Y661193D01*
X614244Y661097D01*
X614201Y661003D01*
X614199Y660983D01*
X614191Y660965D01*
X614173Y660798D01*
X614173Y645806D01*
X611271Y642904D01*
X603507Y635140D01*
X603465Y635082D01*
X603416Y635030D01*
X603394Y634983D01*
X603364Y634941D01*
X603342Y634872D01*
X603312Y634807D01*
X603307Y634755D01*
X603291Y634705D01*
X603293Y634634D01*
X603285Y634563D01*
X603296Y634512D01*
X603298Y634460D01*
X603322Y634392D01*
X603337Y634322D01*
X603364Y634277D01*
X603382Y634229D01*
X603427Y634173D01*
X603464Y634111D01*
X603503Y634077D01*
X603536Y634037D01*
X603596Y633998D01*
X603650Y633951D01*
X603699Y633932D01*
X603743Y633904D01*
X603812Y633886D01*
X603879Y633859D01*
X603950Y633851D01*
X603981Y633843D01*
X604004Y633845D01*
X604045Y633841D01*
X608077Y633841D01*
X608077Y623823D01*
X598059Y623823D01*
X598059Y627855D01*
X598048Y627925D01*
X598046Y627997D01*
X598028Y628046D01*
X598020Y628097D01*
X597986Y628161D01*
X597961Y628228D01*
X597929Y628269D01*
X597904Y628315D01*
X597852Y628364D01*
X597808Y628420D01*
X597764Y628448D01*
X597726Y628484D01*
X597661Y628514D01*
X597601Y628553D01*
X597550Y628566D01*
X597503Y628588D01*
X597432Y628596D01*
X597362Y628613D01*
X597310Y628609D01*
X597259Y628615D01*
X597188Y628600D01*
X597117Y628594D01*
X597069Y628574D01*
X597018Y628563D01*
X596957Y628526D01*
X596891Y628498D01*
X596835Y628453D01*
X596807Y628436D01*
X596792Y628419D01*
X596760Y628393D01*
X595964Y627597D01*
X595911Y627523D01*
X595851Y627453D01*
X595839Y627423D01*
X595820Y627397D01*
X595793Y627310D01*
X595759Y627225D01*
X595755Y627184D01*
X595748Y627162D01*
X595749Y627130D01*
X595741Y627059D01*
X595741Y612248D01*
X594252Y610759D01*
X574148Y610759D01*
G37*
%LPD*%
G36*
X478258Y254598D02*
X478258Y254598D01*
X478336Y254600D01*
X478379Y254616D01*
X478424Y254622D01*
X478493Y254658D01*
X478567Y254684D01*
X478602Y254713D01*
X478643Y254734D01*
X478698Y254789D01*
X478759Y254838D01*
X478783Y254877D01*
X478816Y254909D01*
X478882Y255029D01*
X478892Y255045D01*
X478893Y255050D01*
X478896Y255056D01*
X479530Y256585D01*
X481602Y258658D01*
X484310Y259779D01*
X487318Y259779D01*
X487360Y259769D01*
X487366Y259769D01*
X487372Y259768D01*
X487489Y259779D01*
X487605Y259788D01*
X487611Y259790D01*
X487617Y259791D01*
X487724Y259839D01*
X487831Y259884D01*
X487837Y259889D01*
X487842Y259891D01*
X487855Y259903D01*
X487962Y259989D01*
X492854Y264881D01*
X492907Y264954D01*
X492966Y265024D01*
X492979Y265054D01*
X492997Y265080D01*
X493024Y265167D01*
X493058Y265252D01*
X493063Y265293D01*
X493070Y265315D01*
X493069Y265347D01*
X493077Y265419D01*
X493077Y267981D01*
X493062Y268071D01*
X493055Y268162D01*
X493042Y268192D01*
X493037Y268224D01*
X492994Y268305D01*
X492959Y268389D01*
X492933Y268421D01*
X492922Y268441D01*
X492899Y268464D01*
X492854Y268519D01*
X489902Y271472D01*
X489902Y310750D01*
X489890Y310821D01*
X489888Y310892D01*
X489870Y310941D01*
X489862Y310993D01*
X489828Y311056D01*
X489804Y311123D01*
X489771Y311164D01*
X489747Y311210D01*
X489695Y311259D01*
X489650Y311315D01*
X489606Y311343D01*
X489569Y311379D01*
X489504Y311409D01*
X489443Y311448D01*
X489393Y311461D01*
X489346Y311483D01*
X489274Y311491D01*
X489205Y311508D01*
X489153Y311504D01*
X489101Y311510D01*
X489031Y311495D01*
X488960Y311489D01*
X488912Y311469D01*
X488861Y311458D01*
X488799Y311421D01*
X488733Y311393D01*
X488677Y311348D01*
X488650Y311332D01*
X488634Y311314D01*
X488602Y311288D01*
X486177Y308863D01*
X484123Y308863D01*
X484123Y316738D01*
X484120Y316758D01*
X484122Y316777D01*
X484100Y316879D01*
X484083Y316981D01*
X484074Y316998D01*
X484070Y317018D01*
X484017Y317107D01*
X483968Y317198D01*
X483954Y317212D01*
X483944Y317229D01*
X483865Y317296D01*
X483790Y317367D01*
X483772Y317376D01*
X483757Y317389D01*
X483661Y317427D01*
X483567Y317471D01*
X483547Y317473D01*
X483529Y317481D01*
X483362Y317499D01*
X481838Y317499D01*
X481818Y317496D01*
X481799Y317498D01*
X481697Y317476D01*
X481595Y317459D01*
X481578Y317450D01*
X481558Y317446D01*
X481469Y317393D01*
X481378Y317344D01*
X481364Y317330D01*
X481347Y317320D01*
X481280Y317241D01*
X481209Y317166D01*
X481200Y317148D01*
X481187Y317133D01*
X481148Y317037D01*
X481105Y316943D01*
X481103Y316923D01*
X481095Y316905D01*
X481077Y316738D01*
X481077Y308863D01*
X479023Y308863D01*
X476598Y311288D01*
X476540Y311330D01*
X476488Y311379D01*
X476440Y311401D01*
X476398Y311432D01*
X476330Y311453D01*
X476264Y311483D01*
X476213Y311489D01*
X476163Y311504D01*
X476091Y311502D01*
X476020Y311510D01*
X475969Y311499D01*
X475917Y311498D01*
X475850Y311473D01*
X475780Y311458D01*
X475735Y311431D01*
X475686Y311413D01*
X475630Y311368D01*
X475569Y311332D01*
X475535Y311292D01*
X475494Y311259D01*
X475455Y311199D01*
X475409Y311145D01*
X475389Y311096D01*
X475361Y311053D01*
X475344Y310983D01*
X475317Y310917D01*
X475309Y310845D01*
X475301Y310814D01*
X475303Y310791D01*
X475298Y310750D01*
X475298Y273604D01*
X475317Y273489D01*
X475334Y273373D01*
X475337Y273367D01*
X475338Y273361D01*
X475392Y273259D01*
X475446Y273154D01*
X475450Y273149D01*
X475453Y273144D01*
X475538Y273063D01*
X475621Y272981D01*
X475628Y272978D01*
X475628Y272977D01*
X477733Y270873D01*
X478854Y268165D01*
X478854Y265235D01*
X477733Y262527D01*
X475660Y260455D01*
X474131Y259821D01*
X474092Y259797D01*
X474049Y259781D01*
X473988Y259733D01*
X473922Y259692D01*
X473893Y259656D01*
X473857Y259628D01*
X473815Y259562D01*
X473765Y259502D01*
X473749Y259459D01*
X473724Y259421D01*
X473705Y259345D01*
X473677Y259273D01*
X473675Y259227D01*
X473664Y259182D01*
X473670Y259105D01*
X473667Y259027D01*
X473680Y258983D01*
X473683Y258937D01*
X473714Y258866D01*
X473735Y258791D01*
X473762Y258753D01*
X473780Y258711D01*
X473865Y258604D01*
X473876Y258589D01*
X473880Y258586D01*
X473884Y258580D01*
X477655Y254809D01*
X477692Y254783D01*
X477723Y254749D01*
X477791Y254711D01*
X477855Y254666D01*
X477898Y254652D01*
X477939Y254630D01*
X478015Y254616D01*
X478090Y254593D01*
X478136Y254595D01*
X478181Y254586D01*
X478258Y254598D01*
G37*
%LPC*%
G36*
X772982Y219963D02*
X772982Y219963D01*
X769808Y221278D01*
X767378Y223708D01*
X766063Y226882D01*
X766063Y230318D01*
X766317Y230930D01*
X766343Y231044D01*
X766372Y231157D01*
X766371Y231163D01*
X766373Y231169D01*
X766362Y231286D01*
X766353Y231402D01*
X766350Y231408D01*
X766350Y231414D01*
X766302Y231522D01*
X766256Y231628D01*
X766252Y231634D01*
X766250Y231639D01*
X766237Y231653D01*
X766152Y231759D01*
X760644Y237266D01*
X758170Y239740D01*
X758153Y239856D01*
X758151Y239862D01*
X758150Y239868D01*
X758095Y239971D01*
X758042Y240076D01*
X758037Y240080D01*
X758034Y240086D01*
X757949Y240166D01*
X757866Y240248D01*
X757860Y240252D01*
X757856Y240255D01*
X757839Y240263D01*
X757719Y240329D01*
X757108Y240582D01*
X754678Y243012D01*
X753363Y246186D01*
X753363Y261814D01*
X754678Y264988D01*
X757108Y267418D01*
X760282Y268733D01*
X763718Y268733D01*
X766892Y267418D01*
X769322Y264988D01*
X770637Y261814D01*
X770637Y246186D01*
X769322Y243012D01*
X768038Y241728D01*
X768026Y241712D01*
X768011Y241699D01*
X767975Y241643D01*
X767949Y241616D01*
X767933Y241582D01*
X767894Y241528D01*
X767889Y241509D01*
X767878Y241492D01*
X767862Y241428D01*
X767845Y241393D01*
X767841Y241354D01*
X767822Y241293D01*
X767823Y241273D01*
X767818Y241254D01*
X767823Y241190D01*
X767818Y241148D01*
X767827Y241107D01*
X767828Y241047D01*
X767835Y241028D01*
X767837Y241008D01*
X767860Y240953D01*
X767870Y240908D01*
X767894Y240868D01*
X767913Y240816D01*
X767925Y240800D01*
X767933Y240782D01*
X767981Y240722D01*
X767996Y240697D01*
X768013Y240682D01*
X768038Y240651D01*
X771541Y237148D01*
X771636Y237080D01*
X771729Y237010D01*
X771735Y237008D01*
X771741Y237005D01*
X771852Y236971D01*
X771963Y236934D01*
X771970Y236934D01*
X771976Y236932D01*
X772092Y236936D01*
X772209Y236937D01*
X772217Y236939D01*
X772222Y236939D01*
X772239Y236945D01*
X772370Y236983D01*
X772982Y237237D01*
X776418Y237237D01*
X779592Y235922D01*
X782022Y233492D01*
X783337Y230318D01*
X783337Y226882D01*
X782022Y223708D01*
X779592Y221278D01*
X776418Y219963D01*
X772982Y219963D01*
G37*
%LPD*%
%LPC*%
G36*
X892972Y549401D02*
X892972Y549401D01*
X889518Y550832D01*
X886874Y553476D01*
X885443Y556930D01*
X885443Y560670D01*
X886874Y564124D01*
X889518Y566768D01*
X892972Y568199D01*
X910428Y568199D01*
X913882Y566768D01*
X916526Y564124D01*
X917957Y560670D01*
X917957Y556930D01*
X916526Y553476D01*
X913882Y550832D01*
X910428Y549401D01*
X892972Y549401D01*
G37*
%LPD*%
%LPC*%
G36*
X892972Y524001D02*
X892972Y524001D01*
X889518Y525432D01*
X886874Y528076D01*
X885443Y531530D01*
X885443Y535270D01*
X886874Y538724D01*
X889518Y541368D01*
X892972Y542799D01*
X910428Y542799D01*
X913882Y541368D01*
X916526Y538724D01*
X917957Y535270D01*
X917957Y531530D01*
X916526Y528076D01*
X913882Y525432D01*
X910428Y524001D01*
X892972Y524001D01*
G37*
%LPD*%
%LPC*%
G36*
X892972Y498601D02*
X892972Y498601D01*
X889518Y500032D01*
X886874Y502676D01*
X885443Y506130D01*
X885443Y509870D01*
X886874Y513324D01*
X889518Y515968D01*
X892972Y517399D01*
X910428Y517399D01*
X913882Y515968D01*
X916526Y513324D01*
X917957Y509870D01*
X917957Y506130D01*
X916526Y502676D01*
X913882Y500032D01*
X910428Y498601D01*
X892972Y498601D01*
G37*
%LPD*%
%LPC*%
G36*
X892972Y447801D02*
X892972Y447801D01*
X889518Y449232D01*
X886874Y451876D01*
X885443Y455330D01*
X885443Y459070D01*
X886874Y462524D01*
X889518Y465168D01*
X892972Y466599D01*
X910428Y466599D01*
X913882Y465168D01*
X916526Y462524D01*
X917957Y459070D01*
X917957Y455330D01*
X916526Y451876D01*
X913882Y449232D01*
X910428Y447801D01*
X892972Y447801D01*
G37*
%LPD*%
%LPC*%
G36*
X892972Y422401D02*
X892972Y422401D01*
X889518Y423832D01*
X886874Y426476D01*
X885443Y429930D01*
X885443Y433670D01*
X886874Y437124D01*
X889518Y439768D01*
X892972Y441199D01*
X910428Y441199D01*
X913882Y439768D01*
X916526Y437124D01*
X917957Y433670D01*
X917957Y429930D01*
X916526Y426476D01*
X913882Y423832D01*
X910428Y422401D01*
X892972Y422401D01*
G37*
%LPD*%
%LPC*%
G36*
X294748Y661559D02*
X294748Y661559D01*
X293259Y663048D01*
X293259Y683152D01*
X294748Y684641D01*
X314852Y684641D01*
X316341Y683152D01*
X316341Y663048D01*
X314852Y661559D01*
X294748Y661559D01*
G37*
%LPD*%
%LPC*%
G36*
X802748Y610759D02*
X802748Y610759D01*
X801259Y612248D01*
X801259Y632352D01*
X802748Y633841D01*
X822852Y633841D01*
X824341Y632352D01*
X824341Y612248D01*
X822852Y610759D01*
X802748Y610759D01*
G37*
%LPD*%
%LPC*%
G36*
X777348Y610759D02*
X777348Y610759D01*
X775859Y612248D01*
X775859Y632352D01*
X777348Y633841D01*
X797452Y633841D01*
X798941Y632352D01*
X798941Y612248D01*
X797452Y610759D01*
X777348Y610759D01*
G37*
%LPD*%
%LPC*%
G36*
X785682Y239267D02*
X785682Y239267D01*
X782508Y240582D01*
X780078Y243012D01*
X778763Y246186D01*
X778763Y261814D01*
X780078Y264988D01*
X782508Y267418D01*
X785682Y268733D01*
X789118Y268733D01*
X792292Y267418D01*
X794722Y264988D01*
X796037Y261814D01*
X796037Y246186D01*
X794722Y243012D01*
X792292Y240582D01*
X789118Y239267D01*
X785682Y239267D01*
G37*
%LPD*%
%LPC*%
G36*
X61782Y378967D02*
X61782Y378967D01*
X58608Y380282D01*
X56178Y382712D01*
X54863Y385886D01*
X54863Y401514D01*
X56178Y404688D01*
X58608Y407118D01*
X61782Y408433D01*
X65218Y408433D01*
X68392Y407118D01*
X70822Y404688D01*
X72137Y401514D01*
X72137Y385886D01*
X70822Y382712D01*
X68392Y380282D01*
X65218Y378967D01*
X61782Y378967D01*
G37*
%LPD*%
%LPC*%
G36*
X887282Y315467D02*
X887282Y315467D01*
X884108Y316782D01*
X881678Y319212D01*
X880363Y322386D01*
X880363Y338014D01*
X881678Y341188D01*
X884108Y343618D01*
X887282Y344933D01*
X890718Y344933D01*
X893892Y343618D01*
X896322Y341188D01*
X897637Y338014D01*
X897637Y322386D01*
X896322Y319212D01*
X893892Y316782D01*
X890718Y315467D01*
X887282Y315467D01*
G37*
%LPD*%
%LPC*%
G36*
X760282Y315467D02*
X760282Y315467D01*
X757108Y316782D01*
X754678Y319212D01*
X753363Y322386D01*
X753363Y338014D01*
X754678Y341188D01*
X757108Y343618D01*
X760282Y344933D01*
X763718Y344933D01*
X766892Y343618D01*
X769322Y341188D01*
X770637Y338014D01*
X770637Y322386D01*
X769322Y319212D01*
X766892Y316782D01*
X763718Y315467D01*
X760282Y315467D01*
G37*
%LPD*%
%LPC*%
G36*
X912682Y315467D02*
X912682Y315467D01*
X909508Y316782D01*
X907078Y319212D01*
X905763Y322386D01*
X905763Y338014D01*
X907078Y341188D01*
X909508Y343618D01*
X912682Y344933D01*
X916118Y344933D01*
X919292Y343618D01*
X921722Y341188D01*
X923037Y338014D01*
X923037Y322386D01*
X921722Y319212D01*
X919292Y316782D01*
X916118Y315467D01*
X912682Y315467D01*
G37*
%LPD*%
%LPC*%
G36*
X174223Y321563D02*
X174223Y321563D01*
X169163Y326623D01*
X169163Y333777D01*
X174223Y338837D01*
X181377Y338837D01*
X186437Y333777D01*
X186437Y326623D01*
X181377Y321563D01*
X174223Y321563D01*
G37*
%LPD*%
G36*
X483382Y317504D02*
X483382Y317504D01*
X483401Y317502D01*
X483503Y317524D01*
X483605Y317541D01*
X483622Y317550D01*
X483642Y317554D01*
X483731Y317607D01*
X483822Y317656D01*
X483836Y317670D01*
X483853Y317680D01*
X483920Y317759D01*
X483991Y317834D01*
X484000Y317852D01*
X484013Y317867D01*
X484052Y317963D01*
X484095Y318057D01*
X484097Y318077D01*
X484105Y318095D01*
X484123Y318262D01*
X484123Y326137D01*
X486177Y326137D01*
X488602Y323712D01*
X488660Y323670D01*
X488712Y323621D01*
X488760Y323599D01*
X488802Y323568D01*
X488870Y323547D01*
X488936Y323517D01*
X488987Y323511D01*
X489037Y323496D01*
X489109Y323498D01*
X489180Y323490D01*
X489231Y323501D01*
X489283Y323502D01*
X489350Y323527D01*
X489420Y323542D01*
X489465Y323569D01*
X489514Y323587D01*
X489570Y323632D01*
X489631Y323668D01*
X489665Y323708D01*
X489706Y323741D01*
X489745Y323801D01*
X489791Y323855D01*
X489811Y323904D01*
X489839Y323947D01*
X489856Y324017D01*
X489883Y324083D01*
X489891Y324155D01*
X489899Y324186D01*
X489897Y324209D01*
X489902Y324250D01*
X489902Y336150D01*
X489890Y336221D01*
X489888Y336292D01*
X489870Y336341D01*
X489862Y336393D01*
X489828Y336456D01*
X489804Y336523D01*
X489771Y336564D01*
X489747Y336610D01*
X489695Y336659D01*
X489650Y336715D01*
X489606Y336743D01*
X489569Y336779D01*
X489504Y336809D01*
X489443Y336848D01*
X489393Y336861D01*
X489346Y336883D01*
X489274Y336891D01*
X489205Y336908D01*
X489153Y336904D01*
X489101Y336910D01*
X489031Y336895D01*
X488960Y336889D01*
X488912Y336869D01*
X488861Y336858D01*
X488799Y336821D01*
X488733Y336793D01*
X488677Y336748D01*
X488650Y336732D01*
X488634Y336714D01*
X488602Y336688D01*
X486177Y334263D01*
X479023Y334263D01*
X476598Y336688D01*
X476540Y336730D01*
X476488Y336779D01*
X476440Y336801D01*
X476398Y336832D01*
X476330Y336853D01*
X476264Y336883D01*
X476213Y336889D01*
X476163Y336904D01*
X476091Y336902D01*
X476020Y336910D01*
X475969Y336899D01*
X475917Y336898D01*
X475850Y336873D01*
X475780Y336858D01*
X475735Y336831D01*
X475686Y336813D01*
X475630Y336768D01*
X475569Y336732D01*
X475535Y336692D01*
X475494Y336659D01*
X475455Y336599D01*
X475409Y336545D01*
X475389Y336496D01*
X475361Y336453D01*
X475344Y336383D01*
X475317Y336317D01*
X475309Y336245D01*
X475301Y336214D01*
X475303Y336191D01*
X475298Y336150D01*
X475298Y324250D01*
X475310Y324179D01*
X475312Y324108D01*
X475330Y324059D01*
X475338Y324007D01*
X475372Y323944D01*
X475396Y323877D01*
X475429Y323836D01*
X475453Y323790D01*
X475505Y323741D01*
X475550Y323685D01*
X475594Y323657D01*
X475631Y323621D01*
X475696Y323591D01*
X475757Y323552D01*
X475807Y323539D01*
X475854Y323517D01*
X475926Y323509D01*
X475995Y323492D01*
X476047Y323496D01*
X476099Y323490D01*
X476169Y323505D01*
X476240Y323511D01*
X476288Y323531D01*
X476339Y323542D01*
X476401Y323579D01*
X476467Y323607D01*
X476523Y323652D01*
X476550Y323668D01*
X476566Y323686D01*
X476598Y323712D01*
X479023Y326137D01*
X481077Y326137D01*
X481077Y318262D01*
X481080Y318242D01*
X481078Y318223D01*
X481100Y318121D01*
X481117Y318019D01*
X481126Y318002D01*
X481130Y317982D01*
X481183Y317893D01*
X481232Y317802D01*
X481246Y317788D01*
X481256Y317771D01*
X481335Y317704D01*
X481410Y317633D01*
X481428Y317624D01*
X481443Y317611D01*
X481539Y317573D01*
X481633Y317529D01*
X481653Y317527D01*
X481671Y317519D01*
X481838Y317501D01*
X483362Y317501D01*
X483382Y317504D01*
G37*
%LPC*%
G36*
X636523Y674623D02*
X636523Y674623D01*
X636523Y684641D01*
X644334Y684641D01*
X644981Y684468D01*
X645560Y684133D01*
X646033Y683660D01*
X646368Y683081D01*
X646541Y682434D01*
X646541Y674623D01*
X636523Y674623D01*
G37*
%LPD*%
%LPC*%
G36*
X509523Y623823D02*
X509523Y623823D01*
X509523Y633841D01*
X517334Y633841D01*
X517981Y633668D01*
X518560Y633333D01*
X519033Y632860D01*
X519368Y632281D01*
X519541Y631634D01*
X519541Y623823D01*
X509523Y623823D01*
G37*
%LPD*%
%LPC*%
G36*
X611123Y623823D02*
X611123Y623823D01*
X611123Y633841D01*
X618934Y633841D01*
X619581Y633668D01*
X620160Y633333D01*
X620633Y632860D01*
X620968Y632281D01*
X621141Y631634D01*
X621141Y623823D01*
X611123Y623823D01*
G37*
%LPD*%
%LPC*%
G36*
X534923Y623823D02*
X534923Y623823D01*
X534923Y633841D01*
X542734Y633841D01*
X543381Y633668D01*
X543960Y633333D01*
X544433Y632860D01*
X544768Y632281D01*
X544941Y631634D01*
X544941Y623823D01*
X534923Y623823D01*
G37*
%LPD*%
%LPC*%
G36*
X623459Y674623D02*
X623459Y674623D01*
X623459Y682434D01*
X623632Y683081D01*
X623967Y683660D01*
X624440Y684133D01*
X625019Y684468D01*
X625666Y684641D01*
X633477Y684641D01*
X633477Y674623D01*
X623459Y674623D01*
G37*
%LPD*%
%LPC*%
G36*
X852059Y674623D02*
X852059Y674623D01*
X852059Y682434D01*
X852232Y683081D01*
X852567Y683660D01*
X853040Y684133D01*
X853619Y684468D01*
X854266Y684641D01*
X862077Y684641D01*
X862077Y674623D01*
X852059Y674623D01*
G37*
%LPD*%
%LPC*%
G36*
X636523Y661559D02*
X636523Y661559D01*
X636523Y671577D01*
X646541Y671577D01*
X646541Y663766D01*
X646368Y663119D01*
X646033Y662540D01*
X645560Y662067D01*
X644981Y661732D01*
X644334Y661559D01*
X636523Y661559D01*
G37*
%LPD*%
%LPC*%
G36*
X521859Y623823D02*
X521859Y623823D01*
X521859Y631634D01*
X522032Y632281D01*
X522367Y632860D01*
X522840Y633333D01*
X523419Y633668D01*
X524066Y633841D01*
X531877Y633841D01*
X531877Y623823D01*
X521859Y623823D01*
G37*
%LPD*%
%LPC*%
G36*
X496459Y623823D02*
X496459Y623823D01*
X496459Y631634D01*
X496632Y632281D01*
X496967Y632860D01*
X497440Y633333D01*
X498019Y633668D01*
X498666Y633841D01*
X506477Y633841D01*
X506477Y623823D01*
X496459Y623823D01*
G37*
%LPD*%
%LPC*%
G36*
X611123Y610759D02*
X611123Y610759D01*
X611123Y620777D01*
X621141Y620777D01*
X621141Y612966D01*
X620968Y612319D01*
X620633Y611740D01*
X620160Y611267D01*
X619581Y610932D01*
X618934Y610759D01*
X611123Y610759D01*
G37*
%LPD*%
%LPC*%
G36*
X534923Y610759D02*
X534923Y610759D01*
X534923Y620777D01*
X544941Y620777D01*
X544941Y612966D01*
X544768Y612319D01*
X544433Y611740D01*
X543960Y611267D01*
X543381Y610932D01*
X542734Y610759D01*
X534923Y610759D01*
G37*
%LPD*%
%LPC*%
G36*
X509523Y610759D02*
X509523Y610759D01*
X509523Y620777D01*
X519541Y620777D01*
X519541Y612966D01*
X519368Y612319D01*
X519033Y611740D01*
X518560Y611267D01*
X517981Y610932D01*
X517334Y610759D01*
X509523Y610759D01*
G37*
%LPD*%
%LPC*%
G36*
X103123Y661559D02*
X103123Y661559D01*
X103123Y671577D01*
X113141Y671577D01*
X113141Y663766D01*
X112968Y663119D01*
X112633Y662540D01*
X112160Y662067D01*
X111581Y661732D01*
X110934Y661559D01*
X103123Y661559D01*
G37*
%LPD*%
%LPC*%
G36*
X854266Y661559D02*
X854266Y661559D01*
X853619Y661732D01*
X853040Y662067D01*
X852567Y662540D01*
X852232Y663119D01*
X852059Y663766D01*
X852059Y671577D01*
X862077Y671577D01*
X862077Y661559D01*
X854266Y661559D01*
G37*
%LPD*%
%LPC*%
G36*
X92266Y661559D02*
X92266Y661559D01*
X91619Y661732D01*
X91040Y662067D01*
X90567Y662540D01*
X90232Y663119D01*
X90059Y663766D01*
X90059Y671577D01*
X100077Y671577D01*
X100077Y661559D01*
X92266Y661559D01*
G37*
%LPD*%
%LPC*%
G36*
X625666Y661559D02*
X625666Y661559D01*
X625019Y661732D01*
X624440Y662067D01*
X623967Y662540D01*
X623632Y663119D01*
X623459Y663766D01*
X623459Y671577D01*
X633477Y671577D01*
X633477Y661559D01*
X625666Y661559D01*
G37*
%LPD*%
%LPC*%
G36*
X600266Y610759D02*
X600266Y610759D01*
X599619Y610932D01*
X599040Y611267D01*
X598567Y611740D01*
X598232Y612319D01*
X598059Y612966D01*
X598059Y620777D01*
X608077Y620777D01*
X608077Y610759D01*
X600266Y610759D01*
G37*
%LPD*%
%LPC*%
G36*
X524066Y610759D02*
X524066Y610759D01*
X523419Y610932D01*
X522840Y611267D01*
X522367Y611740D01*
X522032Y612319D01*
X521859Y612966D01*
X521859Y620777D01*
X531877Y620777D01*
X531877Y610759D01*
X524066Y610759D01*
G37*
%LPD*%
%LPC*%
G36*
X498666Y610759D02*
X498666Y610759D01*
X498019Y610932D01*
X497440Y611267D01*
X496967Y611740D01*
X496632Y612319D01*
X496459Y612966D01*
X496459Y620777D01*
X506477Y620777D01*
X506477Y610759D01*
X498666Y610759D01*
G37*
%LPD*%
%LPC*%
G36*
X643923Y471423D02*
X643923Y471423D01*
X643923Y482103D01*
X645278Y481888D01*
X647118Y481290D01*
X648842Y480412D01*
X650407Y479275D01*
X651775Y477907D01*
X652912Y476342D01*
X653790Y474618D01*
X654388Y472778D01*
X654603Y471423D01*
X643923Y471423D01*
G37*
%LPD*%
%LPC*%
G36*
X643923Y468377D02*
X643923Y468377D01*
X654603Y468377D01*
X654388Y467022D01*
X653790Y465182D01*
X652912Y463458D01*
X651775Y461893D01*
X650407Y460525D01*
X648842Y459388D01*
X647118Y458510D01*
X645278Y457912D01*
X643923Y457697D01*
X643923Y468377D01*
G37*
%LPD*%
%LPC*%
G36*
X839723Y255523D02*
X839723Y255523D01*
X839723Y268599D01*
X840719Y268401D01*
X842291Y267750D01*
X843706Y266805D01*
X844909Y265602D01*
X845854Y264187D01*
X846505Y262615D01*
X846837Y260947D01*
X846837Y255523D01*
X839723Y255523D01*
G37*
%LPD*%
%LPC*%
G36*
X915923Y255523D02*
X915923Y255523D01*
X915923Y268599D01*
X916919Y268401D01*
X918491Y267750D01*
X919906Y266805D01*
X921109Y265602D01*
X922054Y264187D01*
X922705Y262615D01*
X923037Y260947D01*
X923037Y255523D01*
X915923Y255523D01*
G37*
%LPD*%
%LPC*%
G36*
X788923Y328677D02*
X788923Y328677D01*
X796037Y328677D01*
X796037Y323253D01*
X795705Y321585D01*
X795054Y320013D01*
X794109Y318598D01*
X792906Y317395D01*
X791491Y316450D01*
X789919Y315799D01*
X788923Y315601D01*
X788923Y328677D01*
G37*
%LPD*%
%LPC*%
G36*
X395223Y392177D02*
X395223Y392177D01*
X402337Y392177D01*
X402337Y386753D01*
X402005Y385085D01*
X401354Y383513D01*
X400409Y382098D01*
X399206Y380895D01*
X397791Y379950D01*
X396219Y379299D01*
X395223Y379101D01*
X395223Y392177D01*
G37*
%LPD*%
%LPC*%
G36*
X839723Y252477D02*
X839723Y252477D01*
X846837Y252477D01*
X846837Y247053D01*
X846505Y245385D01*
X845854Y243813D01*
X844909Y242398D01*
X843706Y241195D01*
X842291Y240250D01*
X840719Y239599D01*
X839723Y239401D01*
X839723Y252477D01*
G37*
%LPD*%
%LPC*%
G36*
X915923Y252477D02*
X915923Y252477D01*
X923037Y252477D01*
X923037Y247053D01*
X922705Y245385D01*
X922054Y243813D01*
X921109Y242398D01*
X919906Y241195D01*
X918491Y240250D01*
X916919Y239599D01*
X915923Y239401D01*
X915923Y252477D01*
G37*
%LPD*%
%LPC*%
G36*
X778763Y331723D02*
X778763Y331723D01*
X778763Y337147D01*
X779095Y338815D01*
X779746Y340387D01*
X780691Y341802D01*
X781894Y343005D01*
X783309Y343950D01*
X784881Y344601D01*
X785877Y344799D01*
X785877Y331723D01*
X778763Y331723D01*
G37*
%LPD*%
%LPC*%
G36*
X385063Y395223D02*
X385063Y395223D01*
X385063Y400647D01*
X385395Y402315D01*
X386046Y403887D01*
X386991Y405302D01*
X388194Y406505D01*
X389609Y407450D01*
X391181Y408101D01*
X392177Y408299D01*
X392177Y395223D01*
X385063Y395223D01*
G37*
%LPD*%
%LPC*%
G36*
X905763Y255523D02*
X905763Y255523D01*
X905763Y260947D01*
X906095Y262615D01*
X906746Y264187D01*
X907691Y265602D01*
X908894Y266805D01*
X910309Y267750D01*
X911881Y268401D01*
X912877Y268599D01*
X912877Y255523D01*
X905763Y255523D01*
G37*
%LPD*%
%LPC*%
G36*
X829563Y255523D02*
X829563Y255523D01*
X829563Y260947D01*
X829895Y262615D01*
X830546Y264187D01*
X831491Y265602D01*
X832694Y266805D01*
X834109Y267750D01*
X835681Y268401D01*
X836677Y268599D01*
X836677Y255523D01*
X829563Y255523D01*
G37*
%LPD*%
%LPC*%
G36*
X784881Y315799D02*
X784881Y315799D01*
X783309Y316450D01*
X781894Y317395D01*
X780691Y318598D01*
X779746Y320013D01*
X779095Y321585D01*
X778763Y323253D01*
X778763Y328677D01*
X785877Y328677D01*
X785877Y315601D01*
X784881Y315799D01*
G37*
%LPD*%
%LPC*%
G36*
X359431Y239599D02*
X359431Y239599D01*
X357859Y240250D01*
X356444Y241195D01*
X355241Y242398D01*
X354296Y243813D01*
X353645Y245385D01*
X353313Y247053D01*
X353313Y252477D01*
X360427Y252477D01*
X360427Y239401D01*
X359431Y239599D01*
G37*
%LPD*%
%LPC*%
G36*
X911881Y239599D02*
X911881Y239599D01*
X910309Y240250D01*
X908894Y241195D01*
X907691Y242398D01*
X906746Y243813D01*
X906095Y245385D01*
X905763Y247053D01*
X905763Y252477D01*
X912877Y252477D01*
X912877Y239401D01*
X911881Y239599D01*
G37*
%LPD*%
%LPC*%
G36*
X835681Y239599D02*
X835681Y239599D01*
X834109Y240250D01*
X832694Y241195D01*
X831491Y242398D01*
X830546Y243813D01*
X829895Y245385D01*
X829563Y247053D01*
X829563Y252477D01*
X836677Y252477D01*
X836677Y239401D01*
X835681Y239599D01*
G37*
%LPD*%
%LPC*%
G36*
X712723Y306323D02*
X712723Y306323D01*
X712723Y313437D01*
X714777Y313437D01*
X719837Y308377D01*
X719837Y306323D01*
X712723Y306323D01*
G37*
%LPD*%
%LPC*%
G36*
X179323Y306323D02*
X179323Y306323D01*
X179323Y313437D01*
X181377Y313437D01*
X186437Y308377D01*
X186437Y306323D01*
X179323Y306323D01*
G37*
%LPD*%
%LPC*%
G36*
X103123Y573023D02*
X103123Y573023D01*
X103123Y580137D01*
X105177Y580137D01*
X110237Y575077D01*
X110237Y573023D01*
X103123Y573023D01*
G37*
%LPD*%
%LPC*%
G36*
X169163Y306323D02*
X169163Y306323D01*
X169163Y308377D01*
X174223Y313437D01*
X176277Y313437D01*
X176277Y306323D01*
X169163Y306323D01*
G37*
%LPD*%
%LPC*%
G36*
X712723Y296163D02*
X712723Y296163D01*
X712723Y303277D01*
X719837Y303277D01*
X719837Y301223D01*
X714777Y296163D01*
X712723Y296163D01*
G37*
%LPD*%
%LPC*%
G36*
X179323Y296163D02*
X179323Y296163D01*
X179323Y303277D01*
X186437Y303277D01*
X186437Y301223D01*
X181377Y296163D01*
X179323Y296163D01*
G37*
%LPD*%
%LPC*%
G36*
X707623Y296163D02*
X707623Y296163D01*
X702563Y301223D01*
X702563Y303277D01*
X709677Y303277D01*
X709677Y296163D01*
X707623Y296163D01*
G37*
%LPD*%
%LPC*%
G36*
X174223Y296163D02*
X174223Y296163D01*
X169163Y301223D01*
X169163Y303277D01*
X176277Y303277D01*
X176277Y296163D01*
X174223Y296163D01*
G37*
%LPD*%
%LPC*%
G36*
X634999Y673099D02*
X634999Y673099D01*
X634999Y673101D01*
X635001Y673101D01*
X635001Y673099D01*
X634999Y673099D01*
G37*
%LPD*%
%LPC*%
G36*
X609599Y622299D02*
X609599Y622299D01*
X609599Y622301D01*
X609601Y622301D01*
X609601Y622299D01*
X609599Y622299D01*
G37*
%LPD*%
%LPC*%
G36*
X533399Y622299D02*
X533399Y622299D01*
X533399Y622301D01*
X533401Y622301D01*
X533401Y622299D01*
X533399Y622299D01*
G37*
%LPD*%
%LPC*%
G36*
X838199Y253999D02*
X838199Y253999D01*
X838199Y254001D01*
X838201Y254001D01*
X838201Y253999D01*
X838199Y253999D01*
G37*
%LPD*%
%LPC*%
G36*
X914399Y253999D02*
X914399Y253999D01*
X914399Y254001D01*
X914401Y254001D01*
X914401Y253999D01*
X914399Y253999D01*
G37*
%LPD*%
%LPC*%
G36*
X507999Y622299D02*
X507999Y622299D01*
X507999Y622301D01*
X508001Y622301D01*
X508001Y622299D01*
X507999Y622299D01*
G37*
%LPD*%
%LPC*%
G36*
X393699Y393699D02*
X393699Y393699D01*
X393699Y393701D01*
X393701Y393701D01*
X393701Y393699D01*
X393699Y393699D01*
G37*
%LPD*%
%LPC*%
G36*
X787399Y330199D02*
X787399Y330199D01*
X787399Y330201D01*
X787401Y330201D01*
X787401Y330199D01*
X787399Y330199D01*
G37*
%LPD*%
%LPC*%
G36*
X177799Y304799D02*
X177799Y304799D01*
X177799Y304801D01*
X177801Y304801D01*
X177801Y304799D01*
X177799Y304799D01*
G37*
%LPD*%
%LPC*%
G36*
X711199Y304799D02*
X711199Y304799D01*
X711199Y304801D01*
X711201Y304801D01*
X711201Y304799D01*
X711199Y304799D01*
G37*
%LPD*%
D10*
X234950Y52070D03*
X260350Y52070D03*
X285750Y52070D03*
X311150Y52070D03*
X336550Y52070D03*
X361950Y52070D03*
X387350Y52070D03*
X412750Y52070D03*
X438150Y52070D03*
X463550Y52070D03*
X488950Y52070D03*
X514350Y52070D03*
X539750Y52070D03*
X565150Y52070D03*
X590550Y52070D03*
X615950Y52070D03*
X641350Y52070D03*
X666750Y52070D03*
X692150Y52070D03*
X717550Y52070D03*
D11*
X249555Y184150D03*
X702945Y184150D03*
D12*
X863600Y622300D03*
X838200Y622300D03*
X812800Y622300D03*
X787400Y622300D03*
X762000Y622300D03*
X736600Y622300D03*
X711200Y622300D03*
X685800Y622300D03*
X660400Y622300D03*
X635000Y622300D03*
X609600Y622300D03*
X584200Y622300D03*
X558800Y622300D03*
X533400Y622300D03*
X508000Y622300D03*
X482600Y622300D03*
X457200Y622300D03*
X431800Y622300D03*
X406400Y622300D03*
X381000Y622300D03*
X355600Y622300D03*
X330200Y622300D03*
X304800Y622300D03*
X279400Y622300D03*
X254000Y622300D03*
X228600Y622300D03*
X203200Y622300D03*
X177800Y622300D03*
X152400Y622300D03*
X127000Y622300D03*
X101600Y622300D03*
X863600Y673100D03*
X838200Y673100D03*
X812800Y673100D03*
X787400Y673100D03*
X762000Y673100D03*
X736600Y673100D03*
X711200Y673100D03*
X685800Y673100D03*
X660400Y673100D03*
X635000Y673100D03*
X609600Y673100D03*
X584200Y673100D03*
X558800Y673100D03*
X533400Y673100D03*
X508000Y673100D03*
X482600Y673100D03*
X457200Y673100D03*
X431800Y673100D03*
X406400Y673100D03*
X381000Y673100D03*
X355600Y673100D03*
X330200Y673100D03*
X304800Y673100D03*
X279400Y673100D03*
X254000Y673100D03*
X228600Y673100D03*
X203200Y673100D03*
X177800Y673100D03*
X152400Y673100D03*
X127000Y673100D03*
X101600Y673100D03*
D13*
X514350Y266446D02*
X514350Y254254D01*
X539750Y254254D02*
X539750Y266446D01*
X666750Y266446D02*
X666750Y254254D01*
X666750Y330454D02*
X666750Y342646D01*
X565150Y266446D02*
X565150Y254254D01*
X590550Y254254D02*
X590550Y266446D01*
X641350Y266446D02*
X641350Y254254D01*
X615950Y254254D02*
X615950Y266446D01*
X641350Y330454D02*
X641350Y342646D01*
X615950Y342646D02*
X615950Y330454D01*
X590550Y330454D02*
X590550Y342646D01*
X565150Y342646D02*
X565150Y330454D01*
X539750Y330454D02*
X539750Y342646D01*
X514350Y342646D02*
X514350Y330454D01*
X209550Y260096D02*
X209550Y247904D01*
X234950Y247904D02*
X234950Y260096D01*
X361950Y260096D02*
X361950Y247904D01*
X361950Y324104D02*
X361950Y336296D01*
X260350Y260096D02*
X260350Y247904D01*
X285750Y247904D02*
X285750Y260096D01*
X336550Y260096D02*
X336550Y247904D01*
X311150Y247904D02*
X311150Y260096D01*
X336550Y324104D02*
X336550Y336296D01*
X311150Y336296D02*
X311150Y324104D01*
X285750Y324104D02*
X285750Y336296D01*
X260350Y336296D02*
X260350Y324104D01*
X234950Y324104D02*
X234950Y336296D01*
X209550Y336296D02*
X209550Y324104D01*
X736600Y260096D02*
X736600Y247904D01*
X762000Y247904D02*
X762000Y260096D01*
X889000Y260096D02*
X889000Y247904D01*
X914400Y247904D02*
X914400Y260096D01*
X787400Y260096D02*
X787400Y247904D01*
X812800Y247904D02*
X812800Y260096D01*
X863600Y260096D02*
X863600Y247904D01*
X838200Y247904D02*
X838200Y260096D01*
X914400Y324104D02*
X914400Y336296D01*
X889000Y336296D02*
X889000Y324104D01*
X863600Y324104D02*
X863600Y336296D01*
X838200Y336296D02*
X838200Y324104D01*
X812800Y324104D02*
X812800Y336296D01*
X787400Y336296D02*
X787400Y324104D01*
X762000Y324104D02*
X762000Y336296D01*
X736600Y336296D02*
X736600Y324104D01*
D14*
X774700Y228600D03*
X749300Y228600D03*
D15*
X642400Y469900D03*
X842400Y469900D03*
D16*
X177800Y330200D03*
X177800Y304800D03*
X482600Y342900D03*
X482600Y317500D03*
X711200Y330200D03*
X711200Y304800D03*
D13*
X63500Y387604D02*
X63500Y399796D01*
X88900Y399796D02*
X88900Y387604D01*
X114300Y387604D02*
X114300Y399796D01*
X139700Y399796D02*
X139700Y387604D01*
X165100Y387604D02*
X165100Y399796D01*
X190500Y399796D02*
X190500Y387604D01*
X215900Y387604D02*
X215900Y399796D01*
X241300Y399796D02*
X241300Y387604D01*
X266700Y387604D02*
X266700Y399796D01*
X292100Y399796D02*
X292100Y387604D01*
X317500Y387604D02*
X317500Y399796D01*
X342900Y399796D02*
X342900Y387604D01*
X368300Y387604D02*
X368300Y399796D01*
X393700Y399796D02*
X393700Y387604D01*
X393700Y540004D02*
X393700Y552196D01*
X368300Y552196D02*
X368300Y540004D01*
X342900Y540004D02*
X342900Y552196D01*
X317500Y552196D02*
X317500Y540004D01*
X292100Y540004D02*
X292100Y552196D01*
X266700Y552196D02*
X266700Y540004D01*
X241300Y540004D02*
X241300Y552196D01*
X215900Y552196D02*
X215900Y540004D01*
X190500Y540004D02*
X190500Y552196D01*
X165100Y552196D02*
X165100Y540004D01*
X139700Y540004D02*
X139700Y552196D01*
X114300Y552196D02*
X114300Y540004D01*
X88900Y540004D02*
X88900Y552196D01*
X63500Y552196D02*
X63500Y540004D01*
D17*
X894842Y508000D02*
X908558Y508000D01*
X908558Y533400D02*
X894842Y533400D01*
X894842Y558800D02*
X908558Y558800D01*
D18*
X469900Y508000D03*
X546100Y508000D03*
X469900Y546100D03*
X546100Y546100D03*
X76200Y571500D03*
X101600Y571500D03*
D17*
X107442Y317500D02*
X121158Y317500D01*
X121158Y292100D02*
X107442Y292100D01*
X107442Y266700D02*
X121158Y266700D01*
X894842Y457200D02*
X908558Y457200D01*
X908558Y431800D02*
X894842Y431800D01*
D19*
X317500Y393700D02*
X298450Y374650D01*
X298450Y247650D01*
X334963Y233363D02*
X336550Y231775D01*
X336550Y52070D01*
X873125Y269875D02*
X889000Y254000D01*
X873125Y269875D02*
X873125Y488950D01*
X749300Y612775D01*
X749300Y631825D01*
X746125Y635000D01*
X660400Y635000D01*
X660400Y622300D01*
X350838Y427038D02*
X317500Y393700D01*
X350838Y427038D02*
X350838Y523875D01*
X660400Y504825D02*
X668338Y496888D01*
X660400Y504825D02*
X660400Y622300D01*
D20*
X298450Y247650D03*
X334963Y233363D03*
X350838Y523875D03*
X668338Y496888D03*
D19*
X685800Y398463D02*
X669925Y382588D01*
X685800Y398463D02*
X685800Y622300D01*
X381000Y109538D02*
X382588Y107950D01*
X381000Y109538D02*
X381000Y376238D01*
D20*
X669925Y382588D03*
X382588Y107950D03*
X381000Y376238D03*
D19*
X373063Y388938D02*
X368300Y393700D01*
X373063Y388938D02*
X373063Y187325D01*
X376238Y184150D01*
X376238Y112713D01*
X361950Y98425D01*
X361950Y52070D01*
X711200Y508000D02*
X711200Y622300D01*
X368300Y484188D02*
X366713Y485775D01*
X368300Y484188D02*
X368300Y393700D01*
D20*
X711200Y508000D03*
X366713Y485775D03*
D19*
X719138Y523875D02*
X736600Y541338D01*
X736600Y622300D01*
X427038Y131763D02*
X420688Y125413D01*
X427038Y131763D02*
X427038Y296863D01*
X428625Y298450D01*
X428625Y385763D01*
X403225Y411163D02*
X393700Y420688D01*
X393700Y546100D01*
D20*
X719138Y523875D03*
X420688Y125413D03*
X428625Y385763D03*
X403225Y411163D03*
D19*
X368300Y546100D02*
X412750Y590550D01*
X392113Y57150D02*
X387350Y52388D01*
X392113Y57150D02*
X392113Y117475D01*
X396875Y122238D01*
X396875Y165100D01*
X277813Y161925D02*
X273050Y161925D01*
X263525Y152400D01*
X198438Y152400D01*
X198438Y366713D01*
X174625Y390525D01*
X174625Y517525D01*
X387350Y52388D02*
X387350Y52070D01*
D20*
X412750Y590550D03*
X396875Y165100D03*
X277813Y161925D03*
X174625Y517525D03*
D19*
X342900Y546100D02*
X374650Y577850D01*
X374650Y582613D01*
X404813Y114300D02*
X411163Y107950D01*
X404813Y114300D02*
X404813Y252413D01*
X547688Y276225D02*
X574675Y303213D01*
X574675Y582613D01*
D20*
X374650Y582613D03*
X411163Y107950D03*
X404813Y252413D03*
X547688Y276225D03*
X574675Y582613D03*
D19*
X412750Y482600D02*
X401638Y493713D01*
X412750Y482600D02*
X412750Y117475D01*
X419100Y111125D01*
X419100Y104775D01*
X412750Y98425D01*
X412750Y52070D01*
X403225Y541338D02*
X436563Y574675D01*
X403225Y541338D02*
X403225Y493713D01*
X401638Y493713D01*
D20*
X401638Y493713D03*
X436563Y574675D03*
D19*
X293688Y547688D02*
X292100Y546100D01*
X293688Y547688D02*
X293688Y588963D01*
X317500Y612775D01*
X317500Y631825D01*
X346075Y660400D01*
X441325Y660400D01*
X444500Y663575D01*
X444500Y682625D01*
X455613Y693738D01*
X877888Y693738D01*
X877888Y661988D01*
X838200Y622300D01*
X623888Y128588D02*
X627063Y125413D01*
X623888Y128588D02*
X623888Y225425D01*
X628650Y230188D01*
X628650Y541338D01*
X635000Y547688D01*
D20*
X627063Y125413D03*
X635000Y547688D03*
D21*
X101600Y571500D02*
X93663Y579438D01*
X93663Y604838D01*
X87313Y611188D01*
X87313Y658813D01*
X101600Y673100D01*
X393700Y282575D02*
X390525Y279400D01*
X393700Y323850D02*
X393700Y393700D01*
X393700Y323850D02*
X393700Y282575D01*
X609600Y622300D02*
X635000Y647700D01*
X635000Y673100D01*
X849313Y687388D02*
X863600Y673100D01*
X849313Y687388D02*
X635000Y687388D01*
X635000Y673100D01*
X838200Y254000D02*
X855663Y236538D01*
X914400Y236538D01*
X914400Y254000D01*
X801688Y315913D02*
X787400Y330200D01*
X801688Y315913D02*
X801688Y217488D01*
X817563Y201613D01*
X836613Y201613D01*
X836613Y254000D01*
X838200Y254000D01*
X641350Y107950D02*
X641350Y52070D01*
X655638Y457200D02*
X642938Y469900D01*
X655638Y457200D02*
X655638Y274638D01*
X666750Y263525D01*
X666750Y260350D01*
X642938Y469900D02*
X642400Y469900D01*
X641350Y107950D02*
X665163Y107950D01*
X665163Y260350D01*
X666750Y260350D01*
X614363Y615950D02*
X609600Y620713D01*
X614363Y615950D02*
X614363Y476250D01*
X609600Y620713D02*
X609600Y622300D01*
X396875Y323850D02*
X393700Y323850D01*
D20*
X390525Y279400D03*
X641350Y107950D03*
X614363Y476250D03*
X396875Y323850D03*
D21*
X695325Y314325D02*
X711200Y330200D01*
X695325Y314325D02*
X695325Y309563D01*
X514350Y309563D02*
X514350Y336550D01*
X546100Y508000D02*
X546100Y546100D01*
X546100Y547688D02*
X558800Y560388D01*
X558800Y622300D01*
X546100Y547688D02*
X546100Y546100D01*
X584200Y622300D02*
X609600Y647700D01*
X609600Y673100D01*
X546100Y508000D02*
X546100Y357188D01*
X76200Y571500D02*
X63500Y558800D01*
X63500Y546100D01*
X325438Y109538D02*
X327025Y107950D01*
X325438Y109538D02*
X325438Y268288D01*
X307975Y285750D01*
X217488Y285750D02*
X209550Y293688D01*
X209550Y330200D01*
D20*
X695325Y309563D03*
X514350Y309563D03*
X546100Y357188D03*
X327025Y107950D03*
X307975Y285750D03*
X217488Y285750D03*
D19*
X141288Y436563D02*
X127000Y450850D01*
X127000Y622300D01*
X458788Y57150D02*
X463550Y52388D01*
X458788Y57150D02*
X458788Y214313D01*
X260350Y234950D02*
X244475Y250825D01*
X244475Y263525D01*
X227013Y280988D01*
X227013Y298450D01*
X228600Y300038D01*
X228600Y317500D01*
X225425Y320675D01*
X225425Y352425D01*
X266700Y393700D01*
X463550Y52388D02*
X463550Y52070D01*
D20*
X141288Y436563D03*
X458788Y214313D03*
X260350Y234950D03*
D19*
X241300Y393700D02*
X225425Y409575D01*
X225425Y603250D01*
X215900Y612775D01*
X215900Y631825D01*
X212725Y635000D01*
X152400Y635000D01*
X152400Y622300D01*
X493713Y223838D02*
X496888Y220663D01*
X496888Y117475D01*
X488950Y109538D01*
X323850Y354013D02*
X306388Y371475D01*
X323850Y354013D02*
X323850Y323850D01*
X436563Y309563D02*
X455613Y290513D01*
X455613Y260350D01*
X493713Y222250D01*
X493713Y223838D01*
D20*
X493713Y223838D03*
X488950Y109538D03*
X306388Y371475D03*
X323850Y323850D03*
X436563Y309563D03*
D19*
X215900Y393700D02*
X211138Y398463D01*
X211138Y506413D01*
X177800Y539750D01*
X177800Y622300D01*
X493713Y57150D02*
X488950Y52388D01*
X493713Y57150D02*
X493713Y103188D01*
X501650Y111125D01*
X501650Y279400D01*
X220663Y303213D02*
X220663Y388938D01*
X215900Y393700D01*
X488950Y52388D02*
X488950Y52070D01*
D20*
X501650Y279400D03*
X220663Y303213D03*
D19*
X468313Y339725D02*
X471488Y336550D01*
X471488Y266700D01*
X522288Y252413D02*
X522288Y120650D01*
X522288Y252413D02*
X514350Y260350D01*
D20*
X468313Y339725D03*
X471488Y266700D03*
X522288Y120650D03*
D19*
X460375Y344488D02*
X457200Y347663D01*
X460375Y344488D02*
X460375Y266700D01*
X490538Y236538D01*
X541338Y236538D02*
X565150Y260350D01*
X514350Y236538D02*
X514350Y52070D01*
D20*
X457200Y347663D03*
X490538Y236538D03*
X541338Y236538D03*
X514350Y236538D03*
D19*
X449263Y352425D02*
X446088Y355600D01*
X449263Y352425D02*
X449263Y314325D01*
X611188Y295275D02*
X615950Y290513D01*
X615950Y260350D01*
X611188Y255588D02*
X611188Y120650D01*
X611188Y255588D02*
X615950Y260350D01*
D20*
X446088Y355600D03*
X449263Y314325D03*
X611188Y295275D03*
X611188Y120650D03*
D19*
X539750Y260350D02*
X539750Y317500D01*
X555625Y333375D01*
X555625Y439738D01*
X217488Y522288D02*
X203200Y536575D01*
X203200Y622300D01*
D20*
X555625Y439738D03*
X217488Y522288D03*
D19*
X498475Y303213D02*
X515938Y285750D01*
X498475Y303213D02*
X498475Y381000D01*
X276225Y449263D02*
X230188Y495300D01*
X230188Y620713D01*
X228600Y622300D01*
D20*
X515938Y285750D03*
X498475Y381000D03*
X276225Y449263D03*
D19*
X530225Y292100D02*
X531813Y290513D01*
X530225Y292100D02*
X530225Y442913D01*
X284163Y465138D02*
X254000Y495300D01*
X254000Y622300D01*
D20*
X531813Y290513D03*
X530225Y442913D03*
X284163Y465138D03*
D19*
X114300Y393700D02*
X100013Y407988D01*
X100013Y558800D01*
X87313Y571500D01*
X87313Y593725D01*
X80963Y600075D01*
X80963Y676275D01*
X92075Y687388D01*
X266700Y687388D01*
X266700Y638175D01*
X279400Y625475D01*
X279400Y622300D01*
X539750Y144463D02*
X539750Y52070D01*
X131763Y257175D02*
X131763Y376238D01*
X114300Y393700D01*
D20*
X539750Y144463D03*
X131763Y257175D03*
D19*
X284163Y596900D02*
X304800Y617538D01*
X304800Y622300D01*
X547688Y125413D02*
X557213Y115888D01*
X547688Y125413D02*
X547688Y169863D01*
X488950Y169863D02*
X481013Y161925D01*
X481013Y149225D01*
X192088Y147638D02*
X149225Y190500D01*
X149225Y536575D01*
X139700Y546100D01*
D20*
X284163Y596900D03*
X557213Y115888D03*
X547688Y169863D03*
X488950Y169863D03*
X481013Y149225D03*
X192088Y147638D03*
D19*
X309563Y501650D02*
X330200Y522288D01*
X330200Y622300D01*
X565150Y192088D02*
X565150Y52070D01*
X190500Y219075D02*
X155575Y254000D01*
X155575Y536575D01*
X165100Y546100D01*
D20*
X309563Y501650D03*
X565150Y192088D03*
X190500Y219075D03*
D19*
X241300Y546100D02*
X241300Y636588D01*
X693738Y539750D02*
X703263Y530225D01*
X703263Y423863D01*
X725488Y401638D01*
X725488Y287338D01*
X693738Y255588D01*
X595313Y228600D02*
X593725Y227013D01*
X593725Y106363D01*
D20*
X241300Y636588D03*
X693738Y539750D03*
X693738Y255588D03*
X595313Y228600D03*
X593725Y106363D03*
D19*
X360363Y581025D02*
X381000Y601663D01*
X381000Y622300D01*
X585788Y57150D02*
X590550Y52388D01*
X585788Y57150D02*
X585788Y192088D01*
X301625Y219075D02*
X276225Y244475D01*
X276225Y358775D01*
X301625Y384175D01*
X301625Y581025D01*
X590550Y52388D02*
X590550Y52070D01*
D20*
X360363Y581025D03*
X585788Y192088D03*
X301625Y219075D03*
X301625Y581025D03*
D19*
X631825Y136525D02*
X642938Y125413D01*
X631825Y136525D02*
X631825Y144463D01*
X533400Y153988D02*
X527050Y160338D01*
X527050Y284163D01*
X523875Y287338D01*
X523875Y325438D01*
X525463Y327025D01*
X525463Y436563D01*
X522288Y439738D01*
X522288Y450850D01*
X474663Y498475D01*
X452438Y498475D01*
X452438Y606425D01*
D20*
X642938Y125413D03*
X631825Y144463D03*
X533400Y153988D03*
X452438Y606425D03*
D19*
X641350Y336550D02*
X649288Y328613D01*
X649288Y271463D01*
X655638Y265113D01*
X655638Y125413D01*
X690563Y115888D02*
X692150Y114300D01*
X692150Y52070D01*
D20*
X655638Y125413D03*
X690563Y115888D03*
D19*
X747713Y590550D02*
X744538Y593725D01*
X747713Y590550D02*
X747713Y284163D01*
X727075Y263525D01*
X727075Y204788D01*
X735013Y196850D01*
X735013Y128588D01*
X727075Y120650D01*
X727075Y107950D01*
D20*
X744538Y593725D03*
X727075Y107950D03*
D19*
X666750Y336550D02*
X661988Y341313D01*
X661988Y492125D01*
X642938Y511175D01*
X642938Y596900D01*
D20*
X642938Y596900D03*
D21*
X271463Y134938D02*
X234950Y98425D01*
X234950Y52070D01*
D20*
X271463Y134938D03*
D19*
X615950Y336550D02*
X623888Y344488D01*
X623888Y588963D01*
X647700Y612775D01*
X647700Y631825D01*
X674688Y658813D01*
X838200Y658813D01*
X838200Y673100D01*
X787400Y355600D02*
X812800Y330200D01*
X368300Y149225D02*
X344488Y125413D01*
X368300Y149225D02*
X368300Y180975D01*
X534988Y184150D02*
X581025Y230188D01*
X581025Y327025D01*
X590550Y336550D01*
D20*
X787400Y355600D03*
X344488Y125413D03*
X368300Y180975D03*
X534988Y184150D03*
D19*
X339725Y333375D02*
X336550Y330200D01*
X339725Y333375D02*
X339725Y368300D01*
X563563Y366713D02*
X565150Y365125D01*
X565150Y336550D01*
D20*
X339725Y368300D03*
X563563Y366713D03*
D19*
X285750Y330200D02*
X285750Y254000D01*
X349250Y371475D02*
X350838Y373063D01*
X349250Y371475D02*
X349250Y266700D01*
X434975Y55563D02*
X438150Y52388D01*
X434975Y55563D02*
X434975Y233363D01*
X438150Y52388D02*
X438150Y52070D01*
D20*
X350838Y373063D03*
X349250Y266700D03*
X434975Y233363D03*
D19*
X244475Y244475D02*
X234950Y254000D01*
X244475Y244475D02*
X244475Y234950D01*
X285750Y193675D01*
X285750Y52070D01*
X336550Y254000D02*
X341313Y258763D01*
X341313Y296863D01*
X420688Y301625D02*
X420688Y547688D01*
X444500Y571500D01*
X444500Y631825D01*
X468313Y655638D01*
X533400Y655638D01*
X533400Y673100D01*
D20*
X341313Y296863D03*
X420688Y301625D03*
D19*
X361950Y330200D02*
X358775Y333375D01*
X358775Y555625D01*
X412750Y609600D01*
X419100Y609600D01*
X419100Y631825D01*
X447675Y660400D01*
X469900Y660400D01*
X469900Y682625D01*
X474663Y687388D01*
X558800Y687388D01*
X558800Y673100D01*
X736600Y241300D02*
X749300Y228600D01*
X736600Y241300D02*
X736600Y254000D01*
X762000Y241300D02*
X774700Y228600D01*
X762000Y241300D02*
X762000Y254000D01*
X292100Y393700D02*
X292100Y527050D01*
X276225Y542925D01*
X276225Y603250D01*
X266700Y612775D01*
X266700Y631825D01*
X254000Y644525D01*
X101600Y644525D01*
X101600Y622300D01*
X487363Y214313D02*
X473075Y200025D01*
X473075Y107950D01*
X493713Y346075D02*
X447675Y392113D01*
X493713Y346075D02*
X493713Y273050D01*
X496888Y269875D01*
X496888Y263525D01*
X485775Y252413D01*
X452438Y252413D02*
X485775Y219075D01*
X485775Y214313D01*
X487363Y214313D01*
D20*
X487363Y214313D03*
X473075Y107950D03*
X447675Y392113D03*
X485775Y252413D03*
X452438Y252413D03*
D19*
X822325Y288925D02*
X863600Y330200D01*
X822325Y288925D02*
X822325Y211138D01*
X708025Y144463D02*
X671513Y107950D01*
X671513Y57150D01*
X666750Y52388D01*
X666750Y52070D01*
X303213Y134938D02*
X293688Y125413D01*
X303213Y134938D02*
X303213Y169863D01*
D20*
X822325Y211138D03*
X708025Y144463D03*
X293688Y125413D03*
X303213Y169863D03*
D19*
X260350Y254000D02*
X242888Y271463D01*
X242888Y311150D01*
X833438Y334963D02*
X838200Y330200D01*
X833438Y334963D02*
X833438Y374650D01*
X514350Y447675D02*
X511175Y447675D01*
X492125Y466725D01*
X431800Y466725D01*
X431800Y461963D01*
X284163Y428625D02*
X276225Y420688D01*
X276225Y365125D01*
X244475Y333375D01*
X244475Y312738D01*
X242888Y311150D01*
D20*
X242888Y311150D03*
X833438Y374650D03*
X514350Y447675D03*
X431800Y461963D03*
X284163Y428625D03*
D19*
X234950Y330200D02*
X234950Y295275D01*
D20*
X234950Y295275D03*
D19*
X812800Y254000D02*
X817563Y258763D01*
X817563Y315913D01*
X825500Y323850D01*
X825500Y454025D01*
X841375Y469900D01*
X842400Y469900D01*
X603250Y115888D02*
X611188Y107950D01*
X603250Y115888D02*
X603250Y398463D01*
D20*
X611188Y107950D03*
X603250Y398463D03*
D19*
X677863Y358775D02*
X717550Y398463D01*
X677863Y358775D02*
X677863Y231775D01*
X619125Y231775D02*
X619125Y55563D01*
X615950Y52388D01*
X615950Y52070D01*
D20*
X717550Y398463D03*
X677863Y231775D03*
X619125Y231775D03*
D19*
X469900Y508000D02*
X460375Y517525D01*
X460375Y603250D01*
X469900Y612775D01*
X469900Y631825D01*
X488950Y650875D01*
X584200Y650875D01*
X584200Y673100D01*
X717550Y363538D02*
X685800Y331788D01*
X685800Y222250D01*
X674688Y211138D01*
X315913Y192088D02*
X311150Y187325D01*
X311150Y52070D01*
D20*
X717550Y363538D03*
X674688Y211138D03*
X315913Y192088D03*
D19*
X388938Y236538D02*
X396875Y244475D01*
X388938Y236538D02*
X388938Y125413D01*
D20*
X396875Y244475D03*
X388938Y125413D03*
M02*
