G04 EAGLE Gerber RS-274X export*
G75*
%MOMM*%
%FSLAX34Y34*%
%LPD*%
%INBoard Outline*%
%IPPOS*%
%AMOC8*
5,1,8,0,0,1.08239X$1,22.5*%
G01*
%ADD10C,0.127000*%
%ADD11C,0.000000*%
%ADD12C,0.254000*%


D10*
X212090Y124460D02*
X212090Y12700D01*
X212094Y12393D01*
X212105Y12086D01*
X212123Y11780D01*
X212149Y11474D01*
X212183Y11169D01*
X212223Y10865D01*
X212271Y10562D01*
X212327Y10260D01*
X212389Y9960D01*
X212459Y9661D01*
X212536Y9364D01*
X212620Y9068D01*
X212712Y8775D01*
X212810Y8485D01*
X212915Y8197D01*
X213028Y7911D01*
X213147Y7628D01*
X213273Y7348D01*
X213405Y7071D01*
X213545Y6798D01*
X213691Y6528D01*
X213843Y6262D01*
X214002Y5999D01*
X214167Y5740D01*
X214338Y5486D01*
X214515Y5235D01*
X214699Y4989D01*
X214888Y4747D01*
X215083Y4511D01*
X215284Y4278D01*
X215490Y4051D01*
X215702Y3829D01*
X215919Y3612D01*
X216141Y3400D01*
X216368Y3194D01*
X216601Y2993D01*
X216837Y2798D01*
X217079Y2609D01*
X217325Y2425D01*
X217576Y2248D01*
X217830Y2077D01*
X218089Y1912D01*
X218352Y1753D01*
X218618Y1601D01*
X218888Y1455D01*
X219161Y1315D01*
X219438Y1183D01*
X219718Y1057D01*
X220001Y938D01*
X220287Y825D01*
X220575Y720D01*
X220865Y622D01*
X221158Y530D01*
X221454Y446D01*
X221751Y369D01*
X222050Y299D01*
X222350Y237D01*
X222652Y181D01*
X222955Y133D01*
X223259Y93D01*
X223564Y59D01*
X223870Y33D01*
X224176Y15D01*
X224483Y4D01*
X224790Y0D01*
X727710Y0D01*
X728017Y4D01*
X728324Y15D01*
X728630Y33D01*
X728936Y59D01*
X729241Y93D01*
X729545Y133D01*
X729848Y181D01*
X730150Y237D01*
X730450Y299D01*
X730749Y369D01*
X731046Y446D01*
X731342Y530D01*
X731635Y622D01*
X731925Y720D01*
X732213Y825D01*
X732499Y938D01*
X732782Y1057D01*
X733062Y1183D01*
X733339Y1315D01*
X733612Y1455D01*
X733882Y1601D01*
X734148Y1753D01*
X734411Y1912D01*
X734670Y2077D01*
X734924Y2248D01*
X735175Y2425D01*
X735421Y2609D01*
X735663Y2798D01*
X735899Y2993D01*
X736132Y3194D01*
X736359Y3400D01*
X736581Y3612D01*
X736798Y3829D01*
X737010Y4051D01*
X737216Y4278D01*
X737417Y4511D01*
X737612Y4747D01*
X737801Y4989D01*
X737985Y5235D01*
X738162Y5486D01*
X738333Y5740D01*
X738498Y5999D01*
X738657Y6262D01*
X738809Y6528D01*
X738955Y6798D01*
X739095Y7071D01*
X739227Y7348D01*
X739353Y7628D01*
X739472Y7911D01*
X739585Y8197D01*
X739690Y8485D01*
X739788Y8775D01*
X739880Y9068D01*
X739964Y9364D01*
X740041Y9661D01*
X740111Y9960D01*
X740173Y10260D01*
X740229Y10562D01*
X740277Y10865D01*
X740317Y11169D01*
X740351Y11474D01*
X740377Y11780D01*
X740395Y12086D01*
X740406Y12393D01*
X740410Y12700D01*
X740410Y124460D01*
X740412Y124560D01*
X740418Y124659D01*
X740428Y124759D01*
X740441Y124857D01*
X740459Y124956D01*
X740480Y125053D01*
X740505Y125149D01*
X740534Y125245D01*
X740567Y125339D01*
X740603Y125432D01*
X740643Y125523D01*
X740687Y125613D01*
X740734Y125701D01*
X740784Y125787D01*
X740838Y125871D01*
X740895Y125953D01*
X740955Y126032D01*
X741019Y126110D01*
X741085Y126184D01*
X741154Y126256D01*
X741226Y126325D01*
X741300Y126391D01*
X741378Y126455D01*
X741457Y126515D01*
X741539Y126572D01*
X741623Y126626D01*
X741709Y126676D01*
X741797Y126723D01*
X741887Y126767D01*
X741978Y126807D01*
X742071Y126843D01*
X742165Y126876D01*
X742261Y126905D01*
X742357Y126930D01*
X742454Y126951D01*
X742553Y126969D01*
X742651Y126982D01*
X742751Y126992D01*
X742850Y126998D01*
X742950Y127000D01*
X958850Y127000D01*
X958850Y711200D01*
X-6350Y711200D01*
X-6350Y127000D01*
X209550Y127000D01*
X209650Y126998D01*
X209749Y126992D01*
X209849Y126982D01*
X209947Y126969D01*
X210046Y126951D01*
X210143Y126930D01*
X210239Y126905D01*
X210335Y126876D01*
X210429Y126843D01*
X210522Y126807D01*
X210613Y126767D01*
X210703Y126723D01*
X210791Y126676D01*
X210877Y126626D01*
X210961Y126572D01*
X211043Y126515D01*
X211122Y126455D01*
X211200Y126391D01*
X211274Y126325D01*
X211346Y126256D01*
X211415Y126184D01*
X211481Y126110D01*
X211545Y126032D01*
X211605Y125953D01*
X211662Y125871D01*
X211716Y125787D01*
X211766Y125701D01*
X211813Y125613D01*
X211857Y125523D01*
X211897Y125432D01*
X211933Y125339D01*
X211966Y125245D01*
X211995Y125149D01*
X212020Y125053D01*
X212041Y124956D01*
X212059Y124857D01*
X212072Y124759D01*
X212082Y124659D01*
X212088Y124560D01*
X212090Y124460D01*
D11*
X441325Y425450D02*
X441336Y426307D01*
X441367Y427164D01*
X441420Y428019D01*
X441493Y428873D01*
X441588Y429725D01*
X441703Y430575D01*
X441839Y431421D01*
X441996Y432264D01*
X442174Y433102D01*
X442372Y433936D01*
X442590Y434765D01*
X442829Y435588D01*
X443088Y436405D01*
X443367Y437216D01*
X443665Y438019D01*
X443984Y438815D01*
X444321Y439603D01*
X444678Y440382D01*
X445054Y441153D01*
X445449Y441914D01*
X445862Y442664D01*
X446294Y443405D01*
X446743Y444135D01*
X447211Y444853D01*
X447696Y445560D01*
X448198Y446255D01*
X448717Y446937D01*
X449253Y447606D01*
X449804Y448262D01*
X450372Y448904D01*
X450956Y449532D01*
X451554Y450146D01*
X452168Y450744D01*
X452796Y451328D01*
X453438Y451896D01*
X454094Y452447D01*
X454763Y452983D01*
X455445Y453502D01*
X456140Y454004D01*
X456847Y454489D01*
X457565Y454957D01*
X458295Y455406D01*
X459036Y455838D01*
X459786Y456251D01*
X460547Y456646D01*
X461318Y457022D01*
X462097Y457379D01*
X462885Y457716D01*
X463681Y458035D01*
X464484Y458333D01*
X465295Y458612D01*
X466112Y458871D01*
X466935Y459110D01*
X467764Y459328D01*
X468598Y459526D01*
X469436Y459704D01*
X470279Y459861D01*
X471125Y459997D01*
X471975Y460112D01*
X472827Y460207D01*
X473681Y460280D01*
X474536Y460333D01*
X475393Y460364D01*
X476250Y460375D01*
X477107Y460364D01*
X477964Y460333D01*
X478819Y460280D01*
X479673Y460207D01*
X480525Y460112D01*
X481375Y459997D01*
X482221Y459861D01*
X483064Y459704D01*
X483902Y459526D01*
X484736Y459328D01*
X485565Y459110D01*
X486388Y458871D01*
X487205Y458612D01*
X488016Y458333D01*
X488819Y458035D01*
X489615Y457716D01*
X490403Y457379D01*
X491182Y457022D01*
X491953Y456646D01*
X492714Y456251D01*
X493464Y455838D01*
X494205Y455406D01*
X494935Y454957D01*
X495653Y454489D01*
X496360Y454004D01*
X497055Y453502D01*
X497737Y452983D01*
X498406Y452447D01*
X499062Y451896D01*
X499704Y451328D01*
X500332Y450744D01*
X500946Y450146D01*
X501544Y449532D01*
X502128Y448904D01*
X502696Y448262D01*
X503247Y447606D01*
X503783Y446937D01*
X504302Y446255D01*
X504804Y445560D01*
X505289Y444853D01*
X505757Y444135D01*
X506206Y443405D01*
X506638Y442664D01*
X507051Y441914D01*
X507446Y441153D01*
X507822Y440382D01*
X508179Y439603D01*
X508516Y438815D01*
X508835Y438019D01*
X509133Y437216D01*
X509412Y436405D01*
X509671Y435588D01*
X509910Y434765D01*
X510128Y433936D01*
X510326Y433102D01*
X510504Y432264D01*
X510661Y431421D01*
X510797Y430575D01*
X510912Y429725D01*
X511007Y428873D01*
X511080Y428019D01*
X511133Y427164D01*
X511164Y426307D01*
X511175Y425450D01*
X511164Y424593D01*
X511133Y423736D01*
X511080Y422881D01*
X511007Y422027D01*
X510912Y421175D01*
X510797Y420325D01*
X510661Y419479D01*
X510504Y418636D01*
X510326Y417798D01*
X510128Y416964D01*
X509910Y416135D01*
X509671Y415312D01*
X509412Y414495D01*
X509133Y413684D01*
X508835Y412881D01*
X508516Y412085D01*
X508179Y411297D01*
X507822Y410518D01*
X507446Y409747D01*
X507051Y408986D01*
X506638Y408236D01*
X506206Y407495D01*
X505757Y406765D01*
X505289Y406047D01*
X504804Y405340D01*
X504302Y404645D01*
X503783Y403963D01*
X503247Y403294D01*
X502696Y402638D01*
X502128Y401996D01*
X501544Y401368D01*
X500946Y400754D01*
X500332Y400156D01*
X499704Y399572D01*
X499062Y399004D01*
X498406Y398453D01*
X497737Y397917D01*
X497055Y397398D01*
X496360Y396896D01*
X495653Y396411D01*
X494935Y395943D01*
X494205Y395494D01*
X493464Y395062D01*
X492714Y394649D01*
X491953Y394254D01*
X491182Y393878D01*
X490403Y393521D01*
X489615Y393184D01*
X488819Y392865D01*
X488016Y392567D01*
X487205Y392288D01*
X486388Y392029D01*
X485565Y391790D01*
X484736Y391572D01*
X483902Y391374D01*
X483064Y391196D01*
X482221Y391039D01*
X481375Y390903D01*
X480525Y390788D01*
X479673Y390693D01*
X478819Y390620D01*
X477964Y390567D01*
X477107Y390536D01*
X476250Y390525D01*
X475393Y390536D01*
X474536Y390567D01*
X473681Y390620D01*
X472827Y390693D01*
X471975Y390788D01*
X471125Y390903D01*
X470279Y391039D01*
X469436Y391196D01*
X468598Y391374D01*
X467764Y391572D01*
X466935Y391790D01*
X466112Y392029D01*
X465295Y392288D01*
X464484Y392567D01*
X463681Y392865D01*
X462885Y393184D01*
X462097Y393521D01*
X461318Y393878D01*
X460547Y394254D01*
X459786Y394649D01*
X459036Y395062D01*
X458295Y395494D01*
X457565Y395943D01*
X456847Y396411D01*
X456140Y396896D01*
X455445Y397398D01*
X454763Y397917D01*
X454094Y398453D01*
X453438Y399004D01*
X452796Y399572D01*
X452168Y400156D01*
X451554Y400754D01*
X450956Y401368D01*
X450372Y401996D01*
X449804Y402638D01*
X449253Y403294D01*
X448717Y403963D01*
X448198Y404645D01*
X447696Y405340D01*
X447211Y406047D01*
X446743Y406765D01*
X446294Y407495D01*
X445862Y408236D01*
X445449Y408986D01*
X445054Y409747D01*
X444678Y410518D01*
X444321Y411297D01*
X443984Y412085D01*
X443665Y412881D01*
X443367Y413684D01*
X443088Y414495D01*
X442829Y415312D01*
X442590Y416135D01*
X442372Y416964D01*
X442174Y417798D01*
X441996Y418636D01*
X441839Y419479D01*
X441703Y420325D01*
X441588Y421175D01*
X441493Y422027D01*
X441420Y422881D01*
X441367Y423736D01*
X441336Y424593D01*
X441325Y425450D01*
D12*
X-6350Y127000D02*
X209550Y127000D01*
X209771Y126990D01*
X209991Y126961D01*
X210207Y126913D01*
X210419Y126847D01*
X210623Y126762D01*
X210820Y126660D01*
X211007Y126541D01*
X211183Y126406D01*
X211346Y126256D01*
X211496Y126093D01*
X211631Y125917D01*
X211750Y125730D01*
X211852Y125533D01*
X211937Y125329D01*
X212003Y125117D01*
X212051Y124901D01*
X212080Y124681D01*
X212090Y124460D01*
X212090Y12700D01*
X212138Y11593D01*
X212283Y10495D01*
X212523Y9413D01*
X212856Y8356D01*
X213280Y7333D01*
X213791Y6350D01*
X214387Y5416D01*
X215061Y4537D01*
X215810Y3720D01*
X216627Y2971D01*
X217506Y2297D01*
X218440Y1701D01*
X219423Y1190D01*
X220446Y766D01*
X221503Y433D01*
X222585Y193D01*
X223683Y48D01*
X224790Y0D01*
X727710Y0D01*
X728817Y48D01*
X729915Y193D01*
X730997Y433D01*
X732054Y766D01*
X733077Y1190D01*
X734060Y1701D01*
X734994Y2297D01*
X735873Y2971D01*
X736690Y3720D01*
X737439Y4537D01*
X738113Y5416D01*
X738709Y6350D01*
X739220Y7333D01*
X739644Y8356D01*
X739977Y9413D01*
X740217Y10495D01*
X740362Y11593D01*
X740410Y12700D01*
X740410Y124460D01*
X740420Y124681D01*
X740449Y124901D01*
X740497Y125117D01*
X740563Y125329D01*
X740648Y125533D01*
X740750Y125730D01*
X740869Y125917D01*
X741004Y126093D01*
X741154Y126256D01*
X741317Y126406D01*
X741493Y126541D01*
X741680Y126660D01*
X741877Y126762D01*
X742081Y126847D01*
X742293Y126913D01*
X742509Y126961D01*
X742729Y126990D01*
X742950Y127000D01*
X958850Y127000D01*
X958850Y711200D01*
X-6350Y711200D01*
X-6350Y127000D01*
X511175Y424643D02*
X511100Y423031D01*
X510952Y421424D01*
X510729Y419826D01*
X510432Y418239D01*
X510063Y416668D01*
X509621Y415116D01*
X509108Y413586D01*
X508525Y412081D01*
X507873Y410605D01*
X507154Y409160D01*
X506369Y407750D01*
X505519Y406378D01*
X504607Y405047D01*
X503634Y403759D01*
X502604Y402518D01*
X501516Y401325D01*
X500375Y400184D01*
X499183Y399097D01*
X497941Y398066D01*
X496653Y397093D01*
X495322Y396181D01*
X493950Y395331D01*
X492540Y394546D01*
X491095Y393827D01*
X489619Y393175D01*
X488114Y392592D01*
X486584Y392079D01*
X485032Y391637D01*
X483461Y391268D01*
X481874Y390971D01*
X480276Y390748D01*
X478669Y390600D01*
X477057Y390525D01*
X475443Y390525D01*
X473831Y390600D01*
X472224Y390748D01*
X470626Y390971D01*
X469039Y391268D01*
X467468Y391637D01*
X465916Y392079D01*
X464386Y392592D01*
X462881Y393175D01*
X461405Y393827D01*
X459960Y394546D01*
X458550Y395331D01*
X457178Y396181D01*
X455847Y397093D01*
X454559Y398066D01*
X453318Y399097D01*
X452125Y400184D01*
X450984Y401325D01*
X449897Y402518D01*
X448866Y403759D01*
X447893Y405047D01*
X446981Y406378D01*
X446131Y407750D01*
X445346Y409160D01*
X444627Y410605D01*
X443975Y412081D01*
X443392Y413586D01*
X442879Y415116D01*
X442437Y416668D01*
X442068Y418239D01*
X441771Y419826D01*
X441548Y421424D01*
X441400Y423031D01*
X441325Y424643D01*
X441325Y426257D01*
X441400Y427869D01*
X441548Y429476D01*
X441771Y431074D01*
X442068Y432661D01*
X442437Y434232D01*
X442879Y435784D01*
X443392Y437314D01*
X443975Y438819D01*
X444627Y440295D01*
X445346Y441740D01*
X446131Y443150D01*
X446981Y444522D01*
X447893Y445853D01*
X448866Y447141D01*
X449897Y448383D01*
X450984Y449575D01*
X452125Y450716D01*
X453318Y451804D01*
X454559Y452834D01*
X455847Y453807D01*
X457178Y454719D01*
X458550Y455569D01*
X459960Y456354D01*
X461405Y457073D01*
X462881Y457725D01*
X464386Y458308D01*
X465916Y458821D01*
X467468Y459263D01*
X469039Y459632D01*
X470626Y459929D01*
X472224Y460152D01*
X473831Y460300D01*
X475443Y460375D01*
X477057Y460375D01*
X478669Y460300D01*
X480276Y460152D01*
X481874Y459929D01*
X483461Y459632D01*
X485032Y459263D01*
X486584Y458821D01*
X488114Y458308D01*
X489619Y457725D01*
X491095Y457073D01*
X492540Y456354D01*
X493950Y455569D01*
X495322Y454719D01*
X496653Y453807D01*
X497941Y452834D01*
X499183Y451804D01*
X500375Y450716D01*
X501516Y449575D01*
X502604Y448383D01*
X503634Y447141D01*
X504607Y445853D01*
X505519Y444522D01*
X506369Y443150D01*
X507154Y441740D01*
X507873Y440295D01*
X508525Y438819D01*
X509108Y437314D01*
X509621Y435784D01*
X510063Y434232D01*
X510432Y432661D01*
X510729Y431074D01*
X510952Y429476D01*
X511100Y427869D01*
X511175Y426257D01*
X511175Y424643D01*
M02*
