M48
;GenerationSoftware,Autodesk,EAGLE,9.6.1*%
;CreationDate,2026-09-19T06:00:23Z*%
FMAT,2
ICI,OFF
METRIC,TZ,000.000
T7C0.610
T6C0.813
T5C0.914
T4C1.200
T3C1.300
T2C3.607
T1C6.985
%
G90
M71
T1
X47625Y42545
T2
X24955Y18415
X70295Y18415
T3
X64240Y46990
X84240Y46990
T4
X15240Y67310
X60960Y62230
X58420Y62230
X10160Y67310
X12700Y67310
X38100Y67310
X17780Y67310
X20320Y67310
X22860Y67310
X25400Y67310
X27940Y67310
X30480Y67310
X33020Y67310
X35560Y67310
X40640Y67310
X45720Y67310
X48260Y67310
X50800Y67310
X53340Y67310
X55880Y67310
X58420Y67310
X60960Y67310
X63500Y67310
X66040Y67310
X68580Y67310
X71120Y67310
X73660Y67310
X76200Y67310
X78740Y67310
X81280Y67310
X55880Y62230
X43180Y67310
X83820Y67310
X86360Y67310
X10160Y62230
X12700Y62230
X15240Y62230
X17780Y62230
X20320Y62230
X22860Y62230
X25400Y62230
X27940Y62230
X30480Y62230
X33020Y62230
X35560Y62230
X38100Y62230
X40640Y62230
X43180Y62230
X45720Y62230
X48260Y62230
X50800Y62230
X53340Y62230
X86360Y62230
X83820Y62230
X81280Y62230
X78740Y62230
X76200Y62230
X73660Y62230
X71120Y62230
X68580Y62230
X66040Y62230
X63500Y62230
T5
X90170Y55880
X90170Y53340
X11430Y31750
X90170Y43180
X90170Y50800
X90170Y45720
X11430Y26670
X11430Y29210
T6
X20955Y25400
X23495Y25400
X36195Y25400
X36195Y33020
X26035Y25400
X28575Y25400
X33655Y25400
X31115Y25400
X33655Y33020
X28575Y33020
X26035Y33020
X23495Y33020
X20955Y33020
X73660Y25400
X76200Y25400
X88900Y25400
X91440Y25400
X78740Y25400
X81280Y25400
X86360Y25400
X83820Y25400
X91440Y33020
X88900Y33020
X86360Y33020
X83820Y33020
X81280Y33020
X78740Y33020
X76200Y33020
X73660Y33020
X77470Y22860
X74930Y22860
X17780Y33020
X17780Y30480
X48260Y34290
X48260Y31750
X71120Y33020
X71120Y30480
X6350Y39370
X8890Y39370
X11430Y39370
X13970Y39370
X16510Y39370
X21590Y39370
X24130Y39370
X26670Y39370
X29210Y39370
X31750Y39370
X34290Y39370
X36830Y39370
X39370Y39370
X39370Y54610
X36830Y54610
X34290Y54610
X31750Y54610
X29210Y54610
X26670Y54610
X24130Y54610
X21590Y54610
X19050Y54610
X16510Y54610
X13970Y54610
X11430Y54610
X8890Y54610
X6350Y54610
X46990Y50800
X54610Y50800
X46990Y54610
X54610Y54610
X7620Y57150
X10160Y57150
X19050Y39370
X31115Y33020
X51435Y26035
X53975Y26035
X66675Y26035
X66675Y33655
X56515Y26035
X59055Y26035
X64135Y26035
X61595Y26035
X64135Y33655
X61595Y33655
X59055Y33655
X56515Y33655
X53975Y33655
X51435Y33655
T7
X29845Y24765
X33496Y23336
X35084Y52387
X66834Y49689
X66993Y38259
X38259Y10795
X38100Y37624
X71120Y50800
X36671Y48577
X71914Y52387
X42069Y12541
X42863Y38576
X40323Y41116
X41275Y59055
X39688Y16510
X27781Y16192
X17463Y51752
X37465Y58261
X41116Y10795
X40481Y25241
X54769Y27622
X57467Y58261
X40164Y49371
X43656Y57467
X62706Y12541
X63500Y54769
X39053Y27940
X64135Y10795
X61436Y47625
X39688Y32385
X69533Y30956
X51435Y30956
X54610Y35719
X32702Y10795
X30797Y28575
X21749Y28575
X45879Y21431
X26035Y23495
X49371Y22384
X48895Y10954
X30639Y37148
X32385Y32385
X43656Y30956
X50165Y27940
X22066Y30321
X46831Y33973
X47149Y26670
X52229Y12065
X45720Y34766
X49054Y23654
X54134Y23654
X51435Y23654
X44609Y35560
X44926Y31432
X61119Y29527
X61119Y12065
X55562Y43974
X21749Y52229
X51594Y28575
X49847Y38100
X27622Y44926
X53181Y29051
X53022Y44291
X28416Y46514
X53975Y14446
X13176Y25717
X28416Y59690
X55721Y11589
X54769Y16986
X48895Y16986
X48101Y14922
X45244Y25241
X27146Y13494
X64294Y59690
X72708Y10795
X74454Y59372
X69056Y11589
X65564Y12541
X45244Y60642
X53340Y15399
X63182Y14446
X59372Y10636
X59531Y22860
X64294Y12541
X30162Y58102
X30162Y21907
X58579Y19209
X38894Y12541
X39688Y24447
X31591Y19209
X67469Y21114
X71755Y36354
X61912Y23177
X67786Y23177
X14129Y43656
X71755Y39846
X60325Y39846
X61119Y10795
X23495Y29527
X28416Y42863
X43180Y46196
X51435Y44767
X83344Y37465
X24289Y31115
X30321Y16986
X29369Y12541
X70803Y14446
X82233Y21114
X48577Y25241
X44767Y39211
X47307Y10795
X36036Y58102
X48736Y21431
X42069Y30162
X34131Y29686
X43498Y23336
X34925Y26670
X69374Y25559
X69374Y53975
X24130Y63659
X35084Y37306
X56356Y36671
X33973Y36830
X53499Y18415
X36830Y18098
X34449Y12541
X19050Y21907
X56515Y19209
X30956Y50165
X19209Y14764
X78740Y35560
M30