G04 EAGLE Gerber RS-274X export*
G75*
%MOMM*%
%FSLAX34Y34*%
%LPD*%
%INTop Copper*%
%IPPOS*%
%AMOC8*
5,1,8,0,0,1.08239X$1,22.5*%
G01*
%ADD10R,1.270000X9.525000*%
%ADD11R,1.270000X6.985000*%
%ADD12C,5.715000*%
%ADD13R,1.800000X1.800000*%
%ADD14C,1.219200*%
%ADD15C,1.219200*%
%ADD16C,1.950000*%
%ADD17P,1.319650X8X292.500000*%
%ADD18C,1.371600*%
%ADD19P,1.319650X8X22.500000*%
%ADD20C,0.254000*%
%ADD21C,0.965200*%
%ADD22C,0.406400*%


D10*
X234950Y52070D03*
X260350Y52070D03*
X285750Y52070D03*
X311150Y52070D03*
D11*
X336550Y63500D03*
D10*
X361950Y52070D03*
X387350Y52070D03*
X412750Y52070D03*
X438150Y52070D03*
X463550Y52070D03*
X488950Y52070D03*
X514350Y52070D03*
X539750Y52070D03*
X565150Y52070D03*
X590550Y52070D03*
X615950Y52070D03*
X641350Y52070D03*
X666750Y52070D03*
X692150Y52070D03*
X717550Y52070D03*
D12*
X249555Y184150D03*
X702945Y184150D03*
D13*
X863600Y622300D03*
X838200Y622300D03*
X812800Y622300D03*
X787400Y622300D03*
X762000Y622300D03*
X736600Y622300D03*
X711200Y622300D03*
X685800Y622300D03*
X660400Y622300D03*
X635000Y622300D03*
X609600Y622300D03*
X584200Y622300D03*
X558800Y622300D03*
X533400Y622300D03*
X508000Y622300D03*
X482600Y622300D03*
X457200Y622300D03*
X431800Y622300D03*
X406400Y622300D03*
X381000Y622300D03*
X355600Y622300D03*
X330200Y622300D03*
X304800Y622300D03*
X279400Y622300D03*
X254000Y622300D03*
X228600Y622300D03*
X203200Y622300D03*
X177800Y622300D03*
X152400Y622300D03*
X127000Y622300D03*
X101600Y622300D03*
X863600Y673100D03*
X838200Y673100D03*
X812800Y673100D03*
X787400Y673100D03*
X762000Y673100D03*
X736600Y673100D03*
X711200Y673100D03*
X685800Y673100D03*
X660400Y673100D03*
X635000Y673100D03*
X609600Y673100D03*
X584200Y673100D03*
X558800Y673100D03*
X533400Y673100D03*
X508000Y673100D03*
X482600Y673100D03*
X457200Y673100D03*
X431800Y673100D03*
X406400Y673100D03*
X381000Y673100D03*
X355600Y673100D03*
X330200Y673100D03*
X304800Y673100D03*
X279400Y673100D03*
X254000Y673100D03*
X228600Y673100D03*
X203200Y673100D03*
X177800Y673100D03*
X152400Y673100D03*
X127000Y673100D03*
X101600Y673100D03*
D14*
X514350Y266446D02*
X514350Y254254D01*
X539750Y254254D02*
X539750Y266446D01*
X666750Y266446D02*
X666750Y254254D01*
X666750Y330454D02*
X666750Y342646D01*
X565150Y266446D02*
X565150Y254254D01*
X590550Y254254D02*
X590550Y266446D01*
X641350Y266446D02*
X641350Y254254D01*
X615950Y254254D02*
X615950Y266446D01*
X641350Y330454D02*
X641350Y342646D01*
X615950Y342646D02*
X615950Y330454D01*
X590550Y330454D02*
X590550Y342646D01*
X565150Y342646D02*
X565150Y330454D01*
X539750Y330454D02*
X539750Y342646D01*
X514350Y342646D02*
X514350Y330454D01*
X209550Y260096D02*
X209550Y247904D01*
X234950Y247904D02*
X234950Y260096D01*
X361950Y260096D02*
X361950Y247904D01*
X361950Y324104D02*
X361950Y336296D01*
X260350Y260096D02*
X260350Y247904D01*
X285750Y247904D02*
X285750Y260096D01*
X336550Y260096D02*
X336550Y247904D01*
X311150Y247904D02*
X311150Y260096D01*
X336550Y324104D02*
X336550Y336296D01*
X311150Y336296D02*
X311150Y324104D01*
X285750Y324104D02*
X285750Y336296D01*
X260350Y336296D02*
X260350Y324104D01*
X234950Y324104D02*
X234950Y336296D01*
X209550Y336296D02*
X209550Y324104D01*
X736600Y260096D02*
X736600Y247904D01*
X762000Y247904D02*
X762000Y260096D01*
X889000Y260096D02*
X889000Y247904D01*
X914400Y247904D02*
X914400Y260096D01*
X787400Y260096D02*
X787400Y247904D01*
X812800Y247904D02*
X812800Y260096D01*
X863600Y260096D02*
X863600Y247904D01*
X838200Y247904D02*
X838200Y260096D01*
X914400Y324104D02*
X914400Y336296D01*
X889000Y336296D02*
X889000Y324104D01*
X863600Y324104D02*
X863600Y336296D01*
X838200Y336296D02*
X838200Y324104D01*
X812800Y324104D02*
X812800Y336296D01*
X787400Y336296D02*
X787400Y324104D01*
X762000Y324104D02*
X762000Y336296D01*
X736600Y336296D02*
X736600Y324104D01*
D15*
X774700Y228600D03*
X749300Y228600D03*
D16*
X642400Y469900D03*
X842400Y469900D03*
D17*
X177800Y330200D03*
X177800Y304800D03*
X482600Y342900D03*
X482600Y317500D03*
X711200Y330200D03*
X711200Y304800D03*
D14*
X63500Y387604D02*
X63500Y399796D01*
X88900Y399796D02*
X88900Y387604D01*
X114300Y387604D02*
X114300Y399796D01*
X139700Y399796D02*
X139700Y387604D01*
X165100Y387604D02*
X165100Y399796D01*
X190500Y399796D02*
X190500Y387604D01*
X215900Y387604D02*
X215900Y399796D01*
X241300Y399796D02*
X241300Y387604D01*
X266700Y387604D02*
X266700Y399796D01*
X292100Y399796D02*
X292100Y387604D01*
X317500Y387604D02*
X317500Y399796D01*
X342900Y399796D02*
X342900Y387604D01*
X368300Y387604D02*
X368300Y399796D01*
X393700Y399796D02*
X393700Y387604D01*
X393700Y540004D02*
X393700Y552196D01*
X368300Y552196D02*
X368300Y540004D01*
X342900Y540004D02*
X342900Y552196D01*
X317500Y552196D02*
X317500Y540004D01*
X292100Y540004D02*
X292100Y552196D01*
X266700Y552196D02*
X266700Y540004D01*
X241300Y540004D02*
X241300Y552196D01*
X215900Y552196D02*
X215900Y540004D01*
X190500Y540004D02*
X190500Y552196D01*
X165100Y552196D02*
X165100Y540004D01*
X139700Y540004D02*
X139700Y552196D01*
X114300Y552196D02*
X114300Y540004D01*
X88900Y540004D02*
X88900Y552196D01*
X63500Y552196D02*
X63500Y540004D01*
D18*
X894842Y508000D02*
X908558Y508000D01*
X908558Y533400D02*
X894842Y533400D01*
X894842Y558800D02*
X908558Y558800D01*
D19*
X469900Y508000D03*
X546100Y508000D03*
X469900Y546100D03*
X546100Y546100D03*
X76200Y571500D03*
X101600Y571500D03*
D18*
X107442Y317500D02*
X121158Y317500D01*
X121158Y292100D02*
X107442Y292100D01*
X107442Y266700D02*
X121158Y266700D01*
X894842Y457200D02*
X908558Y457200D01*
X908558Y431800D02*
X894842Y431800D01*
D20*
X312738Y233363D02*
X298450Y247650D01*
X312738Y233363D02*
X334963Y233363D01*
X373063Y501650D02*
X350838Y523875D01*
X373063Y501650D02*
X463550Y501650D01*
X468313Y496888D01*
X668338Y496888D01*
D21*
X298450Y247650D03*
X334963Y233363D03*
X350838Y523875D03*
X668338Y496888D03*
D20*
X361950Y374650D02*
X342900Y393700D01*
X381000Y374650D02*
X493713Y374650D01*
X381000Y374650D02*
X361950Y374650D01*
X493713Y374650D02*
X495300Y373063D01*
X504825Y373063D01*
X514350Y382588D01*
X669925Y382588D01*
X361950Y107950D02*
X361950Y52070D01*
X361950Y107950D02*
X382588Y107950D01*
X381000Y374650D02*
X381000Y376238D01*
D21*
X669925Y382588D03*
X382588Y107950D03*
X381000Y376238D03*
D20*
X688975Y485775D02*
X711200Y508000D01*
X688975Y485775D02*
X366713Y485775D01*
D21*
X711200Y508000D03*
X366713Y485775D03*
D20*
X415925Y523875D02*
X393700Y546100D01*
X415925Y523875D02*
X719138Y523875D01*
X387350Y101600D02*
X387350Y52070D01*
X387350Y101600D02*
X390525Y101600D01*
X414338Y125413D01*
X420688Y125413D01*
X428625Y385763D02*
X403225Y411163D01*
D21*
X719138Y523875D03*
X420688Y125413D03*
X428625Y385763D03*
X403225Y411163D03*
D20*
X412750Y590550D02*
X638175Y590550D01*
X642938Y585788D01*
X747713Y585788D01*
X762000Y600075D01*
X762000Y622300D01*
X396875Y165100D02*
X393700Y161925D01*
X277813Y161925D01*
X174625Y517525D02*
X155575Y536575D01*
X155575Y555625D01*
X188913Y588963D01*
X369888Y588963D01*
X371475Y590550D01*
X412750Y590550D01*
D21*
X412750Y590550D03*
X396875Y165100D03*
X277813Y161925D03*
X174625Y517525D03*
D20*
X574675Y582613D02*
X639763Y582613D01*
X574675Y582613D02*
X374650Y582613D01*
X639763Y582613D02*
X641350Y581025D01*
X749300Y581025D01*
X787400Y619125D01*
X787400Y622300D01*
X412750Y107950D02*
X412750Y52070D01*
X412750Y107950D02*
X411163Y107950D01*
X404813Y252413D02*
X427038Y274638D01*
X495300Y274638D01*
X498475Y271463D01*
X506413Y271463D01*
X511175Y276225D01*
X547688Y276225D01*
D21*
X374650Y582613D03*
X411163Y107950D03*
X404813Y252413D03*
X547688Y276225D03*
X574675Y582613D03*
D20*
X369888Y493713D02*
X317500Y546100D01*
X369888Y493713D02*
X401638Y493713D01*
X765175Y574675D02*
X812800Y622300D01*
X765175Y574675D02*
X436563Y574675D01*
D21*
X401638Y493713D03*
X436563Y574675D03*
D20*
X438150Y128588D02*
X438150Y52070D01*
X438150Y128588D02*
X623888Y128588D01*
X627063Y125413D01*
X635000Y547688D02*
X652463Y565150D01*
X781050Y565150D01*
X838200Y622300D01*
D21*
X627063Y125413D03*
X635000Y547688D03*
D22*
X387350Y279400D02*
X383381Y275431D01*
X361950Y254000D01*
X387350Y279400D02*
X390525Y279400D01*
X177800Y304800D02*
X103188Y304800D01*
X95250Y296863D01*
X95250Y279400D01*
X209550Y279400D01*
X212725Y276225D01*
X382588Y276225D01*
X383381Y275431D01*
X93663Y563563D02*
X101600Y571500D01*
X93663Y563563D02*
X84138Y563563D01*
X80963Y560388D01*
X71438Y560388D01*
X68263Y563563D01*
X58738Y563563D01*
X52388Y557213D01*
X52388Y304800D01*
X103188Y304800D01*
X508000Y622300D02*
X533400Y622300D01*
X533400Y623888D02*
X546100Y636588D01*
X595313Y636588D01*
X609600Y622300D01*
X533400Y622300D02*
X533400Y623888D01*
X641350Y107950D02*
X641350Y52070D01*
X666750Y260350D02*
X711200Y304800D01*
X500063Y300038D02*
X482600Y317500D01*
X500063Y300038D02*
X520700Y300038D01*
X525463Y304800D01*
X620713Y304800D01*
X665163Y260350D01*
X666750Y260350D01*
X863600Y304800D02*
X914400Y254000D01*
X863600Y304800D02*
X711200Y304800D01*
X620713Y469900D02*
X614363Y476250D01*
X620713Y469900D02*
X642400Y469900D01*
X474663Y323850D02*
X396875Y323850D01*
X474663Y323850D02*
X481013Y317500D01*
X482600Y317500D01*
D21*
X390525Y279400D03*
X641350Y107950D03*
X614363Y476250D03*
X396875Y323850D03*
D22*
X711200Y330200D02*
X736600Y330200D01*
X488950Y336550D02*
X482600Y342900D01*
X488950Y336550D02*
X514350Y336550D01*
X692150Y312738D02*
X695325Y309563D01*
X692150Y312738D02*
X517525Y312738D01*
X514350Y309563D01*
X558800Y622300D02*
X584200Y622300D01*
X522288Y687388D02*
X508000Y673100D01*
X522288Y687388D02*
X595313Y687388D01*
X609600Y673100D01*
X798513Y687388D02*
X812800Y673100D01*
X798513Y687388D02*
X595313Y687388D01*
X536575Y357188D02*
X515938Y336550D01*
X536575Y357188D02*
X546100Y357188D01*
X515938Y336550D02*
X514350Y336550D01*
X88900Y546100D02*
X63500Y546100D01*
X115888Y636588D02*
X138906Y659606D01*
X152400Y673100D01*
X115888Y636588D02*
X90488Y636588D01*
X76200Y622300D01*
X76200Y571500D01*
X63500Y393700D02*
X127000Y330200D01*
X177800Y330200D01*
X209550Y330200D01*
X336550Y107950D02*
X336550Y63500D01*
X336550Y107950D02*
X327025Y107950D01*
X307975Y285750D02*
X217488Y285750D01*
X63500Y393700D02*
X63500Y546100D01*
X495300Y658813D02*
X508000Y671513D01*
X495300Y658813D02*
X139700Y658813D01*
X508000Y671513D02*
X508000Y673100D01*
X139700Y658813D02*
X138906Y659606D01*
D21*
X695325Y309563D03*
X514350Y309563D03*
X546100Y357188D03*
X327025Y107950D03*
X307975Y285750D03*
X217488Y285750D03*
D20*
X266700Y393700D02*
X223838Y436563D01*
X141288Y436563D01*
X447675Y225425D02*
X458788Y214313D01*
X447675Y225425D02*
X306388Y225425D01*
X296863Y234950D01*
X260350Y234950D01*
D21*
X141288Y436563D03*
X458788Y214313D03*
X260350Y234950D03*
D20*
X771525Y238125D02*
X787400Y254000D01*
X771525Y238125D02*
X695325Y238125D01*
X681038Y223838D01*
X601663Y223838D01*
X598488Y220663D01*
X496888Y220663D01*
X493713Y223838D01*
X488950Y109538D02*
X488950Y52070D01*
X263525Y371475D02*
X241300Y393700D01*
X263525Y371475D02*
X306388Y371475D01*
X323850Y323850D02*
X338138Y309563D01*
X436563Y309563D01*
D21*
X493713Y223838D03*
X488950Y109538D03*
X306388Y371475D03*
X323850Y323850D03*
X436563Y309563D03*
D20*
X492125Y288925D02*
X501650Y279400D01*
X492125Y288925D02*
X317500Y288925D01*
X303213Y303213D01*
X220663Y303213D01*
D21*
X501650Y279400D03*
X220663Y303213D03*
D20*
X190500Y393700D02*
X169863Y414338D01*
X134938Y414338D01*
X125413Y404813D01*
X125413Y350838D01*
X366713Y350838D01*
X368300Y349250D01*
X434975Y349250D01*
X444500Y339725D01*
X468313Y339725D01*
X471488Y266700D02*
X477838Y260350D01*
X514350Y260350D01*
X514350Y120650D02*
X514350Y52070D01*
X514350Y120650D02*
X522288Y120650D01*
D21*
X468313Y339725D03*
X471488Y266700D03*
X522288Y120650D03*
D20*
X165100Y393700D02*
X149225Y409575D01*
X136525Y409575D01*
X130175Y403225D01*
X130175Y355600D01*
X368300Y355600D01*
X369888Y354013D01*
X436563Y354013D01*
X442913Y347663D01*
X457200Y347663D01*
X514350Y236538D02*
X541338Y236538D01*
X514350Y236538D02*
X490538Y236538D01*
D21*
X457200Y347663D03*
X490538Y236538D03*
X541338Y236538D03*
X514350Y236538D03*
D20*
X169863Y363538D02*
X139700Y393700D01*
X169863Y363538D02*
X319088Y363538D01*
X322263Y360363D01*
X369888Y360363D01*
X371475Y358775D01*
X442913Y358775D01*
X446088Y355600D01*
X449263Y314325D02*
X469900Y293688D01*
X523875Y293688D01*
X528638Y298450D01*
X608013Y298450D01*
X611188Y295275D01*
X539750Y123825D02*
X539750Y52070D01*
X539750Y123825D02*
X608013Y123825D01*
X611188Y120650D01*
D21*
X446088Y355600D03*
X449263Y314325D03*
X611188Y295275D03*
X611188Y120650D03*
D20*
X555625Y439738D02*
X515938Y479425D01*
X371475Y479425D01*
X369888Y477838D01*
X344488Y477838D01*
X300038Y522288D01*
X217488Y522288D01*
D21*
X555625Y439738D03*
X217488Y522288D03*
D20*
X566738Y284163D02*
X590550Y260350D01*
X566738Y284163D02*
X536575Y284163D01*
X534988Y282575D01*
X519113Y282575D01*
X515938Y285750D01*
X498475Y381000D02*
X495300Y384175D01*
X441325Y384175D01*
X406400Y419100D01*
X323850Y419100D01*
X301625Y396875D01*
X301625Y377825D01*
X288925Y377825D01*
X276225Y390525D01*
X276225Y449263D01*
D21*
X515938Y285750D03*
X498475Y381000D03*
X276225Y449263D03*
D20*
X614363Y287338D02*
X641350Y260350D01*
X614363Y287338D02*
X569913Y287338D01*
X566738Y290513D01*
X531813Y290513D01*
X530225Y442913D02*
X503238Y469900D01*
X374650Y469900D01*
X369888Y465138D01*
X284163Y465138D01*
D21*
X531813Y290513D03*
X530225Y442913D03*
X284163Y465138D03*
D20*
X538163Y146050D02*
X539750Y144463D01*
X538163Y146050D02*
X495300Y146050D01*
X484188Y157163D01*
X284163Y157163D01*
X279400Y152400D01*
X236538Y152400D01*
X131763Y257175D01*
D21*
X539750Y144463D03*
X131763Y257175D03*
D20*
X139700Y546100D02*
X190500Y596900D01*
X284163Y596900D01*
X565150Y115888D02*
X565150Y52070D01*
X565150Y115888D02*
X557213Y115888D01*
X547688Y169863D02*
X488950Y169863D01*
X481013Y149225D02*
X479425Y147638D01*
X192088Y147638D01*
D21*
X284163Y596900D03*
X557213Y115888D03*
X547688Y169863D03*
X488950Y169863D03*
X481013Y149225D03*
X192088Y147638D03*
D20*
X209550Y501650D02*
X165100Y546100D01*
X209550Y501650D02*
X309563Y501650D01*
X555625Y201613D02*
X565150Y192088D01*
X555625Y201613D02*
X277813Y201613D01*
X260350Y219075D01*
X190500Y219075D01*
D21*
X309563Y501650D03*
X565150Y192088D03*
X190500Y219075D03*
D20*
X242888Y635000D02*
X241300Y636588D01*
X242888Y635000D02*
X342900Y635000D01*
X355600Y622300D01*
X241300Y546100D02*
X225425Y530225D01*
X212725Y530225D01*
X206375Y536575D01*
X206375Y555625D01*
X217488Y566738D01*
X490538Y566738D01*
X500063Y557213D01*
X614363Y557213D01*
X631825Y539750D01*
X693738Y539750D01*
X693738Y255588D02*
X677863Y239713D01*
X673100Y239713D01*
X671513Y238125D01*
X623888Y238125D01*
X622300Y239713D01*
X606425Y239713D01*
X595313Y228600D01*
X593725Y106363D02*
X593725Y52388D01*
X590550Y52388D01*
X590550Y52070D01*
D21*
X241300Y636588D03*
X693738Y539750D03*
X693738Y255588D03*
X595313Y228600D03*
X593725Y106363D03*
D20*
X190500Y546100D02*
X225425Y581025D01*
X301625Y581025D02*
X360363Y581025D01*
X301625Y581025D02*
X225425Y581025D01*
X571500Y206375D02*
X585788Y192088D01*
X571500Y206375D02*
X314325Y206375D01*
X301625Y219075D01*
D21*
X360363Y581025D03*
X585788Y192088D03*
X301625Y219075D03*
X301625Y581025D03*
D20*
X173038Y604838D02*
X114300Y546100D01*
X173038Y604838D02*
X414338Y604838D01*
X419894Y610394D02*
X431800Y622300D01*
X419894Y610394D02*
X414338Y604838D01*
X692150Y107950D02*
X692150Y52070D01*
X692150Y107950D02*
X660400Y107950D01*
X642938Y125413D01*
X631825Y144463D02*
X622300Y153988D01*
X533400Y153988D01*
X452438Y606425D02*
X449263Y609600D01*
X420688Y609600D01*
X419894Y610394D01*
D21*
X642938Y125413D03*
X631825Y144463D03*
X533400Y153988D03*
X452438Y606425D03*
D20*
X655638Y125413D02*
X665163Y115888D01*
X690563Y115888D01*
D21*
X655638Y125413D03*
X690563Y115888D03*
D20*
X482600Y622300D02*
X503238Y642938D01*
X661988Y642938D01*
X673100Y631825D01*
X673100Y593725D01*
X744538Y593725D01*
X727075Y107950D02*
X717550Y98425D01*
X717550Y52070D01*
D21*
X744538Y593725D03*
X727075Y107950D03*
D20*
X642938Y596900D02*
X631825Y608013D01*
X471488Y608013D01*
X457200Y622300D01*
D21*
X642938Y596900D03*
D22*
X696913Y636588D02*
X660400Y673100D01*
X696913Y636588D02*
X874713Y636588D01*
X931863Y579438D01*
X931863Y134938D01*
X271463Y134938D01*
D21*
X271463Y134938D03*
D20*
X784225Y352425D02*
X787400Y355600D01*
X784225Y352425D02*
X606425Y352425D01*
X590550Y336550D01*
X285750Y117475D02*
X285750Y52070D01*
X285750Y117475D02*
X317500Y117475D01*
X325438Y125413D01*
X344488Y125413D01*
X368300Y180975D02*
X371475Y184150D01*
X534988Y184150D01*
D21*
X787400Y355600D03*
X344488Y125413D03*
X368300Y180975D03*
X534988Y184150D03*
D20*
X342900Y365125D02*
X339725Y368300D01*
X342900Y365125D02*
X371475Y365125D01*
X373063Y363538D01*
X539750Y363538D01*
X542925Y366713D01*
X563563Y366713D01*
D21*
X339725Y368300D03*
X563563Y366713D03*
D20*
X311150Y330200D02*
X285750Y330200D01*
X225425Y269875D02*
X209550Y254000D01*
X225425Y269875D02*
X295275Y269875D01*
X296069Y269081D02*
X311150Y254000D01*
X296069Y269081D02*
X295275Y269875D01*
X539750Y336550D02*
X561975Y358775D01*
X566738Y358775D01*
X571500Y363538D01*
X571500Y374650D01*
X512763Y374650D01*
X506413Y368300D01*
X374650Y368300D01*
X373063Y369888D01*
X354013Y369888D01*
X350838Y373063D01*
X346075Y269875D02*
X349250Y266700D01*
X346075Y269875D02*
X296863Y269875D01*
X296069Y269081D01*
X431800Y236538D02*
X434975Y233363D01*
X431800Y236538D02*
X358775Y236538D01*
X349250Y246063D01*
X349250Y266700D01*
D21*
X350838Y373063D03*
X349250Y266700D03*
X434975Y233363D03*
D20*
X346075Y301625D02*
X341313Y296863D01*
X346075Y301625D02*
X420688Y301625D01*
D21*
X341313Y296863D03*
X420688Y301625D03*
D20*
X828675Y219075D02*
X863600Y254000D01*
X828675Y219075D02*
X603250Y219075D01*
X598488Y214313D01*
X487363Y214313D01*
X473075Y107950D02*
X463550Y98425D01*
X463550Y52070D01*
X292100Y393700D02*
X322263Y423863D01*
X415925Y423863D01*
X447675Y392113D01*
X452438Y252413D02*
X485775Y252413D01*
D21*
X487363Y214313D03*
X473075Y107950D03*
X447675Y392113D03*
X485775Y252413D03*
X452438Y252413D03*
D20*
X762000Y330200D02*
X779463Y347663D01*
X896938Y347663D01*
X914400Y330200D01*
X822325Y211138D02*
X755650Y144463D01*
X708025Y144463D01*
X114300Y133350D02*
X114300Y266700D01*
X114300Y133350D02*
X260350Y133350D01*
X268288Y125413D01*
X293688Y125413D01*
X303213Y169863D02*
X306388Y173038D01*
X474663Y173038D01*
X485775Y161925D01*
X679450Y161925D01*
X696913Y144463D01*
X708025Y144463D01*
D21*
X822325Y211138D03*
X708025Y144463D03*
X293688Y125413D03*
X303213Y169863D03*
D20*
X242888Y311150D02*
X241300Y312738D01*
X184150Y312738D01*
X179388Y317500D01*
X114300Y317500D01*
X817563Y390525D02*
X833438Y374650D01*
X817563Y390525D02*
X571500Y390525D01*
X514350Y447675D01*
X431800Y461963D02*
X398463Y428625D01*
X284163Y428625D01*
D21*
X242888Y311150D03*
X833438Y374650D03*
X514350Y447675D03*
X431800Y461963D03*
X284163Y428625D03*
D20*
X260350Y330200D02*
X234950Y330200D01*
X871538Y312738D02*
X889000Y330200D01*
X871538Y312738D02*
X717550Y312738D01*
X711200Y319088D01*
X495300Y319088D01*
X482600Y331788D01*
X401638Y331788D01*
X388938Y344488D01*
X366713Y344488D01*
X365125Y346075D01*
X276225Y346075D01*
X260350Y330200D01*
X115888Y293688D02*
X114300Y292100D01*
X115888Y293688D02*
X211138Y293688D01*
X212725Y295275D01*
X234950Y295275D01*
D21*
X234950Y295275D03*
D20*
X88900Y473075D02*
X88900Y528638D01*
X88900Y473075D02*
X88900Y393700D01*
X88900Y528638D02*
X92075Y528638D01*
X104775Y541338D01*
X104775Y560388D01*
X109538Y560388D01*
X158750Y609600D01*
X393700Y609600D01*
X406400Y622300D01*
X615950Y107950D02*
X615950Y52070D01*
X615950Y107950D02*
X611188Y107950D01*
X603250Y398463D02*
X569913Y431800D01*
X552450Y431800D01*
X509588Y474663D01*
X373063Y474663D01*
X371475Y473075D01*
X88900Y473075D01*
D21*
X611188Y107950D03*
X603250Y398463D03*
D20*
X231775Y561975D02*
X215900Y546100D01*
X231775Y561975D02*
X250825Y561975D01*
X251619Y561181D02*
X266700Y546100D01*
X251619Y561181D02*
X250825Y561975D01*
X454025Y561975D02*
X469900Y546100D01*
X454025Y561975D02*
X252413Y561975D01*
X251619Y561181D01*
X874713Y531813D02*
X901700Y558800D01*
X874713Y531813D02*
X484188Y531813D01*
X469900Y546100D01*
X901700Y533400D02*
X919163Y515938D01*
X919163Y482600D01*
X801688Y482600D01*
X717550Y398463D01*
X677863Y231775D02*
X619125Y231775D01*
D21*
X717550Y398463D03*
X677863Y231775D03*
X619125Y231775D03*
D20*
X901700Y508000D02*
X893763Y515938D01*
X552450Y515938D01*
X549275Y519113D01*
X481013Y519113D01*
X469900Y508000D01*
X833438Y363538D02*
X901700Y431800D01*
X833438Y363538D02*
X717550Y363538D01*
X674688Y211138D02*
X647700Y184150D01*
X546100Y184150D01*
X538163Y192088D01*
X315913Y192088D01*
D21*
X717550Y363538D03*
X674688Y211138D03*
X315913Y192088D03*
D20*
X901700Y457200D02*
X925513Y433388D01*
X925513Y236538D01*
X887413Y236538D01*
X873125Y250825D01*
X873125Y271463D01*
X698500Y271463D01*
X669925Y242888D01*
X625475Y242888D01*
X623888Y244475D01*
X396875Y244475D01*
X388938Y125413D02*
X381000Y117475D01*
X323850Y117475D01*
X311150Y104775D01*
X311150Y52070D01*
D21*
X396875Y244475D03*
X388938Y125413D03*
M02*
