%
M48
M72
T01C0.0240
T02C0.0320
T03C0.0360
T04C0.0472
T05C0.0512
T06C0.1420
T07C0.2750
%
T01
X9555Y4750
X9805Y5875
X11555Y4750
X12930Y4750
X14305Y4750
X14305Y5250
X15305Y4750
X15680Y5125
X16305Y4750
X17180Y4750
X18305Y5250
X18680Y5500
X19055Y5875
X18805Y4750
X20305Y4750
X20930Y4875
X21805Y4875
X22180Y5500
X22555Y4750
X23180Y5125
X23555Y4750
X24555Y4750
X25930Y4750
X25930Y5500
X25430Y6250
X26930Y5000
X27305Y4750
X27680Y5375
X27555Y6250
X23430Y6625
X22055Y6250
X21055Y7000
X22055Y7625
X23430Y8500
X23930Y9375
X20805Y11375
X19805Y10625
X19055Y9750
X17930Y11750
X16180Y9750
X15430Y8000
X16180Y7000
X15430Y6250
X15055Y6500
X17555Y7250
X11555Y8875
X11180Y9125
X12555Y11750
X13430Y14500
X18180Y15000
X18930Y15000
X20680Y15000
X23305Y16375
X19180Y20250
X17180Y19375
X17180Y18875
X15805Y18500
X15805Y21125
X16805Y21500
X16805Y22750
X15930Y23750
X16930Y25625
X23055Y23750
X23430Y23500
X24055Y21750
X25305Y21750
X27055Y22500
X27305Y24375
X29055Y14750
X31555Y14375
X31805Y12125
X31805Y11125
X29555Y11750
X32180Y7500
X35555Y9500
X23430Y12250
T02
X23430Y10750
X24430Y10750
X25430Y10750
X26430Y10750
X27430Y10750
X29180Y12500
X29180Y13500
X30180Y13500
X31180Y13500
X32180Y13500
X33180Y13500
X34180Y13500
X35180Y13500
X36180Y13500
X37180Y13500
X37180Y10500
X36180Y10500
X35180Y10500
X34180Y10500
X33180Y10500
X32180Y10500
X31180Y10500
X30180Y10500
X30680Y9500
X31680Y9500
X27430Y13750
X26430Y13750
X25430Y13750
X24430Y13750
X23430Y13750
X22430Y13750
X21430Y13750
X20180Y14000
X20180Y13000
X21430Y10750
X22430Y10750
X14930Y10500
X13930Y10500
X12930Y10500
X11930Y10500
X10930Y10500
X9930Y10500
X8930Y10500
X7680Y12500
X7680Y13500
X8930Y13500
X9930Y13500
X10930Y13500
X11930Y13500
X12930Y13500
X13930Y13500
X14930Y13500
T03
X6430Y12500
X6430Y11500
T04
X6680Y25000
X7680Y25000
X8680Y25000
X9680Y25000
X10680Y25000
X11680Y25000
X12680Y25000
X13680Y25000
X14680Y25000
X15680Y25000
X16680Y25000
X17680Y25000
X18680Y25000
X19680Y25000
X20680Y25000
X21680Y25000
X22680Y25000
X23680Y25000
X24680Y25000
X25680Y25000
X26680Y25000
X27680Y25000
X28680Y25000
X29680Y25000
X30680Y25000
X31680Y25000
X32680Y25000
X33680Y25000
X34680Y25000
X34680Y27000
X33680Y27000
X32680Y27000
X31680Y27000
X30680Y27000
X29680Y27000
X28680Y27000
X27680Y27000
X26680Y27000
X25680Y27000
X24680Y27000
X23680Y27000
X22680Y27000
X21680Y27000
X20680Y27000
X19680Y27000
X18680Y27000
X17680Y27000
X16680Y27000
X15680Y27000
X14680Y27000
X13680Y27000
X12680Y27000
X11680Y27000
X10680Y27000
X9680Y27000
X8680Y27000
X7680Y27000
X6680Y27000
X5680Y27000
X4680Y27000
X4680Y25000
X5680Y25000
T05
X28971Y19000
X36845Y19000
T06
X28355Y7750
X10505Y7750
T07
X19430Y17250
M30
