G75*
%MOIN*%
%OFA0B0*%
%FSLAX24Y24*%
%IPPOS*%
%LPD*%
%AMOC8*
5,1,8,0,0,1.08239X$1,22.5*
%
%ADD10C,0.0060*%
%ADD11C,0.0030*%
%ADD12C,0.0040*%
%ADD13C,0.0100*%
%ADD14C,0.0050*%
%ADD15C,0.0160*%
%ADD16R,0.0160X0.0230*%
%ADD17C,0.0080*%
%ADD18C,0.0010*%
D10*
X006030Y011000D02*
X006830Y011000D01*
X006930Y011100D01*
X006930Y011900D01*
X006830Y012000D01*
X006930Y012100D01*
X006930Y012900D01*
X006830Y013000D01*
X006030Y013000D01*
X005930Y012900D01*
X005930Y012100D01*
X006030Y012000D01*
X005930Y011900D01*
X005930Y011100D01*
X006030Y011000D01*
X007180Y012150D02*
X007180Y013850D01*
X007182Y013867D01*
X007186Y013884D01*
X007193Y013900D01*
X007203Y013914D01*
X007216Y013927D01*
X007230Y013937D01*
X007246Y013944D01*
X007263Y013948D01*
X007280Y013950D01*
X008080Y013950D01*
X008097Y013948D01*
X008114Y013944D01*
X008130Y013937D01*
X008144Y013927D01*
X008157Y013914D01*
X008167Y013900D01*
X008174Y013884D01*
X008178Y013867D01*
X008180Y013850D01*
X008180Y012150D01*
X008178Y012133D01*
X008174Y012116D01*
X008167Y012100D01*
X008157Y012086D01*
X008144Y012073D01*
X008130Y012063D01*
X008114Y012056D01*
X008097Y012052D01*
X008080Y012050D01*
X007280Y012050D01*
X007263Y012052D01*
X007246Y012056D01*
X007230Y012063D01*
X007216Y012073D01*
X007203Y012086D01*
X007193Y012100D01*
X007186Y012116D01*
X007182Y012133D01*
X007180Y012150D01*
X007680Y012850D02*
X007680Y012900D01*
X007680Y013100D02*
X007680Y013150D01*
X008430Y013150D02*
X008430Y012400D01*
X008469Y012398D01*
X008508Y012392D01*
X008546Y012383D01*
X008583Y012370D01*
X008619Y012353D01*
X008652Y012333D01*
X008684Y012309D01*
X008713Y012283D01*
X008739Y012254D01*
X008763Y012222D01*
X008783Y012189D01*
X008800Y012153D01*
X008813Y012116D01*
X008822Y012078D01*
X008828Y012039D01*
X008830Y012000D01*
X008828Y011961D01*
X008822Y011922D01*
X008813Y011884D01*
X008800Y011847D01*
X008783Y011811D01*
X008763Y011778D01*
X008739Y011746D01*
X008713Y011717D01*
X008684Y011691D01*
X008652Y011667D01*
X008619Y011647D01*
X008583Y011630D01*
X008546Y011617D01*
X008508Y011608D01*
X008469Y011602D01*
X008430Y011600D01*
X008430Y010850D01*
X015430Y010850D01*
X015430Y013150D01*
X008430Y013150D01*
X019680Y012650D02*
X019680Y014350D01*
X019682Y014367D01*
X019686Y014384D01*
X019693Y014400D01*
X019703Y014414D01*
X019716Y014427D01*
X019730Y014437D01*
X019746Y014444D01*
X019763Y014448D01*
X019780Y014450D01*
X020580Y014450D01*
X020597Y014448D01*
X020614Y014444D01*
X020630Y014437D01*
X020644Y014427D01*
X020657Y014414D01*
X020667Y014400D01*
X020674Y014384D01*
X020678Y014367D01*
X020680Y014350D01*
X020680Y012650D01*
X020678Y012633D01*
X020674Y012616D01*
X020667Y012600D01*
X020657Y012586D01*
X020644Y012573D01*
X020630Y012563D01*
X020614Y012556D01*
X020597Y012552D01*
X020580Y012550D01*
X019780Y012550D01*
X019763Y012552D01*
X019746Y012556D01*
X019730Y012563D01*
X019716Y012573D01*
X019703Y012586D01*
X019693Y012600D01*
X019686Y012616D01*
X019682Y012633D01*
X019680Y012650D01*
X020180Y013350D02*
X020180Y013400D01*
X020180Y013600D02*
X020180Y013650D01*
X020930Y013400D02*
X020930Y012650D01*
X020969Y012648D01*
X021008Y012642D01*
X021046Y012633D01*
X021083Y012620D01*
X021119Y012603D01*
X021152Y012583D01*
X021184Y012559D01*
X021213Y012533D01*
X021239Y012504D01*
X021263Y012472D01*
X021283Y012439D01*
X021300Y012403D01*
X021313Y012366D01*
X021322Y012328D01*
X021328Y012289D01*
X021330Y012250D01*
X021328Y012211D01*
X021322Y012172D01*
X021313Y012134D01*
X021300Y012097D01*
X021283Y012061D01*
X021263Y012028D01*
X021239Y011996D01*
X021213Y011967D01*
X021184Y011941D01*
X021152Y011917D01*
X021119Y011897D01*
X021083Y011880D01*
X021046Y011867D01*
X021008Y011858D01*
X020969Y011852D01*
X020930Y011850D01*
X020930Y011100D01*
X027930Y011100D01*
X027930Y013400D01*
X020930Y013400D01*
X028680Y013850D02*
X028680Y012150D01*
X028682Y012133D01*
X028686Y012116D01*
X028693Y012100D01*
X028703Y012086D01*
X028716Y012073D01*
X028730Y012063D01*
X028746Y012056D01*
X028763Y012052D01*
X028780Y012050D01*
X029580Y012050D01*
X029597Y012052D01*
X029614Y012056D01*
X029630Y012063D01*
X029644Y012073D01*
X029657Y012086D01*
X029667Y012100D01*
X029674Y012116D01*
X029678Y012133D01*
X029680Y012150D01*
X029680Y013850D01*
X029678Y013867D01*
X029674Y013884D01*
X029667Y013900D01*
X029657Y013914D01*
X029644Y013927D01*
X029630Y013937D01*
X029614Y013944D01*
X029597Y013948D01*
X029580Y013950D01*
X028780Y013950D01*
X028763Y013948D01*
X028746Y013944D01*
X028730Y013937D01*
X028716Y013927D01*
X028703Y013914D01*
X028693Y013900D01*
X028686Y013884D01*
X028682Y013867D01*
X028680Y013850D01*
X029180Y013150D02*
X029180Y013100D01*
X029180Y012900D02*
X029180Y012850D01*
X029680Y013150D02*
X029680Y012400D01*
X029719Y012398D01*
X029758Y012392D01*
X029796Y012383D01*
X029833Y012370D01*
X029869Y012353D01*
X029902Y012333D01*
X029934Y012309D01*
X029963Y012283D01*
X029989Y012254D01*
X030013Y012222D01*
X030033Y012189D01*
X030050Y012153D01*
X030063Y012116D01*
X030072Y012078D01*
X030078Y012039D01*
X030080Y012000D01*
X030078Y011961D01*
X030072Y011922D01*
X030063Y011884D01*
X030050Y011847D01*
X030033Y011811D01*
X030013Y011778D01*
X029989Y011746D01*
X029963Y011717D01*
X029934Y011691D01*
X029902Y011667D01*
X029869Y011647D01*
X029833Y011630D01*
X029796Y011617D01*
X029758Y011608D01*
X029719Y011602D01*
X029680Y011600D01*
X029680Y010850D01*
X037680Y010850D01*
X037680Y013150D01*
X029680Y013150D01*
X030830Y008850D02*
X030830Y008700D01*
X031530Y008700D01*
X031580Y008700D01*
X031580Y006550D01*
X031578Y006533D01*
X031574Y006516D01*
X031567Y006500D01*
X031557Y006486D01*
X031544Y006473D01*
X031530Y006463D01*
X031514Y006456D01*
X031497Y006452D01*
X031480Y006450D01*
X030880Y006450D01*
X030863Y006452D01*
X030846Y006456D01*
X030830Y006463D01*
X030816Y006473D01*
X030803Y006486D01*
X030793Y006500D01*
X030786Y006516D01*
X030782Y006533D01*
X030780Y006550D01*
X030780Y008700D01*
X030830Y008700D01*
X030830Y008850D02*
X031530Y008850D01*
X031530Y008700D01*
X031180Y008050D02*
X031180Y007850D01*
X030980Y007850D01*
X030980Y007700D02*
X030980Y007550D01*
X031380Y007550D01*
X031380Y007700D01*
X030980Y007700D01*
X031180Y007850D02*
X031380Y007850D01*
X031380Y007400D02*
X031180Y007400D01*
X030980Y007400D01*
X031180Y007400D02*
X031180Y007200D01*
X037009Y023030D02*
X037009Y023350D01*
X037116Y023457D01*
X037223Y023457D01*
X037330Y023350D01*
X037330Y023030D01*
X037650Y023030D02*
X037650Y023350D01*
X037543Y023457D01*
X037436Y023457D01*
X037330Y023350D01*
X037436Y023675D02*
X037436Y023995D01*
X037330Y024102D01*
X037116Y024102D01*
X037009Y023995D01*
X037009Y023675D01*
X037650Y023675D01*
X037436Y023888D02*
X037650Y024102D01*
X037650Y024319D02*
X037223Y024319D01*
X037009Y024533D01*
X037223Y024746D01*
X037650Y024746D01*
X037543Y024964D02*
X037116Y024964D01*
X037009Y025070D01*
X037009Y025284D01*
X037116Y025391D01*
X037009Y025608D02*
X037650Y025608D01*
X037436Y025608D02*
X037009Y026035D01*
X037009Y026253D02*
X037650Y026253D01*
X037650Y026680D01*
X037330Y026466D02*
X037330Y026253D01*
X037009Y026253D02*
X037009Y026680D01*
X037009Y026897D02*
X037009Y027324D01*
X037009Y027111D02*
X037650Y027111D01*
X037650Y026035D02*
X037330Y025715D01*
X037543Y025391D02*
X037650Y025284D01*
X037650Y025070D01*
X037543Y024964D01*
X037330Y024746D02*
X037330Y024319D01*
X037650Y023030D02*
X037009Y023030D01*
D11*
X035183Y023515D02*
X034990Y023515D01*
X035086Y023515D02*
X035086Y023805D01*
X034990Y023708D01*
X034888Y023708D02*
X034888Y023515D01*
X034888Y023660D02*
X034695Y023660D01*
X034695Y023708D02*
X034792Y023805D01*
X034888Y023708D01*
X034695Y023708D02*
X034695Y023515D01*
X034695Y028015D02*
X034840Y028015D01*
X034888Y028063D01*
X034888Y028112D01*
X034840Y028160D01*
X034695Y028160D01*
X034695Y028015D02*
X034695Y028305D01*
X034840Y028305D01*
X034888Y028257D01*
X034888Y028208D01*
X034840Y028160D01*
X034990Y028208D02*
X035086Y028305D01*
X035086Y028015D01*
X034990Y028015D02*
X035183Y028015D01*
X005478Y028015D02*
X005284Y028015D01*
X005381Y028015D02*
X005381Y028305D01*
X005284Y028208D01*
X005183Y028208D02*
X005135Y028160D01*
X005183Y028112D01*
X005183Y028063D01*
X005135Y028015D01*
X005038Y028015D01*
X004990Y028063D01*
X004888Y028063D02*
X004840Y028015D01*
X004695Y028015D01*
X004695Y028305D01*
X004840Y028305D01*
X004888Y028257D01*
X004888Y028208D01*
X004840Y028160D01*
X004695Y028160D01*
X004840Y028160D02*
X004888Y028112D01*
X004888Y028063D01*
X004990Y028257D02*
X005038Y028305D01*
X005135Y028305D01*
X005183Y028257D01*
X005183Y028208D01*
X005135Y028160D02*
X005086Y028160D01*
X005038Y023805D02*
X005135Y023805D01*
X005183Y023757D01*
X005183Y023708D01*
X005135Y023660D01*
X005183Y023612D01*
X005183Y023563D01*
X005135Y023515D01*
X005038Y023515D01*
X004990Y023563D01*
X004888Y023515D02*
X004888Y023708D01*
X004792Y023805D01*
X004695Y023708D01*
X004695Y023515D01*
X004695Y023660D02*
X004888Y023660D01*
X004990Y023757D02*
X005038Y023805D01*
X005086Y023660D02*
X005135Y023660D01*
X005284Y023708D02*
X005381Y023805D01*
X005381Y023515D01*
X005284Y023515D02*
X005478Y023515D01*
D12*
X009720Y004770D02*
X010027Y004770D01*
X009873Y004770D02*
X009873Y005230D01*
X009720Y005077D01*
X002583Y014520D02*
X002660Y014597D01*
X002583Y014673D01*
X002660Y014750D01*
X002583Y014827D01*
X002353Y014827D01*
X002353Y014980D02*
X002583Y014980D01*
X002660Y015057D01*
X002583Y015134D01*
X002660Y015211D01*
X002583Y015287D01*
X002353Y015287D01*
X002353Y015441D02*
X002583Y015441D01*
X002660Y015518D01*
X002583Y015594D01*
X002660Y015671D01*
X002583Y015748D01*
X002353Y015748D01*
X002583Y015901D02*
X002583Y015978D01*
X002660Y015978D01*
X002660Y015901D01*
X002583Y015901D01*
X002660Y016131D02*
X002660Y016362D01*
X002583Y016438D01*
X002507Y016362D01*
X002507Y016208D01*
X002430Y016131D01*
X002353Y016208D01*
X002353Y016438D01*
X002353Y016592D02*
X002353Y016668D01*
X002430Y016745D01*
X002353Y016822D01*
X002430Y016899D01*
X002660Y016899D01*
X002660Y017052D02*
X002200Y017052D01*
X002353Y017052D02*
X002353Y017282D01*
X002430Y017359D01*
X002583Y017359D01*
X002660Y017282D01*
X002660Y017052D01*
X002660Y016745D02*
X002430Y016745D01*
X002353Y016592D02*
X002660Y016592D01*
X002583Y017513D02*
X002507Y017589D01*
X002507Y017819D01*
X002430Y017819D02*
X002660Y017819D01*
X002660Y017589D01*
X002583Y017513D01*
X002353Y017589D02*
X002353Y017743D01*
X002430Y017819D01*
X002507Y017973D02*
X002353Y018203D01*
X002430Y018357D02*
X002353Y018433D01*
X002353Y018587D01*
X002430Y018664D01*
X002507Y018664D01*
X002507Y018357D01*
X002583Y018357D02*
X002430Y018357D01*
X002583Y018357D02*
X002660Y018433D01*
X002660Y018587D01*
X002660Y018817D02*
X002353Y018817D01*
X002353Y018970D02*
X002507Y018817D01*
X002353Y018970D02*
X002353Y019047D01*
X002583Y019201D02*
X002583Y019277D01*
X002660Y019277D01*
X002660Y019201D01*
X002583Y019201D01*
X002583Y019431D02*
X002660Y019508D01*
X002660Y019738D01*
X002583Y019891D02*
X002660Y019968D01*
X002660Y020121D01*
X002583Y020198D01*
X002430Y020198D01*
X002353Y020121D01*
X002353Y019968D01*
X002430Y019891D01*
X002583Y019891D01*
X002353Y019738D02*
X002353Y019508D01*
X002430Y019431D01*
X002583Y019431D01*
X002660Y020352D02*
X002353Y020352D01*
X002353Y020428D01*
X002430Y020505D01*
X002353Y020582D01*
X002430Y020659D01*
X002660Y020659D01*
X002660Y020505D02*
X002430Y020505D01*
X002660Y018203D02*
X002507Y017973D01*
X002660Y017973D02*
X002200Y017973D01*
X002353Y014520D02*
X002583Y014520D01*
X028490Y005154D02*
X028566Y005230D01*
X028720Y005230D01*
X028797Y005154D01*
X028797Y005077D01*
X028720Y005000D01*
X028797Y004923D01*
X028797Y004847D01*
X028720Y004770D01*
X028566Y004770D01*
X028490Y004847D01*
X028643Y005000D02*
X028720Y005000D01*
X028950Y005077D02*
X029027Y005000D01*
X029257Y005000D01*
X029257Y004847D02*
X029257Y005154D01*
X029180Y005230D01*
X029027Y005230D01*
X028950Y005154D01*
X028950Y005077D01*
X028950Y004847D02*
X029027Y004770D01*
X029180Y004770D01*
X029257Y004847D01*
D13*
X029180Y012900D02*
X028880Y012900D01*
X028880Y013100D02*
X029180Y013100D01*
X029480Y013100D01*
X029480Y012900D02*
X029180Y012900D01*
X020480Y013400D02*
X020180Y013400D01*
X019880Y013400D01*
X019880Y013600D02*
X020180Y013600D01*
X020480Y013600D01*
X007980Y013100D02*
X007680Y013100D01*
X007380Y013100D01*
X007380Y012900D02*
X007680Y012900D01*
X007980Y012900D01*
X002430Y024150D02*
X036430Y024150D01*
X036430Y027850D01*
X002430Y027850D01*
X002430Y024150D01*
X003180Y025500D02*
X003180Y026500D01*
X035680Y026500D01*
X035680Y025500D01*
X003180Y025500D01*
D14*
X005755Y012246D02*
X005755Y011946D01*
X005755Y012096D02*
X005305Y012096D01*
X005455Y011946D01*
X005530Y011786D02*
X005605Y011711D01*
X005605Y011485D01*
X005755Y011485D02*
X005305Y011485D01*
X005305Y011711D01*
X005380Y011786D01*
X005530Y011786D01*
X005305Y011325D02*
X005305Y011175D01*
X005305Y011250D02*
X005680Y011250D01*
X005755Y011175D01*
X005755Y011100D01*
X005680Y011025D01*
X007805Y010975D02*
X007805Y010825D01*
X007805Y010900D02*
X008255Y010900D01*
X008255Y010825D02*
X008255Y010975D01*
X008180Y011132D02*
X007880Y011132D01*
X007805Y011207D01*
X007805Y011357D01*
X007880Y011432D01*
X007880Y011592D02*
X007805Y011667D01*
X007805Y011818D01*
X007880Y011893D01*
X007955Y011893D01*
X008255Y011592D01*
X008255Y011893D01*
X008180Y011432D02*
X008255Y011357D01*
X008255Y011207D01*
X008180Y011132D01*
X020305Y011150D02*
X020755Y011150D01*
X020755Y011075D02*
X020755Y011225D01*
X020680Y011382D02*
X020380Y011382D01*
X020305Y011457D01*
X020305Y011607D01*
X020380Y011682D01*
X020455Y011842D02*
X020305Y011992D01*
X020755Y011992D01*
X020755Y011842D02*
X020755Y012143D01*
X020680Y011682D02*
X020755Y011607D01*
X020755Y011457D01*
X020680Y011382D01*
X020305Y011225D02*
X020305Y011075D01*
X028980Y011486D02*
X029580Y011486D01*
X029505Y011561D02*
X029430Y011636D01*
X029355Y011636D01*
X029280Y011561D01*
X029280Y011410D01*
X029205Y011335D01*
X029130Y011335D01*
X029055Y011410D01*
X029055Y011561D01*
X029130Y011636D01*
X029205Y011796D02*
X029055Y011946D01*
X029505Y011946D01*
X029505Y011796D02*
X029505Y012096D01*
X029505Y011561D02*
X029505Y011410D01*
X029430Y011335D01*
X029430Y011175D02*
X029055Y011175D01*
X029055Y010875D02*
X029430Y010875D01*
X029505Y010950D01*
X029505Y011100D01*
X029430Y011175D01*
X032205Y008565D02*
X032205Y008265D01*
X032205Y008415D02*
X031755Y008415D01*
X031905Y008265D01*
X031830Y008104D02*
X032130Y008104D01*
X032205Y008029D01*
X032205Y007879D01*
X032130Y007804D01*
X031830Y007804D01*
X031755Y007879D01*
X031755Y008029D01*
X031830Y008104D01*
X032055Y007954D02*
X032205Y008104D01*
D15*
X031380Y009000D02*
X031380Y009200D01*
X030980Y009200D02*
X030980Y009050D01*
D16*
X030980Y008985D03*
X031380Y008985D03*
D17*
X028030Y017504D02*
X028030Y020496D01*
X028031Y017504D02*
X028078Y017381D01*
X028129Y017259D01*
X028183Y017139D01*
X028241Y017021D01*
X028303Y016904D01*
X028368Y016790D01*
X028436Y016677D01*
X028508Y016566D01*
X028583Y016458D01*
X028662Y016352D01*
X028743Y016248D01*
X028828Y016147D01*
X028916Y016049D01*
X029006Y015953D01*
X029100Y015860D01*
X029196Y015769D01*
X029295Y015682D01*
X029396Y015598D01*
X029500Y015517D01*
X029606Y015439D01*
X029715Y015364D01*
X029826Y015293D01*
X029939Y015225D01*
X030054Y015160D01*
X030171Y015099D01*
X030289Y015041D01*
X030409Y014987D01*
X030531Y014937D01*
X030655Y014890D01*
X030779Y014847D01*
X030905Y014808D01*
X031032Y014773D01*
X031160Y014741D01*
X031289Y014714D01*
X031419Y014690D01*
X031549Y014670D01*
X031680Y014654D01*
X031812Y014642D01*
X031943Y014634D01*
X032075Y014630D01*
X032207Y014630D01*
X032339Y014634D01*
X032470Y014642D01*
X032602Y014654D01*
X032733Y014670D01*
X032863Y014690D01*
X032993Y014714D01*
X033122Y014741D01*
X033250Y014773D01*
X033377Y014808D01*
X033503Y014847D01*
X033627Y014890D01*
X033751Y014937D01*
X033873Y014987D01*
X033993Y015041D01*
X034111Y015099D01*
X034228Y015160D01*
X034343Y015225D01*
X034456Y015293D01*
X034567Y015364D01*
X034676Y015439D01*
X034782Y015517D01*
X034886Y015598D01*
X034987Y015682D01*
X035086Y015769D01*
X035182Y015860D01*
X035276Y015953D01*
X035366Y016049D01*
X035454Y016147D01*
X035539Y016248D01*
X035620Y016352D01*
X035699Y016458D01*
X035774Y016566D01*
X035846Y016677D01*
X035914Y016790D01*
X035979Y016904D01*
X036041Y017021D01*
X036099Y017139D01*
X036153Y017259D01*
X036204Y017381D01*
X036251Y017504D01*
X037424Y017504D01*
X037424Y020496D01*
X036251Y020496D01*
X036204Y020619D01*
X036153Y020741D01*
X036099Y020861D01*
X036041Y020979D01*
X035979Y021096D01*
X035914Y021210D01*
X035846Y021323D01*
X035774Y021434D01*
X035699Y021542D01*
X035620Y021648D01*
X035539Y021752D01*
X035454Y021853D01*
X035366Y021951D01*
X035276Y022047D01*
X035182Y022140D01*
X035086Y022231D01*
X034987Y022318D01*
X034886Y022402D01*
X034782Y022483D01*
X034676Y022561D01*
X034567Y022636D01*
X034456Y022707D01*
X034343Y022775D01*
X034228Y022840D01*
X034111Y022901D01*
X033993Y022959D01*
X033873Y023013D01*
X033751Y023063D01*
X033627Y023110D01*
X033503Y023153D01*
X033377Y023192D01*
X033250Y023227D01*
X033122Y023259D01*
X032993Y023286D01*
X032863Y023310D01*
X032733Y023330D01*
X032602Y023346D01*
X032470Y023358D01*
X032339Y023366D01*
X032207Y023370D01*
X032075Y023370D01*
X031943Y023366D01*
X031812Y023358D01*
X031680Y023346D01*
X031549Y023330D01*
X031419Y023310D01*
X031289Y023286D01*
X031160Y023259D01*
X031032Y023227D01*
X030905Y023192D01*
X030779Y023153D01*
X030655Y023110D01*
X030531Y023063D01*
X030409Y023013D01*
X030289Y022959D01*
X030171Y022901D01*
X030054Y022840D01*
X029939Y022775D01*
X029826Y022707D01*
X029715Y022636D01*
X029606Y022561D01*
X029500Y022483D01*
X029396Y022402D01*
X029295Y022318D01*
X029196Y022231D01*
X029100Y022140D01*
X029006Y022047D01*
X028916Y021951D01*
X028828Y021853D01*
X028743Y021752D01*
X028662Y021648D01*
X028583Y021542D01*
X028508Y021434D01*
X028436Y021323D01*
X028368Y021210D01*
X028303Y021096D01*
X028241Y020979D01*
X028183Y020861D01*
X028129Y020741D01*
X028078Y020619D01*
X028031Y020496D01*
D18*
X026384Y019405D02*
X026384Y019255D01*
X026334Y019255D02*
X026434Y019255D01*
X026334Y019355D02*
X026384Y019405D01*
X026286Y019405D02*
X026186Y019405D01*
X026236Y019405D02*
X026236Y019255D01*
X026139Y019255D02*
X026139Y019355D01*
X026089Y019405D01*
X026039Y019355D01*
X026039Y019255D01*
X025992Y019280D02*
X025967Y019255D01*
X025892Y019255D01*
X025892Y019405D01*
X025967Y019405D01*
X025992Y019380D01*
X025992Y019355D01*
X025967Y019330D01*
X025892Y019330D01*
X025967Y019330D02*
X025992Y019305D01*
X025992Y019280D01*
X026039Y019330D02*
X026139Y019330D01*
M02*
