G75*
%MOIN*%
%OFA0B0*%
%FSLAX24Y24*%
%IPPOS*%
%LPD*%
%AMOC8*
5,1,8,0,0,1.08239X$1,22.5*
%
%ADD10R,0.0560X0.3810*%
%ADD11C,0.2310*%
%ADD12C,0.2810*%
%ADD13R,2.1000X0.4000*%
%ADD14R,0.0769X0.0769*%
%ADD15C,0.0540*%
%ADD16C,0.0600*%
%ADD17C,0.0540*%
%ADD18C,0.0828*%
%ADD19OC8,0.0540*%
D10*
X009930Y002550D03*
X010930Y002550D03*
X011930Y002550D03*
X012930Y002550D03*
X013930Y002550D03*
X014930Y002550D03*
X015930Y002550D03*
X016930Y002550D03*
X017930Y002550D03*
X018930Y002550D03*
X019930Y002550D03*
X020930Y002550D03*
X021930Y002550D03*
X022930Y002550D03*
X023930Y002550D03*
X024930Y002550D03*
X025930Y002550D03*
X026930Y002550D03*
X027930Y002550D03*
X028930Y002550D03*
D11*
X028355Y007750D03*
X010505Y007750D03*
D12*
X019430Y017250D03*
D13*
X019430Y002500D03*
D14*
X019680Y025000D03*
X018680Y025000D03*
X017680Y025000D03*
X016680Y025000D03*
X015680Y025000D03*
X014680Y025000D03*
X013680Y025000D03*
X012680Y025000D03*
X011680Y025000D03*
X010680Y025000D03*
X009680Y025000D03*
X008680Y025000D03*
X007680Y025000D03*
X006680Y025000D03*
X005680Y025000D03*
X004680Y025000D03*
X004680Y027000D03*
X005680Y027000D03*
X006680Y027000D03*
X007680Y027000D03*
X008680Y027000D03*
X009680Y027000D03*
X010680Y027000D03*
X011680Y027000D03*
X012680Y027000D03*
X013680Y027000D03*
X014680Y027000D03*
X015680Y027000D03*
X016680Y027000D03*
X017680Y027000D03*
X018680Y027000D03*
X019680Y027000D03*
X020680Y027000D03*
X021680Y027000D03*
X022680Y027000D03*
X023680Y027000D03*
X024680Y027000D03*
X025680Y027000D03*
X026680Y027000D03*
X027680Y027000D03*
X028680Y027000D03*
X029680Y027000D03*
X030680Y027000D03*
X031680Y027000D03*
X032680Y027000D03*
X033680Y027000D03*
X034680Y027000D03*
X034680Y025000D03*
X033680Y025000D03*
X032680Y025000D03*
X031680Y025000D03*
X030680Y025000D03*
X029680Y025000D03*
X028680Y025000D03*
X027680Y025000D03*
X026680Y025000D03*
X025680Y025000D03*
X024680Y025000D03*
X023680Y025000D03*
X022680Y025000D03*
X021680Y025000D03*
X020680Y025000D03*
D15*
X021430Y013990D02*
X021430Y013510D01*
X022430Y013510D02*
X022430Y013990D01*
X023430Y013990D02*
X023430Y013510D01*
X024430Y013510D02*
X024430Y013990D01*
X025430Y013990D02*
X025430Y013510D01*
X026430Y013510D02*
X026430Y013990D01*
X027430Y013990D02*
X027430Y013510D01*
X030180Y013740D02*
X030180Y013260D01*
X031180Y013260D02*
X031180Y013740D01*
X032180Y013740D02*
X032180Y013260D01*
X033180Y013260D02*
X033180Y013740D01*
X034180Y013740D02*
X034180Y013260D01*
X035180Y013260D02*
X035180Y013740D01*
X036180Y013740D02*
X036180Y013260D01*
X037180Y013260D02*
X037180Y013740D01*
X037180Y010740D02*
X037180Y010260D01*
X036180Y010260D02*
X036180Y010740D01*
X035180Y010740D02*
X035180Y010260D01*
X034180Y010260D02*
X034180Y010740D01*
X033180Y010740D02*
X033180Y010260D01*
X032180Y010260D02*
X032180Y010740D01*
X031180Y010740D02*
X031180Y010260D01*
X030180Y010260D02*
X030180Y010740D01*
X027430Y010510D02*
X027430Y010990D01*
X026430Y010990D02*
X026430Y010510D01*
X025430Y010510D02*
X025430Y010990D01*
X024430Y010990D02*
X024430Y010510D01*
X023430Y010510D02*
X023430Y010990D01*
X022430Y010990D02*
X022430Y010510D01*
X021430Y010510D02*
X021430Y010990D01*
X014930Y010740D02*
X014930Y010260D01*
X013930Y010260D02*
X013930Y010740D01*
X012930Y010740D02*
X012930Y010260D01*
X011930Y010260D02*
X011930Y010740D01*
X010930Y010740D02*
X010930Y010260D01*
X009930Y010260D02*
X009930Y010740D01*
X008930Y010740D02*
X008930Y010260D01*
X008930Y013260D02*
X008930Y013740D01*
X009930Y013740D02*
X009930Y013260D01*
X010930Y013260D02*
X010930Y013740D01*
X011930Y013740D02*
X011930Y013260D01*
X012930Y013260D02*
X012930Y013740D01*
X013930Y013740D02*
X013930Y013260D01*
X014930Y013260D02*
X014930Y013740D01*
D16*
X006700Y012500D02*
X006160Y012500D01*
X006160Y011500D02*
X006700Y011500D01*
D17*
X030680Y009500D03*
X031680Y009500D03*
D18*
X028971Y019000D03*
X036845Y019000D03*
D19*
X029180Y013500D03*
X029180Y012500D03*
X020180Y013000D03*
X020180Y014000D03*
X007680Y013500D03*
X007680Y012500D03*
M02*
