G75*
%MOIN*%
%OFA0B0*%
%FSLAX24Y24*%
%IPPOS*%
%LPD*%
%AMOC8*
5,1,8,0,0,1.08239X$1,22.5*
%
%ADD10C,0.0050*%
%ADD11C,0.0000*%
D10*
X000430Y005500D02*
X008930Y005500D01*
X008947Y005498D01*
X008964Y005494D01*
X008980Y005487D01*
X008994Y005477D01*
X009007Y005464D01*
X009017Y005450D01*
X009024Y005434D01*
X009028Y005417D01*
X009030Y005400D01*
X009030Y001000D01*
X009032Y000956D01*
X009038Y000913D01*
X009047Y000871D01*
X009060Y000829D01*
X009077Y000789D01*
X009097Y000750D01*
X009120Y000713D01*
X009147Y000679D01*
X009176Y000646D01*
X009209Y000617D01*
X009243Y000590D01*
X009280Y000567D01*
X009319Y000547D01*
X009359Y000530D01*
X009401Y000517D01*
X009443Y000508D01*
X009486Y000502D01*
X009530Y000500D01*
X029330Y000500D01*
X029374Y000502D01*
X029417Y000508D01*
X029459Y000517D01*
X029501Y000530D01*
X029541Y000547D01*
X029580Y000567D01*
X029617Y000590D01*
X029651Y000617D01*
X029684Y000646D01*
X029713Y000679D01*
X029740Y000713D01*
X029763Y000750D01*
X029783Y000789D01*
X029800Y000829D01*
X029813Y000871D01*
X029822Y000913D01*
X029828Y000956D01*
X029830Y001000D01*
X029830Y005400D01*
X029832Y005417D01*
X029836Y005434D01*
X029843Y005450D01*
X029853Y005464D01*
X029866Y005477D01*
X029880Y005487D01*
X029896Y005494D01*
X029913Y005498D01*
X029930Y005500D01*
X038430Y005500D01*
X038430Y028500D01*
X000430Y028500D01*
X000430Y005500D01*
D11*
X018055Y017250D02*
X018057Y017324D01*
X018063Y017397D01*
X018073Y017471D01*
X018087Y017543D01*
X018104Y017615D01*
X018126Y017685D01*
X018151Y017755D01*
X018180Y017823D01*
X018212Y017889D01*
X018249Y017953D01*
X018288Y018016D01*
X018331Y018076D01*
X018377Y018134D01*
X018426Y018189D01*
X018478Y018242D01*
X018532Y018291D01*
X018589Y018338D01*
X018649Y018382D01*
X018711Y018422D01*
X018775Y018459D01*
X018841Y018492D01*
X018908Y018522D01*
X018977Y018548D01*
X019047Y018571D01*
X019119Y018589D01*
X019191Y018604D01*
X019264Y018615D01*
X019338Y018622D01*
X019412Y018625D01*
X019485Y018624D01*
X019559Y018619D01*
X019632Y018610D01*
X019705Y018597D01*
X019777Y018581D01*
X019848Y018560D01*
X019918Y018536D01*
X019986Y018508D01*
X020053Y018476D01*
X020118Y018441D01*
X020180Y018402D01*
X020241Y018360D01*
X020300Y018315D01*
X020356Y018267D01*
X020409Y018216D01*
X020459Y018162D01*
X020507Y018105D01*
X020551Y018046D01*
X020592Y017985D01*
X020630Y017921D01*
X020664Y017856D01*
X020695Y017789D01*
X020722Y017720D01*
X020745Y017650D01*
X020765Y017579D01*
X020781Y017507D01*
X020793Y017434D01*
X020801Y017361D01*
X020805Y017287D01*
X020805Y017213D01*
X020801Y017139D01*
X020793Y017066D01*
X020781Y016993D01*
X020765Y016921D01*
X020745Y016850D01*
X020722Y016780D01*
X020695Y016711D01*
X020664Y016644D01*
X020630Y016579D01*
X020592Y016515D01*
X020551Y016454D01*
X020507Y016395D01*
X020459Y016338D01*
X020409Y016284D01*
X020356Y016233D01*
X020300Y016185D01*
X020241Y016140D01*
X020180Y016098D01*
X020117Y016059D01*
X020053Y016024D01*
X019986Y015992D01*
X019918Y015964D01*
X019848Y015940D01*
X019777Y015919D01*
X019705Y015903D01*
X019632Y015890D01*
X019559Y015881D01*
X019485Y015876D01*
X019412Y015875D01*
X019338Y015878D01*
X019264Y015885D01*
X019191Y015896D01*
X019119Y015911D01*
X019047Y015929D01*
X018977Y015952D01*
X018908Y015978D01*
X018841Y016008D01*
X018775Y016041D01*
X018711Y016078D01*
X018649Y016118D01*
X018589Y016162D01*
X018532Y016209D01*
X018478Y016258D01*
X018426Y016311D01*
X018377Y016366D01*
X018331Y016424D01*
X018288Y016484D01*
X018249Y016547D01*
X018212Y016611D01*
X018180Y016677D01*
X018151Y016745D01*
X018126Y016815D01*
X018104Y016885D01*
X018087Y016957D01*
X018073Y017029D01*
X018063Y017103D01*
X018057Y017176D01*
X018055Y017250D01*
M02*
