G04 EAGLE Gerber RS-274X export*
G75*
%MOMM*%
%FSLAX34Y34*%
%LPD*%
%INSilkscreen Top*%
%IPPOS*%
%AMOC8*
5,1,8,0,0,1.08239X$1,22.5*%
G01*
%ADD10C,0.076200*%
%ADD11C,0.152400*%
%ADD12C,0.101600*%
%ADD13C,1.270000*%
%ADD14C,0.127000*%
%ADD15C,0.177800*%
%ADD16R,2.032000X0.508000*%
%ADD17R,0.508000X1.905000*%
%ADD18R,0.508000X1.870000*%
%ADD19R,0.635000X0.850000*%
%ADD20C,0.254000*%
%ADD21C,0.304800*%
%ADD22R,0.381000X0.508000*%
%ADD23R,0.508000X0.381000*%


D10*
X762302Y210149D02*
X760734Y211717D01*
X757599Y211717D01*
X756031Y210149D01*
X756031Y203879D01*
X757599Y202311D01*
X760734Y202311D01*
X762302Y203879D01*
X766954Y202311D02*
X770089Y202311D01*
X771657Y203879D01*
X771657Y207014D01*
X770089Y208582D01*
X766954Y208582D01*
X765386Y207014D01*
X765386Y203879D01*
X766954Y202311D01*
X776309Y208582D02*
X781012Y208582D01*
X776309Y208582D02*
X774741Y207014D01*
X774741Y203879D01*
X776309Y202311D01*
X781012Y202311D01*
X785664Y202311D02*
X788800Y202311D01*
X790367Y203879D01*
X790367Y207014D01*
X788800Y208582D01*
X785664Y208582D01*
X784097Y207014D01*
X784097Y203879D01*
X785664Y202311D01*
X802807Y202311D02*
X802807Y211717D01*
X807510Y211717D01*
X809078Y210149D01*
X809078Y207014D01*
X807510Y205446D01*
X802807Y205446D01*
X812162Y208582D02*
X813730Y208582D01*
X813730Y202311D01*
X815297Y202311D02*
X812162Y202311D01*
X813730Y211717D02*
X813730Y213285D01*
X819967Y208582D02*
X824670Y208582D01*
X819967Y208582D02*
X818399Y207014D01*
X818399Y203879D01*
X819967Y202311D01*
X824670Y202311D01*
X829322Y202311D02*
X832457Y202311D01*
X834025Y203879D01*
X834025Y207014D01*
X832457Y208582D01*
X829322Y208582D01*
X827754Y207014D01*
X827754Y203879D01*
X829322Y202311D01*
X846464Y202311D02*
X846464Y211717D01*
X849600Y208582D01*
X852735Y211717D01*
X852735Y202311D01*
X855820Y203879D02*
X855820Y208582D01*
X855820Y203879D02*
X857387Y202311D01*
X862090Y202311D01*
X862090Y208582D01*
X865175Y211717D02*
X866743Y211717D01*
X866743Y202311D01*
X868310Y202311D02*
X865175Y202311D01*
X872979Y203879D02*
X872979Y210149D01*
X872979Y203879D02*
X874547Y202311D01*
X874547Y208582D02*
X871412Y208582D01*
X877648Y208582D02*
X879216Y208582D01*
X879216Y202311D01*
X877648Y202311D02*
X880784Y202311D01*
X879216Y211717D02*
X879216Y213285D01*
X885453Y208582D02*
X890156Y208582D01*
X885453Y208582D02*
X883885Y207014D01*
X883885Y203879D01*
X885453Y202311D01*
X890156Y202311D01*
X894808Y208582D02*
X897943Y208582D01*
X899511Y207014D01*
X899511Y202311D01*
X894808Y202311D01*
X893240Y203879D01*
X894808Y205446D01*
X899511Y205446D01*
X902596Y202311D02*
X902596Y208582D01*
X905731Y208582D02*
X902596Y205446D01*
X905731Y208582D02*
X907299Y208582D01*
X911959Y210149D02*
X911959Y203879D01*
X913527Y202311D01*
X913527Y208582D02*
X910392Y208582D01*
X925984Y208582D02*
X929119Y202311D01*
X932254Y208582D01*
X935339Y210149D02*
X935339Y203879D01*
X935339Y210149D02*
X936906Y211717D01*
X940042Y211717D01*
X941609Y210149D01*
X941609Y203879D01*
X940042Y202311D01*
X936906Y202311D01*
X935339Y203879D01*
X941609Y210149D01*
X944694Y203879D02*
X944694Y202311D01*
X944694Y203879D02*
X946262Y203879D01*
X946262Y202311D01*
X944694Y202311D01*
X949371Y202311D02*
X955642Y202311D01*
X949371Y202311D02*
X955642Y208582D01*
X955642Y210149D01*
X954074Y211717D01*
X950939Y211717D01*
X949371Y210149D01*
X762302Y194909D02*
X760734Y196477D01*
X757599Y196477D01*
X756031Y194909D01*
X756031Y193342D01*
X757599Y191774D01*
X760734Y191774D01*
X762302Y190206D01*
X762302Y188639D01*
X760734Y187071D01*
X757599Y187071D01*
X756031Y188639D01*
X766954Y193342D02*
X771657Y193342D01*
X766954Y193342D02*
X765386Y191774D01*
X765386Y188639D01*
X766954Y187071D01*
X771657Y187071D01*
X776309Y187071D02*
X779444Y187071D01*
X781012Y188639D01*
X781012Y191774D01*
X779444Y193342D01*
X776309Y193342D01*
X774741Y191774D01*
X774741Y188639D01*
X776309Y187071D01*
X785664Y188639D02*
X785664Y194909D01*
X785664Y188639D02*
X787232Y187071D01*
X787232Y193342D02*
X784097Y193342D01*
X791901Y194909D02*
X791901Y188639D01*
X793469Y187071D01*
X793469Y193342D02*
X790333Y193342D01*
X805925Y196477D02*
X805925Y187071D01*
X805925Y196477D02*
X810628Y196477D01*
X812196Y194909D01*
X812196Y193342D01*
X810628Y191774D01*
X812196Y190206D01*
X812196Y188639D01*
X810628Y187071D01*
X805925Y187071D01*
X805925Y191774D02*
X810628Y191774D01*
X816848Y193342D02*
X819984Y193342D01*
X821551Y191774D01*
X821551Y187071D01*
X816848Y187071D01*
X815281Y188639D01*
X816848Y190206D01*
X821551Y190206D01*
X824636Y187071D02*
X824636Y196477D01*
X824636Y190206D02*
X829339Y187071D01*
X824636Y190206D02*
X829339Y193342D01*
X833999Y187071D02*
X837135Y187071D01*
X833999Y187071D02*
X832432Y188639D01*
X832432Y191774D01*
X833999Y193342D01*
X837135Y193342D01*
X838702Y191774D01*
X838702Y190206D01*
X832432Y190206D01*
X841787Y187071D02*
X841787Y193342D01*
X844922Y193342D02*
X841787Y190206D01*
X844922Y193342D02*
X846490Y193342D01*
X852718Y187071D02*
X849583Y183936D01*
X852718Y187071D02*
X852718Y188639D01*
X851150Y188639D01*
X851150Y187071D01*
X852718Y187071D01*
X756031Y181237D02*
X756031Y171831D01*
X756031Y176534D02*
X757599Y178102D01*
X760734Y178102D01*
X762302Y176534D01*
X762302Y171831D01*
X766954Y173399D02*
X766954Y179669D01*
X766954Y173399D02*
X768522Y171831D01*
X768522Y178102D02*
X765386Y178102D01*
X773191Y179669D02*
X773191Y173399D01*
X774758Y171831D01*
X774758Y178102D02*
X771623Y178102D01*
X777860Y178102D02*
X777860Y168696D01*
X777860Y178102D02*
X782563Y178102D01*
X784130Y176534D01*
X784130Y173399D01*
X782563Y171831D01*
X777860Y171831D01*
X787215Y178102D02*
X788783Y178102D01*
X788783Y176534D01*
X787215Y176534D01*
X787215Y178102D01*
X787215Y173399D02*
X788783Y173399D01*
X788783Y171831D01*
X787215Y171831D01*
X787215Y173399D01*
X791893Y171831D02*
X798163Y181237D01*
X807518Y181237D02*
X801248Y171831D01*
X810603Y173399D02*
X810603Y178102D01*
X810603Y173399D02*
X812171Y171831D01*
X813738Y173399D01*
X815306Y171831D01*
X816874Y173399D01*
X816874Y178102D01*
X819958Y178102D02*
X819958Y173399D01*
X821526Y171831D01*
X823093Y173399D01*
X824661Y171831D01*
X826229Y173399D01*
X826229Y178102D01*
X829313Y178102D02*
X829313Y173399D01*
X830881Y171831D01*
X832449Y173399D01*
X834016Y171831D01*
X835584Y173399D01*
X835584Y178102D01*
X838668Y173399D02*
X838668Y171831D01*
X838668Y173399D02*
X840236Y173399D01*
X840236Y171831D01*
X838668Y171831D01*
X843346Y171831D02*
X848049Y171831D01*
X849617Y173399D01*
X848049Y174966D01*
X844914Y174966D01*
X843346Y176534D01*
X844914Y178102D01*
X849617Y178102D01*
X852701Y178102D02*
X852701Y171831D01*
X852701Y178102D02*
X854269Y178102D01*
X855837Y176534D01*
X855837Y171831D01*
X855837Y176534D02*
X857404Y178102D01*
X858972Y176534D01*
X858972Y171831D01*
X862056Y171831D02*
X862056Y181237D01*
X862056Y171831D02*
X866759Y171831D01*
X868327Y173399D01*
X868327Y176534D01*
X866759Y178102D01*
X862056Y178102D01*
X872979Y178102D02*
X876115Y178102D01*
X877682Y176534D01*
X877682Y171831D01*
X872979Y171831D01*
X871412Y173399D01*
X872979Y174966D01*
X877682Y174966D01*
X880767Y171831D02*
X880767Y181237D01*
X880767Y174966D02*
X885470Y171831D01*
X880767Y174966D02*
X885470Y178102D01*
X890130Y171831D02*
X893266Y171831D01*
X890130Y171831D02*
X888563Y173399D01*
X888563Y176534D01*
X890130Y178102D01*
X893266Y178102D01*
X894833Y176534D01*
X894833Y174966D01*
X888563Y174966D01*
X897918Y171831D02*
X897918Y178102D01*
X901053Y178102D02*
X897918Y174966D01*
X901053Y178102D02*
X902621Y178102D01*
X905714Y173399D02*
X905714Y171831D01*
X905714Y173399D02*
X907282Y173399D01*
X907282Y171831D01*
X905714Y171831D01*
X911959Y178102D02*
X916662Y178102D01*
X911959Y178102D02*
X910392Y176534D01*
X910392Y173399D01*
X911959Y171831D01*
X916662Y171831D01*
X921314Y171831D02*
X924450Y171831D01*
X926017Y173399D01*
X926017Y176534D01*
X924450Y178102D01*
X921314Y178102D01*
X919747Y176534D01*
X919747Y173399D01*
X921314Y171831D01*
X929102Y171831D02*
X929102Y178102D01*
X930670Y178102D01*
X932237Y176534D01*
X932237Y171831D01*
X932237Y176534D02*
X933805Y178102D01*
X935373Y176534D01*
X935373Y171831D01*
X938457Y171831D02*
X944728Y181237D01*
D11*
X412750Y565150D02*
X412750Y819150D01*
X412750Y565150D02*
X692150Y565150D01*
X692150Y819150D01*
X412750Y819150D01*
X298450Y533400D02*
X952500Y533400D01*
D12*
X239859Y108722D02*
X235961Y104824D01*
X239859Y108722D02*
X239859Y97028D01*
X235961Y97028D02*
X243757Y97028D01*
X712714Y106773D02*
X714663Y108722D01*
X718561Y108722D01*
X720510Y106773D01*
X720510Y104824D01*
X718561Y102875D01*
X716612Y102875D01*
X718561Y102875D02*
X720510Y100926D01*
X720510Y98977D01*
X718561Y97028D01*
X714663Y97028D01*
X712714Y98977D01*
X724408Y98977D02*
X726357Y97028D01*
X730255Y97028D01*
X732204Y98977D01*
X732204Y106773D01*
X730255Y108722D01*
X726357Y108722D01*
X724408Y106773D01*
X724408Y104824D01*
X726357Y102875D01*
X732204Y102875D01*
D11*
X238350Y316500D02*
X238350Y325200D01*
X238350Y335200D02*
X238350Y350600D01*
X238350Y360600D02*
X238350Y376000D01*
X238350Y386000D02*
X238350Y401400D01*
X238350Y411400D02*
X238350Y426800D01*
X238350Y436800D02*
X238350Y452200D01*
X238350Y462200D02*
X238350Y477600D01*
X238350Y487600D02*
X238350Y503000D01*
X238350Y513000D02*
X238350Y528400D01*
X238350Y538400D02*
X238350Y553800D01*
X238350Y563800D02*
X238350Y579200D01*
X238350Y589200D02*
X238350Y604600D01*
X238350Y614600D02*
X238350Y630000D01*
X238350Y640000D02*
X238350Y655400D01*
X238350Y665400D02*
X238350Y680800D01*
X238350Y690800D02*
X238350Y706200D01*
X238350Y716200D02*
X238350Y731600D01*
X238350Y741600D02*
X238350Y757000D01*
X238350Y767000D02*
X238350Y782400D01*
X238350Y792400D02*
X238350Y807800D01*
X238350Y817800D02*
X238350Y826500D01*
X28350Y826500D02*
X28350Y817800D01*
X28350Y807800D02*
X28350Y792400D01*
X28350Y782400D02*
X28350Y767000D01*
X28350Y757000D02*
X28350Y741600D01*
X28350Y731600D02*
X28350Y716200D01*
X28350Y706200D02*
X28350Y690800D01*
X28350Y680800D02*
X28350Y665400D01*
X28350Y655400D02*
X28350Y640000D01*
X28350Y630000D02*
X28350Y614600D01*
X28350Y604600D02*
X28350Y589200D01*
X28350Y579200D02*
X28350Y563800D01*
X28350Y553800D02*
X28350Y538400D01*
X28350Y528400D02*
X28350Y513000D01*
X28350Y503000D02*
X28350Y487600D01*
X28350Y477600D02*
X28350Y462200D01*
X28350Y452200D02*
X28350Y436800D01*
X28350Y426800D02*
X28350Y411400D01*
X28350Y401400D02*
X28350Y386000D01*
X28350Y376000D02*
X28350Y360600D01*
X28350Y350600D02*
X28350Y335200D01*
X28350Y325200D02*
X28350Y316500D01*
X163750Y316500D02*
X238350Y316500D01*
X153750Y316500D02*
X138350Y316500D01*
X128350Y316500D02*
X112950Y316500D01*
X102950Y316500D02*
X28350Y316500D01*
X28350Y826500D02*
X238350Y826500D01*
D13*
X6350Y825500D03*
D14*
X93350Y839500D02*
X173350Y839500D01*
X173350Y771500D01*
X93350Y771500D01*
X93350Y839500D01*
X28350Y792400D02*
X28490Y792398D01*
X28630Y792392D01*
X28770Y792382D01*
X28910Y792369D01*
X29049Y792351D01*
X29188Y792329D01*
X29325Y792304D01*
X29463Y792275D01*
X29599Y792242D01*
X29734Y792205D01*
X29868Y792164D01*
X30001Y792119D01*
X30133Y792071D01*
X30263Y792019D01*
X30392Y791964D01*
X30519Y791905D01*
X30645Y791842D01*
X30769Y791776D01*
X30890Y791707D01*
X31010Y791634D01*
X31128Y791557D01*
X31243Y791478D01*
X31357Y791395D01*
X31467Y791309D01*
X31576Y791220D01*
X31682Y791128D01*
X31785Y791033D01*
X31886Y790936D01*
X31983Y790835D01*
X32078Y790732D01*
X32170Y790626D01*
X32259Y790517D01*
X32345Y790407D01*
X32428Y790293D01*
X32507Y790178D01*
X32584Y790060D01*
X32657Y789940D01*
X32726Y789819D01*
X32792Y789695D01*
X32855Y789569D01*
X32914Y789442D01*
X32969Y789313D01*
X33021Y789183D01*
X33069Y789051D01*
X33114Y788918D01*
X33155Y788784D01*
X33192Y788649D01*
X33225Y788513D01*
X33254Y788375D01*
X33279Y788238D01*
X33301Y788099D01*
X33319Y787960D01*
X33332Y787820D01*
X33342Y787680D01*
X33348Y787540D01*
X33350Y787400D01*
X33348Y787260D01*
X33342Y787120D01*
X33332Y786980D01*
X33319Y786840D01*
X33301Y786701D01*
X33279Y786562D01*
X33254Y786425D01*
X33225Y786287D01*
X33192Y786151D01*
X33155Y786016D01*
X33114Y785882D01*
X33069Y785749D01*
X33021Y785617D01*
X32969Y785487D01*
X32914Y785358D01*
X32855Y785231D01*
X32792Y785105D01*
X32726Y784981D01*
X32657Y784860D01*
X32584Y784740D01*
X32507Y784622D01*
X32428Y784507D01*
X32345Y784393D01*
X32259Y784283D01*
X32170Y784174D01*
X32078Y784068D01*
X31983Y783965D01*
X31886Y783864D01*
X31785Y783767D01*
X31682Y783672D01*
X31576Y783580D01*
X31467Y783491D01*
X31357Y783405D01*
X31243Y783322D01*
X31128Y783243D01*
X31010Y783166D01*
X30890Y783093D01*
X30769Y783024D01*
X30645Y782958D01*
X30519Y782895D01*
X30392Y782836D01*
X30263Y782781D01*
X30133Y782729D01*
X30001Y782681D01*
X29868Y782636D01*
X29734Y782595D01*
X29599Y782558D01*
X29463Y782525D01*
X29325Y782496D01*
X29188Y782471D01*
X29049Y782449D01*
X28910Y782431D01*
X28770Y782418D01*
X28630Y782408D01*
X28490Y782402D01*
X28350Y782400D01*
X28350Y807800D02*
X28490Y807802D01*
X28630Y807808D01*
X28770Y807818D01*
X28910Y807831D01*
X29049Y807849D01*
X29188Y807871D01*
X29325Y807896D01*
X29463Y807925D01*
X29599Y807958D01*
X29734Y807995D01*
X29868Y808036D01*
X30001Y808081D01*
X30133Y808129D01*
X30263Y808181D01*
X30392Y808236D01*
X30519Y808295D01*
X30645Y808358D01*
X30769Y808424D01*
X30890Y808493D01*
X31010Y808566D01*
X31128Y808643D01*
X31243Y808722D01*
X31357Y808805D01*
X31467Y808891D01*
X31576Y808980D01*
X31682Y809072D01*
X31785Y809167D01*
X31886Y809264D01*
X31983Y809365D01*
X32078Y809468D01*
X32170Y809574D01*
X32259Y809683D01*
X32345Y809793D01*
X32428Y809907D01*
X32507Y810022D01*
X32584Y810140D01*
X32657Y810260D01*
X32726Y810381D01*
X32792Y810505D01*
X32855Y810631D01*
X32914Y810758D01*
X32969Y810887D01*
X33021Y811017D01*
X33069Y811149D01*
X33114Y811282D01*
X33155Y811416D01*
X33192Y811551D01*
X33225Y811687D01*
X33254Y811825D01*
X33279Y811962D01*
X33301Y812101D01*
X33319Y812240D01*
X33332Y812380D01*
X33342Y812520D01*
X33348Y812660D01*
X33350Y812800D01*
X33348Y812940D01*
X33342Y813080D01*
X33332Y813220D01*
X33319Y813360D01*
X33301Y813499D01*
X33279Y813638D01*
X33254Y813775D01*
X33225Y813913D01*
X33192Y814049D01*
X33155Y814184D01*
X33114Y814318D01*
X33069Y814451D01*
X33021Y814583D01*
X32969Y814713D01*
X32914Y814842D01*
X32855Y814969D01*
X32792Y815095D01*
X32726Y815219D01*
X32657Y815340D01*
X32584Y815460D01*
X32507Y815578D01*
X32428Y815693D01*
X32345Y815807D01*
X32259Y815917D01*
X32170Y816026D01*
X32078Y816132D01*
X31983Y816235D01*
X31886Y816336D01*
X31785Y816433D01*
X31682Y816528D01*
X31576Y816620D01*
X31467Y816709D01*
X31357Y816795D01*
X31243Y816878D01*
X31128Y816957D01*
X31010Y817034D01*
X30890Y817107D01*
X30769Y817176D01*
X30645Y817242D01*
X30519Y817305D01*
X30392Y817364D01*
X30263Y817419D01*
X30133Y817471D01*
X30001Y817519D01*
X29868Y817564D01*
X29734Y817605D01*
X29599Y817642D01*
X29463Y817675D01*
X29325Y817704D01*
X29188Y817729D01*
X29049Y817751D01*
X28910Y817769D01*
X28770Y817782D01*
X28630Y817792D01*
X28490Y817798D01*
X28350Y817800D01*
X28350Y767000D02*
X28490Y766998D01*
X28630Y766992D01*
X28770Y766982D01*
X28910Y766969D01*
X29049Y766951D01*
X29188Y766929D01*
X29325Y766904D01*
X29463Y766875D01*
X29599Y766842D01*
X29734Y766805D01*
X29868Y766764D01*
X30001Y766719D01*
X30133Y766671D01*
X30263Y766619D01*
X30392Y766564D01*
X30519Y766505D01*
X30645Y766442D01*
X30769Y766376D01*
X30890Y766307D01*
X31010Y766234D01*
X31128Y766157D01*
X31243Y766078D01*
X31357Y765995D01*
X31467Y765909D01*
X31576Y765820D01*
X31682Y765728D01*
X31785Y765633D01*
X31886Y765536D01*
X31983Y765435D01*
X32078Y765332D01*
X32170Y765226D01*
X32259Y765117D01*
X32345Y765007D01*
X32428Y764893D01*
X32507Y764778D01*
X32584Y764660D01*
X32657Y764540D01*
X32726Y764419D01*
X32792Y764295D01*
X32855Y764169D01*
X32914Y764042D01*
X32969Y763913D01*
X33021Y763783D01*
X33069Y763651D01*
X33114Y763518D01*
X33155Y763384D01*
X33192Y763249D01*
X33225Y763113D01*
X33254Y762975D01*
X33279Y762838D01*
X33301Y762699D01*
X33319Y762560D01*
X33332Y762420D01*
X33342Y762280D01*
X33348Y762140D01*
X33350Y762000D01*
X33348Y761860D01*
X33342Y761720D01*
X33332Y761580D01*
X33319Y761440D01*
X33301Y761301D01*
X33279Y761162D01*
X33254Y761025D01*
X33225Y760887D01*
X33192Y760751D01*
X33155Y760616D01*
X33114Y760482D01*
X33069Y760349D01*
X33021Y760217D01*
X32969Y760087D01*
X32914Y759958D01*
X32855Y759831D01*
X32792Y759705D01*
X32726Y759581D01*
X32657Y759460D01*
X32584Y759340D01*
X32507Y759222D01*
X32428Y759107D01*
X32345Y758993D01*
X32259Y758883D01*
X32170Y758774D01*
X32078Y758668D01*
X31983Y758565D01*
X31886Y758464D01*
X31785Y758367D01*
X31682Y758272D01*
X31576Y758180D01*
X31467Y758091D01*
X31357Y758005D01*
X31243Y757922D01*
X31128Y757843D01*
X31010Y757766D01*
X30890Y757693D01*
X30769Y757624D01*
X30645Y757558D01*
X30519Y757495D01*
X30392Y757436D01*
X30263Y757381D01*
X30133Y757329D01*
X30001Y757281D01*
X29868Y757236D01*
X29734Y757195D01*
X29599Y757158D01*
X29463Y757125D01*
X29325Y757096D01*
X29188Y757071D01*
X29049Y757049D01*
X28910Y757031D01*
X28770Y757018D01*
X28630Y757008D01*
X28490Y757002D01*
X28350Y757000D01*
X28350Y741600D02*
X28490Y741598D01*
X28630Y741592D01*
X28770Y741582D01*
X28910Y741569D01*
X29049Y741551D01*
X29188Y741529D01*
X29325Y741504D01*
X29463Y741475D01*
X29599Y741442D01*
X29734Y741405D01*
X29868Y741364D01*
X30001Y741319D01*
X30133Y741271D01*
X30263Y741219D01*
X30392Y741164D01*
X30519Y741105D01*
X30645Y741042D01*
X30769Y740976D01*
X30890Y740907D01*
X31010Y740834D01*
X31128Y740757D01*
X31243Y740678D01*
X31357Y740595D01*
X31467Y740509D01*
X31576Y740420D01*
X31682Y740328D01*
X31785Y740233D01*
X31886Y740136D01*
X31983Y740035D01*
X32078Y739932D01*
X32170Y739826D01*
X32259Y739717D01*
X32345Y739607D01*
X32428Y739493D01*
X32507Y739378D01*
X32584Y739260D01*
X32657Y739140D01*
X32726Y739019D01*
X32792Y738895D01*
X32855Y738769D01*
X32914Y738642D01*
X32969Y738513D01*
X33021Y738383D01*
X33069Y738251D01*
X33114Y738118D01*
X33155Y737984D01*
X33192Y737849D01*
X33225Y737713D01*
X33254Y737575D01*
X33279Y737438D01*
X33301Y737299D01*
X33319Y737160D01*
X33332Y737020D01*
X33342Y736880D01*
X33348Y736740D01*
X33350Y736600D01*
X33348Y736460D01*
X33342Y736320D01*
X33332Y736180D01*
X33319Y736040D01*
X33301Y735901D01*
X33279Y735762D01*
X33254Y735625D01*
X33225Y735487D01*
X33192Y735351D01*
X33155Y735216D01*
X33114Y735082D01*
X33069Y734949D01*
X33021Y734817D01*
X32969Y734687D01*
X32914Y734558D01*
X32855Y734431D01*
X32792Y734305D01*
X32726Y734181D01*
X32657Y734060D01*
X32584Y733940D01*
X32507Y733822D01*
X32428Y733707D01*
X32345Y733593D01*
X32259Y733483D01*
X32170Y733374D01*
X32078Y733268D01*
X31983Y733165D01*
X31886Y733064D01*
X31785Y732967D01*
X31682Y732872D01*
X31576Y732780D01*
X31467Y732691D01*
X31357Y732605D01*
X31243Y732522D01*
X31128Y732443D01*
X31010Y732366D01*
X30890Y732293D01*
X30769Y732224D01*
X30645Y732158D01*
X30519Y732095D01*
X30392Y732036D01*
X30263Y731981D01*
X30133Y731929D01*
X30001Y731881D01*
X29868Y731836D01*
X29734Y731795D01*
X29599Y731758D01*
X29463Y731725D01*
X29325Y731696D01*
X29188Y731671D01*
X29049Y731649D01*
X28910Y731631D01*
X28770Y731618D01*
X28630Y731608D01*
X28490Y731602D01*
X28350Y731600D01*
X28350Y716200D02*
X28490Y716198D01*
X28630Y716192D01*
X28770Y716182D01*
X28910Y716169D01*
X29049Y716151D01*
X29188Y716129D01*
X29325Y716104D01*
X29463Y716075D01*
X29599Y716042D01*
X29734Y716005D01*
X29868Y715964D01*
X30001Y715919D01*
X30133Y715871D01*
X30263Y715819D01*
X30392Y715764D01*
X30519Y715705D01*
X30645Y715642D01*
X30769Y715576D01*
X30890Y715507D01*
X31010Y715434D01*
X31128Y715357D01*
X31243Y715278D01*
X31357Y715195D01*
X31467Y715109D01*
X31576Y715020D01*
X31682Y714928D01*
X31785Y714833D01*
X31886Y714736D01*
X31983Y714635D01*
X32078Y714532D01*
X32170Y714426D01*
X32259Y714317D01*
X32345Y714207D01*
X32428Y714093D01*
X32507Y713978D01*
X32584Y713860D01*
X32657Y713740D01*
X32726Y713619D01*
X32792Y713495D01*
X32855Y713369D01*
X32914Y713242D01*
X32969Y713113D01*
X33021Y712983D01*
X33069Y712851D01*
X33114Y712718D01*
X33155Y712584D01*
X33192Y712449D01*
X33225Y712313D01*
X33254Y712175D01*
X33279Y712038D01*
X33301Y711899D01*
X33319Y711760D01*
X33332Y711620D01*
X33342Y711480D01*
X33348Y711340D01*
X33350Y711200D01*
X33348Y711060D01*
X33342Y710920D01*
X33332Y710780D01*
X33319Y710640D01*
X33301Y710501D01*
X33279Y710362D01*
X33254Y710225D01*
X33225Y710087D01*
X33192Y709951D01*
X33155Y709816D01*
X33114Y709682D01*
X33069Y709549D01*
X33021Y709417D01*
X32969Y709287D01*
X32914Y709158D01*
X32855Y709031D01*
X32792Y708905D01*
X32726Y708781D01*
X32657Y708660D01*
X32584Y708540D01*
X32507Y708422D01*
X32428Y708307D01*
X32345Y708193D01*
X32259Y708083D01*
X32170Y707974D01*
X32078Y707868D01*
X31983Y707765D01*
X31886Y707664D01*
X31785Y707567D01*
X31682Y707472D01*
X31576Y707380D01*
X31467Y707291D01*
X31357Y707205D01*
X31243Y707122D01*
X31128Y707043D01*
X31010Y706966D01*
X30890Y706893D01*
X30769Y706824D01*
X30645Y706758D01*
X30519Y706695D01*
X30392Y706636D01*
X30263Y706581D01*
X30133Y706529D01*
X30001Y706481D01*
X29868Y706436D01*
X29734Y706395D01*
X29599Y706358D01*
X29463Y706325D01*
X29325Y706296D01*
X29188Y706271D01*
X29049Y706249D01*
X28910Y706231D01*
X28770Y706218D01*
X28630Y706208D01*
X28490Y706202D01*
X28350Y706200D01*
X28350Y690800D02*
X28490Y690798D01*
X28630Y690792D01*
X28770Y690782D01*
X28910Y690769D01*
X29049Y690751D01*
X29188Y690729D01*
X29325Y690704D01*
X29463Y690675D01*
X29599Y690642D01*
X29734Y690605D01*
X29868Y690564D01*
X30001Y690519D01*
X30133Y690471D01*
X30263Y690419D01*
X30392Y690364D01*
X30519Y690305D01*
X30645Y690242D01*
X30769Y690176D01*
X30890Y690107D01*
X31010Y690034D01*
X31128Y689957D01*
X31243Y689878D01*
X31357Y689795D01*
X31467Y689709D01*
X31576Y689620D01*
X31682Y689528D01*
X31785Y689433D01*
X31886Y689336D01*
X31983Y689235D01*
X32078Y689132D01*
X32170Y689026D01*
X32259Y688917D01*
X32345Y688807D01*
X32428Y688693D01*
X32507Y688578D01*
X32584Y688460D01*
X32657Y688340D01*
X32726Y688219D01*
X32792Y688095D01*
X32855Y687969D01*
X32914Y687842D01*
X32969Y687713D01*
X33021Y687583D01*
X33069Y687451D01*
X33114Y687318D01*
X33155Y687184D01*
X33192Y687049D01*
X33225Y686913D01*
X33254Y686775D01*
X33279Y686638D01*
X33301Y686499D01*
X33319Y686360D01*
X33332Y686220D01*
X33342Y686080D01*
X33348Y685940D01*
X33350Y685800D01*
X33348Y685660D01*
X33342Y685520D01*
X33332Y685380D01*
X33319Y685240D01*
X33301Y685101D01*
X33279Y684962D01*
X33254Y684825D01*
X33225Y684687D01*
X33192Y684551D01*
X33155Y684416D01*
X33114Y684282D01*
X33069Y684149D01*
X33021Y684017D01*
X32969Y683887D01*
X32914Y683758D01*
X32855Y683631D01*
X32792Y683505D01*
X32726Y683381D01*
X32657Y683260D01*
X32584Y683140D01*
X32507Y683022D01*
X32428Y682907D01*
X32345Y682793D01*
X32259Y682683D01*
X32170Y682574D01*
X32078Y682468D01*
X31983Y682365D01*
X31886Y682264D01*
X31785Y682167D01*
X31682Y682072D01*
X31576Y681980D01*
X31467Y681891D01*
X31357Y681805D01*
X31243Y681722D01*
X31128Y681643D01*
X31010Y681566D01*
X30890Y681493D01*
X30769Y681424D01*
X30645Y681358D01*
X30519Y681295D01*
X30392Y681236D01*
X30263Y681181D01*
X30133Y681129D01*
X30001Y681081D01*
X29868Y681036D01*
X29734Y680995D01*
X29599Y680958D01*
X29463Y680925D01*
X29325Y680896D01*
X29188Y680871D01*
X29049Y680849D01*
X28910Y680831D01*
X28770Y680818D01*
X28630Y680808D01*
X28490Y680802D01*
X28350Y680800D01*
X28350Y665400D02*
X28490Y665398D01*
X28630Y665392D01*
X28770Y665382D01*
X28910Y665369D01*
X29049Y665351D01*
X29188Y665329D01*
X29325Y665304D01*
X29463Y665275D01*
X29599Y665242D01*
X29734Y665205D01*
X29868Y665164D01*
X30001Y665119D01*
X30133Y665071D01*
X30263Y665019D01*
X30392Y664964D01*
X30519Y664905D01*
X30645Y664842D01*
X30769Y664776D01*
X30890Y664707D01*
X31010Y664634D01*
X31128Y664557D01*
X31243Y664478D01*
X31357Y664395D01*
X31467Y664309D01*
X31576Y664220D01*
X31682Y664128D01*
X31785Y664033D01*
X31886Y663936D01*
X31983Y663835D01*
X32078Y663732D01*
X32170Y663626D01*
X32259Y663517D01*
X32345Y663407D01*
X32428Y663293D01*
X32507Y663178D01*
X32584Y663060D01*
X32657Y662940D01*
X32726Y662819D01*
X32792Y662695D01*
X32855Y662569D01*
X32914Y662442D01*
X32969Y662313D01*
X33021Y662183D01*
X33069Y662051D01*
X33114Y661918D01*
X33155Y661784D01*
X33192Y661649D01*
X33225Y661513D01*
X33254Y661375D01*
X33279Y661238D01*
X33301Y661099D01*
X33319Y660960D01*
X33332Y660820D01*
X33342Y660680D01*
X33348Y660540D01*
X33350Y660400D01*
X33348Y660260D01*
X33342Y660120D01*
X33332Y659980D01*
X33319Y659840D01*
X33301Y659701D01*
X33279Y659562D01*
X33254Y659425D01*
X33225Y659287D01*
X33192Y659151D01*
X33155Y659016D01*
X33114Y658882D01*
X33069Y658749D01*
X33021Y658617D01*
X32969Y658487D01*
X32914Y658358D01*
X32855Y658231D01*
X32792Y658105D01*
X32726Y657981D01*
X32657Y657860D01*
X32584Y657740D01*
X32507Y657622D01*
X32428Y657507D01*
X32345Y657393D01*
X32259Y657283D01*
X32170Y657174D01*
X32078Y657068D01*
X31983Y656965D01*
X31886Y656864D01*
X31785Y656767D01*
X31682Y656672D01*
X31576Y656580D01*
X31467Y656491D01*
X31357Y656405D01*
X31243Y656322D01*
X31128Y656243D01*
X31010Y656166D01*
X30890Y656093D01*
X30769Y656024D01*
X30645Y655958D01*
X30519Y655895D01*
X30392Y655836D01*
X30263Y655781D01*
X30133Y655729D01*
X30001Y655681D01*
X29868Y655636D01*
X29734Y655595D01*
X29599Y655558D01*
X29463Y655525D01*
X29325Y655496D01*
X29188Y655471D01*
X29049Y655449D01*
X28910Y655431D01*
X28770Y655418D01*
X28630Y655408D01*
X28490Y655402D01*
X28350Y655400D01*
X28350Y640000D02*
X28490Y639998D01*
X28630Y639992D01*
X28770Y639982D01*
X28910Y639969D01*
X29049Y639951D01*
X29188Y639929D01*
X29325Y639904D01*
X29463Y639875D01*
X29599Y639842D01*
X29734Y639805D01*
X29868Y639764D01*
X30001Y639719D01*
X30133Y639671D01*
X30263Y639619D01*
X30392Y639564D01*
X30519Y639505D01*
X30645Y639442D01*
X30769Y639376D01*
X30890Y639307D01*
X31010Y639234D01*
X31128Y639157D01*
X31243Y639078D01*
X31357Y638995D01*
X31467Y638909D01*
X31576Y638820D01*
X31682Y638728D01*
X31785Y638633D01*
X31886Y638536D01*
X31983Y638435D01*
X32078Y638332D01*
X32170Y638226D01*
X32259Y638117D01*
X32345Y638007D01*
X32428Y637893D01*
X32507Y637778D01*
X32584Y637660D01*
X32657Y637540D01*
X32726Y637419D01*
X32792Y637295D01*
X32855Y637169D01*
X32914Y637042D01*
X32969Y636913D01*
X33021Y636783D01*
X33069Y636651D01*
X33114Y636518D01*
X33155Y636384D01*
X33192Y636249D01*
X33225Y636113D01*
X33254Y635975D01*
X33279Y635838D01*
X33301Y635699D01*
X33319Y635560D01*
X33332Y635420D01*
X33342Y635280D01*
X33348Y635140D01*
X33350Y635000D01*
X33348Y634860D01*
X33342Y634720D01*
X33332Y634580D01*
X33319Y634440D01*
X33301Y634301D01*
X33279Y634162D01*
X33254Y634025D01*
X33225Y633887D01*
X33192Y633751D01*
X33155Y633616D01*
X33114Y633482D01*
X33069Y633349D01*
X33021Y633217D01*
X32969Y633087D01*
X32914Y632958D01*
X32855Y632831D01*
X32792Y632705D01*
X32726Y632581D01*
X32657Y632460D01*
X32584Y632340D01*
X32507Y632222D01*
X32428Y632107D01*
X32345Y631993D01*
X32259Y631883D01*
X32170Y631774D01*
X32078Y631668D01*
X31983Y631565D01*
X31886Y631464D01*
X31785Y631367D01*
X31682Y631272D01*
X31576Y631180D01*
X31467Y631091D01*
X31357Y631005D01*
X31243Y630922D01*
X31128Y630843D01*
X31010Y630766D01*
X30890Y630693D01*
X30769Y630624D01*
X30645Y630558D01*
X30519Y630495D01*
X30392Y630436D01*
X30263Y630381D01*
X30133Y630329D01*
X30001Y630281D01*
X29868Y630236D01*
X29734Y630195D01*
X29599Y630158D01*
X29463Y630125D01*
X29325Y630096D01*
X29188Y630071D01*
X29049Y630049D01*
X28910Y630031D01*
X28770Y630018D01*
X28630Y630008D01*
X28490Y630002D01*
X28350Y630000D01*
X28350Y614600D02*
X28490Y614598D01*
X28630Y614592D01*
X28770Y614582D01*
X28910Y614569D01*
X29049Y614551D01*
X29188Y614529D01*
X29325Y614504D01*
X29463Y614475D01*
X29599Y614442D01*
X29734Y614405D01*
X29868Y614364D01*
X30001Y614319D01*
X30133Y614271D01*
X30263Y614219D01*
X30392Y614164D01*
X30519Y614105D01*
X30645Y614042D01*
X30769Y613976D01*
X30890Y613907D01*
X31010Y613834D01*
X31128Y613757D01*
X31243Y613678D01*
X31357Y613595D01*
X31467Y613509D01*
X31576Y613420D01*
X31682Y613328D01*
X31785Y613233D01*
X31886Y613136D01*
X31983Y613035D01*
X32078Y612932D01*
X32170Y612826D01*
X32259Y612717D01*
X32345Y612607D01*
X32428Y612493D01*
X32507Y612378D01*
X32584Y612260D01*
X32657Y612140D01*
X32726Y612019D01*
X32792Y611895D01*
X32855Y611769D01*
X32914Y611642D01*
X32969Y611513D01*
X33021Y611383D01*
X33069Y611251D01*
X33114Y611118D01*
X33155Y610984D01*
X33192Y610849D01*
X33225Y610713D01*
X33254Y610575D01*
X33279Y610438D01*
X33301Y610299D01*
X33319Y610160D01*
X33332Y610020D01*
X33342Y609880D01*
X33348Y609740D01*
X33350Y609600D01*
X33348Y609460D01*
X33342Y609320D01*
X33332Y609180D01*
X33319Y609040D01*
X33301Y608901D01*
X33279Y608762D01*
X33254Y608625D01*
X33225Y608487D01*
X33192Y608351D01*
X33155Y608216D01*
X33114Y608082D01*
X33069Y607949D01*
X33021Y607817D01*
X32969Y607687D01*
X32914Y607558D01*
X32855Y607431D01*
X32792Y607305D01*
X32726Y607181D01*
X32657Y607060D01*
X32584Y606940D01*
X32507Y606822D01*
X32428Y606707D01*
X32345Y606593D01*
X32259Y606483D01*
X32170Y606374D01*
X32078Y606268D01*
X31983Y606165D01*
X31886Y606064D01*
X31785Y605967D01*
X31682Y605872D01*
X31576Y605780D01*
X31467Y605691D01*
X31357Y605605D01*
X31243Y605522D01*
X31128Y605443D01*
X31010Y605366D01*
X30890Y605293D01*
X30769Y605224D01*
X30645Y605158D01*
X30519Y605095D01*
X30392Y605036D01*
X30263Y604981D01*
X30133Y604929D01*
X30001Y604881D01*
X29868Y604836D01*
X29734Y604795D01*
X29599Y604758D01*
X29463Y604725D01*
X29325Y604696D01*
X29188Y604671D01*
X29049Y604649D01*
X28910Y604631D01*
X28770Y604618D01*
X28630Y604608D01*
X28490Y604602D01*
X28350Y604600D01*
X28350Y589200D02*
X28490Y589198D01*
X28630Y589192D01*
X28770Y589182D01*
X28910Y589169D01*
X29049Y589151D01*
X29188Y589129D01*
X29325Y589104D01*
X29463Y589075D01*
X29599Y589042D01*
X29734Y589005D01*
X29868Y588964D01*
X30001Y588919D01*
X30133Y588871D01*
X30263Y588819D01*
X30392Y588764D01*
X30519Y588705D01*
X30645Y588642D01*
X30769Y588576D01*
X30890Y588507D01*
X31010Y588434D01*
X31128Y588357D01*
X31243Y588278D01*
X31357Y588195D01*
X31467Y588109D01*
X31576Y588020D01*
X31682Y587928D01*
X31785Y587833D01*
X31886Y587736D01*
X31983Y587635D01*
X32078Y587532D01*
X32170Y587426D01*
X32259Y587317D01*
X32345Y587207D01*
X32428Y587093D01*
X32507Y586978D01*
X32584Y586860D01*
X32657Y586740D01*
X32726Y586619D01*
X32792Y586495D01*
X32855Y586369D01*
X32914Y586242D01*
X32969Y586113D01*
X33021Y585983D01*
X33069Y585851D01*
X33114Y585718D01*
X33155Y585584D01*
X33192Y585449D01*
X33225Y585313D01*
X33254Y585175D01*
X33279Y585038D01*
X33301Y584899D01*
X33319Y584760D01*
X33332Y584620D01*
X33342Y584480D01*
X33348Y584340D01*
X33350Y584200D01*
X33348Y584060D01*
X33342Y583920D01*
X33332Y583780D01*
X33319Y583640D01*
X33301Y583501D01*
X33279Y583362D01*
X33254Y583225D01*
X33225Y583087D01*
X33192Y582951D01*
X33155Y582816D01*
X33114Y582682D01*
X33069Y582549D01*
X33021Y582417D01*
X32969Y582287D01*
X32914Y582158D01*
X32855Y582031D01*
X32792Y581905D01*
X32726Y581781D01*
X32657Y581660D01*
X32584Y581540D01*
X32507Y581422D01*
X32428Y581307D01*
X32345Y581193D01*
X32259Y581083D01*
X32170Y580974D01*
X32078Y580868D01*
X31983Y580765D01*
X31886Y580664D01*
X31785Y580567D01*
X31682Y580472D01*
X31576Y580380D01*
X31467Y580291D01*
X31357Y580205D01*
X31243Y580122D01*
X31128Y580043D01*
X31010Y579966D01*
X30890Y579893D01*
X30769Y579824D01*
X30645Y579758D01*
X30519Y579695D01*
X30392Y579636D01*
X30263Y579581D01*
X30133Y579529D01*
X30001Y579481D01*
X29868Y579436D01*
X29734Y579395D01*
X29599Y579358D01*
X29463Y579325D01*
X29325Y579296D01*
X29188Y579271D01*
X29049Y579249D01*
X28910Y579231D01*
X28770Y579218D01*
X28630Y579208D01*
X28490Y579202D01*
X28350Y579200D01*
X28350Y563800D02*
X28490Y563798D01*
X28630Y563792D01*
X28770Y563782D01*
X28910Y563769D01*
X29049Y563751D01*
X29188Y563729D01*
X29325Y563704D01*
X29463Y563675D01*
X29599Y563642D01*
X29734Y563605D01*
X29868Y563564D01*
X30001Y563519D01*
X30133Y563471D01*
X30263Y563419D01*
X30392Y563364D01*
X30519Y563305D01*
X30645Y563242D01*
X30769Y563176D01*
X30890Y563107D01*
X31010Y563034D01*
X31128Y562957D01*
X31243Y562878D01*
X31357Y562795D01*
X31467Y562709D01*
X31576Y562620D01*
X31682Y562528D01*
X31785Y562433D01*
X31886Y562336D01*
X31983Y562235D01*
X32078Y562132D01*
X32170Y562026D01*
X32259Y561917D01*
X32345Y561807D01*
X32428Y561693D01*
X32507Y561578D01*
X32584Y561460D01*
X32657Y561340D01*
X32726Y561219D01*
X32792Y561095D01*
X32855Y560969D01*
X32914Y560842D01*
X32969Y560713D01*
X33021Y560583D01*
X33069Y560451D01*
X33114Y560318D01*
X33155Y560184D01*
X33192Y560049D01*
X33225Y559913D01*
X33254Y559775D01*
X33279Y559638D01*
X33301Y559499D01*
X33319Y559360D01*
X33332Y559220D01*
X33342Y559080D01*
X33348Y558940D01*
X33350Y558800D01*
X33348Y558660D01*
X33342Y558520D01*
X33332Y558380D01*
X33319Y558240D01*
X33301Y558101D01*
X33279Y557962D01*
X33254Y557825D01*
X33225Y557687D01*
X33192Y557551D01*
X33155Y557416D01*
X33114Y557282D01*
X33069Y557149D01*
X33021Y557017D01*
X32969Y556887D01*
X32914Y556758D01*
X32855Y556631D01*
X32792Y556505D01*
X32726Y556381D01*
X32657Y556260D01*
X32584Y556140D01*
X32507Y556022D01*
X32428Y555907D01*
X32345Y555793D01*
X32259Y555683D01*
X32170Y555574D01*
X32078Y555468D01*
X31983Y555365D01*
X31886Y555264D01*
X31785Y555167D01*
X31682Y555072D01*
X31576Y554980D01*
X31467Y554891D01*
X31357Y554805D01*
X31243Y554722D01*
X31128Y554643D01*
X31010Y554566D01*
X30890Y554493D01*
X30769Y554424D01*
X30645Y554358D01*
X30519Y554295D01*
X30392Y554236D01*
X30263Y554181D01*
X30133Y554129D01*
X30001Y554081D01*
X29868Y554036D01*
X29734Y553995D01*
X29599Y553958D01*
X29463Y553925D01*
X29325Y553896D01*
X29188Y553871D01*
X29049Y553849D01*
X28910Y553831D01*
X28770Y553818D01*
X28630Y553808D01*
X28490Y553802D01*
X28350Y553800D01*
X28350Y538400D02*
X28490Y538398D01*
X28630Y538392D01*
X28770Y538382D01*
X28910Y538369D01*
X29049Y538351D01*
X29188Y538329D01*
X29325Y538304D01*
X29463Y538275D01*
X29599Y538242D01*
X29734Y538205D01*
X29868Y538164D01*
X30001Y538119D01*
X30133Y538071D01*
X30263Y538019D01*
X30392Y537964D01*
X30519Y537905D01*
X30645Y537842D01*
X30769Y537776D01*
X30890Y537707D01*
X31010Y537634D01*
X31128Y537557D01*
X31243Y537478D01*
X31357Y537395D01*
X31467Y537309D01*
X31576Y537220D01*
X31682Y537128D01*
X31785Y537033D01*
X31886Y536936D01*
X31983Y536835D01*
X32078Y536732D01*
X32170Y536626D01*
X32259Y536517D01*
X32345Y536407D01*
X32428Y536293D01*
X32507Y536178D01*
X32584Y536060D01*
X32657Y535940D01*
X32726Y535819D01*
X32792Y535695D01*
X32855Y535569D01*
X32914Y535442D01*
X32969Y535313D01*
X33021Y535183D01*
X33069Y535051D01*
X33114Y534918D01*
X33155Y534784D01*
X33192Y534649D01*
X33225Y534513D01*
X33254Y534375D01*
X33279Y534238D01*
X33301Y534099D01*
X33319Y533960D01*
X33332Y533820D01*
X33342Y533680D01*
X33348Y533540D01*
X33350Y533400D01*
X33348Y533260D01*
X33342Y533120D01*
X33332Y532980D01*
X33319Y532840D01*
X33301Y532701D01*
X33279Y532562D01*
X33254Y532425D01*
X33225Y532287D01*
X33192Y532151D01*
X33155Y532016D01*
X33114Y531882D01*
X33069Y531749D01*
X33021Y531617D01*
X32969Y531487D01*
X32914Y531358D01*
X32855Y531231D01*
X32792Y531105D01*
X32726Y530981D01*
X32657Y530860D01*
X32584Y530740D01*
X32507Y530622D01*
X32428Y530507D01*
X32345Y530393D01*
X32259Y530283D01*
X32170Y530174D01*
X32078Y530068D01*
X31983Y529965D01*
X31886Y529864D01*
X31785Y529767D01*
X31682Y529672D01*
X31576Y529580D01*
X31467Y529491D01*
X31357Y529405D01*
X31243Y529322D01*
X31128Y529243D01*
X31010Y529166D01*
X30890Y529093D01*
X30769Y529024D01*
X30645Y528958D01*
X30519Y528895D01*
X30392Y528836D01*
X30263Y528781D01*
X30133Y528729D01*
X30001Y528681D01*
X29868Y528636D01*
X29734Y528595D01*
X29599Y528558D01*
X29463Y528525D01*
X29325Y528496D01*
X29188Y528471D01*
X29049Y528449D01*
X28910Y528431D01*
X28770Y528418D01*
X28630Y528408D01*
X28490Y528402D01*
X28350Y528400D01*
X28350Y513000D02*
X28490Y512998D01*
X28630Y512992D01*
X28770Y512982D01*
X28910Y512969D01*
X29049Y512951D01*
X29188Y512929D01*
X29325Y512904D01*
X29463Y512875D01*
X29599Y512842D01*
X29734Y512805D01*
X29868Y512764D01*
X30001Y512719D01*
X30133Y512671D01*
X30263Y512619D01*
X30392Y512564D01*
X30519Y512505D01*
X30645Y512442D01*
X30769Y512376D01*
X30890Y512307D01*
X31010Y512234D01*
X31128Y512157D01*
X31243Y512078D01*
X31357Y511995D01*
X31467Y511909D01*
X31576Y511820D01*
X31682Y511728D01*
X31785Y511633D01*
X31886Y511536D01*
X31983Y511435D01*
X32078Y511332D01*
X32170Y511226D01*
X32259Y511117D01*
X32345Y511007D01*
X32428Y510893D01*
X32507Y510778D01*
X32584Y510660D01*
X32657Y510540D01*
X32726Y510419D01*
X32792Y510295D01*
X32855Y510169D01*
X32914Y510042D01*
X32969Y509913D01*
X33021Y509783D01*
X33069Y509651D01*
X33114Y509518D01*
X33155Y509384D01*
X33192Y509249D01*
X33225Y509113D01*
X33254Y508975D01*
X33279Y508838D01*
X33301Y508699D01*
X33319Y508560D01*
X33332Y508420D01*
X33342Y508280D01*
X33348Y508140D01*
X33350Y508000D01*
X33348Y507860D01*
X33342Y507720D01*
X33332Y507580D01*
X33319Y507440D01*
X33301Y507301D01*
X33279Y507162D01*
X33254Y507025D01*
X33225Y506887D01*
X33192Y506751D01*
X33155Y506616D01*
X33114Y506482D01*
X33069Y506349D01*
X33021Y506217D01*
X32969Y506087D01*
X32914Y505958D01*
X32855Y505831D01*
X32792Y505705D01*
X32726Y505581D01*
X32657Y505460D01*
X32584Y505340D01*
X32507Y505222D01*
X32428Y505107D01*
X32345Y504993D01*
X32259Y504883D01*
X32170Y504774D01*
X32078Y504668D01*
X31983Y504565D01*
X31886Y504464D01*
X31785Y504367D01*
X31682Y504272D01*
X31576Y504180D01*
X31467Y504091D01*
X31357Y504005D01*
X31243Y503922D01*
X31128Y503843D01*
X31010Y503766D01*
X30890Y503693D01*
X30769Y503624D01*
X30645Y503558D01*
X30519Y503495D01*
X30392Y503436D01*
X30263Y503381D01*
X30133Y503329D01*
X30001Y503281D01*
X29868Y503236D01*
X29734Y503195D01*
X29599Y503158D01*
X29463Y503125D01*
X29325Y503096D01*
X29188Y503071D01*
X29049Y503049D01*
X28910Y503031D01*
X28770Y503018D01*
X28630Y503008D01*
X28490Y503002D01*
X28350Y503000D01*
X28350Y487600D02*
X28490Y487598D01*
X28630Y487592D01*
X28770Y487582D01*
X28910Y487569D01*
X29049Y487551D01*
X29188Y487529D01*
X29325Y487504D01*
X29463Y487475D01*
X29599Y487442D01*
X29734Y487405D01*
X29868Y487364D01*
X30001Y487319D01*
X30133Y487271D01*
X30263Y487219D01*
X30392Y487164D01*
X30519Y487105D01*
X30645Y487042D01*
X30769Y486976D01*
X30890Y486907D01*
X31010Y486834D01*
X31128Y486757D01*
X31243Y486678D01*
X31357Y486595D01*
X31467Y486509D01*
X31576Y486420D01*
X31682Y486328D01*
X31785Y486233D01*
X31886Y486136D01*
X31983Y486035D01*
X32078Y485932D01*
X32170Y485826D01*
X32259Y485717D01*
X32345Y485607D01*
X32428Y485493D01*
X32507Y485378D01*
X32584Y485260D01*
X32657Y485140D01*
X32726Y485019D01*
X32792Y484895D01*
X32855Y484769D01*
X32914Y484642D01*
X32969Y484513D01*
X33021Y484383D01*
X33069Y484251D01*
X33114Y484118D01*
X33155Y483984D01*
X33192Y483849D01*
X33225Y483713D01*
X33254Y483575D01*
X33279Y483438D01*
X33301Y483299D01*
X33319Y483160D01*
X33332Y483020D01*
X33342Y482880D01*
X33348Y482740D01*
X33350Y482600D01*
X33348Y482460D01*
X33342Y482320D01*
X33332Y482180D01*
X33319Y482040D01*
X33301Y481901D01*
X33279Y481762D01*
X33254Y481625D01*
X33225Y481487D01*
X33192Y481351D01*
X33155Y481216D01*
X33114Y481082D01*
X33069Y480949D01*
X33021Y480817D01*
X32969Y480687D01*
X32914Y480558D01*
X32855Y480431D01*
X32792Y480305D01*
X32726Y480181D01*
X32657Y480060D01*
X32584Y479940D01*
X32507Y479822D01*
X32428Y479707D01*
X32345Y479593D01*
X32259Y479483D01*
X32170Y479374D01*
X32078Y479268D01*
X31983Y479165D01*
X31886Y479064D01*
X31785Y478967D01*
X31682Y478872D01*
X31576Y478780D01*
X31467Y478691D01*
X31357Y478605D01*
X31243Y478522D01*
X31128Y478443D01*
X31010Y478366D01*
X30890Y478293D01*
X30769Y478224D01*
X30645Y478158D01*
X30519Y478095D01*
X30392Y478036D01*
X30263Y477981D01*
X30133Y477929D01*
X30001Y477881D01*
X29868Y477836D01*
X29734Y477795D01*
X29599Y477758D01*
X29463Y477725D01*
X29325Y477696D01*
X29188Y477671D01*
X29049Y477649D01*
X28910Y477631D01*
X28770Y477618D01*
X28630Y477608D01*
X28490Y477602D01*
X28350Y477600D01*
X28350Y462200D02*
X28490Y462198D01*
X28630Y462192D01*
X28770Y462182D01*
X28910Y462169D01*
X29049Y462151D01*
X29188Y462129D01*
X29325Y462104D01*
X29463Y462075D01*
X29599Y462042D01*
X29734Y462005D01*
X29868Y461964D01*
X30001Y461919D01*
X30133Y461871D01*
X30263Y461819D01*
X30392Y461764D01*
X30519Y461705D01*
X30645Y461642D01*
X30769Y461576D01*
X30890Y461507D01*
X31010Y461434D01*
X31128Y461357D01*
X31243Y461278D01*
X31357Y461195D01*
X31467Y461109D01*
X31576Y461020D01*
X31682Y460928D01*
X31785Y460833D01*
X31886Y460736D01*
X31983Y460635D01*
X32078Y460532D01*
X32170Y460426D01*
X32259Y460317D01*
X32345Y460207D01*
X32428Y460093D01*
X32507Y459978D01*
X32584Y459860D01*
X32657Y459740D01*
X32726Y459619D01*
X32792Y459495D01*
X32855Y459369D01*
X32914Y459242D01*
X32969Y459113D01*
X33021Y458983D01*
X33069Y458851D01*
X33114Y458718D01*
X33155Y458584D01*
X33192Y458449D01*
X33225Y458313D01*
X33254Y458175D01*
X33279Y458038D01*
X33301Y457899D01*
X33319Y457760D01*
X33332Y457620D01*
X33342Y457480D01*
X33348Y457340D01*
X33350Y457200D01*
X33348Y457060D01*
X33342Y456920D01*
X33332Y456780D01*
X33319Y456640D01*
X33301Y456501D01*
X33279Y456362D01*
X33254Y456225D01*
X33225Y456087D01*
X33192Y455951D01*
X33155Y455816D01*
X33114Y455682D01*
X33069Y455549D01*
X33021Y455417D01*
X32969Y455287D01*
X32914Y455158D01*
X32855Y455031D01*
X32792Y454905D01*
X32726Y454781D01*
X32657Y454660D01*
X32584Y454540D01*
X32507Y454422D01*
X32428Y454307D01*
X32345Y454193D01*
X32259Y454083D01*
X32170Y453974D01*
X32078Y453868D01*
X31983Y453765D01*
X31886Y453664D01*
X31785Y453567D01*
X31682Y453472D01*
X31576Y453380D01*
X31467Y453291D01*
X31357Y453205D01*
X31243Y453122D01*
X31128Y453043D01*
X31010Y452966D01*
X30890Y452893D01*
X30769Y452824D01*
X30645Y452758D01*
X30519Y452695D01*
X30392Y452636D01*
X30263Y452581D01*
X30133Y452529D01*
X30001Y452481D01*
X29868Y452436D01*
X29734Y452395D01*
X29599Y452358D01*
X29463Y452325D01*
X29325Y452296D01*
X29188Y452271D01*
X29049Y452249D01*
X28910Y452231D01*
X28770Y452218D01*
X28630Y452208D01*
X28490Y452202D01*
X28350Y452200D01*
X28350Y436800D02*
X28490Y436798D01*
X28630Y436792D01*
X28770Y436782D01*
X28910Y436769D01*
X29049Y436751D01*
X29188Y436729D01*
X29325Y436704D01*
X29463Y436675D01*
X29599Y436642D01*
X29734Y436605D01*
X29868Y436564D01*
X30001Y436519D01*
X30133Y436471D01*
X30263Y436419D01*
X30392Y436364D01*
X30519Y436305D01*
X30645Y436242D01*
X30769Y436176D01*
X30890Y436107D01*
X31010Y436034D01*
X31128Y435957D01*
X31243Y435878D01*
X31357Y435795D01*
X31467Y435709D01*
X31576Y435620D01*
X31682Y435528D01*
X31785Y435433D01*
X31886Y435336D01*
X31983Y435235D01*
X32078Y435132D01*
X32170Y435026D01*
X32259Y434917D01*
X32345Y434807D01*
X32428Y434693D01*
X32507Y434578D01*
X32584Y434460D01*
X32657Y434340D01*
X32726Y434219D01*
X32792Y434095D01*
X32855Y433969D01*
X32914Y433842D01*
X32969Y433713D01*
X33021Y433583D01*
X33069Y433451D01*
X33114Y433318D01*
X33155Y433184D01*
X33192Y433049D01*
X33225Y432913D01*
X33254Y432775D01*
X33279Y432638D01*
X33301Y432499D01*
X33319Y432360D01*
X33332Y432220D01*
X33342Y432080D01*
X33348Y431940D01*
X33350Y431800D01*
X33348Y431660D01*
X33342Y431520D01*
X33332Y431380D01*
X33319Y431240D01*
X33301Y431101D01*
X33279Y430962D01*
X33254Y430825D01*
X33225Y430687D01*
X33192Y430551D01*
X33155Y430416D01*
X33114Y430282D01*
X33069Y430149D01*
X33021Y430017D01*
X32969Y429887D01*
X32914Y429758D01*
X32855Y429631D01*
X32792Y429505D01*
X32726Y429381D01*
X32657Y429260D01*
X32584Y429140D01*
X32507Y429022D01*
X32428Y428907D01*
X32345Y428793D01*
X32259Y428683D01*
X32170Y428574D01*
X32078Y428468D01*
X31983Y428365D01*
X31886Y428264D01*
X31785Y428167D01*
X31682Y428072D01*
X31576Y427980D01*
X31467Y427891D01*
X31357Y427805D01*
X31243Y427722D01*
X31128Y427643D01*
X31010Y427566D01*
X30890Y427493D01*
X30769Y427424D01*
X30645Y427358D01*
X30519Y427295D01*
X30392Y427236D01*
X30263Y427181D01*
X30133Y427129D01*
X30001Y427081D01*
X29868Y427036D01*
X29734Y426995D01*
X29599Y426958D01*
X29463Y426925D01*
X29325Y426896D01*
X29188Y426871D01*
X29049Y426849D01*
X28910Y426831D01*
X28770Y426818D01*
X28630Y426808D01*
X28490Y426802D01*
X28350Y426800D01*
X28350Y411400D02*
X28490Y411398D01*
X28630Y411392D01*
X28770Y411382D01*
X28910Y411369D01*
X29049Y411351D01*
X29188Y411329D01*
X29325Y411304D01*
X29463Y411275D01*
X29599Y411242D01*
X29734Y411205D01*
X29868Y411164D01*
X30001Y411119D01*
X30133Y411071D01*
X30263Y411019D01*
X30392Y410964D01*
X30519Y410905D01*
X30645Y410842D01*
X30769Y410776D01*
X30890Y410707D01*
X31010Y410634D01*
X31128Y410557D01*
X31243Y410478D01*
X31357Y410395D01*
X31467Y410309D01*
X31576Y410220D01*
X31682Y410128D01*
X31785Y410033D01*
X31886Y409936D01*
X31983Y409835D01*
X32078Y409732D01*
X32170Y409626D01*
X32259Y409517D01*
X32345Y409407D01*
X32428Y409293D01*
X32507Y409178D01*
X32584Y409060D01*
X32657Y408940D01*
X32726Y408819D01*
X32792Y408695D01*
X32855Y408569D01*
X32914Y408442D01*
X32969Y408313D01*
X33021Y408183D01*
X33069Y408051D01*
X33114Y407918D01*
X33155Y407784D01*
X33192Y407649D01*
X33225Y407513D01*
X33254Y407375D01*
X33279Y407238D01*
X33301Y407099D01*
X33319Y406960D01*
X33332Y406820D01*
X33342Y406680D01*
X33348Y406540D01*
X33350Y406400D01*
X33348Y406260D01*
X33342Y406120D01*
X33332Y405980D01*
X33319Y405840D01*
X33301Y405701D01*
X33279Y405562D01*
X33254Y405425D01*
X33225Y405287D01*
X33192Y405151D01*
X33155Y405016D01*
X33114Y404882D01*
X33069Y404749D01*
X33021Y404617D01*
X32969Y404487D01*
X32914Y404358D01*
X32855Y404231D01*
X32792Y404105D01*
X32726Y403981D01*
X32657Y403860D01*
X32584Y403740D01*
X32507Y403622D01*
X32428Y403507D01*
X32345Y403393D01*
X32259Y403283D01*
X32170Y403174D01*
X32078Y403068D01*
X31983Y402965D01*
X31886Y402864D01*
X31785Y402767D01*
X31682Y402672D01*
X31576Y402580D01*
X31467Y402491D01*
X31357Y402405D01*
X31243Y402322D01*
X31128Y402243D01*
X31010Y402166D01*
X30890Y402093D01*
X30769Y402024D01*
X30645Y401958D01*
X30519Y401895D01*
X30392Y401836D01*
X30263Y401781D01*
X30133Y401729D01*
X30001Y401681D01*
X29868Y401636D01*
X29734Y401595D01*
X29599Y401558D01*
X29463Y401525D01*
X29325Y401496D01*
X29188Y401471D01*
X29049Y401449D01*
X28910Y401431D01*
X28770Y401418D01*
X28630Y401408D01*
X28490Y401402D01*
X28350Y401400D01*
X28350Y386000D02*
X28490Y385998D01*
X28630Y385992D01*
X28770Y385982D01*
X28910Y385969D01*
X29049Y385951D01*
X29188Y385929D01*
X29325Y385904D01*
X29463Y385875D01*
X29599Y385842D01*
X29734Y385805D01*
X29868Y385764D01*
X30001Y385719D01*
X30133Y385671D01*
X30263Y385619D01*
X30392Y385564D01*
X30519Y385505D01*
X30645Y385442D01*
X30769Y385376D01*
X30890Y385307D01*
X31010Y385234D01*
X31128Y385157D01*
X31243Y385078D01*
X31357Y384995D01*
X31467Y384909D01*
X31576Y384820D01*
X31682Y384728D01*
X31785Y384633D01*
X31886Y384536D01*
X31983Y384435D01*
X32078Y384332D01*
X32170Y384226D01*
X32259Y384117D01*
X32345Y384007D01*
X32428Y383893D01*
X32507Y383778D01*
X32584Y383660D01*
X32657Y383540D01*
X32726Y383419D01*
X32792Y383295D01*
X32855Y383169D01*
X32914Y383042D01*
X32969Y382913D01*
X33021Y382783D01*
X33069Y382651D01*
X33114Y382518D01*
X33155Y382384D01*
X33192Y382249D01*
X33225Y382113D01*
X33254Y381975D01*
X33279Y381838D01*
X33301Y381699D01*
X33319Y381560D01*
X33332Y381420D01*
X33342Y381280D01*
X33348Y381140D01*
X33350Y381000D01*
X33348Y380860D01*
X33342Y380720D01*
X33332Y380580D01*
X33319Y380440D01*
X33301Y380301D01*
X33279Y380162D01*
X33254Y380025D01*
X33225Y379887D01*
X33192Y379751D01*
X33155Y379616D01*
X33114Y379482D01*
X33069Y379349D01*
X33021Y379217D01*
X32969Y379087D01*
X32914Y378958D01*
X32855Y378831D01*
X32792Y378705D01*
X32726Y378581D01*
X32657Y378460D01*
X32584Y378340D01*
X32507Y378222D01*
X32428Y378107D01*
X32345Y377993D01*
X32259Y377883D01*
X32170Y377774D01*
X32078Y377668D01*
X31983Y377565D01*
X31886Y377464D01*
X31785Y377367D01*
X31682Y377272D01*
X31576Y377180D01*
X31467Y377091D01*
X31357Y377005D01*
X31243Y376922D01*
X31128Y376843D01*
X31010Y376766D01*
X30890Y376693D01*
X30769Y376624D01*
X30645Y376558D01*
X30519Y376495D01*
X30392Y376436D01*
X30263Y376381D01*
X30133Y376329D01*
X30001Y376281D01*
X29868Y376236D01*
X29734Y376195D01*
X29599Y376158D01*
X29463Y376125D01*
X29325Y376096D01*
X29188Y376071D01*
X29049Y376049D01*
X28910Y376031D01*
X28770Y376018D01*
X28630Y376008D01*
X28490Y376002D01*
X28350Y376000D01*
X28350Y360600D02*
X28490Y360598D01*
X28630Y360592D01*
X28770Y360582D01*
X28910Y360569D01*
X29049Y360551D01*
X29188Y360529D01*
X29325Y360504D01*
X29463Y360475D01*
X29599Y360442D01*
X29734Y360405D01*
X29868Y360364D01*
X30001Y360319D01*
X30133Y360271D01*
X30263Y360219D01*
X30392Y360164D01*
X30519Y360105D01*
X30645Y360042D01*
X30769Y359976D01*
X30890Y359907D01*
X31010Y359834D01*
X31128Y359757D01*
X31243Y359678D01*
X31357Y359595D01*
X31467Y359509D01*
X31576Y359420D01*
X31682Y359328D01*
X31785Y359233D01*
X31886Y359136D01*
X31983Y359035D01*
X32078Y358932D01*
X32170Y358826D01*
X32259Y358717D01*
X32345Y358607D01*
X32428Y358493D01*
X32507Y358378D01*
X32584Y358260D01*
X32657Y358140D01*
X32726Y358019D01*
X32792Y357895D01*
X32855Y357769D01*
X32914Y357642D01*
X32969Y357513D01*
X33021Y357383D01*
X33069Y357251D01*
X33114Y357118D01*
X33155Y356984D01*
X33192Y356849D01*
X33225Y356713D01*
X33254Y356575D01*
X33279Y356438D01*
X33301Y356299D01*
X33319Y356160D01*
X33332Y356020D01*
X33342Y355880D01*
X33348Y355740D01*
X33350Y355600D01*
X33348Y355460D01*
X33342Y355320D01*
X33332Y355180D01*
X33319Y355040D01*
X33301Y354901D01*
X33279Y354762D01*
X33254Y354625D01*
X33225Y354487D01*
X33192Y354351D01*
X33155Y354216D01*
X33114Y354082D01*
X33069Y353949D01*
X33021Y353817D01*
X32969Y353687D01*
X32914Y353558D01*
X32855Y353431D01*
X32792Y353305D01*
X32726Y353181D01*
X32657Y353060D01*
X32584Y352940D01*
X32507Y352822D01*
X32428Y352707D01*
X32345Y352593D01*
X32259Y352483D01*
X32170Y352374D01*
X32078Y352268D01*
X31983Y352165D01*
X31886Y352064D01*
X31785Y351967D01*
X31682Y351872D01*
X31576Y351780D01*
X31467Y351691D01*
X31357Y351605D01*
X31243Y351522D01*
X31128Y351443D01*
X31010Y351366D01*
X30890Y351293D01*
X30769Y351224D01*
X30645Y351158D01*
X30519Y351095D01*
X30392Y351036D01*
X30263Y350981D01*
X30133Y350929D01*
X30001Y350881D01*
X29868Y350836D01*
X29734Y350795D01*
X29599Y350758D01*
X29463Y350725D01*
X29325Y350696D01*
X29188Y350671D01*
X29049Y350649D01*
X28910Y350631D01*
X28770Y350618D01*
X28630Y350608D01*
X28490Y350602D01*
X28350Y350600D01*
X28350Y335200D02*
X28490Y335198D01*
X28630Y335192D01*
X28770Y335182D01*
X28910Y335169D01*
X29049Y335151D01*
X29188Y335129D01*
X29325Y335104D01*
X29463Y335075D01*
X29599Y335042D01*
X29734Y335005D01*
X29868Y334964D01*
X30001Y334919D01*
X30133Y334871D01*
X30263Y334819D01*
X30392Y334764D01*
X30519Y334705D01*
X30645Y334642D01*
X30769Y334576D01*
X30890Y334507D01*
X31010Y334434D01*
X31128Y334357D01*
X31243Y334278D01*
X31357Y334195D01*
X31467Y334109D01*
X31576Y334020D01*
X31682Y333928D01*
X31785Y333833D01*
X31886Y333736D01*
X31983Y333635D01*
X32078Y333532D01*
X32170Y333426D01*
X32259Y333317D01*
X32345Y333207D01*
X32428Y333093D01*
X32507Y332978D01*
X32584Y332860D01*
X32657Y332740D01*
X32726Y332619D01*
X32792Y332495D01*
X32855Y332369D01*
X32914Y332242D01*
X32969Y332113D01*
X33021Y331983D01*
X33069Y331851D01*
X33114Y331718D01*
X33155Y331584D01*
X33192Y331449D01*
X33225Y331313D01*
X33254Y331175D01*
X33279Y331038D01*
X33301Y330899D01*
X33319Y330760D01*
X33332Y330620D01*
X33342Y330480D01*
X33348Y330340D01*
X33350Y330200D01*
X33348Y330060D01*
X33342Y329920D01*
X33332Y329780D01*
X33319Y329640D01*
X33301Y329501D01*
X33279Y329362D01*
X33254Y329225D01*
X33225Y329087D01*
X33192Y328951D01*
X33155Y328816D01*
X33114Y328682D01*
X33069Y328549D01*
X33021Y328417D01*
X32969Y328287D01*
X32914Y328158D01*
X32855Y328031D01*
X32792Y327905D01*
X32726Y327781D01*
X32657Y327660D01*
X32584Y327540D01*
X32507Y327422D01*
X32428Y327307D01*
X32345Y327193D01*
X32259Y327083D01*
X32170Y326974D01*
X32078Y326868D01*
X31983Y326765D01*
X31886Y326664D01*
X31785Y326567D01*
X31682Y326472D01*
X31576Y326380D01*
X31467Y326291D01*
X31357Y326205D01*
X31243Y326122D01*
X31128Y326043D01*
X31010Y325966D01*
X30890Y325893D01*
X30769Y325824D01*
X30645Y325758D01*
X30519Y325695D01*
X30392Y325636D01*
X30263Y325581D01*
X30133Y325529D01*
X30001Y325481D01*
X29868Y325436D01*
X29734Y325395D01*
X29599Y325358D01*
X29463Y325325D01*
X29325Y325296D01*
X29188Y325271D01*
X29049Y325249D01*
X28910Y325231D01*
X28770Y325218D01*
X28630Y325208D01*
X28490Y325202D01*
X28350Y325200D01*
X238350Y325200D02*
X238210Y325202D01*
X238070Y325208D01*
X237930Y325218D01*
X237790Y325231D01*
X237651Y325249D01*
X237512Y325271D01*
X237375Y325296D01*
X237237Y325325D01*
X237101Y325358D01*
X236966Y325395D01*
X236832Y325436D01*
X236699Y325481D01*
X236567Y325529D01*
X236437Y325581D01*
X236308Y325636D01*
X236181Y325695D01*
X236055Y325758D01*
X235931Y325824D01*
X235810Y325893D01*
X235690Y325966D01*
X235572Y326043D01*
X235457Y326122D01*
X235343Y326205D01*
X235233Y326291D01*
X235124Y326380D01*
X235018Y326472D01*
X234915Y326567D01*
X234814Y326664D01*
X234717Y326765D01*
X234622Y326868D01*
X234530Y326974D01*
X234441Y327083D01*
X234355Y327193D01*
X234272Y327307D01*
X234193Y327422D01*
X234116Y327540D01*
X234043Y327660D01*
X233974Y327781D01*
X233908Y327905D01*
X233845Y328031D01*
X233786Y328158D01*
X233731Y328287D01*
X233679Y328417D01*
X233631Y328549D01*
X233586Y328682D01*
X233545Y328816D01*
X233508Y328951D01*
X233475Y329087D01*
X233446Y329225D01*
X233421Y329362D01*
X233399Y329501D01*
X233381Y329640D01*
X233368Y329780D01*
X233358Y329920D01*
X233352Y330060D01*
X233350Y330200D01*
X233352Y330340D01*
X233358Y330480D01*
X233368Y330620D01*
X233381Y330760D01*
X233399Y330899D01*
X233421Y331038D01*
X233446Y331175D01*
X233475Y331313D01*
X233508Y331449D01*
X233545Y331584D01*
X233586Y331718D01*
X233631Y331851D01*
X233679Y331983D01*
X233731Y332113D01*
X233786Y332242D01*
X233845Y332369D01*
X233908Y332495D01*
X233974Y332619D01*
X234043Y332740D01*
X234116Y332860D01*
X234193Y332978D01*
X234272Y333093D01*
X234355Y333207D01*
X234441Y333317D01*
X234530Y333426D01*
X234622Y333532D01*
X234717Y333635D01*
X234814Y333736D01*
X234915Y333833D01*
X235018Y333928D01*
X235124Y334020D01*
X235233Y334109D01*
X235343Y334195D01*
X235457Y334278D01*
X235572Y334357D01*
X235690Y334434D01*
X235810Y334507D01*
X235931Y334576D01*
X236055Y334642D01*
X236181Y334705D01*
X236308Y334764D01*
X236437Y334819D01*
X236567Y334871D01*
X236699Y334919D01*
X236832Y334964D01*
X236966Y335005D01*
X237101Y335042D01*
X237237Y335075D01*
X237375Y335104D01*
X237512Y335129D01*
X237651Y335151D01*
X237790Y335169D01*
X237930Y335182D01*
X238070Y335192D01*
X238210Y335198D01*
X238350Y335200D01*
X238350Y350600D02*
X238210Y350602D01*
X238070Y350608D01*
X237930Y350618D01*
X237790Y350631D01*
X237651Y350649D01*
X237512Y350671D01*
X237375Y350696D01*
X237237Y350725D01*
X237101Y350758D01*
X236966Y350795D01*
X236832Y350836D01*
X236699Y350881D01*
X236567Y350929D01*
X236437Y350981D01*
X236308Y351036D01*
X236181Y351095D01*
X236055Y351158D01*
X235931Y351224D01*
X235810Y351293D01*
X235690Y351366D01*
X235572Y351443D01*
X235457Y351522D01*
X235343Y351605D01*
X235233Y351691D01*
X235124Y351780D01*
X235018Y351872D01*
X234915Y351967D01*
X234814Y352064D01*
X234717Y352165D01*
X234622Y352268D01*
X234530Y352374D01*
X234441Y352483D01*
X234355Y352593D01*
X234272Y352707D01*
X234193Y352822D01*
X234116Y352940D01*
X234043Y353060D01*
X233974Y353181D01*
X233908Y353305D01*
X233845Y353431D01*
X233786Y353558D01*
X233731Y353687D01*
X233679Y353817D01*
X233631Y353949D01*
X233586Y354082D01*
X233545Y354216D01*
X233508Y354351D01*
X233475Y354487D01*
X233446Y354625D01*
X233421Y354762D01*
X233399Y354901D01*
X233381Y355040D01*
X233368Y355180D01*
X233358Y355320D01*
X233352Y355460D01*
X233350Y355600D01*
X233352Y355740D01*
X233358Y355880D01*
X233368Y356020D01*
X233381Y356160D01*
X233399Y356299D01*
X233421Y356438D01*
X233446Y356575D01*
X233475Y356713D01*
X233508Y356849D01*
X233545Y356984D01*
X233586Y357118D01*
X233631Y357251D01*
X233679Y357383D01*
X233731Y357513D01*
X233786Y357642D01*
X233845Y357769D01*
X233908Y357895D01*
X233974Y358019D01*
X234043Y358140D01*
X234116Y358260D01*
X234193Y358378D01*
X234272Y358493D01*
X234355Y358607D01*
X234441Y358717D01*
X234530Y358826D01*
X234622Y358932D01*
X234717Y359035D01*
X234814Y359136D01*
X234915Y359233D01*
X235018Y359328D01*
X235124Y359420D01*
X235233Y359509D01*
X235343Y359595D01*
X235457Y359678D01*
X235572Y359757D01*
X235690Y359834D01*
X235810Y359907D01*
X235931Y359976D01*
X236055Y360042D01*
X236181Y360105D01*
X236308Y360164D01*
X236437Y360219D01*
X236567Y360271D01*
X236699Y360319D01*
X236832Y360364D01*
X236966Y360405D01*
X237101Y360442D01*
X237237Y360475D01*
X237375Y360504D01*
X237512Y360529D01*
X237651Y360551D01*
X237790Y360569D01*
X237930Y360582D01*
X238070Y360592D01*
X238210Y360598D01*
X238350Y360600D01*
X238350Y376000D02*
X238210Y376002D01*
X238070Y376008D01*
X237930Y376018D01*
X237790Y376031D01*
X237651Y376049D01*
X237512Y376071D01*
X237375Y376096D01*
X237237Y376125D01*
X237101Y376158D01*
X236966Y376195D01*
X236832Y376236D01*
X236699Y376281D01*
X236567Y376329D01*
X236437Y376381D01*
X236308Y376436D01*
X236181Y376495D01*
X236055Y376558D01*
X235931Y376624D01*
X235810Y376693D01*
X235690Y376766D01*
X235572Y376843D01*
X235457Y376922D01*
X235343Y377005D01*
X235233Y377091D01*
X235124Y377180D01*
X235018Y377272D01*
X234915Y377367D01*
X234814Y377464D01*
X234717Y377565D01*
X234622Y377668D01*
X234530Y377774D01*
X234441Y377883D01*
X234355Y377993D01*
X234272Y378107D01*
X234193Y378222D01*
X234116Y378340D01*
X234043Y378460D01*
X233974Y378581D01*
X233908Y378705D01*
X233845Y378831D01*
X233786Y378958D01*
X233731Y379087D01*
X233679Y379217D01*
X233631Y379349D01*
X233586Y379482D01*
X233545Y379616D01*
X233508Y379751D01*
X233475Y379887D01*
X233446Y380025D01*
X233421Y380162D01*
X233399Y380301D01*
X233381Y380440D01*
X233368Y380580D01*
X233358Y380720D01*
X233352Y380860D01*
X233350Y381000D01*
X233352Y381140D01*
X233358Y381280D01*
X233368Y381420D01*
X233381Y381560D01*
X233399Y381699D01*
X233421Y381838D01*
X233446Y381975D01*
X233475Y382113D01*
X233508Y382249D01*
X233545Y382384D01*
X233586Y382518D01*
X233631Y382651D01*
X233679Y382783D01*
X233731Y382913D01*
X233786Y383042D01*
X233845Y383169D01*
X233908Y383295D01*
X233974Y383419D01*
X234043Y383540D01*
X234116Y383660D01*
X234193Y383778D01*
X234272Y383893D01*
X234355Y384007D01*
X234441Y384117D01*
X234530Y384226D01*
X234622Y384332D01*
X234717Y384435D01*
X234814Y384536D01*
X234915Y384633D01*
X235018Y384728D01*
X235124Y384820D01*
X235233Y384909D01*
X235343Y384995D01*
X235457Y385078D01*
X235572Y385157D01*
X235690Y385234D01*
X235810Y385307D01*
X235931Y385376D01*
X236055Y385442D01*
X236181Y385505D01*
X236308Y385564D01*
X236437Y385619D01*
X236567Y385671D01*
X236699Y385719D01*
X236832Y385764D01*
X236966Y385805D01*
X237101Y385842D01*
X237237Y385875D01*
X237375Y385904D01*
X237512Y385929D01*
X237651Y385951D01*
X237790Y385969D01*
X237930Y385982D01*
X238070Y385992D01*
X238210Y385998D01*
X238350Y386000D01*
X238350Y401400D02*
X238210Y401402D01*
X238070Y401408D01*
X237930Y401418D01*
X237790Y401431D01*
X237651Y401449D01*
X237512Y401471D01*
X237375Y401496D01*
X237237Y401525D01*
X237101Y401558D01*
X236966Y401595D01*
X236832Y401636D01*
X236699Y401681D01*
X236567Y401729D01*
X236437Y401781D01*
X236308Y401836D01*
X236181Y401895D01*
X236055Y401958D01*
X235931Y402024D01*
X235810Y402093D01*
X235690Y402166D01*
X235572Y402243D01*
X235457Y402322D01*
X235343Y402405D01*
X235233Y402491D01*
X235124Y402580D01*
X235018Y402672D01*
X234915Y402767D01*
X234814Y402864D01*
X234717Y402965D01*
X234622Y403068D01*
X234530Y403174D01*
X234441Y403283D01*
X234355Y403393D01*
X234272Y403507D01*
X234193Y403622D01*
X234116Y403740D01*
X234043Y403860D01*
X233974Y403981D01*
X233908Y404105D01*
X233845Y404231D01*
X233786Y404358D01*
X233731Y404487D01*
X233679Y404617D01*
X233631Y404749D01*
X233586Y404882D01*
X233545Y405016D01*
X233508Y405151D01*
X233475Y405287D01*
X233446Y405425D01*
X233421Y405562D01*
X233399Y405701D01*
X233381Y405840D01*
X233368Y405980D01*
X233358Y406120D01*
X233352Y406260D01*
X233350Y406400D01*
X233352Y406540D01*
X233358Y406680D01*
X233368Y406820D01*
X233381Y406960D01*
X233399Y407099D01*
X233421Y407238D01*
X233446Y407375D01*
X233475Y407513D01*
X233508Y407649D01*
X233545Y407784D01*
X233586Y407918D01*
X233631Y408051D01*
X233679Y408183D01*
X233731Y408313D01*
X233786Y408442D01*
X233845Y408569D01*
X233908Y408695D01*
X233974Y408819D01*
X234043Y408940D01*
X234116Y409060D01*
X234193Y409178D01*
X234272Y409293D01*
X234355Y409407D01*
X234441Y409517D01*
X234530Y409626D01*
X234622Y409732D01*
X234717Y409835D01*
X234814Y409936D01*
X234915Y410033D01*
X235018Y410128D01*
X235124Y410220D01*
X235233Y410309D01*
X235343Y410395D01*
X235457Y410478D01*
X235572Y410557D01*
X235690Y410634D01*
X235810Y410707D01*
X235931Y410776D01*
X236055Y410842D01*
X236181Y410905D01*
X236308Y410964D01*
X236437Y411019D01*
X236567Y411071D01*
X236699Y411119D01*
X236832Y411164D01*
X236966Y411205D01*
X237101Y411242D01*
X237237Y411275D01*
X237375Y411304D01*
X237512Y411329D01*
X237651Y411351D01*
X237790Y411369D01*
X237930Y411382D01*
X238070Y411392D01*
X238210Y411398D01*
X238350Y411400D01*
X238350Y426800D02*
X238210Y426802D01*
X238070Y426808D01*
X237930Y426818D01*
X237790Y426831D01*
X237651Y426849D01*
X237512Y426871D01*
X237375Y426896D01*
X237237Y426925D01*
X237101Y426958D01*
X236966Y426995D01*
X236832Y427036D01*
X236699Y427081D01*
X236567Y427129D01*
X236437Y427181D01*
X236308Y427236D01*
X236181Y427295D01*
X236055Y427358D01*
X235931Y427424D01*
X235810Y427493D01*
X235690Y427566D01*
X235572Y427643D01*
X235457Y427722D01*
X235343Y427805D01*
X235233Y427891D01*
X235124Y427980D01*
X235018Y428072D01*
X234915Y428167D01*
X234814Y428264D01*
X234717Y428365D01*
X234622Y428468D01*
X234530Y428574D01*
X234441Y428683D01*
X234355Y428793D01*
X234272Y428907D01*
X234193Y429022D01*
X234116Y429140D01*
X234043Y429260D01*
X233974Y429381D01*
X233908Y429505D01*
X233845Y429631D01*
X233786Y429758D01*
X233731Y429887D01*
X233679Y430017D01*
X233631Y430149D01*
X233586Y430282D01*
X233545Y430416D01*
X233508Y430551D01*
X233475Y430687D01*
X233446Y430825D01*
X233421Y430962D01*
X233399Y431101D01*
X233381Y431240D01*
X233368Y431380D01*
X233358Y431520D01*
X233352Y431660D01*
X233350Y431800D01*
X233352Y431940D01*
X233358Y432080D01*
X233368Y432220D01*
X233381Y432360D01*
X233399Y432499D01*
X233421Y432638D01*
X233446Y432775D01*
X233475Y432913D01*
X233508Y433049D01*
X233545Y433184D01*
X233586Y433318D01*
X233631Y433451D01*
X233679Y433583D01*
X233731Y433713D01*
X233786Y433842D01*
X233845Y433969D01*
X233908Y434095D01*
X233974Y434219D01*
X234043Y434340D01*
X234116Y434460D01*
X234193Y434578D01*
X234272Y434693D01*
X234355Y434807D01*
X234441Y434917D01*
X234530Y435026D01*
X234622Y435132D01*
X234717Y435235D01*
X234814Y435336D01*
X234915Y435433D01*
X235018Y435528D01*
X235124Y435620D01*
X235233Y435709D01*
X235343Y435795D01*
X235457Y435878D01*
X235572Y435957D01*
X235690Y436034D01*
X235810Y436107D01*
X235931Y436176D01*
X236055Y436242D01*
X236181Y436305D01*
X236308Y436364D01*
X236437Y436419D01*
X236567Y436471D01*
X236699Y436519D01*
X236832Y436564D01*
X236966Y436605D01*
X237101Y436642D01*
X237237Y436675D01*
X237375Y436704D01*
X237512Y436729D01*
X237651Y436751D01*
X237790Y436769D01*
X237930Y436782D01*
X238070Y436792D01*
X238210Y436798D01*
X238350Y436800D01*
X238350Y452200D02*
X238210Y452202D01*
X238070Y452208D01*
X237930Y452218D01*
X237790Y452231D01*
X237651Y452249D01*
X237512Y452271D01*
X237375Y452296D01*
X237237Y452325D01*
X237101Y452358D01*
X236966Y452395D01*
X236832Y452436D01*
X236699Y452481D01*
X236567Y452529D01*
X236437Y452581D01*
X236308Y452636D01*
X236181Y452695D01*
X236055Y452758D01*
X235931Y452824D01*
X235810Y452893D01*
X235690Y452966D01*
X235572Y453043D01*
X235457Y453122D01*
X235343Y453205D01*
X235233Y453291D01*
X235124Y453380D01*
X235018Y453472D01*
X234915Y453567D01*
X234814Y453664D01*
X234717Y453765D01*
X234622Y453868D01*
X234530Y453974D01*
X234441Y454083D01*
X234355Y454193D01*
X234272Y454307D01*
X234193Y454422D01*
X234116Y454540D01*
X234043Y454660D01*
X233974Y454781D01*
X233908Y454905D01*
X233845Y455031D01*
X233786Y455158D01*
X233731Y455287D01*
X233679Y455417D01*
X233631Y455549D01*
X233586Y455682D01*
X233545Y455816D01*
X233508Y455951D01*
X233475Y456087D01*
X233446Y456225D01*
X233421Y456362D01*
X233399Y456501D01*
X233381Y456640D01*
X233368Y456780D01*
X233358Y456920D01*
X233352Y457060D01*
X233350Y457200D01*
X233352Y457340D01*
X233358Y457480D01*
X233368Y457620D01*
X233381Y457760D01*
X233399Y457899D01*
X233421Y458038D01*
X233446Y458175D01*
X233475Y458313D01*
X233508Y458449D01*
X233545Y458584D01*
X233586Y458718D01*
X233631Y458851D01*
X233679Y458983D01*
X233731Y459113D01*
X233786Y459242D01*
X233845Y459369D01*
X233908Y459495D01*
X233974Y459619D01*
X234043Y459740D01*
X234116Y459860D01*
X234193Y459978D01*
X234272Y460093D01*
X234355Y460207D01*
X234441Y460317D01*
X234530Y460426D01*
X234622Y460532D01*
X234717Y460635D01*
X234814Y460736D01*
X234915Y460833D01*
X235018Y460928D01*
X235124Y461020D01*
X235233Y461109D01*
X235343Y461195D01*
X235457Y461278D01*
X235572Y461357D01*
X235690Y461434D01*
X235810Y461507D01*
X235931Y461576D01*
X236055Y461642D01*
X236181Y461705D01*
X236308Y461764D01*
X236437Y461819D01*
X236567Y461871D01*
X236699Y461919D01*
X236832Y461964D01*
X236966Y462005D01*
X237101Y462042D01*
X237237Y462075D01*
X237375Y462104D01*
X237512Y462129D01*
X237651Y462151D01*
X237790Y462169D01*
X237930Y462182D01*
X238070Y462192D01*
X238210Y462198D01*
X238350Y462200D01*
X238350Y477600D02*
X238210Y477602D01*
X238070Y477608D01*
X237930Y477618D01*
X237790Y477631D01*
X237651Y477649D01*
X237512Y477671D01*
X237375Y477696D01*
X237237Y477725D01*
X237101Y477758D01*
X236966Y477795D01*
X236832Y477836D01*
X236699Y477881D01*
X236567Y477929D01*
X236437Y477981D01*
X236308Y478036D01*
X236181Y478095D01*
X236055Y478158D01*
X235931Y478224D01*
X235810Y478293D01*
X235690Y478366D01*
X235572Y478443D01*
X235457Y478522D01*
X235343Y478605D01*
X235233Y478691D01*
X235124Y478780D01*
X235018Y478872D01*
X234915Y478967D01*
X234814Y479064D01*
X234717Y479165D01*
X234622Y479268D01*
X234530Y479374D01*
X234441Y479483D01*
X234355Y479593D01*
X234272Y479707D01*
X234193Y479822D01*
X234116Y479940D01*
X234043Y480060D01*
X233974Y480181D01*
X233908Y480305D01*
X233845Y480431D01*
X233786Y480558D01*
X233731Y480687D01*
X233679Y480817D01*
X233631Y480949D01*
X233586Y481082D01*
X233545Y481216D01*
X233508Y481351D01*
X233475Y481487D01*
X233446Y481625D01*
X233421Y481762D01*
X233399Y481901D01*
X233381Y482040D01*
X233368Y482180D01*
X233358Y482320D01*
X233352Y482460D01*
X233350Y482600D01*
X233352Y482740D01*
X233358Y482880D01*
X233368Y483020D01*
X233381Y483160D01*
X233399Y483299D01*
X233421Y483438D01*
X233446Y483575D01*
X233475Y483713D01*
X233508Y483849D01*
X233545Y483984D01*
X233586Y484118D01*
X233631Y484251D01*
X233679Y484383D01*
X233731Y484513D01*
X233786Y484642D01*
X233845Y484769D01*
X233908Y484895D01*
X233974Y485019D01*
X234043Y485140D01*
X234116Y485260D01*
X234193Y485378D01*
X234272Y485493D01*
X234355Y485607D01*
X234441Y485717D01*
X234530Y485826D01*
X234622Y485932D01*
X234717Y486035D01*
X234814Y486136D01*
X234915Y486233D01*
X235018Y486328D01*
X235124Y486420D01*
X235233Y486509D01*
X235343Y486595D01*
X235457Y486678D01*
X235572Y486757D01*
X235690Y486834D01*
X235810Y486907D01*
X235931Y486976D01*
X236055Y487042D01*
X236181Y487105D01*
X236308Y487164D01*
X236437Y487219D01*
X236567Y487271D01*
X236699Y487319D01*
X236832Y487364D01*
X236966Y487405D01*
X237101Y487442D01*
X237237Y487475D01*
X237375Y487504D01*
X237512Y487529D01*
X237651Y487551D01*
X237790Y487569D01*
X237930Y487582D01*
X238070Y487592D01*
X238210Y487598D01*
X238350Y487600D01*
X238350Y503000D02*
X238210Y503002D01*
X238070Y503008D01*
X237930Y503018D01*
X237790Y503031D01*
X237651Y503049D01*
X237512Y503071D01*
X237375Y503096D01*
X237237Y503125D01*
X237101Y503158D01*
X236966Y503195D01*
X236832Y503236D01*
X236699Y503281D01*
X236567Y503329D01*
X236437Y503381D01*
X236308Y503436D01*
X236181Y503495D01*
X236055Y503558D01*
X235931Y503624D01*
X235810Y503693D01*
X235690Y503766D01*
X235572Y503843D01*
X235457Y503922D01*
X235343Y504005D01*
X235233Y504091D01*
X235124Y504180D01*
X235018Y504272D01*
X234915Y504367D01*
X234814Y504464D01*
X234717Y504565D01*
X234622Y504668D01*
X234530Y504774D01*
X234441Y504883D01*
X234355Y504993D01*
X234272Y505107D01*
X234193Y505222D01*
X234116Y505340D01*
X234043Y505460D01*
X233974Y505581D01*
X233908Y505705D01*
X233845Y505831D01*
X233786Y505958D01*
X233731Y506087D01*
X233679Y506217D01*
X233631Y506349D01*
X233586Y506482D01*
X233545Y506616D01*
X233508Y506751D01*
X233475Y506887D01*
X233446Y507025D01*
X233421Y507162D01*
X233399Y507301D01*
X233381Y507440D01*
X233368Y507580D01*
X233358Y507720D01*
X233352Y507860D01*
X233350Y508000D01*
X233352Y508140D01*
X233358Y508280D01*
X233368Y508420D01*
X233381Y508560D01*
X233399Y508699D01*
X233421Y508838D01*
X233446Y508975D01*
X233475Y509113D01*
X233508Y509249D01*
X233545Y509384D01*
X233586Y509518D01*
X233631Y509651D01*
X233679Y509783D01*
X233731Y509913D01*
X233786Y510042D01*
X233845Y510169D01*
X233908Y510295D01*
X233974Y510419D01*
X234043Y510540D01*
X234116Y510660D01*
X234193Y510778D01*
X234272Y510893D01*
X234355Y511007D01*
X234441Y511117D01*
X234530Y511226D01*
X234622Y511332D01*
X234717Y511435D01*
X234814Y511536D01*
X234915Y511633D01*
X235018Y511728D01*
X235124Y511820D01*
X235233Y511909D01*
X235343Y511995D01*
X235457Y512078D01*
X235572Y512157D01*
X235690Y512234D01*
X235810Y512307D01*
X235931Y512376D01*
X236055Y512442D01*
X236181Y512505D01*
X236308Y512564D01*
X236437Y512619D01*
X236567Y512671D01*
X236699Y512719D01*
X236832Y512764D01*
X236966Y512805D01*
X237101Y512842D01*
X237237Y512875D01*
X237375Y512904D01*
X237512Y512929D01*
X237651Y512951D01*
X237790Y512969D01*
X237930Y512982D01*
X238070Y512992D01*
X238210Y512998D01*
X238350Y513000D01*
X238350Y528400D02*
X238210Y528402D01*
X238070Y528408D01*
X237930Y528418D01*
X237790Y528431D01*
X237651Y528449D01*
X237512Y528471D01*
X237375Y528496D01*
X237237Y528525D01*
X237101Y528558D01*
X236966Y528595D01*
X236832Y528636D01*
X236699Y528681D01*
X236567Y528729D01*
X236437Y528781D01*
X236308Y528836D01*
X236181Y528895D01*
X236055Y528958D01*
X235931Y529024D01*
X235810Y529093D01*
X235690Y529166D01*
X235572Y529243D01*
X235457Y529322D01*
X235343Y529405D01*
X235233Y529491D01*
X235124Y529580D01*
X235018Y529672D01*
X234915Y529767D01*
X234814Y529864D01*
X234717Y529965D01*
X234622Y530068D01*
X234530Y530174D01*
X234441Y530283D01*
X234355Y530393D01*
X234272Y530507D01*
X234193Y530622D01*
X234116Y530740D01*
X234043Y530860D01*
X233974Y530981D01*
X233908Y531105D01*
X233845Y531231D01*
X233786Y531358D01*
X233731Y531487D01*
X233679Y531617D01*
X233631Y531749D01*
X233586Y531882D01*
X233545Y532016D01*
X233508Y532151D01*
X233475Y532287D01*
X233446Y532425D01*
X233421Y532562D01*
X233399Y532701D01*
X233381Y532840D01*
X233368Y532980D01*
X233358Y533120D01*
X233352Y533260D01*
X233350Y533400D01*
X233352Y533540D01*
X233358Y533680D01*
X233368Y533820D01*
X233381Y533960D01*
X233399Y534099D01*
X233421Y534238D01*
X233446Y534375D01*
X233475Y534513D01*
X233508Y534649D01*
X233545Y534784D01*
X233586Y534918D01*
X233631Y535051D01*
X233679Y535183D01*
X233731Y535313D01*
X233786Y535442D01*
X233845Y535569D01*
X233908Y535695D01*
X233974Y535819D01*
X234043Y535940D01*
X234116Y536060D01*
X234193Y536178D01*
X234272Y536293D01*
X234355Y536407D01*
X234441Y536517D01*
X234530Y536626D01*
X234622Y536732D01*
X234717Y536835D01*
X234814Y536936D01*
X234915Y537033D01*
X235018Y537128D01*
X235124Y537220D01*
X235233Y537309D01*
X235343Y537395D01*
X235457Y537478D01*
X235572Y537557D01*
X235690Y537634D01*
X235810Y537707D01*
X235931Y537776D01*
X236055Y537842D01*
X236181Y537905D01*
X236308Y537964D01*
X236437Y538019D01*
X236567Y538071D01*
X236699Y538119D01*
X236832Y538164D01*
X236966Y538205D01*
X237101Y538242D01*
X237237Y538275D01*
X237375Y538304D01*
X237512Y538329D01*
X237651Y538351D01*
X237790Y538369D01*
X237930Y538382D01*
X238070Y538392D01*
X238210Y538398D01*
X238350Y538400D01*
X238350Y553800D02*
X238210Y553802D01*
X238070Y553808D01*
X237930Y553818D01*
X237790Y553831D01*
X237651Y553849D01*
X237512Y553871D01*
X237375Y553896D01*
X237237Y553925D01*
X237101Y553958D01*
X236966Y553995D01*
X236832Y554036D01*
X236699Y554081D01*
X236567Y554129D01*
X236437Y554181D01*
X236308Y554236D01*
X236181Y554295D01*
X236055Y554358D01*
X235931Y554424D01*
X235810Y554493D01*
X235690Y554566D01*
X235572Y554643D01*
X235457Y554722D01*
X235343Y554805D01*
X235233Y554891D01*
X235124Y554980D01*
X235018Y555072D01*
X234915Y555167D01*
X234814Y555264D01*
X234717Y555365D01*
X234622Y555468D01*
X234530Y555574D01*
X234441Y555683D01*
X234355Y555793D01*
X234272Y555907D01*
X234193Y556022D01*
X234116Y556140D01*
X234043Y556260D01*
X233974Y556381D01*
X233908Y556505D01*
X233845Y556631D01*
X233786Y556758D01*
X233731Y556887D01*
X233679Y557017D01*
X233631Y557149D01*
X233586Y557282D01*
X233545Y557416D01*
X233508Y557551D01*
X233475Y557687D01*
X233446Y557825D01*
X233421Y557962D01*
X233399Y558101D01*
X233381Y558240D01*
X233368Y558380D01*
X233358Y558520D01*
X233352Y558660D01*
X233350Y558800D01*
X233352Y558940D01*
X233358Y559080D01*
X233368Y559220D01*
X233381Y559360D01*
X233399Y559499D01*
X233421Y559638D01*
X233446Y559775D01*
X233475Y559913D01*
X233508Y560049D01*
X233545Y560184D01*
X233586Y560318D01*
X233631Y560451D01*
X233679Y560583D01*
X233731Y560713D01*
X233786Y560842D01*
X233845Y560969D01*
X233908Y561095D01*
X233974Y561219D01*
X234043Y561340D01*
X234116Y561460D01*
X234193Y561578D01*
X234272Y561693D01*
X234355Y561807D01*
X234441Y561917D01*
X234530Y562026D01*
X234622Y562132D01*
X234717Y562235D01*
X234814Y562336D01*
X234915Y562433D01*
X235018Y562528D01*
X235124Y562620D01*
X235233Y562709D01*
X235343Y562795D01*
X235457Y562878D01*
X235572Y562957D01*
X235690Y563034D01*
X235810Y563107D01*
X235931Y563176D01*
X236055Y563242D01*
X236181Y563305D01*
X236308Y563364D01*
X236437Y563419D01*
X236567Y563471D01*
X236699Y563519D01*
X236832Y563564D01*
X236966Y563605D01*
X237101Y563642D01*
X237237Y563675D01*
X237375Y563704D01*
X237512Y563729D01*
X237651Y563751D01*
X237790Y563769D01*
X237930Y563782D01*
X238070Y563792D01*
X238210Y563798D01*
X238350Y563800D01*
X238350Y579200D02*
X238210Y579202D01*
X238070Y579208D01*
X237930Y579218D01*
X237790Y579231D01*
X237651Y579249D01*
X237512Y579271D01*
X237375Y579296D01*
X237237Y579325D01*
X237101Y579358D01*
X236966Y579395D01*
X236832Y579436D01*
X236699Y579481D01*
X236567Y579529D01*
X236437Y579581D01*
X236308Y579636D01*
X236181Y579695D01*
X236055Y579758D01*
X235931Y579824D01*
X235810Y579893D01*
X235690Y579966D01*
X235572Y580043D01*
X235457Y580122D01*
X235343Y580205D01*
X235233Y580291D01*
X235124Y580380D01*
X235018Y580472D01*
X234915Y580567D01*
X234814Y580664D01*
X234717Y580765D01*
X234622Y580868D01*
X234530Y580974D01*
X234441Y581083D01*
X234355Y581193D01*
X234272Y581307D01*
X234193Y581422D01*
X234116Y581540D01*
X234043Y581660D01*
X233974Y581781D01*
X233908Y581905D01*
X233845Y582031D01*
X233786Y582158D01*
X233731Y582287D01*
X233679Y582417D01*
X233631Y582549D01*
X233586Y582682D01*
X233545Y582816D01*
X233508Y582951D01*
X233475Y583087D01*
X233446Y583225D01*
X233421Y583362D01*
X233399Y583501D01*
X233381Y583640D01*
X233368Y583780D01*
X233358Y583920D01*
X233352Y584060D01*
X233350Y584200D01*
X233352Y584340D01*
X233358Y584480D01*
X233368Y584620D01*
X233381Y584760D01*
X233399Y584899D01*
X233421Y585038D01*
X233446Y585175D01*
X233475Y585313D01*
X233508Y585449D01*
X233545Y585584D01*
X233586Y585718D01*
X233631Y585851D01*
X233679Y585983D01*
X233731Y586113D01*
X233786Y586242D01*
X233845Y586369D01*
X233908Y586495D01*
X233974Y586619D01*
X234043Y586740D01*
X234116Y586860D01*
X234193Y586978D01*
X234272Y587093D01*
X234355Y587207D01*
X234441Y587317D01*
X234530Y587426D01*
X234622Y587532D01*
X234717Y587635D01*
X234814Y587736D01*
X234915Y587833D01*
X235018Y587928D01*
X235124Y588020D01*
X235233Y588109D01*
X235343Y588195D01*
X235457Y588278D01*
X235572Y588357D01*
X235690Y588434D01*
X235810Y588507D01*
X235931Y588576D01*
X236055Y588642D01*
X236181Y588705D01*
X236308Y588764D01*
X236437Y588819D01*
X236567Y588871D01*
X236699Y588919D01*
X236832Y588964D01*
X236966Y589005D01*
X237101Y589042D01*
X237237Y589075D01*
X237375Y589104D01*
X237512Y589129D01*
X237651Y589151D01*
X237790Y589169D01*
X237930Y589182D01*
X238070Y589192D01*
X238210Y589198D01*
X238350Y589200D01*
X238350Y604600D02*
X238210Y604602D01*
X238070Y604608D01*
X237930Y604618D01*
X237790Y604631D01*
X237651Y604649D01*
X237512Y604671D01*
X237375Y604696D01*
X237237Y604725D01*
X237101Y604758D01*
X236966Y604795D01*
X236832Y604836D01*
X236699Y604881D01*
X236567Y604929D01*
X236437Y604981D01*
X236308Y605036D01*
X236181Y605095D01*
X236055Y605158D01*
X235931Y605224D01*
X235810Y605293D01*
X235690Y605366D01*
X235572Y605443D01*
X235457Y605522D01*
X235343Y605605D01*
X235233Y605691D01*
X235124Y605780D01*
X235018Y605872D01*
X234915Y605967D01*
X234814Y606064D01*
X234717Y606165D01*
X234622Y606268D01*
X234530Y606374D01*
X234441Y606483D01*
X234355Y606593D01*
X234272Y606707D01*
X234193Y606822D01*
X234116Y606940D01*
X234043Y607060D01*
X233974Y607181D01*
X233908Y607305D01*
X233845Y607431D01*
X233786Y607558D01*
X233731Y607687D01*
X233679Y607817D01*
X233631Y607949D01*
X233586Y608082D01*
X233545Y608216D01*
X233508Y608351D01*
X233475Y608487D01*
X233446Y608625D01*
X233421Y608762D01*
X233399Y608901D01*
X233381Y609040D01*
X233368Y609180D01*
X233358Y609320D01*
X233352Y609460D01*
X233350Y609600D01*
X233352Y609740D01*
X233358Y609880D01*
X233368Y610020D01*
X233381Y610160D01*
X233399Y610299D01*
X233421Y610438D01*
X233446Y610575D01*
X233475Y610713D01*
X233508Y610849D01*
X233545Y610984D01*
X233586Y611118D01*
X233631Y611251D01*
X233679Y611383D01*
X233731Y611513D01*
X233786Y611642D01*
X233845Y611769D01*
X233908Y611895D01*
X233974Y612019D01*
X234043Y612140D01*
X234116Y612260D01*
X234193Y612378D01*
X234272Y612493D01*
X234355Y612607D01*
X234441Y612717D01*
X234530Y612826D01*
X234622Y612932D01*
X234717Y613035D01*
X234814Y613136D01*
X234915Y613233D01*
X235018Y613328D01*
X235124Y613420D01*
X235233Y613509D01*
X235343Y613595D01*
X235457Y613678D01*
X235572Y613757D01*
X235690Y613834D01*
X235810Y613907D01*
X235931Y613976D01*
X236055Y614042D01*
X236181Y614105D01*
X236308Y614164D01*
X236437Y614219D01*
X236567Y614271D01*
X236699Y614319D01*
X236832Y614364D01*
X236966Y614405D01*
X237101Y614442D01*
X237237Y614475D01*
X237375Y614504D01*
X237512Y614529D01*
X237651Y614551D01*
X237790Y614569D01*
X237930Y614582D01*
X238070Y614592D01*
X238210Y614598D01*
X238350Y614600D01*
X238350Y630000D02*
X238210Y630002D01*
X238070Y630008D01*
X237930Y630018D01*
X237790Y630031D01*
X237651Y630049D01*
X237512Y630071D01*
X237375Y630096D01*
X237237Y630125D01*
X237101Y630158D01*
X236966Y630195D01*
X236832Y630236D01*
X236699Y630281D01*
X236567Y630329D01*
X236437Y630381D01*
X236308Y630436D01*
X236181Y630495D01*
X236055Y630558D01*
X235931Y630624D01*
X235810Y630693D01*
X235690Y630766D01*
X235572Y630843D01*
X235457Y630922D01*
X235343Y631005D01*
X235233Y631091D01*
X235124Y631180D01*
X235018Y631272D01*
X234915Y631367D01*
X234814Y631464D01*
X234717Y631565D01*
X234622Y631668D01*
X234530Y631774D01*
X234441Y631883D01*
X234355Y631993D01*
X234272Y632107D01*
X234193Y632222D01*
X234116Y632340D01*
X234043Y632460D01*
X233974Y632581D01*
X233908Y632705D01*
X233845Y632831D01*
X233786Y632958D01*
X233731Y633087D01*
X233679Y633217D01*
X233631Y633349D01*
X233586Y633482D01*
X233545Y633616D01*
X233508Y633751D01*
X233475Y633887D01*
X233446Y634025D01*
X233421Y634162D01*
X233399Y634301D01*
X233381Y634440D01*
X233368Y634580D01*
X233358Y634720D01*
X233352Y634860D01*
X233350Y635000D01*
X233352Y635140D01*
X233358Y635280D01*
X233368Y635420D01*
X233381Y635560D01*
X233399Y635699D01*
X233421Y635838D01*
X233446Y635975D01*
X233475Y636113D01*
X233508Y636249D01*
X233545Y636384D01*
X233586Y636518D01*
X233631Y636651D01*
X233679Y636783D01*
X233731Y636913D01*
X233786Y637042D01*
X233845Y637169D01*
X233908Y637295D01*
X233974Y637419D01*
X234043Y637540D01*
X234116Y637660D01*
X234193Y637778D01*
X234272Y637893D01*
X234355Y638007D01*
X234441Y638117D01*
X234530Y638226D01*
X234622Y638332D01*
X234717Y638435D01*
X234814Y638536D01*
X234915Y638633D01*
X235018Y638728D01*
X235124Y638820D01*
X235233Y638909D01*
X235343Y638995D01*
X235457Y639078D01*
X235572Y639157D01*
X235690Y639234D01*
X235810Y639307D01*
X235931Y639376D01*
X236055Y639442D01*
X236181Y639505D01*
X236308Y639564D01*
X236437Y639619D01*
X236567Y639671D01*
X236699Y639719D01*
X236832Y639764D01*
X236966Y639805D01*
X237101Y639842D01*
X237237Y639875D01*
X237375Y639904D01*
X237512Y639929D01*
X237651Y639951D01*
X237790Y639969D01*
X237930Y639982D01*
X238070Y639992D01*
X238210Y639998D01*
X238350Y640000D01*
X238350Y655400D02*
X238210Y655402D01*
X238070Y655408D01*
X237930Y655418D01*
X237790Y655431D01*
X237651Y655449D01*
X237512Y655471D01*
X237375Y655496D01*
X237237Y655525D01*
X237101Y655558D01*
X236966Y655595D01*
X236832Y655636D01*
X236699Y655681D01*
X236567Y655729D01*
X236437Y655781D01*
X236308Y655836D01*
X236181Y655895D01*
X236055Y655958D01*
X235931Y656024D01*
X235810Y656093D01*
X235690Y656166D01*
X235572Y656243D01*
X235457Y656322D01*
X235343Y656405D01*
X235233Y656491D01*
X235124Y656580D01*
X235018Y656672D01*
X234915Y656767D01*
X234814Y656864D01*
X234717Y656965D01*
X234622Y657068D01*
X234530Y657174D01*
X234441Y657283D01*
X234355Y657393D01*
X234272Y657507D01*
X234193Y657622D01*
X234116Y657740D01*
X234043Y657860D01*
X233974Y657981D01*
X233908Y658105D01*
X233845Y658231D01*
X233786Y658358D01*
X233731Y658487D01*
X233679Y658617D01*
X233631Y658749D01*
X233586Y658882D01*
X233545Y659016D01*
X233508Y659151D01*
X233475Y659287D01*
X233446Y659425D01*
X233421Y659562D01*
X233399Y659701D01*
X233381Y659840D01*
X233368Y659980D01*
X233358Y660120D01*
X233352Y660260D01*
X233350Y660400D01*
X233352Y660540D01*
X233358Y660680D01*
X233368Y660820D01*
X233381Y660960D01*
X233399Y661099D01*
X233421Y661238D01*
X233446Y661375D01*
X233475Y661513D01*
X233508Y661649D01*
X233545Y661784D01*
X233586Y661918D01*
X233631Y662051D01*
X233679Y662183D01*
X233731Y662313D01*
X233786Y662442D01*
X233845Y662569D01*
X233908Y662695D01*
X233974Y662819D01*
X234043Y662940D01*
X234116Y663060D01*
X234193Y663178D01*
X234272Y663293D01*
X234355Y663407D01*
X234441Y663517D01*
X234530Y663626D01*
X234622Y663732D01*
X234717Y663835D01*
X234814Y663936D01*
X234915Y664033D01*
X235018Y664128D01*
X235124Y664220D01*
X235233Y664309D01*
X235343Y664395D01*
X235457Y664478D01*
X235572Y664557D01*
X235690Y664634D01*
X235810Y664707D01*
X235931Y664776D01*
X236055Y664842D01*
X236181Y664905D01*
X236308Y664964D01*
X236437Y665019D01*
X236567Y665071D01*
X236699Y665119D01*
X236832Y665164D01*
X236966Y665205D01*
X237101Y665242D01*
X237237Y665275D01*
X237375Y665304D01*
X237512Y665329D01*
X237651Y665351D01*
X237790Y665369D01*
X237930Y665382D01*
X238070Y665392D01*
X238210Y665398D01*
X238350Y665400D01*
X238350Y680800D02*
X238210Y680802D01*
X238070Y680808D01*
X237930Y680818D01*
X237790Y680831D01*
X237651Y680849D01*
X237512Y680871D01*
X237375Y680896D01*
X237237Y680925D01*
X237101Y680958D01*
X236966Y680995D01*
X236832Y681036D01*
X236699Y681081D01*
X236567Y681129D01*
X236437Y681181D01*
X236308Y681236D01*
X236181Y681295D01*
X236055Y681358D01*
X235931Y681424D01*
X235810Y681493D01*
X235690Y681566D01*
X235572Y681643D01*
X235457Y681722D01*
X235343Y681805D01*
X235233Y681891D01*
X235124Y681980D01*
X235018Y682072D01*
X234915Y682167D01*
X234814Y682264D01*
X234717Y682365D01*
X234622Y682468D01*
X234530Y682574D01*
X234441Y682683D01*
X234355Y682793D01*
X234272Y682907D01*
X234193Y683022D01*
X234116Y683140D01*
X234043Y683260D01*
X233974Y683381D01*
X233908Y683505D01*
X233845Y683631D01*
X233786Y683758D01*
X233731Y683887D01*
X233679Y684017D01*
X233631Y684149D01*
X233586Y684282D01*
X233545Y684416D01*
X233508Y684551D01*
X233475Y684687D01*
X233446Y684825D01*
X233421Y684962D01*
X233399Y685101D01*
X233381Y685240D01*
X233368Y685380D01*
X233358Y685520D01*
X233352Y685660D01*
X233350Y685800D01*
X233352Y685940D01*
X233358Y686080D01*
X233368Y686220D01*
X233381Y686360D01*
X233399Y686499D01*
X233421Y686638D01*
X233446Y686775D01*
X233475Y686913D01*
X233508Y687049D01*
X233545Y687184D01*
X233586Y687318D01*
X233631Y687451D01*
X233679Y687583D01*
X233731Y687713D01*
X233786Y687842D01*
X233845Y687969D01*
X233908Y688095D01*
X233974Y688219D01*
X234043Y688340D01*
X234116Y688460D01*
X234193Y688578D01*
X234272Y688693D01*
X234355Y688807D01*
X234441Y688917D01*
X234530Y689026D01*
X234622Y689132D01*
X234717Y689235D01*
X234814Y689336D01*
X234915Y689433D01*
X235018Y689528D01*
X235124Y689620D01*
X235233Y689709D01*
X235343Y689795D01*
X235457Y689878D01*
X235572Y689957D01*
X235690Y690034D01*
X235810Y690107D01*
X235931Y690176D01*
X236055Y690242D01*
X236181Y690305D01*
X236308Y690364D01*
X236437Y690419D01*
X236567Y690471D01*
X236699Y690519D01*
X236832Y690564D01*
X236966Y690605D01*
X237101Y690642D01*
X237237Y690675D01*
X237375Y690704D01*
X237512Y690729D01*
X237651Y690751D01*
X237790Y690769D01*
X237930Y690782D01*
X238070Y690792D01*
X238210Y690798D01*
X238350Y690800D01*
X238350Y706200D02*
X238210Y706202D01*
X238070Y706208D01*
X237930Y706218D01*
X237790Y706231D01*
X237651Y706249D01*
X237512Y706271D01*
X237375Y706296D01*
X237237Y706325D01*
X237101Y706358D01*
X236966Y706395D01*
X236832Y706436D01*
X236699Y706481D01*
X236567Y706529D01*
X236437Y706581D01*
X236308Y706636D01*
X236181Y706695D01*
X236055Y706758D01*
X235931Y706824D01*
X235810Y706893D01*
X235690Y706966D01*
X235572Y707043D01*
X235457Y707122D01*
X235343Y707205D01*
X235233Y707291D01*
X235124Y707380D01*
X235018Y707472D01*
X234915Y707567D01*
X234814Y707664D01*
X234717Y707765D01*
X234622Y707868D01*
X234530Y707974D01*
X234441Y708083D01*
X234355Y708193D01*
X234272Y708307D01*
X234193Y708422D01*
X234116Y708540D01*
X234043Y708660D01*
X233974Y708781D01*
X233908Y708905D01*
X233845Y709031D01*
X233786Y709158D01*
X233731Y709287D01*
X233679Y709417D01*
X233631Y709549D01*
X233586Y709682D01*
X233545Y709816D01*
X233508Y709951D01*
X233475Y710087D01*
X233446Y710225D01*
X233421Y710362D01*
X233399Y710501D01*
X233381Y710640D01*
X233368Y710780D01*
X233358Y710920D01*
X233352Y711060D01*
X233350Y711200D01*
X233352Y711340D01*
X233358Y711480D01*
X233368Y711620D01*
X233381Y711760D01*
X233399Y711899D01*
X233421Y712038D01*
X233446Y712175D01*
X233475Y712313D01*
X233508Y712449D01*
X233545Y712584D01*
X233586Y712718D01*
X233631Y712851D01*
X233679Y712983D01*
X233731Y713113D01*
X233786Y713242D01*
X233845Y713369D01*
X233908Y713495D01*
X233974Y713619D01*
X234043Y713740D01*
X234116Y713860D01*
X234193Y713978D01*
X234272Y714093D01*
X234355Y714207D01*
X234441Y714317D01*
X234530Y714426D01*
X234622Y714532D01*
X234717Y714635D01*
X234814Y714736D01*
X234915Y714833D01*
X235018Y714928D01*
X235124Y715020D01*
X235233Y715109D01*
X235343Y715195D01*
X235457Y715278D01*
X235572Y715357D01*
X235690Y715434D01*
X235810Y715507D01*
X235931Y715576D01*
X236055Y715642D01*
X236181Y715705D01*
X236308Y715764D01*
X236437Y715819D01*
X236567Y715871D01*
X236699Y715919D01*
X236832Y715964D01*
X236966Y716005D01*
X237101Y716042D01*
X237237Y716075D01*
X237375Y716104D01*
X237512Y716129D01*
X237651Y716151D01*
X237790Y716169D01*
X237930Y716182D01*
X238070Y716192D01*
X238210Y716198D01*
X238350Y716200D01*
X238350Y731600D02*
X238210Y731602D01*
X238070Y731608D01*
X237930Y731618D01*
X237790Y731631D01*
X237651Y731649D01*
X237512Y731671D01*
X237375Y731696D01*
X237237Y731725D01*
X237101Y731758D01*
X236966Y731795D01*
X236832Y731836D01*
X236699Y731881D01*
X236567Y731929D01*
X236437Y731981D01*
X236308Y732036D01*
X236181Y732095D01*
X236055Y732158D01*
X235931Y732224D01*
X235810Y732293D01*
X235690Y732366D01*
X235572Y732443D01*
X235457Y732522D01*
X235343Y732605D01*
X235233Y732691D01*
X235124Y732780D01*
X235018Y732872D01*
X234915Y732967D01*
X234814Y733064D01*
X234717Y733165D01*
X234622Y733268D01*
X234530Y733374D01*
X234441Y733483D01*
X234355Y733593D01*
X234272Y733707D01*
X234193Y733822D01*
X234116Y733940D01*
X234043Y734060D01*
X233974Y734181D01*
X233908Y734305D01*
X233845Y734431D01*
X233786Y734558D01*
X233731Y734687D01*
X233679Y734817D01*
X233631Y734949D01*
X233586Y735082D01*
X233545Y735216D01*
X233508Y735351D01*
X233475Y735487D01*
X233446Y735625D01*
X233421Y735762D01*
X233399Y735901D01*
X233381Y736040D01*
X233368Y736180D01*
X233358Y736320D01*
X233352Y736460D01*
X233350Y736600D01*
X233352Y736740D01*
X233358Y736880D01*
X233368Y737020D01*
X233381Y737160D01*
X233399Y737299D01*
X233421Y737438D01*
X233446Y737575D01*
X233475Y737713D01*
X233508Y737849D01*
X233545Y737984D01*
X233586Y738118D01*
X233631Y738251D01*
X233679Y738383D01*
X233731Y738513D01*
X233786Y738642D01*
X233845Y738769D01*
X233908Y738895D01*
X233974Y739019D01*
X234043Y739140D01*
X234116Y739260D01*
X234193Y739378D01*
X234272Y739493D01*
X234355Y739607D01*
X234441Y739717D01*
X234530Y739826D01*
X234622Y739932D01*
X234717Y740035D01*
X234814Y740136D01*
X234915Y740233D01*
X235018Y740328D01*
X235124Y740420D01*
X235233Y740509D01*
X235343Y740595D01*
X235457Y740678D01*
X235572Y740757D01*
X235690Y740834D01*
X235810Y740907D01*
X235931Y740976D01*
X236055Y741042D01*
X236181Y741105D01*
X236308Y741164D01*
X236437Y741219D01*
X236567Y741271D01*
X236699Y741319D01*
X236832Y741364D01*
X236966Y741405D01*
X237101Y741442D01*
X237237Y741475D01*
X237375Y741504D01*
X237512Y741529D01*
X237651Y741551D01*
X237790Y741569D01*
X237930Y741582D01*
X238070Y741592D01*
X238210Y741598D01*
X238350Y741600D01*
X238350Y757000D02*
X238210Y757002D01*
X238070Y757008D01*
X237930Y757018D01*
X237790Y757031D01*
X237651Y757049D01*
X237512Y757071D01*
X237375Y757096D01*
X237237Y757125D01*
X237101Y757158D01*
X236966Y757195D01*
X236832Y757236D01*
X236699Y757281D01*
X236567Y757329D01*
X236437Y757381D01*
X236308Y757436D01*
X236181Y757495D01*
X236055Y757558D01*
X235931Y757624D01*
X235810Y757693D01*
X235690Y757766D01*
X235572Y757843D01*
X235457Y757922D01*
X235343Y758005D01*
X235233Y758091D01*
X235124Y758180D01*
X235018Y758272D01*
X234915Y758367D01*
X234814Y758464D01*
X234717Y758565D01*
X234622Y758668D01*
X234530Y758774D01*
X234441Y758883D01*
X234355Y758993D01*
X234272Y759107D01*
X234193Y759222D01*
X234116Y759340D01*
X234043Y759460D01*
X233974Y759581D01*
X233908Y759705D01*
X233845Y759831D01*
X233786Y759958D01*
X233731Y760087D01*
X233679Y760217D01*
X233631Y760349D01*
X233586Y760482D01*
X233545Y760616D01*
X233508Y760751D01*
X233475Y760887D01*
X233446Y761025D01*
X233421Y761162D01*
X233399Y761301D01*
X233381Y761440D01*
X233368Y761580D01*
X233358Y761720D01*
X233352Y761860D01*
X233350Y762000D01*
X233352Y762140D01*
X233358Y762280D01*
X233368Y762420D01*
X233381Y762560D01*
X233399Y762699D01*
X233421Y762838D01*
X233446Y762975D01*
X233475Y763113D01*
X233508Y763249D01*
X233545Y763384D01*
X233586Y763518D01*
X233631Y763651D01*
X233679Y763783D01*
X233731Y763913D01*
X233786Y764042D01*
X233845Y764169D01*
X233908Y764295D01*
X233974Y764419D01*
X234043Y764540D01*
X234116Y764660D01*
X234193Y764778D01*
X234272Y764893D01*
X234355Y765007D01*
X234441Y765117D01*
X234530Y765226D01*
X234622Y765332D01*
X234717Y765435D01*
X234814Y765536D01*
X234915Y765633D01*
X235018Y765728D01*
X235124Y765820D01*
X235233Y765909D01*
X235343Y765995D01*
X235457Y766078D01*
X235572Y766157D01*
X235690Y766234D01*
X235810Y766307D01*
X235931Y766376D01*
X236055Y766442D01*
X236181Y766505D01*
X236308Y766564D01*
X236437Y766619D01*
X236567Y766671D01*
X236699Y766719D01*
X236832Y766764D01*
X236966Y766805D01*
X237101Y766842D01*
X237237Y766875D01*
X237375Y766904D01*
X237512Y766929D01*
X237651Y766951D01*
X237790Y766969D01*
X237930Y766982D01*
X238070Y766992D01*
X238210Y766998D01*
X238350Y767000D01*
X238350Y782400D02*
X238210Y782402D01*
X238070Y782408D01*
X237930Y782418D01*
X237790Y782431D01*
X237651Y782449D01*
X237512Y782471D01*
X237375Y782496D01*
X237237Y782525D01*
X237101Y782558D01*
X236966Y782595D01*
X236832Y782636D01*
X236699Y782681D01*
X236567Y782729D01*
X236437Y782781D01*
X236308Y782836D01*
X236181Y782895D01*
X236055Y782958D01*
X235931Y783024D01*
X235810Y783093D01*
X235690Y783166D01*
X235572Y783243D01*
X235457Y783322D01*
X235343Y783405D01*
X235233Y783491D01*
X235124Y783580D01*
X235018Y783672D01*
X234915Y783767D01*
X234814Y783864D01*
X234717Y783965D01*
X234622Y784068D01*
X234530Y784174D01*
X234441Y784283D01*
X234355Y784393D01*
X234272Y784507D01*
X234193Y784622D01*
X234116Y784740D01*
X234043Y784860D01*
X233974Y784981D01*
X233908Y785105D01*
X233845Y785231D01*
X233786Y785358D01*
X233731Y785487D01*
X233679Y785617D01*
X233631Y785749D01*
X233586Y785882D01*
X233545Y786016D01*
X233508Y786151D01*
X233475Y786287D01*
X233446Y786425D01*
X233421Y786562D01*
X233399Y786701D01*
X233381Y786840D01*
X233368Y786980D01*
X233358Y787120D01*
X233352Y787260D01*
X233350Y787400D01*
X233352Y787540D01*
X233358Y787680D01*
X233368Y787820D01*
X233381Y787960D01*
X233399Y788099D01*
X233421Y788238D01*
X233446Y788375D01*
X233475Y788513D01*
X233508Y788649D01*
X233545Y788784D01*
X233586Y788918D01*
X233631Y789051D01*
X233679Y789183D01*
X233731Y789313D01*
X233786Y789442D01*
X233845Y789569D01*
X233908Y789695D01*
X233974Y789819D01*
X234043Y789940D01*
X234116Y790060D01*
X234193Y790178D01*
X234272Y790293D01*
X234355Y790407D01*
X234441Y790517D01*
X234530Y790626D01*
X234622Y790732D01*
X234717Y790835D01*
X234814Y790936D01*
X234915Y791033D01*
X235018Y791128D01*
X235124Y791220D01*
X235233Y791309D01*
X235343Y791395D01*
X235457Y791478D01*
X235572Y791557D01*
X235690Y791634D01*
X235810Y791707D01*
X235931Y791776D01*
X236055Y791842D01*
X236181Y791905D01*
X236308Y791964D01*
X236437Y792019D01*
X236567Y792071D01*
X236699Y792119D01*
X236832Y792164D01*
X236966Y792205D01*
X237101Y792242D01*
X237237Y792275D01*
X237375Y792304D01*
X237512Y792329D01*
X237651Y792351D01*
X237790Y792369D01*
X237930Y792382D01*
X238070Y792392D01*
X238210Y792398D01*
X238350Y792400D01*
X238350Y807800D02*
X238210Y807802D01*
X238070Y807808D01*
X237930Y807818D01*
X237790Y807831D01*
X237651Y807849D01*
X237512Y807871D01*
X237375Y807896D01*
X237237Y807925D01*
X237101Y807958D01*
X236966Y807995D01*
X236832Y808036D01*
X236699Y808081D01*
X236567Y808129D01*
X236437Y808181D01*
X236308Y808236D01*
X236181Y808295D01*
X236055Y808358D01*
X235931Y808424D01*
X235810Y808493D01*
X235690Y808566D01*
X235572Y808643D01*
X235457Y808722D01*
X235343Y808805D01*
X235233Y808891D01*
X235124Y808980D01*
X235018Y809072D01*
X234915Y809167D01*
X234814Y809264D01*
X234717Y809365D01*
X234622Y809468D01*
X234530Y809574D01*
X234441Y809683D01*
X234355Y809793D01*
X234272Y809907D01*
X234193Y810022D01*
X234116Y810140D01*
X234043Y810260D01*
X233974Y810381D01*
X233908Y810505D01*
X233845Y810631D01*
X233786Y810758D01*
X233731Y810887D01*
X233679Y811017D01*
X233631Y811149D01*
X233586Y811282D01*
X233545Y811416D01*
X233508Y811551D01*
X233475Y811687D01*
X233446Y811825D01*
X233421Y811962D01*
X233399Y812101D01*
X233381Y812240D01*
X233368Y812380D01*
X233358Y812520D01*
X233352Y812660D01*
X233350Y812800D01*
X233352Y812940D01*
X233358Y813080D01*
X233368Y813220D01*
X233381Y813360D01*
X233399Y813499D01*
X233421Y813638D01*
X233446Y813775D01*
X233475Y813913D01*
X233508Y814049D01*
X233545Y814184D01*
X233586Y814318D01*
X233631Y814451D01*
X233679Y814583D01*
X233731Y814713D01*
X233786Y814842D01*
X233845Y814969D01*
X233908Y815095D01*
X233974Y815219D01*
X234043Y815340D01*
X234116Y815460D01*
X234193Y815578D01*
X234272Y815693D01*
X234355Y815807D01*
X234441Y815917D01*
X234530Y816026D01*
X234622Y816132D01*
X234717Y816235D01*
X234814Y816336D01*
X234915Y816433D01*
X235018Y816528D01*
X235124Y816620D01*
X235233Y816709D01*
X235343Y816795D01*
X235457Y816878D01*
X235572Y816957D01*
X235690Y817034D01*
X235810Y817107D01*
X235931Y817176D01*
X236055Y817242D01*
X236181Y817305D01*
X236308Y817364D01*
X236437Y817419D01*
X236567Y817471D01*
X236699Y817519D01*
X236832Y817564D01*
X236966Y817605D01*
X237101Y817642D01*
X237237Y817675D01*
X237375Y817704D01*
X237512Y817729D01*
X237651Y817751D01*
X237790Y817769D01*
X237930Y817782D01*
X238070Y817792D01*
X238210Y817798D01*
X238350Y817800D01*
X138350Y316500D02*
X138348Y316640D01*
X138342Y316780D01*
X138332Y316920D01*
X138319Y317060D01*
X138301Y317199D01*
X138279Y317338D01*
X138254Y317475D01*
X138225Y317613D01*
X138192Y317749D01*
X138155Y317884D01*
X138114Y318018D01*
X138069Y318151D01*
X138021Y318283D01*
X137969Y318413D01*
X137914Y318542D01*
X137855Y318669D01*
X137792Y318795D01*
X137726Y318919D01*
X137657Y319040D01*
X137584Y319160D01*
X137507Y319278D01*
X137428Y319393D01*
X137345Y319507D01*
X137259Y319617D01*
X137170Y319726D01*
X137078Y319832D01*
X136983Y319935D01*
X136886Y320036D01*
X136785Y320133D01*
X136682Y320228D01*
X136576Y320320D01*
X136467Y320409D01*
X136357Y320495D01*
X136243Y320578D01*
X136128Y320657D01*
X136010Y320734D01*
X135890Y320807D01*
X135769Y320876D01*
X135645Y320942D01*
X135519Y321005D01*
X135392Y321064D01*
X135263Y321119D01*
X135133Y321171D01*
X135001Y321219D01*
X134868Y321264D01*
X134734Y321305D01*
X134599Y321342D01*
X134463Y321375D01*
X134325Y321404D01*
X134188Y321429D01*
X134049Y321451D01*
X133910Y321469D01*
X133770Y321482D01*
X133630Y321492D01*
X133490Y321498D01*
X133350Y321500D01*
X133210Y321498D01*
X133070Y321492D01*
X132930Y321482D01*
X132790Y321469D01*
X132651Y321451D01*
X132512Y321429D01*
X132375Y321404D01*
X132237Y321375D01*
X132101Y321342D01*
X131966Y321305D01*
X131832Y321264D01*
X131699Y321219D01*
X131567Y321171D01*
X131437Y321119D01*
X131308Y321064D01*
X131181Y321005D01*
X131055Y320942D01*
X130931Y320876D01*
X130810Y320807D01*
X130690Y320734D01*
X130572Y320657D01*
X130457Y320578D01*
X130343Y320495D01*
X130233Y320409D01*
X130124Y320320D01*
X130018Y320228D01*
X129915Y320133D01*
X129814Y320036D01*
X129717Y319935D01*
X129622Y319832D01*
X129530Y319726D01*
X129441Y319617D01*
X129355Y319507D01*
X129272Y319393D01*
X129193Y319278D01*
X129116Y319160D01*
X129043Y319040D01*
X128974Y318919D01*
X128908Y318795D01*
X128845Y318669D01*
X128786Y318542D01*
X128731Y318413D01*
X128679Y318283D01*
X128631Y318151D01*
X128586Y318018D01*
X128545Y317884D01*
X128508Y317749D01*
X128475Y317613D01*
X128446Y317475D01*
X128421Y317338D01*
X128399Y317199D01*
X128381Y317060D01*
X128368Y316920D01*
X128358Y316780D01*
X128352Y316640D01*
X128350Y316500D01*
X153750Y316500D02*
X153752Y316640D01*
X153758Y316780D01*
X153768Y316920D01*
X153781Y317060D01*
X153799Y317199D01*
X153821Y317338D01*
X153846Y317475D01*
X153875Y317613D01*
X153908Y317749D01*
X153945Y317884D01*
X153986Y318018D01*
X154031Y318151D01*
X154079Y318283D01*
X154131Y318413D01*
X154186Y318542D01*
X154245Y318669D01*
X154308Y318795D01*
X154374Y318919D01*
X154443Y319040D01*
X154516Y319160D01*
X154593Y319278D01*
X154672Y319393D01*
X154755Y319507D01*
X154841Y319617D01*
X154930Y319726D01*
X155022Y319832D01*
X155117Y319935D01*
X155214Y320036D01*
X155315Y320133D01*
X155418Y320228D01*
X155524Y320320D01*
X155633Y320409D01*
X155743Y320495D01*
X155857Y320578D01*
X155972Y320657D01*
X156090Y320734D01*
X156210Y320807D01*
X156331Y320876D01*
X156455Y320942D01*
X156581Y321005D01*
X156708Y321064D01*
X156837Y321119D01*
X156967Y321171D01*
X157099Y321219D01*
X157232Y321264D01*
X157366Y321305D01*
X157501Y321342D01*
X157637Y321375D01*
X157775Y321404D01*
X157912Y321429D01*
X158051Y321451D01*
X158190Y321469D01*
X158330Y321482D01*
X158470Y321492D01*
X158610Y321498D01*
X158750Y321500D01*
X158890Y321498D01*
X159030Y321492D01*
X159170Y321482D01*
X159310Y321469D01*
X159449Y321451D01*
X159588Y321429D01*
X159725Y321404D01*
X159863Y321375D01*
X159999Y321342D01*
X160134Y321305D01*
X160268Y321264D01*
X160401Y321219D01*
X160533Y321171D01*
X160663Y321119D01*
X160792Y321064D01*
X160919Y321005D01*
X161045Y320942D01*
X161169Y320876D01*
X161290Y320807D01*
X161410Y320734D01*
X161528Y320657D01*
X161643Y320578D01*
X161757Y320495D01*
X161867Y320409D01*
X161976Y320320D01*
X162082Y320228D01*
X162185Y320133D01*
X162286Y320036D01*
X162383Y319935D01*
X162478Y319832D01*
X162570Y319726D01*
X162659Y319617D01*
X162745Y319507D01*
X162828Y319393D01*
X162907Y319278D01*
X162984Y319160D01*
X163057Y319040D01*
X163126Y318919D01*
X163192Y318795D01*
X163255Y318669D01*
X163314Y318542D01*
X163369Y318413D01*
X163421Y318283D01*
X163469Y318151D01*
X163514Y318018D01*
X163555Y317884D01*
X163592Y317749D01*
X163625Y317613D01*
X163654Y317475D01*
X163679Y317338D01*
X163701Y317199D01*
X163719Y317060D01*
X163732Y316920D01*
X163742Y316780D01*
X163748Y316640D01*
X163750Y316500D01*
X112950Y316500D02*
X112948Y316640D01*
X112942Y316780D01*
X112932Y316920D01*
X112919Y317060D01*
X112901Y317199D01*
X112879Y317338D01*
X112854Y317475D01*
X112825Y317613D01*
X112792Y317749D01*
X112755Y317884D01*
X112714Y318018D01*
X112669Y318151D01*
X112621Y318283D01*
X112569Y318413D01*
X112514Y318542D01*
X112455Y318669D01*
X112392Y318795D01*
X112326Y318919D01*
X112257Y319040D01*
X112184Y319160D01*
X112107Y319278D01*
X112028Y319393D01*
X111945Y319507D01*
X111859Y319617D01*
X111770Y319726D01*
X111678Y319832D01*
X111583Y319935D01*
X111486Y320036D01*
X111385Y320133D01*
X111282Y320228D01*
X111176Y320320D01*
X111067Y320409D01*
X110957Y320495D01*
X110843Y320578D01*
X110728Y320657D01*
X110610Y320734D01*
X110490Y320807D01*
X110369Y320876D01*
X110245Y320942D01*
X110119Y321005D01*
X109992Y321064D01*
X109863Y321119D01*
X109733Y321171D01*
X109601Y321219D01*
X109468Y321264D01*
X109334Y321305D01*
X109199Y321342D01*
X109063Y321375D01*
X108925Y321404D01*
X108788Y321429D01*
X108649Y321451D01*
X108510Y321469D01*
X108370Y321482D01*
X108230Y321492D01*
X108090Y321498D01*
X107950Y321500D01*
X107810Y321498D01*
X107670Y321492D01*
X107530Y321482D01*
X107390Y321469D01*
X107251Y321451D01*
X107112Y321429D01*
X106975Y321404D01*
X106837Y321375D01*
X106701Y321342D01*
X106566Y321305D01*
X106432Y321264D01*
X106299Y321219D01*
X106167Y321171D01*
X106037Y321119D01*
X105908Y321064D01*
X105781Y321005D01*
X105655Y320942D01*
X105531Y320876D01*
X105410Y320807D01*
X105290Y320734D01*
X105172Y320657D01*
X105057Y320578D01*
X104943Y320495D01*
X104833Y320409D01*
X104724Y320320D01*
X104618Y320228D01*
X104515Y320133D01*
X104414Y320036D01*
X104317Y319935D01*
X104222Y319832D01*
X104130Y319726D01*
X104041Y319617D01*
X103955Y319507D01*
X103872Y319393D01*
X103793Y319278D01*
X103716Y319160D01*
X103643Y319040D01*
X103574Y318919D01*
X103508Y318795D01*
X103445Y318669D01*
X103386Y318542D01*
X103331Y318413D01*
X103279Y318283D01*
X103231Y318151D01*
X103186Y318018D01*
X103145Y317884D01*
X103108Y317749D01*
X103075Y317613D01*
X103046Y317475D01*
X103021Y317338D01*
X102999Y317199D01*
X102981Y317060D01*
X102968Y316920D01*
X102958Y316780D01*
X102952Y316640D01*
X102950Y316500D01*
D11*
X29972Y307862D02*
X29972Y294304D01*
X32684Y291592D01*
X38107Y291592D01*
X40819Y294304D01*
X40819Y307862D01*
X46344Y302439D02*
X51767Y307862D01*
X51767Y291592D01*
X46344Y291592D02*
X57190Y291592D01*
X113778Y394462D02*
X130048Y394462D01*
X113778Y394462D02*
X113778Y402597D01*
X116490Y405309D01*
X121913Y405309D01*
X124625Y402597D01*
X124625Y394462D01*
X124625Y399885D02*
X130048Y405309D01*
X130048Y410834D02*
X119201Y410834D01*
X113778Y416257D01*
X119201Y421680D01*
X130048Y421680D01*
X121913Y421680D02*
X121913Y410834D01*
X113778Y435340D02*
X116490Y438052D01*
X113778Y435340D02*
X113778Y429917D01*
X116490Y427205D01*
X119201Y427205D01*
X121913Y429917D01*
X121913Y435340D01*
X124625Y438052D01*
X127336Y438052D01*
X130048Y435340D01*
X130048Y429917D01*
X127336Y427205D01*
X130048Y443577D02*
X113778Y443577D01*
X113778Y451712D01*
X116490Y454423D01*
X121913Y454423D01*
X124625Y451712D01*
X124625Y443577D01*
X130048Y459948D02*
X113778Y459948D01*
X113778Y468083D01*
X116490Y470795D01*
X119201Y470795D01*
X121913Y468083D01*
X124625Y470795D01*
X127336Y470795D01*
X130048Y468083D01*
X130048Y459948D01*
X121913Y459948D02*
X121913Y468083D01*
X113778Y476320D02*
X113778Y487166D01*
X113778Y476320D02*
X130048Y476320D01*
X130048Y487166D01*
X121913Y481743D02*
X121913Y476320D01*
X130048Y492691D02*
X113778Y492691D01*
X113778Y500826D01*
X116490Y503538D01*
X121913Y503538D01*
X124625Y500826D01*
X124625Y492691D01*
X124625Y498115D02*
X130048Y503538D01*
X130048Y509063D02*
X113778Y509063D01*
X113778Y517198D01*
X116490Y519910D01*
X121913Y519910D01*
X124625Y517198D01*
X124625Y509063D01*
X124625Y514486D02*
X130048Y519910D01*
X116490Y525435D02*
X113778Y525435D01*
X116490Y525435D02*
X121913Y530858D01*
X116490Y536281D01*
X113778Y536281D01*
X121913Y530858D02*
X130048Y530858D01*
X132760Y541806D02*
X132760Y552653D01*
X130048Y558178D02*
X113778Y558178D01*
X113778Y566313D01*
X116490Y569024D01*
X121913Y569024D01*
X124625Y566313D01*
X124625Y558178D01*
X130048Y574549D02*
X130048Y579972D01*
X130048Y577261D02*
X113778Y577261D01*
X113778Y579972D02*
X113778Y574549D01*
X113778Y593599D02*
X116490Y596310D01*
X113778Y593599D02*
X113778Y588175D01*
X116490Y585464D01*
X127336Y585464D01*
X130048Y588175D01*
X130048Y593599D01*
X127336Y596310D01*
X113778Y604547D02*
X113778Y609970D01*
X113778Y604547D02*
X116490Y601835D01*
X127336Y601835D01*
X130048Y604547D01*
X130048Y609970D01*
X127336Y612682D01*
X116490Y612682D01*
X113778Y609970D01*
X113778Y626342D02*
X116490Y629053D01*
X113778Y626342D02*
X113778Y620918D01*
X116490Y618207D01*
X119201Y618207D01*
X121913Y620918D01*
X121913Y626342D01*
X124625Y629053D01*
X127336Y629053D01*
X130048Y626342D01*
X130048Y620918D01*
X127336Y618207D01*
X130048Y634578D02*
X113778Y634578D01*
X119201Y640002D01*
X113778Y645425D01*
X130048Y645425D01*
X130048Y650950D02*
X113778Y650950D01*
X130048Y650950D02*
X130048Y659085D01*
X127336Y661796D01*
X116490Y661796D01*
X113778Y659085D01*
X113778Y650950D01*
X121913Y667321D02*
X121913Y678168D01*
X130048Y689116D02*
X113778Y689116D01*
X113778Y683693D02*
X113778Y694540D01*
X113778Y700065D02*
X130048Y700065D01*
X121913Y700065D02*
X121913Y710911D01*
X113778Y710911D02*
X130048Y710911D01*
X584200Y330200D02*
X584200Y308610D01*
X584200Y330200D02*
X584358Y330202D01*
X584517Y330208D01*
X584675Y330218D01*
X584832Y330232D01*
X584990Y330249D01*
X585146Y330271D01*
X585303Y330296D01*
X585458Y330326D01*
X585613Y330359D01*
X585767Y330396D01*
X585920Y330437D01*
X586072Y330482D01*
X586222Y330531D01*
X586372Y330583D01*
X586520Y330639D01*
X586667Y330699D01*
X586812Y330762D01*
X586955Y330829D01*
X587097Y330899D01*
X587237Y330973D01*
X587375Y331051D01*
X587511Y331132D01*
X587645Y331216D01*
X587777Y331303D01*
X587907Y331394D01*
X588034Y331488D01*
X588159Y331585D01*
X588282Y331686D01*
X588402Y331789D01*
X588519Y331895D01*
X588634Y332004D01*
X588746Y332116D01*
X588855Y332231D01*
X588961Y332348D01*
X589064Y332468D01*
X589165Y332591D01*
X589262Y332716D01*
X589356Y332843D01*
X589447Y332973D01*
X589534Y333105D01*
X589618Y333239D01*
X589699Y333375D01*
X589777Y333513D01*
X589851Y333653D01*
X589921Y333795D01*
X589988Y333938D01*
X590051Y334083D01*
X590111Y334230D01*
X590167Y334378D01*
X590219Y334528D01*
X590268Y334678D01*
X590313Y334830D01*
X590354Y334983D01*
X590391Y335137D01*
X590424Y335292D01*
X590454Y335447D01*
X590479Y335604D01*
X590501Y335760D01*
X590518Y335918D01*
X590532Y336075D01*
X590542Y336233D01*
X590548Y336392D01*
X590550Y336550D01*
X590548Y336708D01*
X590542Y336867D01*
X590532Y337025D01*
X590518Y337182D01*
X590501Y337340D01*
X590479Y337496D01*
X590454Y337653D01*
X590424Y337808D01*
X590391Y337963D01*
X590354Y338117D01*
X590313Y338270D01*
X590268Y338422D01*
X590219Y338572D01*
X590167Y338722D01*
X590111Y338870D01*
X590051Y339017D01*
X589988Y339162D01*
X589921Y339305D01*
X589851Y339447D01*
X589777Y339587D01*
X589699Y339725D01*
X589618Y339861D01*
X589534Y339995D01*
X589447Y340127D01*
X589356Y340257D01*
X589262Y340384D01*
X589165Y340509D01*
X589064Y340632D01*
X588961Y340752D01*
X588855Y340869D01*
X588746Y340984D01*
X588634Y341096D01*
X588519Y341205D01*
X588402Y341311D01*
X588282Y341414D01*
X588159Y341515D01*
X588034Y341612D01*
X587907Y341706D01*
X587777Y341797D01*
X587645Y341884D01*
X587511Y341968D01*
X587375Y342049D01*
X587237Y342127D01*
X587097Y342201D01*
X586955Y342271D01*
X586812Y342338D01*
X586667Y342401D01*
X586520Y342461D01*
X586372Y342517D01*
X586222Y342569D01*
X586072Y342618D01*
X585920Y342663D01*
X585767Y342704D01*
X585613Y342741D01*
X585458Y342774D01*
X585303Y342804D01*
X585146Y342829D01*
X584990Y342851D01*
X584832Y342868D01*
X584675Y342882D01*
X584517Y342892D01*
X584358Y342898D01*
X584200Y342900D01*
X584200Y308610D02*
X787400Y308610D01*
X787400Y364490D01*
X584200Y364490D01*
X584200Y342900D01*
D15*
X579247Y314838D02*
X579247Y309499D01*
X579247Y312168D02*
X563231Y312168D01*
X563231Y309499D02*
X563231Y314838D01*
X563231Y328421D02*
X565901Y331091D01*
X563231Y328421D02*
X563231Y323083D01*
X565901Y320413D01*
X576578Y320413D01*
X579247Y323083D01*
X579247Y328421D01*
X576578Y331091D01*
X568570Y336785D02*
X563231Y342124D01*
X579247Y342124D01*
X579247Y347462D02*
X579247Y336785D01*
X597789Y343803D02*
X597789Y327787D01*
X597789Y343803D02*
X605797Y343803D01*
X608466Y341133D01*
X608466Y335795D01*
X605797Y333126D01*
X597789Y333126D01*
X622168Y343803D02*
X624838Y341133D01*
X622168Y343803D02*
X616830Y343803D01*
X614161Y341133D01*
X614161Y330456D01*
X616830Y327787D01*
X622168Y327787D01*
X624838Y330456D01*
X630532Y327787D02*
X630532Y343803D01*
X641209Y343803D01*
X635871Y335795D02*
X630532Y335795D01*
X646904Y341133D02*
X649573Y343803D01*
X654912Y343803D01*
X657581Y341133D01*
X657581Y338464D01*
X654912Y335795D01*
X657581Y333126D01*
X657581Y330456D01*
X654912Y327787D01*
X649573Y327787D01*
X646904Y330456D01*
X646904Y333126D01*
X649573Y335795D01*
X646904Y338464D01*
X646904Y341133D01*
X649573Y335795D02*
X654912Y335795D01*
X663275Y343803D02*
X673952Y343803D01*
X663275Y343803D02*
X663275Y335795D01*
X668614Y338464D01*
X671283Y338464D01*
X673952Y335795D01*
X673952Y330456D01*
X671283Y327787D01*
X665945Y327787D01*
X663275Y330456D01*
X679647Y343803D02*
X690324Y343803D01*
X690324Y341133D01*
X679647Y330456D01*
X679647Y327787D01*
X704026Y327787D02*
X704026Y343803D01*
X696018Y335795D01*
X706696Y335795D01*
X712390Y327787D02*
X712390Y343803D01*
X720398Y343803D01*
X723067Y341133D01*
X723067Y335795D01*
X720398Y333126D01*
X712390Y333126D01*
D11*
X508000Y314960D02*
X330200Y314960D01*
X330200Y256540D02*
X508000Y256540D01*
X508000Y314960D01*
X330200Y314960D02*
X330200Y295910D01*
X330200Y275590D02*
X330200Y256540D01*
X330200Y275590D02*
X330447Y275593D01*
X330695Y275602D01*
X330942Y275617D01*
X331188Y275638D01*
X331434Y275665D01*
X331679Y275698D01*
X331924Y275737D01*
X332167Y275782D01*
X332409Y275833D01*
X332650Y275890D01*
X332889Y275952D01*
X333127Y276021D01*
X333363Y276095D01*
X333597Y276175D01*
X333829Y276260D01*
X334059Y276352D01*
X334287Y276448D01*
X334512Y276551D01*
X334735Y276658D01*
X334955Y276772D01*
X335172Y276890D01*
X335387Y277014D01*
X335598Y277143D01*
X335806Y277277D01*
X336011Y277416D01*
X336212Y277560D01*
X336410Y277708D01*
X336604Y277862D01*
X336794Y278020D01*
X336980Y278183D01*
X337162Y278350D01*
X337340Y278522D01*
X337514Y278698D01*
X337684Y278878D01*
X337849Y279063D01*
X338009Y279251D01*
X338165Y279443D01*
X338317Y279639D01*
X338463Y279838D01*
X338605Y280041D01*
X338741Y280248D01*
X338873Y280457D01*
X338999Y280670D01*
X339120Y280886D01*
X339236Y281104D01*
X339346Y281326D01*
X339451Y281550D01*
X339551Y281776D01*
X339645Y282005D01*
X339733Y282236D01*
X339816Y282470D01*
X339893Y282705D01*
X339964Y282942D01*
X340030Y283180D01*
X340089Y283420D01*
X340143Y283662D01*
X340191Y283905D01*
X340233Y284148D01*
X340269Y284393D01*
X340299Y284639D01*
X340323Y284885D01*
X340341Y285132D01*
X340353Y285379D01*
X340359Y285626D01*
X340359Y285874D01*
X340353Y286121D01*
X340341Y286368D01*
X340323Y286615D01*
X340299Y286861D01*
X340269Y287107D01*
X340233Y287352D01*
X340191Y287595D01*
X340143Y287838D01*
X340089Y288080D01*
X340030Y288320D01*
X339964Y288558D01*
X339893Y288795D01*
X339816Y289030D01*
X339733Y289264D01*
X339645Y289495D01*
X339551Y289724D01*
X339451Y289950D01*
X339346Y290174D01*
X339236Y290396D01*
X339120Y290614D01*
X338999Y290830D01*
X338873Y291043D01*
X338741Y291252D01*
X338605Y291459D01*
X338463Y291662D01*
X338317Y291861D01*
X338165Y292057D01*
X338009Y292249D01*
X337849Y292437D01*
X337684Y292622D01*
X337514Y292802D01*
X337340Y292978D01*
X337162Y293150D01*
X336980Y293317D01*
X336794Y293480D01*
X336604Y293638D01*
X336410Y293792D01*
X336212Y293940D01*
X336011Y294084D01*
X335806Y294223D01*
X335598Y294357D01*
X335387Y294486D01*
X335172Y294610D01*
X334955Y294728D01*
X334735Y294842D01*
X334512Y294949D01*
X334287Y295052D01*
X334059Y295148D01*
X333829Y295240D01*
X333597Y295325D01*
X333363Y295405D01*
X333127Y295479D01*
X332889Y295548D01*
X332650Y295610D01*
X332409Y295667D01*
X332167Y295718D01*
X331924Y295763D01*
X331679Y295802D01*
X331434Y295835D01*
X331188Y295862D01*
X330942Y295883D01*
X330695Y295898D01*
X330447Y295907D01*
X330200Y295910D01*
D14*
X325755Y259718D02*
X325755Y255905D01*
X325755Y257812D02*
X314315Y257812D01*
X314315Y259718D02*
X314315Y255905D01*
X314315Y269421D02*
X316222Y271327D01*
X314315Y269421D02*
X314315Y265608D01*
X316222Y263701D01*
X323848Y263701D01*
X325755Y265608D01*
X325755Y269421D01*
X323848Y271327D01*
X325755Y275395D02*
X325755Y283021D01*
X325755Y275395D02*
X318129Y283021D01*
X316222Y283021D01*
X314315Y281115D01*
X314315Y277302D01*
X316222Y275395D01*
X352425Y291475D02*
X360052Y291475D01*
X360052Y289568D01*
X352425Y281942D01*
X352425Y280035D01*
X369839Y280035D02*
X369839Y291475D01*
X364119Y285755D01*
X371745Y285755D01*
X375813Y280035D02*
X375813Y291475D01*
X375813Y285755D02*
X383439Y285755D01*
X383439Y291475D02*
X383439Y280035D01*
X393227Y291475D02*
X395133Y289568D01*
X393227Y291475D02*
X389414Y291475D01*
X387507Y289568D01*
X387507Y281942D01*
X389414Y280035D01*
X393227Y280035D01*
X395133Y281942D01*
X403014Y280035D02*
X403014Y291475D01*
X399201Y291475D02*
X406827Y291475D01*
X410895Y287662D02*
X414708Y291475D01*
X414708Y280035D01*
X410895Y280035D02*
X418521Y280035D01*
X422589Y280035D02*
X430215Y280035D01*
X422589Y280035D02*
X430215Y287662D01*
X430215Y289568D01*
X428309Y291475D01*
X424495Y291475D01*
X422589Y289568D01*
X434283Y291475D02*
X441909Y291475D01*
X434283Y291475D02*
X434283Y285755D01*
X438096Y287662D01*
X440003Y287662D01*
X441909Y285755D01*
X441909Y281942D01*
X440003Y280035D01*
X436189Y280035D01*
X434283Y281942D01*
X445977Y280035D02*
X445977Y291475D01*
X453603Y280035D01*
X453603Y291475D01*
D11*
X279400Y590550D02*
X279400Y596900D01*
X273050Y607060D02*
X285750Y607060D01*
X279400Y596900D01*
X279400Y612140D01*
X273050Y607060D02*
X279400Y596900D01*
X273050Y596900D01*
X279400Y596900D02*
X285750Y596900D01*
X269240Y617220D02*
X269242Y617320D01*
X269248Y617419D01*
X269258Y617519D01*
X269271Y617617D01*
X269289Y617716D01*
X269310Y617813D01*
X269335Y617909D01*
X269364Y618005D01*
X269397Y618099D01*
X269433Y618192D01*
X269473Y618283D01*
X269517Y618373D01*
X269564Y618461D01*
X269614Y618547D01*
X269668Y618631D01*
X269725Y618713D01*
X269785Y618792D01*
X269849Y618870D01*
X269915Y618944D01*
X269984Y619016D01*
X270056Y619085D01*
X270130Y619151D01*
X270208Y619215D01*
X270287Y619275D01*
X270369Y619332D01*
X270453Y619386D01*
X270539Y619436D01*
X270627Y619483D01*
X270717Y619527D01*
X270808Y619567D01*
X270901Y619603D01*
X270995Y619636D01*
X271091Y619665D01*
X271187Y619690D01*
X271284Y619711D01*
X271383Y619729D01*
X271481Y619742D01*
X271581Y619752D01*
X271680Y619758D01*
X271780Y619760D01*
X269240Y576580D02*
X269242Y576480D01*
X269248Y576381D01*
X269258Y576281D01*
X269271Y576183D01*
X269289Y576084D01*
X269310Y575987D01*
X269335Y575891D01*
X269364Y575795D01*
X269397Y575701D01*
X269433Y575608D01*
X269473Y575517D01*
X269517Y575427D01*
X269564Y575339D01*
X269614Y575253D01*
X269668Y575169D01*
X269725Y575087D01*
X269785Y575008D01*
X269849Y574930D01*
X269915Y574856D01*
X269984Y574784D01*
X270056Y574715D01*
X270130Y574649D01*
X270208Y574585D01*
X270287Y574525D01*
X270369Y574468D01*
X270453Y574414D01*
X270539Y574364D01*
X270627Y574317D01*
X270717Y574273D01*
X270808Y574233D01*
X270901Y574197D01*
X270995Y574164D01*
X271091Y574135D01*
X271187Y574110D01*
X271284Y574089D01*
X271383Y574071D01*
X271481Y574058D01*
X271581Y574048D01*
X271680Y574042D01*
X271780Y574040D01*
X287020Y574040D02*
X287120Y574042D01*
X287219Y574048D01*
X287319Y574058D01*
X287417Y574071D01*
X287516Y574089D01*
X287613Y574110D01*
X287709Y574135D01*
X287805Y574164D01*
X287899Y574197D01*
X287992Y574233D01*
X288083Y574273D01*
X288173Y574317D01*
X288261Y574364D01*
X288347Y574414D01*
X288431Y574468D01*
X288513Y574525D01*
X288592Y574585D01*
X288670Y574649D01*
X288744Y574715D01*
X288816Y574784D01*
X288885Y574856D01*
X288951Y574930D01*
X289015Y575008D01*
X289075Y575087D01*
X289132Y575169D01*
X289186Y575253D01*
X289236Y575339D01*
X289283Y575427D01*
X289327Y575517D01*
X289367Y575608D01*
X289403Y575701D01*
X289436Y575795D01*
X289465Y575891D01*
X289490Y575987D01*
X289511Y576084D01*
X289529Y576183D01*
X289542Y576281D01*
X289552Y576381D01*
X289558Y576480D01*
X289560Y576580D01*
X289560Y617220D02*
X289558Y617320D01*
X289552Y617419D01*
X289542Y617519D01*
X289529Y617617D01*
X289511Y617716D01*
X289490Y617813D01*
X289465Y617909D01*
X289436Y618005D01*
X289403Y618099D01*
X289367Y618192D01*
X289327Y618283D01*
X289283Y618373D01*
X289236Y618461D01*
X289186Y618547D01*
X289132Y618631D01*
X289075Y618713D01*
X289015Y618792D01*
X288951Y618870D01*
X288885Y618944D01*
X288816Y619016D01*
X288744Y619085D01*
X288670Y619151D01*
X288592Y619215D01*
X288513Y619275D01*
X288431Y619332D01*
X288347Y619386D01*
X288261Y619436D01*
X288173Y619483D01*
X288083Y619527D01*
X287992Y619567D01*
X287899Y619603D01*
X287805Y619636D01*
X287709Y619665D01*
X287613Y619690D01*
X287516Y619711D01*
X287417Y619729D01*
X287319Y619742D01*
X287219Y619752D01*
X287120Y619758D01*
X287020Y619760D01*
X271780Y619760D01*
X271780Y574040D02*
X287020Y574040D01*
X269240Y576580D02*
X269240Y617220D01*
X289560Y617220D02*
X289560Y576580D01*
D16*
X279400Y580390D03*
D17*
X279400Y629285D03*
X279400Y564515D03*
D14*
X266065Y575945D02*
X254625Y575945D01*
X266065Y575945D02*
X266065Y581665D01*
X264158Y583572D01*
X256532Y583572D01*
X254625Y581665D01*
X254625Y575945D01*
X258439Y587639D02*
X254625Y591452D01*
X266065Y591452D01*
X266065Y587639D02*
X266065Y595265D01*
X293995Y579758D02*
X297809Y575945D01*
X293995Y579758D02*
X305435Y579758D01*
X305435Y575945D02*
X305435Y583572D01*
X305435Y587639D02*
X293995Y587639D01*
X305435Y595265D01*
X293995Y595265D01*
X293995Y605053D02*
X305435Y605053D01*
X299715Y599333D02*
X293995Y605053D01*
X299715Y606959D02*
X299715Y599333D01*
X297809Y611027D02*
X293995Y614840D01*
X305435Y614840D01*
X305435Y611027D02*
X305435Y618653D01*
X305435Y628441D02*
X293995Y628441D01*
X299715Y622721D01*
X299715Y630347D01*
X295902Y634415D02*
X293995Y636321D01*
X293995Y640135D01*
X295902Y642041D01*
X297809Y642041D01*
X299715Y640135D01*
X301622Y642041D01*
X303528Y642041D01*
X305435Y640135D01*
X305435Y636321D01*
X303528Y634415D01*
X301622Y634415D01*
X299715Y636321D01*
X297809Y634415D01*
X295902Y634415D01*
X299715Y636321D02*
X299715Y640135D01*
D11*
X290330Y778200D02*
X331970Y778200D01*
X331970Y796600D01*
X290330Y796600D01*
X290330Y778200D01*
X304800Y787400D02*
X311150Y787400D01*
X321310Y793750D02*
X321310Y781050D01*
X311150Y787400D01*
X326390Y787400D01*
X321310Y793750D02*
X311150Y787400D01*
X311150Y793750D01*
X311150Y787400D02*
X311150Y781050D01*
D18*
X297180Y787250D03*
D19*
X335145Y787400D03*
X287155Y787400D03*
D14*
X291465Y804545D02*
X291465Y815985D01*
X291465Y804545D02*
X297185Y804545D01*
X299092Y806452D01*
X299092Y814078D01*
X297185Y815985D01*
X291465Y815985D01*
X303159Y804545D02*
X310785Y804545D01*
X303159Y804545D02*
X310785Y812172D01*
X310785Y814078D01*
X308879Y815985D01*
X305066Y815985D01*
X303159Y814078D01*
X295278Y770265D02*
X291465Y766452D01*
X295278Y770265D02*
X295278Y758825D01*
X291465Y758825D02*
X299092Y758825D01*
X303159Y758825D02*
X303159Y770265D01*
X310785Y758825D01*
X310785Y770265D01*
X314853Y770265D02*
X322479Y770265D01*
X314853Y770265D02*
X314853Y764545D01*
X318666Y766452D01*
X320573Y766452D01*
X322479Y764545D01*
X322479Y760732D01*
X320573Y758825D01*
X316760Y758825D01*
X314853Y760732D01*
X326547Y768358D02*
X328454Y770265D01*
X332267Y770265D01*
X334173Y768358D01*
X334173Y766452D01*
X332267Y764545D01*
X334173Y762638D01*
X334173Y760732D01*
X332267Y758825D01*
X328454Y758825D01*
X326547Y760732D01*
X326547Y762638D01*
X328454Y764545D01*
X326547Y766452D01*
X326547Y768358D01*
X328454Y764545D02*
X332267Y764545D01*
X338241Y766452D02*
X342054Y770265D01*
X342054Y758825D01*
X338241Y758825D02*
X345867Y758825D01*
X349935Y760732D02*
X351841Y758825D01*
X355655Y758825D01*
X357561Y760732D01*
X357561Y768358D01*
X355655Y770265D01*
X351841Y770265D01*
X349935Y768358D01*
X349935Y766452D01*
X351841Y764545D01*
X357561Y764545D01*
D11*
X412750Y660400D02*
X412750Y647700D01*
X412750Y660400D02*
X419100Y666750D01*
X431800Y666750D02*
X438150Y660400D01*
X419100Y666750D02*
X412750Y673100D01*
X412750Y685800D01*
X419100Y692150D01*
X431800Y692150D02*
X438150Y685800D01*
X438150Y673100D01*
X431800Y666750D01*
X431800Y641350D02*
X419100Y641350D01*
X412750Y647700D01*
X431800Y641350D02*
X438150Y647700D01*
X438150Y660400D01*
X419100Y692150D02*
X412750Y698500D01*
X412750Y711200D01*
X419100Y717550D01*
X431800Y717550D02*
X438150Y711200D01*
X438150Y698500D01*
X431800Y692150D01*
X412750Y723900D02*
X412750Y736600D01*
X419100Y742950D01*
X431800Y742950D01*
X438150Y736600D01*
X419100Y717550D02*
X412750Y723900D01*
X431800Y717550D02*
X438150Y723900D01*
X438150Y736600D01*
D14*
X419725Y634368D02*
X423539Y630555D01*
X419725Y634368D02*
X431165Y634368D01*
X431165Y630555D02*
X431165Y638182D01*
X431165Y751845D02*
X419725Y751845D01*
X425445Y746125D01*
X425445Y753752D01*
X408305Y643892D02*
X406398Y641985D01*
X408305Y643892D02*
X408305Y645798D01*
X406398Y647705D01*
X396865Y647705D01*
X396865Y645798D02*
X396865Y649612D01*
X408305Y653679D02*
X408305Y661305D01*
X408305Y653679D02*
X400679Y661305D01*
X398772Y661305D01*
X396865Y659399D01*
X396865Y655586D01*
X398772Y653679D01*
X897850Y630150D02*
X897850Y754150D01*
X765850Y754150D01*
X765850Y630150D01*
X897850Y630150D01*
X816850Y666150D02*
X816850Y718150D01*
X801850Y692150D02*
X801859Y692886D01*
X801886Y693622D01*
X801931Y694357D01*
X801994Y695091D01*
X802076Y695822D01*
X802175Y696552D01*
X802292Y697279D01*
X802426Y698003D01*
X802579Y698723D01*
X802749Y699439D01*
X802937Y700151D01*
X803142Y700859D01*
X803364Y701560D01*
X803604Y702257D01*
X803860Y702947D01*
X804134Y703631D01*
X804424Y704307D01*
X804730Y704977D01*
X805053Y705638D01*
X805392Y706292D01*
X805747Y706937D01*
X806118Y707573D01*
X806504Y708200D01*
X806906Y708817D01*
X807322Y709424D01*
X807754Y710021D01*
X808200Y710607D01*
X808660Y711182D01*
X809134Y711745D01*
X809621Y712297D01*
X810123Y712836D01*
X810637Y713363D01*
X811164Y713877D01*
X811703Y714379D01*
X812255Y714866D01*
X812818Y715340D01*
X813393Y715800D01*
X813979Y716246D01*
X814576Y716678D01*
X815183Y717094D01*
X815800Y717496D01*
X816427Y717882D01*
X817063Y718253D01*
X817708Y718608D01*
X818362Y718947D01*
X819023Y719270D01*
X819693Y719576D01*
X820369Y719866D01*
X821053Y720140D01*
X821743Y720396D01*
X822440Y720636D01*
X823141Y720858D01*
X823849Y721063D01*
X824561Y721251D01*
X825277Y721421D01*
X825997Y721574D01*
X826721Y721708D01*
X827448Y721825D01*
X828178Y721924D01*
X828909Y722006D01*
X829643Y722069D01*
X830378Y722114D01*
X831114Y722141D01*
X831850Y722150D01*
X832586Y722141D01*
X833322Y722114D01*
X834057Y722069D01*
X834791Y722006D01*
X835522Y721924D01*
X836252Y721825D01*
X836979Y721708D01*
X837703Y721574D01*
X838423Y721421D01*
X839139Y721251D01*
X839851Y721063D01*
X840559Y720858D01*
X841260Y720636D01*
X841957Y720396D01*
X842647Y720140D01*
X843331Y719866D01*
X844007Y719576D01*
X844677Y719270D01*
X845338Y718947D01*
X845992Y718608D01*
X846637Y718253D01*
X847273Y717882D01*
X847900Y717496D01*
X848517Y717094D01*
X849124Y716678D01*
X849721Y716246D01*
X850307Y715800D01*
X850882Y715340D01*
X851445Y714866D01*
X851997Y714379D01*
X852536Y713877D01*
X853063Y713363D01*
X853577Y712836D01*
X854079Y712297D01*
X854566Y711745D01*
X855040Y711182D01*
X855500Y710607D01*
X855946Y710021D01*
X856378Y709424D01*
X856794Y708817D01*
X857196Y708200D01*
X857582Y707573D01*
X857953Y706937D01*
X858308Y706292D01*
X858647Y705638D01*
X858970Y704977D01*
X859276Y704307D01*
X859566Y703631D01*
X859840Y702947D01*
X860096Y702257D01*
X860336Y701560D01*
X860558Y700859D01*
X860763Y700151D01*
X860951Y699439D01*
X861121Y698723D01*
X861274Y698003D01*
X861408Y697279D01*
X861525Y696552D01*
X861624Y695822D01*
X861706Y695091D01*
X861769Y694357D01*
X861814Y693622D01*
X861841Y692886D01*
X861850Y692150D01*
X861841Y691414D01*
X861814Y690678D01*
X861769Y689943D01*
X861706Y689209D01*
X861624Y688478D01*
X861525Y687748D01*
X861408Y687021D01*
X861274Y686297D01*
X861121Y685577D01*
X860951Y684861D01*
X860763Y684149D01*
X860558Y683441D01*
X860336Y682740D01*
X860096Y682043D01*
X859840Y681353D01*
X859566Y680669D01*
X859276Y679993D01*
X858970Y679323D01*
X858647Y678662D01*
X858308Y678008D01*
X857953Y677363D01*
X857582Y676727D01*
X857196Y676100D01*
X856794Y675483D01*
X856378Y674876D01*
X855946Y674279D01*
X855500Y673693D01*
X855040Y673118D01*
X854566Y672555D01*
X854079Y672003D01*
X853577Y671464D01*
X853063Y670937D01*
X852536Y670423D01*
X851997Y669921D01*
X851445Y669434D01*
X850882Y668960D01*
X850307Y668500D01*
X849721Y668054D01*
X849124Y667622D01*
X848517Y667206D01*
X847900Y666804D01*
X847273Y666418D01*
X846637Y666047D01*
X845992Y665692D01*
X845338Y665353D01*
X844677Y665030D01*
X844007Y664724D01*
X843331Y664434D01*
X842647Y664160D01*
X841957Y663904D01*
X841260Y663664D01*
X840559Y663442D01*
X839851Y663237D01*
X839139Y663049D01*
X838423Y662879D01*
X837703Y662726D01*
X836979Y662592D01*
X836252Y662475D01*
X835522Y662376D01*
X834791Y662294D01*
X834057Y662231D01*
X833322Y662186D01*
X832586Y662159D01*
X831850Y662150D01*
X831114Y662159D01*
X830378Y662186D01*
X829643Y662231D01*
X828909Y662294D01*
X828178Y662376D01*
X827448Y662475D01*
X826721Y662592D01*
X825997Y662726D01*
X825277Y662879D01*
X824561Y663049D01*
X823849Y663237D01*
X823141Y663442D01*
X822440Y663664D01*
X821743Y663904D01*
X821053Y664160D01*
X820369Y664434D01*
X819693Y664724D01*
X819023Y665030D01*
X818362Y665353D01*
X817708Y665692D01*
X817063Y666047D01*
X816427Y666418D01*
X815800Y666804D01*
X815183Y667206D01*
X814576Y667622D01*
X813979Y668054D01*
X813393Y668500D01*
X812818Y668960D01*
X812255Y669434D01*
X811703Y669921D01*
X811164Y670423D01*
X810637Y670937D01*
X810123Y671464D01*
X809621Y672003D01*
X809134Y672555D01*
X808660Y673118D01*
X808200Y673693D01*
X807754Y674279D01*
X807322Y674876D01*
X806906Y675483D01*
X806504Y676100D01*
X806118Y676727D01*
X805747Y677363D01*
X805392Y678008D01*
X805053Y678662D01*
X804730Y679323D01*
X804424Y679993D01*
X804134Y680669D01*
X803860Y681353D01*
X803604Y682043D01*
X803364Y682740D01*
X803142Y683441D01*
X802937Y684149D01*
X802749Y684861D01*
X802579Y685577D01*
X802426Y686297D01*
X802292Y687021D01*
X802175Y687748D01*
X802076Y688478D01*
X801994Y689209D01*
X801931Y689943D01*
X801886Y690678D01*
X801859Y691414D01*
X801850Y692150D01*
D12*
X736597Y675454D02*
X734648Y673505D01*
X734648Y669607D01*
X736597Y667658D01*
X738546Y667658D01*
X740495Y669607D01*
X740495Y673505D01*
X742444Y675454D01*
X744393Y675454D01*
X746342Y673505D01*
X746342Y669607D01*
X744393Y667658D01*
X746342Y679352D02*
X734648Y679352D01*
X742444Y683250D02*
X746342Y679352D01*
X742444Y683250D02*
X746342Y687148D01*
X734648Y687148D01*
X738546Y691046D02*
X734648Y694944D01*
X746342Y694944D01*
X746342Y691046D02*
X746342Y698842D01*
X922348Y641902D02*
X922348Y634106D01*
X934042Y634106D01*
X934042Y641902D01*
X928195Y638004D02*
X928195Y634106D01*
X922348Y651647D02*
X924297Y653596D01*
X922348Y651647D02*
X922348Y647749D01*
X924297Y645800D01*
X932093Y645800D01*
X934042Y647749D01*
X934042Y651647D01*
X932093Y653596D01*
X926246Y657494D02*
X922348Y661392D01*
X934042Y661392D01*
X934042Y657494D02*
X934042Y665290D01*
X934042Y669188D02*
X934042Y676984D01*
X934042Y669188D02*
X926246Y676984D01*
X924297Y676984D01*
X922348Y675035D01*
X922348Y671137D01*
X924297Y669188D01*
X922348Y680882D02*
X922348Y688678D01*
X922348Y680882D02*
X934042Y680882D01*
X934042Y688678D01*
X928195Y684780D02*
X928195Y680882D01*
X935991Y692576D02*
X935991Y700372D01*
X924297Y712066D02*
X922348Y710117D01*
X922348Y706219D01*
X924297Y704270D01*
X926246Y704270D01*
X928195Y706219D01*
X928195Y710117D01*
X930144Y712066D01*
X932093Y712066D01*
X934042Y710117D01*
X934042Y706219D01*
X932093Y704270D01*
X934042Y715964D02*
X922348Y715964D01*
X930144Y719862D02*
X934042Y715964D01*
X930144Y719862D02*
X934042Y723760D01*
X922348Y723760D01*
D11*
X330200Y332740D02*
X330200Y289560D01*
X304800Y289560D02*
X304800Y332740D01*
X307340Y287020D02*
X327660Y287020D01*
X327660Y335280D02*
X307340Y335280D01*
X330200Y289560D02*
X330198Y289460D01*
X330192Y289361D01*
X330182Y289261D01*
X330169Y289163D01*
X330151Y289064D01*
X330130Y288967D01*
X330105Y288871D01*
X330076Y288775D01*
X330043Y288681D01*
X330007Y288588D01*
X329967Y288497D01*
X329923Y288407D01*
X329876Y288319D01*
X329826Y288233D01*
X329772Y288149D01*
X329715Y288067D01*
X329655Y287988D01*
X329591Y287910D01*
X329525Y287836D01*
X329456Y287764D01*
X329384Y287695D01*
X329310Y287629D01*
X329232Y287565D01*
X329153Y287505D01*
X329071Y287448D01*
X328987Y287394D01*
X328901Y287344D01*
X328813Y287297D01*
X328723Y287253D01*
X328632Y287213D01*
X328539Y287177D01*
X328445Y287144D01*
X328349Y287115D01*
X328253Y287090D01*
X328156Y287069D01*
X328057Y287051D01*
X327959Y287038D01*
X327859Y287028D01*
X327760Y287022D01*
X327660Y287020D01*
X330200Y332740D02*
X330198Y332840D01*
X330192Y332939D01*
X330182Y333039D01*
X330169Y333137D01*
X330151Y333236D01*
X330130Y333333D01*
X330105Y333429D01*
X330076Y333525D01*
X330043Y333619D01*
X330007Y333712D01*
X329967Y333803D01*
X329923Y333893D01*
X329876Y333981D01*
X329826Y334067D01*
X329772Y334151D01*
X329715Y334233D01*
X329655Y334312D01*
X329591Y334390D01*
X329525Y334464D01*
X329456Y334536D01*
X329384Y334605D01*
X329310Y334671D01*
X329232Y334735D01*
X329153Y334795D01*
X329071Y334852D01*
X328987Y334906D01*
X328901Y334956D01*
X328813Y335003D01*
X328723Y335047D01*
X328632Y335087D01*
X328539Y335123D01*
X328445Y335156D01*
X328349Y335185D01*
X328253Y335210D01*
X328156Y335231D01*
X328057Y335249D01*
X327959Y335262D01*
X327859Y335272D01*
X327760Y335278D01*
X327660Y335280D01*
X304800Y289560D02*
X304802Y289460D01*
X304808Y289361D01*
X304818Y289261D01*
X304831Y289163D01*
X304849Y289064D01*
X304870Y288967D01*
X304895Y288871D01*
X304924Y288775D01*
X304957Y288681D01*
X304993Y288588D01*
X305033Y288497D01*
X305077Y288407D01*
X305124Y288319D01*
X305174Y288233D01*
X305228Y288149D01*
X305285Y288067D01*
X305345Y287988D01*
X305409Y287910D01*
X305475Y287836D01*
X305544Y287764D01*
X305616Y287695D01*
X305690Y287629D01*
X305768Y287565D01*
X305847Y287505D01*
X305929Y287448D01*
X306013Y287394D01*
X306099Y287344D01*
X306187Y287297D01*
X306277Y287253D01*
X306368Y287213D01*
X306461Y287177D01*
X306555Y287144D01*
X306651Y287115D01*
X306747Y287090D01*
X306844Y287069D01*
X306943Y287051D01*
X307041Y287038D01*
X307141Y287028D01*
X307240Y287022D01*
X307340Y287020D01*
X304800Y332740D02*
X304802Y332840D01*
X304808Y332939D01*
X304818Y333039D01*
X304831Y333137D01*
X304849Y333236D01*
X304870Y333333D01*
X304895Y333429D01*
X304924Y333525D01*
X304957Y333619D01*
X304993Y333712D01*
X305033Y333803D01*
X305077Y333893D01*
X305124Y333981D01*
X305174Y334067D01*
X305228Y334151D01*
X305285Y334233D01*
X305345Y334312D01*
X305409Y334390D01*
X305475Y334464D01*
X305544Y334536D01*
X305616Y334605D01*
X305690Y334671D01*
X305768Y334735D01*
X305847Y334795D01*
X305929Y334852D01*
X306013Y334906D01*
X306099Y334956D01*
X306187Y335003D01*
X306277Y335047D01*
X306368Y335087D01*
X306461Y335123D01*
X306555Y335156D01*
X306651Y335185D01*
X306747Y335210D01*
X306844Y335231D01*
X306943Y335249D01*
X307041Y335262D01*
X307141Y335272D01*
X307240Y335278D01*
X307340Y335280D01*
X317500Y308610D02*
X317500Y307340D01*
D20*
X317500Y308610D02*
X325120Y308610D01*
X317500Y308610D02*
X309880Y308610D01*
X317500Y313690D02*
X325120Y313690D01*
X317500Y313690D02*
X309880Y313690D01*
D11*
X317500Y313690D02*
X317500Y314960D01*
D14*
X299718Y282022D02*
X292092Y282022D01*
X290185Y283929D01*
X290185Y287742D01*
X292092Y289649D01*
X299718Y289649D01*
X301625Y287742D01*
X301625Y283929D01*
X299718Y282022D01*
X292092Y289649D01*
X299718Y293716D02*
X301625Y293716D01*
X299718Y293716D02*
X299718Y295623D01*
X301625Y295623D01*
X301625Y293716D01*
X293999Y299563D02*
X290185Y303376D01*
X301625Y303376D01*
X301625Y299563D02*
X301625Y307189D01*
X299718Y311257D02*
X293999Y311257D01*
X299718Y311257D02*
X301625Y313164D01*
X301625Y318883D01*
X293999Y318883D01*
X290185Y322951D02*
X301625Y322951D01*
X290185Y322951D02*
X290185Y330577D01*
X295905Y326764D02*
X295905Y322951D01*
D11*
X584200Y340360D02*
X584200Y383540D01*
X558800Y383540D02*
X558800Y340360D01*
X561340Y337820D02*
X581660Y337820D01*
X581660Y386080D02*
X561340Y386080D01*
X584200Y340360D02*
X584198Y340260D01*
X584192Y340161D01*
X584182Y340061D01*
X584169Y339963D01*
X584151Y339864D01*
X584130Y339767D01*
X584105Y339671D01*
X584076Y339575D01*
X584043Y339481D01*
X584007Y339388D01*
X583967Y339297D01*
X583923Y339207D01*
X583876Y339119D01*
X583826Y339033D01*
X583772Y338949D01*
X583715Y338867D01*
X583655Y338788D01*
X583591Y338710D01*
X583525Y338636D01*
X583456Y338564D01*
X583384Y338495D01*
X583310Y338429D01*
X583232Y338365D01*
X583153Y338305D01*
X583071Y338248D01*
X582987Y338194D01*
X582901Y338144D01*
X582813Y338097D01*
X582723Y338053D01*
X582632Y338013D01*
X582539Y337977D01*
X582445Y337944D01*
X582349Y337915D01*
X582253Y337890D01*
X582156Y337869D01*
X582057Y337851D01*
X581959Y337838D01*
X581859Y337828D01*
X581760Y337822D01*
X581660Y337820D01*
X584200Y383540D02*
X584198Y383640D01*
X584192Y383739D01*
X584182Y383839D01*
X584169Y383937D01*
X584151Y384036D01*
X584130Y384133D01*
X584105Y384229D01*
X584076Y384325D01*
X584043Y384419D01*
X584007Y384512D01*
X583967Y384603D01*
X583923Y384693D01*
X583876Y384781D01*
X583826Y384867D01*
X583772Y384951D01*
X583715Y385033D01*
X583655Y385112D01*
X583591Y385190D01*
X583525Y385264D01*
X583456Y385336D01*
X583384Y385405D01*
X583310Y385471D01*
X583232Y385535D01*
X583153Y385595D01*
X583071Y385652D01*
X582987Y385706D01*
X582901Y385756D01*
X582813Y385803D01*
X582723Y385847D01*
X582632Y385887D01*
X582539Y385923D01*
X582445Y385956D01*
X582349Y385985D01*
X582253Y386010D01*
X582156Y386031D01*
X582057Y386049D01*
X581959Y386062D01*
X581859Y386072D01*
X581760Y386078D01*
X581660Y386080D01*
X558800Y340360D02*
X558802Y340260D01*
X558808Y340161D01*
X558818Y340061D01*
X558831Y339963D01*
X558849Y339864D01*
X558870Y339767D01*
X558895Y339671D01*
X558924Y339575D01*
X558957Y339481D01*
X558993Y339388D01*
X559033Y339297D01*
X559077Y339207D01*
X559124Y339119D01*
X559174Y339033D01*
X559228Y338949D01*
X559285Y338867D01*
X559345Y338788D01*
X559409Y338710D01*
X559475Y338636D01*
X559544Y338564D01*
X559616Y338495D01*
X559690Y338429D01*
X559768Y338365D01*
X559847Y338305D01*
X559929Y338248D01*
X560013Y338194D01*
X560099Y338144D01*
X560187Y338097D01*
X560277Y338053D01*
X560368Y338013D01*
X560461Y337977D01*
X560555Y337944D01*
X560651Y337915D01*
X560747Y337890D01*
X560844Y337869D01*
X560943Y337851D01*
X561041Y337838D01*
X561141Y337828D01*
X561240Y337822D01*
X561340Y337820D01*
X558800Y383540D02*
X558802Y383640D01*
X558808Y383739D01*
X558818Y383839D01*
X558831Y383937D01*
X558849Y384036D01*
X558870Y384133D01*
X558895Y384229D01*
X558924Y384325D01*
X558957Y384419D01*
X558993Y384512D01*
X559033Y384603D01*
X559077Y384693D01*
X559124Y384781D01*
X559174Y384867D01*
X559228Y384951D01*
X559285Y385033D01*
X559345Y385112D01*
X559409Y385190D01*
X559475Y385264D01*
X559544Y385336D01*
X559616Y385405D01*
X559690Y385471D01*
X559768Y385535D01*
X559847Y385595D01*
X559929Y385652D01*
X560013Y385706D01*
X560099Y385756D01*
X560187Y385803D01*
X560277Y385847D01*
X560368Y385887D01*
X560461Y385923D01*
X560555Y385956D01*
X560651Y385985D01*
X560747Y386010D01*
X560844Y386031D01*
X560943Y386049D01*
X561041Y386062D01*
X561141Y386072D01*
X561240Y386078D01*
X561340Y386080D01*
X571500Y359410D02*
X571500Y358140D01*
D20*
X571500Y359410D02*
X579120Y359410D01*
X571500Y359410D02*
X563880Y359410D01*
X571500Y364490D02*
X579120Y364490D01*
X571500Y364490D02*
X563880Y364490D01*
D11*
X571500Y364490D02*
X571500Y365760D01*
D14*
X553718Y332822D02*
X546092Y332822D01*
X544185Y334729D01*
X544185Y338542D01*
X546092Y340449D01*
X553718Y340449D01*
X555625Y338542D01*
X555625Y334729D01*
X553718Y332822D01*
X546092Y340449D01*
X553718Y344516D02*
X555625Y344516D01*
X553718Y344516D02*
X553718Y346423D01*
X555625Y346423D01*
X555625Y344516D01*
X547999Y350363D02*
X544185Y354176D01*
X555625Y354176D01*
X555625Y350363D02*
X555625Y357989D01*
X553718Y362057D02*
X547999Y362057D01*
X553718Y362057D02*
X555625Y363964D01*
X555625Y369683D01*
X547999Y369683D01*
X544185Y373751D02*
X555625Y373751D01*
X544185Y373751D02*
X544185Y381377D01*
X549905Y377564D02*
X549905Y373751D01*
D21*
X330200Y695198D02*
X323850Y695198D01*
X317500Y695198D01*
D11*
X323850Y695198D02*
X323850Y707390D01*
D21*
X323850Y688848D02*
X330200Y688848D01*
X323850Y688848D02*
X317500Y688848D01*
D11*
X323850Y688848D02*
X323850Y676910D01*
X334010Y728980D02*
X313690Y728980D01*
X311150Y726440D02*
X311150Y657860D01*
X313690Y655320D02*
X334010Y655320D01*
X336550Y657860D02*
X336550Y726440D01*
X336550Y657860D02*
X336548Y657760D01*
X336542Y657661D01*
X336532Y657561D01*
X336519Y657463D01*
X336501Y657364D01*
X336480Y657267D01*
X336455Y657171D01*
X336426Y657075D01*
X336393Y656981D01*
X336357Y656888D01*
X336317Y656797D01*
X336273Y656707D01*
X336226Y656619D01*
X336176Y656533D01*
X336122Y656449D01*
X336065Y656367D01*
X336005Y656288D01*
X335941Y656210D01*
X335875Y656136D01*
X335806Y656064D01*
X335734Y655995D01*
X335660Y655929D01*
X335582Y655865D01*
X335503Y655805D01*
X335421Y655748D01*
X335337Y655694D01*
X335251Y655644D01*
X335163Y655597D01*
X335073Y655553D01*
X334982Y655513D01*
X334889Y655477D01*
X334795Y655444D01*
X334699Y655415D01*
X334603Y655390D01*
X334506Y655369D01*
X334407Y655351D01*
X334309Y655338D01*
X334209Y655328D01*
X334110Y655322D01*
X334010Y655320D01*
X313690Y655320D02*
X313590Y655322D01*
X313491Y655328D01*
X313391Y655338D01*
X313293Y655351D01*
X313194Y655369D01*
X313097Y655390D01*
X313001Y655415D01*
X312905Y655444D01*
X312811Y655477D01*
X312718Y655513D01*
X312627Y655553D01*
X312537Y655597D01*
X312449Y655644D01*
X312363Y655694D01*
X312279Y655748D01*
X312197Y655805D01*
X312118Y655865D01*
X312040Y655929D01*
X311966Y655995D01*
X311894Y656064D01*
X311825Y656136D01*
X311759Y656210D01*
X311695Y656288D01*
X311635Y656367D01*
X311578Y656449D01*
X311524Y656533D01*
X311474Y656619D01*
X311427Y656707D01*
X311383Y656797D01*
X311343Y656888D01*
X311307Y656981D01*
X311274Y657075D01*
X311245Y657171D01*
X311220Y657267D01*
X311199Y657364D01*
X311181Y657463D01*
X311168Y657561D01*
X311158Y657661D01*
X311152Y657760D01*
X311150Y657860D01*
X311150Y726440D02*
X311152Y726540D01*
X311158Y726639D01*
X311168Y726739D01*
X311181Y726837D01*
X311199Y726936D01*
X311220Y727033D01*
X311245Y727129D01*
X311274Y727225D01*
X311307Y727319D01*
X311343Y727412D01*
X311383Y727503D01*
X311427Y727593D01*
X311474Y727681D01*
X311524Y727767D01*
X311578Y727851D01*
X311635Y727933D01*
X311695Y728012D01*
X311759Y728090D01*
X311825Y728164D01*
X311894Y728236D01*
X311966Y728305D01*
X312040Y728371D01*
X312118Y728435D01*
X312197Y728495D01*
X312279Y728552D01*
X312363Y728606D01*
X312449Y728656D01*
X312537Y728703D01*
X312627Y728747D01*
X312718Y728787D01*
X312811Y728823D01*
X312905Y728856D01*
X313001Y728885D01*
X313097Y728910D01*
X313194Y728931D01*
X313293Y728949D01*
X313391Y728962D01*
X313491Y728972D01*
X313590Y728978D01*
X313690Y728980D01*
X334010Y728980D02*
X334110Y728978D01*
X334209Y728972D01*
X334309Y728962D01*
X334407Y728949D01*
X334506Y728931D01*
X334603Y728910D01*
X334699Y728885D01*
X334795Y728856D01*
X334889Y728823D01*
X334982Y728787D01*
X335073Y728747D01*
X335163Y728703D01*
X335251Y728656D01*
X335337Y728606D01*
X335421Y728552D01*
X335503Y728495D01*
X335582Y728435D01*
X335660Y728371D01*
X335734Y728305D01*
X335806Y728236D01*
X335875Y728164D01*
X335941Y728090D01*
X336005Y728012D01*
X336065Y727933D01*
X336122Y727851D01*
X336176Y727767D01*
X336226Y727681D01*
X336273Y727593D01*
X336317Y727503D01*
X336357Y727412D01*
X336393Y727319D01*
X336426Y727225D01*
X336455Y727129D01*
X336480Y727033D01*
X336501Y726936D01*
X336519Y726837D01*
X336532Y726739D01*
X336542Y726639D01*
X336548Y726540D01*
X336550Y726440D01*
D14*
X314965Y650885D02*
X316872Y648978D01*
X314965Y650885D02*
X311152Y650885D01*
X309245Y648978D01*
X309245Y641352D01*
X311152Y639445D01*
X314965Y639445D01*
X316872Y641352D01*
X320939Y648978D02*
X322846Y650885D01*
X326659Y650885D01*
X328565Y648978D01*
X328565Y647072D01*
X326659Y645165D01*
X328565Y643258D01*
X328565Y641352D01*
X326659Y639445D01*
X322846Y639445D01*
X320939Y641352D01*
X320939Y643258D01*
X322846Y645165D01*
X320939Y647072D01*
X320939Y648978D01*
X322846Y645165D02*
X326659Y645165D01*
X300349Y680299D02*
X296535Y684112D01*
X307975Y684112D01*
X307975Y680299D02*
X307975Y687926D01*
X306068Y691993D02*
X298442Y691993D01*
X296535Y693900D01*
X296535Y697713D01*
X298442Y699620D01*
X306068Y699620D01*
X307975Y697713D01*
X307975Y693900D01*
X306068Y691993D01*
X298442Y699620D01*
X300349Y703687D02*
X306068Y703687D01*
X307975Y705594D01*
X307975Y711313D01*
X300349Y711313D01*
X296535Y715381D02*
X307975Y715381D01*
X296535Y715381D02*
X296535Y723007D01*
X302255Y719194D02*
X302255Y715381D01*
D21*
X352552Y400050D02*
X352552Y393700D01*
X352552Y387350D01*
D11*
X352552Y393700D02*
X340360Y393700D01*
D21*
X358902Y393700D02*
X358902Y400050D01*
X358902Y393700D02*
X358902Y387350D01*
D11*
X358902Y393700D02*
X370840Y393700D01*
X318770Y403860D02*
X318770Y383540D01*
X321310Y381000D02*
X389890Y381000D01*
X392430Y383540D02*
X392430Y403860D01*
X389890Y406400D02*
X321310Y406400D01*
X389890Y406400D02*
X389990Y406398D01*
X390089Y406392D01*
X390189Y406382D01*
X390287Y406369D01*
X390386Y406351D01*
X390483Y406330D01*
X390579Y406305D01*
X390675Y406276D01*
X390769Y406243D01*
X390862Y406207D01*
X390953Y406167D01*
X391043Y406123D01*
X391131Y406076D01*
X391217Y406026D01*
X391301Y405972D01*
X391383Y405915D01*
X391462Y405855D01*
X391540Y405791D01*
X391614Y405725D01*
X391686Y405656D01*
X391755Y405584D01*
X391821Y405510D01*
X391885Y405432D01*
X391945Y405353D01*
X392002Y405271D01*
X392056Y405187D01*
X392106Y405101D01*
X392153Y405013D01*
X392197Y404923D01*
X392237Y404832D01*
X392273Y404739D01*
X392306Y404645D01*
X392335Y404549D01*
X392360Y404453D01*
X392381Y404356D01*
X392399Y404257D01*
X392412Y404159D01*
X392422Y404059D01*
X392428Y403960D01*
X392430Y403860D01*
X392430Y383540D02*
X392428Y383440D01*
X392422Y383341D01*
X392412Y383241D01*
X392399Y383143D01*
X392381Y383044D01*
X392360Y382947D01*
X392335Y382851D01*
X392306Y382755D01*
X392273Y382661D01*
X392237Y382568D01*
X392197Y382477D01*
X392153Y382387D01*
X392106Y382299D01*
X392056Y382213D01*
X392002Y382129D01*
X391945Y382047D01*
X391885Y381968D01*
X391821Y381890D01*
X391755Y381816D01*
X391686Y381744D01*
X391614Y381675D01*
X391540Y381609D01*
X391462Y381545D01*
X391383Y381485D01*
X391301Y381428D01*
X391217Y381374D01*
X391131Y381324D01*
X391043Y381277D01*
X390953Y381233D01*
X390862Y381193D01*
X390769Y381157D01*
X390675Y381124D01*
X390579Y381095D01*
X390483Y381070D01*
X390386Y381049D01*
X390287Y381031D01*
X390189Y381018D01*
X390089Y381008D01*
X389990Y381002D01*
X389890Y381000D01*
X321310Y381000D02*
X321210Y381002D01*
X321111Y381008D01*
X321011Y381018D01*
X320913Y381031D01*
X320814Y381049D01*
X320717Y381070D01*
X320621Y381095D01*
X320525Y381124D01*
X320431Y381157D01*
X320338Y381193D01*
X320247Y381233D01*
X320157Y381277D01*
X320069Y381324D01*
X319983Y381374D01*
X319899Y381428D01*
X319817Y381485D01*
X319738Y381545D01*
X319660Y381609D01*
X319586Y381675D01*
X319514Y381744D01*
X319445Y381816D01*
X319379Y381890D01*
X319315Y381968D01*
X319255Y382047D01*
X319198Y382129D01*
X319144Y382213D01*
X319094Y382299D01*
X319047Y382387D01*
X319003Y382477D01*
X318963Y382568D01*
X318927Y382661D01*
X318894Y382755D01*
X318865Y382851D01*
X318840Y382947D01*
X318819Y383044D01*
X318801Y383143D01*
X318788Y383241D01*
X318778Y383341D01*
X318772Y383440D01*
X318770Y383540D01*
X318770Y403860D02*
X318772Y403960D01*
X318778Y404059D01*
X318788Y404159D01*
X318801Y404257D01*
X318819Y404356D01*
X318840Y404453D01*
X318865Y404549D01*
X318894Y404645D01*
X318927Y404739D01*
X318963Y404832D01*
X319003Y404923D01*
X319047Y405013D01*
X319094Y405101D01*
X319144Y405187D01*
X319198Y405271D01*
X319255Y405353D01*
X319315Y405432D01*
X319379Y405510D01*
X319445Y405584D01*
X319514Y405656D01*
X319586Y405725D01*
X319660Y405791D01*
X319738Y405855D01*
X319817Y405915D01*
X319899Y405972D01*
X319983Y406026D01*
X320069Y406076D01*
X320157Y406123D01*
X320247Y406167D01*
X320338Y406207D01*
X320431Y406243D01*
X320525Y406276D01*
X320621Y406305D01*
X320717Y406330D01*
X320814Y406351D01*
X320913Y406369D01*
X321011Y406382D01*
X321111Y406392D01*
X321210Y406398D01*
X321310Y406400D01*
D14*
X329572Y420378D02*
X327665Y422285D01*
X323852Y422285D01*
X321945Y420378D01*
X321945Y412752D01*
X323852Y410845D01*
X327665Y410845D01*
X329572Y412752D01*
X333639Y420378D02*
X335546Y422285D01*
X339359Y422285D01*
X341265Y420378D01*
X341265Y418472D01*
X339359Y416565D01*
X337452Y416565D01*
X339359Y416565D02*
X341265Y414658D01*
X341265Y412752D01*
X339359Y410845D01*
X335546Y410845D01*
X333639Y412752D01*
X325758Y377835D02*
X321945Y374022D01*
X325758Y377835D02*
X325758Y366395D01*
X321945Y366395D02*
X329572Y366395D01*
X333639Y368302D02*
X333639Y375928D01*
X335546Y377835D01*
X339359Y377835D01*
X341265Y375928D01*
X341265Y368302D01*
X339359Y366395D01*
X335546Y366395D01*
X333639Y368302D01*
X341265Y375928D01*
X345333Y374022D02*
X345333Y368302D01*
X347240Y366395D01*
X352959Y366395D01*
X352959Y374022D01*
X357027Y377835D02*
X357027Y366395D01*
X357027Y377835D02*
X364653Y377835D01*
X360840Y372115D02*
X357027Y372115D01*
D11*
X635000Y426720D02*
X635002Y426820D01*
X635008Y426919D01*
X635018Y427019D01*
X635031Y427117D01*
X635049Y427216D01*
X635070Y427313D01*
X635095Y427409D01*
X635124Y427505D01*
X635157Y427599D01*
X635193Y427692D01*
X635233Y427783D01*
X635277Y427873D01*
X635324Y427961D01*
X635374Y428047D01*
X635428Y428131D01*
X635485Y428213D01*
X635545Y428292D01*
X635609Y428370D01*
X635675Y428444D01*
X635744Y428516D01*
X635816Y428585D01*
X635890Y428651D01*
X635968Y428715D01*
X636047Y428775D01*
X636129Y428832D01*
X636213Y428886D01*
X636299Y428936D01*
X636387Y428983D01*
X636477Y429027D01*
X636568Y429067D01*
X636661Y429103D01*
X636755Y429136D01*
X636851Y429165D01*
X636947Y429190D01*
X637044Y429211D01*
X637143Y429229D01*
X637241Y429242D01*
X637341Y429252D01*
X637440Y429258D01*
X637540Y429260D01*
X635000Y411480D02*
X635002Y411380D01*
X635008Y411281D01*
X635018Y411181D01*
X635031Y411083D01*
X635049Y410984D01*
X635070Y410887D01*
X635095Y410791D01*
X635124Y410695D01*
X635157Y410601D01*
X635193Y410508D01*
X635233Y410417D01*
X635277Y410327D01*
X635324Y410239D01*
X635374Y410153D01*
X635428Y410069D01*
X635485Y409987D01*
X635545Y409908D01*
X635609Y409830D01*
X635675Y409756D01*
X635744Y409684D01*
X635816Y409615D01*
X635890Y409549D01*
X635968Y409485D01*
X636047Y409425D01*
X636129Y409368D01*
X636213Y409314D01*
X636299Y409264D01*
X636387Y409217D01*
X636477Y409173D01*
X636568Y409133D01*
X636661Y409097D01*
X636755Y409064D01*
X636851Y409035D01*
X636947Y409010D01*
X637044Y408989D01*
X637143Y408971D01*
X637241Y408958D01*
X637341Y408948D01*
X637440Y408942D01*
X637540Y408940D01*
X683260Y408940D02*
X683360Y408942D01*
X683459Y408948D01*
X683559Y408958D01*
X683657Y408971D01*
X683756Y408989D01*
X683853Y409010D01*
X683949Y409035D01*
X684045Y409064D01*
X684139Y409097D01*
X684232Y409133D01*
X684323Y409173D01*
X684413Y409217D01*
X684501Y409264D01*
X684587Y409314D01*
X684671Y409368D01*
X684753Y409425D01*
X684832Y409485D01*
X684910Y409549D01*
X684984Y409615D01*
X685056Y409684D01*
X685125Y409756D01*
X685191Y409830D01*
X685255Y409908D01*
X685315Y409987D01*
X685372Y410069D01*
X685426Y410153D01*
X685476Y410239D01*
X685523Y410327D01*
X685567Y410417D01*
X685607Y410508D01*
X685643Y410601D01*
X685676Y410695D01*
X685705Y410791D01*
X685730Y410887D01*
X685751Y410984D01*
X685769Y411083D01*
X685782Y411181D01*
X685792Y411281D01*
X685798Y411380D01*
X685800Y411480D01*
X685800Y426720D02*
X685798Y426820D01*
X685792Y426919D01*
X685782Y427019D01*
X685769Y427117D01*
X685751Y427216D01*
X685730Y427313D01*
X685705Y427409D01*
X685676Y427505D01*
X685643Y427599D01*
X685607Y427692D01*
X685567Y427783D01*
X685523Y427873D01*
X685476Y427961D01*
X685426Y428047D01*
X685372Y428131D01*
X685315Y428213D01*
X685255Y428292D01*
X685191Y428370D01*
X685125Y428444D01*
X685056Y428516D01*
X684984Y428585D01*
X684910Y428651D01*
X684832Y428715D01*
X684753Y428775D01*
X684671Y428832D01*
X684587Y428886D01*
X684501Y428936D01*
X684413Y428983D01*
X684323Y429027D01*
X684232Y429067D01*
X684139Y429103D01*
X684045Y429136D01*
X683949Y429165D01*
X683853Y429190D01*
X683756Y429211D01*
X683657Y429229D01*
X683559Y429242D01*
X683459Y429252D01*
X683360Y429258D01*
X683260Y429260D01*
X635000Y426720D02*
X635000Y411480D01*
X637540Y429260D02*
X641350Y429260D01*
X642620Y427990D01*
X641350Y408940D02*
X637540Y408940D01*
X641350Y408940D02*
X642620Y410210D01*
X678180Y427990D02*
X679450Y429260D01*
X678180Y427990D02*
X642620Y427990D01*
X678180Y410210D02*
X679450Y408940D01*
X678180Y410210D02*
X642620Y410210D01*
X679450Y429260D02*
X683260Y429260D01*
X683260Y408940D02*
X679450Y408940D01*
X685800Y411480D02*
X685800Y426720D01*
D22*
X687705Y419100D03*
X633095Y419100D03*
D12*
X608838Y413258D02*
X599940Y413258D01*
X599940Y417707D01*
X601423Y419190D01*
X604389Y419190D01*
X605872Y417707D01*
X605872Y413258D01*
X605872Y416224D02*
X608838Y419190D01*
X602906Y422379D02*
X599940Y425345D01*
X608838Y425345D01*
X608838Y422379D02*
X608838Y428311D01*
X649101Y423680D02*
X649101Y414782D01*
X644652Y419231D02*
X649101Y423680D01*
X650584Y419231D02*
X644652Y419231D01*
X653773Y416265D02*
X653773Y414782D01*
X653773Y416265D02*
X655256Y416265D01*
X655256Y414782D01*
X653773Y414782D01*
X658334Y423680D02*
X664266Y423680D01*
X664266Y422197D01*
X658334Y416265D01*
X658334Y414782D01*
X667455Y414782D02*
X667455Y423680D01*
X667455Y417748D02*
X673387Y423680D01*
X668938Y419231D02*
X673387Y414782D01*
D11*
X660400Y452120D02*
X660402Y452220D01*
X660408Y452319D01*
X660418Y452419D01*
X660431Y452517D01*
X660449Y452616D01*
X660470Y452713D01*
X660495Y452809D01*
X660524Y452905D01*
X660557Y452999D01*
X660593Y453092D01*
X660633Y453183D01*
X660677Y453273D01*
X660724Y453361D01*
X660774Y453447D01*
X660828Y453531D01*
X660885Y453613D01*
X660945Y453692D01*
X661009Y453770D01*
X661075Y453844D01*
X661144Y453916D01*
X661216Y453985D01*
X661290Y454051D01*
X661368Y454115D01*
X661447Y454175D01*
X661529Y454232D01*
X661613Y454286D01*
X661699Y454336D01*
X661787Y454383D01*
X661877Y454427D01*
X661968Y454467D01*
X662061Y454503D01*
X662155Y454536D01*
X662251Y454565D01*
X662347Y454590D01*
X662444Y454611D01*
X662543Y454629D01*
X662641Y454642D01*
X662741Y454652D01*
X662840Y454658D01*
X662940Y454660D01*
X660400Y436880D02*
X660402Y436780D01*
X660408Y436681D01*
X660418Y436581D01*
X660431Y436483D01*
X660449Y436384D01*
X660470Y436287D01*
X660495Y436191D01*
X660524Y436095D01*
X660557Y436001D01*
X660593Y435908D01*
X660633Y435817D01*
X660677Y435727D01*
X660724Y435639D01*
X660774Y435553D01*
X660828Y435469D01*
X660885Y435387D01*
X660945Y435308D01*
X661009Y435230D01*
X661075Y435156D01*
X661144Y435084D01*
X661216Y435015D01*
X661290Y434949D01*
X661368Y434885D01*
X661447Y434825D01*
X661529Y434768D01*
X661613Y434714D01*
X661699Y434664D01*
X661787Y434617D01*
X661877Y434573D01*
X661968Y434533D01*
X662061Y434497D01*
X662155Y434464D01*
X662251Y434435D01*
X662347Y434410D01*
X662444Y434389D01*
X662543Y434371D01*
X662641Y434358D01*
X662741Y434348D01*
X662840Y434342D01*
X662940Y434340D01*
X708660Y434340D02*
X708760Y434342D01*
X708859Y434348D01*
X708959Y434358D01*
X709057Y434371D01*
X709156Y434389D01*
X709253Y434410D01*
X709349Y434435D01*
X709445Y434464D01*
X709539Y434497D01*
X709632Y434533D01*
X709723Y434573D01*
X709813Y434617D01*
X709901Y434664D01*
X709987Y434714D01*
X710071Y434768D01*
X710153Y434825D01*
X710232Y434885D01*
X710310Y434949D01*
X710384Y435015D01*
X710456Y435084D01*
X710525Y435156D01*
X710591Y435230D01*
X710655Y435308D01*
X710715Y435387D01*
X710772Y435469D01*
X710826Y435553D01*
X710876Y435639D01*
X710923Y435727D01*
X710967Y435817D01*
X711007Y435908D01*
X711043Y436001D01*
X711076Y436095D01*
X711105Y436191D01*
X711130Y436287D01*
X711151Y436384D01*
X711169Y436483D01*
X711182Y436581D01*
X711192Y436681D01*
X711198Y436780D01*
X711200Y436880D01*
X711200Y452120D02*
X711198Y452220D01*
X711192Y452319D01*
X711182Y452419D01*
X711169Y452517D01*
X711151Y452616D01*
X711130Y452713D01*
X711105Y452809D01*
X711076Y452905D01*
X711043Y452999D01*
X711007Y453092D01*
X710967Y453183D01*
X710923Y453273D01*
X710876Y453361D01*
X710826Y453447D01*
X710772Y453531D01*
X710715Y453613D01*
X710655Y453692D01*
X710591Y453770D01*
X710525Y453844D01*
X710456Y453916D01*
X710384Y453985D01*
X710310Y454051D01*
X710232Y454115D01*
X710153Y454175D01*
X710071Y454232D01*
X709987Y454286D01*
X709901Y454336D01*
X709813Y454383D01*
X709723Y454427D01*
X709632Y454467D01*
X709539Y454503D01*
X709445Y454536D01*
X709349Y454565D01*
X709253Y454590D01*
X709156Y454611D01*
X709057Y454629D01*
X708959Y454642D01*
X708859Y454652D01*
X708760Y454658D01*
X708660Y454660D01*
X660400Y452120D02*
X660400Y436880D01*
X662940Y454660D02*
X666750Y454660D01*
X668020Y453390D01*
X666750Y434340D02*
X662940Y434340D01*
X666750Y434340D02*
X668020Y435610D01*
X703580Y453390D02*
X704850Y454660D01*
X703580Y453390D02*
X668020Y453390D01*
X703580Y435610D02*
X704850Y434340D01*
X703580Y435610D02*
X668020Y435610D01*
X704850Y454660D02*
X708660Y454660D01*
X708660Y434340D02*
X704850Y434340D01*
X711200Y436880D02*
X711200Y452120D01*
D22*
X713105Y444500D03*
X658495Y444500D03*
D12*
X634238Y438658D02*
X625340Y438658D01*
X625340Y443107D01*
X626823Y444590D01*
X629789Y444590D01*
X631272Y443107D01*
X631272Y438658D01*
X631272Y441624D02*
X634238Y444590D01*
X634238Y447779D02*
X634238Y453711D01*
X634238Y447779D02*
X628306Y453711D01*
X626823Y453711D01*
X625340Y452228D01*
X625340Y449262D01*
X626823Y447779D01*
X674501Y449080D02*
X674501Y440182D01*
X670052Y444631D02*
X674501Y449080D01*
X675984Y444631D02*
X670052Y444631D01*
X679173Y441665D02*
X679173Y440182D01*
X679173Y441665D02*
X680656Y441665D01*
X680656Y440182D01*
X679173Y440182D01*
X683734Y449080D02*
X689666Y449080D01*
X689666Y447597D01*
X683734Y441665D01*
X683734Y440182D01*
X692855Y440182D02*
X692855Y449080D01*
X692855Y443148D02*
X698787Y449080D01*
X694338Y444631D02*
X698787Y440182D01*
D11*
X271780Y685800D02*
X271680Y685802D01*
X271581Y685808D01*
X271481Y685818D01*
X271383Y685831D01*
X271284Y685849D01*
X271187Y685870D01*
X271091Y685895D01*
X270995Y685924D01*
X270901Y685957D01*
X270808Y685993D01*
X270717Y686033D01*
X270627Y686077D01*
X270539Y686124D01*
X270453Y686174D01*
X270369Y686228D01*
X270287Y686285D01*
X270208Y686345D01*
X270130Y686409D01*
X270056Y686475D01*
X269984Y686544D01*
X269915Y686616D01*
X269849Y686690D01*
X269785Y686768D01*
X269725Y686847D01*
X269668Y686929D01*
X269614Y687013D01*
X269564Y687099D01*
X269517Y687187D01*
X269473Y687277D01*
X269433Y687368D01*
X269397Y687461D01*
X269364Y687555D01*
X269335Y687651D01*
X269310Y687747D01*
X269289Y687844D01*
X269271Y687943D01*
X269258Y688041D01*
X269248Y688141D01*
X269242Y688240D01*
X269240Y688340D01*
X287020Y685800D02*
X287120Y685802D01*
X287219Y685808D01*
X287319Y685818D01*
X287417Y685831D01*
X287516Y685849D01*
X287613Y685870D01*
X287709Y685895D01*
X287805Y685924D01*
X287899Y685957D01*
X287992Y685993D01*
X288083Y686033D01*
X288173Y686077D01*
X288261Y686124D01*
X288347Y686174D01*
X288431Y686228D01*
X288513Y686285D01*
X288592Y686345D01*
X288670Y686409D01*
X288744Y686475D01*
X288816Y686544D01*
X288885Y686616D01*
X288951Y686690D01*
X289015Y686768D01*
X289075Y686847D01*
X289132Y686929D01*
X289186Y687013D01*
X289236Y687099D01*
X289283Y687187D01*
X289327Y687277D01*
X289367Y687368D01*
X289403Y687461D01*
X289436Y687555D01*
X289465Y687651D01*
X289490Y687747D01*
X289511Y687844D01*
X289529Y687943D01*
X289542Y688041D01*
X289552Y688141D01*
X289558Y688240D01*
X289560Y688340D01*
X289560Y734060D02*
X289558Y734160D01*
X289552Y734259D01*
X289542Y734359D01*
X289529Y734457D01*
X289511Y734556D01*
X289490Y734653D01*
X289465Y734749D01*
X289436Y734845D01*
X289403Y734939D01*
X289367Y735032D01*
X289327Y735123D01*
X289283Y735213D01*
X289236Y735301D01*
X289186Y735387D01*
X289132Y735471D01*
X289075Y735553D01*
X289015Y735632D01*
X288951Y735710D01*
X288885Y735784D01*
X288816Y735856D01*
X288744Y735925D01*
X288670Y735991D01*
X288592Y736055D01*
X288513Y736115D01*
X288431Y736172D01*
X288347Y736226D01*
X288261Y736276D01*
X288173Y736323D01*
X288083Y736367D01*
X287992Y736407D01*
X287899Y736443D01*
X287805Y736476D01*
X287709Y736505D01*
X287613Y736530D01*
X287516Y736551D01*
X287417Y736569D01*
X287319Y736582D01*
X287219Y736592D01*
X287120Y736598D01*
X287020Y736600D01*
X271780Y736600D02*
X271680Y736598D01*
X271581Y736592D01*
X271481Y736582D01*
X271383Y736569D01*
X271284Y736551D01*
X271187Y736530D01*
X271091Y736505D01*
X270995Y736476D01*
X270901Y736443D01*
X270808Y736407D01*
X270717Y736367D01*
X270627Y736323D01*
X270539Y736276D01*
X270453Y736226D01*
X270369Y736172D01*
X270287Y736115D01*
X270208Y736055D01*
X270130Y735991D01*
X270056Y735925D01*
X269984Y735856D01*
X269915Y735784D01*
X269849Y735710D01*
X269785Y735632D01*
X269725Y735553D01*
X269668Y735471D01*
X269614Y735387D01*
X269564Y735301D01*
X269517Y735213D01*
X269473Y735123D01*
X269433Y735032D01*
X269397Y734939D01*
X269364Y734845D01*
X269335Y734749D01*
X269310Y734653D01*
X269289Y734556D01*
X269271Y734457D01*
X269258Y734359D01*
X269248Y734259D01*
X269242Y734160D01*
X269240Y734060D01*
X271780Y685800D02*
X287020Y685800D01*
X269240Y688340D02*
X269240Y692150D01*
X270510Y693420D01*
X289560Y692150D02*
X289560Y688340D01*
X289560Y692150D02*
X288290Y693420D01*
X270510Y728980D02*
X269240Y730250D01*
X270510Y728980D02*
X270510Y693420D01*
X288290Y728980D02*
X289560Y730250D01*
X288290Y728980D02*
X288290Y693420D01*
X269240Y730250D02*
X269240Y734060D01*
X289560Y734060D02*
X289560Y730250D01*
X287020Y736600D02*
X271780Y736600D01*
D23*
X279400Y738505D03*
X279400Y683895D03*
D12*
X265938Y686308D02*
X257040Y686308D01*
X257040Y690757D01*
X258523Y692240D01*
X261489Y692240D01*
X262972Y690757D01*
X262972Y686308D01*
X262972Y689274D02*
X265938Y692240D01*
X258523Y695429D02*
X257040Y696912D01*
X257040Y699878D01*
X258523Y701361D01*
X260006Y701361D01*
X261489Y699878D01*
X261489Y698395D01*
X261489Y699878D02*
X262972Y701361D01*
X264455Y701361D01*
X265938Y699878D01*
X265938Y696912D01*
X264455Y695429D01*
X274820Y699901D02*
X283718Y699901D01*
X279269Y695452D02*
X274820Y699901D01*
X279269Y701384D02*
X279269Y695452D01*
X282235Y704573D02*
X283718Y704573D01*
X282235Y704573D02*
X282235Y706056D01*
X283718Y706056D01*
X283718Y704573D01*
X274820Y709134D02*
X274820Y715066D01*
X276303Y715066D01*
X282235Y709134D01*
X283718Y709134D01*
X283718Y718255D02*
X274820Y718255D01*
X280752Y718255D02*
X274820Y724187D01*
X279269Y719738D02*
X283718Y724187D01*
M02*
