G04 EAGLE Gerber RS-274X export*
G75*
%MOMM*%
%FSLAX34Y34*%
%LPD*%
%INBottom Copper*%
%IPPOS*%
%AMOC8*
5,1,8,0,0,1.08239X$1,22.5*%
G01*
%ADD10R,1.270000X9.525000*%
%ADD11C,5.715000*%
%ADD12C,1.500000*%
%ADD13C,1.219200*%
%ADD14C,1.700000*%
%ADD15C,1.524000*%
%ADD16R,1.500000X1.500000*%
%ADD17R,3.216000X3.216000*%
%ADD18P,1.319650X8X292.500000*%
%ADD19P,1.319650X8X22.500000*%
%ADD20R,1.168400X1.600200*%
%ADD21P,1.649562X8X22.500000*%
%ADD22P,1.319650X8X112.500000*%
%ADD23R,1.600200X1.168400*%
%ADD24C,0.254000*%
%ADD25C,0.965200*%
%ADD26C,0.812800*%

G36*
X741573Y113542D02*
X741573Y113542D01*
X741592Y113540D01*
X741694Y113562D01*
X741796Y113579D01*
X741813Y113588D01*
X741833Y113592D01*
X741922Y113645D01*
X742013Y113694D01*
X742027Y113708D01*
X742044Y113718D01*
X742111Y113797D01*
X742183Y113872D01*
X742191Y113890D01*
X742204Y113905D01*
X742243Y114001D01*
X742286Y114095D01*
X742288Y114115D01*
X742296Y114133D01*
X742314Y114300D01*
X742314Y114905D01*
X742323Y114917D01*
X744186Y118144D01*
X747413Y120007D01*
X747424Y120016D01*
X959993Y120016D01*
X960013Y120019D01*
X960032Y120017D01*
X960134Y120039D01*
X960236Y120055D01*
X960253Y120065D01*
X960273Y120069D01*
X960362Y120122D01*
X960453Y120171D01*
X960467Y120185D01*
X960484Y120195D01*
X960551Y120274D01*
X960623Y120349D01*
X960631Y120367D01*
X960644Y120382D01*
X960683Y120478D01*
X960726Y120572D01*
X960728Y120592D01*
X960736Y120610D01*
X960754Y120777D01*
X960754Y821563D01*
X960751Y821583D01*
X960753Y821602D01*
X960731Y821704D01*
X960715Y821806D01*
X960705Y821823D01*
X960701Y821843D01*
X960648Y821932D01*
X960599Y822023D01*
X960585Y822037D01*
X960575Y822054D01*
X960496Y822121D01*
X960421Y822193D01*
X960403Y822201D01*
X960388Y822214D01*
X960292Y822253D01*
X960198Y822296D01*
X960178Y822298D01*
X960160Y822306D01*
X959993Y822324D01*
X228763Y822324D01*
X228693Y822313D01*
X228621Y822311D01*
X228572Y822293D01*
X228521Y822285D01*
X228457Y822251D01*
X228390Y822226D01*
X228349Y822194D01*
X228303Y822169D01*
X228254Y822117D01*
X228198Y822073D01*
X228170Y822029D01*
X228134Y821991D01*
X228104Y821926D01*
X228065Y821866D01*
X228052Y821815D01*
X228030Y821768D01*
X228022Y821697D01*
X228005Y821627D01*
X228009Y821575D01*
X228003Y821524D01*
X228018Y821453D01*
X228024Y821382D01*
X228044Y821334D01*
X228055Y821283D01*
X228092Y821222D01*
X228120Y821156D01*
X228165Y821100D01*
X228181Y821072D01*
X228199Y821057D01*
X228225Y821025D01*
X230762Y818488D01*
X232291Y814797D01*
X232291Y810803D01*
X230762Y807112D01*
X227938Y804288D01*
X224247Y802759D01*
X220253Y802759D01*
X216562Y804288D01*
X213738Y807112D01*
X212209Y810803D01*
X212209Y814797D01*
X213738Y818488D01*
X216275Y821025D01*
X216317Y821083D01*
X216366Y821135D01*
X216388Y821182D01*
X216419Y821224D01*
X216440Y821293D01*
X216470Y821358D01*
X216476Y821410D01*
X216491Y821460D01*
X216489Y821531D01*
X216497Y821602D01*
X216486Y821653D01*
X216485Y821705D01*
X216460Y821773D01*
X216445Y821843D01*
X216418Y821888D01*
X216400Y821936D01*
X216355Y821992D01*
X216319Y822054D01*
X216279Y822088D01*
X216246Y822128D01*
X216186Y822167D01*
X216132Y822214D01*
X216083Y822233D01*
X216039Y822261D01*
X215970Y822279D01*
X215903Y822306D01*
X215832Y822314D01*
X215801Y822322D01*
X215778Y822320D01*
X215737Y822324D01*
X169731Y822324D01*
X169660Y822313D01*
X169588Y822311D01*
X169539Y822293D01*
X169488Y822285D01*
X169425Y822251D01*
X169357Y822226D01*
X169317Y822194D01*
X169271Y822169D01*
X169221Y822117D01*
X169165Y822073D01*
X169137Y822029D01*
X169101Y821991D01*
X169071Y821926D01*
X169032Y821866D01*
X169019Y821815D01*
X168998Y821768D01*
X168990Y821697D01*
X168972Y821627D01*
X168976Y821575D01*
X168970Y821524D01*
X168986Y821453D01*
X168991Y821382D01*
X169012Y821334D01*
X169023Y821283D01*
X169059Y821222D01*
X169088Y821156D01*
X169132Y821100D01*
X169149Y821072D01*
X169167Y821057D01*
X169192Y821025D01*
X171460Y818757D01*
X173411Y814048D01*
X173411Y808952D01*
X171460Y804243D01*
X167857Y800640D01*
X163148Y798689D01*
X158052Y798689D01*
X153343Y800640D01*
X149740Y804243D01*
X147789Y808952D01*
X147789Y814048D01*
X149740Y818757D01*
X152008Y821025D01*
X152049Y821083D01*
X152099Y821135D01*
X152121Y821182D01*
X152151Y821224D01*
X152172Y821293D01*
X152202Y821358D01*
X152208Y821410D01*
X152224Y821460D01*
X152222Y821531D01*
X152230Y821602D01*
X152219Y821653D01*
X152217Y821705D01*
X152193Y821773D01*
X152177Y821843D01*
X152151Y821888D01*
X152133Y821936D01*
X152088Y821992D01*
X152051Y822054D01*
X152012Y822088D01*
X151979Y822128D01*
X151919Y822167D01*
X151864Y822214D01*
X151816Y822233D01*
X151772Y822261D01*
X151703Y822279D01*
X151636Y822306D01*
X151565Y822314D01*
X151534Y822322D01*
X151510Y822320D01*
X151469Y822324D01*
X115231Y822324D01*
X115160Y822313D01*
X115088Y822311D01*
X115039Y822293D01*
X114988Y822285D01*
X114925Y822251D01*
X114857Y822226D01*
X114817Y822194D01*
X114771Y822169D01*
X114721Y822117D01*
X114665Y822073D01*
X114637Y822029D01*
X114601Y821991D01*
X114571Y821926D01*
X114532Y821866D01*
X114519Y821815D01*
X114498Y821768D01*
X114490Y821697D01*
X114472Y821627D01*
X114476Y821575D01*
X114470Y821524D01*
X114486Y821453D01*
X114491Y821382D01*
X114512Y821334D01*
X114523Y821283D01*
X114559Y821222D01*
X114588Y821156D01*
X114632Y821100D01*
X114649Y821072D01*
X114667Y821057D01*
X114692Y821025D01*
X116960Y818757D01*
X118911Y814048D01*
X118911Y808952D01*
X116960Y804243D01*
X113357Y800640D01*
X108648Y798689D01*
X103552Y798689D01*
X98843Y800640D01*
X95240Y804243D01*
X93289Y808952D01*
X93289Y814048D01*
X95240Y818757D01*
X97508Y821025D01*
X97549Y821083D01*
X97599Y821135D01*
X97621Y821182D01*
X97651Y821224D01*
X97672Y821293D01*
X97702Y821358D01*
X97708Y821410D01*
X97724Y821460D01*
X97722Y821531D01*
X97730Y821602D01*
X97719Y821653D01*
X97717Y821705D01*
X97693Y821773D01*
X97677Y821843D01*
X97651Y821888D01*
X97633Y821936D01*
X97588Y821992D01*
X97551Y822054D01*
X97512Y822088D01*
X97479Y822128D01*
X97419Y822167D01*
X97364Y822214D01*
X97316Y822233D01*
X97272Y822261D01*
X97203Y822279D01*
X97136Y822306D01*
X97065Y822314D01*
X97034Y822322D01*
X97010Y822320D01*
X96969Y822324D01*
X50963Y822324D01*
X50893Y822313D01*
X50821Y822311D01*
X50772Y822293D01*
X50721Y822285D01*
X50657Y822251D01*
X50590Y822226D01*
X50549Y822194D01*
X50503Y822169D01*
X50454Y822117D01*
X50398Y822073D01*
X50370Y822029D01*
X50334Y821991D01*
X50304Y821926D01*
X50265Y821866D01*
X50252Y821815D01*
X50230Y821768D01*
X50222Y821697D01*
X50205Y821627D01*
X50209Y821575D01*
X50203Y821524D01*
X50218Y821453D01*
X50224Y821382D01*
X50244Y821334D01*
X50255Y821283D01*
X50292Y821222D01*
X50320Y821156D01*
X50365Y821100D01*
X50381Y821072D01*
X50399Y821057D01*
X50425Y821025D01*
X52962Y818488D01*
X54491Y814797D01*
X54491Y810803D01*
X52962Y807112D01*
X50138Y804288D01*
X46447Y802759D01*
X42453Y802759D01*
X41046Y803342D01*
X40932Y803369D01*
X40819Y803397D01*
X40812Y803397D01*
X40806Y803398D01*
X40690Y803387D01*
X40574Y803378D01*
X40568Y803376D01*
X40562Y803375D01*
X40454Y803327D01*
X40347Y803282D01*
X40341Y803277D01*
X40337Y803275D01*
X40323Y803262D01*
X40216Y803177D01*
X16734Y779694D01*
X16681Y779621D01*
X16621Y779551D01*
X16609Y779521D01*
X16590Y779495D01*
X16563Y779408D01*
X16529Y779323D01*
X16525Y779282D01*
X16518Y779260D01*
X16519Y779227D01*
X16511Y779156D01*
X16511Y144272D01*
X16514Y144252D01*
X16512Y144233D01*
X16534Y144131D01*
X16550Y144029D01*
X16560Y144012D01*
X16564Y143992D01*
X16617Y143903D01*
X16666Y143812D01*
X16680Y143798D01*
X16690Y143781D01*
X16769Y143714D01*
X16844Y143642D01*
X16862Y143634D01*
X16877Y143621D01*
X16973Y143582D01*
X17067Y143539D01*
X17087Y143537D01*
X17105Y143529D01*
X17272Y143511D01*
X241424Y143511D01*
X241472Y143518D01*
X241520Y143517D01*
X241593Y143538D01*
X241667Y143550D01*
X241710Y143573D01*
X241756Y143587D01*
X241818Y143630D01*
X241885Y143666D01*
X241918Y143700D01*
X241957Y143728D01*
X242002Y143789D01*
X242054Y143844D01*
X242074Y143887D01*
X242103Y143926D01*
X242126Y143998D01*
X242158Y144067D01*
X242163Y144115D01*
X242178Y144160D01*
X242176Y144236D01*
X242185Y144311D01*
X242175Y144358D01*
X242174Y144406D01*
X242149Y144478D01*
X242132Y144552D01*
X242108Y144593D01*
X242092Y144638D01*
X242045Y144698D01*
X242006Y144763D01*
X241970Y144794D01*
X241940Y144832D01*
X241837Y144908D01*
X241819Y144923D01*
X241813Y144925D01*
X241805Y144931D01*
X236800Y147821D01*
X231006Y153615D01*
X226910Y160710D01*
X224789Y168624D01*
X224789Y176816D01*
X226910Y184730D01*
X231006Y191825D01*
X236800Y197619D01*
X242905Y201144D01*
X242942Y201174D01*
X242984Y201197D01*
X243037Y201252D01*
X243095Y201300D01*
X243121Y201340D01*
X243154Y201375D01*
X243186Y201444D01*
X243226Y201508D01*
X243237Y201555D01*
X243257Y201598D01*
X243266Y201673D01*
X243284Y201747D01*
X243279Y201795D01*
X243285Y201842D01*
X243268Y201917D01*
X243262Y201992D01*
X243242Y202036D01*
X243232Y202083D01*
X243193Y202148D01*
X243163Y202217D01*
X243131Y202253D01*
X243106Y202294D01*
X243049Y202343D01*
X242998Y202399D01*
X242956Y202423D01*
X242919Y202454D01*
X242849Y202482D01*
X242783Y202519D01*
X242736Y202528D01*
X242691Y202546D01*
X242563Y202560D01*
X242541Y202564D01*
X242534Y202563D01*
X242524Y202564D01*
X166697Y202564D01*
X87912Y281349D01*
X87818Y281416D01*
X87723Y281487D01*
X87717Y281489D01*
X87712Y281492D01*
X87601Y281526D01*
X87490Y281563D01*
X87483Y281563D01*
X87477Y281565D01*
X87360Y281561D01*
X87244Y281560D01*
X87236Y281558D01*
X84260Y281558D01*
X81552Y282680D01*
X79480Y284752D01*
X78358Y287460D01*
X78358Y290390D01*
X79480Y293098D01*
X79722Y293340D01*
X79763Y293398D01*
X79813Y293450D01*
X79835Y293497D01*
X79865Y293539D01*
X79886Y293608D01*
X79916Y293673D01*
X79922Y293725D01*
X79938Y293775D01*
X79936Y293846D01*
X79944Y293917D01*
X79932Y293968D01*
X79931Y294020D01*
X79907Y294088D01*
X79891Y294158D01*
X79865Y294203D01*
X79847Y294251D01*
X79802Y294307D01*
X79765Y294369D01*
X79726Y294403D01*
X79693Y294443D01*
X79633Y294482D01*
X79578Y294529D01*
X79530Y294548D01*
X79486Y294576D01*
X79417Y294594D01*
X79350Y294621D01*
X79279Y294629D01*
X79248Y294637D01*
X79224Y294635D01*
X79183Y294639D01*
X74622Y294639D01*
X48684Y320577D01*
X48590Y320645D01*
X48495Y320715D01*
X48489Y320717D01*
X48484Y320721D01*
X48373Y320755D01*
X48261Y320791D01*
X48255Y320791D01*
X48249Y320793D01*
X48132Y320790D01*
X48015Y320789D01*
X48008Y320787D01*
X48003Y320787D01*
X47986Y320780D01*
X47854Y320742D01*
X46447Y320159D01*
X42453Y320159D01*
X38762Y321688D01*
X35938Y324512D01*
X34409Y328203D01*
X34409Y332197D01*
X35938Y335888D01*
X37840Y337790D01*
X37882Y337848D01*
X37931Y337900D01*
X37953Y337947D01*
X37984Y337989D01*
X38005Y338058D01*
X38035Y338123D01*
X38041Y338175D01*
X38056Y338225D01*
X38054Y338296D01*
X38062Y338367D01*
X38051Y338418D01*
X38050Y338470D01*
X38025Y338538D01*
X38010Y338608D01*
X37983Y338653D01*
X37965Y338701D01*
X37920Y338757D01*
X37884Y338819D01*
X37844Y338853D01*
X37811Y338893D01*
X37751Y338932D01*
X37697Y338979D01*
X37648Y338998D01*
X37604Y339026D01*
X37535Y339044D01*
X37468Y339071D01*
X37397Y339079D01*
X37366Y339087D01*
X37343Y339085D01*
X37302Y339089D01*
X23822Y339089D01*
X21589Y341322D01*
X21589Y541328D01*
X34827Y554566D01*
X34875Y554633D01*
X34877Y554636D01*
X34878Y554638D01*
X34895Y554660D01*
X34965Y554755D01*
X34967Y554761D01*
X34971Y554766D01*
X35005Y554877D01*
X35041Y554989D01*
X35041Y554995D01*
X35043Y555001D01*
X35040Y555118D01*
X35039Y555235D01*
X35037Y555242D01*
X35037Y555247D01*
X35030Y555264D01*
X34992Y555396D01*
X34409Y556803D01*
X34409Y560797D01*
X35938Y564488D01*
X38762Y567312D01*
X42453Y568841D01*
X46447Y568841D01*
X50138Y567312D01*
X52962Y564488D01*
X54491Y560797D01*
X54491Y556803D01*
X52962Y553112D01*
X50138Y550288D01*
X46447Y548759D01*
X42453Y548759D01*
X41046Y549342D01*
X40932Y549369D01*
X40819Y549397D01*
X40812Y549397D01*
X40806Y549398D01*
X40690Y549387D01*
X40574Y549378D01*
X40568Y549376D01*
X40561Y549375D01*
X40454Y549327D01*
X40347Y549282D01*
X40341Y549277D01*
X40337Y549275D01*
X40323Y549262D01*
X40216Y549177D01*
X29434Y538394D01*
X29381Y538321D01*
X29321Y538251D01*
X29309Y538221D01*
X29290Y538195D01*
X29263Y538108D01*
X29229Y538023D01*
X29225Y537982D01*
X29218Y537960D01*
X29219Y537927D01*
X29211Y537856D01*
X29211Y474588D01*
X29222Y474517D01*
X29224Y474445D01*
X29242Y474396D01*
X29250Y474345D01*
X29284Y474282D01*
X29309Y474214D01*
X29341Y474174D01*
X29366Y474128D01*
X29418Y474078D01*
X29462Y474022D01*
X29506Y473994D01*
X29544Y473958D01*
X29609Y473928D01*
X29669Y473889D01*
X29720Y473877D01*
X29767Y473855D01*
X29838Y473847D01*
X29908Y473829D01*
X29960Y473833D01*
X30011Y473828D01*
X30082Y473843D01*
X30153Y473848D01*
X30201Y473869D01*
X30252Y473880D01*
X30313Y473917D01*
X30379Y473945D01*
X30435Y473989D01*
X30463Y474006D01*
X30478Y474024D01*
X30510Y474049D01*
X34827Y478366D01*
X34895Y478461D01*
X34965Y478555D01*
X34967Y478561D01*
X34971Y478566D01*
X35005Y478678D01*
X35041Y478789D01*
X35041Y478795D01*
X35043Y478801D01*
X35040Y478918D01*
X35039Y479035D01*
X35037Y479042D01*
X35037Y479047D01*
X35030Y479064D01*
X34992Y479196D01*
X34409Y480603D01*
X34409Y484597D01*
X35938Y488288D01*
X38762Y491112D01*
X42453Y492641D01*
X46447Y492641D01*
X50138Y491112D01*
X52962Y488288D01*
X54491Y484597D01*
X54491Y480603D01*
X52962Y476912D01*
X50138Y474088D01*
X46447Y472559D01*
X42453Y472559D01*
X41046Y473142D01*
X40932Y473169D01*
X40819Y473197D01*
X40812Y473197D01*
X40806Y473198D01*
X40690Y473187D01*
X40574Y473178D01*
X40568Y473176D01*
X40561Y473175D01*
X40454Y473127D01*
X40347Y473082D01*
X40341Y473077D01*
X40337Y473075D01*
X40323Y473062D01*
X40216Y472977D01*
X35784Y468544D01*
X35731Y468471D01*
X35671Y468401D01*
X35659Y468371D01*
X35640Y468345D01*
X35613Y468258D01*
X35579Y468173D01*
X35575Y468132D01*
X35568Y468110D01*
X35569Y468077D01*
X35561Y468006D01*
X35561Y464348D01*
X35572Y464278D01*
X35574Y464206D01*
X35592Y464157D01*
X35600Y464106D01*
X35634Y464042D01*
X35659Y463975D01*
X35691Y463934D01*
X35716Y463888D01*
X35768Y463839D01*
X35812Y463783D01*
X35856Y463755D01*
X35894Y463719D01*
X35959Y463689D01*
X36019Y463650D01*
X36070Y463637D01*
X36117Y463615D01*
X36188Y463607D01*
X36258Y463590D01*
X36310Y463594D01*
X36361Y463588D01*
X36432Y463603D01*
X36503Y463609D01*
X36551Y463629D01*
X36602Y463640D01*
X36663Y463677D01*
X36729Y463705D01*
X36785Y463750D01*
X36813Y463766D01*
X36828Y463784D01*
X36860Y463810D01*
X38762Y465712D01*
X42453Y467241D01*
X46447Y467241D01*
X50138Y465712D01*
X52962Y462888D01*
X54491Y459197D01*
X54491Y455203D01*
X52962Y451512D01*
X50138Y448688D01*
X46447Y447159D01*
X42453Y447159D01*
X38762Y448688D01*
X36860Y450590D01*
X36802Y450632D01*
X36750Y450681D01*
X36703Y450703D01*
X36661Y450734D01*
X36592Y450755D01*
X36527Y450785D01*
X36475Y450791D01*
X36425Y450806D01*
X36354Y450804D01*
X36283Y450812D01*
X36232Y450801D01*
X36180Y450800D01*
X36112Y450775D01*
X36042Y450760D01*
X35997Y450733D01*
X35949Y450715D01*
X35893Y450670D01*
X35831Y450634D01*
X35797Y450594D01*
X35757Y450561D01*
X35718Y450501D01*
X35671Y450447D01*
X35652Y450398D01*
X35624Y450354D01*
X35606Y450285D01*
X35579Y450218D01*
X35571Y450147D01*
X35563Y450116D01*
X35565Y450093D01*
X35561Y450052D01*
X35561Y438948D01*
X35572Y438878D01*
X35574Y438806D01*
X35592Y438757D01*
X35600Y438706D01*
X35634Y438642D01*
X35659Y438575D01*
X35691Y438534D01*
X35716Y438488D01*
X35768Y438439D01*
X35812Y438383D01*
X35856Y438355D01*
X35894Y438319D01*
X35959Y438289D01*
X36019Y438250D01*
X36070Y438237D01*
X36117Y438215D01*
X36188Y438207D01*
X36258Y438190D01*
X36310Y438194D01*
X36361Y438188D01*
X36432Y438203D01*
X36503Y438209D01*
X36551Y438229D01*
X36602Y438240D01*
X36663Y438277D01*
X36729Y438305D01*
X36785Y438350D01*
X36813Y438366D01*
X36828Y438384D01*
X36860Y438410D01*
X38762Y440312D01*
X42453Y441841D01*
X46447Y441841D01*
X47854Y441258D01*
X47968Y441231D01*
X48081Y441203D01*
X48088Y441203D01*
X48094Y441202D01*
X48210Y441213D01*
X48326Y441222D01*
X48332Y441224D01*
X48338Y441225D01*
X48446Y441273D01*
X48553Y441318D01*
X48559Y441323D01*
X48563Y441325D01*
X48577Y441338D01*
X48684Y441423D01*
X53116Y445855D01*
X53116Y445856D01*
X55572Y448311D01*
X117283Y448311D01*
X117354Y448322D01*
X117426Y448324D01*
X117475Y448342D01*
X117526Y448350D01*
X117589Y448384D01*
X117657Y448409D01*
X117697Y448441D01*
X117743Y448466D01*
X117793Y448517D01*
X117849Y448562D01*
X117877Y448606D01*
X117913Y448644D01*
X117943Y448709D01*
X117982Y448769D01*
X117995Y448820D01*
X118016Y448867D01*
X118024Y448938D01*
X118042Y449008D01*
X118038Y449060D01*
X118044Y449111D01*
X118028Y449182D01*
X118023Y449253D01*
X118002Y449301D01*
X117991Y449352D01*
X117954Y449413D01*
X117926Y449479D01*
X117882Y449535D01*
X117865Y449563D01*
X117847Y449578D01*
X117822Y449610D01*
X117580Y449852D01*
X116458Y452560D01*
X116458Y455568D01*
X116469Y455610D01*
X116468Y455616D01*
X116470Y455622D01*
X116459Y455739D01*
X116450Y455855D01*
X116447Y455861D01*
X116447Y455867D01*
X116399Y455974D01*
X116353Y456081D01*
X116349Y456087D01*
X116347Y456092D01*
X116334Y456105D01*
X116249Y456212D01*
X48684Y523777D01*
X48590Y523845D01*
X48495Y523915D01*
X48489Y523917D01*
X48484Y523921D01*
X48373Y523955D01*
X48261Y523991D01*
X48255Y523991D01*
X48249Y523993D01*
X48132Y523990D01*
X48015Y523989D01*
X48008Y523987D01*
X48003Y523987D01*
X47986Y523980D01*
X47854Y523942D01*
X46447Y523359D01*
X42453Y523359D01*
X38762Y524888D01*
X35938Y527712D01*
X34409Y531403D01*
X34409Y535397D01*
X35938Y539088D01*
X38762Y541912D01*
X42453Y543441D01*
X46447Y543441D01*
X50138Y541912D01*
X52962Y539088D01*
X54491Y535397D01*
X54491Y531403D01*
X53908Y529996D01*
X53881Y529882D01*
X53853Y529769D01*
X53853Y529762D01*
X53852Y529756D01*
X53863Y529640D01*
X53872Y529524D01*
X53874Y529518D01*
X53875Y529511D01*
X53923Y529404D01*
X53968Y529297D01*
X53973Y529291D01*
X53975Y529287D01*
X53988Y529273D01*
X54073Y529166D01*
X121638Y461601D01*
X121732Y461534D01*
X121827Y461463D01*
X121833Y461461D01*
X121838Y461458D01*
X121949Y461424D01*
X122060Y461387D01*
X122067Y461387D01*
X122073Y461385D01*
X122190Y461389D01*
X122306Y461390D01*
X122314Y461392D01*
X125290Y461392D01*
X127998Y460270D01*
X130070Y458198D01*
X131192Y455490D01*
X131192Y452560D01*
X130070Y449852D01*
X129828Y449610D01*
X129787Y449552D01*
X129737Y449500D01*
X129715Y449453D01*
X129685Y449411D01*
X129664Y449342D01*
X129634Y449277D01*
X129628Y449225D01*
X129612Y449175D01*
X129614Y449104D01*
X129606Y449033D01*
X129618Y448982D01*
X129619Y448930D01*
X129643Y448862D01*
X129659Y448792D01*
X129685Y448747D01*
X129703Y448699D01*
X129748Y448643D01*
X129785Y448581D01*
X129824Y448547D01*
X129857Y448507D01*
X129917Y448468D01*
X129972Y448421D01*
X130020Y448402D01*
X130064Y448374D01*
X130133Y448356D01*
X130200Y448329D01*
X130271Y448321D01*
X130302Y448313D01*
X130326Y448315D01*
X130367Y448311D01*
X215102Y448311D01*
X215172Y448322D01*
X215244Y448324D01*
X215293Y448342D01*
X215344Y448350D01*
X215408Y448384D01*
X215475Y448409D01*
X215516Y448441D01*
X215562Y448466D01*
X215611Y448518D01*
X215667Y448562D01*
X215695Y448606D01*
X215731Y448644D01*
X215761Y448709D01*
X215800Y448769D01*
X215813Y448820D01*
X215835Y448867D01*
X215843Y448938D01*
X215860Y449008D01*
X215856Y449060D01*
X215862Y449111D01*
X215847Y449182D01*
X215841Y449253D01*
X215821Y449301D01*
X215810Y449352D01*
X215773Y449413D01*
X215745Y449479D01*
X215700Y449535D01*
X215684Y449563D01*
X215666Y449578D01*
X215640Y449610D01*
X213738Y451512D01*
X212209Y455203D01*
X212209Y459197D01*
X213738Y462888D01*
X216562Y465712D01*
X220253Y467241D01*
X224247Y467241D01*
X227938Y465712D01*
X230762Y462888D01*
X232291Y459197D01*
X232291Y458597D01*
X232294Y458577D01*
X232292Y458558D01*
X232314Y458456D01*
X232330Y458354D01*
X232340Y458337D01*
X232344Y458317D01*
X232397Y458228D01*
X232446Y458137D01*
X232460Y458123D01*
X232470Y458106D01*
X232549Y458039D01*
X232624Y457967D01*
X232642Y457959D01*
X232657Y457946D01*
X232753Y457907D01*
X232847Y457864D01*
X232867Y457862D01*
X232885Y457854D01*
X233052Y457836D01*
X358221Y457836D01*
X358336Y457854D01*
X358452Y457872D01*
X358458Y457874D01*
X358464Y457875D01*
X358566Y457930D01*
X358671Y457983D01*
X358676Y457988D01*
X358681Y457991D01*
X358762Y458075D01*
X358844Y458159D01*
X358847Y458165D01*
X358848Y458166D01*
X359122Y458440D01*
X359163Y458498D01*
X359213Y458550D01*
X359235Y458597D01*
X359265Y458639D01*
X359286Y458708D01*
X359316Y458773D01*
X359322Y458825D01*
X359338Y458875D01*
X359336Y458946D01*
X359344Y459017D01*
X359332Y459068D01*
X359331Y459120D01*
X359307Y459188D01*
X359291Y459258D01*
X359265Y459303D01*
X359247Y459351D01*
X359202Y459407D01*
X359165Y459469D01*
X359126Y459503D01*
X359093Y459543D01*
X359033Y459582D01*
X358978Y459629D01*
X358930Y459648D01*
X358886Y459676D01*
X358817Y459694D01*
X358750Y459721D01*
X358679Y459729D01*
X358648Y459737D01*
X358624Y459735D01*
X358583Y459739D01*
X239722Y459739D01*
X226484Y472977D01*
X226390Y473045D01*
X226295Y473115D01*
X226289Y473117D01*
X226284Y473121D01*
X226173Y473155D01*
X226061Y473191D01*
X226055Y473191D01*
X226049Y473193D01*
X225932Y473190D01*
X225815Y473189D01*
X225808Y473187D01*
X225803Y473187D01*
X225786Y473180D01*
X225654Y473142D01*
X224247Y472559D01*
X220253Y472559D01*
X216562Y474088D01*
X213738Y476912D01*
X212209Y480603D01*
X212209Y484597D01*
X213738Y488288D01*
X215640Y490190D01*
X215682Y490248D01*
X215731Y490300D01*
X215753Y490347D01*
X215784Y490389D01*
X215805Y490458D01*
X215835Y490523D01*
X215841Y490575D01*
X215856Y490625D01*
X215854Y490696D01*
X215862Y490767D01*
X215851Y490818D01*
X215850Y490870D01*
X215825Y490938D01*
X215810Y491008D01*
X215783Y491053D01*
X215765Y491101D01*
X215720Y491157D01*
X215684Y491219D01*
X215644Y491253D01*
X215611Y491293D01*
X215551Y491332D01*
X215497Y491379D01*
X215448Y491398D01*
X215404Y491426D01*
X215335Y491444D01*
X215268Y491471D01*
X215197Y491479D01*
X215166Y491487D01*
X215143Y491485D01*
X215102Y491489D01*
X131772Y491489D01*
X129316Y493944D01*
X48684Y574577D01*
X48590Y574645D01*
X48495Y574715D01*
X48489Y574717D01*
X48484Y574721D01*
X48373Y574755D01*
X48261Y574791D01*
X48255Y574791D01*
X48249Y574793D01*
X48132Y574790D01*
X48015Y574789D01*
X48008Y574787D01*
X48003Y574787D01*
X47986Y574780D01*
X47854Y574742D01*
X46447Y574159D01*
X42453Y574159D01*
X38762Y575688D01*
X35938Y578512D01*
X34409Y582203D01*
X34409Y586197D01*
X35938Y589888D01*
X37840Y591790D01*
X37882Y591848D01*
X37931Y591900D01*
X37953Y591947D01*
X37984Y591989D01*
X38005Y592058D01*
X38035Y592123D01*
X38041Y592175D01*
X38056Y592225D01*
X38054Y592296D01*
X38062Y592367D01*
X38051Y592418D01*
X38050Y592470D01*
X38025Y592538D01*
X38010Y592608D01*
X37983Y592653D01*
X37965Y592701D01*
X37920Y592757D01*
X37884Y592819D01*
X37844Y592853D01*
X37811Y592893D01*
X37751Y592932D01*
X37697Y592979D01*
X37648Y592998D01*
X37604Y593026D01*
X37535Y593044D01*
X37468Y593071D01*
X37397Y593079D01*
X37366Y593087D01*
X37343Y593085D01*
X37302Y593089D01*
X30172Y593089D01*
X27939Y595322D01*
X27939Y674678D01*
X34827Y681566D01*
X34895Y681660D01*
X34965Y681755D01*
X34967Y681761D01*
X34971Y681766D01*
X35005Y681877D01*
X35041Y681989D01*
X35041Y681995D01*
X35043Y682001D01*
X35040Y682118D01*
X35039Y682235D01*
X35037Y682242D01*
X35037Y682247D01*
X35030Y682264D01*
X34992Y682396D01*
X34409Y683803D01*
X34409Y687797D01*
X35938Y691488D01*
X38830Y694380D01*
X38846Y694390D01*
X38875Y694425D01*
X38911Y694454D01*
X38953Y694519D01*
X39003Y694579D01*
X39019Y694622D01*
X39044Y694661D01*
X39063Y694736D01*
X39091Y694809D01*
X39093Y694855D01*
X39104Y694899D01*
X39098Y694977D01*
X39102Y695055D01*
X39089Y695099D01*
X39085Y695145D01*
X39055Y695216D01*
X39033Y695291D01*
X39007Y695329D01*
X38989Y695371D01*
X38903Y695478D01*
X38893Y695493D01*
X38889Y695496D01*
X38884Y695502D01*
X30394Y703991D01*
X27939Y706447D01*
X27939Y725478D01*
X30172Y727711D01*
X37302Y727711D01*
X37372Y727722D01*
X37444Y727724D01*
X37493Y727742D01*
X37544Y727750D01*
X37608Y727784D01*
X37675Y727809D01*
X37716Y727841D01*
X37762Y727866D01*
X37811Y727918D01*
X37867Y727962D01*
X37895Y728006D01*
X37931Y728044D01*
X37961Y728109D01*
X38000Y728169D01*
X38013Y728220D01*
X38035Y728267D01*
X38043Y728338D01*
X38060Y728408D01*
X38056Y728460D01*
X38062Y728511D01*
X38047Y728582D01*
X38041Y728653D01*
X38021Y728701D01*
X38010Y728752D01*
X37973Y728813D01*
X37945Y728879D01*
X37900Y728935D01*
X37884Y728963D01*
X37866Y728978D01*
X37840Y729010D01*
X35938Y730912D01*
X34409Y734603D01*
X34409Y738597D01*
X35938Y742288D01*
X38762Y745112D01*
X42453Y746641D01*
X46447Y746641D01*
X50138Y745112D01*
X52962Y742288D01*
X54491Y738597D01*
X54491Y734603D01*
X52962Y730912D01*
X51060Y729010D01*
X51018Y728952D01*
X50969Y728900D01*
X50947Y728853D01*
X50916Y728811D01*
X50895Y728742D01*
X50865Y728677D01*
X50859Y728625D01*
X50844Y728575D01*
X50846Y728504D01*
X50838Y728433D01*
X50849Y728382D01*
X50850Y728330D01*
X50875Y728262D01*
X50890Y728192D01*
X50917Y728147D01*
X50935Y728099D01*
X50980Y728043D01*
X51016Y727981D01*
X51056Y727947D01*
X51089Y727907D01*
X51149Y727868D01*
X51203Y727821D01*
X51252Y727802D01*
X51296Y727774D01*
X51365Y727756D01*
X51432Y727729D01*
X51503Y727721D01*
X51534Y727713D01*
X51557Y727715D01*
X51598Y727711D01*
X192078Y727711D01*
X210910Y708879D01*
X210968Y708838D01*
X211020Y708788D01*
X211067Y708766D01*
X211109Y708736D01*
X211178Y708715D01*
X211243Y708685D01*
X211295Y708679D01*
X211345Y708664D01*
X211416Y708665D01*
X211487Y708658D01*
X211538Y708669D01*
X211590Y708670D01*
X211658Y708695D01*
X211728Y708710D01*
X211773Y708736D01*
X211821Y708754D01*
X211877Y708799D01*
X211939Y708836D01*
X211973Y708876D01*
X212013Y708908D01*
X212052Y708968D01*
X212099Y709023D01*
X212118Y709071D01*
X212146Y709115D01*
X212164Y709184D01*
X212191Y709251D01*
X212199Y709322D01*
X212207Y709354D01*
X212205Y709377D01*
X212209Y709418D01*
X212209Y713197D01*
X213738Y716888D01*
X216562Y719712D01*
X220253Y721241D01*
X224247Y721241D01*
X227938Y719712D01*
X229622Y718028D01*
X229696Y717975D01*
X229765Y717915D01*
X229796Y717903D01*
X229822Y717884D01*
X229909Y717857D01*
X229994Y717823D01*
X230035Y717819D01*
X230057Y717812D01*
X230089Y717813D01*
X230160Y717805D01*
X238249Y717805D01*
X238339Y717819D01*
X238430Y717827D01*
X238460Y717839D01*
X238492Y717844D01*
X238572Y717887D01*
X238656Y717923D01*
X238688Y717949D01*
X238709Y717960D01*
X238731Y717983D01*
X238787Y718028D01*
X270540Y749781D01*
X270593Y749855D01*
X270653Y749924D01*
X270665Y749954D01*
X270684Y749981D01*
X270711Y750068D01*
X270745Y750152D01*
X270749Y750193D01*
X270756Y750216D01*
X270755Y750248D01*
X270763Y750319D01*
X270763Y752877D01*
X275823Y757937D01*
X282977Y757937D01*
X284786Y756128D01*
X284860Y756075D01*
X284930Y756015D01*
X284960Y756003D01*
X284986Y755984D01*
X285073Y755957D01*
X285158Y755923D01*
X285199Y755919D01*
X285221Y755912D01*
X285253Y755913D01*
X285325Y755905D01*
X312464Y755905D01*
X314891Y754899D01*
X373988Y695803D01*
X374062Y695750D01*
X374131Y695690D01*
X374161Y695678D01*
X374188Y695659D01*
X374275Y695632D01*
X374359Y695598D01*
X374400Y695594D01*
X374423Y695587D01*
X374455Y695588D01*
X374526Y695580D01*
X410893Y695580D01*
X410964Y695591D01*
X411035Y695593D01*
X411084Y695611D01*
X411136Y695619D01*
X411199Y695653D01*
X411266Y695678D01*
X411307Y695710D01*
X411353Y695735D01*
X411402Y695787D01*
X411458Y695831D01*
X411487Y695875D01*
X411523Y695913D01*
X411553Y695978D01*
X411591Y696038D01*
X411604Y696089D01*
X411626Y696136D01*
X411634Y696207D01*
X411652Y696277D01*
X411647Y696329D01*
X411653Y696380D01*
X411638Y696451D01*
X411632Y696522D01*
X411612Y696570D01*
X411601Y696621D01*
X411564Y696682D01*
X411536Y696748D01*
X411491Y696804D01*
X411475Y696832D01*
X411457Y696847D01*
X411431Y696879D01*
X409216Y699094D01*
X407669Y702829D01*
X407669Y706871D01*
X409216Y710606D01*
X412074Y713464D01*
X415809Y715011D01*
X435091Y715011D01*
X438826Y713464D01*
X441684Y710606D01*
X443231Y706871D01*
X443231Y702829D01*
X441684Y699094D01*
X438826Y696236D01*
X435091Y694689D01*
X421389Y694689D01*
X421318Y694678D01*
X421247Y694676D01*
X421198Y694658D01*
X421146Y694650D01*
X421083Y694616D01*
X421016Y694591D01*
X420975Y694559D01*
X420929Y694534D01*
X420880Y694482D01*
X420824Y694438D01*
X420795Y694394D01*
X420760Y694356D01*
X420729Y694291D01*
X420691Y694231D01*
X420678Y694180D01*
X420656Y694133D01*
X420648Y694062D01*
X420631Y693992D01*
X420635Y693940D01*
X420629Y693889D01*
X420644Y693818D01*
X420650Y693747D01*
X420670Y693699D01*
X420681Y693648D01*
X420718Y693587D01*
X420746Y693521D01*
X420791Y693465D01*
X420807Y693437D01*
X420825Y693422D01*
X420851Y693390D01*
X421631Y692609D01*
X424407Y689834D01*
X424481Y689781D01*
X424550Y689721D01*
X424580Y689709D01*
X424607Y689690D01*
X424694Y689663D01*
X424778Y689629D01*
X424819Y689625D01*
X424842Y689618D01*
X424874Y689619D01*
X424945Y689611D01*
X435091Y689611D01*
X438826Y688064D01*
X441684Y685206D01*
X443231Y681471D01*
X443231Y677429D01*
X441684Y673694D01*
X438826Y670836D01*
X435091Y669289D01*
X415809Y669289D01*
X412074Y670836D01*
X409216Y673694D01*
X407669Y677429D01*
X407669Y681609D01*
X407666Y681629D01*
X407668Y681648D01*
X407646Y681750D01*
X407630Y681852D01*
X407620Y681869D01*
X407616Y681889D01*
X407563Y681978D01*
X407514Y682069D01*
X407500Y682083D01*
X407490Y682100D01*
X407411Y682167D01*
X407336Y682239D01*
X407318Y682247D01*
X407303Y682260D01*
X407207Y682299D01*
X407113Y682342D01*
X407093Y682344D01*
X407075Y682352D01*
X406908Y682370D01*
X370161Y682370D01*
X367734Y683376D01*
X333786Y717323D01*
X333728Y717365D01*
X333676Y717414D01*
X333629Y717436D01*
X333587Y717467D01*
X333518Y717488D01*
X333453Y717518D01*
X333401Y717524D01*
X333351Y717539D01*
X333280Y717537D01*
X333209Y717545D01*
X333158Y717534D01*
X333106Y717533D01*
X333038Y717508D01*
X332968Y717493D01*
X332923Y717466D01*
X332875Y717448D01*
X332819Y717403D01*
X332757Y717367D01*
X332723Y717327D01*
X332683Y717295D01*
X332644Y717234D01*
X332597Y717180D01*
X332578Y717131D01*
X332550Y717088D01*
X332532Y717018D01*
X332505Y716952D01*
X332497Y716880D01*
X332489Y716849D01*
X332491Y716826D01*
X332487Y716785D01*
X332487Y713973D01*
X327427Y708913D01*
X320273Y708913D01*
X315213Y713973D01*
X315213Y721127D01*
X320273Y726187D01*
X323085Y726187D01*
X323156Y726198D01*
X323227Y726200D01*
X323276Y726218D01*
X323328Y726226D01*
X323391Y726260D01*
X323458Y726285D01*
X323499Y726317D01*
X323545Y726342D01*
X323594Y726394D01*
X323650Y726438D01*
X323679Y726482D01*
X323714Y726520D01*
X323745Y726585D01*
X323783Y726645D01*
X323796Y726696D01*
X323818Y726743D01*
X323826Y726814D01*
X323843Y726884D01*
X323839Y726936D01*
X323845Y726987D01*
X323830Y727058D01*
X323824Y727129D01*
X323804Y727177D01*
X323793Y727228D01*
X323756Y727289D01*
X323728Y727355D01*
X323683Y727411D01*
X323667Y727439D01*
X323649Y727454D01*
X323623Y727486D01*
X308637Y742472D01*
X308563Y742525D01*
X308494Y742585D01*
X308464Y742597D01*
X308437Y742616D01*
X308350Y742643D01*
X308266Y742677D01*
X308225Y742681D01*
X308202Y742688D01*
X308170Y742687D01*
X308099Y742695D01*
X285325Y742695D01*
X285235Y742681D01*
X285144Y742673D01*
X285114Y742661D01*
X285082Y742656D01*
X285001Y742613D01*
X284917Y742577D01*
X284885Y742551D01*
X284865Y742540D01*
X284842Y742517D01*
X284786Y742472D01*
X282977Y740663D01*
X280419Y740663D01*
X280329Y740649D01*
X280238Y740641D01*
X280208Y740629D01*
X280176Y740624D01*
X280096Y740581D01*
X280012Y740545D01*
X279980Y740519D01*
X279959Y740508D01*
X279937Y740485D01*
X279881Y740440D01*
X245041Y705601D01*
X242614Y704595D01*
X230160Y704595D01*
X230070Y704581D01*
X229979Y704573D01*
X229950Y704561D01*
X229918Y704556D01*
X229837Y704513D01*
X229753Y704477D01*
X229721Y704451D01*
X229700Y704440D01*
X229678Y704417D01*
X229622Y704372D01*
X228860Y703610D01*
X228818Y703552D01*
X228769Y703500D01*
X228747Y703453D01*
X228716Y703411D01*
X228695Y703342D01*
X228665Y703277D01*
X228659Y703225D01*
X228644Y703175D01*
X228646Y703104D01*
X228638Y703033D01*
X228649Y702982D01*
X228650Y702930D01*
X228675Y702862D01*
X228690Y702792D01*
X228717Y702748D01*
X228735Y702699D01*
X228780Y702643D01*
X228816Y702581D01*
X228856Y702547D01*
X228889Y702507D01*
X228949Y702468D01*
X229003Y702421D01*
X229052Y702402D01*
X229096Y702374D01*
X229165Y702356D01*
X229232Y702329D01*
X229303Y702321D01*
X229334Y702313D01*
X229357Y702315D01*
X229398Y702311D01*
X268278Y702311D01*
X362938Y607651D01*
X363033Y607583D01*
X363127Y607513D01*
X363133Y607511D01*
X363138Y607508D01*
X363250Y607473D01*
X363361Y607437D01*
X363367Y607437D01*
X363373Y607435D01*
X363490Y607439D01*
X363607Y607440D01*
X363614Y607442D01*
X363615Y607442D01*
X366590Y607442D01*
X369298Y606320D01*
X371370Y604248D01*
X372492Y601540D01*
X372492Y598610D01*
X371370Y595902D01*
X371128Y595660D01*
X371087Y595602D01*
X371037Y595550D01*
X371015Y595503D01*
X370985Y595461D01*
X370964Y595392D01*
X370934Y595327D01*
X370928Y595275D01*
X370912Y595225D01*
X370914Y595154D01*
X370906Y595083D01*
X370918Y595032D01*
X370919Y594980D01*
X370943Y594912D01*
X370959Y594842D01*
X370985Y594797D01*
X371003Y594749D01*
X371048Y594693D01*
X371085Y594631D01*
X371124Y594597D01*
X371157Y594557D01*
X371217Y594518D01*
X371272Y594471D01*
X371320Y594452D01*
X371364Y594424D01*
X371433Y594406D01*
X371500Y594379D01*
X371571Y594371D01*
X371602Y594363D01*
X371626Y594365D01*
X371667Y594361D01*
X388631Y594361D01*
X388721Y594375D01*
X388812Y594383D01*
X388842Y594395D01*
X388874Y594400D01*
X388955Y594443D01*
X389039Y594479D01*
X389071Y594505D01*
X389091Y594516D01*
X389114Y594539D01*
X389170Y594584D01*
X389666Y595080D01*
X389666Y595081D01*
X392122Y597536D01*
X409021Y597536D01*
X409136Y597554D01*
X409252Y597572D01*
X409258Y597574D01*
X409264Y597575D01*
X409366Y597630D01*
X409471Y597683D01*
X409476Y597688D01*
X409481Y597691D01*
X409562Y597775D01*
X409644Y597859D01*
X409647Y597865D01*
X409648Y597866D01*
X411752Y599970D01*
X414460Y601092D01*
X417390Y601092D01*
X420098Y599970D01*
X422170Y597898D01*
X423292Y595190D01*
X423292Y592260D01*
X422170Y589552D01*
X420098Y587480D01*
X417390Y586358D01*
X414460Y586358D01*
X411752Y587480D01*
X409625Y589607D01*
X409603Y589644D01*
X409598Y589648D01*
X409595Y589653D01*
X409505Y589727D01*
X409416Y589804D01*
X409410Y589806D01*
X409405Y589810D01*
X409297Y589852D01*
X409188Y589896D01*
X409180Y589897D01*
X409176Y589898D01*
X409158Y589899D01*
X409021Y589914D01*
X403417Y589914D01*
X403346Y589903D01*
X403274Y589901D01*
X403225Y589883D01*
X403174Y589875D01*
X403111Y589841D01*
X403043Y589816D01*
X403003Y589784D01*
X402957Y589759D01*
X402907Y589708D01*
X402851Y589663D01*
X402823Y589619D01*
X402787Y589581D01*
X402757Y589516D01*
X402718Y589456D01*
X402705Y589405D01*
X402684Y589358D01*
X402676Y589287D01*
X402658Y589217D01*
X402662Y589165D01*
X402656Y589114D01*
X402672Y589043D01*
X402677Y588972D01*
X402698Y588924D01*
X402709Y588873D01*
X402746Y588812D01*
X402774Y588746D01*
X402818Y588690D01*
X402835Y588662D01*
X402853Y588647D01*
X402878Y588615D01*
X403120Y588373D01*
X404242Y585665D01*
X404242Y582735D01*
X403120Y580027D01*
X402562Y579469D01*
X402506Y579390D01*
X402444Y579315D01*
X402434Y579291D01*
X402419Y579270D01*
X402390Y579177D01*
X402355Y579086D01*
X402354Y579060D01*
X402347Y579035D01*
X402349Y578937D01*
X402345Y578840D01*
X402352Y578815D01*
X402353Y578789D01*
X402386Y578697D01*
X402414Y578604D01*
X402428Y578582D01*
X402437Y578558D01*
X402498Y578482D01*
X402554Y578402D01*
X402575Y578386D01*
X402591Y578366D01*
X402673Y578313D01*
X402751Y578255D01*
X402776Y578247D01*
X402798Y578233D01*
X402892Y578209D01*
X402985Y578179D01*
X403011Y578179D01*
X403037Y578173D01*
X403134Y578180D01*
X403231Y578181D01*
X403262Y578190D01*
X403282Y578192D01*
X403312Y578205D01*
X403392Y578228D01*
X404935Y578867D01*
X407865Y578867D01*
X410573Y577745D01*
X412645Y575673D01*
X413767Y572965D01*
X413767Y570035D01*
X412645Y567327D01*
X410573Y565255D01*
X407865Y564133D01*
X404935Y564133D01*
X402227Y565255D01*
X400100Y567382D01*
X400078Y567419D01*
X400073Y567423D01*
X400070Y567428D01*
X399980Y567502D01*
X399891Y567579D01*
X399885Y567581D01*
X399880Y567585D01*
X399772Y567627D01*
X399663Y567671D01*
X399655Y567672D01*
X399651Y567673D01*
X399633Y567674D01*
X399496Y567689D01*
X229398Y567689D01*
X229328Y567678D01*
X229256Y567676D01*
X229207Y567658D01*
X229156Y567650D01*
X229092Y567616D01*
X229025Y567591D01*
X228984Y567559D01*
X228938Y567534D01*
X228889Y567482D01*
X228833Y567438D01*
X228805Y567394D01*
X228769Y567356D01*
X228739Y567291D01*
X228700Y567231D01*
X228687Y567180D01*
X228665Y567133D01*
X228657Y567062D01*
X228640Y566992D01*
X228644Y566940D01*
X228638Y566889D01*
X228653Y566818D01*
X228659Y566747D01*
X228679Y566699D01*
X228690Y566648D01*
X228727Y566587D01*
X228755Y566521D01*
X228800Y566465D01*
X228816Y566437D01*
X228834Y566422D01*
X228860Y566390D01*
X230762Y564488D01*
X232291Y560797D01*
X232291Y556803D01*
X230762Y553112D01*
X227938Y550288D01*
X224247Y548759D01*
X220253Y548759D01*
X216562Y550288D01*
X213738Y553112D01*
X212209Y556803D01*
X212209Y560797D01*
X213738Y564488D01*
X216630Y567380D01*
X216646Y567390D01*
X216675Y567425D01*
X216711Y567454D01*
X216753Y567519D01*
X216803Y567579D01*
X216819Y567622D01*
X216844Y567661D01*
X216863Y567736D01*
X216891Y567809D01*
X216893Y567855D01*
X216904Y567899D01*
X216898Y567977D01*
X216902Y568055D01*
X216889Y568099D01*
X216885Y568145D01*
X216855Y568216D01*
X216833Y568291D01*
X216807Y568329D01*
X216789Y568371D01*
X216703Y568478D01*
X216693Y568493D01*
X216689Y568496D01*
X216684Y568502D01*
X215041Y570144D01*
X192319Y592866D01*
X192246Y592919D01*
X192176Y592979D01*
X192146Y592991D01*
X192120Y593010D01*
X192033Y593037D01*
X191948Y593071D01*
X191907Y593075D01*
X191885Y593082D01*
X191852Y593081D01*
X191781Y593089D01*
X51598Y593089D01*
X51528Y593078D01*
X51456Y593076D01*
X51407Y593058D01*
X51356Y593050D01*
X51292Y593016D01*
X51225Y592991D01*
X51184Y592959D01*
X51138Y592934D01*
X51089Y592882D01*
X51033Y592838D01*
X51005Y592794D01*
X50969Y592756D01*
X50939Y592691D01*
X50900Y592631D01*
X50887Y592580D01*
X50865Y592533D01*
X50857Y592462D01*
X50840Y592392D01*
X50844Y592340D01*
X50838Y592289D01*
X50853Y592218D01*
X50859Y592147D01*
X50879Y592099D01*
X50890Y592048D01*
X50927Y591987D01*
X50955Y591921D01*
X51000Y591865D01*
X51016Y591837D01*
X51034Y591822D01*
X51060Y591790D01*
X52962Y589888D01*
X54491Y586197D01*
X54491Y582203D01*
X53908Y580796D01*
X53881Y580682D01*
X53853Y580569D01*
X53853Y580562D01*
X53852Y580556D01*
X53863Y580440D01*
X53872Y580323D01*
X53874Y580318D01*
X53875Y580311D01*
X53923Y580203D01*
X53968Y580097D01*
X53973Y580091D01*
X53975Y580087D01*
X53988Y580073D01*
X54073Y579966D01*
X134706Y499334D01*
X134779Y499281D01*
X134849Y499221D01*
X134879Y499209D01*
X134905Y499190D01*
X134992Y499163D01*
X135077Y499129D01*
X135118Y499125D01*
X135140Y499118D01*
X135173Y499119D01*
X135244Y499111D01*
X215102Y499111D01*
X215172Y499122D01*
X215244Y499124D01*
X215293Y499142D01*
X215344Y499150D01*
X215408Y499184D01*
X215475Y499209D01*
X215516Y499241D01*
X215562Y499266D01*
X215611Y499318D01*
X215667Y499362D01*
X215695Y499406D01*
X215731Y499444D01*
X215761Y499509D01*
X215800Y499569D01*
X215813Y499620D01*
X215835Y499667D01*
X215843Y499738D01*
X215860Y499808D01*
X215856Y499860D01*
X215862Y499911D01*
X215847Y499982D01*
X215841Y500053D01*
X215821Y500101D01*
X215810Y500152D01*
X215773Y500213D01*
X215745Y500279D01*
X215700Y500335D01*
X215684Y500363D01*
X215666Y500378D01*
X215640Y500410D01*
X214591Y501459D01*
X213662Y502737D01*
X212945Y504146D01*
X212456Y505649D01*
X212325Y506477D01*
X221488Y506477D01*
X221508Y506480D01*
X221527Y506478D01*
X221629Y506500D01*
X221731Y506517D01*
X221748Y506526D01*
X221768Y506530D01*
X221857Y506583D01*
X221948Y506632D01*
X221962Y506646D01*
X221979Y506656D01*
X222046Y506735D01*
X222117Y506810D01*
X222126Y506828D01*
X222139Y506843D01*
X222177Y506939D01*
X222221Y507033D01*
X222223Y507053D01*
X222231Y507071D01*
X222249Y507238D01*
X222249Y508001D01*
X222251Y508001D01*
X222251Y507238D01*
X222254Y507218D01*
X222252Y507199D01*
X222274Y507097D01*
X222291Y506995D01*
X222300Y506978D01*
X222304Y506958D01*
X222357Y506869D01*
X222406Y506778D01*
X222420Y506764D01*
X222430Y506747D01*
X222509Y506680D01*
X222584Y506609D01*
X222602Y506600D01*
X222617Y506587D01*
X222713Y506548D01*
X222807Y506505D01*
X222827Y506503D01*
X222845Y506495D01*
X223012Y506477D01*
X232175Y506477D01*
X232044Y505649D01*
X231555Y504146D01*
X230838Y502737D01*
X229909Y501459D01*
X228860Y500410D01*
X228818Y500352D01*
X228769Y500300D01*
X228747Y500253D01*
X228716Y500211D01*
X228695Y500142D01*
X228665Y500077D01*
X228659Y500025D01*
X228644Y499975D01*
X228646Y499904D01*
X228638Y499833D01*
X228649Y499782D01*
X228650Y499730D01*
X228675Y499662D01*
X228690Y499592D01*
X228717Y499547D01*
X228735Y499499D01*
X228780Y499443D01*
X228816Y499381D01*
X228856Y499347D01*
X228889Y499307D01*
X228949Y499268D01*
X229003Y499221D01*
X229052Y499202D01*
X229096Y499174D01*
X229165Y499156D01*
X229232Y499129D01*
X229303Y499121D01*
X229334Y499113D01*
X229357Y499115D01*
X229398Y499111D01*
X453471Y499111D01*
X453586Y499129D01*
X453702Y499147D01*
X453708Y499149D01*
X453714Y499150D01*
X453816Y499205D01*
X453921Y499258D01*
X453926Y499263D01*
X453931Y499266D01*
X454012Y499350D01*
X454094Y499434D01*
X454097Y499440D01*
X454098Y499441D01*
X456202Y501545D01*
X458910Y502667D01*
X461840Y502667D01*
X464548Y501545D01*
X466620Y499473D01*
X467742Y496765D01*
X467742Y493835D01*
X466620Y491127D01*
X464548Y489055D01*
X461840Y487933D01*
X458910Y487933D01*
X456202Y489055D01*
X454075Y491182D01*
X454053Y491219D01*
X454048Y491223D01*
X454045Y491228D01*
X453955Y491302D01*
X453866Y491379D01*
X453860Y491381D01*
X453855Y491385D01*
X453747Y491427D01*
X453638Y491471D01*
X453630Y491472D01*
X453626Y491473D01*
X453608Y491474D01*
X453471Y491489D01*
X229398Y491489D01*
X229328Y491478D01*
X229256Y491476D01*
X229207Y491458D01*
X229156Y491450D01*
X229092Y491416D01*
X229025Y491391D01*
X228984Y491359D01*
X228938Y491334D01*
X228889Y491282D01*
X228833Y491238D01*
X228805Y491194D01*
X228769Y491156D01*
X228739Y491091D01*
X228700Y491031D01*
X228687Y490980D01*
X228665Y490933D01*
X228657Y490862D01*
X228640Y490792D01*
X228644Y490740D01*
X228638Y490689D01*
X228653Y490618D01*
X228659Y490547D01*
X228679Y490499D01*
X228690Y490448D01*
X228727Y490387D01*
X228755Y490321D01*
X228800Y490265D01*
X228816Y490237D01*
X228834Y490222D01*
X228860Y490190D01*
X230762Y488288D01*
X232291Y484597D01*
X232291Y480603D01*
X231708Y479196D01*
X231699Y479159D01*
X231692Y479144D01*
X231689Y479116D01*
X231681Y479082D01*
X231653Y478969D01*
X231653Y478962D01*
X231652Y478956D01*
X231663Y478840D01*
X231672Y478724D01*
X231674Y478718D01*
X231675Y478711D01*
X231723Y478604D01*
X231768Y478497D01*
X231773Y478491D01*
X231775Y478487D01*
X231788Y478473D01*
X231873Y478366D01*
X242656Y467584D01*
X242729Y467531D01*
X242799Y467471D01*
X242829Y467459D01*
X242855Y467440D01*
X242942Y467413D01*
X243027Y467379D01*
X243068Y467375D01*
X243090Y467368D01*
X243123Y467369D01*
X243194Y467361D01*
X374096Y467361D01*
X374211Y467379D01*
X374327Y467397D01*
X374333Y467399D01*
X374339Y467400D01*
X374441Y467455D01*
X374546Y467508D01*
X374551Y467513D01*
X374556Y467516D01*
X374637Y467600D01*
X374719Y467684D01*
X374722Y467690D01*
X374723Y467691D01*
X376827Y469795D01*
X379535Y470917D01*
X382465Y470917D01*
X385173Y469795D01*
X387245Y467723D01*
X388367Y465015D01*
X388367Y462085D01*
X387245Y459377D01*
X385173Y457305D01*
X382465Y456183D01*
X379535Y456183D01*
X376827Y457305D01*
X374700Y459432D01*
X374678Y459469D01*
X374673Y459473D01*
X374670Y459478D01*
X374580Y459552D01*
X374491Y459629D01*
X374485Y459631D01*
X374480Y459635D01*
X374372Y459677D01*
X374263Y459721D01*
X374255Y459722D01*
X374251Y459723D01*
X374233Y459724D01*
X374096Y459739D01*
X371667Y459739D01*
X371596Y459728D01*
X371524Y459726D01*
X371475Y459708D01*
X371424Y459700D01*
X371361Y459666D01*
X371293Y459641D01*
X371253Y459609D01*
X371207Y459584D01*
X371157Y459533D01*
X371101Y459488D01*
X371073Y459444D01*
X371037Y459406D01*
X371007Y459341D01*
X370968Y459281D01*
X370955Y459230D01*
X370934Y459183D01*
X370926Y459112D01*
X370908Y459042D01*
X370912Y458990D01*
X370906Y458939D01*
X370922Y458868D01*
X370927Y458797D01*
X370948Y458749D01*
X370959Y458698D01*
X370996Y458637D01*
X371024Y458571D01*
X371068Y458515D01*
X371085Y458487D01*
X371103Y458472D01*
X371128Y458440D01*
X371370Y458198D01*
X372492Y455490D01*
X372492Y452560D01*
X371370Y449852D01*
X371128Y449610D01*
X371087Y449552D01*
X371037Y449500D01*
X371015Y449453D01*
X370985Y449411D01*
X370964Y449342D01*
X370934Y449277D01*
X370928Y449225D01*
X370912Y449175D01*
X370914Y449104D01*
X370906Y449033D01*
X370918Y448982D01*
X370919Y448930D01*
X370943Y448862D01*
X370959Y448792D01*
X370985Y448747D01*
X371003Y448699D01*
X371048Y448643D01*
X371085Y448581D01*
X371124Y448547D01*
X371157Y448507D01*
X371217Y448468D01*
X371272Y448421D01*
X371320Y448402D01*
X371364Y448374D01*
X371433Y448356D01*
X371500Y448329D01*
X371571Y448321D01*
X371602Y448313D01*
X371626Y448315D01*
X371667Y448311D01*
X452131Y448311D01*
X452221Y448325D01*
X452312Y448333D01*
X452342Y448345D01*
X452374Y448350D01*
X452455Y448393D01*
X452539Y448429D01*
X452571Y448455D01*
X452591Y448466D01*
X452614Y448489D01*
X452669Y448534D01*
X461972Y457836D01*
X586821Y457836D01*
X586936Y457854D01*
X587052Y457872D01*
X587058Y457874D01*
X587064Y457875D01*
X587166Y457930D01*
X587271Y457983D01*
X587276Y457988D01*
X587281Y457991D01*
X587362Y458075D01*
X587444Y458159D01*
X587447Y458165D01*
X587448Y458166D01*
X589552Y460270D01*
X592260Y461392D01*
X595190Y461392D01*
X597898Y460270D01*
X599970Y458198D01*
X601092Y455490D01*
X601092Y452560D01*
X599970Y449852D01*
X597898Y447780D01*
X595190Y446658D01*
X592260Y446658D01*
X589552Y447780D01*
X587425Y449907D01*
X587403Y449944D01*
X587398Y449948D01*
X587395Y449953D01*
X587305Y450027D01*
X587216Y450104D01*
X587210Y450106D01*
X587205Y450110D01*
X587097Y450152D01*
X586988Y450196D01*
X586980Y450197D01*
X586976Y450198D01*
X586958Y450199D01*
X586821Y450214D01*
X500222Y450214D01*
X500175Y450207D01*
X500127Y450208D01*
X500054Y450187D01*
X499979Y450175D01*
X499937Y450152D01*
X499891Y450138D01*
X499829Y450095D01*
X499762Y450059D01*
X499729Y450025D01*
X499690Y449997D01*
X499645Y449936D01*
X499593Y449881D01*
X499572Y449838D01*
X499544Y449799D01*
X499521Y449727D01*
X499489Y449658D01*
X499484Y449610D01*
X499469Y449565D01*
X499470Y449489D01*
X499462Y449414D01*
X499472Y449367D01*
X499473Y449319D01*
X499498Y449247D01*
X499514Y449173D01*
X499539Y449132D01*
X499555Y449087D01*
X499602Y449027D01*
X499640Y448962D01*
X499677Y448931D01*
X499706Y448893D01*
X499810Y448817D01*
X499827Y448802D01*
X499833Y448800D01*
X499842Y448794D01*
X506384Y445016D01*
X513596Y437804D01*
X518696Y428971D01*
X521336Y419120D01*
X521336Y408920D01*
X518696Y399069D01*
X513596Y390236D01*
X506384Y383024D01*
X497551Y377924D01*
X487700Y375284D01*
X477500Y375284D01*
X467683Y377915D01*
X467636Y377920D01*
X467590Y377934D01*
X467514Y377932D01*
X467439Y377939D01*
X467392Y377928D01*
X467344Y377927D01*
X467273Y377901D01*
X467199Y377884D01*
X467158Y377859D01*
X467113Y377843D01*
X467054Y377795D01*
X466989Y377756D01*
X466958Y377719D01*
X466921Y377689D01*
X466880Y377625D01*
X466831Y377567D01*
X466814Y377523D01*
X466788Y377482D01*
X466769Y377409D01*
X466742Y377338D01*
X466740Y377290D01*
X466728Y377244D01*
X466734Y377168D01*
X466730Y377092D01*
X466743Y377046D01*
X466747Y376998D01*
X466777Y376929D01*
X466797Y376856D01*
X466825Y376816D01*
X466843Y376772D01*
X466924Y376671D01*
X466936Y376653D01*
X466942Y376649D01*
X466948Y376641D01*
X477606Y365984D01*
X477679Y365931D01*
X477749Y365871D01*
X477779Y365859D01*
X477805Y365840D01*
X477892Y365813D01*
X477977Y365779D01*
X478018Y365775D01*
X478040Y365768D01*
X478073Y365769D01*
X478144Y365761D01*
X566337Y365761D01*
X566408Y365772D01*
X566480Y365774D01*
X566529Y365792D01*
X566580Y365800D01*
X566643Y365834D01*
X566711Y365859D01*
X566751Y365891D01*
X566797Y365916D01*
X566847Y365968D01*
X566903Y366012D01*
X566931Y366056D01*
X566967Y366094D01*
X566997Y366159D01*
X567036Y366219D01*
X567048Y366270D01*
X567070Y366317D01*
X567078Y366388D01*
X567096Y366458D01*
X567092Y366510D01*
X567098Y366561D01*
X567082Y366632D01*
X567077Y366703D01*
X567056Y366751D01*
X567045Y366802D01*
X567008Y366863D01*
X566980Y366929D01*
X566936Y366985D01*
X566919Y367013D01*
X566901Y367028D01*
X566876Y367060D01*
X562863Y371073D01*
X562863Y378227D01*
X567923Y383287D01*
X575077Y383287D01*
X576886Y381478D01*
X576960Y381425D01*
X577030Y381365D01*
X577060Y381353D01*
X577086Y381334D01*
X577173Y381307D01*
X577258Y381273D01*
X577299Y381269D01*
X577321Y381262D01*
X577353Y381263D01*
X577425Y381255D01*
X587502Y381255D01*
X587522Y381258D01*
X587541Y381256D01*
X587643Y381278D01*
X587745Y381294D01*
X587762Y381304D01*
X587782Y381308D01*
X587871Y381361D01*
X587962Y381410D01*
X587976Y381424D01*
X587993Y381434D01*
X588060Y381513D01*
X588132Y381588D01*
X588140Y381606D01*
X588153Y381621D01*
X588192Y381717D01*
X588235Y381811D01*
X588237Y381831D01*
X588245Y381849D01*
X588263Y382016D01*
X588263Y382464D01*
X589578Y385638D01*
X592008Y388068D01*
X595182Y389383D01*
X598701Y389383D01*
X598728Y389376D01*
X598734Y389376D01*
X598740Y389375D01*
X598857Y389386D01*
X598973Y389395D01*
X598979Y389397D01*
X598985Y389398D01*
X599093Y389446D01*
X599200Y389491D01*
X599205Y389496D01*
X599210Y389498D01*
X599224Y389511D01*
X599331Y389596D01*
X618922Y409187D01*
X618934Y409204D01*
X618949Y409216D01*
X619005Y409303D01*
X619065Y409387D01*
X619071Y409406D01*
X619082Y409423D01*
X619107Y409523D01*
X619138Y409622D01*
X619137Y409642D01*
X619142Y409661D01*
X619134Y409764D01*
X619131Y409868D01*
X619125Y409887D01*
X619123Y409907D01*
X619083Y410001D01*
X619047Y410099D01*
X619034Y410115D01*
X619027Y410133D01*
X618922Y410264D01*
X613663Y415523D01*
X613663Y422677D01*
X618723Y427737D01*
X625877Y427737D01*
X630937Y422677D01*
X630937Y415523D01*
X629718Y414304D01*
X629677Y414246D01*
X629627Y414194D01*
X629605Y414147D01*
X629575Y414105D01*
X629554Y414036D01*
X629524Y413971D01*
X629518Y413919D01*
X629503Y413869D01*
X629504Y413798D01*
X629496Y413727D01*
X629508Y413676D01*
X629509Y413624D01*
X629534Y413556D01*
X629549Y413486D01*
X629575Y413441D01*
X629593Y413393D01*
X629638Y413337D01*
X629675Y413275D01*
X629714Y413241D01*
X629747Y413201D01*
X629807Y413162D01*
X629862Y413115D01*
X629910Y413096D01*
X629954Y413068D01*
X630023Y413050D01*
X630090Y413023D01*
X630161Y413015D01*
X630192Y413007D01*
X630216Y413009D01*
X630257Y413005D01*
X682749Y413005D01*
X682839Y413019D01*
X682930Y413027D01*
X682960Y413039D01*
X682992Y413044D01*
X683072Y413087D01*
X683156Y413123D01*
X683188Y413149D01*
X683209Y413160D01*
X683231Y413183D01*
X683287Y413228D01*
X689640Y419581D01*
X689693Y419655D01*
X689753Y419724D01*
X689765Y419754D01*
X689784Y419781D01*
X689811Y419868D01*
X689845Y419952D01*
X689849Y419993D01*
X689856Y420016D01*
X689855Y420048D01*
X689863Y420119D01*
X689863Y422677D01*
X694923Y427737D01*
X702077Y427737D01*
X707137Y422677D01*
X707137Y415523D01*
X702077Y410463D01*
X699519Y410463D01*
X699429Y410449D01*
X699338Y410441D01*
X699308Y410429D01*
X699276Y410424D01*
X699196Y410381D01*
X699112Y410345D01*
X699080Y410319D01*
X699059Y410308D01*
X699037Y410285D01*
X698981Y410240D01*
X689541Y400801D01*
X687114Y399795D01*
X628526Y399795D01*
X628436Y399781D01*
X628345Y399773D01*
X628315Y399761D01*
X628283Y399756D01*
X628203Y399713D01*
X628119Y399677D01*
X628087Y399651D01*
X628066Y399640D01*
X628044Y399617D01*
X628041Y399615D01*
X628039Y399614D01*
X628038Y399613D01*
X627988Y399572D01*
X618536Y390120D01*
X618479Y390041D01*
X618417Y389966D01*
X618408Y389942D01*
X618392Y389921D01*
X618364Y389828D01*
X618329Y389737D01*
X618328Y389711D01*
X618320Y389686D01*
X618323Y389588D01*
X618318Y389491D01*
X618326Y389466D01*
X618326Y389440D01*
X618360Y389348D01*
X618387Y389255D01*
X618402Y389233D01*
X618411Y389209D01*
X618472Y389132D01*
X618527Y389053D01*
X618548Y389037D01*
X618565Y389017D01*
X618647Y388964D01*
X618725Y388906D01*
X618749Y388898D01*
X618771Y388884D01*
X618866Y388860D01*
X618958Y388830D01*
X618985Y388830D01*
X619010Y388824D01*
X619107Y388831D01*
X619204Y388832D01*
X619236Y388841D01*
X619255Y388843D01*
X619285Y388856D01*
X619366Y388879D01*
X620582Y389383D01*
X624018Y389383D01*
X627192Y388068D01*
X629622Y385638D01*
X630937Y382464D01*
X630937Y366836D01*
X629622Y363662D01*
X627192Y361232D01*
X624018Y359917D01*
X620582Y359917D01*
X617408Y361232D01*
X614978Y363662D01*
X613663Y366836D01*
X613663Y382464D01*
X614167Y383680D01*
X614189Y383775D01*
X614218Y383868D01*
X614217Y383895D01*
X614223Y383920D01*
X614214Y384017D01*
X614212Y384114D01*
X614203Y384139D01*
X614200Y384165D01*
X614161Y384254D01*
X614127Y384345D01*
X614111Y384366D01*
X614100Y384390D01*
X614034Y384461D01*
X613974Y384537D01*
X613952Y384551D01*
X613934Y384571D01*
X613849Y384618D01*
X613767Y384670D01*
X613741Y384677D01*
X613718Y384689D01*
X613622Y384707D01*
X613528Y384730D01*
X613502Y384728D01*
X613476Y384733D01*
X613380Y384719D01*
X613283Y384711D01*
X613259Y384701D01*
X613233Y384697D01*
X613146Y384653D01*
X613057Y384615D01*
X613031Y384595D01*
X613014Y384586D01*
X612991Y384562D01*
X612926Y384510D01*
X605760Y377344D01*
X605707Y377270D01*
X605647Y377201D01*
X605635Y377171D01*
X605616Y377144D01*
X605589Y377057D01*
X605555Y376973D01*
X605551Y376932D01*
X605544Y376909D01*
X605545Y376877D01*
X605537Y376806D01*
X605537Y366836D01*
X604222Y363662D01*
X601792Y361232D01*
X598618Y359917D01*
X596635Y359917D01*
X596564Y359906D01*
X596492Y359904D01*
X596443Y359886D01*
X596392Y359878D01*
X596329Y359844D01*
X596261Y359819D01*
X596221Y359787D01*
X596175Y359762D01*
X596125Y359710D01*
X596069Y359666D01*
X596041Y359622D01*
X596005Y359584D01*
X595975Y359519D01*
X595936Y359459D01*
X595924Y359408D01*
X595902Y359361D01*
X595894Y359290D01*
X595876Y359220D01*
X595880Y359168D01*
X595875Y359117D01*
X595890Y359046D01*
X595895Y358975D01*
X595916Y358927D01*
X595927Y358876D01*
X595964Y358815D01*
X595992Y358749D01*
X596036Y358693D01*
X596053Y358665D01*
X596071Y358650D01*
X596096Y358618D01*
X610956Y343759D01*
X611029Y343706D01*
X611099Y343646D01*
X611129Y343634D01*
X611155Y343615D01*
X611242Y343588D01*
X611327Y343554D01*
X611368Y343550D01*
X611390Y343543D01*
X611423Y343544D01*
X611494Y343536D01*
X621746Y343536D01*
X621861Y343554D01*
X621977Y343572D01*
X621983Y343574D01*
X621989Y343575D01*
X622091Y343630D01*
X622196Y343683D01*
X622201Y343688D01*
X622206Y343691D01*
X622287Y343775D01*
X622369Y343859D01*
X622372Y343865D01*
X622373Y343866D01*
X624477Y345970D01*
X627185Y347092D01*
X630115Y347092D01*
X632823Y345970D01*
X634895Y343898D01*
X636017Y341190D01*
X636017Y338260D01*
X634895Y335552D01*
X634653Y335310D01*
X634612Y335252D01*
X634562Y335200D01*
X634540Y335153D01*
X634510Y335111D01*
X634489Y335042D01*
X634459Y334977D01*
X634453Y334925D01*
X634437Y334875D01*
X634439Y334804D01*
X634431Y334733D01*
X634443Y334682D01*
X634444Y334630D01*
X634468Y334562D01*
X634484Y334492D01*
X634510Y334447D01*
X634528Y334399D01*
X634573Y334343D01*
X634610Y334281D01*
X634649Y334247D01*
X634682Y334207D01*
X634742Y334168D01*
X634797Y334121D01*
X634845Y334102D01*
X634889Y334074D01*
X634958Y334056D01*
X635025Y334029D01*
X635096Y334021D01*
X635127Y334013D01*
X635151Y334015D01*
X635192Y334011D01*
X702956Y334011D01*
X703046Y334025D01*
X703137Y334033D01*
X703167Y334045D01*
X703199Y334050D01*
X703280Y334093D01*
X703364Y334129D01*
X703396Y334155D01*
X703416Y334166D01*
X703439Y334189D01*
X703494Y334234D01*
X728989Y359729D01*
X729046Y359808D01*
X729108Y359883D01*
X729118Y359907D01*
X729133Y359928D01*
X729161Y360021D01*
X729196Y360112D01*
X729198Y360138D01*
X729205Y360163D01*
X729203Y360261D01*
X729207Y360358D01*
X729200Y360383D01*
X729199Y360409D01*
X729165Y360501D01*
X729138Y360594D01*
X729123Y360616D01*
X729114Y360640D01*
X729054Y360716D01*
X728998Y360796D01*
X728977Y360812D01*
X728961Y360832D01*
X728879Y360885D01*
X728801Y360943D01*
X728776Y360951D01*
X728754Y360965D01*
X728659Y360989D01*
X728567Y361019D01*
X728541Y361019D01*
X728515Y361025D01*
X728418Y361018D01*
X728321Y361017D01*
X728289Y361008D01*
X728270Y361006D01*
X728240Y360993D01*
X728160Y360970D01*
X725618Y359917D01*
X722182Y359917D01*
X719008Y361232D01*
X716578Y363662D01*
X715263Y366836D01*
X715263Y382464D01*
X716578Y385638D01*
X719008Y388068D01*
X722182Y389383D01*
X725618Y389383D01*
X728792Y388068D01*
X731222Y385638D01*
X732537Y382464D01*
X732537Y366836D01*
X731484Y364294D01*
X731462Y364199D01*
X731433Y364106D01*
X731434Y364080D01*
X731428Y364055D01*
X731437Y363958D01*
X731439Y363861D01*
X731448Y363836D01*
X731451Y363810D01*
X731490Y363721D01*
X731524Y363630D01*
X731540Y363609D01*
X731551Y363585D01*
X731617Y363513D01*
X731678Y363437D01*
X731700Y363423D01*
X731717Y363404D01*
X731803Y363357D01*
X731884Y363304D01*
X731910Y363298D01*
X731933Y363285D01*
X732029Y363268D01*
X732123Y363244D01*
X732149Y363246D01*
X732175Y363242D01*
X732271Y363256D01*
X732368Y363264D01*
X732392Y363274D01*
X732418Y363278D01*
X732505Y363322D01*
X732595Y363360D01*
X732620Y363380D01*
X732637Y363389D01*
X732661Y363413D01*
X732725Y363465D01*
X740440Y371180D01*
X740493Y371253D01*
X740553Y371323D01*
X740565Y371353D01*
X740584Y371379D01*
X740611Y371466D01*
X740645Y371551D01*
X740649Y371592D01*
X740656Y371614D01*
X740655Y371647D01*
X740663Y371718D01*
X740663Y382464D01*
X741978Y385638D01*
X744408Y388068D01*
X747582Y389383D01*
X751018Y389383D01*
X754192Y388068D01*
X756622Y385638D01*
X757937Y382464D01*
X757937Y366836D01*
X756622Y363662D01*
X754192Y361232D01*
X751018Y359917D01*
X747582Y359917D01*
X744408Y361232D01*
X743378Y362262D01*
X743362Y362274D01*
X743349Y362289D01*
X743277Y362336D01*
X743252Y362357D01*
X743237Y362363D01*
X743178Y362406D01*
X743159Y362411D01*
X743142Y362422D01*
X743042Y362447D01*
X742943Y362478D01*
X742923Y362477D01*
X742904Y362482D01*
X742801Y362474D01*
X742697Y362472D01*
X742678Y362465D01*
X742659Y362463D01*
X742564Y362423D01*
X742466Y362387D01*
X742450Y362375D01*
X742432Y362367D01*
X742370Y362317D01*
X742362Y362313D01*
X742354Y362304D01*
X742301Y362262D01*
X706428Y326389D01*
X557222Y326389D01*
X544744Y338866D01*
X544671Y338919D01*
X544601Y338979D01*
X544571Y338991D01*
X544545Y339010D01*
X544458Y339037D01*
X544373Y339071D01*
X544332Y339075D01*
X544310Y339082D01*
X544277Y339081D01*
X544206Y339089D01*
X499622Y339089D01*
X499526Y339074D01*
X499429Y339064D01*
X499405Y339054D01*
X499379Y339050D01*
X499293Y339004D01*
X499204Y338964D01*
X499185Y338947D01*
X499162Y338934D01*
X499095Y338864D01*
X499023Y338798D01*
X499011Y338775D01*
X498993Y338756D01*
X498952Y338668D01*
X498905Y338582D01*
X498900Y338557D01*
X498889Y338533D01*
X498878Y338436D01*
X498861Y338340D01*
X498865Y338314D01*
X498862Y338289D01*
X498883Y338193D01*
X498897Y338097D01*
X498909Y338074D01*
X498914Y338048D01*
X498964Y337964D01*
X499008Y337878D01*
X499027Y337860D01*
X499040Y337837D01*
X499114Y337774D01*
X499184Y337706D01*
X499212Y337690D01*
X499227Y337677D01*
X499258Y337665D01*
X499331Y337625D01*
X500192Y337268D01*
X502622Y334838D01*
X503937Y331664D01*
X503937Y316036D01*
X502622Y312862D01*
X500192Y310432D01*
X497018Y309117D01*
X493582Y309117D01*
X490408Y310432D01*
X487978Y312862D01*
X486663Y316036D01*
X486663Y331664D01*
X487978Y334838D01*
X490408Y337268D01*
X491269Y337625D01*
X491352Y337676D01*
X491438Y337722D01*
X491456Y337741D01*
X491478Y337754D01*
X491540Y337829D01*
X491607Y337900D01*
X491618Y337924D01*
X491635Y337944D01*
X491670Y338035D01*
X491711Y338123D01*
X491714Y338149D01*
X491723Y338173D01*
X491727Y338271D01*
X491738Y338367D01*
X491733Y338393D01*
X491734Y338419D01*
X491707Y338513D01*
X491686Y338608D01*
X491672Y338630D01*
X491665Y338655D01*
X491610Y338735D01*
X491560Y338819D01*
X491540Y338836D01*
X491525Y338857D01*
X491447Y338916D01*
X491373Y338979D01*
X491348Y338989D01*
X491328Y339004D01*
X491235Y339034D01*
X491145Y339071D01*
X491112Y339074D01*
X491094Y339080D01*
X491061Y339080D01*
X490978Y339089D01*
X474222Y339089D01*
X474126Y339074D01*
X474029Y339064D01*
X474005Y339054D01*
X473979Y339050D01*
X473893Y339004D01*
X473804Y338964D01*
X473785Y338947D01*
X473762Y338934D01*
X473695Y338864D01*
X473623Y338798D01*
X473611Y338775D01*
X473593Y338756D01*
X473552Y338668D01*
X473505Y338582D01*
X473500Y338557D01*
X473489Y338533D01*
X473478Y338436D01*
X473461Y338340D01*
X473465Y338314D01*
X473462Y338289D01*
X473483Y338193D01*
X473497Y338097D01*
X473509Y338074D01*
X473514Y338048D01*
X473564Y337964D01*
X473608Y337878D01*
X473627Y337859D01*
X473640Y337837D01*
X473714Y337774D01*
X473784Y337706D01*
X473812Y337690D01*
X473827Y337677D01*
X473858Y337665D01*
X473931Y337625D01*
X473991Y337600D01*
X475406Y336655D01*
X476609Y335452D01*
X477554Y334037D01*
X478205Y332465D01*
X478537Y330797D01*
X478537Y325373D01*
X470662Y325373D01*
X470642Y325370D01*
X470623Y325372D01*
X470521Y325350D01*
X470419Y325333D01*
X470402Y325324D01*
X470382Y325320D01*
X470293Y325267D01*
X470202Y325218D01*
X470188Y325204D01*
X470171Y325194D01*
X470104Y325115D01*
X470033Y325040D01*
X470024Y325022D01*
X470011Y325007D01*
X469973Y324911D01*
X469929Y324817D01*
X469927Y324797D01*
X469919Y324779D01*
X469901Y324612D01*
X469901Y323849D01*
X469899Y323849D01*
X469899Y324612D01*
X469896Y324632D01*
X469898Y324651D01*
X469876Y324753D01*
X469859Y324855D01*
X469850Y324872D01*
X469846Y324892D01*
X469793Y324981D01*
X469744Y325072D01*
X469730Y325086D01*
X469720Y325103D01*
X469641Y325170D01*
X469566Y325241D01*
X469548Y325250D01*
X469533Y325263D01*
X469437Y325302D01*
X469343Y325345D01*
X469323Y325347D01*
X469305Y325355D01*
X469138Y325373D01*
X461263Y325373D01*
X461263Y330797D01*
X461595Y332465D01*
X462246Y334037D01*
X462322Y334150D01*
X462342Y334195D01*
X462371Y334235D01*
X462393Y334306D01*
X462424Y334374D01*
X462429Y334423D01*
X462443Y334470D01*
X462441Y334544D01*
X462449Y334619D01*
X462438Y334667D01*
X462437Y334716D01*
X462411Y334786D01*
X462395Y334859D01*
X462369Y334901D01*
X462352Y334947D01*
X462306Y335005D01*
X462267Y335069D01*
X462229Y335100D01*
X462199Y335139D01*
X462136Y335179D01*
X462078Y335227D01*
X462033Y335245D01*
X461992Y335272D01*
X461919Y335290D01*
X461850Y335317D01*
X461801Y335320D01*
X461753Y335332D01*
X461679Y335326D01*
X461604Y335330D01*
X461557Y335316D01*
X461508Y335313D01*
X461439Y335283D01*
X461367Y335263D01*
X461327Y335235D01*
X461282Y335216D01*
X461184Y335138D01*
X461164Y335124D01*
X461158Y335117D01*
X461151Y335111D01*
X453360Y327320D01*
X453307Y327247D01*
X453247Y327177D01*
X453235Y327147D01*
X453216Y327121D01*
X453189Y327034D01*
X453155Y326949D01*
X453151Y326908D01*
X453144Y326886D01*
X453145Y326853D01*
X453137Y326782D01*
X453137Y316036D01*
X451822Y312862D01*
X449392Y310432D01*
X446218Y309117D01*
X442782Y309117D01*
X439838Y310337D01*
X439794Y310347D01*
X439752Y310366D01*
X439675Y310375D01*
X439599Y310393D01*
X439553Y310388D01*
X439508Y310394D01*
X439431Y310377D01*
X439354Y310370D01*
X439312Y310351D01*
X439267Y310341D01*
X439200Y310301D01*
X439129Y310270D01*
X439095Y310239D01*
X439056Y310215D01*
X439005Y310156D01*
X438948Y310103D01*
X438926Y310063D01*
X438896Y310028D01*
X438867Y309956D01*
X438830Y309888D01*
X438821Y309843D01*
X438804Y309800D01*
X438789Y309664D01*
X438786Y309646D01*
X438787Y309641D01*
X438786Y309633D01*
X438786Y303022D01*
X438789Y303002D01*
X438787Y302983D01*
X438809Y302881D01*
X438825Y302779D01*
X438835Y302762D01*
X438839Y302742D01*
X438892Y302653D01*
X438941Y302562D01*
X438955Y302548D01*
X438965Y302531D01*
X439044Y302464D01*
X439119Y302392D01*
X439137Y302384D01*
X439152Y302371D01*
X439248Y302332D01*
X439342Y302289D01*
X439362Y302287D01*
X439380Y302279D01*
X439547Y302261D01*
X548721Y302261D01*
X548836Y302279D01*
X548952Y302297D01*
X548958Y302299D01*
X548964Y302300D01*
X549066Y302355D01*
X549171Y302408D01*
X549176Y302413D01*
X549181Y302416D01*
X549262Y302500D01*
X549344Y302584D01*
X549347Y302590D01*
X549348Y302591D01*
X551452Y304695D01*
X554160Y305817D01*
X557090Y305817D01*
X559798Y304695D01*
X561870Y302623D01*
X562992Y299915D01*
X562992Y296985D01*
X561870Y294277D01*
X559798Y292205D01*
X557090Y291083D01*
X554160Y291083D01*
X551452Y292205D01*
X549325Y294332D01*
X549303Y294369D01*
X549298Y294373D01*
X549295Y294378D01*
X549205Y294452D01*
X549116Y294529D01*
X549110Y294531D01*
X549105Y294535D01*
X548997Y294577D01*
X548888Y294621D01*
X548880Y294622D01*
X548876Y294623D01*
X548858Y294624D01*
X548721Y294639D01*
X433397Y294639D01*
X431164Y296872D01*
X431164Y325131D01*
X431150Y325221D01*
X431142Y325312D01*
X431130Y325342D01*
X431125Y325374D01*
X431082Y325454D01*
X431046Y325539D01*
X431020Y325571D01*
X431009Y325591D01*
X430986Y325613D01*
X430941Y325669D01*
X429036Y327575D01*
X428978Y327616D01*
X428926Y327666D01*
X428879Y327688D01*
X428837Y327718D01*
X428768Y327739D01*
X428703Y327769D01*
X428651Y327775D01*
X428601Y327790D01*
X428530Y327789D01*
X428459Y327796D01*
X428408Y327785D01*
X428356Y327784D01*
X428288Y327759D01*
X428218Y327744D01*
X428173Y327718D01*
X428125Y327700D01*
X428069Y327655D01*
X428007Y327618D01*
X427973Y327578D01*
X427933Y327546D01*
X427894Y327486D01*
X427847Y327431D01*
X427828Y327383D01*
X427800Y327339D01*
X427782Y327270D01*
X427755Y327203D01*
X427747Y327132D01*
X427739Y327100D01*
X427741Y327077D01*
X427737Y327036D01*
X427737Y316036D01*
X426422Y312862D01*
X423992Y310432D01*
X420818Y309117D01*
X417382Y309117D01*
X414208Y310432D01*
X411778Y312862D01*
X410463Y316036D01*
X410463Y331664D01*
X411778Y334838D01*
X414208Y337268D01*
X415069Y337625D01*
X415152Y337676D01*
X415238Y337722D01*
X415256Y337741D01*
X415278Y337754D01*
X415340Y337829D01*
X415407Y337900D01*
X415418Y337924D01*
X415435Y337944D01*
X415470Y338035D01*
X415511Y338123D01*
X415514Y338149D01*
X415523Y338173D01*
X415527Y338271D01*
X415538Y338367D01*
X415533Y338393D01*
X415534Y338419D01*
X415507Y338513D01*
X415486Y338608D01*
X415472Y338630D01*
X415465Y338655D01*
X415410Y338735D01*
X415360Y338819D01*
X415340Y338836D01*
X415325Y338857D01*
X415247Y338916D01*
X415173Y338979D01*
X415148Y338989D01*
X415128Y339004D01*
X415035Y339034D01*
X414945Y339071D01*
X414912Y339074D01*
X414894Y339080D01*
X414861Y339080D01*
X414778Y339089D01*
X398022Y339089D01*
X397926Y339074D01*
X397829Y339064D01*
X397805Y339054D01*
X397779Y339050D01*
X397693Y339004D01*
X397604Y338964D01*
X397585Y338947D01*
X397562Y338934D01*
X397495Y338864D01*
X397423Y338798D01*
X397411Y338775D01*
X397393Y338756D01*
X397352Y338668D01*
X397305Y338582D01*
X397300Y338557D01*
X397289Y338533D01*
X397278Y338436D01*
X397261Y338340D01*
X397265Y338314D01*
X397262Y338289D01*
X397283Y338193D01*
X397297Y338097D01*
X397309Y338074D01*
X397314Y338048D01*
X397364Y337964D01*
X397408Y337878D01*
X397427Y337860D01*
X397440Y337837D01*
X397514Y337774D01*
X397584Y337706D01*
X397612Y337690D01*
X397627Y337677D01*
X397658Y337665D01*
X397731Y337625D01*
X398592Y337268D01*
X401022Y334838D01*
X402337Y331664D01*
X402337Y316036D01*
X401022Y312862D01*
X398592Y310432D01*
X397981Y310179D01*
X397881Y310117D01*
X397781Y310057D01*
X397777Y310052D01*
X397772Y310049D01*
X397697Y309960D01*
X397621Y309870D01*
X397619Y309864D01*
X397615Y309860D01*
X397573Y309752D01*
X397529Y309642D01*
X397528Y309635D01*
X397527Y309630D01*
X397526Y309612D01*
X397511Y309475D01*
X397511Y308864D01*
X397514Y308844D01*
X397512Y308825D01*
X397534Y308723D01*
X397550Y308621D01*
X397560Y308604D01*
X397564Y308584D01*
X397617Y308495D01*
X397666Y308404D01*
X397680Y308390D01*
X397690Y308373D01*
X397769Y308306D01*
X397844Y308234D01*
X397862Y308226D01*
X397877Y308213D01*
X397973Y308174D01*
X398067Y308131D01*
X398087Y308129D01*
X398105Y308121D01*
X398272Y308103D01*
X402753Y308103D01*
X404242Y306614D01*
X404242Y292826D01*
X403988Y292571D01*
X403962Y292536D01*
X403930Y292506D01*
X403891Y292436D01*
X403844Y292372D01*
X403831Y292330D01*
X403810Y292291D01*
X403795Y292213D01*
X403772Y292137D01*
X403773Y292093D01*
X403765Y292050D01*
X403776Y291971D01*
X403778Y291891D01*
X403793Y291850D01*
X403799Y291806D01*
X403858Y291673D01*
X403862Y291660D01*
X403865Y291657D01*
X403867Y291653D01*
X404069Y291303D01*
X404242Y290656D01*
X404242Y286003D01*
X394462Y286003D01*
X394442Y286000D01*
X394423Y286002D01*
X394321Y285980D01*
X394219Y285963D01*
X394202Y285954D01*
X394182Y285950D01*
X394093Y285897D01*
X394002Y285848D01*
X393988Y285834D01*
X393971Y285824D01*
X393904Y285745D01*
X393833Y285670D01*
X393824Y285652D01*
X393811Y285637D01*
X393772Y285541D01*
X393729Y285447D01*
X393727Y285427D01*
X393719Y285409D01*
X393701Y285242D01*
X393701Y284479D01*
X393699Y284479D01*
X393699Y285242D01*
X393696Y285262D01*
X393698Y285281D01*
X393676Y285383D01*
X393659Y285485D01*
X393650Y285502D01*
X393646Y285522D01*
X393593Y285611D01*
X393544Y285702D01*
X393530Y285716D01*
X393520Y285733D01*
X393441Y285800D01*
X393366Y285871D01*
X393348Y285880D01*
X393333Y285893D01*
X393237Y285932D01*
X393143Y285975D01*
X393123Y285977D01*
X393105Y285985D01*
X392938Y286003D01*
X383158Y286003D01*
X383158Y290656D01*
X383331Y291303D01*
X383533Y291653D01*
X383549Y291693D01*
X383573Y291730D01*
X383592Y291808D01*
X383620Y291883D01*
X383622Y291926D01*
X383633Y291969D01*
X383626Y292048D01*
X383629Y292128D01*
X383617Y292171D01*
X383614Y292214D01*
X383582Y292288D01*
X383560Y292364D01*
X383534Y292400D01*
X383517Y292440D01*
X383426Y292554D01*
X383418Y292566D01*
X383415Y292568D01*
X383412Y292571D01*
X383158Y292826D01*
X383158Y306614D01*
X384647Y308103D01*
X389128Y308103D01*
X389148Y308106D01*
X389167Y308104D01*
X389269Y308126D01*
X389371Y308142D01*
X389388Y308152D01*
X389408Y308156D01*
X389497Y308209D01*
X389588Y308258D01*
X389602Y308272D01*
X389619Y308282D01*
X389686Y308361D01*
X389758Y308436D01*
X389766Y308454D01*
X389779Y308469D01*
X389818Y308565D01*
X389861Y308659D01*
X389863Y308679D01*
X389871Y308697D01*
X389889Y308864D01*
X389889Y309475D01*
X389870Y309590D01*
X389853Y309706D01*
X389851Y309712D01*
X389850Y309718D01*
X389795Y309821D01*
X389742Y309926D01*
X389737Y309930D01*
X389734Y309936D01*
X389650Y310015D01*
X389566Y310098D01*
X389560Y310102D01*
X389556Y310105D01*
X389539Y310113D01*
X389419Y310179D01*
X388808Y310432D01*
X386378Y312862D01*
X385063Y316036D01*
X385063Y331664D01*
X386378Y334838D01*
X388808Y337268D01*
X389669Y337625D01*
X389752Y337676D01*
X389838Y337722D01*
X389856Y337741D01*
X389878Y337754D01*
X389940Y337829D01*
X390007Y337900D01*
X390018Y337924D01*
X390035Y337944D01*
X390070Y338035D01*
X390111Y338123D01*
X390114Y338149D01*
X390123Y338173D01*
X390127Y338271D01*
X390138Y338367D01*
X390133Y338393D01*
X390134Y338419D01*
X390107Y338513D01*
X390086Y338608D01*
X390072Y338630D01*
X390065Y338655D01*
X390010Y338735D01*
X389960Y338819D01*
X389940Y338836D01*
X389925Y338857D01*
X389847Y338916D01*
X389773Y338979D01*
X389748Y338989D01*
X389728Y339004D01*
X389635Y339034D01*
X389545Y339071D01*
X389512Y339074D01*
X389494Y339080D01*
X389461Y339080D01*
X389378Y339089D01*
X372622Y339089D01*
X372526Y339074D01*
X372429Y339064D01*
X372405Y339054D01*
X372379Y339050D01*
X372293Y339004D01*
X372204Y338964D01*
X372185Y338947D01*
X372162Y338934D01*
X372095Y338864D01*
X372023Y338798D01*
X372011Y338775D01*
X371993Y338756D01*
X371952Y338668D01*
X371905Y338582D01*
X371900Y338557D01*
X371889Y338533D01*
X371878Y338436D01*
X371861Y338340D01*
X371865Y338314D01*
X371862Y338289D01*
X371883Y338193D01*
X371897Y338097D01*
X371909Y338074D01*
X371914Y338048D01*
X371964Y337964D01*
X372008Y337878D01*
X372027Y337860D01*
X372040Y337837D01*
X372114Y337774D01*
X372184Y337706D01*
X372212Y337690D01*
X372227Y337677D01*
X372258Y337665D01*
X372331Y337625D01*
X373192Y337268D01*
X375622Y334838D01*
X376937Y331664D01*
X376937Y316036D01*
X375622Y312862D01*
X373192Y310432D01*
X370018Y309117D01*
X369697Y309117D01*
X369677Y309114D01*
X369658Y309116D01*
X369556Y309094D01*
X369454Y309078D01*
X369437Y309068D01*
X369417Y309064D01*
X369328Y309011D01*
X369237Y308962D01*
X369223Y308948D01*
X369206Y308938D01*
X369139Y308859D01*
X369067Y308784D01*
X369059Y308766D01*
X369046Y308751D01*
X369007Y308655D01*
X368964Y308561D01*
X368962Y308541D01*
X368954Y308523D01*
X368936Y308356D01*
X368936Y303403D01*
X368939Y303383D01*
X368937Y303364D01*
X368959Y303262D01*
X368975Y303160D01*
X368985Y303143D01*
X368989Y303123D01*
X369042Y303034D01*
X369091Y302943D01*
X369105Y302929D01*
X369115Y302912D01*
X369194Y302845D01*
X369269Y302773D01*
X369287Y302765D01*
X369302Y302752D01*
X369398Y302713D01*
X369492Y302670D01*
X369512Y302668D01*
X369530Y302660D01*
X369697Y302642D01*
X370114Y302642D01*
X371603Y301153D01*
X371603Y283047D01*
X370114Y281558D01*
X356326Y281558D01*
X356138Y281746D01*
X356122Y281757D01*
X356110Y281773D01*
X356022Y281829D01*
X355939Y281889D01*
X355920Y281895D01*
X355903Y281906D01*
X355802Y281931D01*
X355703Y281961D01*
X355683Y281961D01*
X355664Y281966D01*
X355561Y281958D01*
X355458Y281955D01*
X355439Y281948D01*
X355419Y281947D01*
X355324Y281906D01*
X355227Y281871D01*
X355211Y281858D01*
X355193Y281850D01*
X355062Y281746D01*
X354874Y281558D01*
X341086Y281558D01*
X339597Y283047D01*
X339597Y290328D01*
X339587Y290393D01*
X339586Y290458D01*
X339563Y290538D01*
X339558Y290571D01*
X339548Y290588D01*
X339539Y290620D01*
X339470Y290786D01*
X339470Y309318D01*
X339451Y309432D01*
X339434Y309549D01*
X339432Y309554D01*
X339431Y309560D01*
X339376Y309663D01*
X339323Y309768D01*
X339318Y309772D01*
X339315Y309778D01*
X339231Y309858D01*
X339147Y309940D01*
X339141Y309944D01*
X339137Y309947D01*
X339120Y309955D01*
X339000Y310021D01*
X338008Y310432D01*
X335578Y312862D01*
X334263Y316036D01*
X334263Y316484D01*
X334260Y316504D01*
X334262Y316523D01*
X334240Y316625D01*
X334224Y316727D01*
X334214Y316744D01*
X334210Y316764D01*
X334157Y316853D01*
X334108Y316944D01*
X334094Y316958D01*
X334084Y316975D01*
X334005Y317042D01*
X333930Y317114D01*
X333912Y317122D01*
X333897Y317135D01*
X333801Y317174D01*
X333707Y317217D01*
X333687Y317219D01*
X333669Y317227D01*
X333502Y317245D01*
X323425Y317245D01*
X323335Y317231D01*
X323244Y317223D01*
X323214Y317211D01*
X323182Y317206D01*
X323101Y317163D01*
X323017Y317127D01*
X322985Y317101D01*
X322965Y317090D01*
X322942Y317067D01*
X322886Y317022D01*
X321077Y315213D01*
X313923Y315213D01*
X308863Y320273D01*
X308863Y327427D01*
X313923Y332487D01*
X321077Y332487D01*
X322886Y330678D01*
X322960Y330625D01*
X323030Y330565D01*
X323060Y330553D01*
X323086Y330534D01*
X323173Y330507D01*
X323258Y330473D01*
X323299Y330469D01*
X323321Y330462D01*
X323353Y330463D01*
X323425Y330455D01*
X333502Y330455D01*
X333522Y330458D01*
X333541Y330456D01*
X333643Y330478D01*
X333745Y330494D01*
X333762Y330504D01*
X333782Y330508D01*
X333871Y330561D01*
X333962Y330610D01*
X333976Y330624D01*
X333993Y330634D01*
X334060Y330713D01*
X334132Y330788D01*
X334140Y330806D01*
X334153Y330821D01*
X334192Y330917D01*
X334235Y331011D01*
X334237Y331031D01*
X334245Y331049D01*
X334263Y331216D01*
X334263Y331664D01*
X335578Y334838D01*
X338008Y337268D01*
X338869Y337625D01*
X338952Y337676D01*
X339038Y337722D01*
X339056Y337741D01*
X339078Y337754D01*
X339140Y337829D01*
X339207Y337900D01*
X339218Y337924D01*
X339235Y337944D01*
X339270Y338035D01*
X339311Y338123D01*
X339314Y338149D01*
X339323Y338173D01*
X339327Y338271D01*
X339338Y338367D01*
X339333Y338393D01*
X339334Y338419D01*
X339307Y338513D01*
X339286Y338608D01*
X339272Y338630D01*
X339265Y338655D01*
X339210Y338735D01*
X339160Y338819D01*
X339140Y338836D01*
X339125Y338857D01*
X339047Y338916D01*
X338973Y338979D01*
X338948Y338989D01*
X338928Y339004D01*
X338835Y339034D01*
X338745Y339071D01*
X338712Y339074D01*
X338694Y339080D01*
X338661Y339080D01*
X338578Y339089D01*
X229398Y339089D01*
X229328Y339078D01*
X229256Y339076D01*
X229207Y339058D01*
X229156Y339050D01*
X229092Y339016D01*
X229025Y338991D01*
X228984Y338959D01*
X228938Y338934D01*
X228889Y338882D01*
X228833Y338838D01*
X228805Y338794D01*
X228769Y338756D01*
X228739Y338691D01*
X228700Y338631D01*
X228687Y338580D01*
X228665Y338533D01*
X228657Y338462D01*
X228640Y338392D01*
X228644Y338340D01*
X228638Y338289D01*
X228653Y338218D01*
X228659Y338147D01*
X228679Y338099D01*
X228690Y338048D01*
X228727Y337987D01*
X228755Y337921D01*
X228800Y337865D01*
X228816Y337837D01*
X228834Y337822D01*
X228860Y337790D01*
X230762Y335888D01*
X232291Y332197D01*
X232291Y328203D01*
X230762Y324512D01*
X227938Y321688D01*
X224247Y320159D01*
X220253Y320159D01*
X216562Y321688D01*
X213738Y324512D01*
X212209Y328203D01*
X212209Y332197D01*
X213738Y335888D01*
X215640Y337790D01*
X215682Y337848D01*
X215731Y337900D01*
X215753Y337947D01*
X215784Y337989D01*
X215805Y338058D01*
X215835Y338123D01*
X215841Y338175D01*
X215856Y338225D01*
X215854Y338296D01*
X215862Y338367D01*
X215851Y338418D01*
X215850Y338470D01*
X215825Y338538D01*
X215810Y338608D01*
X215783Y338653D01*
X215765Y338701D01*
X215720Y338757D01*
X215684Y338819D01*
X215644Y338853D01*
X215611Y338893D01*
X215551Y338932D01*
X215497Y338979D01*
X215448Y338998D01*
X215404Y339026D01*
X215335Y339044D01*
X215268Y339071D01*
X215197Y339079D01*
X215166Y339087D01*
X215143Y339085D01*
X215102Y339089D01*
X168028Y339089D01*
X167983Y339082D01*
X167937Y339084D01*
X167862Y339062D01*
X167785Y339050D01*
X167745Y339028D01*
X167701Y339015D01*
X167636Y338971D01*
X167568Y338934D01*
X167536Y338901D01*
X167498Y338875D01*
X167452Y338812D01*
X167398Y338756D01*
X167379Y338714D01*
X167352Y338678D01*
X167328Y338604D01*
X167295Y338533D01*
X167290Y338487D01*
X167276Y338444D01*
X167276Y338366D01*
X167268Y338289D01*
X167277Y338244D01*
X167278Y338198D01*
X167316Y338066D01*
X167320Y338048D01*
X167323Y338044D01*
X167325Y338037D01*
X168791Y334497D01*
X168791Y330503D01*
X167262Y326812D01*
X164438Y323988D01*
X160747Y322459D01*
X156753Y322459D01*
X153062Y323988D01*
X150238Y326812D01*
X148709Y330503D01*
X148709Y334497D01*
X150175Y338037D01*
X150186Y338081D01*
X150205Y338123D01*
X150214Y338200D01*
X150232Y338276D01*
X150227Y338322D01*
X150232Y338367D01*
X150216Y338444D01*
X150208Y338521D01*
X150190Y338563D01*
X150180Y338608D01*
X150140Y338675D01*
X150108Y338746D01*
X150077Y338780D01*
X150054Y338819D01*
X149995Y338870D01*
X149942Y338927D01*
X149902Y338949D01*
X149867Y338979D01*
X149795Y339008D01*
X149727Y339045D01*
X149681Y339054D01*
X149639Y339071D01*
X149503Y339086D01*
X149484Y339089D01*
X149480Y339088D01*
X149472Y339089D01*
X142628Y339089D01*
X142583Y339082D01*
X142537Y339084D01*
X142462Y339062D01*
X142385Y339050D01*
X142345Y339028D01*
X142301Y339015D01*
X142236Y338971D01*
X142168Y338934D01*
X142136Y338901D01*
X142098Y338875D01*
X142052Y338812D01*
X141998Y338756D01*
X141979Y338714D01*
X141952Y338678D01*
X141928Y338604D01*
X141895Y338533D01*
X141890Y338487D01*
X141876Y338444D01*
X141876Y338366D01*
X141868Y338289D01*
X141877Y338244D01*
X141878Y338198D01*
X141916Y338066D01*
X141920Y338048D01*
X141923Y338044D01*
X141925Y338037D01*
X143391Y334497D01*
X143391Y330503D01*
X141862Y326812D01*
X139038Y323988D01*
X135347Y322459D01*
X131353Y322459D01*
X127662Y323988D01*
X124838Y326812D01*
X123309Y330503D01*
X123309Y334497D01*
X124775Y338037D01*
X124786Y338081D01*
X124805Y338123D01*
X124814Y338200D01*
X124832Y338276D01*
X124827Y338322D01*
X124832Y338367D01*
X124816Y338444D01*
X124808Y338521D01*
X124790Y338563D01*
X124780Y338608D01*
X124740Y338675D01*
X124708Y338746D01*
X124677Y338780D01*
X124654Y338819D01*
X124595Y338870D01*
X124542Y338927D01*
X124502Y338949D01*
X124467Y338979D01*
X124395Y339008D01*
X124327Y339045D01*
X124281Y339054D01*
X124239Y339071D01*
X124103Y339086D01*
X124084Y339089D01*
X124080Y339088D01*
X124072Y339089D01*
X117228Y339089D01*
X117183Y339082D01*
X117137Y339084D01*
X117062Y339062D01*
X116985Y339050D01*
X116945Y339028D01*
X116901Y339015D01*
X116836Y338971D01*
X116768Y338934D01*
X116736Y338901D01*
X116698Y338875D01*
X116652Y338812D01*
X116598Y338756D01*
X116579Y338714D01*
X116552Y338678D01*
X116528Y338604D01*
X116495Y338533D01*
X116490Y338487D01*
X116476Y338444D01*
X116476Y338366D01*
X116468Y338289D01*
X116477Y338244D01*
X116478Y338198D01*
X116516Y338066D01*
X116520Y338048D01*
X116523Y338044D01*
X116525Y338037D01*
X117991Y334497D01*
X117991Y330503D01*
X116462Y326812D01*
X113638Y323988D01*
X109947Y322459D01*
X105953Y322459D01*
X102262Y323988D01*
X99438Y326812D01*
X97909Y330503D01*
X97909Y334497D01*
X99375Y338037D01*
X99386Y338081D01*
X99405Y338123D01*
X99414Y338200D01*
X99432Y338276D01*
X99427Y338322D01*
X99432Y338367D01*
X99416Y338444D01*
X99408Y338521D01*
X99390Y338563D01*
X99380Y338608D01*
X99340Y338675D01*
X99308Y338746D01*
X99277Y338780D01*
X99254Y338819D01*
X99195Y338870D01*
X99142Y338927D01*
X99102Y338949D01*
X99067Y338979D01*
X98995Y339008D01*
X98927Y339045D01*
X98881Y339054D01*
X98839Y339071D01*
X98703Y339086D01*
X98684Y339089D01*
X98680Y339088D01*
X98672Y339089D01*
X51598Y339089D01*
X51528Y339078D01*
X51456Y339076D01*
X51407Y339058D01*
X51356Y339050D01*
X51292Y339016D01*
X51225Y338991D01*
X51184Y338959D01*
X51138Y338934D01*
X51089Y338882D01*
X51033Y338838D01*
X51005Y338794D01*
X50969Y338756D01*
X50939Y338691D01*
X50900Y338631D01*
X50887Y338580D01*
X50865Y338533D01*
X50857Y338462D01*
X50840Y338392D01*
X50844Y338340D01*
X50838Y338289D01*
X50853Y338218D01*
X50859Y338147D01*
X50879Y338099D01*
X50890Y338048D01*
X50927Y337987D01*
X50955Y337921D01*
X51000Y337865D01*
X51016Y337837D01*
X51034Y337822D01*
X51060Y337790D01*
X52962Y335888D01*
X54491Y332197D01*
X54491Y328203D01*
X53908Y326796D01*
X53881Y326682D01*
X53853Y326569D01*
X53853Y326562D01*
X53852Y326556D01*
X53863Y326440D01*
X53872Y326324D01*
X53874Y326318D01*
X53875Y326311D01*
X53923Y326204D01*
X53968Y326097D01*
X53973Y326091D01*
X53975Y326087D01*
X53988Y326073D01*
X54073Y325966D01*
X77556Y302484D01*
X77629Y302431D01*
X77699Y302371D01*
X77729Y302359D01*
X77755Y302340D01*
X77842Y302313D01*
X77927Y302279D01*
X77968Y302275D01*
X77990Y302268D01*
X78023Y302269D01*
X78094Y302261D01*
X173028Y302261D01*
X251765Y223524D01*
X251802Y223498D01*
X251833Y223464D01*
X251902Y223426D01*
X251965Y223381D01*
X252008Y223367D01*
X252049Y223345D01*
X252125Y223331D01*
X252200Y223308D01*
X252246Y223310D01*
X252291Y223301D01*
X252368Y223313D01*
X252446Y223315D01*
X252489Y223331D01*
X252534Y223337D01*
X252603Y223372D01*
X252677Y223399D01*
X252712Y223428D01*
X252753Y223449D01*
X252808Y223504D01*
X252869Y223553D01*
X252893Y223592D01*
X252926Y223624D01*
X252992Y223744D01*
X253002Y223760D01*
X253003Y223765D01*
X253006Y223771D01*
X254105Y226423D01*
X256177Y228495D01*
X258885Y229617D01*
X261815Y229617D01*
X264523Y228495D01*
X266650Y226368D01*
X266672Y226331D01*
X266677Y226327D01*
X266680Y226322D01*
X266770Y226248D01*
X266859Y226171D01*
X266865Y226169D01*
X266870Y226165D01*
X266978Y226123D01*
X267087Y226079D01*
X267095Y226078D01*
X267099Y226077D01*
X267117Y226076D01*
X267254Y226061D01*
X310958Y226061D01*
X311029Y226072D01*
X311101Y226074D01*
X311150Y226092D01*
X311201Y226100D01*
X311264Y226134D01*
X311332Y226159D01*
X311372Y226191D01*
X311418Y226216D01*
X311468Y226267D01*
X311524Y226312D01*
X311552Y226356D01*
X311588Y226394D01*
X311618Y226459D01*
X311657Y226519D01*
X311670Y226570D01*
X311691Y226617D01*
X311699Y226688D01*
X311717Y226758D01*
X311713Y226810D01*
X311719Y226861D01*
X311703Y226932D01*
X311698Y227003D01*
X311677Y227051D01*
X311666Y227102D01*
X311629Y227163D01*
X311601Y227229D01*
X311557Y227285D01*
X311540Y227313D01*
X311522Y227328D01*
X311497Y227360D01*
X311255Y227602D01*
X310133Y230310D01*
X310133Y233240D01*
X311255Y235948D01*
X313327Y238020D01*
X316035Y239142D01*
X318965Y239142D01*
X321673Y238020D01*
X323800Y235893D01*
X323822Y235856D01*
X323827Y235852D01*
X323830Y235847D01*
X323920Y235773D01*
X324009Y235696D01*
X324015Y235694D01*
X324020Y235690D01*
X324128Y235648D01*
X324237Y235604D01*
X324245Y235603D01*
X324249Y235602D01*
X324267Y235601D01*
X324404Y235586D01*
X334885Y235586D01*
X334930Y235593D01*
X334976Y235591D01*
X335051Y235613D01*
X335127Y235625D01*
X335168Y235647D01*
X335212Y235660D01*
X335276Y235704D01*
X335345Y235741D01*
X335376Y235774D01*
X335414Y235800D01*
X335460Y235863D01*
X335514Y235919D01*
X335533Y235961D01*
X335561Y235997D01*
X335585Y236071D01*
X335618Y236142D01*
X335623Y236188D01*
X335637Y236231D01*
X335636Y236309D01*
X335645Y236386D01*
X335635Y236431D01*
X335635Y236477D01*
X335596Y236609D01*
X335592Y236627D01*
X335590Y236631D01*
X335588Y236638D01*
X334263Y239836D01*
X334263Y255464D01*
X335578Y258638D01*
X338008Y261068D01*
X341182Y262383D01*
X344618Y262383D01*
X347792Y261068D01*
X348822Y260038D01*
X348838Y260026D01*
X348851Y260011D01*
X348938Y259955D01*
X349022Y259894D01*
X349041Y259889D01*
X349058Y259878D01*
X349158Y259853D01*
X349257Y259822D01*
X349277Y259823D01*
X349296Y259818D01*
X349399Y259826D01*
X349503Y259828D01*
X349522Y259835D01*
X349541Y259837D01*
X349636Y259877D01*
X349734Y259913D01*
X349750Y259925D01*
X349768Y259933D01*
X349899Y260038D01*
X360372Y270511D01*
X480706Y270511D01*
X480796Y270525D01*
X480887Y270533D01*
X480917Y270545D01*
X480949Y270550D01*
X481030Y270593D01*
X481114Y270629D01*
X481146Y270655D01*
X481166Y270666D01*
X481189Y270689D01*
X481244Y270734D01*
X490547Y280036D01*
X668031Y280036D01*
X668121Y280050D01*
X668212Y280058D01*
X668242Y280070D01*
X668274Y280075D01*
X668354Y280118D01*
X668439Y280154D01*
X668471Y280180D01*
X668491Y280191D01*
X668513Y280214D01*
X668569Y280259D01*
X671033Y282722D01*
X671060Y282760D01*
X671094Y282791D01*
X671131Y282859D01*
X671177Y282922D01*
X671190Y282966D01*
X671212Y283006D01*
X671226Y283083D01*
X671249Y283157D01*
X671248Y283203D01*
X671256Y283248D01*
X671245Y283325D01*
X671243Y283403D01*
X671227Y283446D01*
X671220Y283492D01*
X671185Y283561D01*
X671158Y283634D01*
X671130Y283670D01*
X671109Y283711D01*
X671053Y283765D01*
X671005Y283826D01*
X670966Y283851D01*
X670933Y283883D01*
X670813Y283949D01*
X670798Y283959D01*
X670793Y283960D01*
X670786Y283964D01*
X668208Y285032D01*
X665778Y287462D01*
X664463Y290636D01*
X664463Y306264D01*
X665778Y309438D01*
X668208Y311868D01*
X671382Y313183D01*
X674818Y313183D01*
X677992Y311868D01*
X678210Y311651D01*
X678247Y311624D01*
X678278Y311590D01*
X678346Y311552D01*
X678409Y311507D01*
X678453Y311494D01*
X678493Y311471D01*
X678570Y311458D01*
X678644Y311435D01*
X678690Y311436D01*
X678735Y311428D01*
X678813Y311439D01*
X678890Y311441D01*
X678933Y311457D01*
X678979Y311464D01*
X679048Y311499D01*
X679121Y311526D01*
X679157Y311554D01*
X679198Y311575D01*
X679253Y311631D01*
X679313Y311679D01*
X679338Y311718D01*
X679370Y311751D01*
X679436Y311870D01*
X679446Y311886D01*
X679448Y311891D01*
X679451Y311898D01*
X679555Y312148D01*
X681627Y314220D01*
X684335Y315342D01*
X687265Y315342D01*
X689973Y314220D01*
X692045Y312148D01*
X692149Y311898D01*
X692173Y311859D01*
X692189Y311816D01*
X692238Y311755D01*
X692278Y311689D01*
X692314Y311659D01*
X692343Y311623D01*
X692408Y311581D01*
X692468Y311532D01*
X692511Y311515D01*
X692549Y311490D01*
X692625Y311471D01*
X692698Y311444D01*
X692743Y311442D01*
X692788Y311430D01*
X692865Y311436D01*
X692943Y311433D01*
X692987Y311446D01*
X693033Y311450D01*
X693105Y311480D01*
X693180Y311502D01*
X693217Y311528D01*
X693259Y311546D01*
X693366Y311631D01*
X693382Y311642D01*
X693385Y311646D01*
X693390Y311651D01*
X693608Y311868D01*
X696782Y313183D01*
X700218Y313183D01*
X703392Y311868D01*
X705822Y309438D01*
X707137Y306264D01*
X707137Y290636D01*
X705822Y287462D01*
X703392Y285032D01*
X700218Y283717D01*
X696782Y283717D01*
X693608Y285032D01*
X691178Y287462D01*
X690259Y289681D01*
X690235Y289720D01*
X690219Y289763D01*
X690172Y289821D01*
X690138Y289878D01*
X690134Y289882D01*
X690129Y289890D01*
X690094Y289919D01*
X690065Y289955D01*
X690000Y289997D01*
X689986Y290009D01*
X689951Y290038D01*
X689949Y290039D01*
X689940Y290047D01*
X689897Y290063D01*
X689858Y290088D01*
X689783Y290107D01*
X689731Y290127D01*
X689723Y290130D01*
X689710Y290135D01*
X689664Y290137D01*
X689620Y290148D01*
X689585Y290146D01*
X689556Y290149D01*
X689553Y290149D01*
X689520Y290143D01*
X689464Y290146D01*
X689420Y290133D01*
X689375Y290129D01*
X689337Y290113D01*
X689310Y290109D01*
X689277Y290091D01*
X689228Y290077D01*
X689190Y290051D01*
X689148Y290033D01*
X689112Y290004D01*
X689093Y289994D01*
X689073Y289973D01*
X689041Y289947D01*
X689026Y289937D01*
X689023Y289933D01*
X689017Y289928D01*
X687156Y288066D01*
X687155Y288066D01*
X671503Y272414D01*
X494019Y272414D01*
X493929Y272400D01*
X493838Y272392D01*
X493808Y272380D01*
X493776Y272375D01*
X493696Y272332D01*
X493611Y272296D01*
X493579Y272270D01*
X493559Y272259D01*
X493537Y272236D01*
X493481Y272191D01*
X493099Y271810D01*
X493058Y271752D01*
X493008Y271700D01*
X492986Y271653D01*
X492956Y271611D01*
X492935Y271542D01*
X492905Y271477D01*
X492899Y271425D01*
X492884Y271375D01*
X492885Y271304D01*
X492878Y271233D01*
X492889Y271182D01*
X492890Y271130D01*
X492915Y271062D01*
X492930Y270992D01*
X492956Y270947D01*
X492974Y270899D01*
X493019Y270843D01*
X493056Y270781D01*
X493096Y270747D01*
X493128Y270707D01*
X493188Y270668D01*
X493243Y270621D01*
X493291Y270602D01*
X493335Y270574D01*
X493404Y270556D01*
X493471Y270529D01*
X493542Y270521D01*
X493573Y270513D01*
X493597Y270515D01*
X493638Y270511D01*
X763281Y270511D01*
X763371Y270525D01*
X763462Y270533D01*
X763492Y270545D01*
X763524Y270550D01*
X763605Y270593D01*
X763689Y270629D01*
X763721Y270655D01*
X763741Y270666D01*
X763764Y270689D01*
X763819Y270734D01*
X776000Y282914D01*
X776053Y282988D01*
X776113Y283058D01*
X776125Y283088D01*
X776144Y283114D01*
X776171Y283201D01*
X776205Y283286D01*
X776209Y283327D01*
X776216Y283349D01*
X776215Y283381D01*
X776223Y283453D01*
X776223Y297688D01*
X776220Y297708D01*
X776222Y297727D01*
X776200Y297829D01*
X776183Y297931D01*
X776174Y297948D01*
X776170Y297968D01*
X776117Y298057D01*
X776068Y298148D01*
X776054Y298162D01*
X776044Y298179D01*
X775965Y298246D01*
X775890Y298317D01*
X775872Y298326D01*
X775857Y298339D01*
X775761Y298377D01*
X775667Y298421D01*
X775647Y298423D01*
X775629Y298431D01*
X775462Y298449D01*
X774699Y298449D01*
X774699Y298451D01*
X775462Y298451D01*
X775482Y298454D01*
X775501Y298452D01*
X775603Y298474D01*
X775705Y298491D01*
X775722Y298500D01*
X775742Y298504D01*
X775831Y298557D01*
X775922Y298606D01*
X775936Y298620D01*
X775953Y298630D01*
X776020Y298709D01*
X776091Y298784D01*
X776100Y298802D01*
X776113Y298817D01*
X776152Y298913D01*
X776195Y299007D01*
X776197Y299027D01*
X776205Y299045D01*
X776223Y299212D01*
X776223Y313049D01*
X777219Y312851D01*
X778791Y312200D01*
X780206Y311255D01*
X781409Y310052D01*
X782195Y308875D01*
X782211Y308858D01*
X782222Y308837D01*
X782294Y308768D01*
X782363Y308695D01*
X782383Y308684D01*
X782400Y308668D01*
X782491Y308626D01*
X782579Y308578D01*
X782602Y308574D01*
X782623Y308564D01*
X782723Y308553D01*
X782822Y308536D01*
X782845Y308540D01*
X782867Y308537D01*
X782966Y308559D01*
X783065Y308574D01*
X783085Y308585D01*
X783108Y308589D01*
X783194Y308641D01*
X783283Y308687D01*
X783299Y308704D01*
X783319Y308716D01*
X783384Y308792D01*
X783454Y308864D01*
X783464Y308885D01*
X783479Y308903D01*
X783516Y308996D01*
X783559Y309086D01*
X783562Y309109D01*
X783571Y309131D01*
X783589Y309297D01*
X783589Y363619D01*
X783574Y363715D01*
X783564Y363812D01*
X783554Y363836D01*
X783550Y363861D01*
X783504Y363947D01*
X783464Y364036D01*
X783447Y364056D01*
X783434Y364079D01*
X783364Y364146D01*
X783298Y364218D01*
X783275Y364230D01*
X783256Y364248D01*
X783168Y364289D01*
X783082Y364336D01*
X783057Y364341D01*
X783033Y364352D01*
X782936Y364363D01*
X782840Y364380D01*
X782814Y364376D01*
X782789Y364379D01*
X782694Y364358D01*
X782597Y364344D01*
X782574Y364332D01*
X782548Y364327D01*
X782465Y364277D01*
X782378Y364233D01*
X782359Y364214D01*
X782337Y364200D01*
X782274Y364126D01*
X782206Y364057D01*
X782190Y364028D01*
X782177Y364014D01*
X782165Y363983D01*
X782125Y363910D01*
X782022Y363662D01*
X779592Y361232D01*
X776418Y359917D01*
X772982Y359917D01*
X769808Y361232D01*
X767378Y363662D01*
X766063Y366836D01*
X766063Y382464D01*
X767378Y385638D01*
X769808Y388068D01*
X772982Y389383D01*
X776418Y389383D01*
X779592Y388068D01*
X782022Y385638D01*
X782125Y385390D01*
X782176Y385307D01*
X782222Y385221D01*
X782241Y385203D01*
X782254Y385181D01*
X782329Y385119D01*
X782400Y385052D01*
X782424Y385041D01*
X782444Y385024D01*
X782535Y384989D01*
X782623Y384948D01*
X782649Y384945D01*
X782673Y384936D01*
X782771Y384932D01*
X782867Y384921D01*
X782893Y384927D01*
X782919Y384926D01*
X783013Y384953D01*
X783108Y384973D01*
X783130Y384987D01*
X783155Y384994D01*
X783235Y385050D01*
X783319Y385100D01*
X783336Y385119D01*
X783357Y385134D01*
X783416Y385212D01*
X783479Y385286D01*
X783489Y385311D01*
X783504Y385332D01*
X783534Y385424D01*
X783571Y385515D01*
X783574Y385547D01*
X783580Y385566D01*
X783580Y385599D01*
X783589Y385681D01*
X783589Y541528D01*
X783586Y541548D01*
X783588Y541567D01*
X783566Y541669D01*
X783550Y541771D01*
X783540Y541788D01*
X783536Y541808D01*
X783483Y541897D01*
X783434Y541988D01*
X783420Y542002D01*
X783410Y542019D01*
X783331Y542086D01*
X783256Y542158D01*
X783238Y542166D01*
X783223Y542179D01*
X783127Y542218D01*
X783033Y542261D01*
X783013Y542263D01*
X782995Y542271D01*
X782828Y542289D01*
X288798Y542289D01*
X288778Y542286D01*
X288759Y542288D01*
X288657Y542266D01*
X288555Y542250D01*
X288538Y542240D01*
X288518Y542236D01*
X288429Y542183D01*
X288338Y542134D01*
X288324Y542120D01*
X288307Y542110D01*
X288240Y542031D01*
X288168Y541956D01*
X288160Y541938D01*
X288147Y541923D01*
X288108Y541827D01*
X288065Y541733D01*
X288063Y541713D01*
X288055Y541695D01*
X288037Y541528D01*
X288037Y538286D01*
X286712Y535088D01*
X286702Y535044D01*
X286682Y535002D01*
X286674Y534925D01*
X286656Y534849D01*
X286660Y534803D01*
X286655Y534758D01*
X286672Y534681D01*
X286679Y534604D01*
X286698Y534562D01*
X286708Y534517D01*
X286747Y534450D01*
X286779Y534379D01*
X286810Y534345D01*
X286834Y534306D01*
X286893Y534255D01*
X286946Y534198D01*
X286986Y534176D01*
X287021Y534146D01*
X287093Y534117D01*
X287161Y534080D01*
X287206Y534071D01*
X287249Y534054D01*
X287385Y534039D01*
X287403Y534036D01*
X287408Y534037D01*
X287415Y534036D01*
X513796Y534036D01*
X513911Y534054D01*
X514027Y534072D01*
X514033Y534074D01*
X514039Y534075D01*
X514141Y534130D01*
X514246Y534183D01*
X514251Y534188D01*
X514256Y534191D01*
X514337Y534275D01*
X514419Y534359D01*
X514422Y534365D01*
X514423Y534366D01*
X516527Y536470D01*
X519235Y537592D01*
X522165Y537592D01*
X524873Y536470D01*
X526945Y534398D01*
X528067Y531690D01*
X528067Y528760D01*
X526945Y526052D01*
X524873Y523980D01*
X522165Y522858D01*
X519235Y522858D01*
X516527Y523980D01*
X514400Y526107D01*
X514378Y526144D01*
X514373Y526148D01*
X514370Y526153D01*
X514280Y526227D01*
X514191Y526304D01*
X514185Y526306D01*
X514180Y526310D01*
X514072Y526352D01*
X513963Y526396D01*
X513955Y526397D01*
X513951Y526398D01*
X513933Y526399D01*
X513796Y526414D01*
X229779Y526414D01*
X229689Y526400D01*
X229598Y526392D01*
X229569Y526380D01*
X229537Y526375D01*
X229456Y526332D01*
X229372Y526296D01*
X229340Y526270D01*
X229319Y526259D01*
X229297Y526236D01*
X229241Y526191D01*
X227938Y524888D01*
X224247Y523359D01*
X220253Y523359D01*
X216562Y524888D01*
X213738Y527712D01*
X212209Y531403D01*
X212209Y535397D01*
X213738Y539088D01*
X216562Y541912D01*
X220253Y543441D01*
X224247Y543441D01*
X227938Y541912D01*
X230762Y539088D01*
X232291Y535397D01*
X232291Y534797D01*
X232294Y534777D01*
X232292Y534758D01*
X232314Y534656D01*
X232330Y534554D01*
X232340Y534537D01*
X232344Y534517D01*
X232397Y534428D01*
X232446Y534337D01*
X232460Y534323D01*
X232470Y534306D01*
X232549Y534239D01*
X232624Y534167D01*
X232642Y534159D01*
X232657Y534146D01*
X232753Y534107D01*
X232847Y534064D01*
X232867Y534062D01*
X232885Y534054D01*
X233052Y534036D01*
X271385Y534036D01*
X271430Y534043D01*
X271476Y534041D01*
X271551Y534063D01*
X271627Y534075D01*
X271668Y534097D01*
X271712Y534110D01*
X271776Y534154D01*
X271845Y534191D01*
X271876Y534224D01*
X271914Y534250D01*
X271960Y534313D01*
X272014Y534369D01*
X272033Y534411D01*
X272061Y534447D01*
X272085Y534521D01*
X272118Y534592D01*
X272123Y534638D01*
X272137Y534681D01*
X272136Y534759D01*
X272145Y534836D01*
X272135Y534881D01*
X272135Y534927D01*
X272096Y535059D01*
X272092Y535077D01*
X272090Y535081D01*
X272088Y535088D01*
X270763Y538286D01*
X270763Y553914D01*
X272078Y557088D01*
X274508Y559518D01*
X277682Y560833D01*
X281118Y560833D01*
X284292Y559518D01*
X286722Y557088D01*
X288037Y553914D01*
X288037Y550672D01*
X288040Y550652D01*
X288038Y550633D01*
X288060Y550531D01*
X288076Y550429D01*
X288086Y550412D01*
X288090Y550392D01*
X288143Y550303D01*
X288192Y550212D01*
X288206Y550198D01*
X288216Y550181D01*
X288295Y550114D01*
X288370Y550042D01*
X288388Y550034D01*
X288403Y550021D01*
X288499Y549982D01*
X288593Y549939D01*
X288613Y549937D01*
X288631Y549929D01*
X288798Y549911D01*
X788978Y549911D01*
X791211Y547678D01*
X791211Y287347D01*
X766753Y262889D01*
X499622Y262889D01*
X499526Y262874D01*
X499429Y262864D01*
X499405Y262854D01*
X499379Y262850D01*
X499293Y262804D01*
X499204Y262764D01*
X499185Y262747D01*
X499162Y262734D01*
X499095Y262664D01*
X499023Y262598D01*
X499011Y262575D01*
X498993Y262556D01*
X498952Y262468D01*
X498905Y262382D01*
X498900Y262357D01*
X498889Y262333D01*
X498878Y262236D01*
X498861Y262140D01*
X498865Y262114D01*
X498862Y262089D01*
X498883Y261993D01*
X498897Y261897D01*
X498909Y261874D01*
X498914Y261848D01*
X498964Y261765D01*
X499008Y261678D01*
X499027Y261659D01*
X499040Y261637D01*
X499114Y261574D01*
X499184Y261506D01*
X499212Y261490D01*
X499227Y261477D01*
X499258Y261465D01*
X499331Y261425D01*
X499391Y261400D01*
X500806Y260455D01*
X502009Y259252D01*
X502954Y257837D01*
X503605Y256265D01*
X503937Y254597D01*
X503937Y249173D01*
X496062Y249173D01*
X496042Y249170D01*
X496023Y249172D01*
X495921Y249150D01*
X495819Y249133D01*
X495802Y249124D01*
X495782Y249120D01*
X495693Y249067D01*
X495602Y249018D01*
X495588Y249004D01*
X495571Y248994D01*
X495504Y248915D01*
X495433Y248840D01*
X495424Y248822D01*
X495411Y248807D01*
X495373Y248711D01*
X495329Y248617D01*
X495327Y248597D01*
X495319Y248579D01*
X495301Y248412D01*
X495301Y247649D01*
X495299Y247649D01*
X495299Y248412D01*
X495296Y248432D01*
X495298Y248451D01*
X495276Y248553D01*
X495259Y248655D01*
X495250Y248672D01*
X495246Y248692D01*
X495193Y248781D01*
X495144Y248872D01*
X495130Y248886D01*
X495120Y248903D01*
X495041Y248970D01*
X494966Y249041D01*
X494948Y249050D01*
X494933Y249063D01*
X494837Y249102D01*
X494743Y249145D01*
X494723Y249147D01*
X494705Y249155D01*
X494538Y249173D01*
X486663Y249173D01*
X486663Y254597D01*
X486995Y256265D01*
X487646Y257837D01*
X487722Y257950D01*
X487742Y257995D01*
X487771Y258035D01*
X487793Y258106D01*
X487824Y258174D01*
X487829Y258223D01*
X487843Y258270D01*
X487841Y258344D01*
X487849Y258419D01*
X487838Y258467D01*
X487837Y258516D01*
X487811Y258586D01*
X487795Y258659D01*
X487769Y258700D01*
X487752Y258747D01*
X487706Y258805D01*
X487667Y258869D01*
X487629Y258900D01*
X487599Y258939D01*
X487536Y258979D01*
X487479Y259027D01*
X487433Y259045D01*
X487392Y259072D01*
X487319Y259090D01*
X487250Y259117D01*
X487201Y259120D01*
X487153Y259132D01*
X487079Y259126D01*
X487004Y259130D01*
X486957Y259116D01*
X486908Y259113D01*
X486839Y259083D01*
X486767Y259063D01*
X486727Y259035D01*
X486682Y259016D01*
X486584Y258938D01*
X486564Y258925D01*
X486558Y258917D01*
X486551Y258911D01*
X478760Y251120D01*
X478707Y251047D01*
X478647Y250977D01*
X478635Y250947D01*
X478616Y250921D01*
X478589Y250834D01*
X478555Y250749D01*
X478551Y250708D01*
X478544Y250686D01*
X478545Y250653D01*
X478537Y250582D01*
X478537Y239836D01*
X477222Y236662D01*
X474792Y234232D01*
X471618Y232917D01*
X468182Y232917D01*
X465008Y234232D01*
X462578Y236662D01*
X461263Y239836D01*
X461263Y255464D01*
X462578Y258638D01*
X465008Y261068D01*
X465869Y261425D01*
X465952Y261476D01*
X466038Y261522D01*
X466056Y261540D01*
X466078Y261554D01*
X466140Y261630D01*
X466207Y261700D01*
X466218Y261724D01*
X466235Y261744D01*
X466270Y261835D01*
X466311Y261923D01*
X466314Y261949D01*
X466323Y261973D01*
X466327Y262071D01*
X466338Y262167D01*
X466333Y262193D01*
X466334Y262219D01*
X466307Y262313D01*
X466286Y262408D01*
X466272Y262430D01*
X466265Y262455D01*
X466210Y262535D01*
X466160Y262619D01*
X466140Y262636D01*
X466125Y262657D01*
X466047Y262716D01*
X465973Y262779D01*
X465948Y262789D01*
X465927Y262804D01*
X465835Y262834D01*
X465745Y262871D01*
X465712Y262874D01*
X465694Y262880D01*
X465661Y262880D01*
X465578Y262889D01*
X448822Y262889D01*
X448726Y262874D01*
X448629Y262864D01*
X448605Y262854D01*
X448579Y262850D01*
X448493Y262804D01*
X448404Y262764D01*
X448385Y262747D01*
X448362Y262734D01*
X448295Y262664D01*
X448223Y262598D01*
X448211Y262575D01*
X448193Y262556D01*
X448152Y262468D01*
X448105Y262382D01*
X448100Y262357D01*
X448089Y262333D01*
X448078Y262236D01*
X448061Y262140D01*
X448065Y262114D01*
X448062Y262089D01*
X448083Y261993D01*
X448097Y261897D01*
X448109Y261874D01*
X448114Y261848D01*
X448164Y261765D01*
X448208Y261678D01*
X448227Y261659D01*
X448240Y261637D01*
X448314Y261574D01*
X448384Y261506D01*
X448412Y261490D01*
X448427Y261477D01*
X448458Y261465D01*
X448531Y261425D01*
X449392Y261068D01*
X451822Y258638D01*
X453137Y255464D01*
X453137Y239836D01*
X451822Y236662D01*
X449392Y234232D01*
X446218Y232917D01*
X442782Y232917D01*
X440240Y233970D01*
X440145Y233992D01*
X440052Y234021D01*
X440026Y234020D01*
X440001Y234026D01*
X439904Y234017D01*
X439807Y234015D01*
X439782Y234006D01*
X439756Y234003D01*
X439667Y233964D01*
X439576Y233930D01*
X439555Y233914D01*
X439531Y233903D01*
X439459Y233837D01*
X439383Y233776D01*
X439369Y233754D01*
X439350Y233737D01*
X439303Y233651D01*
X439250Y233570D01*
X439244Y233544D01*
X439231Y233521D01*
X439214Y233425D01*
X439190Y233331D01*
X439192Y233305D01*
X439188Y233279D01*
X439202Y233183D01*
X439210Y233086D01*
X439220Y233062D01*
X439224Y233036D01*
X439268Y232949D01*
X439306Y232859D01*
X439326Y232834D01*
X439335Y232817D01*
X439359Y232793D01*
X439411Y232729D01*
X474431Y197709D01*
X474504Y197656D01*
X474574Y197596D01*
X474604Y197584D01*
X474630Y197565D01*
X474717Y197538D01*
X474802Y197504D01*
X474843Y197500D01*
X474865Y197493D01*
X474898Y197494D01*
X474969Y197486D01*
X566728Y197486D01*
X650452Y113762D01*
X650526Y113709D01*
X650596Y113649D01*
X650626Y113637D01*
X650652Y113618D01*
X650739Y113591D01*
X650824Y113557D01*
X650865Y113553D01*
X650887Y113546D01*
X650919Y113547D01*
X650991Y113539D01*
X741553Y113539D01*
X741573Y113542D01*
G37*
G36*
X211468Y607064D02*
X211468Y607064D01*
X211487Y607062D01*
X211589Y607084D01*
X211691Y607100D01*
X211708Y607110D01*
X211728Y607114D01*
X211817Y607167D01*
X211908Y607216D01*
X211922Y607230D01*
X211939Y607240D01*
X212006Y607319D01*
X212078Y607394D01*
X212086Y607412D01*
X212099Y607427D01*
X212138Y607523D01*
X212181Y607617D01*
X212183Y607637D01*
X212191Y607655D01*
X212209Y607822D01*
X212209Y611597D01*
X213738Y615288D01*
X215640Y617190D01*
X215682Y617248D01*
X215731Y617300D01*
X215753Y617347D01*
X215784Y617389D01*
X215805Y617458D01*
X215835Y617523D01*
X215841Y617575D01*
X215856Y617625D01*
X215854Y617696D01*
X215862Y617767D01*
X215851Y617818D01*
X215850Y617870D01*
X215825Y617938D01*
X215810Y618008D01*
X215783Y618053D01*
X215765Y618101D01*
X215720Y618157D01*
X215684Y618219D01*
X215644Y618253D01*
X215611Y618293D01*
X215551Y618332D01*
X215497Y618379D01*
X215448Y618398D01*
X215404Y618426D01*
X215335Y618444D01*
X215268Y618471D01*
X215197Y618479D01*
X215166Y618487D01*
X215143Y618485D01*
X215102Y618489D01*
X214322Y618489D01*
X131994Y700816D01*
X131921Y700869D01*
X131851Y700929D01*
X131821Y700941D01*
X131795Y700960D01*
X131708Y700987D01*
X131623Y701021D01*
X131582Y701025D01*
X131560Y701032D01*
X131527Y701031D01*
X131456Y701039D01*
X61722Y701039D01*
X61702Y701036D01*
X61683Y701038D01*
X61581Y701016D01*
X61479Y701000D01*
X61462Y700990D01*
X61442Y700986D01*
X61353Y700933D01*
X61262Y700884D01*
X61248Y700870D01*
X61231Y700860D01*
X61164Y700781D01*
X61092Y700706D01*
X61084Y700688D01*
X61071Y700673D01*
X61032Y700577D01*
X60989Y700483D01*
X60987Y700463D01*
X60979Y700445D01*
X60961Y700278D01*
X60961Y671522D01*
X54073Y664634D01*
X54005Y664540D01*
X53935Y664445D01*
X53933Y664439D01*
X53929Y664434D01*
X53895Y664323D01*
X53859Y664211D01*
X53859Y664205D01*
X53857Y664199D01*
X53860Y664082D01*
X53861Y663965D01*
X53863Y663958D01*
X53863Y663953D01*
X53870Y663936D01*
X53908Y663804D01*
X54491Y662397D01*
X54491Y658403D01*
X52962Y654712D01*
X50138Y651888D01*
X46447Y650359D01*
X42453Y650359D01*
X38762Y651888D01*
X36860Y653790D01*
X36802Y653832D01*
X36750Y653881D01*
X36703Y653903D01*
X36661Y653934D01*
X36592Y653955D01*
X36527Y653985D01*
X36475Y653991D01*
X36425Y654006D01*
X36354Y654004D01*
X36283Y654012D01*
X36232Y654001D01*
X36180Y654000D01*
X36112Y653975D01*
X36042Y653960D01*
X35997Y653933D01*
X35949Y653915D01*
X35893Y653870D01*
X35831Y653834D01*
X35797Y653794D01*
X35757Y653761D01*
X35718Y653701D01*
X35671Y653647D01*
X35652Y653598D01*
X35624Y653554D01*
X35606Y653485D01*
X35579Y653418D01*
X35571Y653347D01*
X35563Y653316D01*
X35565Y653293D01*
X35561Y653252D01*
X35561Y642148D01*
X35572Y642078D01*
X35574Y642006D01*
X35592Y641957D01*
X35600Y641906D01*
X35634Y641842D01*
X35659Y641775D01*
X35691Y641734D01*
X35716Y641688D01*
X35768Y641639D01*
X35812Y641583D01*
X35856Y641555D01*
X35894Y641519D01*
X35959Y641489D01*
X36019Y641450D01*
X36070Y641437D01*
X36117Y641415D01*
X36188Y641407D01*
X36258Y641390D01*
X36310Y641394D01*
X36361Y641388D01*
X36432Y641403D01*
X36503Y641409D01*
X36551Y641429D01*
X36602Y641440D01*
X36663Y641477D01*
X36729Y641505D01*
X36785Y641550D01*
X36813Y641566D01*
X36828Y641584D01*
X36860Y641610D01*
X37909Y642659D01*
X39187Y643588D01*
X40596Y644305D01*
X42099Y644794D01*
X42927Y644925D01*
X42927Y635762D01*
X42930Y635742D01*
X42928Y635723D01*
X42950Y635621D01*
X42967Y635519D01*
X42976Y635502D01*
X42980Y635482D01*
X43033Y635393D01*
X43082Y635302D01*
X43096Y635288D01*
X43106Y635271D01*
X43185Y635204D01*
X43260Y635133D01*
X43278Y635124D01*
X43293Y635111D01*
X43389Y635073D01*
X43483Y635029D01*
X43503Y635027D01*
X43521Y635019D01*
X43688Y635001D01*
X44451Y635001D01*
X44451Y634999D01*
X43688Y634999D01*
X43668Y634996D01*
X43649Y634998D01*
X43547Y634976D01*
X43445Y634959D01*
X43428Y634950D01*
X43408Y634946D01*
X43319Y634893D01*
X43228Y634844D01*
X43214Y634830D01*
X43197Y634820D01*
X43130Y634741D01*
X43059Y634666D01*
X43050Y634648D01*
X43037Y634633D01*
X42998Y634537D01*
X42955Y634443D01*
X42953Y634423D01*
X42945Y634405D01*
X42927Y634238D01*
X42927Y625075D01*
X42099Y625206D01*
X40596Y625695D01*
X39187Y626412D01*
X37909Y627341D01*
X36860Y628390D01*
X36802Y628432D01*
X36750Y628481D01*
X36703Y628503D01*
X36661Y628534D01*
X36592Y628555D01*
X36527Y628585D01*
X36475Y628591D01*
X36425Y628606D01*
X36354Y628604D01*
X36283Y628612D01*
X36232Y628601D01*
X36180Y628600D01*
X36112Y628575D01*
X36042Y628560D01*
X35997Y628533D01*
X35949Y628515D01*
X35893Y628470D01*
X35831Y628434D01*
X35797Y628394D01*
X35757Y628361D01*
X35718Y628301D01*
X35671Y628247D01*
X35652Y628198D01*
X35624Y628154D01*
X35606Y628085D01*
X35579Y628018D01*
X35571Y627947D01*
X35563Y627916D01*
X35565Y627893D01*
X35561Y627852D01*
X35561Y616748D01*
X35572Y616678D01*
X35574Y616606D01*
X35592Y616557D01*
X35600Y616506D01*
X35634Y616442D01*
X35659Y616375D01*
X35691Y616334D01*
X35716Y616288D01*
X35768Y616239D01*
X35812Y616183D01*
X35856Y616155D01*
X35894Y616119D01*
X35959Y616089D01*
X36019Y616050D01*
X36070Y616037D01*
X36117Y616015D01*
X36188Y616007D01*
X36258Y615990D01*
X36310Y615994D01*
X36361Y615988D01*
X36432Y616003D01*
X36503Y616009D01*
X36551Y616029D01*
X36602Y616040D01*
X36663Y616077D01*
X36729Y616105D01*
X36785Y616150D01*
X36813Y616166D01*
X36828Y616184D01*
X36860Y616210D01*
X38762Y618112D01*
X42453Y619641D01*
X46447Y619641D01*
X50138Y618112D01*
X52962Y615288D01*
X54491Y611597D01*
X54491Y607822D01*
X54494Y607802D01*
X54492Y607783D01*
X54514Y607681D01*
X54530Y607579D01*
X54540Y607562D01*
X54544Y607542D01*
X54597Y607453D01*
X54646Y607362D01*
X54660Y607348D01*
X54670Y607331D01*
X54749Y607264D01*
X54824Y607192D01*
X54842Y607184D01*
X54857Y607171D01*
X54953Y607132D01*
X55047Y607089D01*
X55067Y607087D01*
X55085Y607079D01*
X55252Y607061D01*
X211448Y607061D01*
X211468Y607064D01*
G37*
G36*
X347615Y607439D02*
X347615Y607439D01*
X347731Y607440D01*
X347739Y607442D01*
X350531Y607442D01*
X350602Y607453D01*
X350674Y607455D01*
X350723Y607473D01*
X350774Y607481D01*
X350837Y607515D01*
X350905Y607540D01*
X350945Y607572D01*
X350991Y607597D01*
X351041Y607648D01*
X351097Y607693D01*
X351125Y607737D01*
X351161Y607775D01*
X351191Y607840D01*
X351230Y607900D01*
X351242Y607951D01*
X351264Y607998D01*
X351272Y608069D01*
X351290Y608139D01*
X351286Y608191D01*
X351291Y608242D01*
X351276Y608313D01*
X351271Y608384D01*
X351250Y608432D01*
X351239Y608483D01*
X351202Y608544D01*
X351174Y608610D01*
X351130Y608666D01*
X351113Y608694D01*
X351095Y608709D01*
X351070Y608741D01*
X289336Y670475D01*
X289278Y670516D01*
X289226Y670566D01*
X289179Y670588D01*
X289137Y670618D01*
X289068Y670639D01*
X289003Y670669D01*
X288951Y670675D01*
X288901Y670690D01*
X288830Y670689D01*
X288759Y670696D01*
X288708Y670685D01*
X288656Y670684D01*
X288588Y670659D01*
X288518Y670644D01*
X288474Y670618D01*
X288425Y670600D01*
X288369Y670555D01*
X288307Y670518D01*
X288273Y670478D01*
X288233Y670446D01*
X288194Y670386D01*
X288147Y670331D01*
X288128Y670283D01*
X288100Y670239D01*
X288082Y670170D01*
X288055Y670103D01*
X288047Y670032D01*
X288039Y670000D01*
X288041Y669977D01*
X288037Y669936D01*
X288037Y669523D01*
X282977Y664463D01*
X275823Y664463D01*
X270763Y669523D01*
X270763Y676677D01*
X275823Y681737D01*
X276236Y681737D01*
X276307Y681748D01*
X276379Y681750D01*
X276428Y681768D01*
X276479Y681776D01*
X276542Y681810D01*
X276610Y681835D01*
X276650Y681867D01*
X276696Y681892D01*
X276746Y681944D01*
X276802Y681988D01*
X276830Y682032D01*
X276866Y682070D01*
X276896Y682135D01*
X276935Y682195D01*
X276947Y682246D01*
X276969Y682293D01*
X276977Y682364D01*
X276995Y682434D01*
X276991Y682486D01*
X276996Y682537D01*
X276981Y682608D01*
X276976Y682679D01*
X276955Y682727D01*
X276944Y682778D01*
X276907Y682839D01*
X276879Y682905D01*
X276835Y682961D01*
X276818Y682989D01*
X276800Y683004D01*
X276775Y683036D01*
X265344Y694466D01*
X265271Y694519D01*
X265201Y694579D01*
X265171Y694591D01*
X265145Y694610D01*
X265058Y694637D01*
X264973Y694671D01*
X264932Y694675D01*
X264910Y694682D01*
X264877Y694681D01*
X264806Y694689D01*
X229398Y694689D01*
X229328Y694678D01*
X229256Y694676D01*
X229207Y694658D01*
X229156Y694650D01*
X229092Y694616D01*
X229025Y694591D01*
X228984Y694559D01*
X228938Y694534D01*
X228889Y694482D01*
X228833Y694438D01*
X228805Y694394D01*
X228769Y694356D01*
X228739Y694291D01*
X228700Y694231D01*
X228687Y694180D01*
X228665Y694133D01*
X228657Y694062D01*
X228640Y693992D01*
X228644Y693940D01*
X228638Y693889D01*
X228653Y693818D01*
X228659Y693747D01*
X228679Y693699D01*
X228690Y693648D01*
X228727Y693587D01*
X228755Y693521D01*
X228800Y693465D01*
X228816Y693437D01*
X228834Y693422D01*
X228860Y693390D01*
X230762Y691488D01*
X232291Y687797D01*
X232291Y683803D01*
X230762Y680112D01*
X227938Y677288D01*
X224247Y675759D01*
X220253Y675759D01*
X216562Y677288D01*
X213738Y680112D01*
X212209Y683803D01*
X212209Y687797D01*
X213738Y691488D01*
X215640Y693390D01*
X215682Y693448D01*
X215731Y693500D01*
X215753Y693547D01*
X215784Y693589D01*
X215805Y693658D01*
X215835Y693723D01*
X215841Y693775D01*
X215856Y693825D01*
X215854Y693896D01*
X215862Y693967D01*
X215851Y694018D01*
X215850Y694070D01*
X215825Y694138D01*
X215810Y694208D01*
X215783Y694253D01*
X215765Y694301D01*
X215720Y694357D01*
X215684Y694419D01*
X215644Y694453D01*
X215611Y694493D01*
X215551Y694532D01*
X215497Y694579D01*
X215448Y694598D01*
X215404Y694626D01*
X215335Y694644D01*
X215268Y694671D01*
X215197Y694679D01*
X215166Y694687D01*
X215143Y694685D01*
X215102Y694689D01*
X214322Y694689D01*
X189144Y719866D01*
X189071Y719919D01*
X189001Y719979D01*
X188971Y719991D01*
X188945Y720010D01*
X188858Y720037D01*
X188773Y720071D01*
X188732Y720075D01*
X188710Y720082D01*
X188677Y720081D01*
X188606Y720089D01*
X51598Y720089D01*
X51528Y720078D01*
X51456Y720076D01*
X51407Y720058D01*
X51356Y720050D01*
X51292Y720016D01*
X51225Y719991D01*
X51184Y719959D01*
X51138Y719934D01*
X51089Y719882D01*
X51033Y719838D01*
X51005Y719794D01*
X50969Y719756D01*
X50939Y719691D01*
X50900Y719631D01*
X50887Y719580D01*
X50865Y719533D01*
X50857Y719462D01*
X50840Y719392D01*
X50844Y719340D01*
X50838Y719289D01*
X50853Y719218D01*
X50859Y719147D01*
X50879Y719099D01*
X50890Y719048D01*
X50927Y718987D01*
X50955Y718921D01*
X51000Y718865D01*
X51016Y718837D01*
X51034Y718822D01*
X51060Y718790D01*
X52962Y716888D01*
X54491Y713197D01*
X54491Y709422D01*
X54494Y709402D01*
X54492Y709383D01*
X54514Y709281D01*
X54530Y709179D01*
X54540Y709162D01*
X54544Y709142D01*
X54597Y709053D01*
X54646Y708962D01*
X54660Y708948D01*
X54670Y708931D01*
X54749Y708864D01*
X54824Y708792D01*
X54842Y708784D01*
X54857Y708771D01*
X54953Y708732D01*
X55047Y708689D01*
X55067Y708687D01*
X55085Y708679D01*
X55252Y708661D01*
X134928Y708661D01*
X211085Y632504D01*
X211092Y632499D01*
X211096Y632493D01*
X211192Y632427D01*
X211285Y632361D01*
X211292Y632358D01*
X211299Y632354D01*
X211410Y632322D01*
X211520Y632288D01*
X211528Y632288D01*
X211536Y632286D01*
X211650Y632292D01*
X211766Y632295D01*
X211773Y632297D01*
X211781Y632298D01*
X211888Y632339D01*
X211997Y632379D01*
X212003Y632384D01*
X212011Y632387D01*
X212099Y632460D01*
X212189Y632533D01*
X212193Y632539D01*
X212199Y632545D01*
X212259Y632642D01*
X212322Y632740D01*
X212324Y632747D01*
X212328Y632754D01*
X212354Y632866D01*
X212382Y632978D01*
X212381Y632986D01*
X212383Y632994D01*
X212375Y633161D01*
X212325Y633477D01*
X221488Y633477D01*
X221508Y633480D01*
X221527Y633478D01*
X221629Y633500D01*
X221731Y633517D01*
X221748Y633526D01*
X221768Y633530D01*
X221857Y633583D01*
X221948Y633632D01*
X221962Y633646D01*
X221979Y633656D01*
X222046Y633735D01*
X222117Y633810D01*
X222126Y633828D01*
X222139Y633843D01*
X222177Y633939D01*
X222221Y634033D01*
X222223Y634053D01*
X222231Y634071D01*
X222249Y634238D01*
X222249Y635001D01*
X222251Y635001D01*
X222251Y634238D01*
X222254Y634218D01*
X222252Y634199D01*
X222274Y634097D01*
X222291Y633995D01*
X222300Y633978D01*
X222304Y633958D01*
X222357Y633869D01*
X222406Y633778D01*
X222420Y633764D01*
X222430Y633747D01*
X222509Y633680D01*
X222584Y633609D01*
X222602Y633600D01*
X222617Y633587D01*
X222713Y633548D01*
X222807Y633505D01*
X222827Y633503D01*
X222845Y633495D01*
X223012Y633477D01*
X232175Y633477D01*
X232044Y632649D01*
X231555Y631146D01*
X230838Y629737D01*
X229909Y628459D01*
X228860Y627410D01*
X228818Y627352D01*
X228769Y627300D01*
X228747Y627253D01*
X228716Y627211D01*
X228695Y627142D01*
X228665Y627077D01*
X228659Y627025D01*
X228644Y626975D01*
X228646Y626904D01*
X228638Y626833D01*
X228649Y626782D01*
X228650Y626730D01*
X228675Y626662D01*
X228690Y626592D01*
X228717Y626547D01*
X228735Y626499D01*
X228780Y626443D01*
X228816Y626381D01*
X228856Y626347D01*
X228889Y626307D01*
X228949Y626268D01*
X229003Y626221D01*
X229052Y626202D01*
X229096Y626174D01*
X229165Y626156D01*
X229232Y626129D01*
X229303Y626121D01*
X229334Y626113D01*
X229357Y626115D01*
X229398Y626111D01*
X328603Y626111D01*
X347063Y607651D01*
X347157Y607584D01*
X347252Y607513D01*
X347258Y607511D01*
X347263Y607508D01*
X347374Y607474D01*
X347485Y607437D01*
X347492Y607437D01*
X347498Y607435D01*
X347615Y607439D01*
G37*
G36*
X424008Y372122D02*
X424008Y372122D01*
X424080Y372124D01*
X424129Y372142D01*
X424180Y372150D01*
X424243Y372184D01*
X424311Y372209D01*
X424351Y372241D01*
X424397Y372266D01*
X424447Y372318D01*
X424503Y372362D01*
X424531Y372406D01*
X424567Y372444D01*
X424597Y372509D01*
X424636Y372569D01*
X424648Y372620D01*
X424670Y372667D01*
X424678Y372738D01*
X424696Y372808D01*
X424692Y372860D01*
X424697Y372911D01*
X424682Y372982D01*
X424677Y373053D01*
X424656Y373101D01*
X424645Y373152D01*
X424608Y373213D01*
X424580Y373279D01*
X424536Y373335D01*
X424519Y373363D01*
X424501Y373378D01*
X424476Y373410D01*
X395519Y402366D01*
X395446Y402419D01*
X395376Y402479D01*
X395346Y402491D01*
X395320Y402510D01*
X395233Y402537D01*
X395148Y402571D01*
X395107Y402575D01*
X395085Y402582D01*
X395052Y402581D01*
X394981Y402589D01*
X386163Y402589D01*
X386092Y402578D01*
X386020Y402576D01*
X385971Y402558D01*
X385920Y402550D01*
X385857Y402516D01*
X385789Y402491D01*
X385749Y402459D01*
X385703Y402434D01*
X385653Y402382D01*
X385597Y402338D01*
X385569Y402294D01*
X385533Y402256D01*
X385503Y402191D01*
X385464Y402131D01*
X385452Y402080D01*
X385430Y402033D01*
X385422Y401962D01*
X385404Y401892D01*
X385408Y401840D01*
X385402Y401789D01*
X385418Y401718D01*
X385423Y401647D01*
X385444Y401599D01*
X385455Y401548D01*
X385492Y401486D01*
X385520Y401421D01*
X385564Y401365D01*
X385581Y401337D01*
X385599Y401322D01*
X385624Y401290D01*
X389637Y397277D01*
X389637Y395223D01*
X381762Y395223D01*
X381742Y395220D01*
X381723Y395222D01*
X381621Y395200D01*
X381519Y395183D01*
X381502Y395174D01*
X381482Y395170D01*
X381393Y395117D01*
X381302Y395068D01*
X381288Y395054D01*
X381271Y395044D01*
X381204Y394965D01*
X381133Y394890D01*
X381124Y394872D01*
X381111Y394857D01*
X381073Y394761D01*
X381029Y394667D01*
X381027Y394647D01*
X381019Y394629D01*
X381001Y394462D01*
X381001Y393699D01*
X380999Y393699D01*
X380999Y394462D01*
X380997Y394473D01*
X380998Y394479D01*
X380996Y394487D01*
X380998Y394501D01*
X380976Y394603D01*
X380959Y394705D01*
X380950Y394722D01*
X380946Y394742D01*
X380893Y394831D01*
X380844Y394922D01*
X380830Y394936D01*
X380820Y394953D01*
X380741Y395020D01*
X380666Y395091D01*
X380648Y395100D01*
X380633Y395113D01*
X380537Y395152D01*
X380443Y395195D01*
X380423Y395197D01*
X380405Y395205D01*
X380238Y395223D01*
X372363Y395223D01*
X372363Y397277D01*
X373201Y398115D01*
X373242Y398173D01*
X373292Y398225D01*
X373314Y398272D01*
X373344Y398314D01*
X373365Y398383D01*
X373395Y398448D01*
X373401Y398500D01*
X373416Y398550D01*
X373415Y398621D01*
X373423Y398692D01*
X373411Y398743D01*
X373410Y398795D01*
X373385Y398863D01*
X373370Y398933D01*
X373344Y398978D01*
X373326Y399026D01*
X373281Y399082D01*
X373244Y399144D01*
X373205Y399178D01*
X373172Y399218D01*
X373112Y399257D01*
X373057Y399304D01*
X373009Y399323D01*
X372965Y399351D01*
X372896Y399369D01*
X372829Y399396D01*
X372758Y399404D01*
X372727Y399412D01*
X372703Y399410D01*
X372662Y399414D01*
X360372Y399414D01*
X357419Y402366D01*
X357346Y402419D01*
X357276Y402479D01*
X357246Y402491D01*
X357220Y402510D01*
X357133Y402537D01*
X357048Y402571D01*
X357007Y402575D01*
X356985Y402582D01*
X356952Y402581D01*
X356881Y402589D01*
X335363Y402589D01*
X335292Y402578D01*
X335220Y402576D01*
X335171Y402558D01*
X335120Y402550D01*
X335057Y402516D01*
X334989Y402491D01*
X334949Y402459D01*
X334903Y402434D01*
X334853Y402382D01*
X334797Y402338D01*
X334769Y402294D01*
X334733Y402256D01*
X334703Y402191D01*
X334664Y402131D01*
X334652Y402080D01*
X334630Y402033D01*
X334622Y401962D01*
X334604Y401892D01*
X334608Y401840D01*
X334602Y401789D01*
X334618Y401718D01*
X334623Y401647D01*
X334644Y401599D01*
X334655Y401548D01*
X334692Y401486D01*
X334720Y401421D01*
X334764Y401365D01*
X334781Y401337D01*
X334799Y401322D01*
X334824Y401290D01*
X338837Y397277D01*
X338837Y390123D01*
X333777Y385063D01*
X326623Y385063D01*
X321563Y390123D01*
X321563Y393711D01*
X321562Y393718D01*
X321562Y393720D01*
X321552Y393782D01*
X321550Y393854D01*
X321532Y393903D01*
X321524Y393954D01*
X321490Y394017D01*
X321465Y394085D01*
X321433Y394125D01*
X321408Y394171D01*
X321356Y394221D01*
X321312Y394277D01*
X321268Y394305D01*
X321230Y394341D01*
X321165Y394371D01*
X321105Y394410D01*
X321054Y394422D01*
X321007Y394444D01*
X320936Y394452D01*
X320866Y394470D01*
X320814Y394466D01*
X320763Y394471D01*
X320692Y394456D01*
X320621Y394451D01*
X320573Y394430D01*
X320522Y394419D01*
X320461Y394382D01*
X320395Y394354D01*
X320339Y394310D01*
X320311Y394293D01*
X320296Y394275D01*
X320264Y394250D01*
X315903Y389889D01*
X229398Y389889D01*
X229328Y389878D01*
X229256Y389876D01*
X229207Y389858D01*
X229156Y389850D01*
X229092Y389816D01*
X229025Y389791D01*
X228984Y389759D01*
X228938Y389734D01*
X228889Y389682D01*
X228833Y389638D01*
X228805Y389594D01*
X228769Y389556D01*
X228739Y389491D01*
X228700Y389431D01*
X228687Y389380D01*
X228665Y389333D01*
X228657Y389262D01*
X228640Y389192D01*
X228644Y389140D01*
X228638Y389089D01*
X228653Y389018D01*
X228659Y388947D01*
X228679Y388899D01*
X228690Y388848D01*
X228727Y388787D01*
X228755Y388721D01*
X228800Y388665D01*
X228816Y388637D01*
X228830Y388625D01*
X228833Y388620D01*
X228840Y388614D01*
X228860Y388590D01*
X229909Y387541D01*
X230838Y386263D01*
X231555Y384854D01*
X232044Y383351D01*
X232175Y382523D01*
X223012Y382523D01*
X222992Y382520D01*
X222973Y382522D01*
X222871Y382500D01*
X222769Y382483D01*
X222752Y382474D01*
X222732Y382470D01*
X222643Y382417D01*
X222552Y382368D01*
X222538Y382354D01*
X222521Y382344D01*
X222454Y382265D01*
X222383Y382190D01*
X222374Y382172D01*
X222361Y382157D01*
X222323Y382061D01*
X222279Y381967D01*
X222277Y381947D01*
X222269Y381929D01*
X222251Y381762D01*
X222251Y380238D01*
X222254Y380218D01*
X222252Y380199D01*
X222274Y380097D01*
X222291Y379995D01*
X222300Y379978D01*
X222304Y379958D01*
X222357Y379869D01*
X222406Y379778D01*
X222420Y379764D01*
X222430Y379747D01*
X222509Y379680D01*
X222584Y379609D01*
X222602Y379600D01*
X222617Y379587D01*
X222713Y379548D01*
X222807Y379505D01*
X222827Y379503D01*
X222845Y379495D01*
X223012Y379477D01*
X232175Y379477D01*
X232044Y378649D01*
X231555Y377146D01*
X230838Y375737D01*
X229909Y374459D01*
X228860Y373410D01*
X228818Y373352D01*
X228769Y373300D01*
X228747Y373253D01*
X228716Y373211D01*
X228695Y373142D01*
X228665Y373077D01*
X228659Y373025D01*
X228644Y372975D01*
X228646Y372904D01*
X228638Y372833D01*
X228649Y372782D01*
X228650Y372730D01*
X228675Y372662D01*
X228690Y372592D01*
X228717Y372547D01*
X228735Y372499D01*
X228780Y372443D01*
X228816Y372381D01*
X228856Y372347D01*
X228889Y372307D01*
X228949Y372268D01*
X229003Y372221D01*
X229052Y372202D01*
X229096Y372174D01*
X229165Y372156D01*
X229232Y372129D01*
X229303Y372121D01*
X229334Y372113D01*
X229357Y372115D01*
X229398Y372111D01*
X423937Y372111D01*
X424008Y372122D01*
G37*
G36*
X215172Y372122D02*
X215172Y372122D01*
X215244Y372124D01*
X215293Y372142D01*
X215344Y372150D01*
X215408Y372184D01*
X215475Y372209D01*
X215516Y372241D01*
X215562Y372266D01*
X215611Y372318D01*
X215667Y372362D01*
X215695Y372406D01*
X215731Y372444D01*
X215761Y372509D01*
X215800Y372569D01*
X215813Y372620D01*
X215835Y372667D01*
X215843Y372738D01*
X215860Y372808D01*
X215856Y372860D01*
X215862Y372911D01*
X215847Y372982D01*
X215841Y373053D01*
X215821Y373101D01*
X215810Y373152D01*
X215773Y373213D01*
X215745Y373279D01*
X215700Y373335D01*
X215684Y373363D01*
X215666Y373378D01*
X215640Y373410D01*
X214591Y374459D01*
X213662Y375737D01*
X212945Y377146D01*
X212456Y378649D01*
X212325Y379477D01*
X221488Y379477D01*
X221508Y379480D01*
X221527Y379478D01*
X221629Y379500D01*
X221731Y379517D01*
X221748Y379526D01*
X221768Y379530D01*
X221857Y379583D01*
X221948Y379632D01*
X221962Y379646D01*
X221979Y379656D01*
X222046Y379735D01*
X222117Y379810D01*
X222126Y379828D01*
X222139Y379843D01*
X222177Y379939D01*
X222221Y380033D01*
X222223Y380053D01*
X222231Y380071D01*
X222249Y380238D01*
X222249Y381762D01*
X222246Y381782D01*
X222248Y381801D01*
X222226Y381903D01*
X222209Y382005D01*
X222200Y382022D01*
X222196Y382042D01*
X222143Y382131D01*
X222094Y382222D01*
X222080Y382236D01*
X222070Y382253D01*
X221991Y382320D01*
X221916Y382391D01*
X221898Y382400D01*
X221883Y382413D01*
X221787Y382452D01*
X221693Y382495D01*
X221673Y382497D01*
X221655Y382505D01*
X221488Y382523D01*
X212325Y382523D01*
X212456Y383351D01*
X212945Y384854D01*
X213662Y386263D01*
X214591Y387541D01*
X215640Y388590D01*
X215682Y388648D01*
X215731Y388700D01*
X215753Y388747D01*
X215784Y388789D01*
X215805Y388858D01*
X215835Y388923D01*
X215841Y388975D01*
X215856Y389025D01*
X215854Y389096D01*
X215862Y389167D01*
X215851Y389218D01*
X215850Y389270D01*
X215825Y389338D01*
X215810Y389408D01*
X215783Y389453D01*
X215765Y389501D01*
X215720Y389557D01*
X215684Y389619D01*
X215644Y389653D01*
X215611Y389693D01*
X215551Y389732D01*
X215497Y389779D01*
X215448Y389798D01*
X215404Y389826D01*
X215335Y389844D01*
X215268Y389871D01*
X215197Y389879D01*
X215166Y389887D01*
X215143Y389885D01*
X215102Y389889D01*
X90497Y389889D01*
X78387Y401999D01*
X78293Y402066D01*
X78198Y402137D01*
X78192Y402139D01*
X78187Y402142D01*
X78076Y402176D01*
X77965Y402213D01*
X77958Y402213D01*
X77952Y402215D01*
X77835Y402211D01*
X77719Y402210D01*
X77711Y402208D01*
X74735Y402208D01*
X72027Y403330D01*
X69955Y405402D01*
X68833Y408110D01*
X68833Y411040D01*
X69955Y413748D01*
X70197Y413990D01*
X70238Y414048D01*
X70288Y414100D01*
X70310Y414147D01*
X70340Y414189D01*
X70361Y414258D01*
X70391Y414323D01*
X70397Y414375D01*
X70413Y414425D01*
X70411Y414496D01*
X70419Y414567D01*
X70407Y414618D01*
X70406Y414670D01*
X70382Y414738D01*
X70366Y414808D01*
X70340Y414853D01*
X70322Y414901D01*
X70277Y414957D01*
X70240Y415019D01*
X70201Y415053D01*
X70168Y415093D01*
X70108Y415132D01*
X70053Y415179D01*
X70005Y415198D01*
X69961Y415226D01*
X69892Y415244D01*
X69825Y415271D01*
X69754Y415279D01*
X69723Y415287D01*
X69699Y415285D01*
X69658Y415289D01*
X59044Y415289D01*
X58954Y415275D01*
X58863Y415267D01*
X58833Y415255D01*
X58801Y415250D01*
X58720Y415207D01*
X58636Y415171D01*
X58604Y415145D01*
X58584Y415134D01*
X58561Y415111D01*
X58506Y415066D01*
X54073Y410634D01*
X54004Y410538D01*
X53935Y410445D01*
X53933Y410439D01*
X53929Y410434D01*
X53895Y410322D01*
X53859Y410211D01*
X53859Y410205D01*
X53857Y410199D01*
X53860Y410082D01*
X53861Y409965D01*
X53863Y409958D01*
X53863Y409953D01*
X53870Y409936D01*
X53908Y409804D01*
X54491Y408397D01*
X54491Y404403D01*
X52962Y400712D01*
X50138Y397888D01*
X46447Y396359D01*
X42453Y396359D01*
X38762Y397888D01*
X36860Y399790D01*
X36802Y399832D01*
X36750Y399881D01*
X36703Y399903D01*
X36661Y399934D01*
X36592Y399955D01*
X36527Y399985D01*
X36475Y399991D01*
X36425Y400006D01*
X36354Y400004D01*
X36283Y400012D01*
X36232Y400001D01*
X36180Y400000D01*
X36112Y399975D01*
X36042Y399960D01*
X35997Y399933D01*
X35949Y399915D01*
X35893Y399870D01*
X35831Y399834D01*
X35797Y399794D01*
X35757Y399761D01*
X35718Y399701D01*
X35671Y399647D01*
X35652Y399598D01*
X35624Y399554D01*
X35606Y399485D01*
X35579Y399418D01*
X35571Y399347D01*
X35563Y399316D01*
X35565Y399293D01*
X35561Y399252D01*
X35561Y388148D01*
X35572Y388078D01*
X35574Y388006D01*
X35592Y387957D01*
X35600Y387906D01*
X35634Y387842D01*
X35659Y387775D01*
X35691Y387734D01*
X35716Y387688D01*
X35768Y387639D01*
X35812Y387583D01*
X35856Y387555D01*
X35894Y387519D01*
X35959Y387489D01*
X36019Y387450D01*
X36070Y387437D01*
X36117Y387415D01*
X36188Y387407D01*
X36258Y387390D01*
X36310Y387394D01*
X36361Y387388D01*
X36432Y387403D01*
X36503Y387409D01*
X36551Y387429D01*
X36602Y387440D01*
X36663Y387477D01*
X36729Y387505D01*
X36785Y387550D01*
X36813Y387566D01*
X36828Y387584D01*
X36860Y387610D01*
X37909Y388659D01*
X39187Y389588D01*
X40596Y390305D01*
X42099Y390794D01*
X42927Y390925D01*
X42927Y381762D01*
X42930Y381742D01*
X42928Y381723D01*
X42950Y381621D01*
X42967Y381519D01*
X42976Y381502D01*
X42980Y381482D01*
X43033Y381393D01*
X43082Y381302D01*
X43096Y381288D01*
X43106Y381271D01*
X43185Y381204D01*
X43260Y381133D01*
X43278Y381124D01*
X43293Y381111D01*
X43389Y381073D01*
X43483Y381029D01*
X43503Y381027D01*
X43521Y381019D01*
X43688Y381001D01*
X44451Y381001D01*
X44451Y380238D01*
X44454Y380218D01*
X44452Y380199D01*
X44474Y380097D01*
X44491Y379995D01*
X44500Y379978D01*
X44504Y379958D01*
X44557Y379869D01*
X44606Y379778D01*
X44620Y379764D01*
X44630Y379747D01*
X44709Y379680D01*
X44784Y379609D01*
X44802Y379600D01*
X44817Y379587D01*
X44913Y379548D01*
X45007Y379505D01*
X45027Y379503D01*
X45045Y379495D01*
X45212Y379477D01*
X54375Y379477D01*
X54244Y378649D01*
X53755Y377146D01*
X53038Y375737D01*
X52109Y374459D01*
X51060Y373410D01*
X51018Y373352D01*
X50969Y373300D01*
X50947Y373253D01*
X50916Y373211D01*
X50895Y373142D01*
X50865Y373077D01*
X50859Y373025D01*
X50844Y372975D01*
X50846Y372904D01*
X50838Y372833D01*
X50849Y372782D01*
X50850Y372730D01*
X50875Y372662D01*
X50890Y372592D01*
X50917Y372547D01*
X50935Y372499D01*
X50980Y372443D01*
X51016Y372381D01*
X51056Y372347D01*
X51089Y372307D01*
X51149Y372268D01*
X51203Y372221D01*
X51252Y372202D01*
X51296Y372174D01*
X51365Y372156D01*
X51432Y372129D01*
X51503Y372121D01*
X51534Y372113D01*
X51557Y372115D01*
X51598Y372111D01*
X215102Y372111D01*
X215172Y372122D01*
G37*
%LPC*%
G36*
X705199Y141604D02*
X705199Y141604D01*
X697285Y143725D01*
X690190Y147821D01*
X684396Y153615D01*
X680300Y160710D01*
X678179Y168624D01*
X678179Y176816D01*
X680300Y184730D01*
X684396Y191825D01*
X690190Y197619D01*
X697285Y201715D01*
X705199Y203836D01*
X713391Y203836D01*
X721305Y201715D01*
X728400Y197619D01*
X734194Y191825D01*
X738290Y184730D01*
X740411Y176816D01*
X740411Y168624D01*
X738290Y160710D01*
X734194Y153615D01*
X728400Y147821D01*
X721305Y143725D01*
X713391Y141604D01*
X705199Y141604D01*
G37*
%LPD*%
%LPC*%
G36*
X814718Y734529D02*
X814718Y734529D01*
X813229Y736018D01*
X813229Y770282D01*
X814718Y771771D01*
X848982Y771771D01*
X850471Y770282D01*
X850471Y736018D01*
X848982Y734529D01*
X814718Y734529D01*
G37*
%LPD*%
%LPC*%
G36*
X814718Y612529D02*
X814718Y612529D01*
X813229Y614018D01*
X813229Y648282D01*
X814718Y649771D01*
X848982Y649771D01*
X850471Y648282D01*
X850471Y614018D01*
X848982Y612529D01*
X814718Y612529D01*
G37*
%LPD*%
G36*
X622179Y334022D02*
X622179Y334022D01*
X622251Y334024D01*
X622300Y334042D01*
X622351Y334050D01*
X622414Y334084D01*
X622482Y334109D01*
X622522Y334141D01*
X622568Y334166D01*
X622618Y334217D01*
X622674Y334262D01*
X622702Y334306D01*
X622738Y334344D01*
X622768Y334409D01*
X622807Y334469D01*
X622820Y334520D01*
X622841Y334567D01*
X622849Y334638D01*
X622867Y334708D01*
X622863Y334760D01*
X622869Y334811D01*
X622853Y334882D01*
X622848Y334953D01*
X622827Y335001D01*
X622816Y335052D01*
X622779Y335113D01*
X622751Y335179D01*
X622707Y335235D01*
X622690Y335263D01*
X622672Y335278D01*
X622647Y335310D01*
X622350Y335607D01*
X622328Y335644D01*
X622323Y335648D01*
X622320Y335653D01*
X622230Y335727D01*
X622141Y335804D01*
X622135Y335806D01*
X622130Y335810D01*
X622022Y335852D01*
X621913Y335896D01*
X621905Y335897D01*
X621901Y335898D01*
X621883Y335899D01*
X621746Y335914D01*
X608022Y335914D01*
X586019Y357916D01*
X585946Y357969D01*
X585876Y358029D01*
X585846Y358041D01*
X585820Y358060D01*
X585733Y358087D01*
X585648Y358121D01*
X585607Y358125D01*
X585585Y358132D01*
X585552Y358131D01*
X585481Y358139D01*
X576663Y358139D01*
X576592Y358128D01*
X576520Y358126D01*
X576471Y358108D01*
X576420Y358100D01*
X576357Y358066D01*
X576289Y358041D01*
X576249Y358009D01*
X576203Y357984D01*
X576153Y357932D01*
X576097Y357888D01*
X576069Y357844D01*
X576033Y357806D01*
X576003Y357741D01*
X575964Y357681D01*
X575952Y357630D01*
X575930Y357583D01*
X575922Y357512D01*
X575904Y357442D01*
X575908Y357390D01*
X575902Y357339D01*
X575918Y357268D01*
X575923Y357197D01*
X575944Y357149D01*
X575955Y357098D01*
X575992Y357037D01*
X576020Y356971D01*
X576064Y356915D01*
X576081Y356887D01*
X576099Y356872D01*
X576124Y356840D01*
X580137Y352827D01*
X580137Y350773D01*
X572262Y350773D01*
X572242Y350770D01*
X572223Y350772D01*
X572121Y350750D01*
X572019Y350733D01*
X572002Y350724D01*
X571982Y350720D01*
X571893Y350667D01*
X571802Y350618D01*
X571788Y350604D01*
X571771Y350594D01*
X571704Y350515D01*
X571633Y350440D01*
X571624Y350422D01*
X571611Y350407D01*
X571573Y350311D01*
X571529Y350217D01*
X571527Y350197D01*
X571519Y350179D01*
X571501Y350012D01*
X571501Y349249D01*
X570738Y349249D01*
X570718Y349246D01*
X570699Y349248D01*
X570597Y349226D01*
X570495Y349209D01*
X570478Y349200D01*
X570458Y349196D01*
X570369Y349143D01*
X570278Y349094D01*
X570264Y349080D01*
X570247Y349070D01*
X570180Y348991D01*
X570109Y348916D01*
X570100Y348898D01*
X570087Y348883D01*
X570048Y348787D01*
X570005Y348693D01*
X570003Y348673D01*
X569995Y348655D01*
X569977Y348488D01*
X569977Y340613D01*
X567923Y340613D01*
X563141Y345395D01*
X563104Y345421D01*
X563073Y345455D01*
X563004Y345493D01*
X562941Y345538D01*
X562898Y345552D01*
X562857Y345574D01*
X562781Y345588D01*
X562706Y345611D01*
X562660Y345609D01*
X562615Y345618D01*
X562538Y345606D01*
X562460Y345604D01*
X562417Y345589D01*
X562372Y345582D01*
X562303Y345547D01*
X562229Y345520D01*
X562193Y345491D01*
X562153Y345470D01*
X562098Y345415D01*
X562037Y345366D01*
X562012Y345327D01*
X561980Y345295D01*
X561915Y345175D01*
X561904Y345159D01*
X561903Y345154D01*
X561899Y345148D01*
X561870Y345077D01*
X559798Y343005D01*
X557090Y341883D01*
X554344Y341883D01*
X554273Y341872D01*
X554201Y341870D01*
X554152Y341852D01*
X554101Y341844D01*
X554038Y341810D01*
X553970Y341785D01*
X553930Y341753D01*
X553884Y341728D01*
X553834Y341676D01*
X553778Y341632D01*
X553750Y341588D01*
X553714Y341550D01*
X553684Y341485D01*
X553645Y341425D01*
X553633Y341374D01*
X553611Y341327D01*
X553603Y341256D01*
X553585Y341186D01*
X553589Y341134D01*
X553584Y341083D01*
X553599Y341012D01*
X553604Y340941D01*
X553625Y340893D01*
X553636Y340842D01*
X553673Y340781D01*
X553701Y340715D01*
X553745Y340659D01*
X553762Y340631D01*
X553780Y340616D01*
X553805Y340584D01*
X560156Y334234D01*
X560229Y334181D01*
X560299Y334121D01*
X560329Y334109D01*
X560355Y334090D01*
X560442Y334063D01*
X560527Y334029D01*
X560568Y334025D01*
X560590Y334018D01*
X560623Y334019D01*
X560694Y334011D01*
X622108Y334011D01*
X622179Y334022D01*
G37*
%LPC*%
G36*
X415809Y720089D02*
X415809Y720089D01*
X412074Y721636D01*
X409216Y724494D01*
X407669Y728229D01*
X407669Y732271D01*
X409216Y736006D01*
X412074Y738864D01*
X415809Y740411D01*
X435091Y740411D01*
X438826Y738864D01*
X441684Y736006D01*
X443231Y732271D01*
X443231Y728229D01*
X441684Y724494D01*
X438826Y721636D01*
X435091Y720089D01*
X415809Y720089D01*
G37*
%LPD*%
%LPC*%
G36*
X722182Y283717D02*
X722182Y283717D01*
X719008Y285032D01*
X716578Y287462D01*
X715263Y290636D01*
X715263Y306264D01*
X716578Y309438D01*
X719008Y311868D01*
X722182Y313183D01*
X725618Y313183D01*
X728792Y311868D01*
X731222Y309438D01*
X732537Y306264D01*
X732537Y290636D01*
X731222Y287462D01*
X728792Y285032D01*
X725618Y283717D01*
X722182Y283717D01*
G37*
%LPD*%
%LPC*%
G36*
X747582Y283717D02*
X747582Y283717D01*
X744408Y285032D01*
X741978Y287462D01*
X740663Y290636D01*
X740663Y306264D01*
X741978Y309438D01*
X744408Y311868D01*
X747582Y313183D01*
X751018Y313183D01*
X754192Y311868D01*
X756622Y309438D01*
X757937Y306264D01*
X757937Y290636D01*
X756622Y287462D01*
X754192Y285032D01*
X751018Y283717D01*
X747582Y283717D01*
G37*
%LPD*%
%LPC*%
G36*
X696782Y359917D02*
X696782Y359917D01*
X693608Y361232D01*
X691178Y363662D01*
X689863Y366836D01*
X689863Y382464D01*
X691178Y385638D01*
X693608Y388068D01*
X696782Y389383D01*
X700218Y389383D01*
X703392Y388068D01*
X705822Y385638D01*
X707137Y382464D01*
X707137Y366836D01*
X705822Y363662D01*
X703392Y361232D01*
X700218Y359917D01*
X696782Y359917D01*
G37*
%LPD*%
%LPC*%
G36*
X277682Y632967D02*
X277682Y632967D01*
X274508Y634282D01*
X272078Y636712D01*
X270763Y639886D01*
X270763Y655514D01*
X272078Y658688D01*
X274508Y661118D01*
X277682Y662433D01*
X281118Y662433D01*
X284292Y661118D01*
X286722Y658688D01*
X288037Y655514D01*
X288037Y639886D01*
X286722Y636712D01*
X284292Y634282D01*
X281118Y632967D01*
X277682Y632967D01*
G37*
%LPD*%
%LPC*%
G36*
X645982Y359917D02*
X645982Y359917D01*
X642808Y361232D01*
X640378Y363662D01*
X639063Y366836D01*
X639063Y382464D01*
X640378Y385638D01*
X642808Y388068D01*
X645982Y389383D01*
X649418Y389383D01*
X652592Y388068D01*
X655022Y385638D01*
X656337Y382464D01*
X656337Y366836D01*
X655022Y363662D01*
X652592Y361232D01*
X649418Y359917D01*
X645982Y359917D01*
G37*
%LPD*%
%LPC*%
G36*
X671382Y359917D02*
X671382Y359917D01*
X668208Y361232D01*
X665778Y363662D01*
X664463Y366836D01*
X664463Y382464D01*
X665778Y385638D01*
X668208Y388068D01*
X671382Y389383D01*
X674818Y389383D01*
X677992Y388068D01*
X680422Y385638D01*
X681737Y382464D01*
X681737Y366836D01*
X680422Y363662D01*
X677992Y361232D01*
X674818Y359917D01*
X671382Y359917D01*
G37*
%LPD*%
%LPC*%
G36*
X155350Y769889D02*
X155350Y769889D01*
X151193Y771611D01*
X148011Y774793D01*
X146289Y778950D01*
X146289Y783450D01*
X148011Y787607D01*
X151193Y790789D01*
X155350Y792511D01*
X159850Y792511D01*
X164007Y790789D01*
X167189Y787607D01*
X168911Y783450D01*
X168911Y778950D01*
X167189Y774793D01*
X164007Y771611D01*
X159850Y769889D01*
X155350Y769889D01*
G37*
%LPD*%
%LPC*%
G36*
X106850Y769889D02*
X106850Y769889D01*
X102693Y771611D01*
X99511Y774793D01*
X97789Y778950D01*
X97789Y783450D01*
X99511Y787607D01*
X102693Y790789D01*
X106850Y792511D01*
X111350Y792511D01*
X115507Y790789D01*
X118689Y787607D01*
X120411Y783450D01*
X120411Y778950D01*
X118689Y774793D01*
X115507Y771611D01*
X111350Y769889D01*
X106850Y769889D01*
G37*
%LPD*%
%LPC*%
G36*
X753298Y707109D02*
X753298Y707109D01*
X751809Y708598D01*
X751809Y725702D01*
X753298Y727191D01*
X770402Y727191D01*
X771891Y725702D01*
X771891Y708598D01*
X770402Y707109D01*
X753298Y707109D01*
G37*
%LPD*%
%LPC*%
G36*
X898298Y707109D02*
X898298Y707109D01*
X896809Y708598D01*
X896809Y725702D01*
X898298Y727191D01*
X915402Y727191D01*
X916891Y725702D01*
X916891Y708598D01*
X915402Y707109D01*
X898298Y707109D01*
G37*
%LPD*%
%LPC*%
G36*
X898298Y657109D02*
X898298Y657109D01*
X896809Y658598D01*
X896809Y675702D01*
X898298Y677191D01*
X915402Y677191D01*
X916891Y675702D01*
X916891Y658598D01*
X915402Y657109D01*
X898298Y657109D01*
G37*
%LPD*%
%LPC*%
G36*
X347054Y776359D02*
X347054Y776359D01*
X342996Y778040D01*
X339890Y781146D01*
X338209Y785204D01*
X338209Y789596D01*
X339890Y793654D01*
X342996Y796760D01*
X347054Y798441D01*
X351446Y798441D01*
X355504Y796760D01*
X358610Y793654D01*
X360291Y789596D01*
X360291Y785204D01*
X358610Y781146D01*
X355504Y778040D01*
X351446Y776359D01*
X347054Y776359D01*
G37*
%LPD*%
%LPC*%
G36*
X270854Y776359D02*
X270854Y776359D01*
X266796Y778040D01*
X263690Y781146D01*
X262009Y785204D01*
X262009Y789596D01*
X263690Y793654D01*
X266796Y796760D01*
X270854Y798441D01*
X275246Y798441D01*
X279304Y796760D01*
X282410Y793654D01*
X284091Y789596D01*
X284091Y785204D01*
X282410Y781146D01*
X279304Y778040D01*
X275246Y776359D01*
X270854Y776359D01*
G37*
%LPD*%
%LPC*%
G36*
X370441Y777239D02*
X370441Y777239D01*
X364489Y783191D01*
X364489Y791609D01*
X370441Y797561D01*
X378859Y797561D01*
X384811Y791609D01*
X384811Y783191D01*
X378859Y777239D01*
X370441Y777239D01*
G37*
%LPD*%
%LPC*%
G36*
X220253Y777359D02*
X220253Y777359D01*
X216562Y778888D01*
X213738Y781712D01*
X212209Y785403D01*
X212209Y789397D01*
X213738Y793088D01*
X216562Y795912D01*
X220253Y797441D01*
X224247Y797441D01*
X227938Y795912D01*
X230762Y793088D01*
X232291Y789397D01*
X232291Y785403D01*
X230762Y781712D01*
X227938Y778888D01*
X224247Y777359D01*
X220253Y777359D01*
G37*
%LPD*%
%LPC*%
G36*
X42453Y777359D02*
X42453Y777359D01*
X38762Y778888D01*
X35938Y781712D01*
X34409Y785403D01*
X34409Y789397D01*
X35938Y793088D01*
X38762Y795912D01*
X42453Y797441D01*
X46447Y797441D01*
X50138Y795912D01*
X52962Y793088D01*
X54491Y789397D01*
X54491Y785403D01*
X52962Y781712D01*
X50138Y778888D01*
X46447Y777359D01*
X42453Y777359D01*
G37*
%LPD*%
%LPC*%
G36*
X220253Y650359D02*
X220253Y650359D01*
X216562Y651888D01*
X213738Y654712D01*
X212209Y658403D01*
X212209Y662397D01*
X213738Y666088D01*
X216562Y668912D01*
X220253Y670441D01*
X224247Y670441D01*
X227938Y668912D01*
X230762Y666088D01*
X232291Y662397D01*
X232291Y658403D01*
X230762Y654712D01*
X227938Y651888D01*
X224247Y650359D01*
X220253Y650359D01*
G37*
%LPD*%
%LPC*%
G36*
X220253Y726559D02*
X220253Y726559D01*
X216562Y728088D01*
X213738Y730912D01*
X212209Y734603D01*
X212209Y738597D01*
X213738Y742288D01*
X216562Y745112D01*
X220253Y746641D01*
X224247Y746641D01*
X227938Y745112D01*
X230762Y742288D01*
X232291Y738597D01*
X232291Y734603D01*
X230762Y730912D01*
X227938Y728088D01*
X224247Y726559D01*
X220253Y726559D01*
G37*
%LPD*%
%LPC*%
G36*
X644123Y435863D02*
X644123Y435863D01*
X639063Y440923D01*
X639063Y448077D01*
X644123Y453137D01*
X651277Y453137D01*
X656337Y448077D01*
X656337Y440923D01*
X651277Y435863D01*
X644123Y435863D01*
G37*
%LPD*%
%LPC*%
G36*
X720323Y435863D02*
X720323Y435863D01*
X715263Y440923D01*
X715263Y448077D01*
X720323Y453137D01*
X727477Y453137D01*
X732537Y448077D01*
X732537Y440923D01*
X727477Y435863D01*
X720323Y435863D01*
G37*
%LPD*%
%LPC*%
G36*
X426973Y655573D02*
X426973Y655573D01*
X426973Y664211D01*
X433870Y664211D01*
X435449Y663961D01*
X436970Y663466D01*
X438395Y662740D01*
X439689Y661800D01*
X440820Y660669D01*
X441760Y659375D01*
X442486Y657950D01*
X442981Y656429D01*
X443116Y655573D01*
X426973Y655573D01*
G37*
%LPD*%
%LPC*%
G36*
X407784Y655573D02*
X407784Y655573D01*
X407919Y656429D01*
X408414Y657950D01*
X409140Y659375D01*
X410080Y660669D01*
X411211Y661800D01*
X412505Y662740D01*
X413930Y663466D01*
X415451Y663961D01*
X417030Y664211D01*
X423927Y664211D01*
X423927Y655573D01*
X407784Y655573D01*
G37*
%LPD*%
%LPC*%
G36*
X426973Y643889D02*
X426973Y643889D01*
X426973Y652527D01*
X443116Y652527D01*
X442981Y651671D01*
X442486Y650150D01*
X441760Y648725D01*
X440820Y647431D01*
X439689Y646300D01*
X438395Y645360D01*
X436970Y644634D01*
X435449Y644139D01*
X433870Y643889D01*
X426973Y643889D01*
G37*
%LPD*%
%LPC*%
G36*
X417030Y643889D02*
X417030Y643889D01*
X415451Y644139D01*
X413930Y644634D01*
X412505Y645360D01*
X411211Y646300D01*
X410080Y647431D01*
X409140Y648725D01*
X408414Y650150D01*
X407919Y651671D01*
X407784Y652527D01*
X423927Y652527D01*
X423927Y643889D01*
X417030Y643889D01*
G37*
%LPD*%
%LPC*%
G36*
X649223Y299973D02*
X649223Y299973D01*
X649223Y313049D01*
X650219Y312851D01*
X651791Y312200D01*
X653206Y311255D01*
X654409Y310052D01*
X655354Y308637D01*
X656005Y307065D01*
X656337Y305397D01*
X656337Y299973D01*
X649223Y299973D01*
G37*
%LPD*%
%LPC*%
G36*
X623823Y299973D02*
X623823Y299973D01*
X623823Y313049D01*
X624819Y312851D01*
X626391Y312200D01*
X627806Y311255D01*
X629009Y310052D01*
X629954Y308637D01*
X630605Y307065D01*
X630937Y305397D01*
X630937Y299973D01*
X623823Y299973D01*
G37*
%LPD*%
%LPC*%
G36*
X598423Y299973D02*
X598423Y299973D01*
X598423Y313049D01*
X599419Y312851D01*
X600991Y312200D01*
X602406Y311255D01*
X603609Y310052D01*
X604554Y308637D01*
X605205Y307065D01*
X605537Y305397D01*
X605537Y299973D01*
X598423Y299973D01*
G37*
%LPD*%
%LPC*%
G36*
X471423Y322327D02*
X471423Y322327D01*
X478537Y322327D01*
X478537Y316903D01*
X478205Y315235D01*
X477554Y313663D01*
X476609Y312248D01*
X475406Y311045D01*
X473991Y310100D01*
X472419Y309449D01*
X471423Y309251D01*
X471423Y322327D01*
G37*
%LPD*%
%LPC*%
G36*
X496823Y246127D02*
X496823Y246127D01*
X503937Y246127D01*
X503937Y240703D01*
X503605Y239035D01*
X502954Y237463D01*
X502009Y236048D01*
X500806Y234845D01*
X499391Y233900D01*
X497819Y233249D01*
X496823Y233051D01*
X496823Y246127D01*
G37*
%LPD*%
%LPC*%
G36*
X598423Y296927D02*
X598423Y296927D01*
X605537Y296927D01*
X605537Y291503D01*
X605205Y289835D01*
X604554Y288263D01*
X603609Y286848D01*
X602406Y285645D01*
X600991Y284700D01*
X599419Y284049D01*
X598423Y283851D01*
X598423Y296927D01*
G37*
%LPD*%
%LPC*%
G36*
X623823Y296927D02*
X623823Y296927D01*
X630937Y296927D01*
X630937Y291503D01*
X630605Y289835D01*
X629954Y288263D01*
X629009Y286848D01*
X627806Y285645D01*
X626391Y284700D01*
X624819Y284049D01*
X623823Y283851D01*
X623823Y296927D01*
G37*
%LPD*%
%LPC*%
G36*
X649223Y296927D02*
X649223Y296927D01*
X656337Y296927D01*
X656337Y291503D01*
X656005Y289835D01*
X655354Y288263D01*
X654409Y286848D01*
X653206Y285645D01*
X651791Y284700D01*
X650219Y284049D01*
X649223Y283851D01*
X649223Y296927D01*
G37*
%LPD*%
%LPC*%
G36*
X766063Y299973D02*
X766063Y299973D01*
X766063Y305397D01*
X766395Y307065D01*
X767046Y308637D01*
X767991Y310052D01*
X769194Y311255D01*
X770609Y312200D01*
X772181Y312851D01*
X773177Y313049D01*
X773177Y299973D01*
X766063Y299973D01*
G37*
%LPD*%
%LPC*%
G36*
X588263Y299973D02*
X588263Y299973D01*
X588263Y305397D01*
X588595Y307065D01*
X589246Y308637D01*
X590191Y310052D01*
X591394Y311255D01*
X592809Y312200D01*
X594381Y312851D01*
X595377Y313049D01*
X595377Y299973D01*
X588263Y299973D01*
G37*
%LPD*%
%LPC*%
G36*
X613663Y299973D02*
X613663Y299973D01*
X613663Y305397D01*
X613995Y307065D01*
X614646Y308637D01*
X615591Y310052D01*
X616794Y311255D01*
X618209Y312200D01*
X619781Y312851D01*
X620777Y313049D01*
X620777Y299973D01*
X613663Y299973D01*
G37*
%LPD*%
%LPC*%
G36*
X639063Y299973D02*
X639063Y299973D01*
X639063Y305397D01*
X639395Y307065D01*
X640046Y308637D01*
X640991Y310052D01*
X642194Y311255D01*
X643609Y312200D01*
X645181Y312851D01*
X646177Y313049D01*
X646177Y299973D01*
X639063Y299973D01*
G37*
%LPD*%
%LPC*%
G36*
X492781Y233249D02*
X492781Y233249D01*
X491209Y233900D01*
X489794Y234845D01*
X488591Y236048D01*
X487646Y237463D01*
X486995Y239035D01*
X486663Y240703D01*
X486663Y246127D01*
X493777Y246127D01*
X493777Y233051D01*
X492781Y233249D01*
G37*
%LPD*%
%LPC*%
G36*
X619781Y284049D02*
X619781Y284049D01*
X618209Y284700D01*
X616794Y285645D01*
X615591Y286848D01*
X614646Y288263D01*
X613995Y289835D01*
X613663Y291503D01*
X613663Y296927D01*
X620777Y296927D01*
X620777Y283851D01*
X619781Y284049D01*
G37*
%LPD*%
%LPC*%
G36*
X594381Y284049D02*
X594381Y284049D01*
X592809Y284700D01*
X591394Y285645D01*
X590191Y286848D01*
X589246Y288263D01*
X588595Y289835D01*
X588263Y291503D01*
X588263Y296927D01*
X595377Y296927D01*
X595377Y283851D01*
X594381Y284049D01*
G37*
%LPD*%
%LPC*%
G36*
X645181Y284049D02*
X645181Y284049D01*
X643609Y284700D01*
X642194Y285645D01*
X640991Y286848D01*
X640046Y288263D01*
X639395Y289835D01*
X639063Y291503D01*
X639063Y296927D01*
X646177Y296927D01*
X646177Y283851D01*
X645181Y284049D01*
G37*
%LPD*%
%LPC*%
G36*
X772181Y284049D02*
X772181Y284049D01*
X770609Y284700D01*
X769194Y285645D01*
X767991Y286848D01*
X767046Y288263D01*
X766395Y289835D01*
X766063Y291503D01*
X766063Y296927D01*
X773177Y296927D01*
X773177Y283851D01*
X772181Y284049D01*
G37*
%LPD*%
%LPC*%
G36*
X467381Y309449D02*
X467381Y309449D01*
X465809Y310100D01*
X464394Y311045D01*
X463191Y312248D01*
X462246Y313663D01*
X461595Y315235D01*
X461263Y316903D01*
X461263Y322327D01*
X468377Y322327D01*
X468377Y309251D01*
X467381Y309449D01*
G37*
%LPD*%
%LPC*%
G36*
X763373Y668673D02*
X763373Y668673D01*
X763373Y677191D01*
X769684Y677191D01*
X770331Y677018D01*
X770910Y676683D01*
X771383Y676210D01*
X771718Y675631D01*
X771891Y674984D01*
X771891Y668673D01*
X763373Y668673D01*
G37*
%LPD*%
%LPC*%
G36*
X908373Y693673D02*
X908373Y693673D01*
X908373Y702191D01*
X914684Y702191D01*
X915331Y702018D01*
X915910Y701683D01*
X916383Y701210D01*
X916718Y700631D01*
X916891Y699984D01*
X916891Y693673D01*
X908373Y693673D01*
G37*
%LPD*%
%LPC*%
G36*
X896809Y693673D02*
X896809Y693673D01*
X896809Y699984D01*
X896982Y700631D01*
X897317Y701210D01*
X897790Y701683D01*
X898369Y702018D01*
X899016Y702191D01*
X905327Y702191D01*
X905327Y693673D01*
X896809Y693673D01*
G37*
%LPD*%
%LPC*%
G36*
X908373Y682109D02*
X908373Y682109D01*
X908373Y690627D01*
X916891Y690627D01*
X916891Y684316D01*
X916718Y683669D01*
X916383Y683090D01*
X915910Y682617D01*
X915331Y682282D01*
X914684Y682109D01*
X908373Y682109D01*
G37*
%LPD*%
%LPC*%
G36*
X751809Y668673D02*
X751809Y668673D01*
X751809Y674984D01*
X751982Y675631D01*
X752317Y676210D01*
X752790Y676683D01*
X753369Y677018D01*
X754016Y677191D01*
X760327Y677191D01*
X760327Y668673D01*
X751809Y668673D01*
G37*
%LPD*%
%LPC*%
G36*
X763373Y657109D02*
X763373Y657109D01*
X763373Y665627D01*
X771891Y665627D01*
X771891Y659316D01*
X771718Y658669D01*
X771383Y658090D01*
X770910Y657617D01*
X770331Y657282D01*
X769684Y657109D01*
X763373Y657109D01*
G37*
%LPD*%
%LPC*%
G36*
X899016Y682109D02*
X899016Y682109D01*
X898369Y682282D01*
X897790Y682617D01*
X897317Y683090D01*
X896982Y683669D01*
X896809Y684316D01*
X896809Y690627D01*
X905327Y690627D01*
X905327Y682109D01*
X899016Y682109D01*
G37*
%LPD*%
%LPC*%
G36*
X754016Y657109D02*
X754016Y657109D01*
X753369Y657282D01*
X752790Y657617D01*
X752317Y658090D01*
X751982Y658669D01*
X751809Y659316D01*
X751809Y665627D01*
X760327Y665627D01*
X760327Y657109D01*
X754016Y657109D01*
G37*
%LPD*%
%LPC*%
G36*
X395223Y276097D02*
X395223Y276097D01*
X395223Y282957D01*
X404242Y282957D01*
X404242Y278304D01*
X404069Y277657D01*
X403734Y277078D01*
X403261Y276605D01*
X402682Y276270D01*
X402035Y276097D01*
X395223Y276097D01*
G37*
%LPD*%
%LPC*%
G36*
X385365Y276097D02*
X385365Y276097D01*
X384718Y276270D01*
X384139Y276605D01*
X383666Y277078D01*
X383331Y277657D01*
X383158Y278304D01*
X383158Y282957D01*
X392177Y282957D01*
X392177Y276097D01*
X385365Y276097D01*
G37*
%LPD*%
%LPC*%
G36*
X223773Y763523D02*
X223773Y763523D01*
X223773Y771925D01*
X224601Y771794D01*
X226104Y771305D01*
X227513Y770588D01*
X228791Y769659D01*
X229909Y768541D01*
X230838Y767263D01*
X231555Y765854D01*
X232044Y764351D01*
X232175Y763523D01*
X223773Y763523D01*
G37*
%LPD*%
%LPC*%
G36*
X45973Y382523D02*
X45973Y382523D01*
X45973Y390925D01*
X46801Y390794D01*
X48304Y390305D01*
X49713Y389588D01*
X50991Y388659D01*
X52109Y387541D01*
X53038Y386263D01*
X53755Y384854D01*
X54244Y383351D01*
X54375Y382523D01*
X45973Y382523D01*
G37*
%LPD*%
%LPC*%
G36*
X45973Y763523D02*
X45973Y763523D01*
X45973Y771925D01*
X46801Y771794D01*
X48304Y771305D01*
X49713Y770588D01*
X50991Y769659D01*
X52109Y768541D01*
X53038Y767263D01*
X53755Y765854D01*
X54244Y764351D01*
X54375Y763523D01*
X45973Y763523D01*
G37*
%LPD*%
%LPC*%
G36*
X45973Y509523D02*
X45973Y509523D01*
X45973Y517925D01*
X46801Y517794D01*
X48304Y517305D01*
X49713Y516588D01*
X50991Y515659D01*
X52109Y514541D01*
X53038Y513263D01*
X53755Y511854D01*
X54244Y510351D01*
X54375Y509523D01*
X45973Y509523D01*
G37*
%LPD*%
%LPC*%
G36*
X223773Y509523D02*
X223773Y509523D01*
X223773Y517925D01*
X224601Y517794D01*
X226104Y517305D01*
X227513Y516588D01*
X228791Y515659D01*
X229909Y514541D01*
X230838Y513263D01*
X231555Y511854D01*
X232044Y510351D01*
X232175Y509523D01*
X223773Y509523D01*
G37*
%LPD*%
%LPC*%
G36*
X45973Y636523D02*
X45973Y636523D01*
X45973Y644925D01*
X46801Y644794D01*
X48304Y644305D01*
X49713Y643588D01*
X50991Y642659D01*
X52109Y641541D01*
X53038Y640263D01*
X53755Y638854D01*
X54244Y637351D01*
X54375Y636523D01*
X45973Y636523D01*
G37*
%LPD*%
%LPC*%
G36*
X223773Y636523D02*
X223773Y636523D01*
X223773Y644925D01*
X224601Y644794D01*
X226104Y644305D01*
X227513Y643588D01*
X228791Y642659D01*
X229909Y641541D01*
X230838Y640263D01*
X231555Y638854D01*
X232044Y637351D01*
X232175Y636523D01*
X223773Y636523D01*
G37*
%LPD*%
%LPC*%
G36*
X34525Y763523D02*
X34525Y763523D01*
X34656Y764351D01*
X35145Y765854D01*
X35862Y767263D01*
X36791Y768541D01*
X37909Y769659D01*
X39187Y770588D01*
X40596Y771305D01*
X42099Y771794D01*
X42927Y771925D01*
X42927Y763523D01*
X34525Y763523D01*
G37*
%LPD*%
%LPC*%
G36*
X212325Y763523D02*
X212325Y763523D01*
X212456Y764351D01*
X212945Y765854D01*
X213662Y767263D01*
X214591Y768541D01*
X215709Y769659D01*
X216987Y770588D01*
X218396Y771305D01*
X219899Y771794D01*
X220727Y771925D01*
X220727Y763523D01*
X212325Y763523D01*
G37*
%LPD*%
%LPC*%
G36*
X223773Y760477D02*
X223773Y760477D01*
X232175Y760477D01*
X232044Y759649D01*
X231555Y758146D01*
X230838Y756737D01*
X229909Y755459D01*
X228791Y754341D01*
X227513Y753412D01*
X226104Y752695D01*
X224601Y752206D01*
X223773Y752075D01*
X223773Y760477D01*
G37*
%LPD*%
%LPC*%
G36*
X45973Y633477D02*
X45973Y633477D01*
X54375Y633477D01*
X54244Y632649D01*
X53755Y631146D01*
X53038Y629737D01*
X52109Y628459D01*
X50991Y627341D01*
X49713Y626412D01*
X48304Y625695D01*
X46801Y625206D01*
X45973Y625075D01*
X45973Y633477D01*
G37*
%LPD*%
%LPC*%
G36*
X34525Y509523D02*
X34525Y509523D01*
X34656Y510351D01*
X35145Y511854D01*
X35862Y513263D01*
X36791Y514541D01*
X37909Y515659D01*
X39187Y516588D01*
X40596Y517305D01*
X42099Y517794D01*
X42927Y517925D01*
X42927Y509523D01*
X34525Y509523D01*
G37*
%LPD*%
%LPC*%
G36*
X45973Y506477D02*
X45973Y506477D01*
X54375Y506477D01*
X54244Y505649D01*
X53755Y504146D01*
X53038Y502737D01*
X52109Y501459D01*
X50991Y500341D01*
X49713Y499412D01*
X48304Y498695D01*
X46801Y498206D01*
X45973Y498075D01*
X45973Y506477D01*
G37*
%LPD*%
%LPC*%
G36*
X212325Y636523D02*
X212325Y636523D01*
X212456Y637351D01*
X212945Y638854D01*
X213662Y640263D01*
X214591Y641541D01*
X215709Y642659D01*
X216987Y643588D01*
X218396Y644305D01*
X219899Y644794D01*
X220727Y644925D01*
X220727Y636523D01*
X212325Y636523D01*
G37*
%LPD*%
%LPC*%
G36*
X212325Y509523D02*
X212325Y509523D01*
X212456Y510351D01*
X212945Y511854D01*
X213662Y513263D01*
X214591Y514541D01*
X215709Y515659D01*
X216987Y516588D01*
X218396Y517305D01*
X219899Y517794D01*
X220727Y517925D01*
X220727Y509523D01*
X212325Y509523D01*
G37*
%LPD*%
%LPC*%
G36*
X45973Y760477D02*
X45973Y760477D01*
X54375Y760477D01*
X54244Y759649D01*
X53755Y758146D01*
X53038Y756737D01*
X52109Y755459D01*
X50991Y754341D01*
X49713Y753412D01*
X48304Y752695D01*
X46801Y752206D01*
X45973Y752075D01*
X45973Y760477D01*
G37*
%LPD*%
%LPC*%
G36*
X42099Y752206D02*
X42099Y752206D01*
X40596Y752695D01*
X39187Y753412D01*
X37909Y754341D01*
X36791Y755459D01*
X35862Y756737D01*
X35145Y758146D01*
X34656Y759649D01*
X34525Y760477D01*
X42927Y760477D01*
X42927Y752075D01*
X42099Y752206D01*
G37*
%LPD*%
%LPC*%
G36*
X219899Y752206D02*
X219899Y752206D01*
X218396Y752695D01*
X216987Y753412D01*
X215709Y754341D01*
X214591Y755459D01*
X213662Y756737D01*
X212945Y758146D01*
X212456Y759649D01*
X212325Y760477D01*
X220727Y760477D01*
X220727Y752075D01*
X219899Y752206D01*
G37*
%LPD*%
%LPC*%
G36*
X42099Y498206D02*
X42099Y498206D01*
X40596Y498695D01*
X39187Y499412D01*
X37909Y500341D01*
X36791Y501459D01*
X35862Y502737D01*
X35145Y504146D01*
X34656Y505649D01*
X34525Y506477D01*
X42927Y506477D01*
X42927Y498075D01*
X42099Y498206D01*
G37*
%LPD*%
%LPC*%
G36*
X325373Y668273D02*
X325373Y668273D01*
X325373Y675387D01*
X327427Y675387D01*
X332487Y670327D01*
X332487Y668273D01*
X325373Y668273D01*
G37*
%LPD*%
%LPC*%
G36*
X319023Y299973D02*
X319023Y299973D01*
X319023Y307087D01*
X321077Y307087D01*
X326137Y302027D01*
X326137Y299973D01*
X319023Y299973D01*
G37*
%LPD*%
%LPC*%
G36*
X573023Y340613D02*
X573023Y340613D01*
X573023Y347727D01*
X580137Y347727D01*
X580137Y345673D01*
X575077Y340613D01*
X573023Y340613D01*
G37*
%LPD*%
%LPC*%
G36*
X325373Y658113D02*
X325373Y658113D01*
X325373Y665227D01*
X332487Y665227D01*
X332487Y663173D01*
X327427Y658113D01*
X325373Y658113D01*
G37*
%LPD*%
%LPC*%
G36*
X315213Y668273D02*
X315213Y668273D01*
X315213Y670327D01*
X320273Y675387D01*
X322327Y675387D01*
X322327Y668273D01*
X315213Y668273D01*
G37*
%LPD*%
%LPC*%
G36*
X382523Y385063D02*
X382523Y385063D01*
X382523Y392177D01*
X389637Y392177D01*
X389637Y390123D01*
X384577Y385063D01*
X382523Y385063D01*
G37*
%LPD*%
%LPC*%
G36*
X308863Y299973D02*
X308863Y299973D01*
X308863Y302027D01*
X313923Y307087D01*
X315977Y307087D01*
X315977Y299973D01*
X308863Y299973D01*
G37*
%LPD*%
%LPC*%
G36*
X319023Y289813D02*
X319023Y289813D01*
X319023Y296927D01*
X326137Y296927D01*
X326137Y294873D01*
X321077Y289813D01*
X319023Y289813D01*
G37*
%LPD*%
%LPC*%
G36*
X320273Y658113D02*
X320273Y658113D01*
X315213Y663173D01*
X315213Y665227D01*
X322327Y665227D01*
X322327Y658113D01*
X320273Y658113D01*
G37*
%LPD*%
%LPC*%
G36*
X313923Y289813D02*
X313923Y289813D01*
X308863Y294873D01*
X308863Y296927D01*
X315977Y296927D01*
X315977Y289813D01*
X313923Y289813D01*
G37*
%LPD*%
%LPC*%
G36*
X377423Y385063D02*
X377423Y385063D01*
X372363Y390123D01*
X372363Y392177D01*
X379477Y392177D01*
X379477Y385063D01*
X377423Y385063D01*
G37*
%LPD*%
%LPC*%
G36*
X761849Y667149D02*
X761849Y667149D01*
X761849Y667151D01*
X761851Y667151D01*
X761851Y667149D01*
X761849Y667149D01*
G37*
%LPD*%
%LPC*%
G36*
X323849Y666749D02*
X323849Y666749D01*
X323849Y666751D01*
X323851Y666751D01*
X323851Y666749D01*
X323849Y666749D01*
G37*
%LPD*%
%LPC*%
G36*
X596899Y298449D02*
X596899Y298449D01*
X596899Y298451D01*
X596901Y298451D01*
X596901Y298449D01*
X596899Y298449D01*
G37*
%LPD*%
%LPC*%
G36*
X44449Y507999D02*
X44449Y507999D01*
X44449Y508001D01*
X44451Y508001D01*
X44451Y507999D01*
X44449Y507999D01*
G37*
%LPD*%
%LPC*%
G36*
X647699Y298449D02*
X647699Y298449D01*
X647699Y298451D01*
X647701Y298451D01*
X647701Y298449D01*
X647699Y298449D01*
G37*
%LPD*%
%LPC*%
G36*
X425449Y654049D02*
X425449Y654049D01*
X425449Y654051D01*
X425451Y654051D01*
X425451Y654049D01*
X425449Y654049D01*
G37*
%LPD*%
%LPC*%
G36*
X906849Y692149D02*
X906849Y692149D01*
X906849Y692151D01*
X906851Y692151D01*
X906851Y692149D01*
X906849Y692149D01*
G37*
%LPD*%
%LPC*%
G36*
X317499Y298449D02*
X317499Y298449D01*
X317499Y298451D01*
X317501Y298451D01*
X317501Y298449D01*
X317499Y298449D01*
G37*
%LPD*%
%LPC*%
G36*
X222249Y761999D02*
X222249Y761999D01*
X222249Y762001D01*
X222251Y762001D01*
X222251Y761999D01*
X222249Y761999D01*
G37*
%LPD*%
%LPC*%
G36*
X44449Y761999D02*
X44449Y761999D01*
X44449Y762001D01*
X44451Y762001D01*
X44451Y761999D01*
X44449Y761999D01*
G37*
%LPD*%
%LPC*%
G36*
X622299Y298449D02*
X622299Y298449D01*
X622299Y298451D01*
X622301Y298451D01*
X622301Y298449D01*
X622299Y298449D01*
G37*
%LPD*%
D10*
X241300Y40640D03*
X266700Y40640D03*
X292100Y40640D03*
X317500Y40640D03*
X342900Y40640D03*
X368300Y40640D03*
X393700Y40640D03*
X419100Y40640D03*
X444500Y40640D03*
X469900Y40640D03*
X495300Y40640D03*
X520700Y40640D03*
X546100Y40640D03*
X571500Y40640D03*
X596900Y40640D03*
X622300Y40640D03*
X647700Y40640D03*
X673100Y40640D03*
X698500Y40640D03*
X723900Y40640D03*
D11*
X255905Y172720D03*
X709295Y172720D03*
D12*
X44450Y812800D03*
X44450Y787400D03*
X44450Y660400D03*
X44450Y635000D03*
X44450Y762000D03*
X44450Y736600D03*
X44450Y685800D03*
X44450Y711200D03*
X44450Y609600D03*
X44450Y584200D03*
X44450Y558800D03*
X44450Y533400D03*
X44450Y508000D03*
X44450Y482600D03*
X44450Y457200D03*
X44450Y431800D03*
X44450Y406400D03*
X44450Y381000D03*
X44450Y355600D03*
X44450Y330200D03*
X222250Y330200D03*
X222250Y355600D03*
X222250Y381000D03*
X222250Y406400D03*
X222250Y431800D03*
X222250Y457200D03*
X222250Y482600D03*
X222250Y508000D03*
X222250Y533400D03*
X222250Y558800D03*
X222250Y584200D03*
X222250Y609600D03*
X222250Y635000D03*
X222250Y660400D03*
X222250Y685800D03*
X222250Y711200D03*
X222250Y736600D03*
X222250Y762000D03*
X222250Y787400D03*
X222250Y812800D03*
X107950Y332500D03*
X133350Y332500D03*
X158750Y332500D03*
D13*
X596900Y304546D02*
X596900Y292354D01*
X622300Y292354D02*
X622300Y304546D01*
X647700Y304546D02*
X647700Y292354D01*
X673100Y292354D02*
X673100Y304546D01*
X698500Y304546D02*
X698500Y292354D01*
X723900Y292354D02*
X723900Y304546D01*
X749300Y304546D02*
X749300Y292354D01*
X774700Y292354D02*
X774700Y304546D01*
X774700Y368554D02*
X774700Y380746D01*
X749300Y380746D02*
X749300Y368554D01*
X723900Y368554D02*
X723900Y380746D01*
X698500Y380746D02*
X698500Y368554D01*
X673100Y368554D02*
X673100Y380746D01*
X647700Y380746D02*
X647700Y368554D01*
X622300Y368554D02*
X622300Y380746D01*
X596900Y380746D02*
X596900Y368554D01*
X342900Y253746D02*
X342900Y241554D01*
X368300Y241554D02*
X368300Y253746D01*
X495300Y253746D02*
X495300Y241554D01*
X495300Y317754D02*
X495300Y329946D01*
X393700Y253746D02*
X393700Y241554D01*
X419100Y241554D02*
X419100Y253746D01*
X469900Y253746D02*
X469900Y241554D01*
X444500Y241554D02*
X444500Y253746D01*
X469900Y317754D02*
X469900Y329946D01*
X444500Y329946D02*
X444500Y317754D01*
X419100Y317754D02*
X419100Y329946D01*
X393700Y329946D02*
X393700Y317754D01*
X368300Y317754D02*
X368300Y329946D01*
X342900Y329946D02*
X342900Y317754D01*
X279400Y540004D02*
X279400Y552196D01*
X279400Y641604D02*
X279400Y653796D01*
D14*
X273050Y787400D03*
X349250Y787400D03*
D15*
X417830Y654050D02*
X433070Y654050D01*
X433070Y679450D02*
X417830Y679450D01*
X417830Y704850D02*
X433070Y704850D01*
X433070Y730250D02*
X417830Y730250D01*
D16*
X906850Y667150D03*
X906850Y692150D03*
X906850Y717150D03*
X761850Y667150D03*
X761850Y717150D03*
D17*
X831850Y631150D03*
X831850Y753150D03*
D18*
X317500Y323850D03*
X317500Y298450D03*
X571500Y374650D03*
X571500Y349250D03*
X323850Y717550D03*
X323850Y666750D03*
D19*
X330200Y393700D03*
X381000Y393700D03*
D20*
X347980Y292100D03*
X363220Y292100D03*
D19*
X622300Y419100D03*
X698500Y419100D03*
X647700Y444500D03*
X723900Y444500D03*
D21*
X374650Y787400D03*
D22*
X279400Y673100D03*
X279400Y749300D03*
D23*
X393700Y284480D03*
X393700Y299720D03*
D24*
X241300Y117475D02*
X250825Y107950D01*
X307975Y107950D01*
X323850Y92075D01*
X336550Y92075D01*
X342900Y85725D01*
X342900Y40640D01*
D25*
X241300Y117475D03*
D24*
X76200Y298450D02*
X44450Y330200D01*
X76200Y298450D02*
X171450Y298450D01*
X257175Y212725D01*
X355600Y212725D01*
D25*
X355600Y212725D03*
D24*
X320675Y107950D02*
X330200Y98425D01*
X355600Y98425D01*
X368300Y85725D01*
X368300Y40640D01*
D25*
X320675Y107950D03*
D24*
X333375Y123825D02*
X311150Y146050D01*
X333375Y123825D02*
X393700Y123825D01*
D25*
X311150Y146050D03*
X393700Y123825D03*
D24*
X222250Y406400D02*
X228600Y412750D01*
X365125Y412750D01*
X384175Y95250D02*
X393700Y85725D01*
X393700Y40640D01*
D25*
X365125Y412750D03*
X384175Y95250D03*
D24*
X400050Y431800D02*
X222250Y431800D01*
D25*
X400050Y431800D03*
D24*
X225425Y454025D02*
X222250Y457200D01*
X225425Y454025D02*
X365125Y454025D01*
X403225Y101600D02*
X419100Y85725D01*
X419100Y40640D01*
D25*
X365125Y454025D03*
X403225Y101600D03*
D24*
X241300Y463550D02*
X222250Y482600D01*
X241300Y463550D02*
X381000Y463550D01*
D25*
X381000Y463550D03*
D24*
X50800Y603250D02*
X44450Y609600D01*
X50800Y603250D02*
X212725Y603250D01*
X219075Y596900D01*
X339725Y596900D01*
X346075Y590550D01*
X390525Y590550D01*
X393700Y593725D01*
X415925Y593725D01*
D25*
X415925Y593725D03*
D24*
X133350Y495300D02*
X44450Y584200D01*
X133350Y495300D02*
X460375Y495300D01*
X536575Y95250D02*
X546100Y85725D01*
X546100Y40640D01*
D25*
X460375Y495300D03*
X536575Y95250D03*
D24*
X44450Y558800D02*
X25400Y539750D01*
X25400Y342900D01*
X419100Y342900D01*
X434975Y327025D01*
X434975Y298450D01*
X555625Y298450D01*
D25*
X555625Y298450D03*
D24*
X123825Y454025D02*
X44450Y533400D01*
X292100Y177800D02*
X292100Y161925D01*
X495300Y161925D01*
X571500Y85725D01*
X571500Y40640D01*
D25*
X123825Y454025D03*
X292100Y177800D03*
D24*
X31750Y469900D02*
X44450Y482600D01*
X31750Y469900D02*
X31750Y368300D01*
X422275Y368300D01*
X441325Y349250D01*
X555625Y349250D01*
D25*
X555625Y349250D03*
D24*
X168275Y206375D02*
X85725Y288925D01*
X168275Y206375D02*
X349250Y206375D01*
X377825Y177800D01*
X504825Y177800D01*
X596900Y85725D01*
X596900Y40640D01*
D25*
X85725Y288925D03*
D24*
X44450Y431800D02*
X57150Y444500D01*
X454025Y444500D01*
X463550Y454025D01*
X593725Y454025D01*
D25*
X593725Y454025D03*
D24*
X57150Y419100D02*
X44450Y406400D01*
X57150Y419100D02*
X358775Y419100D01*
X361950Y422275D01*
X415925Y422275D01*
X476250Y361950D01*
X587375Y361950D01*
X609600Y339725D01*
X628650Y339725D01*
D25*
X628650Y339725D03*
D24*
X368300Y247650D02*
X352425Y231775D01*
X317500Y231775D01*
D25*
X317500Y231775D03*
D24*
X444500Y98425D02*
X444500Y40640D01*
D25*
X444500Y98425D03*
D26*
X647700Y98425D02*
X647700Y40640D01*
X393700Y282575D02*
X387350Y276225D01*
X339725Y276225D01*
X317500Y298450D01*
X393700Y284480D02*
X393700Y282575D01*
X596900Y298450D02*
X622300Y298450D01*
X647700Y298450D01*
X752475Y320675D02*
X774700Y298450D01*
X752475Y320675D02*
X666750Y320675D01*
X647700Y301625D01*
X647700Y298450D01*
X581025Y285750D02*
X469900Y285750D01*
X396875Y285750D01*
X581025Y285750D02*
X593725Y298450D01*
X396875Y285750D02*
X393700Y284480D01*
X593725Y298450D02*
X596900Y298450D01*
X469900Y288925D02*
X469900Y285750D01*
X762000Y669925D02*
X784225Y692150D01*
X906850Y692150D01*
X762000Y669925D02*
X761850Y667150D01*
X336550Y654050D02*
X323850Y666750D01*
X336550Y654050D02*
X425450Y654050D01*
X381000Y393700D02*
X368300Y381000D01*
X222250Y381000D01*
X44450Y381000D01*
X746125Y654050D02*
X758825Y666750D01*
X746125Y654050D02*
X425450Y654050D01*
X758825Y666750D02*
X761850Y667150D01*
X222250Y762000D02*
X44450Y762000D01*
D25*
X647700Y98425D03*
X469900Y288925D03*
D26*
X346075Y292100D02*
X346075Y323850D01*
X342900Y323850D01*
X346075Y292100D02*
X347980Y292100D01*
X342900Y323850D02*
X317500Y323850D01*
D24*
X44450Y660400D02*
X57150Y673100D01*
X57150Y698500D01*
X41275Y698500D01*
X31750Y708025D01*
X31750Y723900D01*
X190500Y723900D01*
X215900Y698500D01*
X266700Y698500D01*
X365125Y600075D01*
X454025Y139700D02*
X501650Y92075D01*
X514350Y92075D01*
X520700Y85725D01*
X520700Y40640D01*
D25*
X365125Y600075D03*
X454025Y139700D03*
D24*
X31750Y673100D02*
X44450Y685800D01*
X31750Y673100D02*
X31750Y596900D01*
X193675Y596900D01*
X219075Y571500D01*
X406400Y571500D01*
D25*
X406400Y571500D03*
D24*
X50800Y704850D02*
X44450Y711200D01*
X50800Y704850D02*
X133350Y704850D01*
X215900Y622300D01*
X327025Y622300D01*
X349250Y600075D01*
X374650Y146050D02*
X387350Y133350D01*
X431800Y133350D01*
X473075Y92075D01*
X488950Y92075D01*
X495300Y85725D01*
X495300Y40640D01*
D25*
X349250Y600075D03*
X374650Y146050D03*
D24*
X92075Y393700D02*
X76200Y409575D01*
X92075Y393700D02*
X314325Y393700D01*
X327025Y406400D01*
X358775Y406400D01*
X361950Y403225D01*
X374650Y403225D01*
X377825Y406400D01*
X396875Y406400D01*
X444500Y358775D01*
D25*
X76200Y409575D03*
X444500Y358775D03*
D24*
X387350Y117475D02*
X254000Y117475D01*
X387350Y117475D02*
X393700Y111125D01*
X444500Y111125D01*
X469900Y85725D01*
X469900Y40640D01*
D25*
X254000Y117475D03*
D24*
X12700Y781050D02*
X44450Y812800D01*
X12700Y781050D02*
X12700Y139700D01*
X292100Y139700D01*
X307975Y155575D01*
X422275Y155575D01*
X469900Y107950D01*
D25*
X469900Y107950D03*
D26*
X571500Y374650D02*
X596900Y374650D01*
X596900Y377825D02*
X625475Y406400D01*
X685800Y406400D01*
X698500Y419100D01*
X596900Y377825D02*
X596900Y374650D01*
X241300Y711200D02*
X279400Y749300D01*
X241300Y711200D02*
X222250Y711200D01*
X415925Y688975D02*
X425450Y679450D01*
X415925Y688975D02*
X371475Y688975D01*
X311150Y749300D01*
X279400Y749300D01*
D24*
X222250Y533400D02*
X225425Y530225D01*
X520700Y530225D01*
X609600Y98425D02*
X622300Y85725D01*
X622300Y40640D01*
D25*
X520700Y530225D03*
X609600Y98425D03*
D24*
X396875Y584200D02*
X222250Y584200D01*
D25*
X396875Y584200D03*
D24*
X463550Y342900D02*
X444500Y323850D01*
X463550Y342900D02*
X546100Y342900D01*
X558800Y330200D01*
X704850Y330200D01*
X749300Y374650D01*
X361950Y266700D02*
X342900Y247650D01*
X361950Y266700D02*
X482600Y266700D01*
X492125Y276225D01*
X669925Y276225D01*
X685800Y292100D01*
X685800Y307975D01*
D25*
X685800Y307975D03*
D24*
X393700Y247650D02*
X368300Y222250D01*
X260350Y222250D01*
X282575Y98425D02*
X288925Y92075D01*
X311150Y92075D01*
X317500Y85725D01*
X317500Y40640D01*
D25*
X260350Y222250D03*
X282575Y98425D03*
D24*
X498475Y171450D02*
X508000Y161925D01*
X498475Y171450D02*
X301625Y171450D01*
D25*
X508000Y161925D03*
X301625Y171450D03*
D24*
X419100Y247650D02*
X473075Y193675D01*
X565150Y193675D01*
X673100Y85725D01*
X673100Y40640D01*
X469900Y247650D02*
X488950Y266700D01*
X765175Y266700D01*
X787400Y288925D01*
X787400Y546100D01*
X279400Y546100D01*
X365125Y323850D02*
X365125Y292100D01*
X365125Y323850D02*
X368300Y323850D01*
X365125Y292100D02*
X363220Y292100D01*
X393700Y299720D02*
X393700Y323850D01*
M02*
