G04 EAGLE Gerber RS-274X export*
G75*
%MOMM*%
%FSLAX34Y34*%
%LPD*%
%INTop Copper*%
%IPPOS*%
%AMOC8*
5,1,8,0,0,1.08239X$1,22.5*%
G01*
%ADD10R,1.270000X9.525000*%
%ADD11R,1.270000X6.985000*%
%ADD12C,5.715000*%
%ADD13C,1.500000*%
%ADD14R,3.500000X1.700000*%
%ADD15R,1.700000X3.500000*%
%ADD16C,1.219200*%
%ADD17C,1.700000*%
%ADD18C,1.524000*%
%ADD19R,1.500000X1.500000*%
%ADD20R,3.216000X3.216000*%
%ADD21P,1.319650X8X292.500000*%
%ADD22P,1.319650X8X22.500000*%
%ADD23P,1.649562X8X22.500000*%
%ADD24P,1.319650X8X112.500000*%
%ADD25C,0.254000*%
%ADD26C,0.965200*%
%ADD27C,0.812800*%


D10*
X241300Y40640D03*
X266700Y40640D03*
X292100Y40640D03*
X317500Y40640D03*
D11*
X342900Y52070D03*
D10*
X368300Y40640D03*
X393700Y40640D03*
X419100Y40640D03*
X444500Y40640D03*
X469900Y40640D03*
X495300Y40640D03*
X520700Y40640D03*
X546100Y40640D03*
X571500Y40640D03*
X596900Y40640D03*
X622300Y40640D03*
X647700Y40640D03*
X673100Y40640D03*
X698500Y40640D03*
X723900Y40640D03*
D12*
X255905Y172720D03*
X709295Y172720D03*
D13*
X44450Y812800D03*
X44450Y787400D03*
X44450Y660400D03*
X44450Y635000D03*
X44450Y762000D03*
X44450Y736600D03*
X44450Y685800D03*
X44450Y711200D03*
X44450Y609600D03*
X44450Y584200D03*
X44450Y558800D03*
X44450Y533400D03*
X44450Y508000D03*
X44450Y482600D03*
X44450Y457200D03*
X44450Y431800D03*
X44450Y406400D03*
X44450Y381000D03*
X44450Y355600D03*
X44450Y330200D03*
X222250Y330200D03*
X222250Y355600D03*
X222250Y381000D03*
X222250Y406400D03*
X222250Y431800D03*
X222250Y457200D03*
X222250Y482600D03*
X222250Y508000D03*
X222250Y533400D03*
X222250Y558800D03*
X222250Y584200D03*
X222250Y609600D03*
X222250Y635000D03*
X222250Y660400D03*
X222250Y685800D03*
X222250Y711200D03*
X222250Y736600D03*
X222250Y762000D03*
X222250Y787400D03*
X222250Y812800D03*
D14*
X33350Y812800D03*
X33350Y787400D03*
X33350Y762000D03*
X33350Y736600D03*
X33350Y711200D03*
X33350Y685800D03*
X33350Y660400D03*
X33350Y635000D03*
X33350Y609600D03*
X33350Y584200D03*
X33350Y558800D03*
X33350Y533400D03*
X33350Y508000D03*
X33350Y482600D03*
X33350Y457200D03*
X33350Y431800D03*
X33350Y406400D03*
X33350Y381000D03*
X33350Y355600D03*
X33350Y330200D03*
X233350Y330200D03*
X233350Y355600D03*
X233350Y381000D03*
X233350Y406400D03*
X233350Y431800D03*
X233350Y457200D03*
X233350Y482600D03*
X233350Y508000D03*
X233350Y533400D03*
X233350Y558800D03*
X233350Y584200D03*
X233350Y609600D03*
X233350Y635000D03*
X233350Y660400D03*
X233350Y685800D03*
X233350Y711200D03*
X233350Y736600D03*
X233350Y762000D03*
X233350Y787400D03*
X233350Y812800D03*
D13*
X107950Y332500D03*
X133350Y332500D03*
X158750Y332500D03*
D15*
X107950Y322250D03*
X133350Y322250D03*
X158750Y322250D03*
D16*
X596900Y304546D02*
X596900Y292354D01*
X622300Y292354D02*
X622300Y304546D01*
X647700Y304546D02*
X647700Y292354D01*
X673100Y292354D02*
X673100Y304546D01*
X698500Y304546D02*
X698500Y292354D01*
X723900Y292354D02*
X723900Y304546D01*
X749300Y304546D02*
X749300Y292354D01*
X774700Y292354D02*
X774700Y304546D01*
X774700Y368554D02*
X774700Y380746D01*
X749300Y380746D02*
X749300Y368554D01*
X723900Y368554D02*
X723900Y380746D01*
X698500Y380746D02*
X698500Y368554D01*
X673100Y368554D02*
X673100Y380746D01*
X647700Y380746D02*
X647700Y368554D01*
X622300Y368554D02*
X622300Y380746D01*
X596900Y380746D02*
X596900Y368554D01*
X342900Y253746D02*
X342900Y241554D01*
X368300Y241554D02*
X368300Y253746D01*
X495300Y253746D02*
X495300Y241554D01*
X495300Y317754D02*
X495300Y329946D01*
X393700Y253746D02*
X393700Y241554D01*
X419100Y241554D02*
X419100Y253746D01*
X469900Y253746D02*
X469900Y241554D01*
X444500Y241554D02*
X444500Y253746D01*
X469900Y317754D02*
X469900Y329946D01*
X444500Y329946D02*
X444500Y317754D01*
X419100Y317754D02*
X419100Y329946D01*
X393700Y329946D02*
X393700Y317754D01*
X368300Y317754D02*
X368300Y329946D01*
X342900Y329946D02*
X342900Y317754D01*
X279400Y540004D02*
X279400Y552196D01*
X279400Y641604D02*
X279400Y653796D01*
D17*
X273050Y787400D03*
X349250Y787400D03*
D18*
X417830Y654050D02*
X433070Y654050D01*
X433070Y679450D02*
X417830Y679450D01*
X417830Y704850D02*
X433070Y704850D01*
X433070Y730250D02*
X417830Y730250D01*
D19*
X906850Y667150D03*
X906850Y692150D03*
X906850Y717150D03*
X761850Y667150D03*
X761850Y717150D03*
D20*
X831850Y631150D03*
X831850Y753150D03*
D21*
X317500Y323850D03*
X317500Y298450D03*
X571500Y374650D03*
X571500Y349250D03*
X323850Y717550D03*
X323850Y666750D03*
D22*
X330200Y393700D03*
X381000Y393700D03*
X622300Y419100D03*
X698500Y419100D03*
X647700Y444500D03*
X723900Y444500D03*
D23*
X374650Y787400D03*
D24*
X279400Y673100D03*
X279400Y749300D03*
D25*
X44450Y355600D02*
X33350Y355600D01*
X44450Y355600D02*
X76200Y323850D01*
X76200Y282575D01*
X241300Y117475D01*
D26*
X241300Y117475D03*
D25*
X44450Y330200D02*
X33350Y330200D01*
X355600Y212725D02*
X365125Y203200D01*
X365125Y44450D01*
X368300Y41275D01*
X368300Y40640D01*
D26*
X355600Y212725D03*
D25*
X233350Y330200D02*
X222250Y330200D01*
X209550Y342900D01*
X209550Y361950D01*
X215900Y368300D01*
X304800Y368300D01*
X304800Y187325D01*
X320675Y171450D01*
X320675Y107950D01*
D26*
X320675Y107950D03*
D25*
X233350Y355600D02*
X222250Y355600D01*
X233350Y355600D02*
X298450Y355600D01*
X298450Y187325D01*
X311150Y174625D01*
X311150Y146050D01*
X393700Y123825D02*
X393700Y40640D01*
D26*
X311150Y146050D03*
X393700Y123825D03*
D25*
X233350Y406400D02*
X222250Y406400D01*
X365125Y412750D02*
X368300Y409575D01*
X368300Y342900D01*
X384175Y327025D01*
X384175Y95250D01*
D26*
X365125Y412750D03*
X384175Y95250D03*
D25*
X233350Y431800D02*
X222250Y431800D01*
X400050Y431800D02*
X409575Y422275D01*
X409575Y107950D01*
X419100Y98425D01*
X419100Y40640D01*
D26*
X400050Y431800D03*
D25*
X233350Y457200D02*
X222250Y457200D01*
X365125Y454025D02*
X403225Y415925D01*
X403225Y101600D01*
D26*
X365125Y454025D03*
X403225Y101600D03*
D25*
X233350Y482600D02*
X222250Y482600D01*
X381000Y463550D02*
X428625Y415925D01*
X428625Y101600D01*
X444500Y85725D01*
X444500Y40640D01*
D26*
X381000Y463550D03*
D25*
X44450Y609600D02*
X33350Y609600D01*
X415925Y593725D02*
X546100Y463550D01*
X546100Y40640D01*
D26*
X415925Y593725D03*
D25*
X44450Y584200D02*
X33350Y584200D01*
X460375Y495300D02*
X536575Y419100D01*
X536575Y95250D01*
D26*
X460375Y495300D03*
X536575Y95250D03*
D25*
X44450Y558800D02*
X33350Y558800D01*
X555625Y298450D02*
X571500Y282575D01*
X571500Y40640D01*
D26*
X555625Y298450D03*
D25*
X44450Y533400D02*
X33350Y533400D01*
X123825Y454025D02*
X203200Y374650D01*
X203200Y292100D01*
X292100Y203200D01*
X292100Y177800D01*
D26*
X123825Y454025D03*
X292100Y177800D03*
D25*
X44450Y482600D02*
X33350Y482600D01*
X555625Y349250D02*
X584200Y320675D01*
X584200Y98425D01*
X596900Y85725D01*
X596900Y40640D01*
D26*
X555625Y349250D03*
D25*
X44450Y457200D02*
X33350Y457200D01*
X44450Y457200D02*
X85725Y415925D01*
X85725Y288925D01*
D26*
X85725Y288925D03*
D25*
X44450Y431800D02*
X33350Y431800D01*
X593725Y454025D02*
X612775Y434975D01*
X612775Y330200D01*
X635000Y307975D01*
X635000Y98425D01*
X622300Y85725D01*
X622300Y40640D01*
D26*
X593725Y454025D03*
D25*
X44450Y406400D02*
X33350Y406400D01*
X628650Y339725D02*
X663575Y304800D01*
X663575Y120650D01*
X698500Y85725D01*
X698500Y40640D01*
D26*
X628650Y339725D03*
D25*
X330200Y219075D02*
X317500Y231775D01*
X330200Y219075D02*
X330200Y98425D01*
X317500Y85725D01*
X317500Y40640D01*
D26*
X317500Y231775D03*
D25*
X444500Y247650D02*
X444500Y98425D01*
D26*
X444500Y98425D03*
D27*
X647700Y98425D02*
X647700Y40640D01*
X495300Y247650D02*
X469900Y273050D01*
X469900Y288925D02*
X469900Y323850D01*
X469900Y288925D02*
X469900Y273050D01*
X571500Y349250D02*
X596900Y323850D01*
X596900Y298450D01*
X647700Y298450D02*
X647700Y98425D01*
X44450Y762000D02*
X33350Y762000D01*
X33350Y508000D02*
X44450Y508000D01*
X44450Y635000D02*
X33350Y635000D01*
X60325Y520700D02*
X47625Y508000D01*
X60325Y520700D02*
X60325Y622300D01*
X47625Y635000D01*
X47625Y508000D02*
X44450Y508000D01*
X44450Y635000D02*
X47625Y635000D01*
X60325Y749300D02*
X47625Y762000D01*
X60325Y749300D02*
X60325Y622300D01*
X47625Y762000D02*
X44450Y762000D01*
X222250Y762000D02*
X233350Y762000D01*
X233350Y635000D02*
X222250Y635000D01*
X222250Y508000D02*
X233350Y508000D01*
X44450Y381000D02*
X33350Y381000D01*
X222250Y381000D02*
X233350Y381000D01*
X206375Y495300D02*
X207963Y496888D01*
X219075Y508000D01*
X206375Y495300D02*
X206375Y393700D01*
X219075Y381000D01*
X219075Y508000D02*
X222250Y508000D01*
X222250Y381000D02*
X219075Y381000D01*
X206375Y622300D02*
X207963Y623888D01*
X219075Y635000D01*
X206375Y622300D02*
X206375Y498475D01*
X219075Y635000D02*
X222250Y635000D01*
X206375Y498475D02*
X207963Y496888D01*
X206375Y749300D02*
X219075Y762000D01*
X206375Y749300D02*
X206375Y625475D01*
X219075Y762000D02*
X222250Y762000D01*
X206375Y625475D02*
X207963Y623888D01*
X314325Y657225D02*
X323850Y666750D01*
X314325Y657225D02*
X314325Y606425D01*
X260350Y552450D01*
X260350Y523875D01*
X247650Y511175D01*
X234950Y511175D01*
X233350Y508000D01*
X762000Y311150D02*
X774700Y298450D01*
X762000Y311150D02*
X762000Y666750D01*
X761850Y667150D01*
D26*
X647700Y98425D03*
X469900Y288925D03*
D27*
X374650Y787400D02*
X349250Y787400D01*
X330200Y393700D02*
X317500Y381000D01*
X317500Y323850D01*
X346075Y781050D02*
X349250Y784225D01*
X346075Y781050D02*
X346075Y615950D01*
X330200Y600075D01*
X330200Y393700D01*
X349250Y784225D02*
X349250Y787400D01*
X342900Y222250D02*
X342900Y52070D01*
X342900Y222250D02*
X330200Y234950D01*
X330200Y307975D01*
X317500Y320675D01*
X317500Y323850D01*
D25*
X44450Y660400D02*
X33350Y660400D01*
X365125Y600075D02*
X434975Y530225D01*
X434975Y276225D01*
X454025Y257175D01*
X454025Y139700D01*
D26*
X365125Y600075D03*
X454025Y139700D03*
D25*
X44450Y685800D02*
X33350Y685800D01*
X406400Y571500D02*
X441325Y536575D01*
X441325Y396875D01*
X520700Y317500D01*
X520700Y40640D01*
D26*
X406400Y571500D03*
D25*
X44450Y711200D02*
X33350Y711200D01*
X349250Y600075D02*
X355600Y593725D01*
X355600Y279400D01*
X377825Y257175D01*
X377825Y149225D01*
X374650Y146050D01*
D26*
X349250Y600075D03*
X374650Y146050D03*
D25*
X44450Y736600D02*
X33350Y736600D01*
X9525Y736600D01*
X9525Y425450D01*
X15875Y419100D01*
X76200Y419100D01*
X76200Y409575D01*
X444500Y358775D02*
X457200Y346075D01*
X457200Y260350D01*
X460375Y257175D01*
X460375Y146050D01*
X495300Y111125D01*
X495300Y40640D01*
D26*
X76200Y409575D03*
X444500Y358775D03*
D25*
X44450Y787400D02*
X33350Y787400D01*
X44450Y787400D02*
X95250Y736600D01*
X95250Y276225D01*
X254000Y117475D01*
D26*
X254000Y117475D03*
D25*
X44450Y812800D02*
X33350Y812800D01*
X469900Y107950D02*
X469900Y40640D01*
D26*
X469900Y107950D03*
D25*
X233350Y812800D02*
X222250Y812800D01*
X133350Y332500D02*
X133350Y322250D01*
D27*
X698500Y419100D02*
X723900Y444500D01*
X233350Y711200D02*
X222250Y711200D01*
X555625Y390525D02*
X571500Y374650D01*
X555625Y390525D02*
X555625Y476250D01*
X447675Y584200D01*
X447675Y660400D01*
X428625Y679450D01*
X425450Y679450D01*
X233350Y787400D02*
X222250Y787400D01*
X292100Y749300D02*
X323850Y717550D01*
X292100Y749300D02*
X292100Y768350D01*
X273050Y787400D01*
X233350Y787400D01*
D25*
X233350Y533400D02*
X222250Y533400D01*
X520700Y530225D02*
X584200Y466725D01*
X584200Y349250D01*
X609600Y323850D01*
X609600Y98425D01*
D26*
X520700Y530225D03*
X609600Y98425D03*
D25*
X233350Y584200D02*
X222250Y584200D01*
X622300Y419100D02*
X622300Y374650D01*
X406400Y711200D02*
X425450Y730250D01*
X406400Y711200D02*
X406400Y698500D01*
X412750Y692150D01*
X622300Y692150D01*
X622300Y419100D01*
X406400Y593725D02*
X396875Y584200D01*
X406400Y593725D02*
X406400Y698500D01*
D26*
X396875Y584200D03*
D25*
X233350Y609600D02*
X222250Y609600D01*
X647700Y444500D02*
X647700Y374650D01*
X647700Y704850D02*
X444500Y704850D01*
X425450Y704850D01*
X647700Y704850D02*
X647700Y444500D01*
X304800Y609600D02*
X233350Y609600D01*
X304800Y609600D02*
X304800Y682625D01*
X336550Y714375D01*
X336550Y793750D01*
X342900Y800100D01*
X444500Y800100D01*
X444500Y704850D01*
X279400Y673100D02*
X279400Y660400D01*
X279400Y647700D01*
X233350Y660400D02*
X222250Y660400D01*
X233350Y660400D02*
X279400Y660400D01*
X673100Y298450D02*
X698500Y273050D01*
X904875Y273050D01*
X904875Y666750D01*
X906850Y667150D01*
X698500Y298450D02*
X717550Y279400D01*
X895350Y279400D01*
X895350Y704850D01*
X904875Y714375D01*
X906850Y717150D01*
X739775Y314325D02*
X723900Y298450D01*
X739775Y314325D02*
X739775Y695325D01*
X758825Y714375D01*
X761850Y717150D01*
X723900Y346075D02*
X685800Y307975D01*
X723900Y346075D02*
X723900Y374650D01*
D26*
X685800Y307975D03*
D25*
X260350Y222250D02*
X222250Y184150D01*
X222250Y161925D01*
X282575Y101600D01*
X282575Y98425D01*
D26*
X260350Y222250D03*
X282575Y98425D03*
D25*
X508000Y311150D02*
X495300Y323850D01*
X508000Y311150D02*
X508000Y161925D01*
X301625Y171450D02*
X292100Y161925D01*
X292100Y40640D01*
D26*
X508000Y161925D03*
X301625Y171450D03*
M02*
