M48
;GenerationSoftware,Autodesk,EAGLE,9.6.1*%
;CreationDate,2026-08-28T00:24:35Z*%
FMAT,2
ICI,OFF
METRIC,TZ,000.000
T10C0.610
T9C0.813
T8C1.000
T7C1.016
T6C1.100
T5C1.500
T4C1.800
T3C2.200
T2C3.607
T1C6.985
%
G90
M71
T1
X48260Y41402
T2
X25590Y17272
X70930Y17272
T3
X83185Y75315
X83185Y63115
T4
X10610Y81150
X16060Y81150
T5
X10910Y78120
X15760Y78120
T6
X34925Y78740
X27305Y78740
T7
X42545Y73025
X37465Y78740
X42545Y70485
X42545Y67945
X42545Y65405
T8
X22225Y38100
X22225Y40640
X22225Y43180
X22225Y45720
X22225Y48260
X76185Y71715
X76185Y66715
X90685Y69215
X90685Y66715
X22225Y50800
X90685Y71715
X15875Y33250
X13335Y33250
X10795Y33250
X22225Y81280
X22225Y78740
X22225Y76200
X22225Y73660
X22225Y71120
X22225Y68580
X22225Y66040
X22225Y63500
X22225Y60960
X22225Y58420
X22225Y55880
X22225Y53340
X4445Y43180
X4445Y40640
X4445Y38100
X4445Y35560
X4445Y33020
X22225Y33020
X22225Y35560
X4445Y81280
X4445Y78740
X4445Y66040
X4445Y63500
X4445Y76200
X4445Y73660
X4445Y68580
X4445Y71120
X4445Y60960
X4445Y58420
X4445Y55880
X4445Y53340
X4445Y50800
X4445Y48260
X4445Y45720
T9
X57150Y37465
X57150Y34925
X32385Y71755
X32385Y66675
X33020Y39370
X38100Y39370
X62230Y41910
X69850Y41910
X64770Y44450
X72390Y44450
X27940Y67310
X27940Y74930
X41910Y24765
X59690Y29845
X62230Y29845
X64770Y29845
X67310Y29845
X69850Y29845
X72390Y29845
X74930Y29845
X77470Y29845
X77470Y37465
X74930Y37465
X72390Y37465
X69850Y37465
X67310Y37465
X64770Y37465
X62230Y37465
X59690Y37465
X34290Y24765
X36830Y24765
X49530Y24765
X49530Y32385
X39370Y24765
X46990Y24765
X44450Y24765
X46990Y32385
X44450Y32385
X41910Y32385
X39370Y32385
X36830Y32385
X34290Y32385
X27940Y54610
X27940Y64770
X31750Y32385
X31750Y29845
T10
X24130Y11747
X35560Y21273
X32067Y10795
X31115Y14605
X39370Y12382
X36513Y41275
X38418Y9525
X40005Y43180
X36513Y45402
X40323Y10160
X38100Y46355
X41593Y59372
X40640Y57150
X30162Y17145
X36513Y60007
X46990Y28892
X64770Y9843
X44450Y9843
X31750Y23177
X62865Y33973
X8573Y28892
X55562Y34925
X59372Y45402
X29210Y17780
X12382Y45402
X55562Y29845
X53657Y9525
X50800Y16192
X28257Y9843
X26035Y22225
X68580Y30797
X39688Y58420
X45402Y13970
X60960Y9843
X52070Y53022
X46990Y10795
X25400Y11747
X44450Y35878
X7620Y40958
X46037Y49530
X37465Y14605
X34925Y60007
M30