G04 EAGLE Gerber RS-274X export*
G75*
%MOMM*%
%FSLAX34Y34*%
%LPD*%
%INBoard Outline*%
%IPPOS*%
%AMOC8*
5,1,8,0,0,1.08239X$1,22.5*%
G01*
%ADD10C,0.000000*%
%ADD11C,0.127000*%
%ADD12C,0.254000*%


D10*
X2047875Y825500D02*
X2047886Y826357D01*
X2047917Y827214D01*
X2047970Y828069D01*
X2048043Y828923D01*
X2048138Y829775D01*
X2048253Y830625D01*
X2048389Y831471D01*
X2048546Y832314D01*
X2048724Y833152D01*
X2048922Y833986D01*
X2049140Y834815D01*
X2049379Y835638D01*
X2049638Y836455D01*
X2049917Y837266D01*
X2050215Y838069D01*
X2050534Y838865D01*
X2050871Y839653D01*
X2051228Y840432D01*
X2051604Y841203D01*
X2051999Y841964D01*
X2052412Y842714D01*
X2052844Y843455D01*
X2053293Y844185D01*
X2053761Y844903D01*
X2054246Y845610D01*
X2054748Y846305D01*
X2055267Y846987D01*
X2055803Y847656D01*
X2056354Y848312D01*
X2056922Y848954D01*
X2057506Y849582D01*
X2058104Y850196D01*
X2058718Y850794D01*
X2059346Y851378D01*
X2059988Y851946D01*
X2060644Y852497D01*
X2061313Y853033D01*
X2061995Y853552D01*
X2062690Y854054D01*
X2063397Y854539D01*
X2064115Y855007D01*
X2064845Y855456D01*
X2065586Y855888D01*
X2066336Y856301D01*
X2067097Y856696D01*
X2067868Y857072D01*
X2068647Y857429D01*
X2069435Y857766D01*
X2070231Y858085D01*
X2071034Y858383D01*
X2071845Y858662D01*
X2072662Y858921D01*
X2073485Y859160D01*
X2074314Y859378D01*
X2075148Y859576D01*
X2075986Y859754D01*
X2076829Y859911D01*
X2077675Y860047D01*
X2078525Y860162D01*
X2079377Y860257D01*
X2080231Y860330D01*
X2081086Y860383D01*
X2081943Y860414D01*
X2082800Y860425D01*
X2083657Y860414D01*
X2084514Y860383D01*
X2085369Y860330D01*
X2086223Y860257D01*
X2087075Y860162D01*
X2087925Y860047D01*
X2088771Y859911D01*
X2089614Y859754D01*
X2090452Y859576D01*
X2091286Y859378D01*
X2092115Y859160D01*
X2092938Y858921D01*
X2093755Y858662D01*
X2094566Y858383D01*
X2095369Y858085D01*
X2096165Y857766D01*
X2096953Y857429D01*
X2097732Y857072D01*
X2098503Y856696D01*
X2099264Y856301D01*
X2100014Y855888D01*
X2100755Y855456D01*
X2101485Y855007D01*
X2102203Y854539D01*
X2102910Y854054D01*
X2103605Y853552D01*
X2104287Y853033D01*
X2104956Y852497D01*
X2105612Y851946D01*
X2106254Y851378D01*
X2106882Y850794D01*
X2107496Y850196D01*
X2108094Y849582D01*
X2108678Y848954D01*
X2109246Y848312D01*
X2109797Y847656D01*
X2110333Y846987D01*
X2110852Y846305D01*
X2111354Y845610D01*
X2111839Y844903D01*
X2112307Y844185D01*
X2112756Y843455D01*
X2113188Y842714D01*
X2113601Y841964D01*
X2113996Y841203D01*
X2114372Y840432D01*
X2114729Y839653D01*
X2115066Y838865D01*
X2115385Y838069D01*
X2115683Y837266D01*
X2115962Y836455D01*
X2116221Y835638D01*
X2116460Y834815D01*
X2116678Y833986D01*
X2116876Y833152D01*
X2117054Y832314D01*
X2117211Y831471D01*
X2117347Y830625D01*
X2117462Y829775D01*
X2117557Y828923D01*
X2117630Y828069D01*
X2117683Y827214D01*
X2117714Y826357D01*
X2117725Y825500D01*
X2117714Y824643D01*
X2117683Y823786D01*
X2117630Y822931D01*
X2117557Y822077D01*
X2117462Y821225D01*
X2117347Y820375D01*
X2117211Y819529D01*
X2117054Y818686D01*
X2116876Y817848D01*
X2116678Y817014D01*
X2116460Y816185D01*
X2116221Y815362D01*
X2115962Y814545D01*
X2115683Y813734D01*
X2115385Y812931D01*
X2115066Y812135D01*
X2114729Y811347D01*
X2114372Y810568D01*
X2113996Y809797D01*
X2113601Y809036D01*
X2113188Y808286D01*
X2112756Y807545D01*
X2112307Y806815D01*
X2111839Y806097D01*
X2111354Y805390D01*
X2110852Y804695D01*
X2110333Y804013D01*
X2109797Y803344D01*
X2109246Y802688D01*
X2108678Y802046D01*
X2108094Y801418D01*
X2107496Y800804D01*
X2106882Y800206D01*
X2106254Y799622D01*
X2105612Y799054D01*
X2104956Y798503D01*
X2104287Y797967D01*
X2103605Y797448D01*
X2102910Y796946D01*
X2102203Y796461D01*
X2101485Y795993D01*
X2100755Y795544D01*
X2100014Y795112D01*
X2099264Y794699D01*
X2098503Y794304D01*
X2097732Y793928D01*
X2096953Y793571D01*
X2096165Y793234D01*
X2095369Y792915D01*
X2094566Y792617D01*
X2093755Y792338D01*
X2092938Y792079D01*
X2092115Y791840D01*
X2091286Y791622D01*
X2090452Y791424D01*
X2089614Y791246D01*
X2088771Y791089D01*
X2087925Y790953D01*
X2087075Y790838D01*
X2086223Y790743D01*
X2085369Y790670D01*
X2084514Y790617D01*
X2083657Y790586D01*
X2082800Y790575D01*
X2081943Y790586D01*
X2081086Y790617D01*
X2080231Y790670D01*
X2079377Y790743D01*
X2078525Y790838D01*
X2077675Y790953D01*
X2076829Y791089D01*
X2075986Y791246D01*
X2075148Y791424D01*
X2074314Y791622D01*
X2073485Y791840D01*
X2072662Y792079D01*
X2071845Y792338D01*
X2071034Y792617D01*
X2070231Y792915D01*
X2069435Y793234D01*
X2068647Y793571D01*
X2067868Y793928D01*
X2067097Y794304D01*
X2066336Y794699D01*
X2065586Y795112D01*
X2064845Y795544D01*
X2064115Y795993D01*
X2063397Y796461D01*
X2062690Y796946D01*
X2061995Y797448D01*
X2061313Y797967D01*
X2060644Y798503D01*
X2059988Y799054D01*
X2059346Y799622D01*
X2058718Y800206D01*
X2058104Y800804D01*
X2057506Y801418D01*
X2056922Y802046D01*
X2056354Y802688D01*
X2055803Y803344D01*
X2055267Y804013D01*
X2054748Y804695D01*
X2054246Y805390D01*
X2053761Y806097D01*
X2053293Y806815D01*
X2052844Y807545D01*
X2052412Y808286D01*
X2051999Y809036D01*
X2051604Y809797D01*
X2051228Y810568D01*
X2050871Y811347D01*
X2050534Y812135D01*
X2050215Y812931D01*
X2049917Y813734D01*
X2049638Y814545D01*
X2049379Y815362D01*
X2049140Y816185D01*
X2048922Y817014D01*
X2048724Y817848D01*
X2048546Y818686D01*
X2048389Y819529D01*
X2048253Y820375D01*
X2048138Y821225D01*
X2048043Y822077D01*
X2047970Y822931D01*
X2047917Y823786D01*
X2047886Y824643D01*
X2047875Y825500D01*
X2101850Y952500D02*
X2101855Y952905D01*
X2101870Y953310D01*
X2101895Y953715D01*
X2101930Y954118D01*
X2101974Y954521D01*
X2102029Y954923D01*
X2102093Y955323D01*
X2102167Y955721D01*
X2102251Y956117D01*
X2102345Y956512D01*
X2102448Y956903D01*
X2102561Y957293D01*
X2102683Y957679D01*
X2102815Y958062D01*
X2102956Y958442D01*
X2103107Y958818D01*
X2103266Y959191D01*
X2103435Y959559D01*
X2103613Y959923D01*
X2103799Y960283D01*
X2103995Y960638D01*
X2104199Y960988D01*
X2104411Y961333D01*
X2104632Y961672D01*
X2104862Y962007D01*
X2105099Y962335D01*
X2105344Y962657D01*
X2105598Y962974D01*
X2105858Y963284D01*
X2106127Y963587D01*
X2106403Y963884D01*
X2106686Y964174D01*
X2106976Y964457D01*
X2107273Y964733D01*
X2107576Y965002D01*
X2107886Y965262D01*
X2108203Y965516D01*
X2108525Y965761D01*
X2108853Y965998D01*
X2109188Y966228D01*
X2109527Y966449D01*
X2109872Y966661D01*
X2110222Y966865D01*
X2110577Y967061D01*
X2110937Y967247D01*
X2111301Y967425D01*
X2111669Y967594D01*
X2112042Y967753D01*
X2112418Y967904D01*
X2112798Y968045D01*
X2113181Y968177D01*
X2113567Y968299D01*
X2113957Y968412D01*
X2114348Y968515D01*
X2114743Y968609D01*
X2115139Y968693D01*
X2115537Y968767D01*
X2115937Y968831D01*
X2116339Y968886D01*
X2116742Y968930D01*
X2117145Y968965D01*
X2117550Y968990D01*
X2117955Y969005D01*
X2118360Y969010D01*
X2118765Y969005D01*
X2119170Y968990D01*
X2119575Y968965D01*
X2119978Y968930D01*
X2120381Y968886D01*
X2120783Y968831D01*
X2121183Y968767D01*
X2121581Y968693D01*
X2121977Y968609D01*
X2122372Y968515D01*
X2122763Y968412D01*
X2123153Y968299D01*
X2123539Y968177D01*
X2123922Y968045D01*
X2124302Y967904D01*
X2124678Y967753D01*
X2125051Y967594D01*
X2125419Y967425D01*
X2125783Y967247D01*
X2126143Y967061D01*
X2126498Y966865D01*
X2126848Y966661D01*
X2127193Y966449D01*
X2127532Y966228D01*
X2127867Y965998D01*
X2128195Y965761D01*
X2128517Y965516D01*
X2128834Y965262D01*
X2129144Y965002D01*
X2129447Y964733D01*
X2129744Y964457D01*
X2130034Y964174D01*
X2130317Y963884D01*
X2130593Y963587D01*
X2130862Y963284D01*
X2131122Y962974D01*
X2131376Y962657D01*
X2131621Y962335D01*
X2131858Y962007D01*
X2132088Y961672D01*
X2132309Y961333D01*
X2132521Y960988D01*
X2132725Y960638D01*
X2132921Y960283D01*
X2133107Y959923D01*
X2133285Y959559D01*
X2133454Y959191D01*
X2133613Y958818D01*
X2133764Y958442D01*
X2133905Y958062D01*
X2134037Y957679D01*
X2134159Y957293D01*
X2134272Y956903D01*
X2134375Y956512D01*
X2134469Y956117D01*
X2134553Y955721D01*
X2134627Y955323D01*
X2134691Y954923D01*
X2134746Y954521D01*
X2134790Y954118D01*
X2134825Y953715D01*
X2134850Y953310D01*
X2134865Y952905D01*
X2134870Y952500D01*
X2134865Y952095D01*
X2134850Y951690D01*
X2134825Y951285D01*
X2134790Y950882D01*
X2134746Y950479D01*
X2134691Y950077D01*
X2134627Y949677D01*
X2134553Y949279D01*
X2134469Y948883D01*
X2134375Y948488D01*
X2134272Y948097D01*
X2134159Y947707D01*
X2134037Y947321D01*
X2133905Y946938D01*
X2133764Y946558D01*
X2133613Y946182D01*
X2133454Y945809D01*
X2133285Y945441D01*
X2133107Y945077D01*
X2132921Y944717D01*
X2132725Y944362D01*
X2132521Y944012D01*
X2132309Y943667D01*
X2132088Y943328D01*
X2131858Y942993D01*
X2131621Y942665D01*
X2131376Y942343D01*
X2131122Y942026D01*
X2130862Y941716D01*
X2130593Y941413D01*
X2130317Y941116D01*
X2130034Y940826D01*
X2129744Y940543D01*
X2129447Y940267D01*
X2129144Y939998D01*
X2128834Y939738D01*
X2128517Y939484D01*
X2128195Y939239D01*
X2127867Y939002D01*
X2127532Y938772D01*
X2127193Y938551D01*
X2126848Y938339D01*
X2126498Y938135D01*
X2126143Y937939D01*
X2125783Y937753D01*
X2125419Y937575D01*
X2125051Y937406D01*
X2124678Y937247D01*
X2124302Y937096D01*
X2123922Y936955D01*
X2123539Y936823D01*
X2123153Y936701D01*
X2122763Y936588D01*
X2122372Y936485D01*
X2121977Y936391D01*
X2121581Y936307D01*
X2121183Y936233D01*
X2120783Y936169D01*
X2120381Y936114D01*
X2119978Y936070D01*
X2119575Y936035D01*
X2119170Y936010D01*
X2118765Y935995D01*
X2118360Y935990D01*
X2117955Y935995D01*
X2117550Y936010D01*
X2117145Y936035D01*
X2116742Y936070D01*
X2116339Y936114D01*
X2115937Y936169D01*
X2115537Y936233D01*
X2115139Y936307D01*
X2114743Y936391D01*
X2114348Y936485D01*
X2113957Y936588D01*
X2113567Y936701D01*
X2113181Y936823D01*
X2112798Y936955D01*
X2112418Y937096D01*
X2112042Y937247D01*
X2111669Y937406D01*
X2111301Y937575D01*
X2110937Y937753D01*
X2110577Y937939D01*
X2110222Y938135D01*
X2109872Y938339D01*
X2109527Y938551D01*
X2109188Y938772D01*
X2108853Y939002D01*
X2108525Y939239D01*
X2108203Y939484D01*
X2107886Y939738D01*
X2107576Y939998D01*
X2107273Y940267D01*
X2106976Y940543D01*
X2106686Y940826D01*
X2106403Y941116D01*
X2106127Y941413D01*
X2105858Y941716D01*
X2105598Y942026D01*
X2105344Y942343D01*
X2105099Y942665D01*
X2104862Y942993D01*
X2104632Y943328D01*
X2104411Y943667D01*
X2104199Y944012D01*
X2103995Y944362D01*
X2103799Y944717D01*
X2103613Y945077D01*
X2103435Y945441D01*
X2103266Y945809D01*
X2103107Y946182D01*
X2102956Y946558D01*
X2102815Y946938D01*
X2102683Y947321D01*
X2102561Y947707D01*
X2102448Y948097D01*
X2102345Y948488D01*
X2102251Y948883D01*
X2102167Y949279D01*
X2102093Y949677D01*
X2102029Y950077D01*
X2101974Y950479D01*
X2101930Y950882D01*
X2101895Y951285D01*
X2101870Y951690D01*
X2101855Y952095D01*
X2101850Y952500D01*
X1638300Y520700D02*
X1638304Y521012D01*
X1638315Y521323D01*
X1638334Y521634D01*
X1638361Y521945D01*
X1638396Y522255D01*
X1638437Y522563D01*
X1638487Y522871D01*
X1638544Y523178D01*
X1638609Y523483D01*
X1638681Y523786D01*
X1638760Y524087D01*
X1638847Y524387D01*
X1638941Y524684D01*
X1639042Y524979D01*
X1639151Y525271D01*
X1639267Y525560D01*
X1639390Y525847D01*
X1639519Y526130D01*
X1639656Y526410D01*
X1639800Y526687D01*
X1639950Y526960D01*
X1640107Y527229D01*
X1640270Y527494D01*
X1640440Y527756D01*
X1640617Y528013D01*
X1640799Y528265D01*
X1640988Y528513D01*
X1641183Y528757D01*
X1641383Y528995D01*
X1641590Y529229D01*
X1641802Y529457D01*
X1642020Y529680D01*
X1642243Y529898D01*
X1642471Y530110D01*
X1642705Y530317D01*
X1642943Y530517D01*
X1643187Y530712D01*
X1643435Y530901D01*
X1643687Y531083D01*
X1643944Y531260D01*
X1644206Y531430D01*
X1644471Y531593D01*
X1644740Y531750D01*
X1645013Y531900D01*
X1645290Y532044D01*
X1645570Y532181D01*
X1645853Y532310D01*
X1646140Y532433D01*
X1646429Y532549D01*
X1646721Y532658D01*
X1647016Y532759D01*
X1647313Y532853D01*
X1647613Y532940D01*
X1647914Y533019D01*
X1648217Y533091D01*
X1648522Y533156D01*
X1648829Y533213D01*
X1649137Y533263D01*
X1649445Y533304D01*
X1649755Y533339D01*
X1650066Y533366D01*
X1650377Y533385D01*
X1650688Y533396D01*
X1651000Y533400D01*
X1651312Y533396D01*
X1651623Y533385D01*
X1651934Y533366D01*
X1652245Y533339D01*
X1652555Y533304D01*
X1652863Y533263D01*
X1653171Y533213D01*
X1653478Y533156D01*
X1653783Y533091D01*
X1654086Y533019D01*
X1654387Y532940D01*
X1654687Y532853D01*
X1654984Y532759D01*
X1655279Y532658D01*
X1655571Y532549D01*
X1655860Y532433D01*
X1656147Y532310D01*
X1656430Y532181D01*
X1656710Y532044D01*
X1656987Y531900D01*
X1657260Y531750D01*
X1657529Y531593D01*
X1657794Y531430D01*
X1658056Y531260D01*
X1658313Y531083D01*
X1658565Y530901D01*
X1658813Y530712D01*
X1659057Y530517D01*
X1659295Y530317D01*
X1659529Y530110D01*
X1659757Y529898D01*
X1659980Y529680D01*
X1660198Y529457D01*
X1660410Y529229D01*
X1660617Y528995D01*
X1660817Y528757D01*
X1661012Y528513D01*
X1661201Y528265D01*
X1661383Y528013D01*
X1661560Y527756D01*
X1661730Y527494D01*
X1661893Y527229D01*
X1662050Y526960D01*
X1662200Y526687D01*
X1662344Y526410D01*
X1662481Y526130D01*
X1662610Y525847D01*
X1662733Y525560D01*
X1662849Y525271D01*
X1662958Y524979D01*
X1663059Y524684D01*
X1663153Y524387D01*
X1663240Y524087D01*
X1663319Y523786D01*
X1663391Y523483D01*
X1663456Y523178D01*
X1663513Y522871D01*
X1663563Y522563D01*
X1663604Y522255D01*
X1663639Y521945D01*
X1663666Y521634D01*
X1663685Y521323D01*
X1663696Y521012D01*
X1663700Y520700D01*
X1663696Y520388D01*
X1663685Y520077D01*
X1663666Y519766D01*
X1663639Y519455D01*
X1663604Y519145D01*
X1663563Y518837D01*
X1663513Y518529D01*
X1663456Y518222D01*
X1663391Y517917D01*
X1663319Y517614D01*
X1663240Y517313D01*
X1663153Y517013D01*
X1663059Y516716D01*
X1662958Y516421D01*
X1662849Y516129D01*
X1662733Y515840D01*
X1662610Y515553D01*
X1662481Y515270D01*
X1662344Y514990D01*
X1662200Y514713D01*
X1662050Y514440D01*
X1661893Y514171D01*
X1661730Y513906D01*
X1661560Y513644D01*
X1661383Y513387D01*
X1661201Y513135D01*
X1661012Y512887D01*
X1660817Y512643D01*
X1660617Y512405D01*
X1660410Y512171D01*
X1660198Y511943D01*
X1659980Y511720D01*
X1659757Y511502D01*
X1659529Y511290D01*
X1659295Y511083D01*
X1659057Y510883D01*
X1658813Y510688D01*
X1658565Y510499D01*
X1658313Y510317D01*
X1658056Y510140D01*
X1657794Y509970D01*
X1657529Y509807D01*
X1657260Y509650D01*
X1656987Y509500D01*
X1656710Y509356D01*
X1656430Y509219D01*
X1656147Y509090D01*
X1655860Y508967D01*
X1655571Y508851D01*
X1655279Y508742D01*
X1654984Y508641D01*
X1654687Y508547D01*
X1654387Y508460D01*
X1654086Y508381D01*
X1653783Y508309D01*
X1653478Y508244D01*
X1653171Y508187D01*
X1652863Y508137D01*
X1652555Y508096D01*
X1652245Y508061D01*
X1651934Y508034D01*
X1651623Y508015D01*
X1651312Y508004D01*
X1651000Y508000D01*
X1650688Y508004D01*
X1650377Y508015D01*
X1650066Y508034D01*
X1649755Y508061D01*
X1649445Y508096D01*
X1649137Y508137D01*
X1648829Y508187D01*
X1648522Y508244D01*
X1648217Y508309D01*
X1647914Y508381D01*
X1647613Y508460D01*
X1647313Y508547D01*
X1647016Y508641D01*
X1646721Y508742D01*
X1646429Y508851D01*
X1646140Y508967D01*
X1645853Y509090D01*
X1645570Y509219D01*
X1645290Y509356D01*
X1645013Y509500D01*
X1644740Y509650D01*
X1644471Y509807D01*
X1644206Y509970D01*
X1643944Y510140D01*
X1643687Y510317D01*
X1643435Y510499D01*
X1643187Y510688D01*
X1642943Y510883D01*
X1642705Y511083D01*
X1642471Y511290D01*
X1642243Y511502D01*
X1642020Y511720D01*
X1641802Y511943D01*
X1641590Y512171D01*
X1641383Y512405D01*
X1641183Y512643D01*
X1640988Y512887D01*
X1640799Y513135D01*
X1640617Y513387D01*
X1640440Y513644D01*
X1640270Y513906D01*
X1640107Y514171D01*
X1639950Y514440D01*
X1639800Y514713D01*
X1639656Y514990D01*
X1639519Y515270D01*
X1639390Y515553D01*
X1639267Y515840D01*
X1639151Y516129D01*
X1639042Y516421D01*
X1638941Y516716D01*
X1638847Y517013D01*
X1638760Y517313D01*
X1638681Y517614D01*
X1638609Y517917D01*
X1638544Y518222D01*
X1638487Y518529D01*
X1638437Y518837D01*
X1638396Y519145D01*
X1638361Y519455D01*
X1638334Y519766D01*
X1638315Y520077D01*
X1638304Y520388D01*
X1638300Y520700D01*
X1638300Y190500D02*
X1638304Y190812D01*
X1638315Y191123D01*
X1638334Y191434D01*
X1638361Y191745D01*
X1638396Y192055D01*
X1638437Y192363D01*
X1638487Y192671D01*
X1638544Y192978D01*
X1638609Y193283D01*
X1638681Y193586D01*
X1638760Y193887D01*
X1638847Y194187D01*
X1638941Y194484D01*
X1639042Y194779D01*
X1639151Y195071D01*
X1639267Y195360D01*
X1639390Y195647D01*
X1639519Y195930D01*
X1639656Y196210D01*
X1639800Y196487D01*
X1639950Y196760D01*
X1640107Y197029D01*
X1640270Y197294D01*
X1640440Y197556D01*
X1640617Y197813D01*
X1640799Y198065D01*
X1640988Y198313D01*
X1641183Y198557D01*
X1641383Y198795D01*
X1641590Y199029D01*
X1641802Y199257D01*
X1642020Y199480D01*
X1642243Y199698D01*
X1642471Y199910D01*
X1642705Y200117D01*
X1642943Y200317D01*
X1643187Y200512D01*
X1643435Y200701D01*
X1643687Y200883D01*
X1643944Y201060D01*
X1644206Y201230D01*
X1644471Y201393D01*
X1644740Y201550D01*
X1645013Y201700D01*
X1645290Y201844D01*
X1645570Y201981D01*
X1645853Y202110D01*
X1646140Y202233D01*
X1646429Y202349D01*
X1646721Y202458D01*
X1647016Y202559D01*
X1647313Y202653D01*
X1647613Y202740D01*
X1647914Y202819D01*
X1648217Y202891D01*
X1648522Y202956D01*
X1648829Y203013D01*
X1649137Y203063D01*
X1649445Y203104D01*
X1649755Y203139D01*
X1650066Y203166D01*
X1650377Y203185D01*
X1650688Y203196D01*
X1651000Y203200D01*
X1651312Y203196D01*
X1651623Y203185D01*
X1651934Y203166D01*
X1652245Y203139D01*
X1652555Y203104D01*
X1652863Y203063D01*
X1653171Y203013D01*
X1653478Y202956D01*
X1653783Y202891D01*
X1654086Y202819D01*
X1654387Y202740D01*
X1654687Y202653D01*
X1654984Y202559D01*
X1655279Y202458D01*
X1655571Y202349D01*
X1655860Y202233D01*
X1656147Y202110D01*
X1656430Y201981D01*
X1656710Y201844D01*
X1656987Y201700D01*
X1657260Y201550D01*
X1657529Y201393D01*
X1657794Y201230D01*
X1658056Y201060D01*
X1658313Y200883D01*
X1658565Y200701D01*
X1658813Y200512D01*
X1659057Y200317D01*
X1659295Y200117D01*
X1659529Y199910D01*
X1659757Y199698D01*
X1659980Y199480D01*
X1660198Y199257D01*
X1660410Y199029D01*
X1660617Y198795D01*
X1660817Y198557D01*
X1661012Y198313D01*
X1661201Y198065D01*
X1661383Y197813D01*
X1661560Y197556D01*
X1661730Y197294D01*
X1661893Y197029D01*
X1662050Y196760D01*
X1662200Y196487D01*
X1662344Y196210D01*
X1662481Y195930D01*
X1662610Y195647D01*
X1662733Y195360D01*
X1662849Y195071D01*
X1662958Y194779D01*
X1663059Y194484D01*
X1663153Y194187D01*
X1663240Y193887D01*
X1663319Y193586D01*
X1663391Y193283D01*
X1663456Y192978D01*
X1663513Y192671D01*
X1663563Y192363D01*
X1663604Y192055D01*
X1663639Y191745D01*
X1663666Y191434D01*
X1663685Y191123D01*
X1663696Y190812D01*
X1663700Y190500D01*
X1663696Y190188D01*
X1663685Y189877D01*
X1663666Y189566D01*
X1663639Y189255D01*
X1663604Y188945D01*
X1663563Y188637D01*
X1663513Y188329D01*
X1663456Y188022D01*
X1663391Y187717D01*
X1663319Y187414D01*
X1663240Y187113D01*
X1663153Y186813D01*
X1663059Y186516D01*
X1662958Y186221D01*
X1662849Y185929D01*
X1662733Y185640D01*
X1662610Y185353D01*
X1662481Y185070D01*
X1662344Y184790D01*
X1662200Y184513D01*
X1662050Y184240D01*
X1661893Y183971D01*
X1661730Y183706D01*
X1661560Y183444D01*
X1661383Y183187D01*
X1661201Y182935D01*
X1661012Y182687D01*
X1660817Y182443D01*
X1660617Y182205D01*
X1660410Y181971D01*
X1660198Y181743D01*
X1659980Y181520D01*
X1659757Y181302D01*
X1659529Y181090D01*
X1659295Y180883D01*
X1659057Y180683D01*
X1658813Y180488D01*
X1658565Y180299D01*
X1658313Y180117D01*
X1658056Y179940D01*
X1657794Y179770D01*
X1657529Y179607D01*
X1657260Y179450D01*
X1656987Y179300D01*
X1656710Y179156D01*
X1656430Y179019D01*
X1656147Y178890D01*
X1655860Y178767D01*
X1655571Y178651D01*
X1655279Y178542D01*
X1654984Y178441D01*
X1654687Y178347D01*
X1654387Y178260D01*
X1654086Y178181D01*
X1653783Y178109D01*
X1653478Y178044D01*
X1653171Y177987D01*
X1652863Y177937D01*
X1652555Y177896D01*
X1652245Y177861D01*
X1651934Y177834D01*
X1651623Y177815D01*
X1651312Y177804D01*
X1651000Y177800D01*
X1650688Y177804D01*
X1650377Y177815D01*
X1650066Y177834D01*
X1649755Y177861D01*
X1649445Y177896D01*
X1649137Y177937D01*
X1648829Y177987D01*
X1648522Y178044D01*
X1648217Y178109D01*
X1647914Y178181D01*
X1647613Y178260D01*
X1647313Y178347D01*
X1647016Y178441D01*
X1646721Y178542D01*
X1646429Y178651D01*
X1646140Y178767D01*
X1645853Y178890D01*
X1645570Y179019D01*
X1645290Y179156D01*
X1645013Y179300D01*
X1644740Y179450D01*
X1644471Y179607D01*
X1644206Y179770D01*
X1643944Y179940D01*
X1643687Y180117D01*
X1643435Y180299D01*
X1643187Y180488D01*
X1642943Y180683D01*
X1642705Y180883D01*
X1642471Y181090D01*
X1642243Y181302D01*
X1642020Y181520D01*
X1641802Y181743D01*
X1641590Y181971D01*
X1641383Y182205D01*
X1641183Y182443D01*
X1640988Y182687D01*
X1640799Y182935D01*
X1640617Y183187D01*
X1640440Y183444D01*
X1640270Y183706D01*
X1640107Y183971D01*
X1639950Y184240D01*
X1639800Y184513D01*
X1639656Y184790D01*
X1639519Y185070D01*
X1639390Y185353D01*
X1639267Y185640D01*
X1639151Y185929D01*
X1639042Y186221D01*
X1638941Y186516D01*
X1638847Y186813D01*
X1638760Y187113D01*
X1638681Y187414D01*
X1638609Y187717D01*
X1638544Y188022D01*
X1638487Y188329D01*
X1638437Y188637D01*
X1638396Y188945D01*
X1638361Y189255D01*
X1638334Y189566D01*
X1638315Y189877D01*
X1638304Y190188D01*
X1638300Y190500D01*
X1257300Y520700D02*
X1257304Y521012D01*
X1257315Y521323D01*
X1257334Y521634D01*
X1257361Y521945D01*
X1257396Y522255D01*
X1257437Y522563D01*
X1257487Y522871D01*
X1257544Y523178D01*
X1257609Y523483D01*
X1257681Y523786D01*
X1257760Y524087D01*
X1257847Y524387D01*
X1257941Y524684D01*
X1258042Y524979D01*
X1258151Y525271D01*
X1258267Y525560D01*
X1258390Y525847D01*
X1258519Y526130D01*
X1258656Y526410D01*
X1258800Y526687D01*
X1258950Y526960D01*
X1259107Y527229D01*
X1259270Y527494D01*
X1259440Y527756D01*
X1259617Y528013D01*
X1259799Y528265D01*
X1259988Y528513D01*
X1260183Y528757D01*
X1260383Y528995D01*
X1260590Y529229D01*
X1260802Y529457D01*
X1261020Y529680D01*
X1261243Y529898D01*
X1261471Y530110D01*
X1261705Y530317D01*
X1261943Y530517D01*
X1262187Y530712D01*
X1262435Y530901D01*
X1262687Y531083D01*
X1262944Y531260D01*
X1263206Y531430D01*
X1263471Y531593D01*
X1263740Y531750D01*
X1264013Y531900D01*
X1264290Y532044D01*
X1264570Y532181D01*
X1264853Y532310D01*
X1265140Y532433D01*
X1265429Y532549D01*
X1265721Y532658D01*
X1266016Y532759D01*
X1266313Y532853D01*
X1266613Y532940D01*
X1266914Y533019D01*
X1267217Y533091D01*
X1267522Y533156D01*
X1267829Y533213D01*
X1268137Y533263D01*
X1268445Y533304D01*
X1268755Y533339D01*
X1269066Y533366D01*
X1269377Y533385D01*
X1269688Y533396D01*
X1270000Y533400D01*
X1270312Y533396D01*
X1270623Y533385D01*
X1270934Y533366D01*
X1271245Y533339D01*
X1271555Y533304D01*
X1271863Y533263D01*
X1272171Y533213D01*
X1272478Y533156D01*
X1272783Y533091D01*
X1273086Y533019D01*
X1273387Y532940D01*
X1273687Y532853D01*
X1273984Y532759D01*
X1274279Y532658D01*
X1274571Y532549D01*
X1274860Y532433D01*
X1275147Y532310D01*
X1275430Y532181D01*
X1275710Y532044D01*
X1275987Y531900D01*
X1276260Y531750D01*
X1276529Y531593D01*
X1276794Y531430D01*
X1277056Y531260D01*
X1277313Y531083D01*
X1277565Y530901D01*
X1277813Y530712D01*
X1278057Y530517D01*
X1278295Y530317D01*
X1278529Y530110D01*
X1278757Y529898D01*
X1278980Y529680D01*
X1279198Y529457D01*
X1279410Y529229D01*
X1279617Y528995D01*
X1279817Y528757D01*
X1280012Y528513D01*
X1280201Y528265D01*
X1280383Y528013D01*
X1280560Y527756D01*
X1280730Y527494D01*
X1280893Y527229D01*
X1281050Y526960D01*
X1281200Y526687D01*
X1281344Y526410D01*
X1281481Y526130D01*
X1281610Y525847D01*
X1281733Y525560D01*
X1281849Y525271D01*
X1281958Y524979D01*
X1282059Y524684D01*
X1282153Y524387D01*
X1282240Y524087D01*
X1282319Y523786D01*
X1282391Y523483D01*
X1282456Y523178D01*
X1282513Y522871D01*
X1282563Y522563D01*
X1282604Y522255D01*
X1282639Y521945D01*
X1282666Y521634D01*
X1282685Y521323D01*
X1282696Y521012D01*
X1282700Y520700D01*
X1282696Y520388D01*
X1282685Y520077D01*
X1282666Y519766D01*
X1282639Y519455D01*
X1282604Y519145D01*
X1282563Y518837D01*
X1282513Y518529D01*
X1282456Y518222D01*
X1282391Y517917D01*
X1282319Y517614D01*
X1282240Y517313D01*
X1282153Y517013D01*
X1282059Y516716D01*
X1281958Y516421D01*
X1281849Y516129D01*
X1281733Y515840D01*
X1281610Y515553D01*
X1281481Y515270D01*
X1281344Y514990D01*
X1281200Y514713D01*
X1281050Y514440D01*
X1280893Y514171D01*
X1280730Y513906D01*
X1280560Y513644D01*
X1280383Y513387D01*
X1280201Y513135D01*
X1280012Y512887D01*
X1279817Y512643D01*
X1279617Y512405D01*
X1279410Y512171D01*
X1279198Y511943D01*
X1278980Y511720D01*
X1278757Y511502D01*
X1278529Y511290D01*
X1278295Y511083D01*
X1278057Y510883D01*
X1277813Y510688D01*
X1277565Y510499D01*
X1277313Y510317D01*
X1277056Y510140D01*
X1276794Y509970D01*
X1276529Y509807D01*
X1276260Y509650D01*
X1275987Y509500D01*
X1275710Y509356D01*
X1275430Y509219D01*
X1275147Y509090D01*
X1274860Y508967D01*
X1274571Y508851D01*
X1274279Y508742D01*
X1273984Y508641D01*
X1273687Y508547D01*
X1273387Y508460D01*
X1273086Y508381D01*
X1272783Y508309D01*
X1272478Y508244D01*
X1272171Y508187D01*
X1271863Y508137D01*
X1271555Y508096D01*
X1271245Y508061D01*
X1270934Y508034D01*
X1270623Y508015D01*
X1270312Y508004D01*
X1270000Y508000D01*
X1269688Y508004D01*
X1269377Y508015D01*
X1269066Y508034D01*
X1268755Y508061D01*
X1268445Y508096D01*
X1268137Y508137D01*
X1267829Y508187D01*
X1267522Y508244D01*
X1267217Y508309D01*
X1266914Y508381D01*
X1266613Y508460D01*
X1266313Y508547D01*
X1266016Y508641D01*
X1265721Y508742D01*
X1265429Y508851D01*
X1265140Y508967D01*
X1264853Y509090D01*
X1264570Y509219D01*
X1264290Y509356D01*
X1264013Y509500D01*
X1263740Y509650D01*
X1263471Y509807D01*
X1263206Y509970D01*
X1262944Y510140D01*
X1262687Y510317D01*
X1262435Y510499D01*
X1262187Y510688D01*
X1261943Y510883D01*
X1261705Y511083D01*
X1261471Y511290D01*
X1261243Y511502D01*
X1261020Y511720D01*
X1260802Y511943D01*
X1260590Y512171D01*
X1260383Y512405D01*
X1260183Y512643D01*
X1259988Y512887D01*
X1259799Y513135D01*
X1259617Y513387D01*
X1259440Y513644D01*
X1259270Y513906D01*
X1259107Y514171D01*
X1258950Y514440D01*
X1258800Y514713D01*
X1258656Y514990D01*
X1258519Y515270D01*
X1258390Y515553D01*
X1258267Y515840D01*
X1258151Y516129D01*
X1258042Y516421D01*
X1257941Y516716D01*
X1257847Y517013D01*
X1257760Y517313D01*
X1257681Y517614D01*
X1257609Y517917D01*
X1257544Y518222D01*
X1257487Y518529D01*
X1257437Y518837D01*
X1257396Y519145D01*
X1257361Y519455D01*
X1257334Y519766D01*
X1257315Y520077D01*
X1257304Y520388D01*
X1257300Y520700D01*
X1257300Y190500D02*
X1257304Y190812D01*
X1257315Y191123D01*
X1257334Y191434D01*
X1257361Y191745D01*
X1257396Y192055D01*
X1257437Y192363D01*
X1257487Y192671D01*
X1257544Y192978D01*
X1257609Y193283D01*
X1257681Y193586D01*
X1257760Y193887D01*
X1257847Y194187D01*
X1257941Y194484D01*
X1258042Y194779D01*
X1258151Y195071D01*
X1258267Y195360D01*
X1258390Y195647D01*
X1258519Y195930D01*
X1258656Y196210D01*
X1258800Y196487D01*
X1258950Y196760D01*
X1259107Y197029D01*
X1259270Y197294D01*
X1259440Y197556D01*
X1259617Y197813D01*
X1259799Y198065D01*
X1259988Y198313D01*
X1260183Y198557D01*
X1260383Y198795D01*
X1260590Y199029D01*
X1260802Y199257D01*
X1261020Y199480D01*
X1261243Y199698D01*
X1261471Y199910D01*
X1261705Y200117D01*
X1261943Y200317D01*
X1262187Y200512D01*
X1262435Y200701D01*
X1262687Y200883D01*
X1262944Y201060D01*
X1263206Y201230D01*
X1263471Y201393D01*
X1263740Y201550D01*
X1264013Y201700D01*
X1264290Y201844D01*
X1264570Y201981D01*
X1264853Y202110D01*
X1265140Y202233D01*
X1265429Y202349D01*
X1265721Y202458D01*
X1266016Y202559D01*
X1266313Y202653D01*
X1266613Y202740D01*
X1266914Y202819D01*
X1267217Y202891D01*
X1267522Y202956D01*
X1267829Y203013D01*
X1268137Y203063D01*
X1268445Y203104D01*
X1268755Y203139D01*
X1269066Y203166D01*
X1269377Y203185D01*
X1269688Y203196D01*
X1270000Y203200D01*
X1270312Y203196D01*
X1270623Y203185D01*
X1270934Y203166D01*
X1271245Y203139D01*
X1271555Y203104D01*
X1271863Y203063D01*
X1272171Y203013D01*
X1272478Y202956D01*
X1272783Y202891D01*
X1273086Y202819D01*
X1273387Y202740D01*
X1273687Y202653D01*
X1273984Y202559D01*
X1274279Y202458D01*
X1274571Y202349D01*
X1274860Y202233D01*
X1275147Y202110D01*
X1275430Y201981D01*
X1275710Y201844D01*
X1275987Y201700D01*
X1276260Y201550D01*
X1276529Y201393D01*
X1276794Y201230D01*
X1277056Y201060D01*
X1277313Y200883D01*
X1277565Y200701D01*
X1277813Y200512D01*
X1278057Y200317D01*
X1278295Y200117D01*
X1278529Y199910D01*
X1278757Y199698D01*
X1278980Y199480D01*
X1279198Y199257D01*
X1279410Y199029D01*
X1279617Y198795D01*
X1279817Y198557D01*
X1280012Y198313D01*
X1280201Y198065D01*
X1280383Y197813D01*
X1280560Y197556D01*
X1280730Y197294D01*
X1280893Y197029D01*
X1281050Y196760D01*
X1281200Y196487D01*
X1281344Y196210D01*
X1281481Y195930D01*
X1281610Y195647D01*
X1281733Y195360D01*
X1281849Y195071D01*
X1281958Y194779D01*
X1282059Y194484D01*
X1282153Y194187D01*
X1282240Y193887D01*
X1282319Y193586D01*
X1282391Y193283D01*
X1282456Y192978D01*
X1282513Y192671D01*
X1282563Y192363D01*
X1282604Y192055D01*
X1282639Y191745D01*
X1282666Y191434D01*
X1282685Y191123D01*
X1282696Y190812D01*
X1282700Y190500D01*
X1282696Y190188D01*
X1282685Y189877D01*
X1282666Y189566D01*
X1282639Y189255D01*
X1282604Y188945D01*
X1282563Y188637D01*
X1282513Y188329D01*
X1282456Y188022D01*
X1282391Y187717D01*
X1282319Y187414D01*
X1282240Y187113D01*
X1282153Y186813D01*
X1282059Y186516D01*
X1281958Y186221D01*
X1281849Y185929D01*
X1281733Y185640D01*
X1281610Y185353D01*
X1281481Y185070D01*
X1281344Y184790D01*
X1281200Y184513D01*
X1281050Y184240D01*
X1280893Y183971D01*
X1280730Y183706D01*
X1280560Y183444D01*
X1280383Y183187D01*
X1280201Y182935D01*
X1280012Y182687D01*
X1279817Y182443D01*
X1279617Y182205D01*
X1279410Y181971D01*
X1279198Y181743D01*
X1278980Y181520D01*
X1278757Y181302D01*
X1278529Y181090D01*
X1278295Y180883D01*
X1278057Y180683D01*
X1277813Y180488D01*
X1277565Y180299D01*
X1277313Y180117D01*
X1277056Y179940D01*
X1276794Y179770D01*
X1276529Y179607D01*
X1276260Y179450D01*
X1275987Y179300D01*
X1275710Y179156D01*
X1275430Y179019D01*
X1275147Y178890D01*
X1274860Y178767D01*
X1274571Y178651D01*
X1274279Y178542D01*
X1273984Y178441D01*
X1273687Y178347D01*
X1273387Y178260D01*
X1273086Y178181D01*
X1272783Y178109D01*
X1272478Y178044D01*
X1272171Y177987D01*
X1271863Y177937D01*
X1271555Y177896D01*
X1271245Y177861D01*
X1270934Y177834D01*
X1270623Y177815D01*
X1270312Y177804D01*
X1270000Y177800D01*
X1269688Y177804D01*
X1269377Y177815D01*
X1269066Y177834D01*
X1268755Y177861D01*
X1268445Y177896D01*
X1268137Y177937D01*
X1267829Y177987D01*
X1267522Y178044D01*
X1267217Y178109D01*
X1266914Y178181D01*
X1266613Y178260D01*
X1266313Y178347D01*
X1266016Y178441D01*
X1265721Y178542D01*
X1265429Y178651D01*
X1265140Y178767D01*
X1264853Y178890D01*
X1264570Y179019D01*
X1264290Y179156D01*
X1264013Y179300D01*
X1263740Y179450D01*
X1263471Y179607D01*
X1263206Y179770D01*
X1262944Y179940D01*
X1262687Y180117D01*
X1262435Y180299D01*
X1262187Y180488D01*
X1261943Y180683D01*
X1261705Y180883D01*
X1261471Y181090D01*
X1261243Y181302D01*
X1261020Y181520D01*
X1260802Y181743D01*
X1260590Y181971D01*
X1260383Y182205D01*
X1260183Y182443D01*
X1259988Y182687D01*
X1259799Y182935D01*
X1259617Y183187D01*
X1259440Y183444D01*
X1259270Y183706D01*
X1259107Y183971D01*
X1258950Y184240D01*
X1258800Y184513D01*
X1258656Y184790D01*
X1258519Y185070D01*
X1258390Y185353D01*
X1258267Y185640D01*
X1258151Y185929D01*
X1258042Y186221D01*
X1257941Y186516D01*
X1257847Y186813D01*
X1257760Y187113D01*
X1257681Y187414D01*
X1257609Y187717D01*
X1257544Y188022D01*
X1257487Y188329D01*
X1257437Y188637D01*
X1257396Y188945D01*
X1257361Y189255D01*
X1257334Y189566D01*
X1257315Y189877D01*
X1257304Y190188D01*
X1257300Y190500D01*
X2101850Y254000D02*
X2101855Y254405D01*
X2101870Y254810D01*
X2101895Y255215D01*
X2101930Y255618D01*
X2101974Y256021D01*
X2102029Y256423D01*
X2102093Y256823D01*
X2102167Y257221D01*
X2102251Y257617D01*
X2102345Y258012D01*
X2102448Y258403D01*
X2102561Y258793D01*
X2102683Y259179D01*
X2102815Y259562D01*
X2102956Y259942D01*
X2103107Y260318D01*
X2103266Y260691D01*
X2103435Y261059D01*
X2103613Y261423D01*
X2103799Y261783D01*
X2103995Y262138D01*
X2104199Y262488D01*
X2104411Y262833D01*
X2104632Y263172D01*
X2104862Y263507D01*
X2105099Y263835D01*
X2105344Y264157D01*
X2105598Y264474D01*
X2105858Y264784D01*
X2106127Y265087D01*
X2106403Y265384D01*
X2106686Y265674D01*
X2106976Y265957D01*
X2107273Y266233D01*
X2107576Y266502D01*
X2107886Y266762D01*
X2108203Y267016D01*
X2108525Y267261D01*
X2108853Y267498D01*
X2109188Y267728D01*
X2109527Y267949D01*
X2109872Y268161D01*
X2110222Y268365D01*
X2110577Y268561D01*
X2110937Y268747D01*
X2111301Y268925D01*
X2111669Y269094D01*
X2112042Y269253D01*
X2112418Y269404D01*
X2112798Y269545D01*
X2113181Y269677D01*
X2113567Y269799D01*
X2113957Y269912D01*
X2114348Y270015D01*
X2114743Y270109D01*
X2115139Y270193D01*
X2115537Y270267D01*
X2115937Y270331D01*
X2116339Y270386D01*
X2116742Y270430D01*
X2117145Y270465D01*
X2117550Y270490D01*
X2117955Y270505D01*
X2118360Y270510D01*
X2118765Y270505D01*
X2119170Y270490D01*
X2119575Y270465D01*
X2119978Y270430D01*
X2120381Y270386D01*
X2120783Y270331D01*
X2121183Y270267D01*
X2121581Y270193D01*
X2121977Y270109D01*
X2122372Y270015D01*
X2122763Y269912D01*
X2123153Y269799D01*
X2123539Y269677D01*
X2123922Y269545D01*
X2124302Y269404D01*
X2124678Y269253D01*
X2125051Y269094D01*
X2125419Y268925D01*
X2125783Y268747D01*
X2126143Y268561D01*
X2126498Y268365D01*
X2126848Y268161D01*
X2127193Y267949D01*
X2127532Y267728D01*
X2127867Y267498D01*
X2128195Y267261D01*
X2128517Y267016D01*
X2128834Y266762D01*
X2129144Y266502D01*
X2129447Y266233D01*
X2129744Y265957D01*
X2130034Y265674D01*
X2130317Y265384D01*
X2130593Y265087D01*
X2130862Y264784D01*
X2131122Y264474D01*
X2131376Y264157D01*
X2131621Y263835D01*
X2131858Y263507D01*
X2132088Y263172D01*
X2132309Y262833D01*
X2132521Y262488D01*
X2132725Y262138D01*
X2132921Y261783D01*
X2133107Y261423D01*
X2133285Y261059D01*
X2133454Y260691D01*
X2133613Y260318D01*
X2133764Y259942D01*
X2133905Y259562D01*
X2134037Y259179D01*
X2134159Y258793D01*
X2134272Y258403D01*
X2134375Y258012D01*
X2134469Y257617D01*
X2134553Y257221D01*
X2134627Y256823D01*
X2134691Y256423D01*
X2134746Y256021D01*
X2134790Y255618D01*
X2134825Y255215D01*
X2134850Y254810D01*
X2134865Y254405D01*
X2134870Y254000D01*
X2134865Y253595D01*
X2134850Y253190D01*
X2134825Y252785D01*
X2134790Y252382D01*
X2134746Y251979D01*
X2134691Y251577D01*
X2134627Y251177D01*
X2134553Y250779D01*
X2134469Y250383D01*
X2134375Y249988D01*
X2134272Y249597D01*
X2134159Y249207D01*
X2134037Y248821D01*
X2133905Y248438D01*
X2133764Y248058D01*
X2133613Y247682D01*
X2133454Y247309D01*
X2133285Y246941D01*
X2133107Y246577D01*
X2132921Y246217D01*
X2132725Y245862D01*
X2132521Y245512D01*
X2132309Y245167D01*
X2132088Y244828D01*
X2131858Y244493D01*
X2131621Y244165D01*
X2131376Y243843D01*
X2131122Y243526D01*
X2130862Y243216D01*
X2130593Y242913D01*
X2130317Y242616D01*
X2130034Y242326D01*
X2129744Y242043D01*
X2129447Y241767D01*
X2129144Y241498D01*
X2128834Y241238D01*
X2128517Y240984D01*
X2128195Y240739D01*
X2127867Y240502D01*
X2127532Y240272D01*
X2127193Y240051D01*
X2126848Y239839D01*
X2126498Y239635D01*
X2126143Y239439D01*
X2125783Y239253D01*
X2125419Y239075D01*
X2125051Y238906D01*
X2124678Y238747D01*
X2124302Y238596D01*
X2123922Y238455D01*
X2123539Y238323D01*
X2123153Y238201D01*
X2122763Y238088D01*
X2122372Y237985D01*
X2121977Y237891D01*
X2121581Y237807D01*
X2121183Y237733D01*
X2120783Y237669D01*
X2120381Y237614D01*
X2119978Y237570D01*
X2119575Y237535D01*
X2119170Y237510D01*
X2118765Y237495D01*
X2118360Y237490D01*
X2117955Y237495D01*
X2117550Y237510D01*
X2117145Y237535D01*
X2116742Y237570D01*
X2116339Y237614D01*
X2115937Y237669D01*
X2115537Y237733D01*
X2115139Y237807D01*
X2114743Y237891D01*
X2114348Y237985D01*
X2113957Y238088D01*
X2113567Y238201D01*
X2113181Y238323D01*
X2112798Y238455D01*
X2112418Y238596D01*
X2112042Y238747D01*
X2111669Y238906D01*
X2111301Y239075D01*
X2110937Y239253D01*
X2110577Y239439D01*
X2110222Y239635D01*
X2109872Y239839D01*
X2109527Y240051D01*
X2109188Y240272D01*
X2108853Y240502D01*
X2108525Y240739D01*
X2108203Y240984D01*
X2107886Y241238D01*
X2107576Y241498D01*
X2107273Y241767D01*
X2106976Y242043D01*
X2106686Y242326D01*
X2106403Y242616D01*
X2106127Y242913D01*
X2105858Y243216D01*
X2105598Y243526D01*
X2105344Y243843D01*
X2105099Y244165D01*
X2104862Y244493D01*
X2104632Y244828D01*
X2104411Y245167D01*
X2104199Y245512D01*
X2103995Y245862D01*
X2103799Y246217D01*
X2103613Y246577D01*
X2103435Y246941D01*
X2103266Y247309D01*
X2103107Y247682D01*
X2102956Y248058D01*
X2102815Y248438D01*
X2102683Y248821D01*
X2102561Y249207D01*
X2102448Y249597D01*
X2102345Y249988D01*
X2102251Y250383D01*
X2102167Y250779D01*
X2102093Y251177D01*
X2102029Y251577D01*
X2101974Y251979D01*
X2101930Y252382D01*
X2101895Y252785D01*
X2101870Y253190D01*
X2101855Y253595D01*
X2101850Y254000D01*
D11*
X568960Y772160D02*
X457200Y772160D01*
X456893Y772156D01*
X456586Y772145D01*
X456280Y772127D01*
X455974Y772101D01*
X455669Y772067D01*
X455365Y772027D01*
X455062Y771979D01*
X454760Y771923D01*
X454460Y771861D01*
X454161Y771791D01*
X453864Y771714D01*
X453568Y771630D01*
X453275Y771538D01*
X452985Y771440D01*
X452697Y771335D01*
X452411Y771222D01*
X452128Y771103D01*
X451848Y770977D01*
X451571Y770845D01*
X451298Y770705D01*
X451028Y770559D01*
X450762Y770407D01*
X450499Y770248D01*
X450240Y770083D01*
X449986Y769912D01*
X449735Y769735D01*
X449489Y769551D01*
X449247Y769362D01*
X449011Y769167D01*
X448778Y768966D01*
X448551Y768760D01*
X448329Y768548D01*
X448112Y768331D01*
X447900Y768109D01*
X447694Y767882D01*
X447493Y767649D01*
X447298Y767413D01*
X447109Y767171D01*
X446925Y766925D01*
X446748Y766674D01*
X446577Y766420D01*
X446412Y766161D01*
X446253Y765898D01*
X446101Y765632D01*
X445955Y765362D01*
X445815Y765089D01*
X445683Y764812D01*
X445557Y764532D01*
X445438Y764249D01*
X445325Y763963D01*
X445220Y763675D01*
X445122Y763385D01*
X445030Y763092D01*
X444946Y762796D01*
X444869Y762499D01*
X444799Y762200D01*
X444737Y761900D01*
X444681Y761598D01*
X444633Y761295D01*
X444593Y760991D01*
X444559Y760686D01*
X444533Y760380D01*
X444515Y760074D01*
X444504Y759767D01*
X444500Y759460D01*
X444500Y256540D01*
X444504Y256233D01*
X444515Y255926D01*
X444533Y255620D01*
X444559Y255314D01*
X444593Y255009D01*
X444633Y254705D01*
X444681Y254402D01*
X444737Y254100D01*
X444799Y253800D01*
X444869Y253501D01*
X444946Y253204D01*
X445030Y252908D01*
X445122Y252615D01*
X445220Y252325D01*
X445325Y252037D01*
X445438Y251751D01*
X445557Y251468D01*
X445683Y251188D01*
X445815Y250911D01*
X445955Y250638D01*
X446101Y250368D01*
X446253Y250102D01*
X446412Y249839D01*
X446577Y249580D01*
X446748Y249326D01*
X446925Y249075D01*
X447109Y248829D01*
X447298Y248587D01*
X447493Y248351D01*
X447694Y248118D01*
X447900Y247891D01*
X448112Y247669D01*
X448329Y247452D01*
X448551Y247240D01*
X448778Y247034D01*
X449011Y246833D01*
X449247Y246638D01*
X449489Y246449D01*
X449735Y246265D01*
X449986Y246088D01*
X450240Y245917D01*
X450499Y245752D01*
X450762Y245593D01*
X451028Y245441D01*
X451298Y245295D01*
X451571Y245155D01*
X451848Y245023D01*
X452128Y244897D01*
X452411Y244778D01*
X452697Y244665D01*
X452985Y244560D01*
X453275Y244462D01*
X453568Y244370D01*
X453864Y244286D01*
X454161Y244209D01*
X454460Y244139D01*
X454760Y244077D01*
X455062Y244021D01*
X455365Y243973D01*
X455669Y243933D01*
X455974Y243899D01*
X456280Y243873D01*
X456586Y243855D01*
X456893Y243844D01*
X457200Y243840D01*
X568960Y243840D01*
X569060Y243838D01*
X569159Y243832D01*
X569259Y243822D01*
X569357Y243809D01*
X569456Y243791D01*
X569553Y243770D01*
X569649Y243745D01*
X569745Y243716D01*
X569839Y243683D01*
X569932Y243647D01*
X570023Y243607D01*
X570113Y243563D01*
X570201Y243516D01*
X570287Y243466D01*
X570371Y243412D01*
X570453Y243355D01*
X570532Y243295D01*
X570610Y243231D01*
X570684Y243165D01*
X570756Y243096D01*
X570825Y243024D01*
X570891Y242950D01*
X570955Y242872D01*
X571015Y242793D01*
X571072Y242711D01*
X571126Y242627D01*
X571176Y242541D01*
X571223Y242453D01*
X571267Y242363D01*
X571307Y242272D01*
X571343Y242179D01*
X571376Y242085D01*
X571405Y241989D01*
X571430Y241893D01*
X571451Y241796D01*
X571469Y241697D01*
X571482Y241599D01*
X571492Y241499D01*
X571498Y241400D01*
X571500Y241300D01*
X571500Y0D01*
X2159000Y0D01*
X2159000Y1016000D01*
X571500Y1016000D01*
X571500Y774700D01*
X571498Y774600D01*
X571492Y774501D01*
X571482Y774401D01*
X571469Y774303D01*
X571451Y774204D01*
X571430Y774107D01*
X571405Y774011D01*
X571376Y773915D01*
X571343Y773821D01*
X571307Y773728D01*
X571267Y773637D01*
X571223Y773547D01*
X571176Y773459D01*
X571126Y773373D01*
X571072Y773289D01*
X571015Y773207D01*
X570955Y773128D01*
X570891Y773050D01*
X570825Y772976D01*
X570756Y772904D01*
X570684Y772835D01*
X570610Y772769D01*
X570532Y772705D01*
X570453Y772645D01*
X570371Y772588D01*
X570287Y772534D01*
X570201Y772484D01*
X570113Y772437D01*
X570023Y772393D01*
X569932Y772353D01*
X569839Y772317D01*
X569745Y772284D01*
X569649Y772255D01*
X569553Y772230D01*
X569456Y772209D01*
X569357Y772191D01*
X569259Y772178D01*
X569159Y772168D01*
X569060Y772162D01*
X568960Y772160D01*
D10*
X835025Y508000D02*
X835036Y508857D01*
X835067Y509714D01*
X835120Y510569D01*
X835193Y511423D01*
X835288Y512275D01*
X835403Y513125D01*
X835539Y513971D01*
X835696Y514814D01*
X835874Y515652D01*
X836072Y516486D01*
X836290Y517315D01*
X836529Y518138D01*
X836788Y518955D01*
X837067Y519766D01*
X837365Y520569D01*
X837684Y521365D01*
X838021Y522153D01*
X838378Y522932D01*
X838754Y523703D01*
X839149Y524464D01*
X839562Y525214D01*
X839994Y525955D01*
X840443Y526685D01*
X840911Y527403D01*
X841396Y528110D01*
X841898Y528805D01*
X842417Y529487D01*
X842953Y530156D01*
X843504Y530812D01*
X844072Y531454D01*
X844656Y532082D01*
X845254Y532696D01*
X845868Y533294D01*
X846496Y533878D01*
X847138Y534446D01*
X847794Y534997D01*
X848463Y535533D01*
X849145Y536052D01*
X849840Y536554D01*
X850547Y537039D01*
X851265Y537507D01*
X851995Y537956D01*
X852736Y538388D01*
X853486Y538801D01*
X854247Y539196D01*
X855018Y539572D01*
X855797Y539929D01*
X856585Y540266D01*
X857381Y540585D01*
X858184Y540883D01*
X858995Y541162D01*
X859812Y541421D01*
X860635Y541660D01*
X861464Y541878D01*
X862298Y542076D01*
X863136Y542254D01*
X863979Y542411D01*
X864825Y542547D01*
X865675Y542662D01*
X866527Y542757D01*
X867381Y542830D01*
X868236Y542883D01*
X869093Y542914D01*
X869950Y542925D01*
X870807Y542914D01*
X871664Y542883D01*
X872519Y542830D01*
X873373Y542757D01*
X874225Y542662D01*
X875075Y542547D01*
X875921Y542411D01*
X876764Y542254D01*
X877602Y542076D01*
X878436Y541878D01*
X879265Y541660D01*
X880088Y541421D01*
X880905Y541162D01*
X881716Y540883D01*
X882519Y540585D01*
X883315Y540266D01*
X884103Y539929D01*
X884882Y539572D01*
X885653Y539196D01*
X886414Y538801D01*
X887164Y538388D01*
X887905Y537956D01*
X888635Y537507D01*
X889353Y537039D01*
X890060Y536554D01*
X890755Y536052D01*
X891437Y535533D01*
X892106Y534997D01*
X892762Y534446D01*
X893404Y533878D01*
X894032Y533294D01*
X894646Y532696D01*
X895244Y532082D01*
X895828Y531454D01*
X896396Y530812D01*
X896947Y530156D01*
X897483Y529487D01*
X898002Y528805D01*
X898504Y528110D01*
X898989Y527403D01*
X899457Y526685D01*
X899906Y525955D01*
X900338Y525214D01*
X900751Y524464D01*
X901146Y523703D01*
X901522Y522932D01*
X901879Y522153D01*
X902216Y521365D01*
X902535Y520569D01*
X902833Y519766D01*
X903112Y518955D01*
X903371Y518138D01*
X903610Y517315D01*
X903828Y516486D01*
X904026Y515652D01*
X904204Y514814D01*
X904361Y513971D01*
X904497Y513125D01*
X904612Y512275D01*
X904707Y511423D01*
X904780Y510569D01*
X904833Y509714D01*
X904864Y508857D01*
X904875Y508000D01*
X904864Y507143D01*
X904833Y506286D01*
X904780Y505431D01*
X904707Y504577D01*
X904612Y503725D01*
X904497Y502875D01*
X904361Y502029D01*
X904204Y501186D01*
X904026Y500348D01*
X903828Y499514D01*
X903610Y498685D01*
X903371Y497862D01*
X903112Y497045D01*
X902833Y496234D01*
X902535Y495431D01*
X902216Y494635D01*
X901879Y493847D01*
X901522Y493068D01*
X901146Y492297D01*
X900751Y491536D01*
X900338Y490786D01*
X899906Y490045D01*
X899457Y489315D01*
X898989Y488597D01*
X898504Y487890D01*
X898002Y487195D01*
X897483Y486513D01*
X896947Y485844D01*
X896396Y485188D01*
X895828Y484546D01*
X895244Y483918D01*
X894646Y483304D01*
X894032Y482706D01*
X893404Y482122D01*
X892762Y481554D01*
X892106Y481003D01*
X891437Y480467D01*
X890755Y479948D01*
X890060Y479446D01*
X889353Y478961D01*
X888635Y478493D01*
X887905Y478044D01*
X887164Y477612D01*
X886414Y477199D01*
X885653Y476804D01*
X884882Y476428D01*
X884103Y476071D01*
X883315Y475734D01*
X882519Y475415D01*
X881716Y475117D01*
X880905Y474838D01*
X880088Y474579D01*
X879265Y474340D01*
X878436Y474122D01*
X877602Y473924D01*
X876764Y473746D01*
X875921Y473589D01*
X875075Y473453D01*
X874225Y473338D01*
X873373Y473243D01*
X872519Y473170D01*
X871664Y473117D01*
X870807Y473086D01*
X869950Y473075D01*
X869093Y473086D01*
X868236Y473117D01*
X867381Y473170D01*
X866527Y473243D01*
X865675Y473338D01*
X864825Y473453D01*
X863979Y473589D01*
X863136Y473746D01*
X862298Y473924D01*
X861464Y474122D01*
X860635Y474340D01*
X859812Y474579D01*
X858995Y474838D01*
X858184Y475117D01*
X857381Y475415D01*
X856585Y475734D01*
X855797Y476071D01*
X855018Y476428D01*
X854247Y476804D01*
X853486Y477199D01*
X852736Y477612D01*
X851995Y478044D01*
X851265Y478493D01*
X850547Y478961D01*
X849840Y479446D01*
X849145Y479948D01*
X848463Y480467D01*
X847794Y481003D01*
X847138Y481554D01*
X846496Y482122D01*
X845868Y482706D01*
X845254Y483304D01*
X844656Y483918D01*
X844072Y484546D01*
X843504Y485188D01*
X842953Y485844D01*
X842417Y486513D01*
X841898Y487195D01*
X841396Y487890D01*
X840911Y488597D01*
X840443Y489315D01*
X839994Y490045D01*
X839562Y490786D01*
X839149Y491536D01*
X838754Y492297D01*
X838378Y493068D01*
X838021Y493847D01*
X837684Y494635D01*
X837365Y495431D01*
X837067Y496234D01*
X836788Y497045D01*
X836529Y497862D01*
X836290Y498685D01*
X836072Y499514D01*
X835874Y500348D01*
X835696Y501186D01*
X835539Y502029D01*
X835403Y502875D01*
X835288Y503725D01*
X835193Y504577D01*
X835120Y505431D01*
X835067Y506286D01*
X835036Y507143D01*
X835025Y508000D01*
D12*
X444500Y256540D02*
X444548Y255433D01*
X444693Y254335D01*
X444933Y253253D01*
X445266Y252196D01*
X445690Y251173D01*
X446201Y250190D01*
X446797Y249256D01*
X447471Y248377D01*
X448220Y247560D01*
X449037Y246811D01*
X449916Y246137D01*
X450850Y245541D01*
X451833Y245030D01*
X452856Y244606D01*
X453913Y244273D01*
X454995Y244033D01*
X456093Y243888D01*
X457200Y243840D01*
X568960Y243840D01*
X569181Y243830D01*
X569401Y243801D01*
X569617Y243753D01*
X569829Y243687D01*
X570033Y243602D01*
X570230Y243500D01*
X570417Y243381D01*
X570593Y243246D01*
X570756Y243096D01*
X570906Y242933D01*
X571041Y242757D01*
X571160Y242570D01*
X571262Y242373D01*
X571347Y242169D01*
X571413Y241957D01*
X571461Y241741D01*
X571490Y241521D01*
X571500Y241300D01*
X571500Y0D01*
X2159000Y0D01*
X2159000Y1016000D01*
X571500Y1016000D01*
X571500Y774700D01*
X571490Y774479D01*
X571461Y774259D01*
X571413Y774043D01*
X571347Y773831D01*
X571262Y773627D01*
X571160Y773430D01*
X571041Y773243D01*
X570906Y773067D01*
X570756Y772904D01*
X570593Y772754D01*
X570417Y772619D01*
X570230Y772500D01*
X570033Y772398D01*
X569829Y772313D01*
X569617Y772247D01*
X569401Y772199D01*
X569181Y772170D01*
X568960Y772160D01*
X457200Y772160D01*
X456093Y772112D01*
X454995Y771967D01*
X453913Y771727D01*
X452856Y771394D01*
X451833Y770970D01*
X450850Y770459D01*
X449916Y769863D01*
X449037Y769189D01*
X448220Y768440D01*
X447471Y767623D01*
X446797Y766744D01*
X446201Y765810D01*
X445690Y764827D01*
X445266Y763804D01*
X444933Y762747D01*
X444693Y761665D01*
X444548Y760567D01*
X444500Y759460D01*
X444500Y256540D01*
X2117725Y824693D02*
X2117650Y823081D01*
X2117502Y821474D01*
X2117279Y819876D01*
X2116982Y818289D01*
X2116613Y816718D01*
X2116171Y815166D01*
X2115658Y813636D01*
X2115075Y812131D01*
X2114423Y810655D01*
X2113704Y809210D01*
X2112919Y807800D01*
X2112069Y806428D01*
X2111157Y805097D01*
X2110184Y803809D01*
X2109154Y802568D01*
X2108066Y801375D01*
X2106925Y800234D01*
X2105733Y799147D01*
X2104491Y798116D01*
X2103203Y797143D01*
X2101872Y796231D01*
X2100500Y795381D01*
X2099090Y794596D01*
X2097645Y793877D01*
X2096169Y793225D01*
X2094664Y792642D01*
X2093134Y792129D01*
X2091582Y791687D01*
X2090011Y791318D01*
X2088424Y791021D01*
X2086826Y790798D01*
X2085219Y790650D01*
X2083607Y790575D01*
X2081993Y790575D01*
X2080381Y790650D01*
X2078774Y790798D01*
X2077176Y791021D01*
X2075589Y791318D01*
X2074018Y791687D01*
X2072466Y792129D01*
X2070936Y792642D01*
X2069431Y793225D01*
X2067955Y793877D01*
X2066510Y794596D01*
X2065100Y795381D01*
X2063728Y796231D01*
X2062397Y797143D01*
X2061109Y798116D01*
X2059868Y799147D01*
X2058675Y800234D01*
X2057534Y801375D01*
X2056447Y802568D01*
X2055416Y803809D01*
X2054443Y805097D01*
X2053531Y806428D01*
X2052681Y807800D01*
X2051896Y809210D01*
X2051177Y810655D01*
X2050525Y812131D01*
X2049942Y813636D01*
X2049429Y815166D01*
X2048987Y816718D01*
X2048618Y818289D01*
X2048321Y819876D01*
X2048098Y821474D01*
X2047950Y823081D01*
X2047875Y824693D01*
X2047875Y826307D01*
X2047950Y827919D01*
X2048098Y829526D01*
X2048321Y831124D01*
X2048618Y832711D01*
X2048987Y834282D01*
X2049429Y835834D01*
X2049942Y837364D01*
X2050525Y838869D01*
X2051177Y840345D01*
X2051896Y841790D01*
X2052681Y843200D01*
X2053531Y844572D01*
X2054443Y845903D01*
X2055416Y847191D01*
X2056447Y848433D01*
X2057534Y849625D01*
X2058675Y850766D01*
X2059868Y851854D01*
X2061109Y852884D01*
X2062397Y853857D01*
X2063728Y854769D01*
X2065100Y855619D01*
X2066510Y856404D01*
X2067955Y857123D01*
X2069431Y857775D01*
X2070936Y858358D01*
X2072466Y858871D01*
X2074018Y859313D01*
X2075589Y859682D01*
X2077176Y859979D01*
X2078774Y860202D01*
X2080381Y860350D01*
X2081993Y860425D01*
X2083607Y860425D01*
X2085219Y860350D01*
X2086826Y860202D01*
X2088424Y859979D01*
X2090011Y859682D01*
X2091582Y859313D01*
X2093134Y858871D01*
X2094664Y858358D01*
X2096169Y857775D01*
X2097645Y857123D01*
X2099090Y856404D01*
X2100500Y855619D01*
X2101872Y854769D01*
X2103203Y853857D01*
X2104491Y852884D01*
X2105733Y851854D01*
X2106925Y850766D01*
X2108066Y849625D01*
X2109154Y848433D01*
X2110184Y847191D01*
X2111157Y845903D01*
X2112069Y844572D01*
X2112919Y843200D01*
X2113704Y841790D01*
X2114423Y840345D01*
X2115075Y838869D01*
X2115658Y837364D01*
X2116171Y835834D01*
X2116613Y834282D01*
X2116982Y832711D01*
X2117279Y831124D01*
X2117502Y829526D01*
X2117650Y827919D01*
X2117725Y826307D01*
X2117725Y824693D01*
X2117820Y935990D02*
X2116741Y936061D01*
X2115669Y936202D01*
X2114609Y936413D01*
X2113565Y936692D01*
X2112541Y937040D01*
X2111543Y937454D01*
X2110573Y937932D01*
X2109637Y938472D01*
X2108738Y939073D01*
X2107881Y939731D01*
X2107068Y940444D01*
X2106304Y941208D01*
X2105591Y942021D01*
X2104933Y942878D01*
X2104332Y943777D01*
X2103792Y944713D01*
X2103314Y945683D01*
X2102900Y946681D01*
X2102552Y947705D01*
X2102273Y948749D01*
X2102062Y949809D01*
X2101921Y950881D01*
X2101850Y951960D01*
X2101850Y953040D01*
X2101921Y954119D01*
X2102062Y955191D01*
X2102273Y956251D01*
X2102552Y957295D01*
X2102900Y958319D01*
X2103314Y959317D01*
X2103792Y960287D01*
X2104332Y961223D01*
X2104933Y962122D01*
X2105591Y962979D01*
X2106304Y963792D01*
X2107068Y964557D01*
X2107881Y965269D01*
X2108738Y965927D01*
X2109637Y966528D01*
X2110573Y967068D01*
X2111543Y967546D01*
X2112541Y967960D01*
X2113565Y968308D01*
X2114609Y968587D01*
X2115669Y968798D01*
X2116741Y968939D01*
X2117820Y969010D01*
X2118900Y969010D01*
X2119979Y968939D01*
X2121051Y968798D01*
X2122111Y968587D01*
X2123155Y968308D01*
X2124179Y967960D01*
X2125177Y967546D01*
X2126147Y967068D01*
X2127083Y966528D01*
X2127982Y965927D01*
X2128839Y965269D01*
X2129652Y964557D01*
X2130417Y963792D01*
X2131129Y962979D01*
X2131787Y962122D01*
X2132388Y961223D01*
X2132928Y960287D01*
X2133406Y959317D01*
X2133820Y958319D01*
X2134168Y957295D01*
X2134447Y956251D01*
X2134658Y955191D01*
X2134799Y954119D01*
X2134870Y953040D01*
X2134870Y951960D01*
X2134799Y950881D01*
X2134658Y949809D01*
X2134447Y948749D01*
X2134168Y947705D01*
X2133820Y946681D01*
X2133406Y945683D01*
X2132928Y944713D01*
X2132388Y943777D01*
X2131787Y942878D01*
X2131129Y942021D01*
X2130417Y941208D01*
X2129652Y940444D01*
X2128839Y939731D01*
X2127982Y939073D01*
X2127083Y938472D01*
X2126147Y937932D01*
X2125177Y937454D01*
X2124179Y937040D01*
X2123155Y936692D01*
X2122111Y936413D01*
X2121051Y936202D01*
X2119979Y936061D01*
X2118900Y935990D01*
X2117820Y935990D01*
X1638300Y521199D02*
X1638378Y522194D01*
X1638534Y523180D01*
X1638767Y524150D01*
X1639076Y525099D01*
X1639458Y526021D01*
X1639911Y526910D01*
X1640432Y527761D01*
X1641019Y528569D01*
X1641667Y529327D01*
X1642373Y530033D01*
X1643131Y530681D01*
X1643939Y531268D01*
X1644790Y531789D01*
X1645679Y532242D01*
X1646601Y532624D01*
X1647550Y532933D01*
X1648520Y533166D01*
X1649506Y533322D01*
X1650501Y533400D01*
X1651499Y533400D01*
X1652494Y533322D01*
X1653480Y533166D01*
X1654450Y532933D01*
X1655399Y532624D01*
X1656321Y532242D01*
X1657210Y531789D01*
X1658061Y531268D01*
X1658869Y530681D01*
X1659627Y530033D01*
X1660333Y529327D01*
X1660981Y528569D01*
X1661568Y527761D01*
X1662089Y526910D01*
X1662542Y526021D01*
X1662924Y525099D01*
X1663233Y524150D01*
X1663466Y523180D01*
X1663622Y522194D01*
X1663700Y521199D01*
X1663700Y520201D01*
X1663622Y519206D01*
X1663466Y518220D01*
X1663233Y517250D01*
X1662924Y516301D01*
X1662542Y515379D01*
X1662089Y514490D01*
X1661568Y513639D01*
X1660981Y512831D01*
X1660333Y512073D01*
X1659627Y511367D01*
X1658869Y510719D01*
X1658061Y510132D01*
X1657210Y509611D01*
X1656321Y509158D01*
X1655399Y508776D01*
X1654450Y508467D01*
X1653480Y508234D01*
X1652494Y508078D01*
X1651499Y508000D01*
X1650501Y508000D01*
X1649506Y508078D01*
X1648520Y508234D01*
X1647550Y508467D01*
X1646601Y508776D01*
X1645679Y509158D01*
X1644790Y509611D01*
X1643939Y510132D01*
X1643131Y510719D01*
X1642373Y511367D01*
X1641667Y512073D01*
X1641019Y512831D01*
X1640432Y513639D01*
X1639911Y514490D01*
X1639458Y515379D01*
X1639076Y516301D01*
X1638767Y517250D01*
X1638534Y518220D01*
X1638378Y519206D01*
X1638300Y520201D01*
X1638300Y521199D01*
X1638300Y190999D02*
X1638378Y191994D01*
X1638534Y192980D01*
X1638767Y193950D01*
X1639076Y194899D01*
X1639458Y195821D01*
X1639911Y196710D01*
X1640432Y197561D01*
X1641019Y198369D01*
X1641667Y199127D01*
X1642373Y199833D01*
X1643131Y200481D01*
X1643939Y201068D01*
X1644790Y201589D01*
X1645679Y202042D01*
X1646601Y202424D01*
X1647550Y202733D01*
X1648520Y202966D01*
X1649506Y203122D01*
X1650501Y203200D01*
X1651499Y203200D01*
X1652494Y203122D01*
X1653480Y202966D01*
X1654450Y202733D01*
X1655399Y202424D01*
X1656321Y202042D01*
X1657210Y201589D01*
X1658061Y201068D01*
X1658869Y200481D01*
X1659627Y199833D01*
X1660333Y199127D01*
X1660981Y198369D01*
X1661568Y197561D01*
X1662089Y196710D01*
X1662542Y195821D01*
X1662924Y194899D01*
X1663233Y193950D01*
X1663466Y192980D01*
X1663622Y191994D01*
X1663700Y190999D01*
X1663700Y190001D01*
X1663622Y189006D01*
X1663466Y188020D01*
X1663233Y187050D01*
X1662924Y186101D01*
X1662542Y185179D01*
X1662089Y184290D01*
X1661568Y183439D01*
X1660981Y182631D01*
X1660333Y181873D01*
X1659627Y181167D01*
X1658869Y180519D01*
X1658061Y179932D01*
X1657210Y179411D01*
X1656321Y178958D01*
X1655399Y178576D01*
X1654450Y178267D01*
X1653480Y178034D01*
X1652494Y177878D01*
X1651499Y177800D01*
X1650501Y177800D01*
X1649506Y177878D01*
X1648520Y178034D01*
X1647550Y178267D01*
X1646601Y178576D01*
X1645679Y178958D01*
X1644790Y179411D01*
X1643939Y179932D01*
X1643131Y180519D01*
X1642373Y181167D01*
X1641667Y181873D01*
X1641019Y182631D01*
X1640432Y183439D01*
X1639911Y184290D01*
X1639458Y185179D01*
X1639076Y186101D01*
X1638767Y187050D01*
X1638534Y188020D01*
X1638378Y189006D01*
X1638300Y190001D01*
X1638300Y190999D01*
X1257300Y521199D02*
X1257378Y522194D01*
X1257534Y523180D01*
X1257767Y524150D01*
X1258076Y525099D01*
X1258458Y526021D01*
X1258911Y526910D01*
X1259432Y527761D01*
X1260019Y528569D01*
X1260667Y529327D01*
X1261373Y530033D01*
X1262131Y530681D01*
X1262939Y531268D01*
X1263790Y531789D01*
X1264679Y532242D01*
X1265601Y532624D01*
X1266550Y532933D01*
X1267520Y533166D01*
X1268506Y533322D01*
X1269501Y533400D01*
X1270499Y533400D01*
X1271494Y533322D01*
X1272480Y533166D01*
X1273450Y532933D01*
X1274399Y532624D01*
X1275321Y532242D01*
X1276210Y531789D01*
X1277061Y531268D01*
X1277869Y530681D01*
X1278627Y530033D01*
X1279333Y529327D01*
X1279981Y528569D01*
X1280568Y527761D01*
X1281089Y526910D01*
X1281542Y526021D01*
X1281924Y525099D01*
X1282233Y524150D01*
X1282466Y523180D01*
X1282622Y522194D01*
X1282700Y521199D01*
X1282700Y520201D01*
X1282622Y519206D01*
X1282466Y518220D01*
X1282233Y517250D01*
X1281924Y516301D01*
X1281542Y515379D01*
X1281089Y514490D01*
X1280568Y513639D01*
X1279981Y512831D01*
X1279333Y512073D01*
X1278627Y511367D01*
X1277869Y510719D01*
X1277061Y510132D01*
X1276210Y509611D01*
X1275321Y509158D01*
X1274399Y508776D01*
X1273450Y508467D01*
X1272480Y508234D01*
X1271494Y508078D01*
X1270499Y508000D01*
X1269501Y508000D01*
X1268506Y508078D01*
X1267520Y508234D01*
X1266550Y508467D01*
X1265601Y508776D01*
X1264679Y509158D01*
X1263790Y509611D01*
X1262939Y510132D01*
X1262131Y510719D01*
X1261373Y511367D01*
X1260667Y512073D01*
X1260019Y512831D01*
X1259432Y513639D01*
X1258911Y514490D01*
X1258458Y515379D01*
X1258076Y516301D01*
X1257767Y517250D01*
X1257534Y518220D01*
X1257378Y519206D01*
X1257300Y520201D01*
X1257300Y521199D01*
X1257300Y190999D02*
X1257378Y191994D01*
X1257534Y192980D01*
X1257767Y193950D01*
X1258076Y194899D01*
X1258458Y195821D01*
X1258911Y196710D01*
X1259432Y197561D01*
X1260019Y198369D01*
X1260667Y199127D01*
X1261373Y199833D01*
X1262131Y200481D01*
X1262939Y201068D01*
X1263790Y201589D01*
X1264679Y202042D01*
X1265601Y202424D01*
X1266550Y202733D01*
X1267520Y202966D01*
X1268506Y203122D01*
X1269501Y203200D01*
X1270499Y203200D01*
X1271494Y203122D01*
X1272480Y202966D01*
X1273450Y202733D01*
X1274399Y202424D01*
X1275321Y202042D01*
X1276210Y201589D01*
X1277061Y201068D01*
X1277869Y200481D01*
X1278627Y199833D01*
X1279333Y199127D01*
X1279981Y198369D01*
X1280568Y197561D01*
X1281089Y196710D01*
X1281542Y195821D01*
X1281924Y194899D01*
X1282233Y193950D01*
X1282466Y192980D01*
X1282622Y191994D01*
X1282700Y190999D01*
X1282700Y190001D01*
X1282622Y189006D01*
X1282466Y188020D01*
X1282233Y187050D01*
X1281924Y186101D01*
X1281542Y185179D01*
X1281089Y184290D01*
X1280568Y183439D01*
X1279981Y182631D01*
X1279333Y181873D01*
X1278627Y181167D01*
X1277869Y180519D01*
X1277061Y179932D01*
X1276210Y179411D01*
X1275321Y178958D01*
X1274399Y178576D01*
X1273450Y178267D01*
X1272480Y178034D01*
X1271494Y177878D01*
X1270499Y177800D01*
X1269501Y177800D01*
X1268506Y177878D01*
X1267520Y178034D01*
X1266550Y178267D01*
X1265601Y178576D01*
X1264679Y178958D01*
X1263790Y179411D01*
X1262939Y179932D01*
X1262131Y180519D01*
X1261373Y181167D01*
X1260667Y181873D01*
X1260019Y182631D01*
X1259432Y183439D01*
X1258911Y184290D01*
X1258458Y185179D01*
X1258076Y186101D01*
X1257767Y187050D01*
X1257534Y188020D01*
X1257378Y189006D01*
X1257300Y190001D01*
X1257300Y190999D01*
X2117820Y237490D02*
X2116741Y237561D01*
X2115669Y237702D01*
X2114609Y237913D01*
X2113565Y238192D01*
X2112541Y238540D01*
X2111543Y238954D01*
X2110573Y239432D01*
X2109637Y239972D01*
X2108738Y240573D01*
X2107881Y241231D01*
X2107068Y241944D01*
X2106304Y242708D01*
X2105591Y243521D01*
X2104933Y244378D01*
X2104332Y245277D01*
X2103792Y246213D01*
X2103314Y247183D01*
X2102900Y248181D01*
X2102552Y249205D01*
X2102273Y250249D01*
X2102062Y251309D01*
X2101921Y252381D01*
X2101850Y253460D01*
X2101850Y254540D01*
X2101921Y255619D01*
X2102062Y256691D01*
X2102273Y257751D01*
X2102552Y258795D01*
X2102900Y259819D01*
X2103314Y260817D01*
X2103792Y261787D01*
X2104332Y262723D01*
X2104933Y263622D01*
X2105591Y264479D01*
X2106304Y265292D01*
X2107068Y266057D01*
X2107881Y266769D01*
X2108738Y267427D01*
X2109637Y268028D01*
X2110573Y268568D01*
X2111543Y269046D01*
X2112541Y269460D01*
X2113565Y269808D01*
X2114609Y270087D01*
X2115669Y270298D01*
X2116741Y270439D01*
X2117820Y270510D01*
X2118900Y270510D01*
X2119979Y270439D01*
X2121051Y270298D01*
X2122111Y270087D01*
X2123155Y269808D01*
X2124179Y269460D01*
X2125177Y269046D01*
X2126147Y268568D01*
X2127083Y268028D01*
X2127982Y267427D01*
X2128839Y266769D01*
X2129652Y266057D01*
X2130417Y265292D01*
X2131129Y264479D01*
X2131787Y263622D01*
X2132388Y262723D01*
X2132928Y261787D01*
X2133406Y260817D01*
X2133820Y259819D01*
X2134168Y258795D01*
X2134447Y257751D01*
X2134658Y256691D01*
X2134799Y255619D01*
X2134870Y254540D01*
X2134870Y253460D01*
X2134799Y252381D01*
X2134658Y251309D01*
X2134447Y250249D01*
X2134168Y249205D01*
X2133820Y248181D01*
X2133406Y247183D01*
X2132928Y246213D01*
X2132388Y245277D01*
X2131787Y244378D01*
X2131129Y243521D01*
X2130417Y242708D01*
X2129652Y241944D01*
X2128839Y241231D01*
X2127982Y240573D01*
X2127083Y239972D01*
X2126147Y239432D01*
X2125177Y238954D01*
X2124179Y238540D01*
X2123155Y238192D01*
X2122111Y237913D01*
X2121051Y237702D01*
X2119979Y237561D01*
X2118900Y237490D01*
X2117820Y237490D01*
X869143Y473075D02*
X867531Y473150D01*
X865924Y473298D01*
X864326Y473521D01*
X862739Y473818D01*
X861168Y474187D01*
X859616Y474629D01*
X858086Y475142D01*
X856581Y475725D01*
X855105Y476377D01*
X853660Y477096D01*
X852250Y477881D01*
X850878Y478731D01*
X849547Y479643D01*
X848259Y480616D01*
X847018Y481647D01*
X845825Y482734D01*
X844684Y483875D01*
X843597Y485068D01*
X842566Y486309D01*
X841593Y487597D01*
X840681Y488928D01*
X839831Y490300D01*
X839046Y491710D01*
X838327Y493155D01*
X837675Y494631D01*
X837092Y496136D01*
X836579Y497666D01*
X836137Y499218D01*
X835768Y500789D01*
X835471Y502376D01*
X835248Y503974D01*
X835100Y505581D01*
X835025Y507193D01*
X835025Y508807D01*
X835100Y510419D01*
X835248Y512026D01*
X835471Y513624D01*
X835768Y515211D01*
X836137Y516782D01*
X836579Y518334D01*
X837092Y519864D01*
X837675Y521369D01*
X838327Y522845D01*
X839046Y524290D01*
X839831Y525700D01*
X840681Y527072D01*
X841593Y528403D01*
X842566Y529691D01*
X843597Y530933D01*
X844684Y532125D01*
X845825Y533266D01*
X847018Y534354D01*
X848259Y535384D01*
X849547Y536357D01*
X850878Y537269D01*
X852250Y538119D01*
X853660Y538904D01*
X855105Y539623D01*
X856581Y540275D01*
X858086Y540858D01*
X859616Y541371D01*
X861168Y541813D01*
X862739Y542182D01*
X864326Y542479D01*
X865924Y542702D01*
X867531Y542850D01*
X869143Y542925D01*
X870757Y542925D01*
X872369Y542850D01*
X873976Y542702D01*
X875574Y542479D01*
X877161Y542182D01*
X878732Y541813D01*
X880284Y541371D01*
X881814Y540858D01*
X883319Y540275D01*
X884795Y539623D01*
X886240Y538904D01*
X887650Y538119D01*
X889022Y537269D01*
X890353Y536357D01*
X891641Y535384D01*
X892883Y534354D01*
X894075Y533266D01*
X895216Y532125D01*
X896304Y530933D01*
X897334Y529691D01*
X898307Y528403D01*
X899219Y527072D01*
X900069Y525700D01*
X900854Y524290D01*
X901573Y522845D01*
X902225Y521369D01*
X902808Y519864D01*
X903321Y518334D01*
X903763Y516782D01*
X904132Y515211D01*
X904429Y513624D01*
X904652Y512026D01*
X904800Y510419D01*
X904875Y508807D01*
X904875Y507193D01*
X904800Y505581D01*
X904652Y503974D01*
X904429Y502376D01*
X904132Y500789D01*
X903763Y499218D01*
X903321Y497666D01*
X902808Y496136D01*
X902225Y494631D01*
X901573Y493155D01*
X900854Y491710D01*
X900069Y490300D01*
X899219Y488928D01*
X898307Y487597D01*
X897334Y486309D01*
X896304Y485068D01*
X895216Y483875D01*
X894075Y482734D01*
X892883Y481647D01*
X891641Y480616D01*
X890353Y479643D01*
X889022Y478731D01*
X887650Y477881D01*
X886240Y477096D01*
X884795Y476377D01*
X883319Y475725D01*
X881814Y475142D01*
X880284Y474629D01*
X878732Y474187D01*
X877161Y473818D01*
X875574Y473521D01*
X873976Y473298D01*
X872369Y473150D01*
X870757Y473075D01*
X869143Y473075D01*
M02*
