G04 EAGLE Gerber RS-274X export*
G75*
%MOMM*%
%FSLAX34Y34*%
%LPD*%
%INSilkscreen Bottom*%
%IPPOS*%
%AMOC8*
5,1,8,0,0,1.08239X$1,22.5*%
G01*
%ADD10C,0.152400*%
%ADD11C,0.101600*%


D10*
X1526540Y966470D02*
X1526540Y938530D01*
X1546860Y966470D02*
X1546858Y966570D01*
X1546852Y966669D01*
X1546842Y966769D01*
X1546829Y966867D01*
X1546811Y966966D01*
X1546790Y967063D01*
X1546765Y967159D01*
X1546736Y967255D01*
X1546703Y967349D01*
X1546667Y967442D01*
X1546627Y967533D01*
X1546583Y967623D01*
X1546536Y967711D01*
X1546486Y967797D01*
X1546432Y967881D01*
X1546375Y967963D01*
X1546315Y968042D01*
X1546251Y968120D01*
X1546185Y968194D01*
X1546116Y968266D01*
X1546044Y968335D01*
X1545970Y968401D01*
X1545892Y968465D01*
X1545813Y968525D01*
X1545731Y968582D01*
X1545647Y968636D01*
X1545561Y968686D01*
X1545473Y968733D01*
X1545383Y968777D01*
X1545292Y968817D01*
X1545199Y968853D01*
X1545105Y968886D01*
X1545009Y968915D01*
X1544913Y968940D01*
X1544816Y968961D01*
X1544717Y968979D01*
X1544619Y968992D01*
X1544519Y969002D01*
X1544420Y969008D01*
X1544320Y969010D01*
X1546860Y938530D02*
X1546858Y938430D01*
X1546852Y938331D01*
X1546842Y938231D01*
X1546829Y938133D01*
X1546811Y938034D01*
X1546790Y937937D01*
X1546765Y937841D01*
X1546736Y937745D01*
X1546703Y937651D01*
X1546667Y937558D01*
X1546627Y937467D01*
X1546583Y937377D01*
X1546536Y937289D01*
X1546486Y937203D01*
X1546432Y937119D01*
X1546375Y937037D01*
X1546315Y936958D01*
X1546251Y936880D01*
X1546185Y936806D01*
X1546116Y936734D01*
X1546044Y936665D01*
X1545970Y936599D01*
X1545892Y936535D01*
X1545813Y936475D01*
X1545731Y936418D01*
X1545647Y936364D01*
X1545561Y936314D01*
X1545473Y936267D01*
X1545383Y936223D01*
X1545292Y936183D01*
X1545199Y936147D01*
X1545105Y936114D01*
X1545009Y936085D01*
X1544913Y936060D01*
X1544816Y936039D01*
X1544717Y936021D01*
X1544619Y936008D01*
X1544519Y935998D01*
X1544420Y935992D01*
X1544320Y935990D01*
X1529080Y935990D02*
X1528980Y935992D01*
X1528881Y935998D01*
X1528781Y936008D01*
X1528683Y936021D01*
X1528584Y936039D01*
X1528487Y936060D01*
X1528391Y936085D01*
X1528295Y936114D01*
X1528201Y936147D01*
X1528108Y936183D01*
X1528017Y936223D01*
X1527927Y936267D01*
X1527839Y936314D01*
X1527753Y936364D01*
X1527669Y936418D01*
X1527587Y936475D01*
X1527508Y936535D01*
X1527430Y936599D01*
X1527356Y936665D01*
X1527284Y936734D01*
X1527215Y936806D01*
X1527149Y936880D01*
X1527085Y936958D01*
X1527025Y937037D01*
X1526968Y937119D01*
X1526914Y937203D01*
X1526864Y937289D01*
X1526817Y937377D01*
X1526773Y937467D01*
X1526733Y937558D01*
X1526697Y937651D01*
X1526664Y937745D01*
X1526635Y937841D01*
X1526610Y937937D01*
X1526589Y938034D01*
X1526571Y938133D01*
X1526558Y938231D01*
X1526548Y938331D01*
X1526542Y938430D01*
X1526540Y938530D01*
X1526540Y966470D02*
X1526542Y966570D01*
X1526548Y966669D01*
X1526558Y966769D01*
X1526571Y966867D01*
X1526589Y966966D01*
X1526610Y967063D01*
X1526635Y967159D01*
X1526664Y967255D01*
X1526697Y967349D01*
X1526733Y967442D01*
X1526773Y967533D01*
X1526817Y967623D01*
X1526864Y967711D01*
X1526914Y967797D01*
X1526968Y967881D01*
X1527025Y967963D01*
X1527085Y968042D01*
X1527149Y968120D01*
X1527215Y968194D01*
X1527284Y968266D01*
X1527356Y968335D01*
X1527430Y968401D01*
X1527508Y968465D01*
X1527587Y968525D01*
X1527669Y968582D01*
X1527753Y968636D01*
X1527839Y968686D01*
X1527927Y968733D01*
X1528017Y968777D01*
X1528108Y968817D01*
X1528201Y968853D01*
X1528295Y968886D01*
X1528391Y968915D01*
X1528487Y968940D01*
X1528584Y968961D01*
X1528683Y968979D01*
X1528781Y968992D01*
X1528881Y969002D01*
X1528980Y969008D01*
X1529080Y969010D01*
X1544320Y969010D01*
X1544320Y935990D02*
X1529080Y935990D01*
X1546860Y938530D02*
X1546860Y966470D01*
X1475740Y966470D02*
X1475740Y938530D01*
X1496060Y966470D02*
X1496058Y966570D01*
X1496052Y966669D01*
X1496042Y966769D01*
X1496029Y966867D01*
X1496011Y966966D01*
X1495990Y967063D01*
X1495965Y967159D01*
X1495936Y967255D01*
X1495903Y967349D01*
X1495867Y967442D01*
X1495827Y967533D01*
X1495783Y967623D01*
X1495736Y967711D01*
X1495686Y967797D01*
X1495632Y967881D01*
X1495575Y967963D01*
X1495515Y968042D01*
X1495451Y968120D01*
X1495385Y968194D01*
X1495316Y968266D01*
X1495244Y968335D01*
X1495170Y968401D01*
X1495092Y968465D01*
X1495013Y968525D01*
X1494931Y968582D01*
X1494847Y968636D01*
X1494761Y968686D01*
X1494673Y968733D01*
X1494583Y968777D01*
X1494492Y968817D01*
X1494399Y968853D01*
X1494305Y968886D01*
X1494209Y968915D01*
X1494113Y968940D01*
X1494016Y968961D01*
X1493917Y968979D01*
X1493819Y968992D01*
X1493719Y969002D01*
X1493620Y969008D01*
X1493520Y969010D01*
X1496060Y938530D02*
X1496058Y938430D01*
X1496052Y938331D01*
X1496042Y938231D01*
X1496029Y938133D01*
X1496011Y938034D01*
X1495990Y937937D01*
X1495965Y937841D01*
X1495936Y937745D01*
X1495903Y937651D01*
X1495867Y937558D01*
X1495827Y937467D01*
X1495783Y937377D01*
X1495736Y937289D01*
X1495686Y937203D01*
X1495632Y937119D01*
X1495575Y937037D01*
X1495515Y936958D01*
X1495451Y936880D01*
X1495385Y936806D01*
X1495316Y936734D01*
X1495244Y936665D01*
X1495170Y936599D01*
X1495092Y936535D01*
X1495013Y936475D01*
X1494931Y936418D01*
X1494847Y936364D01*
X1494761Y936314D01*
X1494673Y936267D01*
X1494583Y936223D01*
X1494492Y936183D01*
X1494399Y936147D01*
X1494305Y936114D01*
X1494209Y936085D01*
X1494113Y936060D01*
X1494016Y936039D01*
X1493917Y936021D01*
X1493819Y936008D01*
X1493719Y935998D01*
X1493620Y935992D01*
X1493520Y935990D01*
X1478280Y935990D02*
X1478180Y935992D01*
X1478081Y935998D01*
X1477981Y936008D01*
X1477883Y936021D01*
X1477784Y936039D01*
X1477687Y936060D01*
X1477591Y936085D01*
X1477495Y936114D01*
X1477401Y936147D01*
X1477308Y936183D01*
X1477217Y936223D01*
X1477127Y936267D01*
X1477039Y936314D01*
X1476953Y936364D01*
X1476869Y936418D01*
X1476787Y936475D01*
X1476708Y936535D01*
X1476630Y936599D01*
X1476556Y936665D01*
X1476484Y936734D01*
X1476415Y936806D01*
X1476349Y936880D01*
X1476285Y936958D01*
X1476225Y937037D01*
X1476168Y937119D01*
X1476114Y937203D01*
X1476064Y937289D01*
X1476017Y937377D01*
X1475973Y937467D01*
X1475933Y937558D01*
X1475897Y937651D01*
X1475864Y937745D01*
X1475835Y937841D01*
X1475810Y937937D01*
X1475789Y938034D01*
X1475771Y938133D01*
X1475758Y938231D01*
X1475748Y938331D01*
X1475742Y938430D01*
X1475740Y938530D01*
X1475740Y966470D02*
X1475742Y966570D01*
X1475748Y966669D01*
X1475758Y966769D01*
X1475771Y966867D01*
X1475789Y966966D01*
X1475810Y967063D01*
X1475835Y967159D01*
X1475864Y967255D01*
X1475897Y967349D01*
X1475933Y967442D01*
X1475973Y967533D01*
X1476017Y967623D01*
X1476064Y967711D01*
X1476114Y967797D01*
X1476168Y967881D01*
X1476225Y967963D01*
X1476285Y968042D01*
X1476349Y968120D01*
X1476415Y968194D01*
X1476484Y968266D01*
X1476556Y968335D01*
X1476630Y968401D01*
X1476708Y968465D01*
X1476787Y968525D01*
X1476869Y968582D01*
X1476953Y968636D01*
X1477039Y968686D01*
X1477127Y968733D01*
X1477217Y968777D01*
X1477308Y968817D01*
X1477401Y968853D01*
X1477495Y968886D01*
X1477591Y968915D01*
X1477687Y968940D01*
X1477784Y968961D01*
X1477883Y968979D01*
X1477981Y968992D01*
X1478081Y969002D01*
X1478180Y969008D01*
X1478280Y969010D01*
X1493520Y969010D01*
X1493520Y935990D02*
X1478280Y935990D01*
X1496060Y938530D02*
X1496060Y966470D01*
X1501140Y966470D02*
X1501140Y938530D01*
X1521460Y966470D02*
X1521458Y966570D01*
X1521452Y966669D01*
X1521442Y966769D01*
X1521429Y966867D01*
X1521411Y966966D01*
X1521390Y967063D01*
X1521365Y967159D01*
X1521336Y967255D01*
X1521303Y967349D01*
X1521267Y967442D01*
X1521227Y967533D01*
X1521183Y967623D01*
X1521136Y967711D01*
X1521086Y967797D01*
X1521032Y967881D01*
X1520975Y967963D01*
X1520915Y968042D01*
X1520851Y968120D01*
X1520785Y968194D01*
X1520716Y968266D01*
X1520644Y968335D01*
X1520570Y968401D01*
X1520492Y968465D01*
X1520413Y968525D01*
X1520331Y968582D01*
X1520247Y968636D01*
X1520161Y968686D01*
X1520073Y968733D01*
X1519983Y968777D01*
X1519892Y968817D01*
X1519799Y968853D01*
X1519705Y968886D01*
X1519609Y968915D01*
X1519513Y968940D01*
X1519416Y968961D01*
X1519317Y968979D01*
X1519219Y968992D01*
X1519119Y969002D01*
X1519020Y969008D01*
X1518920Y969010D01*
X1521460Y938530D02*
X1521458Y938430D01*
X1521452Y938331D01*
X1521442Y938231D01*
X1521429Y938133D01*
X1521411Y938034D01*
X1521390Y937937D01*
X1521365Y937841D01*
X1521336Y937745D01*
X1521303Y937651D01*
X1521267Y937558D01*
X1521227Y937467D01*
X1521183Y937377D01*
X1521136Y937289D01*
X1521086Y937203D01*
X1521032Y937119D01*
X1520975Y937037D01*
X1520915Y936958D01*
X1520851Y936880D01*
X1520785Y936806D01*
X1520716Y936734D01*
X1520644Y936665D01*
X1520570Y936599D01*
X1520492Y936535D01*
X1520413Y936475D01*
X1520331Y936418D01*
X1520247Y936364D01*
X1520161Y936314D01*
X1520073Y936267D01*
X1519983Y936223D01*
X1519892Y936183D01*
X1519799Y936147D01*
X1519705Y936114D01*
X1519609Y936085D01*
X1519513Y936060D01*
X1519416Y936039D01*
X1519317Y936021D01*
X1519219Y936008D01*
X1519119Y935998D01*
X1519020Y935992D01*
X1518920Y935990D01*
X1503680Y935990D02*
X1503580Y935992D01*
X1503481Y935998D01*
X1503381Y936008D01*
X1503283Y936021D01*
X1503184Y936039D01*
X1503087Y936060D01*
X1502991Y936085D01*
X1502895Y936114D01*
X1502801Y936147D01*
X1502708Y936183D01*
X1502617Y936223D01*
X1502527Y936267D01*
X1502439Y936314D01*
X1502353Y936364D01*
X1502269Y936418D01*
X1502187Y936475D01*
X1502108Y936535D01*
X1502030Y936599D01*
X1501956Y936665D01*
X1501884Y936734D01*
X1501815Y936806D01*
X1501749Y936880D01*
X1501685Y936958D01*
X1501625Y937037D01*
X1501568Y937119D01*
X1501514Y937203D01*
X1501464Y937289D01*
X1501417Y937377D01*
X1501373Y937467D01*
X1501333Y937558D01*
X1501297Y937651D01*
X1501264Y937745D01*
X1501235Y937841D01*
X1501210Y937937D01*
X1501189Y938034D01*
X1501171Y938133D01*
X1501158Y938231D01*
X1501148Y938331D01*
X1501142Y938430D01*
X1501140Y938530D01*
X1501140Y966470D02*
X1501142Y966570D01*
X1501148Y966669D01*
X1501158Y966769D01*
X1501171Y966867D01*
X1501189Y966966D01*
X1501210Y967063D01*
X1501235Y967159D01*
X1501264Y967255D01*
X1501297Y967349D01*
X1501333Y967442D01*
X1501373Y967533D01*
X1501417Y967623D01*
X1501464Y967711D01*
X1501514Y967797D01*
X1501568Y967881D01*
X1501625Y967963D01*
X1501685Y968042D01*
X1501749Y968120D01*
X1501815Y968194D01*
X1501884Y968266D01*
X1501956Y968335D01*
X1502030Y968401D01*
X1502108Y968465D01*
X1502187Y968525D01*
X1502269Y968582D01*
X1502353Y968636D01*
X1502439Y968686D01*
X1502527Y968733D01*
X1502617Y968777D01*
X1502708Y968817D01*
X1502801Y968853D01*
X1502895Y968886D01*
X1502991Y968915D01*
X1503087Y968940D01*
X1503184Y968961D01*
X1503283Y968979D01*
X1503381Y968992D01*
X1503481Y969002D01*
X1503580Y969008D01*
X1503680Y969010D01*
X1518920Y969010D01*
X1518920Y935990D02*
X1503680Y935990D01*
X1521460Y938530D02*
X1521460Y966470D01*
X1450340Y966470D02*
X1450340Y938530D01*
X1470660Y966470D02*
X1470658Y966570D01*
X1470652Y966669D01*
X1470642Y966769D01*
X1470629Y966867D01*
X1470611Y966966D01*
X1470590Y967063D01*
X1470565Y967159D01*
X1470536Y967255D01*
X1470503Y967349D01*
X1470467Y967442D01*
X1470427Y967533D01*
X1470383Y967623D01*
X1470336Y967711D01*
X1470286Y967797D01*
X1470232Y967881D01*
X1470175Y967963D01*
X1470115Y968042D01*
X1470051Y968120D01*
X1469985Y968194D01*
X1469916Y968266D01*
X1469844Y968335D01*
X1469770Y968401D01*
X1469692Y968465D01*
X1469613Y968525D01*
X1469531Y968582D01*
X1469447Y968636D01*
X1469361Y968686D01*
X1469273Y968733D01*
X1469183Y968777D01*
X1469092Y968817D01*
X1468999Y968853D01*
X1468905Y968886D01*
X1468809Y968915D01*
X1468713Y968940D01*
X1468616Y968961D01*
X1468517Y968979D01*
X1468419Y968992D01*
X1468319Y969002D01*
X1468220Y969008D01*
X1468120Y969010D01*
X1470660Y938530D02*
X1470658Y938430D01*
X1470652Y938331D01*
X1470642Y938231D01*
X1470629Y938133D01*
X1470611Y938034D01*
X1470590Y937937D01*
X1470565Y937841D01*
X1470536Y937745D01*
X1470503Y937651D01*
X1470467Y937558D01*
X1470427Y937467D01*
X1470383Y937377D01*
X1470336Y937289D01*
X1470286Y937203D01*
X1470232Y937119D01*
X1470175Y937037D01*
X1470115Y936958D01*
X1470051Y936880D01*
X1469985Y936806D01*
X1469916Y936734D01*
X1469844Y936665D01*
X1469770Y936599D01*
X1469692Y936535D01*
X1469613Y936475D01*
X1469531Y936418D01*
X1469447Y936364D01*
X1469361Y936314D01*
X1469273Y936267D01*
X1469183Y936223D01*
X1469092Y936183D01*
X1468999Y936147D01*
X1468905Y936114D01*
X1468809Y936085D01*
X1468713Y936060D01*
X1468616Y936039D01*
X1468517Y936021D01*
X1468419Y936008D01*
X1468319Y935998D01*
X1468220Y935992D01*
X1468120Y935990D01*
X1452880Y935990D02*
X1452780Y935992D01*
X1452681Y935998D01*
X1452581Y936008D01*
X1452483Y936021D01*
X1452384Y936039D01*
X1452287Y936060D01*
X1452191Y936085D01*
X1452095Y936114D01*
X1452001Y936147D01*
X1451908Y936183D01*
X1451817Y936223D01*
X1451727Y936267D01*
X1451639Y936314D01*
X1451553Y936364D01*
X1451469Y936418D01*
X1451387Y936475D01*
X1451308Y936535D01*
X1451230Y936599D01*
X1451156Y936665D01*
X1451084Y936734D01*
X1451015Y936806D01*
X1450949Y936880D01*
X1450885Y936958D01*
X1450825Y937037D01*
X1450768Y937119D01*
X1450714Y937203D01*
X1450664Y937289D01*
X1450617Y937377D01*
X1450573Y937467D01*
X1450533Y937558D01*
X1450497Y937651D01*
X1450464Y937745D01*
X1450435Y937841D01*
X1450410Y937937D01*
X1450389Y938034D01*
X1450371Y938133D01*
X1450358Y938231D01*
X1450348Y938331D01*
X1450342Y938430D01*
X1450340Y938530D01*
X1450340Y966470D02*
X1450342Y966570D01*
X1450348Y966669D01*
X1450358Y966769D01*
X1450371Y966867D01*
X1450389Y966966D01*
X1450410Y967063D01*
X1450435Y967159D01*
X1450464Y967255D01*
X1450497Y967349D01*
X1450533Y967442D01*
X1450573Y967533D01*
X1450617Y967623D01*
X1450664Y967711D01*
X1450714Y967797D01*
X1450768Y967881D01*
X1450825Y967963D01*
X1450885Y968042D01*
X1450949Y968120D01*
X1451015Y968194D01*
X1451084Y968266D01*
X1451156Y968335D01*
X1451230Y968401D01*
X1451308Y968465D01*
X1451387Y968525D01*
X1451469Y968582D01*
X1451553Y968636D01*
X1451639Y968686D01*
X1451727Y968733D01*
X1451817Y968777D01*
X1451908Y968817D01*
X1452001Y968853D01*
X1452095Y968886D01*
X1452191Y968915D01*
X1452287Y968940D01*
X1452384Y968961D01*
X1452483Y968979D01*
X1452581Y968992D01*
X1452681Y969002D01*
X1452780Y969008D01*
X1452880Y969010D01*
X1468120Y969010D01*
X1468120Y935990D02*
X1452880Y935990D01*
X1470660Y938530D02*
X1470660Y966470D01*
D11*
X552958Y751757D02*
X552958Y743961D01*
X560754Y751757D01*
X562703Y751757D01*
X564652Y749808D01*
X564652Y745910D01*
X562703Y743961D01*
X564652Y261361D02*
X552958Y261361D01*
X558805Y255514D02*
X564652Y261361D01*
X558805Y263310D02*
X558805Y255514D01*
X554907Y267208D02*
X562703Y267208D01*
X564652Y269157D01*
X564652Y273055D01*
X562703Y275004D01*
X554907Y275004D01*
X552958Y273055D01*
X552958Y269157D01*
X554907Y267208D01*
X562703Y275004D01*
M02*
