M48
;GenerationSoftware,Autodesk,EAGLE,9.6.1*%
;CreationDate,2026-09-11T04:06:47Z*%
FMAT,2
ICI,OFF
METRIC,TZ,000.000
T14C0.610
T13C0.700
T12C0.813
T11C0.914
T10C1.016
T9C1.100
T8C1.118
T7C1.194
T6C2.540
T5C2.667
T4C3.175
T3C3.302
T2C3.607
T1C6.985
%
G90
M71
T1
X86995Y50800
X208280Y82550
T2
X62865Y28130
X62865Y73470
T3
X211836Y95250
X211836Y25400
T4
X202640Y10160
T5
X205740Y14960
X208740Y10160
T6
X127000Y19050
X127000Y52070
X165100Y19050
X165100Y52070
T7
X186652Y91986
X181648Y91986
X181648Y95974
X186652Y95974
T8
X91440Y15240
X91440Y2540
X189230Y74930
X196850Y22860
X196850Y92710
X196850Y25400
X196850Y27940
X196850Y36830
X196850Y67310
X115570Y20320
X115570Y50800
X196850Y97790
X196850Y95250
X189230Y85090
X193040Y82550
X193040Y72390
T9
X87630Y34290
X87630Y26670
T10
X60960Y80010
X115570Y58420
X187960Y69850
T11
X173990Y22860
X173990Y20320
X176530Y48260
X64770Y97790
X64770Y95250
X64770Y92710
X176530Y40640
X64770Y86360
X64770Y83820
X175260Y83820
X64770Y88900
X62230Y62230
X62230Y64770
X176530Y30480
X176530Y38100
X177800Y83820
T12
X143510Y10160
X140970Y10160
X138430Y10160
X135890Y10160
X133350Y10160
X107950Y2540
X110490Y2540
X123190Y2540
X123190Y10160
X113030Y2540
X115570Y2540
X120650Y2540
X120650Y10160
X118110Y10160
X115570Y10160
X113030Y10160
X110490Y10160
X107950Y10160
X161290Y2540
X163830Y2540
X176530Y2540
X176530Y10160
X166370Y2540
X168910Y2540
X173990Y2540
X171450Y2540
X173990Y10160
X171450Y10160
X168910Y10160
X166370Y10160
X163830Y10160
X161290Y10160
X163830Y71120
X171450Y71120
X113030Y91440
X115570Y91440
X118110Y91440
X120650Y91440
X120650Y99060
X118110Y99060
X115570Y99060
X113030Y99060
X130810Y99060
X130810Y91440
X125730Y91440
X125730Y99060
X171450Y73660
X163830Y73660
X128270Y99060
X128270Y91440
X133350Y91440
X133350Y99060
X135890Y91440
X135890Y99060
X128270Y88900
X135890Y88900
X107950Y67310
X107950Y64770
X111760Y67310
X111760Y64770
X127000Y67310
X134620Y67310
X177800Y72390
X176530Y74295
X175260Y72390
X120650Y67310
X120650Y64770
X115570Y67310
X115570Y64770
X157480Y10160
X154940Y10160
X129540Y10160
X127000Y10160
X154940Y3810
X157480Y3810
X127000Y3810
X129540Y3810
X181610Y13970
X181610Y11430
X104140Y13970
X104140Y16510
X96520Y13970
X96520Y16510
X110490Y92710
X110490Y90170
X104140Y55880
X106680Y55880
X93980Y45720
X93980Y43180
X99060Y52070
X96520Y52070
X144780Y60960
X144780Y63500
X138430Y63500
X118110Y2540
X138430Y60960
X151130Y63500
X151130Y60960
X180340Y64770
X177800Y64770
X185420Y59690
X187960Y59690
X187960Y64770
X185420Y64770
X182880Y71120
X185420Y76200
X182880Y76200
X175260Y54610
X172720Y54610
X102870Y10160
X100330Y10160
X102870Y5080
X102870Y2540
X186690Y11430
X186690Y13970
X210820Y60960
X210820Y63500
X210820Y68580
X210820Y71120
X195580Y71120
X203200Y71120
X195580Y74930
X203200Y74930
X190500Y3810
X193040Y3810
X193040Y27940
X193040Y33020
X193040Y22860
X193040Y17780
X143510Y91440
X146050Y91440
X158750Y91440
X158750Y99060
X148590Y91440
X151130Y91440
X156210Y91440
X153670Y91440
X156210Y99060
X153670Y99060
X151130Y99060
X148590Y99060
X146050Y99060
X143510Y99060
X172720Y97790
X165100Y97790
X165100Y90170
X172720Y90170
X182880Y83820
X185420Y83820
X139700Y99060
X139700Y96520
X194310Y11430
X196850Y11430
X110490Y99060
X110490Y96520
X69850Y31750
X69850Y29210
X69850Y26670
X69850Y24130
X69850Y21590
X69850Y19050
X69850Y16510
X69850Y13970
X69850Y11430
X69850Y8890
X69850Y6350
X69850Y3810
X77470Y3810
X77470Y6350
X77470Y8890
X77470Y11430
X77470Y13970
X77470Y19050
X77470Y21590
X77470Y24130
X77470Y26670
X77470Y29210
X77470Y31750
X69850Y55880
X69850Y53340
X69850Y40640
X77470Y40640
X69850Y50800
X69850Y48260
X69850Y43180
X69850Y45720
X77470Y43180
X77470Y45720
X77470Y48260
X77470Y50800
X77470Y53340
X77470Y55880
X99060Y95250
X99060Y92710
X99060Y80010
X99060Y77470
X99060Y90170
X99060Y87630
X99060Y82550
X99060Y85090
X99060Y74930
X99060Y72390
X106680Y72390
X106680Y74930
X106680Y77470
X106680Y80010
X106680Y82550
X106680Y85090
X106680Y87630
X106680Y90170
X106680Y92710
X106680Y95250
X81280Y31750
X81280Y29210
X81280Y26670
X81280Y24130
X81280Y21590
X69850Y95250
X69850Y92710
X69850Y80010
X69850Y77470
X69850Y90170
X69850Y87630
X69850Y82550
X69850Y85090
X69850Y74930
X69850Y72390
X69850Y69850
X69850Y67310
X69850Y64770
X69850Y62230
X85090Y62230
X85090Y64770
X85090Y67310
X85090Y69850
X85090Y72390
X85090Y74930
X85090Y77470
X85090Y80010
X85090Y82550
X85090Y85090
X85090Y87630
X85090Y90170
X85090Y92710
X85090Y95250
X77470Y34290
X74930Y34290
X77470Y58420
X74930Y58420
X106680Y97790
X104140Y97790
X85090Y97790
X82550Y97790
X77470Y16510
X180340Y50800
X181610Y5080
X184150Y5080
X193040Y99060
X193040Y93980
X193040Y90170
X193040Y85090
X111760Y71120
X114300Y71120
X127000Y71120
X129540Y71120
X116840Y71120
X119380Y71120
X124460Y71120
X121920Y71120
X132080Y71120
X134620Y71120
X137160Y71120
X139700Y71120
X142240Y71120
X144780Y71120
X147320Y71120
X149860Y71120
X152400Y71120
X154940Y71120
X157480Y71120
X160020Y71120
X160020Y86360
X157480Y86360
X154940Y86360
X152400Y86360
X149860Y86360
X147320Y86360
X144780Y86360
X142240Y86360
X139700Y86360
X137160Y86360
X134620Y86360
X132080Y86360
X129540Y86360
X127000Y86360
X124460Y86360
X121920Y86360
X119380Y86360
X116840Y86360
X114300Y86360
X111760Y86360
X96520Y46990
X96520Y44450
X96520Y41910
X96520Y39370
X96520Y36830
X96520Y34290
X96520Y31750
X96520Y29210
X96520Y26670
X96520Y24130
X96520Y21590
X106680Y21590
X106680Y24130
X106680Y26670
X106680Y29210
X106680Y31750
X106680Y34290
X106680Y36830
X106680Y39370
X106680Y41910
X106680Y44450
X106680Y46990
X180340Y53340
X185420Y71120
X180340Y38100
X180340Y35560
X180340Y48260
X180340Y45720
X180340Y40640
X180340Y43180
X180340Y33020
X180340Y30480
X187960Y30480
X187960Y33020
X187960Y35560
X187960Y38100
X187960Y40640
X187960Y43180
X187960Y45720
X187960Y48260
X187960Y50800
X187960Y53340
X163830Y82550
X171450Y82550
X171450Y76200
X163830Y76200
X92710Y24130
X92710Y21590
X177800Y59690
X180340Y59690
X166370Y63500
X173990Y63500
X127000Y46990
X127000Y44450
X127000Y31750
X127000Y29210
X127000Y41910
X127000Y39370
X127000Y34290
X127000Y36830
X127000Y26670
X127000Y24130
X165100Y24130
X165100Y26670
X165100Y29210
X165100Y31750
X165100Y34290
X165100Y36830
X165100Y39370
X165100Y41910
X165100Y44450
X165100Y46990
X118110Y15240
X110490Y15240
X171450Y59690
X173990Y59690
X162560Y63500
X154940Y63500
X162560Y60960
X154940Y60960
X172720Y48260
X172720Y45720
X172720Y43180
X172720Y40640
X172720Y38100
X172720Y35560
X172720Y33020
X172720Y30480
X133350Y2540
X135890Y2540
X148590Y2540
X151130Y2540
X138430Y2540
X140970Y2540
X146050Y2540
X143510Y2540
X151130Y10160
X148590Y10160
X146050Y10160
T13
X184150Y91480
X184150Y96480
T14
X72708Y62230
X74613Y40799
X88424Y43021
X85090Y36036
X72708Y41116
X55245Y34290
X120174Y96361
X164941Y5398
X170656Y4763
X160020Y5398
X99060Y55880
X104140Y64770
X158909Y63976
X103187Y91757
X100806Y98584
X62071Y99536
X58261Y65087
X57785Y76200
X57785Y68898
X56515Y67628
X73184Y84773
X74136Y62230
X101759Y82391
X101759Y80486
X66993Y78581
X65087Y64929
X56039Y63341
X112395Y79534
X108585Y60007
X100965Y59690
X100965Y40958
X63817Y36513
X60642Y59214
X66993Y76041
X66040Y56356
X55245Y56197
X106680Y66040
X111125Y28734
X67151Y28099
X61119Y55880
X76359Y68739
X73978Y57150
X57785Y58261
X90964Y34449
X90964Y47307
X97472Y49689
X108902Y90329
X134620Y59531
X106362Y52070
X114617Y95091
X185420Y20320
X120809Y47307
X121444Y52546
X133509Y54451
X134461Y88582
X125730Y48419
X114459Y30639
X117157Y33338
X129857Y33020
X98584Y44450
X119539Y47307
X120491Y50324
X130651Y53499
X104616Y26670
X109220Y36354
X128587Y37941
X129699Y65723
X139700Y69056
X114300Y25559
X118110Y51752
X126047Y55880
X128429Y72708
X131604Y73660
X175260Y52864
X160496Y59690
X177482Y56356
X173831Y87313
X189865Y59531
X155099Y73660
X148590Y82550
X151924Y76994
X117475Y76200
X153353Y78581
X158909Y62547
X167640Y67310
X190341Y20161
X167005Y6032
X160020Y7302
X162560Y7302
X89694Y45244
X89694Y24447
X125730Y14922
X129540Y37148
X129699Y55880
X109220Y41434
X124619Y31432
X110172Y38418
X128587Y30639
X108744Y33973
X122872Y39370
X124142Y34290
X120174Y17145
X121920Y33973
X100012Y39529
X100330Y16828
X134779Y15557
X136525Y13811
X176847Y12700
X101282Y38576
X101600Y62389
X126524Y61595
X129222Y64294
X145891Y64770
X150019Y59690
X170180Y36989
X170180Y41910
X170180Y33020
X142558Y18415
X191770Y34608
X186690Y78740
X199072Y19685
X152876Y17145
X120967Y83661
X188912Y77153
X194310Y16510
X151606Y15875
X121920Y80486
X170021Y71438
X178435Y62230
X147479Y13652
X113665Y4763
X103664Y31591
X176054Y23654
X175895Y14764
X133509Y13017
X142558Y6032
X136525Y5715
X167958Y7302
X153670Y6032
X108109Y18891
X120809Y46037
X121920Y54292
X158115Y55562
X111442Y84138
X178435Y86360
X184150Y18256
X82233Y16986
X124460Y25400
X120650Y26194
X123190Y80486
X133350Y66358
X100330Y65881
X98584Y70803
X73343Y10478
X73978Y51752
X56832Y54927
X96361Y56197
X94456Y55880
X93345Y40958
X73978Y39529
X119539Y36513
X94932Y32861
X93345Y31115
X123825Y48419
X79216Y44132
X104616Y38100
X113982Y73660
X126841Y73660
X110172Y51594
X116840Y53340
X85090Y34608
X101759Y37148
X103664Y39053
X103664Y53340
X55562Y65723
X66993Y64929
X66993Y57309
X161131Y83979
X160496Y75248
X108902Y74930
X89059Y57785
X59214Y51435
X81121Y72866
X80645Y33338
X61436Y33020
X84614Y19368
X81598Y57467
X78740Y57467
X77788Y61436
X75406Y63817
X75089Y76994
X58737Y61119
X81598Y46196
X55404Y49212
X117951Y93821
X109855Y58737
X94456Y57150
X93345Y47149
X58261Y50641
X89535Y81121
X87154Y16828
X72549Y14129
X70326Y36036
X67628Y36036
X63500Y46037
X73184Y83503
X73184Y73978
X65087Y69691
X84138Y12859
X83661Y45085
X55245Y45085
X73184Y86043
X75406Y62547
X79058Y60484
X75724Y44609
X66516Y42704
X60166Y53181
X60166Y43498
X55245Y42863
X82391Y87154
X81598Y59849
X70803Y59531
X66993Y53181
X64452Y43498
X79534Y54451
X82074Y52229
X55245Y40958
X63976Y40958
X65564Y49689
X56197Y48260
X56197Y40164
X78423Y81915
X74613Y48419
X55562Y37465
X67945Y38418
X60166Y39846
X60166Y33020
X55245Y32702
X87313Y63024
X94774Y61595
X100012Y43021
X57309Y47307
X57150Y30797
X79693Y37941
X56832Y37465
X62071Y35560
X86519Y58737
X108585Y58737
X108744Y24130
X57785Y28575
X57150Y53022
X168910Y43180
X170180Y46990
X168910Y38100
X118427Y69374
X97314Y62865
X89376Y22701
X59214Y70009
X124460Y17463
X72866Y58579
X142081Y52705
X90011Y54610
X85884Y57467
X102552Y78581
X136684Y78581
X79375Y87154
X78264Y67310
X105092Y68421
X76835Y87154
X75565Y70961
X93504Y90011
X96679Y69850
X80010Y65246
X97949Y60960
X92392Y59690
X91599Y27146
X99060Y62389
X56832Y69691
X95409Y67786
X79534Y67310
X116681Y61436
X135890Y61277
X94456Y65723
X96996Y87630
X140653Y82709
X138589Y65723
X58737Y62389
X56832Y62389
X61119Y69691
X60166Y67628
X87789Y66834
X86995Y93504
X140653Y81439
X92869Y64770
X201136Y31115
X140653Y78105
X102552Y76359
X93027Y66834
X102711Y64770
X103029Y20320
X89535Y79534
M30