G04 EAGLE Gerber RS-274X export*
G75*
%MOMM*%
%FSLAX34Y34*%
%LPD*%
%INSoldermask Bottom*%
%IPPOS*%
%AMOC8*
5,1,8,0,0,1.08239X$1,22.5*%
G01*
%ADD10C,7.188200*%
%ADD11C,1.879600*%
%ADD12C,3.505200*%
%ADD13P,1.951982X8X202.500000*%
%ADD14C,1.803400*%
%ADD15P,1.649562X8X292.500000*%
%ADD16C,1.524000*%
%ADD17P,1.649562X8X22.500000*%
%ADD18P,1.649562X8X202.500000*%
%ADD19C,2.743200*%
%ADD20C,1.625600*%
%ADD21P,1.759533X8X292.500000*%
%ADD22P,1.759533X8X112.500000*%
%ADD23P,1.649562X8X112.500000*%
%ADD24C,3.352800*%
%ADD25P,3.629037X8X292.500000*%
%ADD26P,1.951982X8X112.500000*%
%ADD27P,1.951982X8X292.500000*%
%ADD28P,1.951982X8X22.500000*%
%ADD29C,1.524000*%
%ADD30R,1.803400X1.371600*%
%ADD31R,1.828800X0.152400*%
%ADD32C,4.648200*%
%ADD33C,4.013200*%
%ADD34C,1.411200*%
%ADD35P,2.158177X8X292.500000*%
%ADD36C,1.879600*%
%ADD37P,1.869504X8X292.500000*%
%ADD38R,9.728200X1.473200*%
%ADD39C,5.918200*%
%ADD40C,1.903200*%
%ADD41P,1.869504X8X112.500000*%


D10*
X2082800Y825500D03*
D11*
X1976882Y977900D02*
X1960118Y977900D01*
X1960118Y952500D02*
X1976882Y952500D01*
X1976882Y927100D02*
X1960118Y927100D01*
D12*
X2118360Y952500D03*
D13*
X1816100Y50800D03*
D14*
X1841500Y50800D03*
D15*
X1930400Y990600D03*
X1930400Y939800D03*
X1930400Y901700D03*
X1930400Y850900D03*
D16*
X1117600Y717804D02*
X1117600Y704596D01*
X1143000Y704596D02*
X1143000Y717804D01*
X1270000Y717804D02*
X1270000Y704596D01*
X1295400Y704596D02*
X1295400Y717804D01*
X1168400Y717804D02*
X1168400Y704596D01*
X1193800Y704596D02*
X1193800Y717804D01*
X1244600Y717804D02*
X1244600Y704596D01*
X1219200Y704596D02*
X1219200Y717804D01*
X1320800Y717804D02*
X1320800Y704596D01*
X1346200Y704596D02*
X1346200Y717804D01*
X1371600Y717804D02*
X1371600Y704596D01*
X1397000Y704596D02*
X1397000Y717804D01*
X1422400Y717804D02*
X1422400Y704596D01*
X1447800Y704596D02*
X1447800Y717804D01*
X1473200Y717804D02*
X1473200Y704596D01*
X1498600Y704596D02*
X1498600Y717804D01*
X1524000Y717804D02*
X1524000Y704596D01*
X1549400Y704596D02*
X1549400Y717804D01*
X1574800Y717804D02*
X1574800Y704596D01*
X1600200Y704596D02*
X1600200Y717804D01*
X1600200Y856996D02*
X1600200Y870204D01*
X1574800Y870204D02*
X1574800Y856996D01*
X1549400Y856996D02*
X1549400Y870204D01*
X1524000Y870204D02*
X1524000Y856996D01*
X1498600Y856996D02*
X1498600Y870204D01*
X1473200Y870204D02*
X1473200Y856996D01*
X1447800Y856996D02*
X1447800Y870204D01*
X1422400Y870204D02*
X1422400Y856996D01*
X1397000Y856996D02*
X1397000Y870204D01*
X1371600Y870204D02*
X1371600Y856996D01*
X1346200Y856996D02*
X1346200Y870204D01*
X1320800Y870204D02*
X1320800Y856996D01*
X1295400Y856996D02*
X1295400Y870204D01*
X1270000Y870204D02*
X1270000Y856996D01*
X1244600Y856996D02*
X1244600Y870204D01*
X1219200Y870204D02*
X1219200Y856996D01*
X1193800Y856996D02*
X1193800Y870204D01*
X1168400Y870204D02*
X1168400Y856996D01*
X1143000Y856996D02*
X1143000Y870204D01*
X1117600Y870204D02*
X1117600Y856996D01*
X971804Y469900D02*
X958596Y469900D01*
X958596Y444500D02*
X971804Y444500D01*
X971804Y419100D02*
X958596Y419100D01*
X958596Y393700D02*
X971804Y393700D01*
X971804Y368300D02*
X958596Y368300D01*
X958596Y342900D02*
X971804Y342900D01*
X971804Y317500D02*
X958596Y317500D01*
X958596Y292100D02*
X971804Y292100D01*
X971804Y266700D02*
X958596Y266700D01*
X958596Y241300D02*
X971804Y241300D01*
X971804Y215900D02*
X958596Y215900D01*
X1060196Y215900D02*
X1073404Y215900D01*
X1073404Y241300D02*
X1060196Y241300D01*
X1060196Y266700D02*
X1073404Y266700D01*
X1073404Y292100D02*
X1060196Y292100D01*
X1060196Y317500D02*
X1073404Y317500D01*
X1073404Y342900D02*
X1060196Y342900D01*
X1060196Y368300D02*
X1073404Y368300D01*
X1073404Y393700D02*
X1060196Y393700D01*
X1060196Y419100D02*
X1073404Y419100D01*
X1073404Y444500D02*
X1060196Y444500D01*
X1060196Y469900D02*
X1073404Y469900D01*
X1796796Y533400D02*
X1810004Y533400D01*
X1810004Y508000D02*
X1796796Y508000D01*
X1796796Y381000D02*
X1810004Y381000D01*
X1810004Y355600D02*
X1796796Y355600D01*
X1796796Y482600D02*
X1810004Y482600D01*
X1810004Y457200D02*
X1796796Y457200D01*
X1796796Y406400D02*
X1810004Y406400D01*
X1810004Y431800D02*
X1796796Y431800D01*
X1796796Y330200D02*
X1810004Y330200D01*
X1810004Y304800D02*
X1796796Y304800D01*
X1872996Y304800D02*
X1886204Y304800D01*
X1886204Y330200D02*
X1872996Y330200D01*
X1872996Y355600D02*
X1886204Y355600D01*
X1886204Y381000D02*
X1872996Y381000D01*
X1872996Y406400D02*
X1886204Y406400D01*
X1886204Y431800D02*
X1872996Y431800D01*
X1872996Y457200D02*
X1886204Y457200D01*
X1886204Y482600D02*
X1872996Y482600D01*
X1872996Y508000D02*
X1886204Y508000D01*
X1886204Y533400D02*
X1872996Y533400D01*
D17*
X1638300Y825500D03*
X1714500Y825500D03*
D18*
X1714500Y762000D03*
X1638300Y762000D03*
D15*
X927100Y241300D03*
X927100Y215900D03*
D17*
X1778000Y596900D03*
X1803400Y596900D03*
X1663700Y635000D03*
X1739900Y635000D03*
D16*
X1276604Y469900D02*
X1263396Y469900D01*
X1263396Y444500D02*
X1276604Y444500D01*
X1276604Y317500D02*
X1263396Y317500D01*
X1263396Y292100D02*
X1276604Y292100D01*
X1276604Y419100D02*
X1263396Y419100D01*
X1263396Y393700D02*
X1276604Y393700D01*
X1276604Y342900D02*
X1263396Y342900D01*
X1263396Y368300D02*
X1276604Y368300D01*
X1276604Y266700D02*
X1263396Y266700D01*
X1263396Y241300D02*
X1276604Y241300D01*
X1644396Y241300D02*
X1657604Y241300D01*
X1657604Y266700D02*
X1644396Y266700D01*
X1644396Y292100D02*
X1657604Y292100D01*
X1657604Y317500D02*
X1644396Y317500D01*
X1644396Y342900D02*
X1657604Y342900D01*
X1657604Y368300D02*
X1644396Y368300D01*
X1644396Y393700D02*
X1657604Y393700D01*
X1657604Y419100D02*
X1644396Y419100D01*
X1644396Y444500D02*
X1657604Y444500D01*
X1657604Y469900D02*
X1644396Y469900D01*
D19*
X1651000Y520700D03*
X1651000Y190500D03*
X1270000Y520700D03*
X1270000Y190500D03*
D20*
X1732788Y228600D02*
X1747012Y228600D01*
X1747012Y203200D02*
X1732788Y203200D01*
D18*
X1181100Y152400D03*
X1104900Y152400D03*
D21*
X1765300Y482600D03*
X1765300Y406400D03*
D22*
X1765300Y304800D03*
X1765300Y381000D03*
D17*
X1714500Y596900D03*
X1739900Y596900D03*
D18*
X1625600Y635000D03*
X1549400Y635000D03*
X1625600Y609600D03*
X1549400Y609600D03*
D16*
X1720596Y482600D02*
X1733804Y482600D01*
X1733804Y457200D02*
X1720596Y457200D01*
X1720596Y431800D02*
X1733804Y431800D01*
X1733804Y406400D02*
X1720596Y406400D01*
X1720596Y381000D02*
X1733804Y381000D01*
X1733804Y355600D02*
X1720596Y355600D01*
X1720596Y330200D02*
X1733804Y330200D01*
X1733804Y304800D02*
X1720596Y304800D01*
X1333500Y32004D02*
X1333500Y18796D01*
X1358900Y18796D02*
X1358900Y32004D01*
X1485900Y32004D02*
X1485900Y18796D01*
X1511300Y18796D02*
X1511300Y32004D01*
X1384300Y32004D02*
X1384300Y18796D01*
X1409700Y18796D02*
X1409700Y32004D01*
X1460500Y32004D02*
X1460500Y18796D01*
X1435100Y18796D02*
X1435100Y32004D01*
X1511300Y94996D02*
X1511300Y108204D01*
X1485900Y108204D02*
X1485900Y94996D01*
X1460500Y94996D02*
X1460500Y108204D01*
X1435100Y108204D02*
X1435100Y94996D01*
X1409700Y94996D02*
X1409700Y108204D01*
X1384300Y108204D02*
X1384300Y94996D01*
X1358900Y94996D02*
X1358900Y108204D01*
X1333500Y108204D02*
X1333500Y94996D01*
X1079500Y32004D02*
X1079500Y18796D01*
X1104900Y18796D02*
X1104900Y32004D01*
X1231900Y32004D02*
X1231900Y18796D01*
X1231900Y94996D02*
X1231900Y108204D01*
X1130300Y32004D02*
X1130300Y18796D01*
X1155700Y18796D02*
X1155700Y32004D01*
X1206500Y32004D02*
X1206500Y18796D01*
X1181100Y18796D02*
X1181100Y32004D01*
X1206500Y94996D02*
X1206500Y108204D01*
X1181100Y108204D02*
X1181100Y94996D01*
X1155700Y94996D02*
X1155700Y108204D01*
X1130300Y108204D02*
X1130300Y94996D01*
X1104900Y94996D02*
X1104900Y108204D01*
X1079500Y108204D02*
X1079500Y94996D01*
X1612900Y32004D02*
X1612900Y18796D01*
X1638300Y18796D02*
X1638300Y32004D01*
X1765300Y32004D02*
X1765300Y18796D01*
X1765300Y94996D02*
X1765300Y108204D01*
X1663700Y32004D02*
X1663700Y18796D01*
X1689100Y18796D02*
X1689100Y32004D01*
X1739900Y32004D02*
X1739900Y18796D01*
X1714500Y18796D02*
X1714500Y32004D01*
X1739900Y94996D02*
X1739900Y108204D01*
X1714500Y108204D02*
X1714500Y94996D01*
X1689100Y94996D02*
X1689100Y108204D01*
X1663700Y108204D02*
X1663700Y94996D01*
X1638300Y94996D02*
X1638300Y108204D01*
X1612900Y108204D02*
X1612900Y94996D01*
D17*
X1638300Y711200D03*
X1714500Y711200D03*
D16*
X1130300Y907796D02*
X1130300Y921004D01*
X1155700Y921004D02*
X1155700Y907796D01*
X1181100Y907796D02*
X1181100Y921004D01*
X1206500Y921004D02*
X1206500Y907796D01*
X1206500Y983996D02*
X1206500Y997204D01*
X1181100Y997204D02*
X1181100Y983996D01*
X1155700Y983996D02*
X1155700Y997204D01*
X1130300Y997204D02*
X1130300Y983996D01*
D15*
X1308100Y990600D03*
X1308100Y914400D03*
D23*
X1257300Y914400D03*
X1257300Y990600D03*
D18*
X1714500Y736600D03*
X1638300Y736600D03*
D16*
X1282700Y983996D02*
X1282700Y997204D01*
X1282700Y921004D02*
X1282700Y907796D01*
D23*
X1333500Y914400D03*
X1333500Y990600D03*
D16*
X1358900Y921004D02*
X1358900Y907796D01*
X1358900Y983996D02*
X1358900Y997204D01*
D17*
X1282700Y889000D03*
X1358900Y889000D03*
D15*
X1079500Y673100D03*
X1079500Y647700D03*
X1117600Y673100D03*
X1117600Y647700D03*
D17*
X1270000Y673100D03*
X1346200Y673100D03*
X1778000Y723900D03*
X1765300Y742950D03*
X1752600Y723900D03*
D15*
X1206500Y673100D03*
X1206500Y647700D03*
X1155700Y673100D03*
X1155700Y647700D03*
D24*
X1155700Y508000D03*
D25*
X1155700Y203200D03*
D24*
X1968500Y673100D03*
D25*
X1968500Y368300D03*
D18*
X1574800Y101600D03*
X1549400Y101600D03*
X1295400Y101600D03*
X1270000Y101600D03*
D13*
X1549400Y38100D03*
D14*
X1574800Y38100D03*
D13*
X1270000Y38100D03*
D14*
X1295400Y38100D03*
D26*
X1816100Y139700D03*
D14*
X1816100Y114300D03*
D27*
X1041400Y139700D03*
D14*
X1041400Y165100D03*
D27*
X965200Y139700D03*
D14*
X965200Y165100D03*
D15*
X1104900Y927100D03*
X1104900Y901700D03*
D13*
X1041400Y558800D03*
D14*
X1066800Y558800D03*
D15*
X939800Y457200D03*
X939800Y431800D03*
D18*
X990600Y520700D03*
X965200Y520700D03*
D27*
X1447800Y609600D03*
D14*
X1447800Y635000D03*
D15*
X1384300Y635000D03*
X1384300Y609600D03*
X1511300Y635000D03*
X1511300Y609600D03*
D28*
X1803400Y647700D03*
D14*
X1778000Y647700D03*
D13*
X1854200Y596900D03*
D14*
X1879600Y596900D03*
D18*
X1879600Y647700D03*
X1854200Y647700D03*
X1854200Y711200D03*
X1828800Y711200D03*
D28*
X1854200Y762000D03*
D14*
X1828800Y762000D03*
D28*
X1752600Y546100D03*
D14*
X1727200Y546100D03*
D18*
X1028700Y101600D03*
X1003300Y101600D03*
D15*
X1028700Y50800D03*
X1028700Y25400D03*
D23*
X1866900Y114300D03*
X1866900Y139700D03*
X2108200Y609600D03*
X2108200Y635000D03*
X2108200Y685800D03*
X2108200Y711200D03*
D17*
X1955800Y711200D03*
X2032000Y711200D03*
X1955800Y749300D03*
X2032000Y749300D03*
D11*
X1976882Y279400D02*
X1960118Y279400D01*
X1960118Y254000D02*
X1976882Y254000D01*
X1976882Y228600D02*
X1960118Y228600D01*
D12*
X2118360Y254000D03*
D13*
X1905000Y38100D03*
D14*
X1930400Y38100D03*
D23*
X1930400Y279400D03*
X1930400Y330200D03*
D15*
X1930400Y228600D03*
X1930400Y177800D03*
D16*
X1435100Y907796D02*
X1435100Y921004D01*
X1460500Y921004D02*
X1460500Y907796D01*
X1587500Y907796D02*
X1587500Y921004D01*
X1587500Y983996D02*
X1587500Y997204D01*
X1485900Y921004D02*
X1485900Y907796D01*
X1511300Y907796D02*
X1511300Y921004D01*
X1562100Y921004D02*
X1562100Y907796D01*
X1536700Y907796D02*
X1536700Y921004D01*
X1562100Y983996D02*
X1562100Y997204D01*
X1536700Y997204D02*
X1536700Y983996D01*
X1511300Y983996D02*
X1511300Y997204D01*
X1485900Y997204D02*
X1485900Y983996D01*
X1460500Y983996D02*
X1460500Y997204D01*
X1435100Y997204D02*
X1435100Y983996D01*
D29*
X1727200Y977900D03*
X1651000Y977900D03*
X1651000Y901700D03*
X1727200Y901700D03*
D30*
X1536700Y944880D03*
X1536700Y960120D03*
D31*
X1536700Y952500D03*
D30*
X1485900Y944880D03*
X1485900Y960120D03*
D31*
X1485900Y952500D03*
D30*
X1511300Y944880D03*
X1511300Y960120D03*
D31*
X1511300Y952500D03*
D30*
X1460500Y944880D03*
X1460500Y960120D03*
D31*
X1460500Y952500D03*
D17*
X1828800Y838200D03*
X1854200Y838200D03*
D15*
X1397000Y990600D03*
X1397000Y965200D03*
D32*
X2026400Y101600D03*
D33*
X2087400Y101600D03*
X2057400Y149600D03*
D13*
X1943100Y114300D03*
D14*
X1968500Y114300D03*
D19*
X1155700Y584200D03*
D11*
X914400Y33782D02*
X914400Y17018D01*
X914400Y144018D02*
X914400Y160782D01*
D15*
X1104900Y990600D03*
X1104900Y965200D03*
D34*
X1835460Y914800D02*
X1847540Y914800D01*
X1847540Y964800D02*
X1835460Y964800D01*
D35*
X1866519Y959739D03*
X1816481Y959739D03*
X1816481Y919861D03*
X1866519Y919861D03*
D36*
X1930400Y723900D03*
X1930400Y825500D03*
X1892300Y749300D03*
X1892300Y850900D03*
D37*
X1879600Y698500D03*
D38*
X496570Y749300D03*
X496570Y723900D03*
X496570Y698500D03*
X496570Y673100D03*
X496570Y647700D03*
X496570Y622300D03*
X496570Y596900D03*
X496570Y571500D03*
X496570Y546100D03*
X496570Y520700D03*
X496570Y495300D03*
X496570Y469900D03*
X496570Y444500D03*
X496570Y419100D03*
X496570Y393700D03*
X496570Y368300D03*
X496570Y342900D03*
X496570Y317500D03*
X496570Y292100D03*
X496570Y266700D03*
D39*
X628650Y734695D03*
X628650Y281305D03*
D10*
X869950Y508000D03*
D16*
X705104Y317500D02*
X691896Y317500D01*
X691896Y292100D02*
X705104Y292100D01*
X705104Y266700D02*
X691896Y266700D01*
X691896Y241300D02*
X705104Y241300D01*
X705104Y215900D02*
X691896Y215900D01*
X691896Y190500D02*
X705104Y190500D01*
X705104Y165100D02*
X691896Y165100D01*
X691896Y139700D02*
X705104Y139700D01*
X705104Y114300D02*
X691896Y114300D01*
X691896Y88900D02*
X705104Y88900D01*
X705104Y63500D02*
X691896Y63500D01*
X691896Y38100D02*
X705104Y38100D01*
X768096Y38100D02*
X781304Y38100D01*
X781304Y63500D02*
X768096Y63500D01*
X768096Y88900D02*
X781304Y88900D01*
X781304Y114300D02*
X768096Y114300D01*
X768096Y139700D02*
X781304Y139700D01*
X781304Y165100D02*
X768096Y165100D01*
X768096Y190500D02*
X781304Y190500D01*
X781304Y215900D02*
X768096Y215900D01*
X768096Y241300D02*
X781304Y241300D01*
X781304Y266700D02*
X768096Y266700D01*
X768096Y292100D02*
X781304Y292100D01*
X781304Y317500D02*
X768096Y317500D01*
X705104Y558800D02*
X691896Y558800D01*
X691896Y533400D02*
X705104Y533400D01*
X705104Y406400D02*
X691896Y406400D01*
X768096Y406400D02*
X781304Y406400D01*
X705104Y508000D02*
X691896Y508000D01*
X691896Y482600D02*
X705104Y482600D01*
X705104Y431800D02*
X691896Y431800D01*
X691896Y457200D02*
X705104Y457200D01*
X768096Y431800D02*
X781304Y431800D01*
X781304Y457200D02*
X768096Y457200D01*
X768096Y482600D02*
X781304Y482600D01*
X781304Y508000D02*
X768096Y508000D01*
X768096Y533400D02*
X781304Y533400D01*
X781304Y558800D02*
X768096Y558800D01*
X983996Y952500D02*
X997204Y952500D01*
X997204Y927100D02*
X983996Y927100D01*
X983996Y800100D02*
X997204Y800100D01*
X997204Y774700D02*
X983996Y774700D01*
X983996Y901700D02*
X997204Y901700D01*
X997204Y876300D02*
X983996Y876300D01*
X983996Y825500D02*
X997204Y825500D01*
X997204Y850900D02*
X983996Y850900D01*
X983996Y749300D02*
X997204Y749300D01*
X997204Y723900D02*
X983996Y723900D01*
X1060196Y723900D02*
X1073404Y723900D01*
X1073404Y749300D02*
X1060196Y749300D01*
X1060196Y774700D02*
X1073404Y774700D01*
X1073404Y800100D02*
X1060196Y800100D01*
X1060196Y825500D02*
X1073404Y825500D01*
X1073404Y850900D02*
X1060196Y850900D01*
X1060196Y876300D02*
X1073404Y876300D01*
X1073404Y901700D02*
X1060196Y901700D01*
X1060196Y927100D02*
X1073404Y927100D01*
X1073404Y952500D02*
X1060196Y952500D01*
D20*
X629412Y647700D02*
X615188Y647700D01*
X615188Y622300D02*
X629412Y622300D01*
X1778000Y831088D02*
X1778000Y845312D01*
X1752600Y845312D02*
X1752600Y831088D01*
D16*
X819404Y317500D02*
X806196Y317500D01*
X806196Y292100D02*
X819404Y292100D01*
X819404Y266700D02*
X806196Y266700D01*
X806196Y241300D02*
X819404Y241300D01*
X819404Y215900D02*
X806196Y215900D01*
D40*
X876300Y266700D03*
X876300Y342900D03*
D16*
X705104Y952500D02*
X691896Y952500D01*
X691896Y927100D02*
X705104Y927100D01*
X705104Y800100D02*
X691896Y800100D01*
X691896Y774700D02*
X705104Y774700D01*
X705104Y901700D02*
X691896Y901700D01*
X691896Y876300D02*
X705104Y876300D01*
X705104Y825500D02*
X691896Y825500D01*
X691896Y850900D02*
X705104Y850900D01*
X705104Y749300D02*
X691896Y749300D01*
X691896Y723900D02*
X705104Y723900D01*
X705104Y698500D02*
X691896Y698500D01*
X691896Y673100D02*
X705104Y673100D01*
X705104Y647700D02*
X691896Y647700D01*
X691896Y622300D02*
X705104Y622300D01*
X844296Y622300D02*
X857504Y622300D01*
X857504Y647700D02*
X844296Y647700D01*
X844296Y673100D02*
X857504Y673100D01*
X857504Y698500D02*
X844296Y698500D01*
X844296Y723900D02*
X857504Y723900D01*
X857504Y749300D02*
X844296Y749300D01*
X844296Y774700D02*
X857504Y774700D01*
X857504Y800100D02*
X844296Y800100D01*
X844296Y825500D02*
X857504Y825500D01*
X857504Y850900D02*
X844296Y850900D01*
X844296Y876300D02*
X857504Y876300D01*
X857504Y901700D02*
X844296Y901700D01*
X844296Y927100D02*
X857504Y927100D01*
X857504Y952500D02*
X844296Y952500D01*
D20*
X654812Y838200D02*
X640588Y838200D01*
X640588Y863600D02*
X654812Y863600D01*
X654812Y889000D02*
X640588Y889000D01*
X640588Y927100D02*
X654812Y927100D01*
X654812Y952500D02*
X640588Y952500D01*
X640588Y977900D02*
X654812Y977900D01*
D18*
X774700Y342900D03*
X749300Y342900D03*
X774700Y584200D03*
X749300Y584200D03*
X1066800Y977900D03*
X1041400Y977900D03*
X850900Y977900D03*
X825500Y977900D03*
D41*
X609600Y800100D03*
M02*
