G04 EAGLE Gerber RS-274X export*
G75*
%MOMM*%
%FSLAX34Y34*%
%LPD*%
%INTop Copper*%
%IPPOS*%
%AMOC8*
5,1,8,0,0,1.08239X$1,22.5*%
G01*
%ADD10R,1.270000X9.525000*%
%ADD11R,1.270000X6.985000*%
%ADD12C,5.715000*%
%ADD13C,1.500000*%
%ADD14R,3.500000X1.700000*%
%ADD15R,1.700000X3.500000*%
%ADD16C,1.219200*%
%ADD17C,1.700000*%
%ADD18C,1.524000*%
%ADD19R,1.500000X1.500000*%
%ADD20R,3.216000X3.216000*%
%ADD21P,1.319650X8X292.500000*%
%ADD22P,1.319650X8X202.500000*%
%ADD23P,1.319650X8X22.500000*%
%ADD24P,1.649562X8X22.500000*%
%ADD25P,1.319650X8X112.500000*%
%ADD26C,0.254000*%
%ADD27C,0.965200*%
%ADD28C,0.812800*%


D10*
X241300Y40640D03*
X266700Y40640D03*
X292100Y40640D03*
X317500Y40640D03*
D11*
X342900Y52070D03*
D10*
X368300Y40640D03*
X393700Y40640D03*
X419100Y40640D03*
X444500Y40640D03*
X469900Y40640D03*
X495300Y40640D03*
X520700Y40640D03*
X546100Y40640D03*
X571500Y40640D03*
X596900Y40640D03*
X622300Y40640D03*
X647700Y40640D03*
X673100Y40640D03*
X698500Y40640D03*
X723900Y40640D03*
D12*
X255905Y172720D03*
X709295Y172720D03*
D13*
X222250Y228600D03*
X222250Y254000D03*
X222250Y381000D03*
X222250Y406400D03*
X222250Y279400D03*
X222250Y304800D03*
X222250Y355600D03*
X222250Y330200D03*
X222250Y431800D03*
X222250Y457200D03*
X222250Y482600D03*
X222250Y508000D03*
X222250Y533400D03*
X222250Y558800D03*
X222250Y584200D03*
X222250Y609600D03*
X222250Y635000D03*
X222250Y660400D03*
X222250Y685800D03*
X222250Y711200D03*
X44450Y711200D03*
X44450Y685800D03*
X44450Y660400D03*
X44450Y635000D03*
X44450Y609600D03*
X44450Y584200D03*
X44450Y558800D03*
X44450Y533400D03*
X44450Y508000D03*
X44450Y482600D03*
X44450Y457200D03*
X44450Y431800D03*
X44450Y406400D03*
X44450Y381000D03*
X44450Y355600D03*
X44450Y330200D03*
X44450Y304800D03*
X44450Y279400D03*
X44450Y254000D03*
X44450Y228600D03*
D14*
X233350Y228600D03*
X233350Y254000D03*
X233350Y279400D03*
X233350Y304800D03*
X233350Y330200D03*
X233350Y355600D03*
X233350Y381000D03*
X233350Y406400D03*
X233350Y431800D03*
X233350Y457200D03*
X233350Y482600D03*
X233350Y508000D03*
X233350Y533400D03*
X233350Y558800D03*
X233350Y584200D03*
X233350Y609600D03*
X233350Y635000D03*
X233350Y660400D03*
X233350Y685800D03*
X233350Y711200D03*
X33350Y711200D03*
X33350Y685800D03*
X33350Y660400D03*
X33350Y635000D03*
X33350Y609600D03*
X33350Y584200D03*
X33350Y558800D03*
X33350Y533400D03*
X33350Y508000D03*
X33350Y482600D03*
X33350Y457200D03*
X33350Y431800D03*
X33350Y406400D03*
X33350Y381000D03*
X33350Y355600D03*
X33350Y330200D03*
X33350Y304800D03*
X33350Y279400D03*
X33350Y254000D03*
X33350Y228600D03*
D13*
X158750Y708900D03*
X133350Y708900D03*
X107950Y708900D03*
D15*
X158750Y719150D03*
X133350Y719150D03*
X107950Y719150D03*
D16*
X762000Y361696D02*
X762000Y349504D01*
X787400Y349504D02*
X787400Y361696D01*
X812800Y361696D02*
X812800Y349504D01*
X838200Y349504D02*
X838200Y361696D01*
X863600Y361696D02*
X863600Y349504D01*
X889000Y349504D02*
X889000Y361696D01*
X914400Y361696D02*
X914400Y349504D01*
X939800Y349504D02*
X939800Y361696D01*
X939800Y425704D02*
X939800Y437896D01*
X914400Y437896D02*
X914400Y425704D01*
X889000Y425704D02*
X889000Y437896D01*
X863600Y437896D02*
X863600Y425704D01*
X838200Y425704D02*
X838200Y437896D01*
X812800Y437896D02*
X812800Y425704D01*
X787400Y425704D02*
X787400Y437896D01*
X762000Y437896D02*
X762000Y425704D01*
X787400Y247396D02*
X787400Y235204D01*
X812800Y235204D02*
X812800Y247396D01*
X939800Y247396D02*
X939800Y235204D01*
X939800Y311404D02*
X939800Y323596D01*
X838200Y247396D02*
X838200Y235204D01*
X863600Y235204D02*
X863600Y247396D01*
X914400Y247396D02*
X914400Y235204D01*
X889000Y235204D02*
X889000Y247396D01*
X914400Y311404D02*
X914400Y323596D01*
X889000Y323596D02*
X889000Y311404D01*
X863600Y311404D02*
X863600Y323596D01*
X838200Y323596D02*
X838200Y311404D01*
X812800Y311404D02*
X812800Y323596D01*
X787400Y323596D02*
X787400Y311404D01*
D17*
X25400Y139700D03*
X101600Y139700D03*
D18*
X417830Y654050D02*
X433070Y654050D01*
X433070Y679450D02*
X417830Y679450D01*
X417830Y704850D02*
X433070Y704850D01*
X433070Y730250D02*
X417830Y730250D01*
D19*
X906850Y667150D03*
X906850Y692150D03*
X906850Y717150D03*
X761850Y667150D03*
X761850Y717150D03*
D20*
X831850Y631150D03*
X831850Y753150D03*
D21*
X762000Y317500D03*
X762000Y292100D03*
X736600Y431800D03*
X736600Y406400D03*
D22*
X69850Y177800D03*
X19050Y177800D03*
D23*
X317500Y209550D03*
X368300Y209550D03*
X787400Y476250D03*
X863600Y476250D03*
X812800Y501650D03*
X889000Y501650D03*
D24*
X127000Y139700D03*
D16*
X590804Y444500D02*
X602996Y444500D01*
X602996Y419100D02*
X590804Y419100D01*
X590804Y292100D02*
X602996Y292100D01*
X602996Y266700D02*
X590804Y266700D01*
X590804Y393700D02*
X602996Y393700D01*
X602996Y368300D02*
X590804Y368300D01*
X590804Y317500D02*
X602996Y317500D01*
X602996Y342900D02*
X590804Y342900D01*
X667004Y266700D02*
X679196Y266700D01*
X679196Y292100D02*
X667004Y292100D01*
X667004Y317500D02*
X679196Y317500D01*
X679196Y342900D02*
X667004Y342900D01*
X667004Y368300D02*
X679196Y368300D01*
X679196Y393700D02*
X667004Y393700D01*
X667004Y419100D02*
X679196Y419100D01*
X679196Y444500D02*
X667004Y444500D01*
X304546Y444500D02*
X292354Y444500D01*
X292354Y419100D02*
X304546Y419100D01*
X304546Y292100D02*
X292354Y292100D01*
X292354Y266700D02*
X304546Y266700D01*
X304546Y393700D02*
X292354Y393700D01*
X292354Y368300D02*
X304546Y368300D01*
X304546Y317500D02*
X292354Y317500D01*
X292354Y342900D02*
X304546Y342900D01*
X368554Y266700D02*
X380746Y266700D01*
X380746Y292100D02*
X368554Y292100D01*
X368554Y317500D02*
X380746Y317500D01*
X380746Y342900D02*
X368554Y342900D01*
X368554Y368300D02*
X380746Y368300D01*
X380746Y393700D02*
X368554Y393700D01*
X368554Y419100D02*
X380746Y419100D01*
X380746Y444500D02*
X368554Y444500D01*
X438404Y317500D02*
X450596Y317500D01*
X450596Y292100D02*
X438404Y292100D01*
X438404Y165100D02*
X450596Y165100D01*
X450596Y139700D02*
X438404Y139700D01*
X438404Y266700D02*
X450596Y266700D01*
X450596Y241300D02*
X438404Y241300D01*
X438404Y190500D02*
X450596Y190500D01*
X450596Y215900D02*
X438404Y215900D01*
X514604Y139700D02*
X526796Y139700D01*
X526796Y165100D02*
X514604Y165100D01*
X514604Y190500D02*
X526796Y190500D01*
X526796Y215900D02*
X514604Y215900D01*
X514604Y241300D02*
X526796Y241300D01*
X526796Y266700D02*
X514604Y266700D01*
X514604Y292100D02*
X526796Y292100D01*
X526796Y317500D02*
X514604Y317500D01*
D18*
X292100Y754380D02*
X292100Y769620D01*
X266700Y769620D02*
X266700Y754380D01*
X241300Y754380D02*
X241300Y769620D01*
X215900Y769620D02*
X215900Y754380D01*
X190500Y754380D02*
X190500Y769620D01*
X165100Y769620D02*
X165100Y754380D01*
X139700Y754380D02*
X139700Y769620D01*
X114300Y769620D02*
X114300Y754380D01*
X88900Y754380D02*
X88900Y769620D01*
X63500Y769620D02*
X63500Y754380D01*
X38100Y754380D02*
X38100Y769620D01*
D24*
X292100Y812800D03*
D22*
X374650Y476250D03*
X349250Y476250D03*
X673100Y469900D03*
X647700Y469900D03*
D25*
X552450Y323850D03*
X552450Y349250D03*
D24*
X304800Y704850D03*
X304800Y654050D03*
D16*
X203200Y183896D02*
X203200Y171704D01*
X101600Y171704D02*
X101600Y183896D01*
D26*
X222250Y228600D02*
X233350Y228600D01*
X233363Y228600D02*
X241300Y220663D01*
X322263Y220663D01*
X336550Y206375D01*
X233363Y228600D02*
X233350Y228600D01*
D27*
X336550Y206375D03*
D26*
X233350Y254000D02*
X222250Y254000D01*
X233363Y254000D02*
X246063Y241300D01*
X330200Y241300D01*
X328613Y125413D02*
X368300Y85725D01*
X368300Y40640D01*
X233363Y254000D02*
X233350Y254000D01*
D27*
X330200Y241300D03*
X328613Y125413D03*
D26*
X233350Y304800D02*
X222250Y304800D01*
X298450Y196850D02*
X304800Y190500D01*
X344488Y190500D01*
D27*
X298450Y196850D03*
X344488Y190500D03*
D26*
X233350Y330200D02*
X222250Y330200D01*
X306388Y182563D02*
X325438Y163513D01*
X344488Y163513D01*
X355600Y123825D02*
X393700Y85725D01*
X393700Y40640D01*
D27*
X306388Y182563D03*
X344488Y163513D03*
X355600Y123825D03*
D26*
X233350Y355600D02*
X222250Y355600D01*
X233363Y355600D02*
X236538Y352425D01*
X307975Y352425D01*
X358775Y301625D01*
X358775Y279400D01*
X381000Y279400D01*
X393700Y266700D01*
X233363Y355600D02*
X233350Y355600D01*
D27*
X393700Y266700D03*
D26*
X233350Y381000D02*
X222250Y381000D01*
X233363Y381000D02*
X236538Y377825D01*
X320675Y377825D01*
X371475Y327025D01*
X395288Y327025D01*
X404813Y100013D02*
X419100Y85725D01*
X419100Y40640D01*
X233363Y381000D02*
X233350Y381000D01*
D27*
X395288Y327025D03*
X404813Y100013D03*
D26*
X233350Y431800D02*
X222250Y431800D01*
X200025Y454025D01*
X200025Y495300D01*
X250825Y495300D01*
X255588Y500063D01*
X401638Y500063D01*
D27*
X401638Y500063D03*
D26*
X233350Y457200D02*
X222250Y457200D01*
X233363Y457200D02*
X236538Y460375D01*
X404813Y460375D01*
X423863Y95250D02*
X427038Y92075D01*
X438150Y92075D01*
X444500Y85725D01*
X444500Y40640D01*
X233363Y457200D02*
X233350Y457200D01*
D27*
X404813Y460375D03*
X423863Y95250D03*
D26*
X673100Y342900D02*
X657225Y358775D01*
X557213Y358775D01*
X555625Y360363D01*
X542925Y360363D01*
X542925Y95250D02*
X542925Y41275D01*
X546100Y41275D01*
X546100Y40640D01*
D27*
X542925Y360363D03*
X542925Y95250D03*
D26*
X673100Y368300D02*
X663575Y377825D01*
X569913Y377825D01*
D27*
X569913Y377825D03*
D26*
X333375Y282575D02*
X298450Y317500D01*
X333375Y282575D02*
X334963Y282575D01*
X342900Y266700D02*
X358775Y250825D01*
X490538Y250825D01*
X514350Y227013D01*
X542925Y227013D01*
X560388Y209550D01*
X558800Y95250D02*
X561975Y92075D01*
X565150Y92075D01*
X571500Y85725D01*
X571500Y40640D01*
D27*
X334963Y282575D03*
X342900Y266700D03*
X560388Y209550D03*
X558800Y95250D03*
D26*
X298450Y342900D02*
X273050Y317500D01*
X201613Y317500D01*
X204788Y227013D02*
X227013Y204788D01*
X307975Y204788D01*
X314325Y198438D01*
X433388Y198438D01*
X436563Y201613D01*
X582613Y201613D01*
D27*
X201613Y317500D03*
X204788Y227013D03*
X582613Y201613D03*
D26*
X298450Y368300D02*
X127000Y368300D01*
X50800Y292100D01*
X14288Y292100D01*
X11113Y288925D01*
X11113Y195263D01*
X165100Y195263D01*
X219075Y141288D01*
X282575Y141288D01*
X292100Y150813D01*
X479425Y150813D01*
X481013Y149225D01*
X569913Y149225D01*
X596900Y122238D01*
X598488Y95250D02*
X598488Y41275D01*
X596900Y41275D01*
X596900Y40640D01*
D27*
X596900Y122238D03*
X598488Y95250D03*
D26*
X298450Y393700D02*
X303213Y398463D01*
X360363Y398463D01*
X365125Y403225D01*
X436563Y403225D01*
X466725Y373063D01*
X498475Y373063D01*
X528638Y403225D01*
X627063Y403225D01*
D27*
X627063Y403225D03*
D26*
X390525Y276225D02*
X374650Y292100D01*
X390525Y276225D02*
X549275Y276225D01*
X587375Y238125D01*
X612775Y95250D02*
X622300Y85725D01*
X622300Y40640D01*
D27*
X587375Y238125D03*
X612775Y95250D03*
D26*
X390525Y301625D02*
X374650Y317500D01*
X390525Y301625D02*
X460375Y301625D01*
X477838Y284163D01*
X508000Y284163D01*
X511175Y280988D01*
X603250Y280988D01*
X660400Y223838D01*
X660400Y131763D02*
X698500Y93663D01*
X698500Y40640D01*
D27*
X660400Y223838D03*
X660400Y131763D03*
D26*
X776288Y204788D02*
X812800Y241300D01*
X776288Y204788D02*
X596900Y204788D01*
X568325Y176213D01*
X465138Y176213D01*
X460375Y171450D01*
X460375Y155575D01*
X304800Y155575D01*
X301625Y158750D01*
X301625Y101600D02*
X317500Y85725D01*
X317500Y40640D01*
D27*
X301625Y158750D03*
X301625Y101600D03*
D28*
X647700Y96838D02*
X647700Y40640D01*
X500063Y139700D02*
X444500Y139700D01*
X596900Y246063D02*
X596900Y266700D01*
X596900Y246063D02*
X600075Y242888D01*
X600075Y225425D01*
X557213Y225425D01*
X541338Y241300D01*
X520700Y241300D01*
X444500Y317500D02*
X477838Y350838D01*
X534988Y350838D01*
X538163Y347663D01*
X550863Y347663D01*
X552450Y349250D01*
X596900Y444500D02*
X622300Y469900D01*
X647700Y469900D01*
X762000Y355600D02*
X787400Y355600D01*
X920750Y336550D02*
X939800Y355600D01*
X920750Y336550D02*
X831850Y336550D01*
X812800Y355600D01*
X233350Y406400D02*
X222250Y406400D01*
X317500Y469900D02*
X323850Y476250D01*
X349250Y476250D01*
X355600Y406400D02*
X233350Y406400D01*
X355600Y406400D02*
X368300Y419100D01*
X374650Y419100D01*
X290513Y274638D02*
X298450Y266700D01*
X290513Y274638D02*
X238125Y274638D01*
X233363Y279400D01*
X233350Y279400D01*
X368300Y242888D02*
X368300Y228600D01*
X368300Y209550D01*
X368300Y242888D02*
X346075Y242888D01*
X323850Y265113D01*
X301625Y265113D01*
X298450Y266700D01*
X233350Y279400D02*
X222250Y279400D01*
X44450Y533400D02*
X33350Y533400D01*
X33350Y406400D02*
X44450Y406400D01*
X44450Y279400D02*
X33350Y279400D01*
X44450Y279400D02*
X222250Y279400D01*
X222250Y406400D02*
X44450Y406400D01*
X762000Y668338D02*
X785813Y692150D01*
X906850Y692150D01*
X762000Y668338D02*
X761850Y667150D01*
X88900Y762000D02*
X88900Y784225D01*
X146050Y784225D01*
X148431Y781844D02*
X165100Y765175D01*
X148431Y781844D02*
X146050Y784225D01*
X165100Y765175D02*
X165100Y762000D01*
X241300Y762000D02*
X241300Y784225D01*
X150813Y784225D01*
X148431Y781844D01*
X222250Y533400D02*
X233350Y533400D01*
X44450Y660400D02*
X33350Y660400D01*
X222250Y660400D02*
X233350Y660400D01*
X414338Y665163D02*
X425450Y654050D01*
X414338Y665163D02*
X314325Y665163D01*
X311150Y668338D01*
X258763Y668338D01*
X252413Y661988D01*
X236538Y661988D01*
X233350Y660400D01*
X222250Y660400D02*
X44450Y660400D01*
X749300Y655638D02*
X758825Y665163D01*
X749300Y655638D02*
X428625Y655638D01*
X758825Y665163D02*
X761850Y667150D01*
X428625Y655638D02*
X425450Y654050D01*
X517525Y219075D02*
X520700Y215900D01*
X517525Y219075D02*
X498475Y219075D01*
X493713Y223838D01*
X461963Y223838D01*
X457200Y228600D01*
X368300Y228600D01*
D27*
X647700Y96838D03*
X500063Y139700D03*
X317500Y469900D03*
D28*
X520700Y317500D02*
X527050Y323850D01*
X552450Y323850D01*
X673100Y444500D02*
X673100Y469900D01*
X854075Y298450D02*
X873125Y279400D01*
X854075Y298450D02*
X806450Y298450D01*
X787400Y317500D01*
X762000Y317500D01*
X749300Y369888D02*
X676275Y442913D01*
X749300Y330200D02*
X749300Y320675D01*
X749300Y330200D02*
X749300Y369888D01*
X749300Y320675D02*
X760413Y320675D01*
X676275Y442913D02*
X673100Y444500D01*
X760413Y320675D02*
X762000Y317500D01*
X560388Y330200D02*
X555625Y325438D01*
X560388Y330200D02*
X749300Y330200D01*
X555625Y325438D02*
X552450Y323850D01*
X101600Y177800D02*
X101600Y139700D01*
X127000Y139700D01*
X317500Y428625D02*
X333375Y444500D01*
X374650Y444500D01*
X130175Y138113D02*
X142875Y125413D01*
X303213Y125413D01*
X319088Y141288D01*
X130175Y138113D02*
X127000Y139700D01*
X658813Y482600D02*
X669925Y471488D01*
X658813Y482600D02*
X381000Y482600D01*
X374650Y476250D01*
X669925Y471488D02*
X673100Y469900D01*
D27*
X873125Y279400D03*
X317500Y428625D03*
X319088Y141288D03*
D26*
X615950Y317500D02*
X673100Y317500D01*
X615950Y317500D02*
X600075Y301625D01*
X536575Y301625D01*
D27*
X536575Y301625D03*
D26*
X652463Y111125D02*
X647700Y106363D01*
X628650Y106363D01*
X625475Y103188D01*
X538163Y103188D01*
X520700Y85725D01*
X520700Y40640D01*
D27*
X652463Y111125D03*
D26*
X566738Y141288D02*
X555625Y130175D01*
X493713Y130175D01*
X477838Y114300D01*
X477838Y103188D01*
D27*
X566738Y141288D03*
X477838Y103188D03*
D26*
X530225Y122238D02*
X574675Y122238D01*
X504825Y95250D02*
X495300Y85725D01*
X495300Y40640D01*
D27*
X574675Y122238D03*
X530225Y122238D03*
X504825Y95250D03*
D26*
X592138Y338138D02*
X596900Y342900D01*
X592138Y338138D02*
X495300Y338138D01*
D27*
X495300Y338138D03*
D26*
X588963Y309563D02*
X596900Y317500D01*
X588963Y309563D02*
X533400Y309563D01*
X528638Y304800D01*
X468313Y304800D01*
X469900Y117475D02*
X469900Y40640D01*
D27*
X468313Y304800D03*
X469900Y117475D03*
D26*
X44450Y228600D02*
X33350Y228600D01*
X133350Y708900D02*
X133350Y719150D01*
D28*
X863600Y476250D02*
X889000Y501650D01*
X44450Y330200D02*
X33350Y330200D01*
X736600Y431800D02*
X762000Y431800D01*
X42863Y795338D02*
X19050Y771525D01*
X42863Y795338D02*
X388938Y795338D01*
X447675Y736600D01*
X447675Y679450D01*
X425450Y679450D01*
X836613Y450850D02*
X860425Y474663D01*
X836613Y450850D02*
X779463Y450850D01*
X763588Y434975D01*
X860425Y474663D02*
X863600Y476250D01*
X763588Y434975D02*
X762000Y431800D01*
D27*
X19050Y771525D03*
D28*
X33350Y254000D02*
X44450Y254000D01*
X69850Y177800D02*
X31750Y139700D01*
X25400Y139700D01*
D26*
X444500Y215900D02*
X450850Y209550D01*
X490538Y209550D01*
X501650Y109538D02*
X500063Y107950D01*
X501650Y109538D02*
X620713Y109538D01*
X622300Y111125D01*
D27*
X490538Y209550D03*
X500063Y107950D03*
X622300Y111125D03*
D26*
X44450Y381000D02*
X33350Y381000D01*
X33338Y381000D02*
X25400Y388938D01*
X9525Y388938D01*
X6350Y392113D01*
X6350Y698500D01*
X282575Y698500D01*
X314325Y730250D01*
X425450Y730250D01*
X33350Y381000D02*
X33338Y381000D01*
X33350Y558800D02*
X44450Y558800D01*
X400050Y679450D02*
X425450Y704850D01*
X400050Y679450D02*
X257175Y679450D01*
X250825Y673100D01*
X14288Y673100D01*
X11113Y669925D01*
X11113Y558800D01*
X33350Y558800D01*
X831850Y412750D02*
X889000Y355600D01*
X831850Y412750D02*
X812800Y412750D01*
D27*
X812800Y412750D03*
D26*
X749300Y444500D02*
X703263Y490538D01*
X271463Y490538D01*
X250825Y469900D01*
X215900Y469900D01*
X207963Y461963D01*
D27*
X749300Y444500D03*
X207963Y461963D03*
D26*
X914400Y241300D02*
X954088Y280988D01*
X954088Y520700D01*
X209550Y520700D01*
X230188Y112713D02*
X250825Y92075D01*
X285750Y92075D01*
X292100Y85725D01*
X292100Y40640D01*
D27*
X209550Y520700D03*
X230188Y112713D03*
D26*
X444500Y241300D02*
X449263Y236538D01*
X482600Y236538D01*
X490538Y115888D02*
X485775Y111125D01*
X490538Y115888D02*
X503238Y115888D01*
X504825Y114300D01*
X614363Y114300D01*
X619125Y119063D01*
X660400Y119063D01*
D27*
X482600Y236538D03*
X485775Y111125D03*
X660400Y119063D03*
D26*
X233350Y482600D02*
X222250Y482600D01*
X249238Y482600D02*
X258763Y492125D01*
X249238Y482600D02*
X233350Y482600D01*
X290513Y138113D02*
X288925Y136525D01*
X211138Y136525D01*
X209550Y138113D01*
D27*
X258763Y492125D03*
X290513Y138113D03*
X209550Y138113D03*
D26*
X233350Y508000D02*
X554038Y508000D01*
X233350Y508000D02*
X222250Y508000D01*
D27*
X554038Y508000D03*
D26*
X630238Y309563D02*
X673100Y266700D01*
X531813Y541338D02*
X514350Y558800D01*
X233350Y558800D01*
X222250Y558800D01*
D27*
X630238Y309563D03*
X531813Y541338D03*
D26*
X233350Y584200D02*
X222250Y584200D01*
X366713Y274638D02*
X374650Y266700D01*
X366713Y274638D02*
X311150Y274638D01*
X303213Y282575D01*
X261938Y282575D01*
X252413Y292100D01*
X176213Y292100D01*
X44450Y508000D02*
X33350Y508000D01*
D27*
X176213Y292100D03*
D26*
X44450Y584200D02*
X33350Y584200D01*
X419100Y190500D02*
X444500Y165100D01*
X419100Y190500D02*
X373063Y190500D01*
X44450Y584200D02*
X107950Y647700D01*
X298450Y647700D01*
X304800Y654050D01*
D27*
X373063Y190500D03*
D26*
X233350Y609600D02*
X222250Y609600D01*
X222250Y635000D02*
X233350Y635000D01*
X233350Y685800D02*
X222250Y685800D01*
X222250Y711200D02*
X233350Y711200D01*
X190500Y711200D02*
X190500Y762000D01*
X190500Y711200D02*
X222250Y711200D01*
X44450Y711200D02*
X33350Y711200D01*
X117475Y739775D02*
X139700Y762000D01*
X117475Y739775D02*
X73025Y739775D01*
X44450Y711200D01*
X44450Y685800D02*
X33350Y685800D01*
X33350Y635000D02*
X44450Y635000D01*
X44450Y609600D02*
X33350Y609600D01*
X33350Y457200D02*
X44450Y457200D01*
X511175Y257175D02*
X520700Y266700D01*
X511175Y257175D02*
X365125Y257175D01*
X355600Y266700D01*
X663575Y384175D02*
X673100Y393700D01*
X663575Y384175D02*
X574675Y384175D01*
X573088Y385763D01*
X517525Y385763D01*
X500063Y368300D01*
X438150Y368300D01*
X412750Y393700D01*
X374650Y393700D01*
X33338Y457200D02*
X20638Y444500D01*
X15875Y444500D01*
X11113Y439738D01*
X11113Y393700D01*
X279400Y393700D01*
X288925Y384175D01*
X365125Y384175D01*
X374650Y393700D01*
X33350Y457200D02*
X33338Y457200D01*
D27*
X355600Y266700D03*
D26*
X44450Y431800D02*
X33350Y431800D01*
X439738Y296863D02*
X444500Y292100D01*
X439738Y296863D02*
X388938Y296863D01*
X381000Y304800D01*
X368300Y304800D01*
X334963Y419100D02*
X298450Y419100D01*
X561975Y454025D02*
X596900Y419100D01*
X561975Y454025D02*
X409575Y454025D01*
X385763Y430213D01*
X346075Y430213D01*
X334963Y419100D01*
X57150Y419100D02*
X44450Y431800D01*
X57150Y419100D02*
X298450Y419100D01*
D27*
X368300Y304800D03*
X334963Y419100D03*
D26*
X374650Y368300D02*
X385763Y357188D01*
X425450Y357188D01*
X468313Y168275D02*
X482600Y153988D01*
X655638Y153988D01*
X723900Y85725D01*
X723900Y40640D01*
D27*
X425450Y357188D03*
X468313Y168275D03*
D28*
X266700Y114300D02*
X265113Y112713D01*
X266700Y114300D02*
X319088Y114300D01*
X342900Y90488D01*
X342900Y52070D01*
D27*
X265113Y112713D03*
M02*
