M48
;GenerationSoftware,Autodesk,EAGLE,9.6.1*%
;CreationDate,2026-08-28T01:18:09Z*%
FMAT,2
ICI,OFF
METRIC,TZ,000.000
T10C0.610
T9C0.813
T8C1.000
T7C1.016
T6C1.100
T5C1.500
T4C1.800
T3C2.200
T2C3.607
T1C6.985
%
G90
M71
T1
X48260Y41402
T2
X25590Y17272
X70930Y17272
T3
X83185Y75315
X83185Y63115
T4
X10610Y22990
X16060Y22990
T5
X15760Y26020
X10910Y26020
T6
X10160Y13970
X2540Y13970
T7
X30480Y65405
X24130Y76200
X30480Y70485
X29210Y81280
X3810Y76200
X6350Y76200
X8890Y76200
X11430Y76200
X13970Y76200
X16510Y76200
X19050Y76200
X21590Y76200
X26670Y76200
X29210Y76200
X12700Y13970
X42545Y73025
X42545Y70485
X42545Y67945
X42545Y65405
T8
X4445Y58420
X22225Y53340
X4445Y53340
X4445Y50800
X4445Y48260
X4445Y45720
X4445Y43180
X4445Y40640
X4445Y38100
X22225Y30480
X4445Y33020
X4445Y30480
X4445Y27940
X4445Y25400
X4445Y22860
X15875Y70890
X13335Y70890
X10795Y70890
X4445Y35560
X22225Y22860
X22225Y25400
X22225Y38100
X22225Y40640
X22225Y27940
X22225Y35560
X22225Y33020
X22225Y43180
X22225Y45720
X22225Y48260
X22225Y50800
X22225Y55880
X22225Y58420
X22225Y60960
X22225Y63500
X22225Y66040
X76185Y71715
X76185Y66715
X90685Y71715
X4445Y55880
X90685Y66715
X22225Y68580
X22225Y71120
X4445Y71120
X4445Y68580
X4445Y66040
X4445Y63500
X4445Y60960
X90685Y69215
T9
X67310Y26670
X67310Y29210
X67310Y31750
X67310Y34290
X67310Y36830
X67310Y39370
X67310Y41910
X67310Y44450
X29845Y44450
X29845Y41910
X29845Y29210
X29845Y26670
X29845Y39370
X29845Y36830
X29845Y31750
X29845Y34290
X37465Y26670
X37465Y29210
X37465Y31750
X37465Y34290
X37465Y36830
X37465Y39370
X37465Y41910
X37465Y44450
X44450Y31750
X44450Y29210
X44450Y16510
X44450Y13970
X44450Y26670
X44450Y24130
X44450Y21590
X52070Y13970
X52070Y16510
X52070Y19050
X52070Y21590
X52070Y24130
X52070Y26670
X52070Y29210
X52070Y31750
X37465Y47625
X34925Y47625
X67310Y46990
X64770Y46990
X55245Y32385
X55245Y34925
X20320Y17780
X10160Y17780
X44450Y19050
X78740Y35560
X81280Y35560
X83820Y35560
X86360Y35560
X88900Y35560
X91440Y35560
X93980Y35560
X93980Y43180
X91440Y43180
X88900Y43180
X86360Y43180
X83820Y43180
X81280Y43180
X78740Y43180
X76200Y43180
X78740Y24130
X81280Y24130
X93980Y24130
X93980Y31750
X83820Y24130
X86360Y24130
X91440Y24130
X88900Y24130
X91440Y31750
X88900Y31750
X86360Y31750
X83820Y31750
X81280Y31750
X78740Y31750
X76200Y35560
X76200Y31750
X76200Y29210
X73660Y43180
X73660Y40640
X6985Y17780
X1905Y17780
X31750Y20955
X36830Y20955
X78740Y47625
X86360Y47625
X81280Y50165
X88900Y50165
X59690Y44450
X59690Y41910
X59690Y29210
X59690Y26670
X59690Y39370
X59690Y36830
X59690Y31750
X59690Y34290
T10
X33655Y20638
X33020Y24130
X32861Y12541
X29845Y19685
X34449Y19050
X30639Y18256
X34449Y16351
X35560Y12382
X39370Y26670
X39529Y32702
X40481Y10001
X40164Y50006
X40481Y46037
X42386Y9525
X54292Y36036
X54292Y9525
X56991Y37783
X33496Y28257
X34290Y26670
X56039Y20955
X55880Y9525
X20161Y31750
X20479Y22701
X58261Y20161
X59690Y12224
X59849Y9525
X62706Y40323
X58737Y23812
X61277Y9525
X66040Y22384
X66040Y13176
X30162Y10160
X64770Y9684
X50006Y13970
X31750Y46990
X87313Y27940
X31750Y42863
X31909Y14129
X53657Y30162
X65246Y11112
X56674Y14129
X47784Y10319
X57467Y12224
X53022Y12224
X50482Y9525
X49530Y33814
X46831Y30480
X42545Y35719
X33496Y41910
X36830Y30480
X35560Y26670
X37306Y19050
X17621Y29210
X25876Y49212
X66040Y11906
X48577Y11112
X48260Y23654
X23019Y11271
X20955Y52070
X20796Y46196
X74930Y44450
X81280Y41275
X62230Y11112
X50006Y10795
X49054Y20955
X53181Y54134
X63024Y30956
X55404Y50800
X20955Y13811
X30162Y15875
X29051Y13811
X1905Y77153
X46990Y11747
X26511Y11271
X46831Y16828
M30