G04 EAGLE Gerber RS-274X export*
G75*
%MOMM*%
%FSLAX34Y34*%
%LPD*%
%INBoard Outline*%
%IPPOS*%
%AMOC8*
5,1,8,0,0,1.08239X$1,22.5*%
G01*
%ADD10C,0.127000*%
%ADD11C,0.000000*%
%ADD12C,0.254000*%


D10*
X218440Y113030D02*
X218440Y1270D01*
X218444Y963D01*
X218455Y656D01*
X218473Y350D01*
X218499Y44D01*
X218533Y-261D01*
X218573Y-565D01*
X218621Y-868D01*
X218677Y-1170D01*
X218739Y-1470D01*
X218809Y-1769D01*
X218886Y-2066D01*
X218970Y-2362D01*
X219062Y-2655D01*
X219160Y-2945D01*
X219265Y-3233D01*
X219378Y-3519D01*
X219497Y-3802D01*
X219623Y-4082D01*
X219755Y-4359D01*
X219895Y-4632D01*
X220041Y-4902D01*
X220193Y-5168D01*
X220352Y-5431D01*
X220517Y-5690D01*
X220688Y-5944D01*
X220865Y-6195D01*
X221049Y-6441D01*
X221238Y-6683D01*
X221433Y-6919D01*
X221634Y-7152D01*
X221840Y-7379D01*
X222052Y-7601D01*
X222269Y-7818D01*
X222491Y-8030D01*
X222718Y-8236D01*
X222951Y-8437D01*
X223187Y-8632D01*
X223429Y-8821D01*
X223675Y-9005D01*
X223926Y-9182D01*
X224180Y-9353D01*
X224439Y-9518D01*
X224702Y-9677D01*
X224968Y-9829D01*
X225238Y-9975D01*
X225511Y-10115D01*
X225788Y-10247D01*
X226068Y-10373D01*
X226351Y-10492D01*
X226637Y-10605D01*
X226925Y-10710D01*
X227215Y-10808D01*
X227508Y-10900D01*
X227804Y-10984D01*
X228101Y-11061D01*
X228400Y-11131D01*
X228700Y-11193D01*
X229002Y-11249D01*
X229305Y-11297D01*
X229609Y-11337D01*
X229914Y-11371D01*
X230220Y-11397D01*
X230526Y-11415D01*
X230833Y-11426D01*
X231140Y-11430D01*
X734060Y-11430D01*
X734367Y-11426D01*
X734674Y-11415D01*
X734980Y-11397D01*
X735286Y-11371D01*
X735591Y-11337D01*
X735895Y-11297D01*
X736198Y-11249D01*
X736500Y-11193D01*
X736800Y-11131D01*
X737099Y-11061D01*
X737396Y-10984D01*
X737692Y-10900D01*
X737985Y-10808D01*
X738275Y-10710D01*
X738563Y-10605D01*
X738849Y-10492D01*
X739132Y-10373D01*
X739412Y-10247D01*
X739689Y-10115D01*
X739962Y-9975D01*
X740232Y-9829D01*
X740498Y-9677D01*
X740761Y-9518D01*
X741020Y-9353D01*
X741274Y-9182D01*
X741525Y-9005D01*
X741771Y-8821D01*
X742013Y-8632D01*
X742249Y-8437D01*
X742482Y-8236D01*
X742709Y-8030D01*
X742931Y-7818D01*
X743148Y-7601D01*
X743360Y-7379D01*
X743566Y-7152D01*
X743767Y-6919D01*
X743962Y-6683D01*
X744151Y-6441D01*
X744335Y-6195D01*
X744512Y-5944D01*
X744683Y-5690D01*
X744848Y-5431D01*
X745007Y-5168D01*
X745159Y-4902D01*
X745305Y-4632D01*
X745445Y-4359D01*
X745577Y-4082D01*
X745703Y-3802D01*
X745822Y-3519D01*
X745935Y-3233D01*
X746040Y-2945D01*
X746138Y-2655D01*
X746230Y-2362D01*
X746314Y-2066D01*
X746391Y-1769D01*
X746461Y-1470D01*
X746523Y-1170D01*
X746579Y-868D01*
X746627Y-565D01*
X746667Y-261D01*
X746701Y44D01*
X746727Y350D01*
X746745Y656D01*
X746756Y963D01*
X746760Y1270D01*
X746760Y113030D01*
X746762Y113130D01*
X746768Y113229D01*
X746778Y113329D01*
X746791Y113427D01*
X746809Y113526D01*
X746830Y113623D01*
X746855Y113719D01*
X746884Y113815D01*
X746917Y113909D01*
X746953Y114002D01*
X746993Y114093D01*
X747037Y114183D01*
X747084Y114271D01*
X747134Y114357D01*
X747188Y114441D01*
X747245Y114523D01*
X747305Y114602D01*
X747369Y114680D01*
X747435Y114754D01*
X747504Y114826D01*
X747576Y114895D01*
X747650Y114961D01*
X747728Y115025D01*
X747807Y115085D01*
X747889Y115142D01*
X747973Y115196D01*
X748059Y115246D01*
X748147Y115293D01*
X748237Y115337D01*
X748328Y115377D01*
X748421Y115413D01*
X748515Y115446D01*
X748611Y115475D01*
X748707Y115500D01*
X748804Y115521D01*
X748903Y115539D01*
X749001Y115552D01*
X749101Y115562D01*
X749200Y115568D01*
X749300Y115570D01*
X965200Y115570D01*
X965200Y826770D01*
X0Y826770D01*
X0Y115570D01*
X215900Y115570D01*
X216000Y115568D01*
X216099Y115562D01*
X216199Y115552D01*
X216297Y115539D01*
X216396Y115521D01*
X216493Y115500D01*
X216589Y115475D01*
X216685Y115446D01*
X216779Y115413D01*
X216872Y115377D01*
X216963Y115337D01*
X217053Y115293D01*
X217141Y115246D01*
X217227Y115196D01*
X217311Y115142D01*
X217393Y115085D01*
X217472Y115025D01*
X217550Y114961D01*
X217624Y114895D01*
X217696Y114826D01*
X217765Y114754D01*
X217831Y114680D01*
X217895Y114602D01*
X217955Y114523D01*
X218012Y114441D01*
X218066Y114357D01*
X218116Y114271D01*
X218163Y114183D01*
X218207Y114093D01*
X218247Y114002D01*
X218283Y113909D01*
X218316Y113815D01*
X218345Y113719D01*
X218370Y113623D01*
X218391Y113526D01*
X218409Y113427D01*
X218422Y113329D01*
X218432Y113229D01*
X218438Y113130D01*
X218440Y113030D01*
D11*
X447675Y414020D02*
X447686Y414877D01*
X447717Y415734D01*
X447770Y416589D01*
X447843Y417443D01*
X447938Y418295D01*
X448053Y419145D01*
X448189Y419991D01*
X448346Y420834D01*
X448524Y421672D01*
X448722Y422506D01*
X448940Y423335D01*
X449179Y424158D01*
X449438Y424975D01*
X449717Y425786D01*
X450015Y426589D01*
X450334Y427385D01*
X450671Y428173D01*
X451028Y428952D01*
X451404Y429723D01*
X451799Y430484D01*
X452212Y431234D01*
X452644Y431975D01*
X453093Y432705D01*
X453561Y433423D01*
X454046Y434130D01*
X454548Y434825D01*
X455067Y435507D01*
X455603Y436176D01*
X456154Y436832D01*
X456722Y437474D01*
X457306Y438102D01*
X457904Y438716D01*
X458518Y439314D01*
X459146Y439898D01*
X459788Y440466D01*
X460444Y441017D01*
X461113Y441553D01*
X461795Y442072D01*
X462490Y442574D01*
X463197Y443059D01*
X463915Y443527D01*
X464645Y443976D01*
X465386Y444408D01*
X466136Y444821D01*
X466897Y445216D01*
X467668Y445592D01*
X468447Y445949D01*
X469235Y446286D01*
X470031Y446605D01*
X470834Y446903D01*
X471645Y447182D01*
X472462Y447441D01*
X473285Y447680D01*
X474114Y447898D01*
X474948Y448096D01*
X475786Y448274D01*
X476629Y448431D01*
X477475Y448567D01*
X478325Y448682D01*
X479177Y448777D01*
X480031Y448850D01*
X480886Y448903D01*
X481743Y448934D01*
X482600Y448945D01*
X483457Y448934D01*
X484314Y448903D01*
X485169Y448850D01*
X486023Y448777D01*
X486875Y448682D01*
X487725Y448567D01*
X488571Y448431D01*
X489414Y448274D01*
X490252Y448096D01*
X491086Y447898D01*
X491915Y447680D01*
X492738Y447441D01*
X493555Y447182D01*
X494366Y446903D01*
X495169Y446605D01*
X495965Y446286D01*
X496753Y445949D01*
X497532Y445592D01*
X498303Y445216D01*
X499064Y444821D01*
X499814Y444408D01*
X500555Y443976D01*
X501285Y443527D01*
X502003Y443059D01*
X502710Y442574D01*
X503405Y442072D01*
X504087Y441553D01*
X504756Y441017D01*
X505412Y440466D01*
X506054Y439898D01*
X506682Y439314D01*
X507296Y438716D01*
X507894Y438102D01*
X508478Y437474D01*
X509046Y436832D01*
X509597Y436176D01*
X510133Y435507D01*
X510652Y434825D01*
X511154Y434130D01*
X511639Y433423D01*
X512107Y432705D01*
X512556Y431975D01*
X512988Y431234D01*
X513401Y430484D01*
X513796Y429723D01*
X514172Y428952D01*
X514529Y428173D01*
X514866Y427385D01*
X515185Y426589D01*
X515483Y425786D01*
X515762Y424975D01*
X516021Y424158D01*
X516260Y423335D01*
X516478Y422506D01*
X516676Y421672D01*
X516854Y420834D01*
X517011Y419991D01*
X517147Y419145D01*
X517262Y418295D01*
X517357Y417443D01*
X517430Y416589D01*
X517483Y415734D01*
X517514Y414877D01*
X517525Y414020D01*
X517514Y413163D01*
X517483Y412306D01*
X517430Y411451D01*
X517357Y410597D01*
X517262Y409745D01*
X517147Y408895D01*
X517011Y408049D01*
X516854Y407206D01*
X516676Y406368D01*
X516478Y405534D01*
X516260Y404705D01*
X516021Y403882D01*
X515762Y403065D01*
X515483Y402254D01*
X515185Y401451D01*
X514866Y400655D01*
X514529Y399867D01*
X514172Y399088D01*
X513796Y398317D01*
X513401Y397556D01*
X512988Y396806D01*
X512556Y396065D01*
X512107Y395335D01*
X511639Y394617D01*
X511154Y393910D01*
X510652Y393215D01*
X510133Y392533D01*
X509597Y391864D01*
X509046Y391208D01*
X508478Y390566D01*
X507894Y389938D01*
X507296Y389324D01*
X506682Y388726D01*
X506054Y388142D01*
X505412Y387574D01*
X504756Y387023D01*
X504087Y386487D01*
X503405Y385968D01*
X502710Y385466D01*
X502003Y384981D01*
X501285Y384513D01*
X500555Y384064D01*
X499814Y383632D01*
X499064Y383219D01*
X498303Y382824D01*
X497532Y382448D01*
X496753Y382091D01*
X495965Y381754D01*
X495169Y381435D01*
X494366Y381137D01*
X493555Y380858D01*
X492738Y380599D01*
X491915Y380360D01*
X491086Y380142D01*
X490252Y379944D01*
X489414Y379766D01*
X488571Y379609D01*
X487725Y379473D01*
X486875Y379358D01*
X486023Y379263D01*
X485169Y379190D01*
X484314Y379137D01*
X483457Y379106D01*
X482600Y379095D01*
X481743Y379106D01*
X480886Y379137D01*
X480031Y379190D01*
X479177Y379263D01*
X478325Y379358D01*
X477475Y379473D01*
X476629Y379609D01*
X475786Y379766D01*
X474948Y379944D01*
X474114Y380142D01*
X473285Y380360D01*
X472462Y380599D01*
X471645Y380858D01*
X470834Y381137D01*
X470031Y381435D01*
X469235Y381754D01*
X468447Y382091D01*
X467668Y382448D01*
X466897Y382824D01*
X466136Y383219D01*
X465386Y383632D01*
X464645Y384064D01*
X463915Y384513D01*
X463197Y384981D01*
X462490Y385466D01*
X461795Y385968D01*
X461113Y386487D01*
X460444Y387023D01*
X459788Y387574D01*
X459146Y388142D01*
X458518Y388726D01*
X457904Y389324D01*
X457306Y389938D01*
X456722Y390566D01*
X456154Y391208D01*
X455603Y391864D01*
X455067Y392533D01*
X454548Y393215D01*
X454046Y393910D01*
X453561Y394617D01*
X453093Y395335D01*
X452644Y396065D01*
X452212Y396806D01*
X451799Y397556D01*
X451404Y398317D01*
X451028Y399088D01*
X450671Y399867D01*
X450334Y400655D01*
X450015Y401451D01*
X449717Y402254D01*
X449438Y403065D01*
X449179Y403882D01*
X448940Y404705D01*
X448722Y405534D01*
X448524Y406368D01*
X448346Y407206D01*
X448189Y408049D01*
X448053Y408895D01*
X447938Y409745D01*
X447843Y410597D01*
X447770Y411451D01*
X447717Y412306D01*
X447686Y413163D01*
X447675Y414020D01*
X151600Y229900D02*
X151603Y230121D01*
X151611Y230342D01*
X151624Y230562D01*
X151643Y230782D01*
X151668Y231002D01*
X151697Y231221D01*
X151733Y231439D01*
X151773Y231656D01*
X151819Y231872D01*
X151870Y232087D01*
X151926Y232300D01*
X151988Y232513D01*
X152054Y232723D01*
X152126Y232932D01*
X152203Y233139D01*
X152285Y233344D01*
X152372Y233547D01*
X152464Y233748D01*
X152561Y233947D01*
X152663Y234143D01*
X152769Y234336D01*
X152880Y234527D01*
X152996Y234715D01*
X153117Y234900D01*
X153242Y235082D01*
X153371Y235261D01*
X153505Y235437D01*
X153643Y235610D01*
X153785Y235779D01*
X153931Y235944D01*
X154082Y236106D01*
X154236Y236264D01*
X154394Y236418D01*
X154556Y236569D01*
X154721Y236715D01*
X154890Y236857D01*
X155063Y236995D01*
X155239Y237129D01*
X155418Y237258D01*
X155600Y237383D01*
X155785Y237504D01*
X155973Y237620D01*
X156164Y237731D01*
X156357Y237837D01*
X156553Y237939D01*
X156752Y238036D01*
X156953Y238128D01*
X157156Y238215D01*
X157361Y238297D01*
X157568Y238374D01*
X157777Y238446D01*
X157987Y238512D01*
X158200Y238574D01*
X158413Y238630D01*
X158628Y238681D01*
X158844Y238727D01*
X159061Y238767D01*
X159279Y238803D01*
X159498Y238832D01*
X159718Y238857D01*
X159938Y238876D01*
X160158Y238889D01*
X160379Y238897D01*
X160600Y238900D01*
X160821Y238897D01*
X161042Y238889D01*
X161262Y238876D01*
X161482Y238857D01*
X161702Y238832D01*
X161921Y238803D01*
X162139Y238767D01*
X162356Y238727D01*
X162572Y238681D01*
X162787Y238630D01*
X163000Y238574D01*
X163213Y238512D01*
X163423Y238446D01*
X163632Y238374D01*
X163839Y238297D01*
X164044Y238215D01*
X164247Y238128D01*
X164448Y238036D01*
X164647Y237939D01*
X164843Y237837D01*
X165036Y237731D01*
X165227Y237620D01*
X165415Y237504D01*
X165600Y237383D01*
X165782Y237258D01*
X165961Y237129D01*
X166137Y236995D01*
X166310Y236857D01*
X166479Y236715D01*
X166644Y236569D01*
X166806Y236418D01*
X166964Y236264D01*
X167118Y236106D01*
X167269Y235944D01*
X167415Y235779D01*
X167557Y235610D01*
X167695Y235437D01*
X167829Y235261D01*
X167958Y235082D01*
X168083Y234900D01*
X168204Y234715D01*
X168320Y234527D01*
X168431Y234336D01*
X168537Y234143D01*
X168639Y233947D01*
X168736Y233748D01*
X168828Y233547D01*
X168915Y233344D01*
X168997Y233139D01*
X169074Y232932D01*
X169146Y232723D01*
X169212Y232513D01*
X169274Y232300D01*
X169330Y232087D01*
X169381Y231872D01*
X169427Y231656D01*
X169467Y231439D01*
X169503Y231221D01*
X169532Y231002D01*
X169557Y230782D01*
X169576Y230562D01*
X169589Y230342D01*
X169597Y230121D01*
X169600Y229900D01*
X169597Y229679D01*
X169589Y229458D01*
X169576Y229238D01*
X169557Y229018D01*
X169532Y228798D01*
X169503Y228579D01*
X169467Y228361D01*
X169427Y228144D01*
X169381Y227928D01*
X169330Y227713D01*
X169274Y227500D01*
X169212Y227287D01*
X169146Y227077D01*
X169074Y226868D01*
X168997Y226661D01*
X168915Y226456D01*
X168828Y226253D01*
X168736Y226052D01*
X168639Y225853D01*
X168537Y225657D01*
X168431Y225464D01*
X168320Y225273D01*
X168204Y225085D01*
X168083Y224900D01*
X167958Y224718D01*
X167829Y224539D01*
X167695Y224363D01*
X167557Y224190D01*
X167415Y224021D01*
X167269Y223856D01*
X167118Y223694D01*
X166964Y223536D01*
X166806Y223382D01*
X166644Y223231D01*
X166479Y223085D01*
X166310Y222943D01*
X166137Y222805D01*
X165961Y222671D01*
X165782Y222542D01*
X165600Y222417D01*
X165415Y222296D01*
X165227Y222180D01*
X165036Y222069D01*
X164843Y221963D01*
X164647Y221861D01*
X164448Y221764D01*
X164247Y221672D01*
X164044Y221585D01*
X163839Y221503D01*
X163632Y221426D01*
X163423Y221354D01*
X163213Y221288D01*
X163000Y221226D01*
X162787Y221170D01*
X162572Y221119D01*
X162356Y221073D01*
X162139Y221033D01*
X161921Y220997D01*
X161702Y220968D01*
X161482Y220943D01*
X161262Y220924D01*
X161042Y220911D01*
X160821Y220903D01*
X160600Y220900D01*
X160379Y220903D01*
X160158Y220911D01*
X159938Y220924D01*
X159718Y220943D01*
X159498Y220968D01*
X159279Y220997D01*
X159061Y221033D01*
X158844Y221073D01*
X158628Y221119D01*
X158413Y221170D01*
X158200Y221226D01*
X157987Y221288D01*
X157777Y221354D01*
X157568Y221426D01*
X157361Y221503D01*
X157156Y221585D01*
X156953Y221672D01*
X156752Y221764D01*
X156553Y221861D01*
X156357Y221963D01*
X156164Y222069D01*
X155973Y222180D01*
X155785Y222296D01*
X155600Y222417D01*
X155418Y222542D01*
X155239Y222671D01*
X155063Y222805D01*
X154890Y222943D01*
X154721Y223085D01*
X154556Y223231D01*
X154394Y223382D01*
X154236Y223536D01*
X154082Y223694D01*
X153931Y223856D01*
X153785Y224021D01*
X153643Y224190D01*
X153505Y224363D01*
X153371Y224539D01*
X153242Y224718D01*
X153117Y224900D01*
X152996Y225085D01*
X152880Y225273D01*
X152769Y225464D01*
X152663Y225657D01*
X152561Y225853D01*
X152464Y226052D01*
X152372Y226253D01*
X152285Y226456D01*
X152203Y226661D01*
X152126Y226868D01*
X152054Y227077D01*
X151988Y227287D01*
X151926Y227500D01*
X151870Y227713D01*
X151819Y227928D01*
X151773Y228144D01*
X151733Y228361D01*
X151697Y228579D01*
X151668Y228798D01*
X151643Y229018D01*
X151624Y229238D01*
X151611Y229458D01*
X151603Y229679D01*
X151600Y229900D01*
X97100Y229900D02*
X97103Y230121D01*
X97111Y230342D01*
X97124Y230562D01*
X97143Y230782D01*
X97168Y231002D01*
X97197Y231221D01*
X97233Y231439D01*
X97273Y231656D01*
X97319Y231872D01*
X97370Y232087D01*
X97426Y232300D01*
X97488Y232513D01*
X97554Y232723D01*
X97626Y232932D01*
X97703Y233139D01*
X97785Y233344D01*
X97872Y233547D01*
X97964Y233748D01*
X98061Y233947D01*
X98163Y234143D01*
X98269Y234336D01*
X98380Y234527D01*
X98496Y234715D01*
X98617Y234900D01*
X98742Y235082D01*
X98871Y235261D01*
X99005Y235437D01*
X99143Y235610D01*
X99285Y235779D01*
X99431Y235944D01*
X99582Y236106D01*
X99736Y236264D01*
X99894Y236418D01*
X100056Y236569D01*
X100221Y236715D01*
X100390Y236857D01*
X100563Y236995D01*
X100739Y237129D01*
X100918Y237258D01*
X101100Y237383D01*
X101285Y237504D01*
X101473Y237620D01*
X101664Y237731D01*
X101857Y237837D01*
X102053Y237939D01*
X102252Y238036D01*
X102453Y238128D01*
X102656Y238215D01*
X102861Y238297D01*
X103068Y238374D01*
X103277Y238446D01*
X103487Y238512D01*
X103700Y238574D01*
X103913Y238630D01*
X104128Y238681D01*
X104344Y238727D01*
X104561Y238767D01*
X104779Y238803D01*
X104998Y238832D01*
X105218Y238857D01*
X105438Y238876D01*
X105658Y238889D01*
X105879Y238897D01*
X106100Y238900D01*
X106321Y238897D01*
X106542Y238889D01*
X106762Y238876D01*
X106982Y238857D01*
X107202Y238832D01*
X107421Y238803D01*
X107639Y238767D01*
X107856Y238727D01*
X108072Y238681D01*
X108287Y238630D01*
X108500Y238574D01*
X108713Y238512D01*
X108923Y238446D01*
X109132Y238374D01*
X109339Y238297D01*
X109544Y238215D01*
X109747Y238128D01*
X109948Y238036D01*
X110147Y237939D01*
X110343Y237837D01*
X110536Y237731D01*
X110727Y237620D01*
X110915Y237504D01*
X111100Y237383D01*
X111282Y237258D01*
X111461Y237129D01*
X111637Y236995D01*
X111810Y236857D01*
X111979Y236715D01*
X112144Y236569D01*
X112306Y236418D01*
X112464Y236264D01*
X112618Y236106D01*
X112769Y235944D01*
X112915Y235779D01*
X113057Y235610D01*
X113195Y235437D01*
X113329Y235261D01*
X113458Y235082D01*
X113583Y234900D01*
X113704Y234715D01*
X113820Y234527D01*
X113931Y234336D01*
X114037Y234143D01*
X114139Y233947D01*
X114236Y233748D01*
X114328Y233547D01*
X114415Y233344D01*
X114497Y233139D01*
X114574Y232932D01*
X114646Y232723D01*
X114712Y232513D01*
X114774Y232300D01*
X114830Y232087D01*
X114881Y231872D01*
X114927Y231656D01*
X114967Y231439D01*
X115003Y231221D01*
X115032Y231002D01*
X115057Y230782D01*
X115076Y230562D01*
X115089Y230342D01*
X115097Y230121D01*
X115100Y229900D01*
X115097Y229679D01*
X115089Y229458D01*
X115076Y229238D01*
X115057Y229018D01*
X115032Y228798D01*
X115003Y228579D01*
X114967Y228361D01*
X114927Y228144D01*
X114881Y227928D01*
X114830Y227713D01*
X114774Y227500D01*
X114712Y227287D01*
X114646Y227077D01*
X114574Y226868D01*
X114497Y226661D01*
X114415Y226456D01*
X114328Y226253D01*
X114236Y226052D01*
X114139Y225853D01*
X114037Y225657D01*
X113931Y225464D01*
X113820Y225273D01*
X113704Y225085D01*
X113583Y224900D01*
X113458Y224718D01*
X113329Y224539D01*
X113195Y224363D01*
X113057Y224190D01*
X112915Y224021D01*
X112769Y223856D01*
X112618Y223694D01*
X112464Y223536D01*
X112306Y223382D01*
X112144Y223231D01*
X111979Y223085D01*
X111810Y222943D01*
X111637Y222805D01*
X111461Y222671D01*
X111282Y222542D01*
X111100Y222417D01*
X110915Y222296D01*
X110727Y222180D01*
X110536Y222069D01*
X110343Y221963D01*
X110147Y221861D01*
X109948Y221764D01*
X109747Y221672D01*
X109544Y221585D01*
X109339Y221503D01*
X109132Y221426D01*
X108923Y221354D01*
X108713Y221288D01*
X108500Y221226D01*
X108287Y221170D01*
X108072Y221119D01*
X107856Y221073D01*
X107639Y221033D01*
X107421Y220997D01*
X107202Y220968D01*
X106982Y220943D01*
X106762Y220924D01*
X106542Y220911D01*
X106321Y220903D01*
X106100Y220900D01*
X105879Y220903D01*
X105658Y220911D01*
X105438Y220924D01*
X105218Y220943D01*
X104998Y220968D01*
X104779Y220997D01*
X104561Y221033D01*
X104344Y221073D01*
X104128Y221119D01*
X103913Y221170D01*
X103700Y221226D01*
X103487Y221288D01*
X103277Y221354D01*
X103068Y221426D01*
X102861Y221503D01*
X102656Y221585D01*
X102453Y221672D01*
X102252Y221764D01*
X102053Y221861D01*
X101857Y221963D01*
X101664Y222069D01*
X101473Y222180D01*
X101285Y222296D01*
X101100Y222417D01*
X100918Y222542D01*
X100739Y222671D01*
X100563Y222805D01*
X100390Y222943D01*
X100221Y223085D01*
X100056Y223231D01*
X99894Y223382D01*
X99736Y223536D01*
X99582Y223694D01*
X99431Y223856D01*
X99285Y224021D01*
X99143Y224190D01*
X99005Y224363D01*
X98871Y224539D01*
X98742Y224718D01*
X98617Y224900D01*
X98496Y225085D01*
X98380Y225273D01*
X98269Y225464D01*
X98163Y225657D01*
X98061Y225853D01*
X97964Y226052D01*
X97872Y226253D01*
X97785Y226456D01*
X97703Y226661D01*
X97626Y226868D01*
X97554Y227077D01*
X97488Y227287D01*
X97426Y227500D01*
X97370Y227713D01*
X97319Y227928D01*
X97273Y228144D01*
X97233Y228361D01*
X97197Y228579D01*
X97168Y228798D01*
X97143Y229018D01*
X97124Y229238D01*
X97111Y229458D01*
X97103Y229679D01*
X97100Y229900D01*
X150100Y260200D02*
X150102Y260384D01*
X150109Y260568D01*
X150120Y260752D01*
X150136Y260935D01*
X150156Y261118D01*
X150181Y261300D01*
X150210Y261482D01*
X150244Y261663D01*
X150282Y261843D01*
X150325Y262022D01*
X150372Y262200D01*
X150423Y262377D01*
X150479Y262553D01*
X150538Y262727D01*
X150603Y262899D01*
X150671Y263070D01*
X150743Y263239D01*
X150820Y263407D01*
X150901Y263572D01*
X150986Y263735D01*
X151074Y263897D01*
X151167Y264056D01*
X151264Y264212D01*
X151364Y264367D01*
X151468Y264519D01*
X151576Y264668D01*
X151687Y264814D01*
X151802Y264958D01*
X151921Y265099D01*
X152043Y265237D01*
X152168Y265372D01*
X152297Y265503D01*
X152428Y265632D01*
X152563Y265757D01*
X152701Y265879D01*
X152842Y265998D01*
X152986Y266113D01*
X153132Y266224D01*
X153281Y266332D01*
X153433Y266436D01*
X153588Y266536D01*
X153744Y266633D01*
X153903Y266726D01*
X154065Y266814D01*
X154228Y266899D01*
X154393Y266980D01*
X154561Y267057D01*
X154730Y267129D01*
X154901Y267197D01*
X155073Y267262D01*
X155247Y267321D01*
X155423Y267377D01*
X155600Y267428D01*
X155778Y267475D01*
X155957Y267518D01*
X156137Y267556D01*
X156318Y267590D01*
X156500Y267619D01*
X156682Y267644D01*
X156865Y267664D01*
X157048Y267680D01*
X157232Y267691D01*
X157416Y267698D01*
X157600Y267700D01*
X157784Y267698D01*
X157968Y267691D01*
X158152Y267680D01*
X158335Y267664D01*
X158518Y267644D01*
X158700Y267619D01*
X158882Y267590D01*
X159063Y267556D01*
X159243Y267518D01*
X159422Y267475D01*
X159600Y267428D01*
X159777Y267377D01*
X159953Y267321D01*
X160127Y267262D01*
X160299Y267197D01*
X160470Y267129D01*
X160639Y267057D01*
X160807Y266980D01*
X160972Y266899D01*
X161135Y266814D01*
X161297Y266726D01*
X161456Y266633D01*
X161612Y266536D01*
X161767Y266436D01*
X161919Y266332D01*
X162068Y266224D01*
X162214Y266113D01*
X162358Y265998D01*
X162499Y265879D01*
X162637Y265757D01*
X162772Y265632D01*
X162903Y265503D01*
X163032Y265372D01*
X163157Y265237D01*
X163279Y265099D01*
X163398Y264958D01*
X163513Y264814D01*
X163624Y264668D01*
X163732Y264519D01*
X163836Y264367D01*
X163936Y264212D01*
X164033Y264056D01*
X164126Y263897D01*
X164214Y263735D01*
X164299Y263572D01*
X164380Y263407D01*
X164457Y263239D01*
X164529Y263070D01*
X164597Y262899D01*
X164662Y262727D01*
X164721Y262553D01*
X164777Y262377D01*
X164828Y262200D01*
X164875Y262022D01*
X164918Y261843D01*
X164956Y261663D01*
X164990Y261482D01*
X165019Y261300D01*
X165044Y261118D01*
X165064Y260935D01*
X165080Y260752D01*
X165091Y260568D01*
X165098Y260384D01*
X165100Y260200D01*
X165098Y260016D01*
X165091Y259832D01*
X165080Y259648D01*
X165064Y259465D01*
X165044Y259282D01*
X165019Y259100D01*
X164990Y258918D01*
X164956Y258737D01*
X164918Y258557D01*
X164875Y258378D01*
X164828Y258200D01*
X164777Y258023D01*
X164721Y257847D01*
X164662Y257673D01*
X164597Y257501D01*
X164529Y257330D01*
X164457Y257161D01*
X164380Y256993D01*
X164299Y256828D01*
X164214Y256665D01*
X164126Y256503D01*
X164033Y256344D01*
X163936Y256188D01*
X163836Y256033D01*
X163732Y255881D01*
X163624Y255732D01*
X163513Y255586D01*
X163398Y255442D01*
X163279Y255301D01*
X163157Y255163D01*
X163032Y255028D01*
X162903Y254897D01*
X162772Y254768D01*
X162637Y254643D01*
X162499Y254521D01*
X162358Y254402D01*
X162214Y254287D01*
X162068Y254176D01*
X161919Y254068D01*
X161767Y253964D01*
X161612Y253864D01*
X161456Y253767D01*
X161297Y253674D01*
X161135Y253586D01*
X160972Y253501D01*
X160807Y253420D01*
X160639Y253343D01*
X160470Y253271D01*
X160299Y253203D01*
X160127Y253138D01*
X159953Y253079D01*
X159777Y253023D01*
X159600Y252972D01*
X159422Y252925D01*
X159243Y252882D01*
X159063Y252844D01*
X158882Y252810D01*
X158700Y252781D01*
X158518Y252756D01*
X158335Y252736D01*
X158152Y252720D01*
X157968Y252709D01*
X157784Y252702D01*
X157600Y252700D01*
X157416Y252702D01*
X157232Y252709D01*
X157048Y252720D01*
X156865Y252736D01*
X156682Y252756D01*
X156500Y252781D01*
X156318Y252810D01*
X156137Y252844D01*
X155957Y252882D01*
X155778Y252925D01*
X155600Y252972D01*
X155423Y253023D01*
X155247Y253079D01*
X155073Y253138D01*
X154901Y253203D01*
X154730Y253271D01*
X154561Y253343D01*
X154393Y253420D01*
X154228Y253501D01*
X154065Y253586D01*
X153903Y253674D01*
X153744Y253767D01*
X153588Y253864D01*
X153433Y253964D01*
X153281Y254068D01*
X153132Y254176D01*
X152986Y254287D01*
X152842Y254402D01*
X152701Y254521D01*
X152563Y254643D01*
X152428Y254768D01*
X152297Y254897D01*
X152168Y255028D01*
X152043Y255163D01*
X151921Y255301D01*
X151802Y255442D01*
X151687Y255586D01*
X151576Y255732D01*
X151468Y255881D01*
X151364Y256033D01*
X151264Y256188D01*
X151167Y256344D01*
X151074Y256503D01*
X150986Y256665D01*
X150901Y256828D01*
X150820Y256993D01*
X150743Y257161D01*
X150671Y257330D01*
X150603Y257501D01*
X150538Y257673D01*
X150479Y257847D01*
X150423Y258023D01*
X150372Y258200D01*
X150325Y258378D01*
X150282Y258557D01*
X150244Y258737D01*
X150210Y258918D01*
X150181Y259100D01*
X150156Y259282D01*
X150136Y259465D01*
X150120Y259648D01*
X150109Y259832D01*
X150102Y260016D01*
X150100Y260200D01*
X101600Y260200D02*
X101602Y260384D01*
X101609Y260568D01*
X101620Y260752D01*
X101636Y260935D01*
X101656Y261118D01*
X101681Y261300D01*
X101710Y261482D01*
X101744Y261663D01*
X101782Y261843D01*
X101825Y262022D01*
X101872Y262200D01*
X101923Y262377D01*
X101979Y262553D01*
X102038Y262727D01*
X102103Y262899D01*
X102171Y263070D01*
X102243Y263239D01*
X102320Y263407D01*
X102401Y263572D01*
X102486Y263735D01*
X102574Y263897D01*
X102667Y264056D01*
X102764Y264212D01*
X102864Y264367D01*
X102968Y264519D01*
X103076Y264668D01*
X103187Y264814D01*
X103302Y264958D01*
X103421Y265099D01*
X103543Y265237D01*
X103668Y265372D01*
X103797Y265503D01*
X103928Y265632D01*
X104063Y265757D01*
X104201Y265879D01*
X104342Y265998D01*
X104486Y266113D01*
X104632Y266224D01*
X104781Y266332D01*
X104933Y266436D01*
X105088Y266536D01*
X105244Y266633D01*
X105403Y266726D01*
X105565Y266814D01*
X105728Y266899D01*
X105893Y266980D01*
X106061Y267057D01*
X106230Y267129D01*
X106401Y267197D01*
X106573Y267262D01*
X106747Y267321D01*
X106923Y267377D01*
X107100Y267428D01*
X107278Y267475D01*
X107457Y267518D01*
X107637Y267556D01*
X107818Y267590D01*
X108000Y267619D01*
X108182Y267644D01*
X108365Y267664D01*
X108548Y267680D01*
X108732Y267691D01*
X108916Y267698D01*
X109100Y267700D01*
X109284Y267698D01*
X109468Y267691D01*
X109652Y267680D01*
X109835Y267664D01*
X110018Y267644D01*
X110200Y267619D01*
X110382Y267590D01*
X110563Y267556D01*
X110743Y267518D01*
X110922Y267475D01*
X111100Y267428D01*
X111277Y267377D01*
X111453Y267321D01*
X111627Y267262D01*
X111799Y267197D01*
X111970Y267129D01*
X112139Y267057D01*
X112307Y266980D01*
X112472Y266899D01*
X112635Y266814D01*
X112797Y266726D01*
X112956Y266633D01*
X113112Y266536D01*
X113267Y266436D01*
X113419Y266332D01*
X113568Y266224D01*
X113714Y266113D01*
X113858Y265998D01*
X113999Y265879D01*
X114137Y265757D01*
X114272Y265632D01*
X114403Y265503D01*
X114532Y265372D01*
X114657Y265237D01*
X114779Y265099D01*
X114898Y264958D01*
X115013Y264814D01*
X115124Y264668D01*
X115232Y264519D01*
X115336Y264367D01*
X115436Y264212D01*
X115533Y264056D01*
X115626Y263897D01*
X115714Y263735D01*
X115799Y263572D01*
X115880Y263407D01*
X115957Y263239D01*
X116029Y263070D01*
X116097Y262899D01*
X116162Y262727D01*
X116221Y262553D01*
X116277Y262377D01*
X116328Y262200D01*
X116375Y262022D01*
X116418Y261843D01*
X116456Y261663D01*
X116490Y261482D01*
X116519Y261300D01*
X116544Y261118D01*
X116564Y260935D01*
X116580Y260752D01*
X116591Y260568D01*
X116598Y260384D01*
X116600Y260200D01*
X116598Y260016D01*
X116591Y259832D01*
X116580Y259648D01*
X116564Y259465D01*
X116544Y259282D01*
X116519Y259100D01*
X116490Y258918D01*
X116456Y258737D01*
X116418Y258557D01*
X116375Y258378D01*
X116328Y258200D01*
X116277Y258023D01*
X116221Y257847D01*
X116162Y257673D01*
X116097Y257501D01*
X116029Y257330D01*
X115957Y257161D01*
X115880Y256993D01*
X115799Y256828D01*
X115714Y256665D01*
X115626Y256503D01*
X115533Y256344D01*
X115436Y256188D01*
X115336Y256033D01*
X115232Y255881D01*
X115124Y255732D01*
X115013Y255586D01*
X114898Y255442D01*
X114779Y255301D01*
X114657Y255163D01*
X114532Y255028D01*
X114403Y254897D01*
X114272Y254768D01*
X114137Y254643D01*
X113999Y254521D01*
X113858Y254402D01*
X113714Y254287D01*
X113568Y254176D01*
X113419Y254068D01*
X113267Y253964D01*
X113112Y253864D01*
X112956Y253767D01*
X112797Y253674D01*
X112635Y253586D01*
X112472Y253501D01*
X112307Y253420D01*
X112139Y253343D01*
X111970Y253271D01*
X111799Y253203D01*
X111627Y253138D01*
X111453Y253079D01*
X111277Y253023D01*
X111100Y252972D01*
X110922Y252925D01*
X110743Y252882D01*
X110563Y252844D01*
X110382Y252810D01*
X110200Y252781D01*
X110018Y252756D01*
X109835Y252736D01*
X109652Y252720D01*
X109468Y252709D01*
X109284Y252702D01*
X109100Y252700D01*
X108916Y252702D01*
X108732Y252709D01*
X108548Y252720D01*
X108365Y252736D01*
X108182Y252756D01*
X108000Y252781D01*
X107818Y252810D01*
X107637Y252844D01*
X107457Y252882D01*
X107278Y252925D01*
X107100Y252972D01*
X106923Y253023D01*
X106747Y253079D01*
X106573Y253138D01*
X106401Y253203D01*
X106230Y253271D01*
X106061Y253343D01*
X105893Y253420D01*
X105728Y253501D01*
X105565Y253586D01*
X105403Y253674D01*
X105244Y253767D01*
X105088Y253864D01*
X104933Y253964D01*
X104781Y254068D01*
X104632Y254176D01*
X104486Y254287D01*
X104342Y254402D01*
X104201Y254521D01*
X104063Y254643D01*
X103928Y254768D01*
X103797Y254897D01*
X103668Y255028D01*
X103543Y255163D01*
X103421Y255301D01*
X103302Y255442D01*
X103187Y255586D01*
X103076Y255732D01*
X102968Y255881D01*
X102864Y256033D01*
X102764Y256188D01*
X102667Y256344D01*
X102574Y256503D01*
X102486Y256665D01*
X102401Y256828D01*
X102320Y256993D01*
X102243Y257161D01*
X102171Y257330D01*
X102103Y257501D01*
X102038Y257673D01*
X101979Y257847D01*
X101923Y258023D01*
X101872Y258200D01*
X101825Y258378D01*
X101782Y258557D01*
X101744Y258737D01*
X101710Y258918D01*
X101681Y259100D01*
X101656Y259282D01*
X101636Y259465D01*
X101620Y259648D01*
X101609Y259832D01*
X101602Y260016D01*
X101600Y260200D01*
D12*
X0Y115570D02*
X215900Y115570D01*
X216121Y115560D01*
X216341Y115531D01*
X216557Y115483D01*
X216769Y115417D01*
X216973Y115332D01*
X217170Y115230D01*
X217357Y115111D01*
X217533Y114976D01*
X217696Y114826D01*
X217846Y114663D01*
X217981Y114487D01*
X218100Y114300D01*
X218202Y114103D01*
X218287Y113899D01*
X218353Y113687D01*
X218401Y113471D01*
X218430Y113251D01*
X218440Y113030D01*
X218440Y1270D01*
X218488Y163D01*
X218633Y-935D01*
X218873Y-2017D01*
X219206Y-3074D01*
X219630Y-4097D01*
X220141Y-5080D01*
X220737Y-6014D01*
X221411Y-6893D01*
X222160Y-7710D01*
X222977Y-8459D01*
X223856Y-9133D01*
X224790Y-9729D01*
X225773Y-10240D01*
X226796Y-10664D01*
X227853Y-10997D01*
X228935Y-11237D01*
X230033Y-11382D01*
X231140Y-11430D01*
X734060Y-11430D01*
X735167Y-11382D01*
X736265Y-11237D01*
X737347Y-10997D01*
X738404Y-10664D01*
X739427Y-10240D01*
X740410Y-9729D01*
X741344Y-9133D01*
X742223Y-8459D01*
X743040Y-7710D01*
X743789Y-6893D01*
X744463Y-6014D01*
X745059Y-5080D01*
X745570Y-4097D01*
X745994Y-3074D01*
X746327Y-2017D01*
X746567Y-935D01*
X746712Y163D01*
X746760Y1270D01*
X746760Y113030D01*
X746770Y113251D01*
X746799Y113471D01*
X746847Y113687D01*
X746913Y113899D01*
X746998Y114103D01*
X747100Y114300D01*
X747219Y114487D01*
X747354Y114663D01*
X747504Y114826D01*
X747667Y114976D01*
X747843Y115111D01*
X748030Y115230D01*
X748227Y115332D01*
X748431Y115417D01*
X748643Y115483D01*
X748859Y115531D01*
X749079Y115560D01*
X749300Y115570D01*
X965200Y115570D01*
X965200Y826770D01*
X0Y826770D01*
X0Y115570D01*
X517525Y413213D02*
X517450Y411601D01*
X517302Y409994D01*
X517079Y408396D01*
X516782Y406809D01*
X516413Y405238D01*
X515971Y403686D01*
X515458Y402156D01*
X514875Y400651D01*
X514223Y399175D01*
X513504Y397730D01*
X512719Y396320D01*
X511869Y394948D01*
X510957Y393617D01*
X509984Y392329D01*
X508954Y391088D01*
X507866Y389895D01*
X506725Y388754D01*
X505533Y387667D01*
X504291Y386636D01*
X503003Y385663D01*
X501672Y384751D01*
X500300Y383901D01*
X498890Y383116D01*
X497445Y382397D01*
X495969Y381745D01*
X494464Y381162D01*
X492934Y380649D01*
X491382Y380207D01*
X489811Y379838D01*
X488224Y379541D01*
X486626Y379318D01*
X485019Y379170D01*
X483407Y379095D01*
X481793Y379095D01*
X480181Y379170D01*
X478574Y379318D01*
X476976Y379541D01*
X475389Y379838D01*
X473818Y380207D01*
X472266Y380649D01*
X470736Y381162D01*
X469231Y381745D01*
X467755Y382397D01*
X466310Y383116D01*
X464900Y383901D01*
X463528Y384751D01*
X462197Y385663D01*
X460909Y386636D01*
X459668Y387667D01*
X458475Y388754D01*
X457334Y389895D01*
X456247Y391088D01*
X455216Y392329D01*
X454243Y393617D01*
X453331Y394948D01*
X452481Y396320D01*
X451696Y397730D01*
X450977Y399175D01*
X450325Y400651D01*
X449742Y402156D01*
X449229Y403686D01*
X448787Y405238D01*
X448418Y406809D01*
X448121Y408396D01*
X447898Y409994D01*
X447750Y411601D01*
X447675Y413213D01*
X447675Y414827D01*
X447750Y416439D01*
X447898Y418046D01*
X448121Y419644D01*
X448418Y421231D01*
X448787Y422802D01*
X449229Y424354D01*
X449742Y425884D01*
X450325Y427389D01*
X450977Y428865D01*
X451696Y430310D01*
X452481Y431720D01*
X453331Y433092D01*
X454243Y434423D01*
X455216Y435711D01*
X456247Y436953D01*
X457334Y438145D01*
X458475Y439286D01*
X459668Y440374D01*
X460909Y441404D01*
X462197Y442377D01*
X463528Y443289D01*
X464900Y444139D01*
X466310Y444924D01*
X467755Y445643D01*
X469231Y446295D01*
X470736Y446878D01*
X472266Y447391D01*
X473818Y447833D01*
X475389Y448202D01*
X476976Y448499D01*
X478574Y448722D01*
X480181Y448870D01*
X481793Y448945D01*
X483407Y448945D01*
X485019Y448870D01*
X486626Y448722D01*
X488224Y448499D01*
X489811Y448202D01*
X491382Y447833D01*
X492934Y447391D01*
X494464Y446878D01*
X495969Y446295D01*
X497445Y445643D01*
X498890Y444924D01*
X500300Y444139D01*
X501672Y443289D01*
X503003Y442377D01*
X504291Y441404D01*
X505533Y440374D01*
X506725Y439286D01*
X507866Y438145D01*
X508954Y436953D01*
X509984Y435711D01*
X510957Y434423D01*
X511869Y433092D01*
X512719Y431720D01*
X513504Y430310D01*
X514223Y428865D01*
X514875Y427389D01*
X515458Y425884D01*
X515971Y424354D01*
X516413Y422802D01*
X516782Y421231D01*
X517079Y419644D01*
X517302Y418046D01*
X517450Y416439D01*
X517525Y414827D01*
X517525Y413213D01*
X151600Y230293D02*
X151669Y231076D01*
X151805Y231850D01*
X152008Y232609D01*
X152277Y233347D01*
X152609Y234060D01*
X153002Y234740D01*
X153453Y235384D01*
X153958Y235986D01*
X154514Y236542D01*
X155116Y237047D01*
X155760Y237498D01*
X156440Y237891D01*
X157153Y238223D01*
X157891Y238492D01*
X158650Y238695D01*
X159424Y238832D01*
X160207Y238900D01*
X160993Y238900D01*
X161776Y238832D01*
X162550Y238695D01*
X163309Y238492D01*
X164047Y238223D01*
X164760Y237891D01*
X165440Y237498D01*
X166084Y237047D01*
X166686Y236542D01*
X167242Y235986D01*
X167747Y235384D01*
X168198Y234740D01*
X168591Y234060D01*
X168923Y233347D01*
X169192Y232609D01*
X169395Y231850D01*
X169532Y231076D01*
X169600Y230293D01*
X169600Y229507D01*
X169532Y228724D01*
X169395Y227950D01*
X169192Y227191D01*
X168923Y226453D01*
X168591Y225740D01*
X168198Y225060D01*
X167747Y224416D01*
X167242Y223814D01*
X166686Y223258D01*
X166084Y222753D01*
X165440Y222302D01*
X164760Y221909D01*
X164047Y221577D01*
X163309Y221308D01*
X162550Y221105D01*
X161776Y220969D01*
X160993Y220900D01*
X160207Y220900D01*
X159424Y220969D01*
X158650Y221105D01*
X157891Y221308D01*
X157153Y221577D01*
X156440Y221909D01*
X155760Y222302D01*
X155116Y222753D01*
X154514Y223258D01*
X153958Y223814D01*
X153453Y224416D01*
X153002Y225060D01*
X152609Y225740D01*
X152277Y226453D01*
X152008Y227191D01*
X151805Y227950D01*
X151669Y228724D01*
X151600Y229507D01*
X151600Y230293D01*
X97100Y230293D02*
X97169Y231076D01*
X97305Y231850D01*
X97508Y232609D01*
X97777Y233347D01*
X98109Y234060D01*
X98502Y234740D01*
X98953Y235384D01*
X99458Y235986D01*
X100014Y236542D01*
X100616Y237047D01*
X101260Y237498D01*
X101940Y237891D01*
X102653Y238223D01*
X103391Y238492D01*
X104150Y238695D01*
X104924Y238832D01*
X105707Y238900D01*
X106493Y238900D01*
X107276Y238832D01*
X108050Y238695D01*
X108809Y238492D01*
X109547Y238223D01*
X110260Y237891D01*
X110940Y237498D01*
X111584Y237047D01*
X112186Y236542D01*
X112742Y235986D01*
X113247Y235384D01*
X113698Y234740D01*
X114091Y234060D01*
X114423Y233347D01*
X114692Y232609D01*
X114895Y231850D01*
X115032Y231076D01*
X115100Y230293D01*
X115100Y229507D01*
X115032Y228724D01*
X114895Y227950D01*
X114692Y227191D01*
X114423Y226453D01*
X114091Y225740D01*
X113698Y225060D01*
X113247Y224416D01*
X112742Y223814D01*
X112186Y223258D01*
X111584Y222753D01*
X110940Y222302D01*
X110260Y221909D01*
X109547Y221577D01*
X108809Y221308D01*
X108050Y221105D01*
X107276Y220969D01*
X106493Y220900D01*
X105707Y220900D01*
X104924Y220969D01*
X104150Y221105D01*
X103391Y221308D01*
X102653Y221577D01*
X101940Y221909D01*
X101260Y222302D01*
X100616Y222753D01*
X100014Y223258D01*
X99458Y223814D01*
X98953Y224416D01*
X98502Y225060D01*
X98109Y225740D01*
X97777Y226453D01*
X97508Y227191D01*
X97305Y227950D01*
X97169Y228724D01*
X97100Y229507D01*
X97100Y230293D01*
X150100Y260568D02*
X150172Y261302D01*
X150316Y262025D01*
X150530Y262730D01*
X150812Y263411D01*
X151159Y264060D01*
X151569Y264673D01*
X152036Y265243D01*
X152557Y265764D01*
X153127Y266231D01*
X153740Y266641D01*
X154389Y266988D01*
X155070Y267270D01*
X155775Y267484D01*
X156498Y267628D01*
X157232Y267700D01*
X157968Y267700D01*
X158702Y267628D01*
X159425Y267484D01*
X160130Y267270D01*
X160811Y266988D01*
X161460Y266641D01*
X162073Y266231D01*
X162643Y265764D01*
X163164Y265243D01*
X163631Y264673D01*
X164041Y264060D01*
X164388Y263411D01*
X164670Y262730D01*
X164884Y262025D01*
X165028Y261302D01*
X165100Y260568D01*
X165100Y259832D01*
X165028Y259098D01*
X164884Y258375D01*
X164670Y257670D01*
X164388Y256989D01*
X164041Y256340D01*
X163631Y255727D01*
X163164Y255157D01*
X162643Y254636D01*
X162073Y254169D01*
X161460Y253759D01*
X160811Y253412D01*
X160130Y253130D01*
X159425Y252916D01*
X158702Y252772D01*
X157968Y252700D01*
X157232Y252700D01*
X156498Y252772D01*
X155775Y252916D01*
X155070Y253130D01*
X154389Y253412D01*
X153740Y253759D01*
X153127Y254169D01*
X152557Y254636D01*
X152036Y255157D01*
X151569Y255727D01*
X151159Y256340D01*
X150812Y256989D01*
X150530Y257670D01*
X150316Y258375D01*
X150172Y259098D01*
X150100Y259832D01*
X150100Y260568D01*
X101600Y260568D02*
X101672Y261302D01*
X101816Y262025D01*
X102030Y262730D01*
X102312Y263411D01*
X102659Y264060D01*
X103069Y264673D01*
X103536Y265243D01*
X104057Y265764D01*
X104627Y266231D01*
X105240Y266641D01*
X105889Y266988D01*
X106570Y267270D01*
X107275Y267484D01*
X107998Y267628D01*
X108732Y267700D01*
X109468Y267700D01*
X110202Y267628D01*
X110925Y267484D01*
X111630Y267270D01*
X112311Y266988D01*
X112960Y266641D01*
X113573Y266231D01*
X114143Y265764D01*
X114664Y265243D01*
X115131Y264673D01*
X115541Y264060D01*
X115888Y263411D01*
X116170Y262730D01*
X116384Y262025D01*
X116528Y261302D01*
X116600Y260568D01*
X116600Y259832D01*
X116528Y259098D01*
X116384Y258375D01*
X116170Y257670D01*
X115888Y256989D01*
X115541Y256340D01*
X115131Y255727D01*
X114664Y255157D01*
X114143Y254636D01*
X113573Y254169D01*
X112960Y253759D01*
X112311Y253412D01*
X111630Y253130D01*
X110925Y252916D01*
X110202Y252772D01*
X109468Y252700D01*
X108732Y252700D01*
X107998Y252772D01*
X107275Y252916D01*
X106570Y253130D01*
X105889Y253412D01*
X105240Y253759D01*
X104627Y254169D01*
X104057Y254636D01*
X103536Y255157D01*
X103069Y255727D01*
X102659Y256340D01*
X102312Y256989D01*
X102030Y257670D01*
X101816Y258375D01*
X101672Y259098D01*
X101600Y259832D01*
X101600Y260568D01*
M02*
