G04 EAGLE Gerber RS-274X export*
G75*
%MOMM*%
%FSLAX34Y34*%
%LPD*%
%INSoldermask Bottom*%
%IPPOS*%
%AMOC8*
5,1,8,0,0,1.08239X$1,22.5*%
G01*
%ADD10R,1.422400X9.677400*%
%ADD11C,5.867400*%
%ADD12C,7.137400*%
%ADD13C,1.652400*%
%ADD14C,1.952400*%
%ADD15C,1.371600*%
%ADD16C,1.852400*%
%ADD17C,1.676400*%
%ADD18R,1.652400X1.652400*%
%ADD19R,3.368400X3.368400*%
%ADD20P,1.484606X8X292.500000*%
%ADD21P,1.484606X8X202.500000*%
%ADD22P,1.484606X8X22.500000*%
%ADD23R,1.320800X1.752600*%
%ADD24R,0.152400X1.828800*%
%ADD25P,1.814519X8X22.500000*%
%ADD26R,1.752600X1.320800*%
%ADD27R,1.828800X0.152400*%
%ADD28P,1.484606X8X112.500000*%


D10*
X241300Y40640D03*
X266700Y40640D03*
X292100Y40640D03*
X317500Y40640D03*
X342900Y40640D03*
X368300Y40640D03*
X393700Y40640D03*
X419100Y40640D03*
X444500Y40640D03*
X469900Y40640D03*
X495300Y40640D03*
X520700Y40640D03*
X546100Y40640D03*
X571500Y40640D03*
X596900Y40640D03*
X622300Y40640D03*
X647700Y40640D03*
X673100Y40640D03*
X698500Y40640D03*
X723900Y40640D03*
D11*
X255905Y172720D03*
X709295Y172720D03*
D12*
X482600Y414020D03*
D13*
X222250Y228600D03*
X222250Y254000D03*
X222250Y381000D03*
X222250Y406400D03*
X222250Y279400D03*
X222250Y304800D03*
X222250Y355600D03*
X222250Y330200D03*
X222250Y431800D03*
X222250Y457200D03*
X222250Y482600D03*
X222250Y508000D03*
X222250Y533400D03*
X222250Y558800D03*
X222250Y584200D03*
X222250Y609600D03*
X222250Y635000D03*
X222250Y660400D03*
X222250Y685800D03*
X222250Y711200D03*
X44450Y711200D03*
X44450Y685800D03*
X44450Y660400D03*
X44450Y635000D03*
X44450Y609600D03*
X44450Y584200D03*
X44450Y558800D03*
X44450Y533400D03*
X44450Y508000D03*
X44450Y482600D03*
X44450Y457200D03*
X44450Y431800D03*
X44450Y406400D03*
X44450Y381000D03*
X44450Y355600D03*
X44450Y330200D03*
X44450Y304800D03*
X44450Y279400D03*
X44450Y254000D03*
X44450Y228600D03*
D14*
X160600Y229900D03*
X106100Y229900D03*
D13*
X157600Y260200D03*
X109100Y260200D03*
X158750Y708900D03*
X133350Y708900D03*
X107950Y708900D03*
D15*
X762000Y361696D02*
X762000Y349504D01*
X787400Y349504D02*
X787400Y361696D01*
X812800Y361696D02*
X812800Y349504D01*
X838200Y349504D02*
X838200Y361696D01*
X863600Y361696D02*
X863600Y349504D01*
X889000Y349504D02*
X889000Y361696D01*
X914400Y361696D02*
X914400Y349504D01*
X939800Y349504D02*
X939800Y361696D01*
X939800Y425704D02*
X939800Y437896D01*
X914400Y437896D02*
X914400Y425704D01*
X889000Y425704D02*
X889000Y437896D01*
X863600Y437896D02*
X863600Y425704D01*
X838200Y425704D02*
X838200Y437896D01*
X812800Y437896D02*
X812800Y425704D01*
X787400Y425704D02*
X787400Y437896D01*
X762000Y437896D02*
X762000Y425704D01*
X787400Y247396D02*
X787400Y235204D01*
X812800Y235204D02*
X812800Y247396D01*
X939800Y247396D02*
X939800Y235204D01*
X939800Y311404D02*
X939800Y323596D01*
X838200Y247396D02*
X838200Y235204D01*
X863600Y235204D02*
X863600Y247396D01*
X914400Y247396D02*
X914400Y235204D01*
X889000Y235204D02*
X889000Y247396D01*
X914400Y311404D02*
X914400Y323596D01*
X889000Y323596D02*
X889000Y311404D01*
X863600Y311404D02*
X863600Y323596D01*
X838200Y323596D02*
X838200Y311404D01*
X812800Y311404D02*
X812800Y323596D01*
X787400Y323596D02*
X787400Y311404D01*
D16*
X25400Y139700D03*
X101600Y139700D03*
D17*
X417830Y654050D02*
X433070Y654050D01*
X433070Y679450D02*
X417830Y679450D01*
X417830Y704850D02*
X433070Y704850D01*
X433070Y730250D02*
X417830Y730250D01*
D18*
X906850Y667150D03*
X906850Y692150D03*
X906850Y717150D03*
X761850Y667150D03*
X761850Y717150D03*
D19*
X831850Y631150D03*
X831850Y753150D03*
D20*
X762000Y317500D03*
X762000Y292100D03*
X736600Y431800D03*
X736600Y406400D03*
D21*
X69850Y177800D03*
X19050Y177800D03*
D22*
X317500Y209550D03*
X368300Y209550D03*
D23*
X792480Y285750D03*
X807720Y285750D03*
D24*
X800100Y285750D03*
D22*
X787400Y476250D03*
X863600Y476250D03*
X812800Y501650D03*
X889000Y501650D03*
D25*
X127000Y139700D03*
D26*
X838200Y278130D03*
X838200Y293370D03*
D27*
X838200Y285750D03*
D26*
X889000Y278130D03*
X889000Y293370D03*
D27*
X889000Y285750D03*
D26*
X914400Y278130D03*
X914400Y293370D03*
D27*
X914400Y285750D03*
D15*
X602996Y444500D02*
X590804Y444500D01*
X590804Y419100D02*
X602996Y419100D01*
X602996Y292100D02*
X590804Y292100D01*
X590804Y266700D02*
X602996Y266700D01*
X602996Y393700D02*
X590804Y393700D01*
X590804Y368300D02*
X602996Y368300D01*
X602996Y317500D02*
X590804Y317500D01*
X590804Y342900D02*
X602996Y342900D01*
X667004Y266700D02*
X679196Y266700D01*
X679196Y292100D02*
X667004Y292100D01*
X667004Y317500D02*
X679196Y317500D01*
X679196Y342900D02*
X667004Y342900D01*
X667004Y368300D02*
X679196Y368300D01*
X679196Y393700D02*
X667004Y393700D01*
X667004Y419100D02*
X679196Y419100D01*
X679196Y444500D02*
X667004Y444500D01*
X304546Y444500D02*
X292354Y444500D01*
X292354Y419100D02*
X304546Y419100D01*
X304546Y292100D02*
X292354Y292100D01*
X292354Y266700D02*
X304546Y266700D01*
X304546Y393700D02*
X292354Y393700D01*
X292354Y368300D02*
X304546Y368300D01*
X304546Y317500D02*
X292354Y317500D01*
X292354Y342900D02*
X304546Y342900D01*
X368554Y266700D02*
X380746Y266700D01*
X380746Y292100D02*
X368554Y292100D01*
X368554Y317500D02*
X380746Y317500D01*
X380746Y342900D02*
X368554Y342900D01*
X368554Y368300D02*
X380746Y368300D01*
X380746Y393700D02*
X368554Y393700D01*
X368554Y419100D02*
X380746Y419100D01*
X380746Y444500D02*
X368554Y444500D01*
X438404Y317500D02*
X450596Y317500D01*
X450596Y292100D02*
X438404Y292100D01*
X438404Y165100D02*
X450596Y165100D01*
X450596Y139700D02*
X438404Y139700D01*
X438404Y266700D02*
X450596Y266700D01*
X450596Y241300D02*
X438404Y241300D01*
X438404Y190500D02*
X450596Y190500D01*
X450596Y215900D02*
X438404Y215900D01*
X514604Y139700D02*
X526796Y139700D01*
X526796Y165100D02*
X514604Y165100D01*
X514604Y190500D02*
X526796Y190500D01*
X526796Y215900D02*
X514604Y215900D01*
X514604Y241300D02*
X526796Y241300D01*
X526796Y266700D02*
X514604Y266700D01*
X514604Y292100D02*
X526796Y292100D01*
X526796Y317500D02*
X514604Y317500D01*
D17*
X292100Y754380D02*
X292100Y769620D01*
X266700Y769620D02*
X266700Y754380D01*
X241300Y754380D02*
X241300Y769620D01*
X215900Y769620D02*
X215900Y754380D01*
X190500Y754380D02*
X190500Y769620D01*
X165100Y769620D02*
X165100Y754380D01*
X139700Y754380D02*
X139700Y769620D01*
X114300Y769620D02*
X114300Y754380D01*
X88900Y754380D02*
X88900Y769620D01*
X63500Y769620D02*
X63500Y754380D01*
X38100Y754380D02*
X38100Y769620D01*
D25*
X292100Y812800D03*
D21*
X374650Y476250D03*
X349250Y476250D03*
X673100Y469900D03*
X647700Y469900D03*
D28*
X552450Y323850D03*
X552450Y349250D03*
D25*
X304800Y704850D03*
X304800Y654050D03*
D15*
X203200Y183896D02*
X203200Y171704D01*
X101600Y171704D02*
X101600Y183896D01*
M02*
