M48
;GenerationSoftware,Autodesk,EAGLE,9.6.1*%
;CreationDate,2026-09-11T06:28:59Z*%
FMAT,2
ICI,OFF
METRIC,TZ,000.000
T10C0.610
T9C0.813
T8C1.000
T7C1.016
T6C1.100
T5C1.500
T4C1.800
T3C2.200
T2C3.607
T1C6.985
%
G90
M71
T1
X48260Y41402
T2
X25590Y17272
X70930Y17272
T3
X83185Y75315
X83185Y63115
T4
X16060Y22990
X10610Y22990
T5
X15760Y26020
X10910Y26020
T6
X31750Y18415
X39370Y18415
T7
X21590Y76200
X24130Y76200
X26670Y76200
X29210Y76200
X41910Y18415
X42545Y73025
X42545Y70485
X42545Y67945
X42545Y65405
X13970Y76200
X30480Y65405
X30480Y70485
X29210Y81280
X3810Y76200
X6350Y76200
X8890Y76200
X11430Y76200
X16510Y76200
X19050Y76200
T8
X10795Y70890
X13335Y70890
X22225Y22860
X22225Y25400
X22225Y38100
X22225Y40640
X22225Y27940
X22225Y30480
X22225Y35560
X22225Y33020
X22225Y43180
X22225Y45720
X22225Y48260
X22225Y50800
X22225Y53340
X22225Y55880
X22225Y58420
X22225Y60960
X22225Y63500
X22225Y66040
X22225Y68580
X22225Y71120
X4445Y71120
X15875Y70890
X4445Y68580
X4445Y66040
X4445Y63500
X4445Y60960
X4445Y35560
X4445Y55880
X4445Y33020
X4445Y30480
X4445Y27940
X4445Y25400
X4445Y22860
X4445Y50800
X4445Y48260
X4445Y58420
X4445Y53340
X76185Y71715
X76185Y66715
X90685Y71715
X90685Y69215
X90685Y66715
X4445Y45720
X4445Y43180
X4445Y40640
X4445Y38100
T9
X59690Y39370
X59690Y36830
X59690Y31750
X59690Y34290
X67310Y26670
X67310Y29210
X67310Y31750
X67310Y34290
X67310Y36830
X67310Y39370
X67310Y41910
X67310Y44450
X29845Y44450
X29845Y41910
X29845Y29210
X29845Y26670
X29845Y39370
X29845Y36830
X29845Y31750
X29845Y34290
X37465Y26670
X37465Y29210
X37465Y31750
X37465Y34290
X37465Y36830
X37465Y39370
X37465Y41910
X37465Y44450
X44450Y31750
X44450Y29210
X44450Y16510
X44450Y13970
X44450Y26670
X44450Y19050
X44450Y21590
X52070Y13970
X52070Y16510
X52070Y19050
X52070Y21590
X52070Y24130
X52070Y26670
X52070Y29210
X52070Y31750
X37465Y47625
X34925Y47625
X67310Y46990
X64770Y46990
X54610Y31750
X54610Y29210
X31750Y15240
X41910Y15240
X44450Y24130
X74295Y35560
X76835Y35560
X79375Y35560
X81915Y35560
X84455Y35560
X86995Y35560
X89535Y35560
X92075Y35560
X92075Y43180
X89535Y43180
X86995Y43180
X84455Y43180
X81915Y43180
X79375Y43180
X76835Y43180
X74295Y43180
X76835Y24130
X79375Y24130
X92075Y24130
X92075Y31750
X81915Y24130
X84455Y24130
X89535Y24130
X86995Y24130
X89535Y31750
X86995Y31750
X84455Y31750
X81915Y31750
X79375Y31750
X76835Y31750
X74295Y31750
X74295Y29210
X71755Y43180
X71755Y40640
X32385Y22860
X37465Y22860
X45720Y50800
X50800Y50800
X78740Y47625
X86360Y47625
X81280Y50165
X88900Y50165
X59690Y44450
X59690Y41910
X59690Y29210
X59690Y26670
T10
X22384Y14922
X28099Y20003
X36830Y17145
X30004Y12541
X34131Y32544
X34608Y17939
X39370Y13176
X26352Y26670
X37783Y18891
X38100Y9843
X34925Y37783
X35878Y14446
X40799Y10001
X20955Y17463
X33338Y45561
X35084Y16351
X41116Y12065
X64135Y26670
X55404Y21907
X64770Y19368
X56515Y18098
X55404Y9525
X58261Y35243
X48736Y25082
X50959Y9843
X47149Y35560
X47149Y21590
X59055Y22701
X46355Y36354
X47307Y9843
X62389Y35243
X40005Y34290
X75406Y46672
X33655Y48736
X64770Y9684
X49689Y31750
X50006Y13970
X42386Y30480
X65564Y25717
X56039Y20955
X53816Y9525
X63182Y13811
X53022Y12541
X57309Y11747
X48577Y11112
X49689Y9525
X61912Y15240
X47625Y15240
X56674Y34290
X55721Y26829
X50641Y25241
X63182Y22225
X61277Y38576
X43180Y37941
X48736Y35560
X46831Y56674
X47466Y19526
X27781Y56674
X70009Y49530
X69691Y26670
X29210Y16986
X33973Y18891
X33338Y43180
X76835Y41275
X32226Y9525
X32544Y46355
X80963Y46355
X38418Y62389
X61119Y9684
X60960Y28099
X20161Y71120
X46037Y15240
X43815Y20320
X38894Y49530
X40799Y30797
X26670Y9525
X33973Y14287
X79375Y37624
X58579Y19368
X49212Y12700
X70803Y37783
X40323Y41593
M30