G04 EAGLE Gerber RS-274X export*
G75*
%MOMM*%
%FSLAX34Y34*%
%LPD*%
%INSilkscreen Bottom*%
%IPPOS*%
%AMOC8*
5,1,8,0,0,1.08239X$1,22.5*%
G01*
%ADD10C,0.101600*%
%ADD11C,0.152400*%
%ADD12C,0.127000*%


D10*
X238843Y97028D02*
X246639Y97028D01*
X238843Y104824D01*
X238843Y106773D01*
X240792Y108722D01*
X244690Y108722D01*
X246639Y106773D01*
X729239Y108722D02*
X729239Y97028D01*
X735086Y102875D02*
X729239Y108722D01*
X727290Y102875D02*
X735086Y102875D01*
X723392Y98977D02*
X723392Y106773D01*
X721443Y108722D01*
X717545Y108722D01*
X715596Y106773D01*
X715596Y98977D01*
X717545Y97028D01*
X721443Y97028D01*
X723392Y98977D01*
X715596Y106773D01*
D11*
X767080Y295910D02*
X795020Y295910D01*
X797560Y278130D02*
X797558Y278030D01*
X797552Y277931D01*
X797542Y277831D01*
X797529Y277733D01*
X797511Y277634D01*
X797490Y277537D01*
X797465Y277441D01*
X797436Y277345D01*
X797403Y277251D01*
X797367Y277158D01*
X797327Y277067D01*
X797283Y276977D01*
X797236Y276889D01*
X797186Y276803D01*
X797132Y276719D01*
X797075Y276637D01*
X797015Y276558D01*
X796951Y276480D01*
X796885Y276406D01*
X796816Y276334D01*
X796744Y276265D01*
X796670Y276199D01*
X796592Y276135D01*
X796513Y276075D01*
X796431Y276018D01*
X796347Y275964D01*
X796261Y275914D01*
X796173Y275867D01*
X796083Y275823D01*
X795992Y275783D01*
X795899Y275747D01*
X795805Y275714D01*
X795709Y275685D01*
X795613Y275660D01*
X795516Y275639D01*
X795417Y275621D01*
X795319Y275608D01*
X795219Y275598D01*
X795120Y275592D01*
X795020Y275590D01*
X767080Y275590D02*
X766980Y275592D01*
X766881Y275598D01*
X766781Y275608D01*
X766683Y275621D01*
X766584Y275639D01*
X766487Y275660D01*
X766391Y275685D01*
X766295Y275714D01*
X766201Y275747D01*
X766108Y275783D01*
X766017Y275823D01*
X765927Y275867D01*
X765839Y275914D01*
X765753Y275964D01*
X765669Y276018D01*
X765587Y276075D01*
X765508Y276135D01*
X765430Y276199D01*
X765356Y276265D01*
X765284Y276334D01*
X765215Y276406D01*
X765149Y276480D01*
X765085Y276558D01*
X765025Y276637D01*
X764968Y276719D01*
X764914Y276803D01*
X764864Y276889D01*
X764817Y276977D01*
X764773Y277067D01*
X764733Y277158D01*
X764697Y277251D01*
X764664Y277345D01*
X764635Y277441D01*
X764610Y277537D01*
X764589Y277634D01*
X764571Y277733D01*
X764558Y277831D01*
X764548Y277931D01*
X764542Y278030D01*
X764540Y278130D01*
X764540Y293370D02*
X764542Y293470D01*
X764548Y293569D01*
X764558Y293669D01*
X764571Y293767D01*
X764589Y293866D01*
X764610Y293963D01*
X764635Y294059D01*
X764664Y294155D01*
X764697Y294249D01*
X764733Y294342D01*
X764773Y294433D01*
X764817Y294523D01*
X764864Y294611D01*
X764914Y294697D01*
X764968Y294781D01*
X765025Y294863D01*
X765085Y294942D01*
X765149Y295020D01*
X765215Y295094D01*
X765284Y295166D01*
X765356Y295235D01*
X765430Y295301D01*
X765508Y295365D01*
X765587Y295425D01*
X765669Y295482D01*
X765753Y295536D01*
X765839Y295586D01*
X765927Y295633D01*
X766017Y295677D01*
X766108Y295717D01*
X766201Y295753D01*
X766295Y295786D01*
X766391Y295815D01*
X766487Y295840D01*
X766584Y295861D01*
X766683Y295879D01*
X766781Y295892D01*
X766881Y295902D01*
X766980Y295908D01*
X767080Y295910D01*
X795020Y295910D02*
X795120Y295908D01*
X795219Y295902D01*
X795319Y295892D01*
X795417Y295879D01*
X795516Y295861D01*
X795613Y295840D01*
X795709Y295815D01*
X795805Y295786D01*
X795899Y295753D01*
X795992Y295717D01*
X796083Y295677D01*
X796173Y295633D01*
X796261Y295586D01*
X796347Y295536D01*
X796431Y295482D01*
X796513Y295425D01*
X796592Y295365D01*
X796670Y295301D01*
X796744Y295235D01*
X796816Y295166D01*
X796885Y295094D01*
X796951Y295020D01*
X797015Y294942D01*
X797075Y294863D01*
X797132Y294781D01*
X797186Y294697D01*
X797236Y294611D01*
X797283Y294523D01*
X797327Y294433D01*
X797367Y294342D01*
X797403Y294249D01*
X797436Y294155D01*
X797465Y294059D01*
X797490Y293963D01*
X797511Y293866D01*
X797529Y293767D01*
X797542Y293669D01*
X797552Y293569D01*
X797558Y293470D01*
X797560Y293370D01*
X797560Y278130D01*
X764540Y278130D02*
X764540Y293370D01*
X767080Y275590D02*
X795020Y275590D01*
D12*
X793267Y273695D02*
X791360Y271788D01*
X793267Y273695D02*
X797080Y273695D01*
X798987Y271788D01*
X798987Y269882D01*
X797080Y267975D01*
X793267Y267975D01*
X791360Y266068D01*
X791360Y264162D01*
X793267Y262255D01*
X797080Y262255D01*
X798987Y264162D01*
X787293Y264162D02*
X785386Y262255D01*
X783480Y262255D01*
X781573Y264162D01*
X781573Y273695D01*
X779667Y273695D02*
X783480Y273695D01*
X775599Y262255D02*
X767973Y262255D01*
X775599Y262255D02*
X767973Y269882D01*
X767973Y271788D01*
X769879Y273695D01*
X773692Y273695D01*
X775599Y271788D01*
D11*
X808990Y271780D02*
X808990Y299720D01*
X826770Y302260D02*
X826870Y302258D01*
X826969Y302252D01*
X827069Y302242D01*
X827167Y302229D01*
X827266Y302211D01*
X827363Y302190D01*
X827459Y302165D01*
X827555Y302136D01*
X827649Y302103D01*
X827742Y302067D01*
X827833Y302027D01*
X827923Y301983D01*
X828011Y301936D01*
X828097Y301886D01*
X828181Y301832D01*
X828263Y301775D01*
X828342Y301715D01*
X828420Y301651D01*
X828494Y301585D01*
X828566Y301516D01*
X828635Y301444D01*
X828701Y301370D01*
X828765Y301292D01*
X828825Y301213D01*
X828882Y301131D01*
X828936Y301047D01*
X828986Y300961D01*
X829033Y300873D01*
X829077Y300783D01*
X829117Y300692D01*
X829153Y300599D01*
X829186Y300505D01*
X829215Y300409D01*
X829240Y300313D01*
X829261Y300216D01*
X829279Y300117D01*
X829292Y300019D01*
X829302Y299919D01*
X829308Y299820D01*
X829310Y299720D01*
X829310Y271780D02*
X829308Y271680D01*
X829302Y271581D01*
X829292Y271481D01*
X829279Y271383D01*
X829261Y271284D01*
X829240Y271187D01*
X829215Y271091D01*
X829186Y270995D01*
X829153Y270901D01*
X829117Y270808D01*
X829077Y270717D01*
X829033Y270627D01*
X828986Y270539D01*
X828936Y270453D01*
X828882Y270369D01*
X828825Y270287D01*
X828765Y270208D01*
X828701Y270130D01*
X828635Y270056D01*
X828566Y269984D01*
X828494Y269915D01*
X828420Y269849D01*
X828342Y269785D01*
X828263Y269725D01*
X828181Y269668D01*
X828097Y269614D01*
X828011Y269564D01*
X827923Y269517D01*
X827833Y269473D01*
X827742Y269433D01*
X827649Y269397D01*
X827555Y269364D01*
X827459Y269335D01*
X827363Y269310D01*
X827266Y269289D01*
X827167Y269271D01*
X827069Y269258D01*
X826969Y269248D01*
X826870Y269242D01*
X826770Y269240D01*
X811530Y269240D02*
X811430Y269242D01*
X811331Y269248D01*
X811231Y269258D01*
X811133Y269271D01*
X811034Y269289D01*
X810937Y269310D01*
X810841Y269335D01*
X810745Y269364D01*
X810651Y269397D01*
X810558Y269433D01*
X810467Y269473D01*
X810377Y269517D01*
X810289Y269564D01*
X810203Y269614D01*
X810119Y269668D01*
X810037Y269725D01*
X809958Y269785D01*
X809880Y269849D01*
X809806Y269915D01*
X809734Y269984D01*
X809665Y270056D01*
X809599Y270130D01*
X809535Y270208D01*
X809475Y270287D01*
X809418Y270369D01*
X809364Y270453D01*
X809314Y270539D01*
X809267Y270627D01*
X809223Y270717D01*
X809183Y270808D01*
X809147Y270901D01*
X809114Y270995D01*
X809085Y271091D01*
X809060Y271187D01*
X809039Y271284D01*
X809021Y271383D01*
X809008Y271481D01*
X808998Y271581D01*
X808992Y271680D01*
X808990Y271780D01*
X808990Y299720D02*
X808992Y299820D01*
X808998Y299919D01*
X809008Y300019D01*
X809021Y300117D01*
X809039Y300216D01*
X809060Y300313D01*
X809085Y300409D01*
X809114Y300505D01*
X809147Y300599D01*
X809183Y300692D01*
X809223Y300783D01*
X809267Y300873D01*
X809314Y300961D01*
X809364Y301047D01*
X809418Y301131D01*
X809475Y301213D01*
X809535Y301292D01*
X809599Y301370D01*
X809665Y301444D01*
X809734Y301516D01*
X809806Y301585D01*
X809880Y301651D01*
X809958Y301715D01*
X810037Y301775D01*
X810119Y301832D01*
X810203Y301886D01*
X810289Y301936D01*
X810377Y301983D01*
X810467Y302027D01*
X810558Y302067D01*
X810651Y302103D01*
X810745Y302136D01*
X810841Y302165D01*
X810937Y302190D01*
X811034Y302211D01*
X811133Y302229D01*
X811231Y302242D01*
X811331Y302252D01*
X811430Y302258D01*
X811530Y302260D01*
X826770Y302260D01*
X826770Y269240D02*
X811530Y269240D01*
X829310Y271780D02*
X829310Y299720D01*
D12*
X840748Y277502D02*
X842655Y275595D01*
X842655Y271782D01*
X840748Y269875D01*
X838842Y269875D01*
X836935Y271782D01*
X836935Y275595D01*
X835028Y277502D01*
X833122Y277502D01*
X831215Y275595D01*
X831215Y271782D01*
X833122Y269875D01*
X833122Y281569D02*
X831215Y283476D01*
X831215Y285382D01*
X833122Y287289D01*
X842655Y287289D01*
X842655Y289195D02*
X842655Y285382D01*
X838842Y293263D02*
X842655Y297076D01*
X831215Y297076D01*
X831215Y293263D02*
X831215Y300889D01*
D11*
X859790Y299720D02*
X859790Y271780D01*
X880110Y299720D02*
X880108Y299820D01*
X880102Y299919D01*
X880092Y300019D01*
X880079Y300117D01*
X880061Y300216D01*
X880040Y300313D01*
X880015Y300409D01*
X879986Y300505D01*
X879953Y300599D01*
X879917Y300692D01*
X879877Y300783D01*
X879833Y300873D01*
X879786Y300961D01*
X879736Y301047D01*
X879682Y301131D01*
X879625Y301213D01*
X879565Y301292D01*
X879501Y301370D01*
X879435Y301444D01*
X879366Y301516D01*
X879294Y301585D01*
X879220Y301651D01*
X879142Y301715D01*
X879063Y301775D01*
X878981Y301832D01*
X878897Y301886D01*
X878811Y301936D01*
X878723Y301983D01*
X878633Y302027D01*
X878542Y302067D01*
X878449Y302103D01*
X878355Y302136D01*
X878259Y302165D01*
X878163Y302190D01*
X878066Y302211D01*
X877967Y302229D01*
X877869Y302242D01*
X877769Y302252D01*
X877670Y302258D01*
X877570Y302260D01*
X880110Y271780D02*
X880108Y271680D01*
X880102Y271581D01*
X880092Y271481D01*
X880079Y271383D01*
X880061Y271284D01*
X880040Y271187D01*
X880015Y271091D01*
X879986Y270995D01*
X879953Y270901D01*
X879917Y270808D01*
X879877Y270717D01*
X879833Y270627D01*
X879786Y270539D01*
X879736Y270453D01*
X879682Y270369D01*
X879625Y270287D01*
X879565Y270208D01*
X879501Y270130D01*
X879435Y270056D01*
X879366Y269984D01*
X879294Y269915D01*
X879220Y269849D01*
X879142Y269785D01*
X879063Y269725D01*
X878981Y269668D01*
X878897Y269614D01*
X878811Y269564D01*
X878723Y269517D01*
X878633Y269473D01*
X878542Y269433D01*
X878449Y269397D01*
X878355Y269364D01*
X878259Y269335D01*
X878163Y269310D01*
X878066Y269289D01*
X877967Y269271D01*
X877869Y269258D01*
X877769Y269248D01*
X877670Y269242D01*
X877570Y269240D01*
X862330Y269240D02*
X862230Y269242D01*
X862131Y269248D01*
X862031Y269258D01*
X861933Y269271D01*
X861834Y269289D01*
X861737Y269310D01*
X861641Y269335D01*
X861545Y269364D01*
X861451Y269397D01*
X861358Y269433D01*
X861267Y269473D01*
X861177Y269517D01*
X861089Y269564D01*
X861003Y269614D01*
X860919Y269668D01*
X860837Y269725D01*
X860758Y269785D01*
X860680Y269849D01*
X860606Y269915D01*
X860534Y269984D01*
X860465Y270056D01*
X860399Y270130D01*
X860335Y270208D01*
X860275Y270287D01*
X860218Y270369D01*
X860164Y270453D01*
X860114Y270539D01*
X860067Y270627D01*
X860023Y270717D01*
X859983Y270808D01*
X859947Y270901D01*
X859914Y270995D01*
X859885Y271091D01*
X859860Y271187D01*
X859839Y271284D01*
X859821Y271383D01*
X859808Y271481D01*
X859798Y271581D01*
X859792Y271680D01*
X859790Y271780D01*
X859790Y299720D02*
X859792Y299820D01*
X859798Y299919D01*
X859808Y300019D01*
X859821Y300117D01*
X859839Y300216D01*
X859860Y300313D01*
X859885Y300409D01*
X859914Y300505D01*
X859947Y300599D01*
X859983Y300692D01*
X860023Y300783D01*
X860067Y300873D01*
X860114Y300961D01*
X860164Y301047D01*
X860218Y301131D01*
X860275Y301213D01*
X860335Y301292D01*
X860399Y301370D01*
X860465Y301444D01*
X860534Y301516D01*
X860606Y301585D01*
X860680Y301651D01*
X860758Y301715D01*
X860837Y301775D01*
X860919Y301832D01*
X861003Y301886D01*
X861089Y301936D01*
X861177Y301983D01*
X861267Y302027D01*
X861358Y302067D01*
X861451Y302103D01*
X861545Y302136D01*
X861641Y302165D01*
X861737Y302190D01*
X861834Y302211D01*
X861933Y302229D01*
X862031Y302242D01*
X862131Y302252D01*
X862230Y302258D01*
X862330Y302260D01*
X877570Y302260D01*
X877570Y269240D02*
X862330Y269240D01*
X880110Y271780D02*
X880110Y299720D01*
D12*
X891548Y277502D02*
X893455Y275595D01*
X893455Y271782D01*
X891548Y269875D01*
X889642Y269875D01*
X887735Y271782D01*
X887735Y275595D01*
X885828Y277502D01*
X883922Y277502D01*
X882015Y275595D01*
X882015Y271782D01*
X883922Y269875D01*
X883922Y281569D02*
X882015Y283476D01*
X882015Y285382D01*
X883922Y287289D01*
X893455Y287289D01*
X893455Y289195D02*
X893455Y285382D01*
X891548Y293263D02*
X893455Y295170D01*
X893455Y298983D01*
X891548Y300889D01*
X889642Y300889D01*
X887735Y298983D01*
X887735Y297076D01*
X887735Y298983D02*
X885828Y300889D01*
X883922Y300889D01*
X882015Y298983D01*
X882015Y295170D01*
X883922Y293263D01*
D11*
X885190Y299720D02*
X885190Y271780D01*
X905510Y299720D02*
X905508Y299820D01*
X905502Y299919D01*
X905492Y300019D01*
X905479Y300117D01*
X905461Y300216D01*
X905440Y300313D01*
X905415Y300409D01*
X905386Y300505D01*
X905353Y300599D01*
X905317Y300692D01*
X905277Y300783D01*
X905233Y300873D01*
X905186Y300961D01*
X905136Y301047D01*
X905082Y301131D01*
X905025Y301213D01*
X904965Y301292D01*
X904901Y301370D01*
X904835Y301444D01*
X904766Y301516D01*
X904694Y301585D01*
X904620Y301651D01*
X904542Y301715D01*
X904463Y301775D01*
X904381Y301832D01*
X904297Y301886D01*
X904211Y301936D01*
X904123Y301983D01*
X904033Y302027D01*
X903942Y302067D01*
X903849Y302103D01*
X903755Y302136D01*
X903659Y302165D01*
X903563Y302190D01*
X903466Y302211D01*
X903367Y302229D01*
X903269Y302242D01*
X903169Y302252D01*
X903070Y302258D01*
X902970Y302260D01*
X905510Y271780D02*
X905508Y271680D01*
X905502Y271581D01*
X905492Y271481D01*
X905479Y271383D01*
X905461Y271284D01*
X905440Y271187D01*
X905415Y271091D01*
X905386Y270995D01*
X905353Y270901D01*
X905317Y270808D01*
X905277Y270717D01*
X905233Y270627D01*
X905186Y270539D01*
X905136Y270453D01*
X905082Y270369D01*
X905025Y270287D01*
X904965Y270208D01*
X904901Y270130D01*
X904835Y270056D01*
X904766Y269984D01*
X904694Y269915D01*
X904620Y269849D01*
X904542Y269785D01*
X904463Y269725D01*
X904381Y269668D01*
X904297Y269614D01*
X904211Y269564D01*
X904123Y269517D01*
X904033Y269473D01*
X903942Y269433D01*
X903849Y269397D01*
X903755Y269364D01*
X903659Y269335D01*
X903563Y269310D01*
X903466Y269289D01*
X903367Y269271D01*
X903269Y269258D01*
X903169Y269248D01*
X903070Y269242D01*
X902970Y269240D01*
X887730Y269240D02*
X887630Y269242D01*
X887531Y269248D01*
X887431Y269258D01*
X887333Y269271D01*
X887234Y269289D01*
X887137Y269310D01*
X887041Y269335D01*
X886945Y269364D01*
X886851Y269397D01*
X886758Y269433D01*
X886667Y269473D01*
X886577Y269517D01*
X886489Y269564D01*
X886403Y269614D01*
X886319Y269668D01*
X886237Y269725D01*
X886158Y269785D01*
X886080Y269849D01*
X886006Y269915D01*
X885934Y269984D01*
X885865Y270056D01*
X885799Y270130D01*
X885735Y270208D01*
X885675Y270287D01*
X885618Y270369D01*
X885564Y270453D01*
X885514Y270539D01*
X885467Y270627D01*
X885423Y270717D01*
X885383Y270808D01*
X885347Y270901D01*
X885314Y270995D01*
X885285Y271091D01*
X885260Y271187D01*
X885239Y271284D01*
X885221Y271383D01*
X885208Y271481D01*
X885198Y271581D01*
X885192Y271680D01*
X885190Y271780D01*
X885190Y299720D02*
X885192Y299820D01*
X885198Y299919D01*
X885208Y300019D01*
X885221Y300117D01*
X885239Y300216D01*
X885260Y300313D01*
X885285Y300409D01*
X885314Y300505D01*
X885347Y300599D01*
X885383Y300692D01*
X885423Y300783D01*
X885467Y300873D01*
X885514Y300961D01*
X885564Y301047D01*
X885618Y301131D01*
X885675Y301213D01*
X885735Y301292D01*
X885799Y301370D01*
X885865Y301444D01*
X885934Y301516D01*
X886006Y301585D01*
X886080Y301651D01*
X886158Y301715D01*
X886237Y301775D01*
X886319Y301832D01*
X886403Y301886D01*
X886489Y301936D01*
X886577Y301983D01*
X886667Y302027D01*
X886758Y302067D01*
X886851Y302103D01*
X886945Y302136D01*
X887041Y302165D01*
X887137Y302190D01*
X887234Y302211D01*
X887333Y302229D01*
X887431Y302242D01*
X887531Y302252D01*
X887630Y302258D01*
X887730Y302260D01*
X902970Y302260D01*
X902970Y269240D02*
X887730Y269240D01*
X905510Y271780D02*
X905510Y299720D01*
D12*
X916948Y277502D02*
X918855Y275595D01*
X918855Y271782D01*
X916948Y269875D01*
X915042Y269875D01*
X913135Y271782D01*
X913135Y275595D01*
X911228Y277502D01*
X909322Y277502D01*
X907415Y275595D01*
X907415Y271782D01*
X909322Y269875D01*
X909322Y281569D02*
X907415Y283476D01*
X907415Y285382D01*
X909322Y287289D01*
X918855Y287289D01*
X918855Y289195D02*
X918855Y285382D01*
X918855Y298983D02*
X907415Y298983D01*
X913135Y293263D02*
X918855Y298983D01*
X913135Y300889D02*
X913135Y293263D01*
M02*
