G04 EAGLE Gerber RS-274X export*
G75*
%MOMM*%
%FSLAX34Y34*%
%LPD*%
%INSilkscreen Top*%
%IPPOS*%
%AMOC8*
5,1,8,0,0,1.08239X$1,22.5*%
G01*
%ADD10C,0.076200*%
%ADD11C,0.152400*%
%ADD12C,0.101600*%
%ADD13C,1.270000*%
%ADD14C,0.127000*%
%ADD15C,0.177800*%
%ADD16R,0.508000X1.870000*%
%ADD17R,0.635000X0.850000*%
%ADD18C,0.254000*%
%ADD19C,0.304800*%
%ADD20R,0.381000X0.508000*%
%ADD21C,0.050800*%
%ADD22R,0.355600X0.609600*%


D10*
X755952Y210149D02*
X754384Y211717D01*
X751249Y211717D01*
X749681Y210149D01*
X749681Y203879D01*
X751249Y202311D01*
X754384Y202311D01*
X755952Y203879D01*
X760604Y202311D02*
X763739Y202311D01*
X765307Y203879D01*
X765307Y207014D01*
X763739Y208582D01*
X760604Y208582D01*
X759036Y207014D01*
X759036Y203879D01*
X760604Y202311D01*
X769959Y208582D02*
X774662Y208582D01*
X769959Y208582D02*
X768391Y207014D01*
X768391Y203879D01*
X769959Y202311D01*
X774662Y202311D01*
X779314Y202311D02*
X782450Y202311D01*
X784017Y203879D01*
X784017Y207014D01*
X782450Y208582D01*
X779314Y208582D01*
X777747Y207014D01*
X777747Y203879D01*
X779314Y202311D01*
X796457Y202311D02*
X796457Y211717D01*
X801160Y211717D01*
X802728Y210149D01*
X802728Y207014D01*
X801160Y205446D01*
X796457Y205446D01*
X805812Y208582D02*
X807380Y208582D01*
X807380Y202311D01*
X808947Y202311D02*
X805812Y202311D01*
X807380Y211717D02*
X807380Y213285D01*
X813617Y208582D02*
X818320Y208582D01*
X813617Y208582D02*
X812049Y207014D01*
X812049Y203879D01*
X813617Y202311D01*
X818320Y202311D01*
X822972Y202311D02*
X826107Y202311D01*
X827675Y203879D01*
X827675Y207014D01*
X826107Y208582D01*
X822972Y208582D01*
X821404Y207014D01*
X821404Y203879D01*
X822972Y202311D01*
X840114Y205446D02*
X840114Y211717D01*
X840114Y205446D02*
X843250Y202311D01*
X846385Y205446D01*
X846385Y211717D01*
X849470Y208582D02*
X851037Y208582D01*
X851037Y202311D01*
X849470Y202311D02*
X852605Y202311D01*
X851037Y211717D02*
X851037Y213285D01*
X861977Y211717D02*
X861977Y202311D01*
X857274Y202311D01*
X855706Y203879D01*
X855706Y207014D01*
X857274Y208582D01*
X861977Y208582D01*
X866629Y202311D02*
X869765Y202311D01*
X866629Y202311D02*
X865062Y203879D01*
X865062Y207014D01*
X866629Y208582D01*
X869765Y208582D01*
X871332Y207014D01*
X871332Y205446D01*
X865062Y205446D01*
X875984Y202311D02*
X879120Y202311D01*
X880688Y203879D01*
X880688Y207014D01*
X879120Y208582D01*
X875984Y208582D01*
X874417Y207014D01*
X874417Y203879D01*
X875984Y202311D01*
X885340Y208582D02*
X890043Y208582D01*
X885340Y208582D02*
X883772Y207014D01*
X883772Y203879D01*
X885340Y202311D01*
X890043Y202311D01*
X894695Y208582D02*
X897830Y208582D01*
X899398Y207014D01*
X899398Y202311D01*
X894695Y202311D01*
X893127Y203879D01*
X894695Y205446D01*
X899398Y205446D01*
X902482Y202311D02*
X902482Y208582D01*
X902482Y205446D02*
X905618Y208582D01*
X907185Y208582D01*
X911846Y210149D02*
X911846Y203879D01*
X913414Y202311D01*
X913414Y208582D02*
X910278Y208582D01*
X925870Y208582D02*
X929006Y202311D01*
X932141Y208582D01*
X935226Y210149D02*
X935226Y203879D01*
X935226Y210149D02*
X936793Y211717D01*
X939929Y211717D01*
X941496Y210149D01*
X941496Y203879D01*
X939929Y202311D01*
X936793Y202311D01*
X935226Y203879D01*
X941496Y210149D01*
X944581Y203879D02*
X944581Y202311D01*
X944581Y203879D02*
X946148Y203879D01*
X946148Y202311D01*
X944581Y202311D01*
X949258Y210149D02*
X950826Y211717D01*
X953961Y211717D01*
X955529Y210149D01*
X955529Y208582D01*
X953961Y207014D01*
X952394Y207014D01*
X953961Y207014D02*
X955529Y205446D01*
X955529Y203879D01*
X953961Y202311D01*
X950826Y202311D01*
X949258Y203879D01*
X755952Y194909D02*
X754384Y196477D01*
X751249Y196477D01*
X749681Y194909D01*
X749681Y193342D01*
X751249Y191774D01*
X754384Y191774D01*
X755952Y190206D01*
X755952Y188639D01*
X754384Y187071D01*
X751249Y187071D01*
X749681Y188639D01*
X760604Y193342D02*
X765307Y193342D01*
X760604Y193342D02*
X759036Y191774D01*
X759036Y188639D01*
X760604Y187071D01*
X765307Y187071D01*
X769959Y187071D02*
X773094Y187071D01*
X774662Y188639D01*
X774662Y191774D01*
X773094Y193342D01*
X769959Y193342D01*
X768391Y191774D01*
X768391Y188639D01*
X769959Y187071D01*
X779314Y188639D02*
X779314Y194909D01*
X779314Y188639D02*
X780882Y187071D01*
X780882Y193342D02*
X777747Y193342D01*
X785551Y194909D02*
X785551Y188639D01*
X787119Y187071D01*
X787119Y193342D02*
X783983Y193342D01*
X799575Y196477D02*
X799575Y187071D01*
X799575Y196477D02*
X804278Y196477D01*
X805846Y194909D01*
X805846Y193342D01*
X804278Y191774D01*
X805846Y190206D01*
X805846Y188639D01*
X804278Y187071D01*
X799575Y187071D01*
X799575Y191774D02*
X804278Y191774D01*
X810498Y193342D02*
X813634Y193342D01*
X815201Y191774D01*
X815201Y187071D01*
X810498Y187071D01*
X808931Y188639D01*
X810498Y190206D01*
X815201Y190206D01*
X818286Y187071D02*
X818286Y196477D01*
X818286Y190206D02*
X822989Y187071D01*
X818286Y190206D02*
X822989Y193342D01*
X827649Y187071D02*
X830785Y187071D01*
X827649Y187071D02*
X826082Y188639D01*
X826082Y191774D01*
X827649Y193342D01*
X830785Y193342D01*
X832352Y191774D01*
X832352Y190206D01*
X826082Y190206D01*
X835437Y187071D02*
X835437Y193342D01*
X838572Y193342D02*
X835437Y190206D01*
X838572Y193342D02*
X840140Y193342D01*
X846368Y187071D02*
X843233Y183936D01*
X846368Y187071D02*
X846368Y188639D01*
X844800Y188639D01*
X844800Y187071D01*
X846368Y187071D01*
X749681Y181237D02*
X749681Y171831D01*
X749681Y176534D02*
X751249Y178102D01*
X754384Y178102D01*
X755952Y176534D01*
X755952Y171831D01*
X760604Y173399D02*
X760604Y179669D01*
X760604Y173399D02*
X762172Y171831D01*
X762172Y178102D02*
X759036Y178102D01*
X766841Y179669D02*
X766841Y173399D01*
X768408Y171831D01*
X768408Y178102D02*
X765273Y178102D01*
X771510Y178102D02*
X771510Y168696D01*
X771510Y178102D02*
X776213Y178102D01*
X777780Y176534D01*
X777780Y173399D01*
X776213Y171831D01*
X771510Y171831D01*
X780865Y178102D02*
X782433Y178102D01*
X782433Y176534D01*
X780865Y176534D01*
X780865Y178102D01*
X780865Y173399D02*
X782433Y173399D01*
X782433Y171831D01*
X780865Y171831D01*
X780865Y173399D01*
X785543Y171831D02*
X791813Y181237D01*
X801168Y181237D02*
X794898Y171831D01*
X804253Y173399D02*
X804253Y178102D01*
X804253Y173399D02*
X805821Y171831D01*
X807388Y173399D01*
X808956Y171831D01*
X810524Y173399D01*
X810524Y178102D01*
X813608Y178102D02*
X813608Y173399D01*
X815176Y171831D01*
X816743Y173399D01*
X818311Y171831D01*
X819879Y173399D01*
X819879Y178102D01*
X822963Y178102D02*
X822963Y173399D01*
X824531Y171831D01*
X826099Y173399D01*
X827666Y171831D01*
X829234Y173399D01*
X829234Y178102D01*
X832318Y173399D02*
X832318Y171831D01*
X832318Y173399D02*
X833886Y173399D01*
X833886Y171831D01*
X832318Y171831D01*
X836996Y171831D02*
X841699Y171831D01*
X843267Y173399D01*
X841699Y174966D01*
X838564Y174966D01*
X836996Y176534D01*
X838564Y178102D01*
X843267Y178102D01*
X846351Y178102D02*
X846351Y171831D01*
X846351Y178102D02*
X847919Y178102D01*
X849487Y176534D01*
X849487Y171831D01*
X849487Y176534D02*
X851054Y178102D01*
X852622Y176534D01*
X852622Y171831D01*
X855706Y171831D02*
X855706Y181237D01*
X855706Y171831D02*
X860409Y171831D01*
X861977Y173399D01*
X861977Y176534D01*
X860409Y178102D01*
X855706Y178102D01*
X866629Y178102D02*
X869765Y178102D01*
X871332Y176534D01*
X871332Y171831D01*
X866629Y171831D01*
X865062Y173399D01*
X866629Y174966D01*
X871332Y174966D01*
X874417Y171831D02*
X874417Y181237D01*
X874417Y174966D02*
X879120Y171831D01*
X874417Y174966D02*
X879120Y178102D01*
X883780Y171831D02*
X886916Y171831D01*
X883780Y171831D02*
X882213Y173399D01*
X882213Y176534D01*
X883780Y178102D01*
X886916Y178102D01*
X888483Y176534D01*
X888483Y174966D01*
X882213Y174966D01*
X891568Y171831D02*
X891568Y178102D01*
X894703Y178102D02*
X891568Y174966D01*
X894703Y178102D02*
X896271Y178102D01*
X899364Y173399D02*
X899364Y171831D01*
X899364Y173399D02*
X900932Y173399D01*
X900932Y171831D01*
X899364Y171831D01*
X905609Y178102D02*
X910312Y178102D01*
X905609Y178102D02*
X904042Y176534D01*
X904042Y173399D01*
X905609Y171831D01*
X910312Y171831D01*
X914964Y171831D02*
X918100Y171831D01*
X919667Y173399D01*
X919667Y176534D01*
X918100Y178102D01*
X914964Y178102D01*
X913397Y176534D01*
X913397Y173399D01*
X914964Y171831D01*
X922752Y171831D02*
X922752Y178102D01*
X924320Y178102D01*
X925887Y176534D01*
X925887Y171831D01*
X925887Y176534D02*
X927455Y178102D01*
X929023Y176534D01*
X929023Y171831D01*
X932107Y171831D02*
X938378Y181237D01*
D11*
X412750Y565150D02*
X412750Y819150D01*
X412750Y565150D02*
X692150Y565150D01*
X692150Y819150D01*
X412750Y819150D01*
X298450Y533400D02*
X952500Y533400D01*
D12*
X239859Y108722D02*
X235961Y104824D01*
X239859Y108722D02*
X239859Y97028D01*
X235961Y97028D02*
X243757Y97028D01*
X712714Y106773D02*
X714663Y108722D01*
X718561Y108722D01*
X720510Y106773D01*
X720510Y104824D01*
X718561Y102875D01*
X716612Y102875D01*
X718561Y102875D02*
X720510Y100926D01*
X720510Y98977D01*
X718561Y97028D01*
X714663Y97028D01*
X712714Y98977D01*
X724408Y98977D02*
X726357Y97028D01*
X730255Y97028D01*
X732204Y98977D01*
X732204Y106773D01*
X730255Y108722D01*
X726357Y108722D01*
X724408Y106773D01*
X724408Y104824D01*
X726357Y102875D01*
X732204Y102875D01*
D11*
X28350Y716200D02*
X28350Y724900D01*
X28350Y706200D02*
X28350Y690800D01*
X28350Y680800D02*
X28350Y665400D01*
X28350Y655400D02*
X28350Y640000D01*
X28350Y630000D02*
X28350Y614600D01*
X28350Y604600D02*
X28350Y589200D01*
X28350Y579200D02*
X28350Y563800D01*
X28350Y553800D02*
X28350Y538400D01*
X28350Y528400D02*
X28350Y513000D01*
X28350Y503000D02*
X28350Y487600D01*
X28350Y477600D02*
X28350Y462200D01*
X28350Y452200D02*
X28350Y436800D01*
X28350Y426800D02*
X28350Y411400D01*
X28350Y401400D02*
X28350Y386000D01*
X28350Y376000D02*
X28350Y360600D01*
X28350Y350600D02*
X28350Y335200D01*
X28350Y325200D02*
X28350Y309800D01*
X28350Y299800D02*
X28350Y284400D01*
X28350Y274400D02*
X28350Y259000D01*
X28350Y249000D02*
X28350Y233600D01*
X28350Y223600D02*
X28350Y214900D01*
X238350Y214900D02*
X238350Y223600D01*
X238350Y233600D02*
X238350Y249000D01*
X238350Y259000D02*
X238350Y274400D01*
X238350Y284400D02*
X238350Y299800D01*
X238350Y309800D02*
X238350Y325200D01*
X238350Y335200D02*
X238350Y350600D01*
X238350Y360600D02*
X238350Y376000D01*
X238350Y386000D02*
X238350Y401400D01*
X238350Y411400D02*
X238350Y426800D01*
X238350Y436800D02*
X238350Y452200D01*
X238350Y462200D02*
X238350Y477600D01*
X238350Y487600D02*
X238350Y503000D01*
X238350Y513000D02*
X238350Y528400D01*
X238350Y538400D02*
X238350Y553800D01*
X238350Y563800D02*
X238350Y579200D01*
X238350Y589200D02*
X238350Y604600D01*
X238350Y614600D02*
X238350Y630000D01*
X238350Y640000D02*
X238350Y655400D01*
X238350Y665400D02*
X238350Y680800D01*
X238350Y690800D02*
X238350Y706200D01*
X238350Y716200D02*
X238350Y724900D01*
X102950Y724900D02*
X28350Y724900D01*
X112950Y724900D02*
X128350Y724900D01*
X138350Y724900D02*
X153750Y724900D01*
X163750Y724900D02*
X238350Y724900D01*
X238350Y214900D02*
X28350Y214900D01*
D13*
X260350Y215900D03*
D14*
X173350Y201900D02*
X93350Y201900D01*
X93350Y269900D01*
X173350Y269900D01*
X173350Y201900D01*
X238350Y249000D02*
X238210Y249002D01*
X238070Y249008D01*
X237930Y249018D01*
X237790Y249031D01*
X237651Y249049D01*
X237512Y249071D01*
X237375Y249096D01*
X237237Y249125D01*
X237101Y249158D01*
X236966Y249195D01*
X236832Y249236D01*
X236699Y249281D01*
X236567Y249329D01*
X236437Y249381D01*
X236308Y249436D01*
X236181Y249495D01*
X236055Y249558D01*
X235931Y249624D01*
X235810Y249693D01*
X235690Y249766D01*
X235572Y249843D01*
X235457Y249922D01*
X235343Y250005D01*
X235233Y250091D01*
X235124Y250180D01*
X235018Y250272D01*
X234915Y250367D01*
X234814Y250464D01*
X234717Y250565D01*
X234622Y250668D01*
X234530Y250774D01*
X234441Y250883D01*
X234355Y250993D01*
X234272Y251107D01*
X234193Y251222D01*
X234116Y251340D01*
X234043Y251460D01*
X233974Y251581D01*
X233908Y251705D01*
X233845Y251831D01*
X233786Y251958D01*
X233731Y252087D01*
X233679Y252217D01*
X233631Y252349D01*
X233586Y252482D01*
X233545Y252616D01*
X233508Y252751D01*
X233475Y252887D01*
X233446Y253025D01*
X233421Y253162D01*
X233399Y253301D01*
X233381Y253440D01*
X233368Y253580D01*
X233358Y253720D01*
X233352Y253860D01*
X233350Y254000D01*
X233352Y254140D01*
X233358Y254280D01*
X233368Y254420D01*
X233381Y254560D01*
X233399Y254699D01*
X233421Y254838D01*
X233446Y254975D01*
X233475Y255113D01*
X233508Y255249D01*
X233545Y255384D01*
X233586Y255518D01*
X233631Y255651D01*
X233679Y255783D01*
X233731Y255913D01*
X233786Y256042D01*
X233845Y256169D01*
X233908Y256295D01*
X233974Y256419D01*
X234043Y256540D01*
X234116Y256660D01*
X234193Y256778D01*
X234272Y256893D01*
X234355Y257007D01*
X234441Y257117D01*
X234530Y257226D01*
X234622Y257332D01*
X234717Y257435D01*
X234814Y257536D01*
X234915Y257633D01*
X235018Y257728D01*
X235124Y257820D01*
X235233Y257909D01*
X235343Y257995D01*
X235457Y258078D01*
X235572Y258157D01*
X235690Y258234D01*
X235810Y258307D01*
X235931Y258376D01*
X236055Y258442D01*
X236181Y258505D01*
X236308Y258564D01*
X236437Y258619D01*
X236567Y258671D01*
X236699Y258719D01*
X236832Y258764D01*
X236966Y258805D01*
X237101Y258842D01*
X237237Y258875D01*
X237375Y258904D01*
X237512Y258929D01*
X237651Y258951D01*
X237790Y258969D01*
X237930Y258982D01*
X238070Y258992D01*
X238210Y258998D01*
X238350Y259000D01*
X238350Y233600D02*
X238210Y233598D01*
X238070Y233592D01*
X237930Y233582D01*
X237790Y233569D01*
X237651Y233551D01*
X237512Y233529D01*
X237375Y233504D01*
X237237Y233475D01*
X237101Y233442D01*
X236966Y233405D01*
X236832Y233364D01*
X236699Y233319D01*
X236567Y233271D01*
X236437Y233219D01*
X236308Y233164D01*
X236181Y233105D01*
X236055Y233042D01*
X235931Y232976D01*
X235810Y232907D01*
X235690Y232834D01*
X235572Y232757D01*
X235457Y232678D01*
X235343Y232595D01*
X235233Y232509D01*
X235124Y232420D01*
X235018Y232328D01*
X234915Y232233D01*
X234814Y232136D01*
X234717Y232035D01*
X234622Y231932D01*
X234530Y231826D01*
X234441Y231717D01*
X234355Y231607D01*
X234272Y231493D01*
X234193Y231378D01*
X234116Y231260D01*
X234043Y231140D01*
X233974Y231019D01*
X233908Y230895D01*
X233845Y230769D01*
X233786Y230642D01*
X233731Y230513D01*
X233679Y230383D01*
X233631Y230251D01*
X233586Y230118D01*
X233545Y229984D01*
X233508Y229849D01*
X233475Y229713D01*
X233446Y229575D01*
X233421Y229438D01*
X233399Y229299D01*
X233381Y229160D01*
X233368Y229020D01*
X233358Y228880D01*
X233352Y228740D01*
X233350Y228600D01*
X233352Y228460D01*
X233358Y228320D01*
X233368Y228180D01*
X233381Y228040D01*
X233399Y227901D01*
X233421Y227762D01*
X233446Y227625D01*
X233475Y227487D01*
X233508Y227351D01*
X233545Y227216D01*
X233586Y227082D01*
X233631Y226949D01*
X233679Y226817D01*
X233731Y226687D01*
X233786Y226558D01*
X233845Y226431D01*
X233908Y226305D01*
X233974Y226181D01*
X234043Y226060D01*
X234116Y225940D01*
X234193Y225822D01*
X234272Y225707D01*
X234355Y225593D01*
X234441Y225483D01*
X234530Y225374D01*
X234622Y225268D01*
X234717Y225165D01*
X234814Y225064D01*
X234915Y224967D01*
X235018Y224872D01*
X235124Y224780D01*
X235233Y224691D01*
X235343Y224605D01*
X235457Y224522D01*
X235572Y224443D01*
X235690Y224366D01*
X235810Y224293D01*
X235931Y224224D01*
X236055Y224158D01*
X236181Y224095D01*
X236308Y224036D01*
X236437Y223981D01*
X236567Y223929D01*
X236699Y223881D01*
X236832Y223836D01*
X236966Y223795D01*
X237101Y223758D01*
X237237Y223725D01*
X237375Y223696D01*
X237512Y223671D01*
X237651Y223649D01*
X237790Y223631D01*
X237930Y223618D01*
X238070Y223608D01*
X238210Y223602D01*
X238350Y223600D01*
X238350Y274400D02*
X238210Y274402D01*
X238070Y274408D01*
X237930Y274418D01*
X237790Y274431D01*
X237651Y274449D01*
X237512Y274471D01*
X237375Y274496D01*
X237237Y274525D01*
X237101Y274558D01*
X236966Y274595D01*
X236832Y274636D01*
X236699Y274681D01*
X236567Y274729D01*
X236437Y274781D01*
X236308Y274836D01*
X236181Y274895D01*
X236055Y274958D01*
X235931Y275024D01*
X235810Y275093D01*
X235690Y275166D01*
X235572Y275243D01*
X235457Y275322D01*
X235343Y275405D01*
X235233Y275491D01*
X235124Y275580D01*
X235018Y275672D01*
X234915Y275767D01*
X234814Y275864D01*
X234717Y275965D01*
X234622Y276068D01*
X234530Y276174D01*
X234441Y276283D01*
X234355Y276393D01*
X234272Y276507D01*
X234193Y276622D01*
X234116Y276740D01*
X234043Y276860D01*
X233974Y276981D01*
X233908Y277105D01*
X233845Y277231D01*
X233786Y277358D01*
X233731Y277487D01*
X233679Y277617D01*
X233631Y277749D01*
X233586Y277882D01*
X233545Y278016D01*
X233508Y278151D01*
X233475Y278287D01*
X233446Y278425D01*
X233421Y278562D01*
X233399Y278701D01*
X233381Y278840D01*
X233368Y278980D01*
X233358Y279120D01*
X233352Y279260D01*
X233350Y279400D01*
X233352Y279540D01*
X233358Y279680D01*
X233368Y279820D01*
X233381Y279960D01*
X233399Y280099D01*
X233421Y280238D01*
X233446Y280375D01*
X233475Y280513D01*
X233508Y280649D01*
X233545Y280784D01*
X233586Y280918D01*
X233631Y281051D01*
X233679Y281183D01*
X233731Y281313D01*
X233786Y281442D01*
X233845Y281569D01*
X233908Y281695D01*
X233974Y281819D01*
X234043Y281940D01*
X234116Y282060D01*
X234193Y282178D01*
X234272Y282293D01*
X234355Y282407D01*
X234441Y282517D01*
X234530Y282626D01*
X234622Y282732D01*
X234717Y282835D01*
X234814Y282936D01*
X234915Y283033D01*
X235018Y283128D01*
X235124Y283220D01*
X235233Y283309D01*
X235343Y283395D01*
X235457Y283478D01*
X235572Y283557D01*
X235690Y283634D01*
X235810Y283707D01*
X235931Y283776D01*
X236055Y283842D01*
X236181Y283905D01*
X236308Y283964D01*
X236437Y284019D01*
X236567Y284071D01*
X236699Y284119D01*
X236832Y284164D01*
X236966Y284205D01*
X237101Y284242D01*
X237237Y284275D01*
X237375Y284304D01*
X237512Y284329D01*
X237651Y284351D01*
X237790Y284369D01*
X237930Y284382D01*
X238070Y284392D01*
X238210Y284398D01*
X238350Y284400D01*
X238350Y299800D02*
X238210Y299802D01*
X238070Y299808D01*
X237930Y299818D01*
X237790Y299831D01*
X237651Y299849D01*
X237512Y299871D01*
X237375Y299896D01*
X237237Y299925D01*
X237101Y299958D01*
X236966Y299995D01*
X236832Y300036D01*
X236699Y300081D01*
X236567Y300129D01*
X236437Y300181D01*
X236308Y300236D01*
X236181Y300295D01*
X236055Y300358D01*
X235931Y300424D01*
X235810Y300493D01*
X235690Y300566D01*
X235572Y300643D01*
X235457Y300722D01*
X235343Y300805D01*
X235233Y300891D01*
X235124Y300980D01*
X235018Y301072D01*
X234915Y301167D01*
X234814Y301264D01*
X234717Y301365D01*
X234622Y301468D01*
X234530Y301574D01*
X234441Y301683D01*
X234355Y301793D01*
X234272Y301907D01*
X234193Y302022D01*
X234116Y302140D01*
X234043Y302260D01*
X233974Y302381D01*
X233908Y302505D01*
X233845Y302631D01*
X233786Y302758D01*
X233731Y302887D01*
X233679Y303017D01*
X233631Y303149D01*
X233586Y303282D01*
X233545Y303416D01*
X233508Y303551D01*
X233475Y303687D01*
X233446Y303825D01*
X233421Y303962D01*
X233399Y304101D01*
X233381Y304240D01*
X233368Y304380D01*
X233358Y304520D01*
X233352Y304660D01*
X233350Y304800D01*
X233352Y304940D01*
X233358Y305080D01*
X233368Y305220D01*
X233381Y305360D01*
X233399Y305499D01*
X233421Y305638D01*
X233446Y305775D01*
X233475Y305913D01*
X233508Y306049D01*
X233545Y306184D01*
X233586Y306318D01*
X233631Y306451D01*
X233679Y306583D01*
X233731Y306713D01*
X233786Y306842D01*
X233845Y306969D01*
X233908Y307095D01*
X233974Y307219D01*
X234043Y307340D01*
X234116Y307460D01*
X234193Y307578D01*
X234272Y307693D01*
X234355Y307807D01*
X234441Y307917D01*
X234530Y308026D01*
X234622Y308132D01*
X234717Y308235D01*
X234814Y308336D01*
X234915Y308433D01*
X235018Y308528D01*
X235124Y308620D01*
X235233Y308709D01*
X235343Y308795D01*
X235457Y308878D01*
X235572Y308957D01*
X235690Y309034D01*
X235810Y309107D01*
X235931Y309176D01*
X236055Y309242D01*
X236181Y309305D01*
X236308Y309364D01*
X236437Y309419D01*
X236567Y309471D01*
X236699Y309519D01*
X236832Y309564D01*
X236966Y309605D01*
X237101Y309642D01*
X237237Y309675D01*
X237375Y309704D01*
X237512Y309729D01*
X237651Y309751D01*
X237790Y309769D01*
X237930Y309782D01*
X238070Y309792D01*
X238210Y309798D01*
X238350Y309800D01*
X238350Y325200D02*
X238210Y325202D01*
X238070Y325208D01*
X237930Y325218D01*
X237790Y325231D01*
X237651Y325249D01*
X237512Y325271D01*
X237375Y325296D01*
X237237Y325325D01*
X237101Y325358D01*
X236966Y325395D01*
X236832Y325436D01*
X236699Y325481D01*
X236567Y325529D01*
X236437Y325581D01*
X236308Y325636D01*
X236181Y325695D01*
X236055Y325758D01*
X235931Y325824D01*
X235810Y325893D01*
X235690Y325966D01*
X235572Y326043D01*
X235457Y326122D01*
X235343Y326205D01*
X235233Y326291D01*
X235124Y326380D01*
X235018Y326472D01*
X234915Y326567D01*
X234814Y326664D01*
X234717Y326765D01*
X234622Y326868D01*
X234530Y326974D01*
X234441Y327083D01*
X234355Y327193D01*
X234272Y327307D01*
X234193Y327422D01*
X234116Y327540D01*
X234043Y327660D01*
X233974Y327781D01*
X233908Y327905D01*
X233845Y328031D01*
X233786Y328158D01*
X233731Y328287D01*
X233679Y328417D01*
X233631Y328549D01*
X233586Y328682D01*
X233545Y328816D01*
X233508Y328951D01*
X233475Y329087D01*
X233446Y329225D01*
X233421Y329362D01*
X233399Y329501D01*
X233381Y329640D01*
X233368Y329780D01*
X233358Y329920D01*
X233352Y330060D01*
X233350Y330200D01*
X233352Y330340D01*
X233358Y330480D01*
X233368Y330620D01*
X233381Y330760D01*
X233399Y330899D01*
X233421Y331038D01*
X233446Y331175D01*
X233475Y331313D01*
X233508Y331449D01*
X233545Y331584D01*
X233586Y331718D01*
X233631Y331851D01*
X233679Y331983D01*
X233731Y332113D01*
X233786Y332242D01*
X233845Y332369D01*
X233908Y332495D01*
X233974Y332619D01*
X234043Y332740D01*
X234116Y332860D01*
X234193Y332978D01*
X234272Y333093D01*
X234355Y333207D01*
X234441Y333317D01*
X234530Y333426D01*
X234622Y333532D01*
X234717Y333635D01*
X234814Y333736D01*
X234915Y333833D01*
X235018Y333928D01*
X235124Y334020D01*
X235233Y334109D01*
X235343Y334195D01*
X235457Y334278D01*
X235572Y334357D01*
X235690Y334434D01*
X235810Y334507D01*
X235931Y334576D01*
X236055Y334642D01*
X236181Y334705D01*
X236308Y334764D01*
X236437Y334819D01*
X236567Y334871D01*
X236699Y334919D01*
X236832Y334964D01*
X236966Y335005D01*
X237101Y335042D01*
X237237Y335075D01*
X237375Y335104D01*
X237512Y335129D01*
X237651Y335151D01*
X237790Y335169D01*
X237930Y335182D01*
X238070Y335192D01*
X238210Y335198D01*
X238350Y335200D01*
X238350Y350600D02*
X238210Y350602D01*
X238070Y350608D01*
X237930Y350618D01*
X237790Y350631D01*
X237651Y350649D01*
X237512Y350671D01*
X237375Y350696D01*
X237237Y350725D01*
X237101Y350758D01*
X236966Y350795D01*
X236832Y350836D01*
X236699Y350881D01*
X236567Y350929D01*
X236437Y350981D01*
X236308Y351036D01*
X236181Y351095D01*
X236055Y351158D01*
X235931Y351224D01*
X235810Y351293D01*
X235690Y351366D01*
X235572Y351443D01*
X235457Y351522D01*
X235343Y351605D01*
X235233Y351691D01*
X235124Y351780D01*
X235018Y351872D01*
X234915Y351967D01*
X234814Y352064D01*
X234717Y352165D01*
X234622Y352268D01*
X234530Y352374D01*
X234441Y352483D01*
X234355Y352593D01*
X234272Y352707D01*
X234193Y352822D01*
X234116Y352940D01*
X234043Y353060D01*
X233974Y353181D01*
X233908Y353305D01*
X233845Y353431D01*
X233786Y353558D01*
X233731Y353687D01*
X233679Y353817D01*
X233631Y353949D01*
X233586Y354082D01*
X233545Y354216D01*
X233508Y354351D01*
X233475Y354487D01*
X233446Y354625D01*
X233421Y354762D01*
X233399Y354901D01*
X233381Y355040D01*
X233368Y355180D01*
X233358Y355320D01*
X233352Y355460D01*
X233350Y355600D01*
X233352Y355740D01*
X233358Y355880D01*
X233368Y356020D01*
X233381Y356160D01*
X233399Y356299D01*
X233421Y356438D01*
X233446Y356575D01*
X233475Y356713D01*
X233508Y356849D01*
X233545Y356984D01*
X233586Y357118D01*
X233631Y357251D01*
X233679Y357383D01*
X233731Y357513D01*
X233786Y357642D01*
X233845Y357769D01*
X233908Y357895D01*
X233974Y358019D01*
X234043Y358140D01*
X234116Y358260D01*
X234193Y358378D01*
X234272Y358493D01*
X234355Y358607D01*
X234441Y358717D01*
X234530Y358826D01*
X234622Y358932D01*
X234717Y359035D01*
X234814Y359136D01*
X234915Y359233D01*
X235018Y359328D01*
X235124Y359420D01*
X235233Y359509D01*
X235343Y359595D01*
X235457Y359678D01*
X235572Y359757D01*
X235690Y359834D01*
X235810Y359907D01*
X235931Y359976D01*
X236055Y360042D01*
X236181Y360105D01*
X236308Y360164D01*
X236437Y360219D01*
X236567Y360271D01*
X236699Y360319D01*
X236832Y360364D01*
X236966Y360405D01*
X237101Y360442D01*
X237237Y360475D01*
X237375Y360504D01*
X237512Y360529D01*
X237651Y360551D01*
X237790Y360569D01*
X237930Y360582D01*
X238070Y360592D01*
X238210Y360598D01*
X238350Y360600D01*
X238350Y376000D02*
X238210Y376002D01*
X238070Y376008D01*
X237930Y376018D01*
X237790Y376031D01*
X237651Y376049D01*
X237512Y376071D01*
X237375Y376096D01*
X237237Y376125D01*
X237101Y376158D01*
X236966Y376195D01*
X236832Y376236D01*
X236699Y376281D01*
X236567Y376329D01*
X236437Y376381D01*
X236308Y376436D01*
X236181Y376495D01*
X236055Y376558D01*
X235931Y376624D01*
X235810Y376693D01*
X235690Y376766D01*
X235572Y376843D01*
X235457Y376922D01*
X235343Y377005D01*
X235233Y377091D01*
X235124Y377180D01*
X235018Y377272D01*
X234915Y377367D01*
X234814Y377464D01*
X234717Y377565D01*
X234622Y377668D01*
X234530Y377774D01*
X234441Y377883D01*
X234355Y377993D01*
X234272Y378107D01*
X234193Y378222D01*
X234116Y378340D01*
X234043Y378460D01*
X233974Y378581D01*
X233908Y378705D01*
X233845Y378831D01*
X233786Y378958D01*
X233731Y379087D01*
X233679Y379217D01*
X233631Y379349D01*
X233586Y379482D01*
X233545Y379616D01*
X233508Y379751D01*
X233475Y379887D01*
X233446Y380025D01*
X233421Y380162D01*
X233399Y380301D01*
X233381Y380440D01*
X233368Y380580D01*
X233358Y380720D01*
X233352Y380860D01*
X233350Y381000D01*
X233352Y381140D01*
X233358Y381280D01*
X233368Y381420D01*
X233381Y381560D01*
X233399Y381699D01*
X233421Y381838D01*
X233446Y381975D01*
X233475Y382113D01*
X233508Y382249D01*
X233545Y382384D01*
X233586Y382518D01*
X233631Y382651D01*
X233679Y382783D01*
X233731Y382913D01*
X233786Y383042D01*
X233845Y383169D01*
X233908Y383295D01*
X233974Y383419D01*
X234043Y383540D01*
X234116Y383660D01*
X234193Y383778D01*
X234272Y383893D01*
X234355Y384007D01*
X234441Y384117D01*
X234530Y384226D01*
X234622Y384332D01*
X234717Y384435D01*
X234814Y384536D01*
X234915Y384633D01*
X235018Y384728D01*
X235124Y384820D01*
X235233Y384909D01*
X235343Y384995D01*
X235457Y385078D01*
X235572Y385157D01*
X235690Y385234D01*
X235810Y385307D01*
X235931Y385376D01*
X236055Y385442D01*
X236181Y385505D01*
X236308Y385564D01*
X236437Y385619D01*
X236567Y385671D01*
X236699Y385719D01*
X236832Y385764D01*
X236966Y385805D01*
X237101Y385842D01*
X237237Y385875D01*
X237375Y385904D01*
X237512Y385929D01*
X237651Y385951D01*
X237790Y385969D01*
X237930Y385982D01*
X238070Y385992D01*
X238210Y385998D01*
X238350Y386000D01*
X238350Y401400D02*
X238210Y401402D01*
X238070Y401408D01*
X237930Y401418D01*
X237790Y401431D01*
X237651Y401449D01*
X237512Y401471D01*
X237375Y401496D01*
X237237Y401525D01*
X237101Y401558D01*
X236966Y401595D01*
X236832Y401636D01*
X236699Y401681D01*
X236567Y401729D01*
X236437Y401781D01*
X236308Y401836D01*
X236181Y401895D01*
X236055Y401958D01*
X235931Y402024D01*
X235810Y402093D01*
X235690Y402166D01*
X235572Y402243D01*
X235457Y402322D01*
X235343Y402405D01*
X235233Y402491D01*
X235124Y402580D01*
X235018Y402672D01*
X234915Y402767D01*
X234814Y402864D01*
X234717Y402965D01*
X234622Y403068D01*
X234530Y403174D01*
X234441Y403283D01*
X234355Y403393D01*
X234272Y403507D01*
X234193Y403622D01*
X234116Y403740D01*
X234043Y403860D01*
X233974Y403981D01*
X233908Y404105D01*
X233845Y404231D01*
X233786Y404358D01*
X233731Y404487D01*
X233679Y404617D01*
X233631Y404749D01*
X233586Y404882D01*
X233545Y405016D01*
X233508Y405151D01*
X233475Y405287D01*
X233446Y405425D01*
X233421Y405562D01*
X233399Y405701D01*
X233381Y405840D01*
X233368Y405980D01*
X233358Y406120D01*
X233352Y406260D01*
X233350Y406400D01*
X233352Y406540D01*
X233358Y406680D01*
X233368Y406820D01*
X233381Y406960D01*
X233399Y407099D01*
X233421Y407238D01*
X233446Y407375D01*
X233475Y407513D01*
X233508Y407649D01*
X233545Y407784D01*
X233586Y407918D01*
X233631Y408051D01*
X233679Y408183D01*
X233731Y408313D01*
X233786Y408442D01*
X233845Y408569D01*
X233908Y408695D01*
X233974Y408819D01*
X234043Y408940D01*
X234116Y409060D01*
X234193Y409178D01*
X234272Y409293D01*
X234355Y409407D01*
X234441Y409517D01*
X234530Y409626D01*
X234622Y409732D01*
X234717Y409835D01*
X234814Y409936D01*
X234915Y410033D01*
X235018Y410128D01*
X235124Y410220D01*
X235233Y410309D01*
X235343Y410395D01*
X235457Y410478D01*
X235572Y410557D01*
X235690Y410634D01*
X235810Y410707D01*
X235931Y410776D01*
X236055Y410842D01*
X236181Y410905D01*
X236308Y410964D01*
X236437Y411019D01*
X236567Y411071D01*
X236699Y411119D01*
X236832Y411164D01*
X236966Y411205D01*
X237101Y411242D01*
X237237Y411275D01*
X237375Y411304D01*
X237512Y411329D01*
X237651Y411351D01*
X237790Y411369D01*
X237930Y411382D01*
X238070Y411392D01*
X238210Y411398D01*
X238350Y411400D01*
X238350Y426800D02*
X238210Y426802D01*
X238070Y426808D01*
X237930Y426818D01*
X237790Y426831D01*
X237651Y426849D01*
X237512Y426871D01*
X237375Y426896D01*
X237237Y426925D01*
X237101Y426958D01*
X236966Y426995D01*
X236832Y427036D01*
X236699Y427081D01*
X236567Y427129D01*
X236437Y427181D01*
X236308Y427236D01*
X236181Y427295D01*
X236055Y427358D01*
X235931Y427424D01*
X235810Y427493D01*
X235690Y427566D01*
X235572Y427643D01*
X235457Y427722D01*
X235343Y427805D01*
X235233Y427891D01*
X235124Y427980D01*
X235018Y428072D01*
X234915Y428167D01*
X234814Y428264D01*
X234717Y428365D01*
X234622Y428468D01*
X234530Y428574D01*
X234441Y428683D01*
X234355Y428793D01*
X234272Y428907D01*
X234193Y429022D01*
X234116Y429140D01*
X234043Y429260D01*
X233974Y429381D01*
X233908Y429505D01*
X233845Y429631D01*
X233786Y429758D01*
X233731Y429887D01*
X233679Y430017D01*
X233631Y430149D01*
X233586Y430282D01*
X233545Y430416D01*
X233508Y430551D01*
X233475Y430687D01*
X233446Y430825D01*
X233421Y430962D01*
X233399Y431101D01*
X233381Y431240D01*
X233368Y431380D01*
X233358Y431520D01*
X233352Y431660D01*
X233350Y431800D01*
X233352Y431940D01*
X233358Y432080D01*
X233368Y432220D01*
X233381Y432360D01*
X233399Y432499D01*
X233421Y432638D01*
X233446Y432775D01*
X233475Y432913D01*
X233508Y433049D01*
X233545Y433184D01*
X233586Y433318D01*
X233631Y433451D01*
X233679Y433583D01*
X233731Y433713D01*
X233786Y433842D01*
X233845Y433969D01*
X233908Y434095D01*
X233974Y434219D01*
X234043Y434340D01*
X234116Y434460D01*
X234193Y434578D01*
X234272Y434693D01*
X234355Y434807D01*
X234441Y434917D01*
X234530Y435026D01*
X234622Y435132D01*
X234717Y435235D01*
X234814Y435336D01*
X234915Y435433D01*
X235018Y435528D01*
X235124Y435620D01*
X235233Y435709D01*
X235343Y435795D01*
X235457Y435878D01*
X235572Y435957D01*
X235690Y436034D01*
X235810Y436107D01*
X235931Y436176D01*
X236055Y436242D01*
X236181Y436305D01*
X236308Y436364D01*
X236437Y436419D01*
X236567Y436471D01*
X236699Y436519D01*
X236832Y436564D01*
X236966Y436605D01*
X237101Y436642D01*
X237237Y436675D01*
X237375Y436704D01*
X237512Y436729D01*
X237651Y436751D01*
X237790Y436769D01*
X237930Y436782D01*
X238070Y436792D01*
X238210Y436798D01*
X238350Y436800D01*
X238350Y452200D02*
X238210Y452202D01*
X238070Y452208D01*
X237930Y452218D01*
X237790Y452231D01*
X237651Y452249D01*
X237512Y452271D01*
X237375Y452296D01*
X237237Y452325D01*
X237101Y452358D01*
X236966Y452395D01*
X236832Y452436D01*
X236699Y452481D01*
X236567Y452529D01*
X236437Y452581D01*
X236308Y452636D01*
X236181Y452695D01*
X236055Y452758D01*
X235931Y452824D01*
X235810Y452893D01*
X235690Y452966D01*
X235572Y453043D01*
X235457Y453122D01*
X235343Y453205D01*
X235233Y453291D01*
X235124Y453380D01*
X235018Y453472D01*
X234915Y453567D01*
X234814Y453664D01*
X234717Y453765D01*
X234622Y453868D01*
X234530Y453974D01*
X234441Y454083D01*
X234355Y454193D01*
X234272Y454307D01*
X234193Y454422D01*
X234116Y454540D01*
X234043Y454660D01*
X233974Y454781D01*
X233908Y454905D01*
X233845Y455031D01*
X233786Y455158D01*
X233731Y455287D01*
X233679Y455417D01*
X233631Y455549D01*
X233586Y455682D01*
X233545Y455816D01*
X233508Y455951D01*
X233475Y456087D01*
X233446Y456225D01*
X233421Y456362D01*
X233399Y456501D01*
X233381Y456640D01*
X233368Y456780D01*
X233358Y456920D01*
X233352Y457060D01*
X233350Y457200D01*
X233352Y457340D01*
X233358Y457480D01*
X233368Y457620D01*
X233381Y457760D01*
X233399Y457899D01*
X233421Y458038D01*
X233446Y458175D01*
X233475Y458313D01*
X233508Y458449D01*
X233545Y458584D01*
X233586Y458718D01*
X233631Y458851D01*
X233679Y458983D01*
X233731Y459113D01*
X233786Y459242D01*
X233845Y459369D01*
X233908Y459495D01*
X233974Y459619D01*
X234043Y459740D01*
X234116Y459860D01*
X234193Y459978D01*
X234272Y460093D01*
X234355Y460207D01*
X234441Y460317D01*
X234530Y460426D01*
X234622Y460532D01*
X234717Y460635D01*
X234814Y460736D01*
X234915Y460833D01*
X235018Y460928D01*
X235124Y461020D01*
X235233Y461109D01*
X235343Y461195D01*
X235457Y461278D01*
X235572Y461357D01*
X235690Y461434D01*
X235810Y461507D01*
X235931Y461576D01*
X236055Y461642D01*
X236181Y461705D01*
X236308Y461764D01*
X236437Y461819D01*
X236567Y461871D01*
X236699Y461919D01*
X236832Y461964D01*
X236966Y462005D01*
X237101Y462042D01*
X237237Y462075D01*
X237375Y462104D01*
X237512Y462129D01*
X237651Y462151D01*
X237790Y462169D01*
X237930Y462182D01*
X238070Y462192D01*
X238210Y462198D01*
X238350Y462200D01*
X238350Y477600D02*
X238210Y477602D01*
X238070Y477608D01*
X237930Y477618D01*
X237790Y477631D01*
X237651Y477649D01*
X237512Y477671D01*
X237375Y477696D01*
X237237Y477725D01*
X237101Y477758D01*
X236966Y477795D01*
X236832Y477836D01*
X236699Y477881D01*
X236567Y477929D01*
X236437Y477981D01*
X236308Y478036D01*
X236181Y478095D01*
X236055Y478158D01*
X235931Y478224D01*
X235810Y478293D01*
X235690Y478366D01*
X235572Y478443D01*
X235457Y478522D01*
X235343Y478605D01*
X235233Y478691D01*
X235124Y478780D01*
X235018Y478872D01*
X234915Y478967D01*
X234814Y479064D01*
X234717Y479165D01*
X234622Y479268D01*
X234530Y479374D01*
X234441Y479483D01*
X234355Y479593D01*
X234272Y479707D01*
X234193Y479822D01*
X234116Y479940D01*
X234043Y480060D01*
X233974Y480181D01*
X233908Y480305D01*
X233845Y480431D01*
X233786Y480558D01*
X233731Y480687D01*
X233679Y480817D01*
X233631Y480949D01*
X233586Y481082D01*
X233545Y481216D01*
X233508Y481351D01*
X233475Y481487D01*
X233446Y481625D01*
X233421Y481762D01*
X233399Y481901D01*
X233381Y482040D01*
X233368Y482180D01*
X233358Y482320D01*
X233352Y482460D01*
X233350Y482600D01*
X233352Y482740D01*
X233358Y482880D01*
X233368Y483020D01*
X233381Y483160D01*
X233399Y483299D01*
X233421Y483438D01*
X233446Y483575D01*
X233475Y483713D01*
X233508Y483849D01*
X233545Y483984D01*
X233586Y484118D01*
X233631Y484251D01*
X233679Y484383D01*
X233731Y484513D01*
X233786Y484642D01*
X233845Y484769D01*
X233908Y484895D01*
X233974Y485019D01*
X234043Y485140D01*
X234116Y485260D01*
X234193Y485378D01*
X234272Y485493D01*
X234355Y485607D01*
X234441Y485717D01*
X234530Y485826D01*
X234622Y485932D01*
X234717Y486035D01*
X234814Y486136D01*
X234915Y486233D01*
X235018Y486328D01*
X235124Y486420D01*
X235233Y486509D01*
X235343Y486595D01*
X235457Y486678D01*
X235572Y486757D01*
X235690Y486834D01*
X235810Y486907D01*
X235931Y486976D01*
X236055Y487042D01*
X236181Y487105D01*
X236308Y487164D01*
X236437Y487219D01*
X236567Y487271D01*
X236699Y487319D01*
X236832Y487364D01*
X236966Y487405D01*
X237101Y487442D01*
X237237Y487475D01*
X237375Y487504D01*
X237512Y487529D01*
X237651Y487551D01*
X237790Y487569D01*
X237930Y487582D01*
X238070Y487592D01*
X238210Y487598D01*
X238350Y487600D01*
X238350Y503000D02*
X238210Y503002D01*
X238070Y503008D01*
X237930Y503018D01*
X237790Y503031D01*
X237651Y503049D01*
X237512Y503071D01*
X237375Y503096D01*
X237237Y503125D01*
X237101Y503158D01*
X236966Y503195D01*
X236832Y503236D01*
X236699Y503281D01*
X236567Y503329D01*
X236437Y503381D01*
X236308Y503436D01*
X236181Y503495D01*
X236055Y503558D01*
X235931Y503624D01*
X235810Y503693D01*
X235690Y503766D01*
X235572Y503843D01*
X235457Y503922D01*
X235343Y504005D01*
X235233Y504091D01*
X235124Y504180D01*
X235018Y504272D01*
X234915Y504367D01*
X234814Y504464D01*
X234717Y504565D01*
X234622Y504668D01*
X234530Y504774D01*
X234441Y504883D01*
X234355Y504993D01*
X234272Y505107D01*
X234193Y505222D01*
X234116Y505340D01*
X234043Y505460D01*
X233974Y505581D01*
X233908Y505705D01*
X233845Y505831D01*
X233786Y505958D01*
X233731Y506087D01*
X233679Y506217D01*
X233631Y506349D01*
X233586Y506482D01*
X233545Y506616D01*
X233508Y506751D01*
X233475Y506887D01*
X233446Y507025D01*
X233421Y507162D01*
X233399Y507301D01*
X233381Y507440D01*
X233368Y507580D01*
X233358Y507720D01*
X233352Y507860D01*
X233350Y508000D01*
X233352Y508140D01*
X233358Y508280D01*
X233368Y508420D01*
X233381Y508560D01*
X233399Y508699D01*
X233421Y508838D01*
X233446Y508975D01*
X233475Y509113D01*
X233508Y509249D01*
X233545Y509384D01*
X233586Y509518D01*
X233631Y509651D01*
X233679Y509783D01*
X233731Y509913D01*
X233786Y510042D01*
X233845Y510169D01*
X233908Y510295D01*
X233974Y510419D01*
X234043Y510540D01*
X234116Y510660D01*
X234193Y510778D01*
X234272Y510893D01*
X234355Y511007D01*
X234441Y511117D01*
X234530Y511226D01*
X234622Y511332D01*
X234717Y511435D01*
X234814Y511536D01*
X234915Y511633D01*
X235018Y511728D01*
X235124Y511820D01*
X235233Y511909D01*
X235343Y511995D01*
X235457Y512078D01*
X235572Y512157D01*
X235690Y512234D01*
X235810Y512307D01*
X235931Y512376D01*
X236055Y512442D01*
X236181Y512505D01*
X236308Y512564D01*
X236437Y512619D01*
X236567Y512671D01*
X236699Y512719D01*
X236832Y512764D01*
X236966Y512805D01*
X237101Y512842D01*
X237237Y512875D01*
X237375Y512904D01*
X237512Y512929D01*
X237651Y512951D01*
X237790Y512969D01*
X237930Y512982D01*
X238070Y512992D01*
X238210Y512998D01*
X238350Y513000D01*
X238350Y528400D02*
X238210Y528402D01*
X238070Y528408D01*
X237930Y528418D01*
X237790Y528431D01*
X237651Y528449D01*
X237512Y528471D01*
X237375Y528496D01*
X237237Y528525D01*
X237101Y528558D01*
X236966Y528595D01*
X236832Y528636D01*
X236699Y528681D01*
X236567Y528729D01*
X236437Y528781D01*
X236308Y528836D01*
X236181Y528895D01*
X236055Y528958D01*
X235931Y529024D01*
X235810Y529093D01*
X235690Y529166D01*
X235572Y529243D01*
X235457Y529322D01*
X235343Y529405D01*
X235233Y529491D01*
X235124Y529580D01*
X235018Y529672D01*
X234915Y529767D01*
X234814Y529864D01*
X234717Y529965D01*
X234622Y530068D01*
X234530Y530174D01*
X234441Y530283D01*
X234355Y530393D01*
X234272Y530507D01*
X234193Y530622D01*
X234116Y530740D01*
X234043Y530860D01*
X233974Y530981D01*
X233908Y531105D01*
X233845Y531231D01*
X233786Y531358D01*
X233731Y531487D01*
X233679Y531617D01*
X233631Y531749D01*
X233586Y531882D01*
X233545Y532016D01*
X233508Y532151D01*
X233475Y532287D01*
X233446Y532425D01*
X233421Y532562D01*
X233399Y532701D01*
X233381Y532840D01*
X233368Y532980D01*
X233358Y533120D01*
X233352Y533260D01*
X233350Y533400D01*
X233352Y533540D01*
X233358Y533680D01*
X233368Y533820D01*
X233381Y533960D01*
X233399Y534099D01*
X233421Y534238D01*
X233446Y534375D01*
X233475Y534513D01*
X233508Y534649D01*
X233545Y534784D01*
X233586Y534918D01*
X233631Y535051D01*
X233679Y535183D01*
X233731Y535313D01*
X233786Y535442D01*
X233845Y535569D01*
X233908Y535695D01*
X233974Y535819D01*
X234043Y535940D01*
X234116Y536060D01*
X234193Y536178D01*
X234272Y536293D01*
X234355Y536407D01*
X234441Y536517D01*
X234530Y536626D01*
X234622Y536732D01*
X234717Y536835D01*
X234814Y536936D01*
X234915Y537033D01*
X235018Y537128D01*
X235124Y537220D01*
X235233Y537309D01*
X235343Y537395D01*
X235457Y537478D01*
X235572Y537557D01*
X235690Y537634D01*
X235810Y537707D01*
X235931Y537776D01*
X236055Y537842D01*
X236181Y537905D01*
X236308Y537964D01*
X236437Y538019D01*
X236567Y538071D01*
X236699Y538119D01*
X236832Y538164D01*
X236966Y538205D01*
X237101Y538242D01*
X237237Y538275D01*
X237375Y538304D01*
X237512Y538329D01*
X237651Y538351D01*
X237790Y538369D01*
X237930Y538382D01*
X238070Y538392D01*
X238210Y538398D01*
X238350Y538400D01*
X238350Y553800D02*
X238210Y553802D01*
X238070Y553808D01*
X237930Y553818D01*
X237790Y553831D01*
X237651Y553849D01*
X237512Y553871D01*
X237375Y553896D01*
X237237Y553925D01*
X237101Y553958D01*
X236966Y553995D01*
X236832Y554036D01*
X236699Y554081D01*
X236567Y554129D01*
X236437Y554181D01*
X236308Y554236D01*
X236181Y554295D01*
X236055Y554358D01*
X235931Y554424D01*
X235810Y554493D01*
X235690Y554566D01*
X235572Y554643D01*
X235457Y554722D01*
X235343Y554805D01*
X235233Y554891D01*
X235124Y554980D01*
X235018Y555072D01*
X234915Y555167D01*
X234814Y555264D01*
X234717Y555365D01*
X234622Y555468D01*
X234530Y555574D01*
X234441Y555683D01*
X234355Y555793D01*
X234272Y555907D01*
X234193Y556022D01*
X234116Y556140D01*
X234043Y556260D01*
X233974Y556381D01*
X233908Y556505D01*
X233845Y556631D01*
X233786Y556758D01*
X233731Y556887D01*
X233679Y557017D01*
X233631Y557149D01*
X233586Y557282D01*
X233545Y557416D01*
X233508Y557551D01*
X233475Y557687D01*
X233446Y557825D01*
X233421Y557962D01*
X233399Y558101D01*
X233381Y558240D01*
X233368Y558380D01*
X233358Y558520D01*
X233352Y558660D01*
X233350Y558800D01*
X233352Y558940D01*
X233358Y559080D01*
X233368Y559220D01*
X233381Y559360D01*
X233399Y559499D01*
X233421Y559638D01*
X233446Y559775D01*
X233475Y559913D01*
X233508Y560049D01*
X233545Y560184D01*
X233586Y560318D01*
X233631Y560451D01*
X233679Y560583D01*
X233731Y560713D01*
X233786Y560842D01*
X233845Y560969D01*
X233908Y561095D01*
X233974Y561219D01*
X234043Y561340D01*
X234116Y561460D01*
X234193Y561578D01*
X234272Y561693D01*
X234355Y561807D01*
X234441Y561917D01*
X234530Y562026D01*
X234622Y562132D01*
X234717Y562235D01*
X234814Y562336D01*
X234915Y562433D01*
X235018Y562528D01*
X235124Y562620D01*
X235233Y562709D01*
X235343Y562795D01*
X235457Y562878D01*
X235572Y562957D01*
X235690Y563034D01*
X235810Y563107D01*
X235931Y563176D01*
X236055Y563242D01*
X236181Y563305D01*
X236308Y563364D01*
X236437Y563419D01*
X236567Y563471D01*
X236699Y563519D01*
X236832Y563564D01*
X236966Y563605D01*
X237101Y563642D01*
X237237Y563675D01*
X237375Y563704D01*
X237512Y563729D01*
X237651Y563751D01*
X237790Y563769D01*
X237930Y563782D01*
X238070Y563792D01*
X238210Y563798D01*
X238350Y563800D01*
X238350Y579200D02*
X238210Y579202D01*
X238070Y579208D01*
X237930Y579218D01*
X237790Y579231D01*
X237651Y579249D01*
X237512Y579271D01*
X237375Y579296D01*
X237237Y579325D01*
X237101Y579358D01*
X236966Y579395D01*
X236832Y579436D01*
X236699Y579481D01*
X236567Y579529D01*
X236437Y579581D01*
X236308Y579636D01*
X236181Y579695D01*
X236055Y579758D01*
X235931Y579824D01*
X235810Y579893D01*
X235690Y579966D01*
X235572Y580043D01*
X235457Y580122D01*
X235343Y580205D01*
X235233Y580291D01*
X235124Y580380D01*
X235018Y580472D01*
X234915Y580567D01*
X234814Y580664D01*
X234717Y580765D01*
X234622Y580868D01*
X234530Y580974D01*
X234441Y581083D01*
X234355Y581193D01*
X234272Y581307D01*
X234193Y581422D01*
X234116Y581540D01*
X234043Y581660D01*
X233974Y581781D01*
X233908Y581905D01*
X233845Y582031D01*
X233786Y582158D01*
X233731Y582287D01*
X233679Y582417D01*
X233631Y582549D01*
X233586Y582682D01*
X233545Y582816D01*
X233508Y582951D01*
X233475Y583087D01*
X233446Y583225D01*
X233421Y583362D01*
X233399Y583501D01*
X233381Y583640D01*
X233368Y583780D01*
X233358Y583920D01*
X233352Y584060D01*
X233350Y584200D01*
X233352Y584340D01*
X233358Y584480D01*
X233368Y584620D01*
X233381Y584760D01*
X233399Y584899D01*
X233421Y585038D01*
X233446Y585175D01*
X233475Y585313D01*
X233508Y585449D01*
X233545Y585584D01*
X233586Y585718D01*
X233631Y585851D01*
X233679Y585983D01*
X233731Y586113D01*
X233786Y586242D01*
X233845Y586369D01*
X233908Y586495D01*
X233974Y586619D01*
X234043Y586740D01*
X234116Y586860D01*
X234193Y586978D01*
X234272Y587093D01*
X234355Y587207D01*
X234441Y587317D01*
X234530Y587426D01*
X234622Y587532D01*
X234717Y587635D01*
X234814Y587736D01*
X234915Y587833D01*
X235018Y587928D01*
X235124Y588020D01*
X235233Y588109D01*
X235343Y588195D01*
X235457Y588278D01*
X235572Y588357D01*
X235690Y588434D01*
X235810Y588507D01*
X235931Y588576D01*
X236055Y588642D01*
X236181Y588705D01*
X236308Y588764D01*
X236437Y588819D01*
X236567Y588871D01*
X236699Y588919D01*
X236832Y588964D01*
X236966Y589005D01*
X237101Y589042D01*
X237237Y589075D01*
X237375Y589104D01*
X237512Y589129D01*
X237651Y589151D01*
X237790Y589169D01*
X237930Y589182D01*
X238070Y589192D01*
X238210Y589198D01*
X238350Y589200D01*
X238350Y604600D02*
X238210Y604602D01*
X238070Y604608D01*
X237930Y604618D01*
X237790Y604631D01*
X237651Y604649D01*
X237512Y604671D01*
X237375Y604696D01*
X237237Y604725D01*
X237101Y604758D01*
X236966Y604795D01*
X236832Y604836D01*
X236699Y604881D01*
X236567Y604929D01*
X236437Y604981D01*
X236308Y605036D01*
X236181Y605095D01*
X236055Y605158D01*
X235931Y605224D01*
X235810Y605293D01*
X235690Y605366D01*
X235572Y605443D01*
X235457Y605522D01*
X235343Y605605D01*
X235233Y605691D01*
X235124Y605780D01*
X235018Y605872D01*
X234915Y605967D01*
X234814Y606064D01*
X234717Y606165D01*
X234622Y606268D01*
X234530Y606374D01*
X234441Y606483D01*
X234355Y606593D01*
X234272Y606707D01*
X234193Y606822D01*
X234116Y606940D01*
X234043Y607060D01*
X233974Y607181D01*
X233908Y607305D01*
X233845Y607431D01*
X233786Y607558D01*
X233731Y607687D01*
X233679Y607817D01*
X233631Y607949D01*
X233586Y608082D01*
X233545Y608216D01*
X233508Y608351D01*
X233475Y608487D01*
X233446Y608625D01*
X233421Y608762D01*
X233399Y608901D01*
X233381Y609040D01*
X233368Y609180D01*
X233358Y609320D01*
X233352Y609460D01*
X233350Y609600D01*
X233352Y609740D01*
X233358Y609880D01*
X233368Y610020D01*
X233381Y610160D01*
X233399Y610299D01*
X233421Y610438D01*
X233446Y610575D01*
X233475Y610713D01*
X233508Y610849D01*
X233545Y610984D01*
X233586Y611118D01*
X233631Y611251D01*
X233679Y611383D01*
X233731Y611513D01*
X233786Y611642D01*
X233845Y611769D01*
X233908Y611895D01*
X233974Y612019D01*
X234043Y612140D01*
X234116Y612260D01*
X234193Y612378D01*
X234272Y612493D01*
X234355Y612607D01*
X234441Y612717D01*
X234530Y612826D01*
X234622Y612932D01*
X234717Y613035D01*
X234814Y613136D01*
X234915Y613233D01*
X235018Y613328D01*
X235124Y613420D01*
X235233Y613509D01*
X235343Y613595D01*
X235457Y613678D01*
X235572Y613757D01*
X235690Y613834D01*
X235810Y613907D01*
X235931Y613976D01*
X236055Y614042D01*
X236181Y614105D01*
X236308Y614164D01*
X236437Y614219D01*
X236567Y614271D01*
X236699Y614319D01*
X236832Y614364D01*
X236966Y614405D01*
X237101Y614442D01*
X237237Y614475D01*
X237375Y614504D01*
X237512Y614529D01*
X237651Y614551D01*
X237790Y614569D01*
X237930Y614582D01*
X238070Y614592D01*
X238210Y614598D01*
X238350Y614600D01*
X238350Y630000D02*
X238210Y630002D01*
X238070Y630008D01*
X237930Y630018D01*
X237790Y630031D01*
X237651Y630049D01*
X237512Y630071D01*
X237375Y630096D01*
X237237Y630125D01*
X237101Y630158D01*
X236966Y630195D01*
X236832Y630236D01*
X236699Y630281D01*
X236567Y630329D01*
X236437Y630381D01*
X236308Y630436D01*
X236181Y630495D01*
X236055Y630558D01*
X235931Y630624D01*
X235810Y630693D01*
X235690Y630766D01*
X235572Y630843D01*
X235457Y630922D01*
X235343Y631005D01*
X235233Y631091D01*
X235124Y631180D01*
X235018Y631272D01*
X234915Y631367D01*
X234814Y631464D01*
X234717Y631565D01*
X234622Y631668D01*
X234530Y631774D01*
X234441Y631883D01*
X234355Y631993D01*
X234272Y632107D01*
X234193Y632222D01*
X234116Y632340D01*
X234043Y632460D01*
X233974Y632581D01*
X233908Y632705D01*
X233845Y632831D01*
X233786Y632958D01*
X233731Y633087D01*
X233679Y633217D01*
X233631Y633349D01*
X233586Y633482D01*
X233545Y633616D01*
X233508Y633751D01*
X233475Y633887D01*
X233446Y634025D01*
X233421Y634162D01*
X233399Y634301D01*
X233381Y634440D01*
X233368Y634580D01*
X233358Y634720D01*
X233352Y634860D01*
X233350Y635000D01*
X233352Y635140D01*
X233358Y635280D01*
X233368Y635420D01*
X233381Y635560D01*
X233399Y635699D01*
X233421Y635838D01*
X233446Y635975D01*
X233475Y636113D01*
X233508Y636249D01*
X233545Y636384D01*
X233586Y636518D01*
X233631Y636651D01*
X233679Y636783D01*
X233731Y636913D01*
X233786Y637042D01*
X233845Y637169D01*
X233908Y637295D01*
X233974Y637419D01*
X234043Y637540D01*
X234116Y637660D01*
X234193Y637778D01*
X234272Y637893D01*
X234355Y638007D01*
X234441Y638117D01*
X234530Y638226D01*
X234622Y638332D01*
X234717Y638435D01*
X234814Y638536D01*
X234915Y638633D01*
X235018Y638728D01*
X235124Y638820D01*
X235233Y638909D01*
X235343Y638995D01*
X235457Y639078D01*
X235572Y639157D01*
X235690Y639234D01*
X235810Y639307D01*
X235931Y639376D01*
X236055Y639442D01*
X236181Y639505D01*
X236308Y639564D01*
X236437Y639619D01*
X236567Y639671D01*
X236699Y639719D01*
X236832Y639764D01*
X236966Y639805D01*
X237101Y639842D01*
X237237Y639875D01*
X237375Y639904D01*
X237512Y639929D01*
X237651Y639951D01*
X237790Y639969D01*
X237930Y639982D01*
X238070Y639992D01*
X238210Y639998D01*
X238350Y640000D01*
X238350Y655400D02*
X238210Y655402D01*
X238070Y655408D01*
X237930Y655418D01*
X237790Y655431D01*
X237651Y655449D01*
X237512Y655471D01*
X237375Y655496D01*
X237237Y655525D01*
X237101Y655558D01*
X236966Y655595D01*
X236832Y655636D01*
X236699Y655681D01*
X236567Y655729D01*
X236437Y655781D01*
X236308Y655836D01*
X236181Y655895D01*
X236055Y655958D01*
X235931Y656024D01*
X235810Y656093D01*
X235690Y656166D01*
X235572Y656243D01*
X235457Y656322D01*
X235343Y656405D01*
X235233Y656491D01*
X235124Y656580D01*
X235018Y656672D01*
X234915Y656767D01*
X234814Y656864D01*
X234717Y656965D01*
X234622Y657068D01*
X234530Y657174D01*
X234441Y657283D01*
X234355Y657393D01*
X234272Y657507D01*
X234193Y657622D01*
X234116Y657740D01*
X234043Y657860D01*
X233974Y657981D01*
X233908Y658105D01*
X233845Y658231D01*
X233786Y658358D01*
X233731Y658487D01*
X233679Y658617D01*
X233631Y658749D01*
X233586Y658882D01*
X233545Y659016D01*
X233508Y659151D01*
X233475Y659287D01*
X233446Y659425D01*
X233421Y659562D01*
X233399Y659701D01*
X233381Y659840D01*
X233368Y659980D01*
X233358Y660120D01*
X233352Y660260D01*
X233350Y660400D01*
X233352Y660540D01*
X233358Y660680D01*
X233368Y660820D01*
X233381Y660960D01*
X233399Y661099D01*
X233421Y661238D01*
X233446Y661375D01*
X233475Y661513D01*
X233508Y661649D01*
X233545Y661784D01*
X233586Y661918D01*
X233631Y662051D01*
X233679Y662183D01*
X233731Y662313D01*
X233786Y662442D01*
X233845Y662569D01*
X233908Y662695D01*
X233974Y662819D01*
X234043Y662940D01*
X234116Y663060D01*
X234193Y663178D01*
X234272Y663293D01*
X234355Y663407D01*
X234441Y663517D01*
X234530Y663626D01*
X234622Y663732D01*
X234717Y663835D01*
X234814Y663936D01*
X234915Y664033D01*
X235018Y664128D01*
X235124Y664220D01*
X235233Y664309D01*
X235343Y664395D01*
X235457Y664478D01*
X235572Y664557D01*
X235690Y664634D01*
X235810Y664707D01*
X235931Y664776D01*
X236055Y664842D01*
X236181Y664905D01*
X236308Y664964D01*
X236437Y665019D01*
X236567Y665071D01*
X236699Y665119D01*
X236832Y665164D01*
X236966Y665205D01*
X237101Y665242D01*
X237237Y665275D01*
X237375Y665304D01*
X237512Y665329D01*
X237651Y665351D01*
X237790Y665369D01*
X237930Y665382D01*
X238070Y665392D01*
X238210Y665398D01*
X238350Y665400D01*
X238350Y680800D02*
X238210Y680802D01*
X238070Y680808D01*
X237930Y680818D01*
X237790Y680831D01*
X237651Y680849D01*
X237512Y680871D01*
X237375Y680896D01*
X237237Y680925D01*
X237101Y680958D01*
X236966Y680995D01*
X236832Y681036D01*
X236699Y681081D01*
X236567Y681129D01*
X236437Y681181D01*
X236308Y681236D01*
X236181Y681295D01*
X236055Y681358D01*
X235931Y681424D01*
X235810Y681493D01*
X235690Y681566D01*
X235572Y681643D01*
X235457Y681722D01*
X235343Y681805D01*
X235233Y681891D01*
X235124Y681980D01*
X235018Y682072D01*
X234915Y682167D01*
X234814Y682264D01*
X234717Y682365D01*
X234622Y682468D01*
X234530Y682574D01*
X234441Y682683D01*
X234355Y682793D01*
X234272Y682907D01*
X234193Y683022D01*
X234116Y683140D01*
X234043Y683260D01*
X233974Y683381D01*
X233908Y683505D01*
X233845Y683631D01*
X233786Y683758D01*
X233731Y683887D01*
X233679Y684017D01*
X233631Y684149D01*
X233586Y684282D01*
X233545Y684416D01*
X233508Y684551D01*
X233475Y684687D01*
X233446Y684825D01*
X233421Y684962D01*
X233399Y685101D01*
X233381Y685240D01*
X233368Y685380D01*
X233358Y685520D01*
X233352Y685660D01*
X233350Y685800D01*
X233352Y685940D01*
X233358Y686080D01*
X233368Y686220D01*
X233381Y686360D01*
X233399Y686499D01*
X233421Y686638D01*
X233446Y686775D01*
X233475Y686913D01*
X233508Y687049D01*
X233545Y687184D01*
X233586Y687318D01*
X233631Y687451D01*
X233679Y687583D01*
X233731Y687713D01*
X233786Y687842D01*
X233845Y687969D01*
X233908Y688095D01*
X233974Y688219D01*
X234043Y688340D01*
X234116Y688460D01*
X234193Y688578D01*
X234272Y688693D01*
X234355Y688807D01*
X234441Y688917D01*
X234530Y689026D01*
X234622Y689132D01*
X234717Y689235D01*
X234814Y689336D01*
X234915Y689433D01*
X235018Y689528D01*
X235124Y689620D01*
X235233Y689709D01*
X235343Y689795D01*
X235457Y689878D01*
X235572Y689957D01*
X235690Y690034D01*
X235810Y690107D01*
X235931Y690176D01*
X236055Y690242D01*
X236181Y690305D01*
X236308Y690364D01*
X236437Y690419D01*
X236567Y690471D01*
X236699Y690519D01*
X236832Y690564D01*
X236966Y690605D01*
X237101Y690642D01*
X237237Y690675D01*
X237375Y690704D01*
X237512Y690729D01*
X237651Y690751D01*
X237790Y690769D01*
X237930Y690782D01*
X238070Y690792D01*
X238210Y690798D01*
X238350Y690800D01*
X238350Y706200D02*
X238210Y706202D01*
X238070Y706208D01*
X237930Y706218D01*
X237790Y706231D01*
X237651Y706249D01*
X237512Y706271D01*
X237375Y706296D01*
X237237Y706325D01*
X237101Y706358D01*
X236966Y706395D01*
X236832Y706436D01*
X236699Y706481D01*
X236567Y706529D01*
X236437Y706581D01*
X236308Y706636D01*
X236181Y706695D01*
X236055Y706758D01*
X235931Y706824D01*
X235810Y706893D01*
X235690Y706966D01*
X235572Y707043D01*
X235457Y707122D01*
X235343Y707205D01*
X235233Y707291D01*
X235124Y707380D01*
X235018Y707472D01*
X234915Y707567D01*
X234814Y707664D01*
X234717Y707765D01*
X234622Y707868D01*
X234530Y707974D01*
X234441Y708083D01*
X234355Y708193D01*
X234272Y708307D01*
X234193Y708422D01*
X234116Y708540D01*
X234043Y708660D01*
X233974Y708781D01*
X233908Y708905D01*
X233845Y709031D01*
X233786Y709158D01*
X233731Y709287D01*
X233679Y709417D01*
X233631Y709549D01*
X233586Y709682D01*
X233545Y709816D01*
X233508Y709951D01*
X233475Y710087D01*
X233446Y710225D01*
X233421Y710362D01*
X233399Y710501D01*
X233381Y710640D01*
X233368Y710780D01*
X233358Y710920D01*
X233352Y711060D01*
X233350Y711200D01*
X233352Y711340D01*
X233358Y711480D01*
X233368Y711620D01*
X233381Y711760D01*
X233399Y711899D01*
X233421Y712038D01*
X233446Y712175D01*
X233475Y712313D01*
X233508Y712449D01*
X233545Y712584D01*
X233586Y712718D01*
X233631Y712851D01*
X233679Y712983D01*
X233731Y713113D01*
X233786Y713242D01*
X233845Y713369D01*
X233908Y713495D01*
X233974Y713619D01*
X234043Y713740D01*
X234116Y713860D01*
X234193Y713978D01*
X234272Y714093D01*
X234355Y714207D01*
X234441Y714317D01*
X234530Y714426D01*
X234622Y714532D01*
X234717Y714635D01*
X234814Y714736D01*
X234915Y714833D01*
X235018Y714928D01*
X235124Y715020D01*
X235233Y715109D01*
X235343Y715195D01*
X235457Y715278D01*
X235572Y715357D01*
X235690Y715434D01*
X235810Y715507D01*
X235931Y715576D01*
X236055Y715642D01*
X236181Y715705D01*
X236308Y715764D01*
X236437Y715819D01*
X236567Y715871D01*
X236699Y715919D01*
X236832Y715964D01*
X236966Y716005D01*
X237101Y716042D01*
X237237Y716075D01*
X237375Y716104D01*
X237512Y716129D01*
X237651Y716151D01*
X237790Y716169D01*
X237930Y716182D01*
X238070Y716192D01*
X238210Y716198D01*
X238350Y716200D01*
X28350Y716200D02*
X28490Y716198D01*
X28630Y716192D01*
X28770Y716182D01*
X28910Y716169D01*
X29049Y716151D01*
X29188Y716129D01*
X29325Y716104D01*
X29463Y716075D01*
X29599Y716042D01*
X29734Y716005D01*
X29868Y715964D01*
X30001Y715919D01*
X30133Y715871D01*
X30263Y715819D01*
X30392Y715764D01*
X30519Y715705D01*
X30645Y715642D01*
X30769Y715576D01*
X30890Y715507D01*
X31010Y715434D01*
X31128Y715357D01*
X31243Y715278D01*
X31357Y715195D01*
X31467Y715109D01*
X31576Y715020D01*
X31682Y714928D01*
X31785Y714833D01*
X31886Y714736D01*
X31983Y714635D01*
X32078Y714532D01*
X32170Y714426D01*
X32259Y714317D01*
X32345Y714207D01*
X32428Y714093D01*
X32507Y713978D01*
X32584Y713860D01*
X32657Y713740D01*
X32726Y713619D01*
X32792Y713495D01*
X32855Y713369D01*
X32914Y713242D01*
X32969Y713113D01*
X33021Y712983D01*
X33069Y712851D01*
X33114Y712718D01*
X33155Y712584D01*
X33192Y712449D01*
X33225Y712313D01*
X33254Y712175D01*
X33279Y712038D01*
X33301Y711899D01*
X33319Y711760D01*
X33332Y711620D01*
X33342Y711480D01*
X33348Y711340D01*
X33350Y711200D01*
X33348Y711060D01*
X33342Y710920D01*
X33332Y710780D01*
X33319Y710640D01*
X33301Y710501D01*
X33279Y710362D01*
X33254Y710225D01*
X33225Y710087D01*
X33192Y709951D01*
X33155Y709816D01*
X33114Y709682D01*
X33069Y709549D01*
X33021Y709417D01*
X32969Y709287D01*
X32914Y709158D01*
X32855Y709031D01*
X32792Y708905D01*
X32726Y708781D01*
X32657Y708660D01*
X32584Y708540D01*
X32507Y708422D01*
X32428Y708307D01*
X32345Y708193D01*
X32259Y708083D01*
X32170Y707974D01*
X32078Y707868D01*
X31983Y707765D01*
X31886Y707664D01*
X31785Y707567D01*
X31682Y707472D01*
X31576Y707380D01*
X31467Y707291D01*
X31357Y707205D01*
X31243Y707122D01*
X31128Y707043D01*
X31010Y706966D01*
X30890Y706893D01*
X30769Y706824D01*
X30645Y706758D01*
X30519Y706695D01*
X30392Y706636D01*
X30263Y706581D01*
X30133Y706529D01*
X30001Y706481D01*
X29868Y706436D01*
X29734Y706395D01*
X29599Y706358D01*
X29463Y706325D01*
X29325Y706296D01*
X29188Y706271D01*
X29049Y706249D01*
X28910Y706231D01*
X28770Y706218D01*
X28630Y706208D01*
X28490Y706202D01*
X28350Y706200D01*
X28350Y690800D02*
X28490Y690798D01*
X28630Y690792D01*
X28770Y690782D01*
X28910Y690769D01*
X29049Y690751D01*
X29188Y690729D01*
X29325Y690704D01*
X29463Y690675D01*
X29599Y690642D01*
X29734Y690605D01*
X29868Y690564D01*
X30001Y690519D01*
X30133Y690471D01*
X30263Y690419D01*
X30392Y690364D01*
X30519Y690305D01*
X30645Y690242D01*
X30769Y690176D01*
X30890Y690107D01*
X31010Y690034D01*
X31128Y689957D01*
X31243Y689878D01*
X31357Y689795D01*
X31467Y689709D01*
X31576Y689620D01*
X31682Y689528D01*
X31785Y689433D01*
X31886Y689336D01*
X31983Y689235D01*
X32078Y689132D01*
X32170Y689026D01*
X32259Y688917D01*
X32345Y688807D01*
X32428Y688693D01*
X32507Y688578D01*
X32584Y688460D01*
X32657Y688340D01*
X32726Y688219D01*
X32792Y688095D01*
X32855Y687969D01*
X32914Y687842D01*
X32969Y687713D01*
X33021Y687583D01*
X33069Y687451D01*
X33114Y687318D01*
X33155Y687184D01*
X33192Y687049D01*
X33225Y686913D01*
X33254Y686775D01*
X33279Y686638D01*
X33301Y686499D01*
X33319Y686360D01*
X33332Y686220D01*
X33342Y686080D01*
X33348Y685940D01*
X33350Y685800D01*
X33348Y685660D01*
X33342Y685520D01*
X33332Y685380D01*
X33319Y685240D01*
X33301Y685101D01*
X33279Y684962D01*
X33254Y684825D01*
X33225Y684687D01*
X33192Y684551D01*
X33155Y684416D01*
X33114Y684282D01*
X33069Y684149D01*
X33021Y684017D01*
X32969Y683887D01*
X32914Y683758D01*
X32855Y683631D01*
X32792Y683505D01*
X32726Y683381D01*
X32657Y683260D01*
X32584Y683140D01*
X32507Y683022D01*
X32428Y682907D01*
X32345Y682793D01*
X32259Y682683D01*
X32170Y682574D01*
X32078Y682468D01*
X31983Y682365D01*
X31886Y682264D01*
X31785Y682167D01*
X31682Y682072D01*
X31576Y681980D01*
X31467Y681891D01*
X31357Y681805D01*
X31243Y681722D01*
X31128Y681643D01*
X31010Y681566D01*
X30890Y681493D01*
X30769Y681424D01*
X30645Y681358D01*
X30519Y681295D01*
X30392Y681236D01*
X30263Y681181D01*
X30133Y681129D01*
X30001Y681081D01*
X29868Y681036D01*
X29734Y680995D01*
X29599Y680958D01*
X29463Y680925D01*
X29325Y680896D01*
X29188Y680871D01*
X29049Y680849D01*
X28910Y680831D01*
X28770Y680818D01*
X28630Y680808D01*
X28490Y680802D01*
X28350Y680800D01*
X28350Y665400D02*
X28490Y665398D01*
X28630Y665392D01*
X28770Y665382D01*
X28910Y665369D01*
X29049Y665351D01*
X29188Y665329D01*
X29325Y665304D01*
X29463Y665275D01*
X29599Y665242D01*
X29734Y665205D01*
X29868Y665164D01*
X30001Y665119D01*
X30133Y665071D01*
X30263Y665019D01*
X30392Y664964D01*
X30519Y664905D01*
X30645Y664842D01*
X30769Y664776D01*
X30890Y664707D01*
X31010Y664634D01*
X31128Y664557D01*
X31243Y664478D01*
X31357Y664395D01*
X31467Y664309D01*
X31576Y664220D01*
X31682Y664128D01*
X31785Y664033D01*
X31886Y663936D01*
X31983Y663835D01*
X32078Y663732D01*
X32170Y663626D01*
X32259Y663517D01*
X32345Y663407D01*
X32428Y663293D01*
X32507Y663178D01*
X32584Y663060D01*
X32657Y662940D01*
X32726Y662819D01*
X32792Y662695D01*
X32855Y662569D01*
X32914Y662442D01*
X32969Y662313D01*
X33021Y662183D01*
X33069Y662051D01*
X33114Y661918D01*
X33155Y661784D01*
X33192Y661649D01*
X33225Y661513D01*
X33254Y661375D01*
X33279Y661238D01*
X33301Y661099D01*
X33319Y660960D01*
X33332Y660820D01*
X33342Y660680D01*
X33348Y660540D01*
X33350Y660400D01*
X33348Y660260D01*
X33342Y660120D01*
X33332Y659980D01*
X33319Y659840D01*
X33301Y659701D01*
X33279Y659562D01*
X33254Y659425D01*
X33225Y659287D01*
X33192Y659151D01*
X33155Y659016D01*
X33114Y658882D01*
X33069Y658749D01*
X33021Y658617D01*
X32969Y658487D01*
X32914Y658358D01*
X32855Y658231D01*
X32792Y658105D01*
X32726Y657981D01*
X32657Y657860D01*
X32584Y657740D01*
X32507Y657622D01*
X32428Y657507D01*
X32345Y657393D01*
X32259Y657283D01*
X32170Y657174D01*
X32078Y657068D01*
X31983Y656965D01*
X31886Y656864D01*
X31785Y656767D01*
X31682Y656672D01*
X31576Y656580D01*
X31467Y656491D01*
X31357Y656405D01*
X31243Y656322D01*
X31128Y656243D01*
X31010Y656166D01*
X30890Y656093D01*
X30769Y656024D01*
X30645Y655958D01*
X30519Y655895D01*
X30392Y655836D01*
X30263Y655781D01*
X30133Y655729D01*
X30001Y655681D01*
X29868Y655636D01*
X29734Y655595D01*
X29599Y655558D01*
X29463Y655525D01*
X29325Y655496D01*
X29188Y655471D01*
X29049Y655449D01*
X28910Y655431D01*
X28770Y655418D01*
X28630Y655408D01*
X28490Y655402D01*
X28350Y655400D01*
X28350Y640000D02*
X28490Y639998D01*
X28630Y639992D01*
X28770Y639982D01*
X28910Y639969D01*
X29049Y639951D01*
X29188Y639929D01*
X29325Y639904D01*
X29463Y639875D01*
X29599Y639842D01*
X29734Y639805D01*
X29868Y639764D01*
X30001Y639719D01*
X30133Y639671D01*
X30263Y639619D01*
X30392Y639564D01*
X30519Y639505D01*
X30645Y639442D01*
X30769Y639376D01*
X30890Y639307D01*
X31010Y639234D01*
X31128Y639157D01*
X31243Y639078D01*
X31357Y638995D01*
X31467Y638909D01*
X31576Y638820D01*
X31682Y638728D01*
X31785Y638633D01*
X31886Y638536D01*
X31983Y638435D01*
X32078Y638332D01*
X32170Y638226D01*
X32259Y638117D01*
X32345Y638007D01*
X32428Y637893D01*
X32507Y637778D01*
X32584Y637660D01*
X32657Y637540D01*
X32726Y637419D01*
X32792Y637295D01*
X32855Y637169D01*
X32914Y637042D01*
X32969Y636913D01*
X33021Y636783D01*
X33069Y636651D01*
X33114Y636518D01*
X33155Y636384D01*
X33192Y636249D01*
X33225Y636113D01*
X33254Y635975D01*
X33279Y635838D01*
X33301Y635699D01*
X33319Y635560D01*
X33332Y635420D01*
X33342Y635280D01*
X33348Y635140D01*
X33350Y635000D01*
X33348Y634860D01*
X33342Y634720D01*
X33332Y634580D01*
X33319Y634440D01*
X33301Y634301D01*
X33279Y634162D01*
X33254Y634025D01*
X33225Y633887D01*
X33192Y633751D01*
X33155Y633616D01*
X33114Y633482D01*
X33069Y633349D01*
X33021Y633217D01*
X32969Y633087D01*
X32914Y632958D01*
X32855Y632831D01*
X32792Y632705D01*
X32726Y632581D01*
X32657Y632460D01*
X32584Y632340D01*
X32507Y632222D01*
X32428Y632107D01*
X32345Y631993D01*
X32259Y631883D01*
X32170Y631774D01*
X32078Y631668D01*
X31983Y631565D01*
X31886Y631464D01*
X31785Y631367D01*
X31682Y631272D01*
X31576Y631180D01*
X31467Y631091D01*
X31357Y631005D01*
X31243Y630922D01*
X31128Y630843D01*
X31010Y630766D01*
X30890Y630693D01*
X30769Y630624D01*
X30645Y630558D01*
X30519Y630495D01*
X30392Y630436D01*
X30263Y630381D01*
X30133Y630329D01*
X30001Y630281D01*
X29868Y630236D01*
X29734Y630195D01*
X29599Y630158D01*
X29463Y630125D01*
X29325Y630096D01*
X29188Y630071D01*
X29049Y630049D01*
X28910Y630031D01*
X28770Y630018D01*
X28630Y630008D01*
X28490Y630002D01*
X28350Y630000D01*
X28350Y614600D02*
X28490Y614598D01*
X28630Y614592D01*
X28770Y614582D01*
X28910Y614569D01*
X29049Y614551D01*
X29188Y614529D01*
X29325Y614504D01*
X29463Y614475D01*
X29599Y614442D01*
X29734Y614405D01*
X29868Y614364D01*
X30001Y614319D01*
X30133Y614271D01*
X30263Y614219D01*
X30392Y614164D01*
X30519Y614105D01*
X30645Y614042D01*
X30769Y613976D01*
X30890Y613907D01*
X31010Y613834D01*
X31128Y613757D01*
X31243Y613678D01*
X31357Y613595D01*
X31467Y613509D01*
X31576Y613420D01*
X31682Y613328D01*
X31785Y613233D01*
X31886Y613136D01*
X31983Y613035D01*
X32078Y612932D01*
X32170Y612826D01*
X32259Y612717D01*
X32345Y612607D01*
X32428Y612493D01*
X32507Y612378D01*
X32584Y612260D01*
X32657Y612140D01*
X32726Y612019D01*
X32792Y611895D01*
X32855Y611769D01*
X32914Y611642D01*
X32969Y611513D01*
X33021Y611383D01*
X33069Y611251D01*
X33114Y611118D01*
X33155Y610984D01*
X33192Y610849D01*
X33225Y610713D01*
X33254Y610575D01*
X33279Y610438D01*
X33301Y610299D01*
X33319Y610160D01*
X33332Y610020D01*
X33342Y609880D01*
X33348Y609740D01*
X33350Y609600D01*
X33348Y609460D01*
X33342Y609320D01*
X33332Y609180D01*
X33319Y609040D01*
X33301Y608901D01*
X33279Y608762D01*
X33254Y608625D01*
X33225Y608487D01*
X33192Y608351D01*
X33155Y608216D01*
X33114Y608082D01*
X33069Y607949D01*
X33021Y607817D01*
X32969Y607687D01*
X32914Y607558D01*
X32855Y607431D01*
X32792Y607305D01*
X32726Y607181D01*
X32657Y607060D01*
X32584Y606940D01*
X32507Y606822D01*
X32428Y606707D01*
X32345Y606593D01*
X32259Y606483D01*
X32170Y606374D01*
X32078Y606268D01*
X31983Y606165D01*
X31886Y606064D01*
X31785Y605967D01*
X31682Y605872D01*
X31576Y605780D01*
X31467Y605691D01*
X31357Y605605D01*
X31243Y605522D01*
X31128Y605443D01*
X31010Y605366D01*
X30890Y605293D01*
X30769Y605224D01*
X30645Y605158D01*
X30519Y605095D01*
X30392Y605036D01*
X30263Y604981D01*
X30133Y604929D01*
X30001Y604881D01*
X29868Y604836D01*
X29734Y604795D01*
X29599Y604758D01*
X29463Y604725D01*
X29325Y604696D01*
X29188Y604671D01*
X29049Y604649D01*
X28910Y604631D01*
X28770Y604618D01*
X28630Y604608D01*
X28490Y604602D01*
X28350Y604600D01*
X28350Y589200D02*
X28490Y589198D01*
X28630Y589192D01*
X28770Y589182D01*
X28910Y589169D01*
X29049Y589151D01*
X29188Y589129D01*
X29325Y589104D01*
X29463Y589075D01*
X29599Y589042D01*
X29734Y589005D01*
X29868Y588964D01*
X30001Y588919D01*
X30133Y588871D01*
X30263Y588819D01*
X30392Y588764D01*
X30519Y588705D01*
X30645Y588642D01*
X30769Y588576D01*
X30890Y588507D01*
X31010Y588434D01*
X31128Y588357D01*
X31243Y588278D01*
X31357Y588195D01*
X31467Y588109D01*
X31576Y588020D01*
X31682Y587928D01*
X31785Y587833D01*
X31886Y587736D01*
X31983Y587635D01*
X32078Y587532D01*
X32170Y587426D01*
X32259Y587317D01*
X32345Y587207D01*
X32428Y587093D01*
X32507Y586978D01*
X32584Y586860D01*
X32657Y586740D01*
X32726Y586619D01*
X32792Y586495D01*
X32855Y586369D01*
X32914Y586242D01*
X32969Y586113D01*
X33021Y585983D01*
X33069Y585851D01*
X33114Y585718D01*
X33155Y585584D01*
X33192Y585449D01*
X33225Y585313D01*
X33254Y585175D01*
X33279Y585038D01*
X33301Y584899D01*
X33319Y584760D01*
X33332Y584620D01*
X33342Y584480D01*
X33348Y584340D01*
X33350Y584200D01*
X33348Y584060D01*
X33342Y583920D01*
X33332Y583780D01*
X33319Y583640D01*
X33301Y583501D01*
X33279Y583362D01*
X33254Y583225D01*
X33225Y583087D01*
X33192Y582951D01*
X33155Y582816D01*
X33114Y582682D01*
X33069Y582549D01*
X33021Y582417D01*
X32969Y582287D01*
X32914Y582158D01*
X32855Y582031D01*
X32792Y581905D01*
X32726Y581781D01*
X32657Y581660D01*
X32584Y581540D01*
X32507Y581422D01*
X32428Y581307D01*
X32345Y581193D01*
X32259Y581083D01*
X32170Y580974D01*
X32078Y580868D01*
X31983Y580765D01*
X31886Y580664D01*
X31785Y580567D01*
X31682Y580472D01*
X31576Y580380D01*
X31467Y580291D01*
X31357Y580205D01*
X31243Y580122D01*
X31128Y580043D01*
X31010Y579966D01*
X30890Y579893D01*
X30769Y579824D01*
X30645Y579758D01*
X30519Y579695D01*
X30392Y579636D01*
X30263Y579581D01*
X30133Y579529D01*
X30001Y579481D01*
X29868Y579436D01*
X29734Y579395D01*
X29599Y579358D01*
X29463Y579325D01*
X29325Y579296D01*
X29188Y579271D01*
X29049Y579249D01*
X28910Y579231D01*
X28770Y579218D01*
X28630Y579208D01*
X28490Y579202D01*
X28350Y579200D01*
X28350Y563800D02*
X28490Y563798D01*
X28630Y563792D01*
X28770Y563782D01*
X28910Y563769D01*
X29049Y563751D01*
X29188Y563729D01*
X29325Y563704D01*
X29463Y563675D01*
X29599Y563642D01*
X29734Y563605D01*
X29868Y563564D01*
X30001Y563519D01*
X30133Y563471D01*
X30263Y563419D01*
X30392Y563364D01*
X30519Y563305D01*
X30645Y563242D01*
X30769Y563176D01*
X30890Y563107D01*
X31010Y563034D01*
X31128Y562957D01*
X31243Y562878D01*
X31357Y562795D01*
X31467Y562709D01*
X31576Y562620D01*
X31682Y562528D01*
X31785Y562433D01*
X31886Y562336D01*
X31983Y562235D01*
X32078Y562132D01*
X32170Y562026D01*
X32259Y561917D01*
X32345Y561807D01*
X32428Y561693D01*
X32507Y561578D01*
X32584Y561460D01*
X32657Y561340D01*
X32726Y561219D01*
X32792Y561095D01*
X32855Y560969D01*
X32914Y560842D01*
X32969Y560713D01*
X33021Y560583D01*
X33069Y560451D01*
X33114Y560318D01*
X33155Y560184D01*
X33192Y560049D01*
X33225Y559913D01*
X33254Y559775D01*
X33279Y559638D01*
X33301Y559499D01*
X33319Y559360D01*
X33332Y559220D01*
X33342Y559080D01*
X33348Y558940D01*
X33350Y558800D01*
X33348Y558660D01*
X33342Y558520D01*
X33332Y558380D01*
X33319Y558240D01*
X33301Y558101D01*
X33279Y557962D01*
X33254Y557825D01*
X33225Y557687D01*
X33192Y557551D01*
X33155Y557416D01*
X33114Y557282D01*
X33069Y557149D01*
X33021Y557017D01*
X32969Y556887D01*
X32914Y556758D01*
X32855Y556631D01*
X32792Y556505D01*
X32726Y556381D01*
X32657Y556260D01*
X32584Y556140D01*
X32507Y556022D01*
X32428Y555907D01*
X32345Y555793D01*
X32259Y555683D01*
X32170Y555574D01*
X32078Y555468D01*
X31983Y555365D01*
X31886Y555264D01*
X31785Y555167D01*
X31682Y555072D01*
X31576Y554980D01*
X31467Y554891D01*
X31357Y554805D01*
X31243Y554722D01*
X31128Y554643D01*
X31010Y554566D01*
X30890Y554493D01*
X30769Y554424D01*
X30645Y554358D01*
X30519Y554295D01*
X30392Y554236D01*
X30263Y554181D01*
X30133Y554129D01*
X30001Y554081D01*
X29868Y554036D01*
X29734Y553995D01*
X29599Y553958D01*
X29463Y553925D01*
X29325Y553896D01*
X29188Y553871D01*
X29049Y553849D01*
X28910Y553831D01*
X28770Y553818D01*
X28630Y553808D01*
X28490Y553802D01*
X28350Y553800D01*
X28350Y538400D02*
X28490Y538398D01*
X28630Y538392D01*
X28770Y538382D01*
X28910Y538369D01*
X29049Y538351D01*
X29188Y538329D01*
X29325Y538304D01*
X29463Y538275D01*
X29599Y538242D01*
X29734Y538205D01*
X29868Y538164D01*
X30001Y538119D01*
X30133Y538071D01*
X30263Y538019D01*
X30392Y537964D01*
X30519Y537905D01*
X30645Y537842D01*
X30769Y537776D01*
X30890Y537707D01*
X31010Y537634D01*
X31128Y537557D01*
X31243Y537478D01*
X31357Y537395D01*
X31467Y537309D01*
X31576Y537220D01*
X31682Y537128D01*
X31785Y537033D01*
X31886Y536936D01*
X31983Y536835D01*
X32078Y536732D01*
X32170Y536626D01*
X32259Y536517D01*
X32345Y536407D01*
X32428Y536293D01*
X32507Y536178D01*
X32584Y536060D01*
X32657Y535940D01*
X32726Y535819D01*
X32792Y535695D01*
X32855Y535569D01*
X32914Y535442D01*
X32969Y535313D01*
X33021Y535183D01*
X33069Y535051D01*
X33114Y534918D01*
X33155Y534784D01*
X33192Y534649D01*
X33225Y534513D01*
X33254Y534375D01*
X33279Y534238D01*
X33301Y534099D01*
X33319Y533960D01*
X33332Y533820D01*
X33342Y533680D01*
X33348Y533540D01*
X33350Y533400D01*
X33348Y533260D01*
X33342Y533120D01*
X33332Y532980D01*
X33319Y532840D01*
X33301Y532701D01*
X33279Y532562D01*
X33254Y532425D01*
X33225Y532287D01*
X33192Y532151D01*
X33155Y532016D01*
X33114Y531882D01*
X33069Y531749D01*
X33021Y531617D01*
X32969Y531487D01*
X32914Y531358D01*
X32855Y531231D01*
X32792Y531105D01*
X32726Y530981D01*
X32657Y530860D01*
X32584Y530740D01*
X32507Y530622D01*
X32428Y530507D01*
X32345Y530393D01*
X32259Y530283D01*
X32170Y530174D01*
X32078Y530068D01*
X31983Y529965D01*
X31886Y529864D01*
X31785Y529767D01*
X31682Y529672D01*
X31576Y529580D01*
X31467Y529491D01*
X31357Y529405D01*
X31243Y529322D01*
X31128Y529243D01*
X31010Y529166D01*
X30890Y529093D01*
X30769Y529024D01*
X30645Y528958D01*
X30519Y528895D01*
X30392Y528836D01*
X30263Y528781D01*
X30133Y528729D01*
X30001Y528681D01*
X29868Y528636D01*
X29734Y528595D01*
X29599Y528558D01*
X29463Y528525D01*
X29325Y528496D01*
X29188Y528471D01*
X29049Y528449D01*
X28910Y528431D01*
X28770Y528418D01*
X28630Y528408D01*
X28490Y528402D01*
X28350Y528400D01*
X28350Y513000D02*
X28490Y512998D01*
X28630Y512992D01*
X28770Y512982D01*
X28910Y512969D01*
X29049Y512951D01*
X29188Y512929D01*
X29325Y512904D01*
X29463Y512875D01*
X29599Y512842D01*
X29734Y512805D01*
X29868Y512764D01*
X30001Y512719D01*
X30133Y512671D01*
X30263Y512619D01*
X30392Y512564D01*
X30519Y512505D01*
X30645Y512442D01*
X30769Y512376D01*
X30890Y512307D01*
X31010Y512234D01*
X31128Y512157D01*
X31243Y512078D01*
X31357Y511995D01*
X31467Y511909D01*
X31576Y511820D01*
X31682Y511728D01*
X31785Y511633D01*
X31886Y511536D01*
X31983Y511435D01*
X32078Y511332D01*
X32170Y511226D01*
X32259Y511117D01*
X32345Y511007D01*
X32428Y510893D01*
X32507Y510778D01*
X32584Y510660D01*
X32657Y510540D01*
X32726Y510419D01*
X32792Y510295D01*
X32855Y510169D01*
X32914Y510042D01*
X32969Y509913D01*
X33021Y509783D01*
X33069Y509651D01*
X33114Y509518D01*
X33155Y509384D01*
X33192Y509249D01*
X33225Y509113D01*
X33254Y508975D01*
X33279Y508838D01*
X33301Y508699D01*
X33319Y508560D01*
X33332Y508420D01*
X33342Y508280D01*
X33348Y508140D01*
X33350Y508000D01*
X33348Y507860D01*
X33342Y507720D01*
X33332Y507580D01*
X33319Y507440D01*
X33301Y507301D01*
X33279Y507162D01*
X33254Y507025D01*
X33225Y506887D01*
X33192Y506751D01*
X33155Y506616D01*
X33114Y506482D01*
X33069Y506349D01*
X33021Y506217D01*
X32969Y506087D01*
X32914Y505958D01*
X32855Y505831D01*
X32792Y505705D01*
X32726Y505581D01*
X32657Y505460D01*
X32584Y505340D01*
X32507Y505222D01*
X32428Y505107D01*
X32345Y504993D01*
X32259Y504883D01*
X32170Y504774D01*
X32078Y504668D01*
X31983Y504565D01*
X31886Y504464D01*
X31785Y504367D01*
X31682Y504272D01*
X31576Y504180D01*
X31467Y504091D01*
X31357Y504005D01*
X31243Y503922D01*
X31128Y503843D01*
X31010Y503766D01*
X30890Y503693D01*
X30769Y503624D01*
X30645Y503558D01*
X30519Y503495D01*
X30392Y503436D01*
X30263Y503381D01*
X30133Y503329D01*
X30001Y503281D01*
X29868Y503236D01*
X29734Y503195D01*
X29599Y503158D01*
X29463Y503125D01*
X29325Y503096D01*
X29188Y503071D01*
X29049Y503049D01*
X28910Y503031D01*
X28770Y503018D01*
X28630Y503008D01*
X28490Y503002D01*
X28350Y503000D01*
X28350Y487600D02*
X28490Y487598D01*
X28630Y487592D01*
X28770Y487582D01*
X28910Y487569D01*
X29049Y487551D01*
X29188Y487529D01*
X29325Y487504D01*
X29463Y487475D01*
X29599Y487442D01*
X29734Y487405D01*
X29868Y487364D01*
X30001Y487319D01*
X30133Y487271D01*
X30263Y487219D01*
X30392Y487164D01*
X30519Y487105D01*
X30645Y487042D01*
X30769Y486976D01*
X30890Y486907D01*
X31010Y486834D01*
X31128Y486757D01*
X31243Y486678D01*
X31357Y486595D01*
X31467Y486509D01*
X31576Y486420D01*
X31682Y486328D01*
X31785Y486233D01*
X31886Y486136D01*
X31983Y486035D01*
X32078Y485932D01*
X32170Y485826D01*
X32259Y485717D01*
X32345Y485607D01*
X32428Y485493D01*
X32507Y485378D01*
X32584Y485260D01*
X32657Y485140D01*
X32726Y485019D01*
X32792Y484895D01*
X32855Y484769D01*
X32914Y484642D01*
X32969Y484513D01*
X33021Y484383D01*
X33069Y484251D01*
X33114Y484118D01*
X33155Y483984D01*
X33192Y483849D01*
X33225Y483713D01*
X33254Y483575D01*
X33279Y483438D01*
X33301Y483299D01*
X33319Y483160D01*
X33332Y483020D01*
X33342Y482880D01*
X33348Y482740D01*
X33350Y482600D01*
X33348Y482460D01*
X33342Y482320D01*
X33332Y482180D01*
X33319Y482040D01*
X33301Y481901D01*
X33279Y481762D01*
X33254Y481625D01*
X33225Y481487D01*
X33192Y481351D01*
X33155Y481216D01*
X33114Y481082D01*
X33069Y480949D01*
X33021Y480817D01*
X32969Y480687D01*
X32914Y480558D01*
X32855Y480431D01*
X32792Y480305D01*
X32726Y480181D01*
X32657Y480060D01*
X32584Y479940D01*
X32507Y479822D01*
X32428Y479707D01*
X32345Y479593D01*
X32259Y479483D01*
X32170Y479374D01*
X32078Y479268D01*
X31983Y479165D01*
X31886Y479064D01*
X31785Y478967D01*
X31682Y478872D01*
X31576Y478780D01*
X31467Y478691D01*
X31357Y478605D01*
X31243Y478522D01*
X31128Y478443D01*
X31010Y478366D01*
X30890Y478293D01*
X30769Y478224D01*
X30645Y478158D01*
X30519Y478095D01*
X30392Y478036D01*
X30263Y477981D01*
X30133Y477929D01*
X30001Y477881D01*
X29868Y477836D01*
X29734Y477795D01*
X29599Y477758D01*
X29463Y477725D01*
X29325Y477696D01*
X29188Y477671D01*
X29049Y477649D01*
X28910Y477631D01*
X28770Y477618D01*
X28630Y477608D01*
X28490Y477602D01*
X28350Y477600D01*
X28350Y462200D02*
X28490Y462198D01*
X28630Y462192D01*
X28770Y462182D01*
X28910Y462169D01*
X29049Y462151D01*
X29188Y462129D01*
X29325Y462104D01*
X29463Y462075D01*
X29599Y462042D01*
X29734Y462005D01*
X29868Y461964D01*
X30001Y461919D01*
X30133Y461871D01*
X30263Y461819D01*
X30392Y461764D01*
X30519Y461705D01*
X30645Y461642D01*
X30769Y461576D01*
X30890Y461507D01*
X31010Y461434D01*
X31128Y461357D01*
X31243Y461278D01*
X31357Y461195D01*
X31467Y461109D01*
X31576Y461020D01*
X31682Y460928D01*
X31785Y460833D01*
X31886Y460736D01*
X31983Y460635D01*
X32078Y460532D01*
X32170Y460426D01*
X32259Y460317D01*
X32345Y460207D01*
X32428Y460093D01*
X32507Y459978D01*
X32584Y459860D01*
X32657Y459740D01*
X32726Y459619D01*
X32792Y459495D01*
X32855Y459369D01*
X32914Y459242D01*
X32969Y459113D01*
X33021Y458983D01*
X33069Y458851D01*
X33114Y458718D01*
X33155Y458584D01*
X33192Y458449D01*
X33225Y458313D01*
X33254Y458175D01*
X33279Y458038D01*
X33301Y457899D01*
X33319Y457760D01*
X33332Y457620D01*
X33342Y457480D01*
X33348Y457340D01*
X33350Y457200D01*
X33348Y457060D01*
X33342Y456920D01*
X33332Y456780D01*
X33319Y456640D01*
X33301Y456501D01*
X33279Y456362D01*
X33254Y456225D01*
X33225Y456087D01*
X33192Y455951D01*
X33155Y455816D01*
X33114Y455682D01*
X33069Y455549D01*
X33021Y455417D01*
X32969Y455287D01*
X32914Y455158D01*
X32855Y455031D01*
X32792Y454905D01*
X32726Y454781D01*
X32657Y454660D01*
X32584Y454540D01*
X32507Y454422D01*
X32428Y454307D01*
X32345Y454193D01*
X32259Y454083D01*
X32170Y453974D01*
X32078Y453868D01*
X31983Y453765D01*
X31886Y453664D01*
X31785Y453567D01*
X31682Y453472D01*
X31576Y453380D01*
X31467Y453291D01*
X31357Y453205D01*
X31243Y453122D01*
X31128Y453043D01*
X31010Y452966D01*
X30890Y452893D01*
X30769Y452824D01*
X30645Y452758D01*
X30519Y452695D01*
X30392Y452636D01*
X30263Y452581D01*
X30133Y452529D01*
X30001Y452481D01*
X29868Y452436D01*
X29734Y452395D01*
X29599Y452358D01*
X29463Y452325D01*
X29325Y452296D01*
X29188Y452271D01*
X29049Y452249D01*
X28910Y452231D01*
X28770Y452218D01*
X28630Y452208D01*
X28490Y452202D01*
X28350Y452200D01*
X28350Y436800D02*
X28490Y436798D01*
X28630Y436792D01*
X28770Y436782D01*
X28910Y436769D01*
X29049Y436751D01*
X29188Y436729D01*
X29325Y436704D01*
X29463Y436675D01*
X29599Y436642D01*
X29734Y436605D01*
X29868Y436564D01*
X30001Y436519D01*
X30133Y436471D01*
X30263Y436419D01*
X30392Y436364D01*
X30519Y436305D01*
X30645Y436242D01*
X30769Y436176D01*
X30890Y436107D01*
X31010Y436034D01*
X31128Y435957D01*
X31243Y435878D01*
X31357Y435795D01*
X31467Y435709D01*
X31576Y435620D01*
X31682Y435528D01*
X31785Y435433D01*
X31886Y435336D01*
X31983Y435235D01*
X32078Y435132D01*
X32170Y435026D01*
X32259Y434917D01*
X32345Y434807D01*
X32428Y434693D01*
X32507Y434578D01*
X32584Y434460D01*
X32657Y434340D01*
X32726Y434219D01*
X32792Y434095D01*
X32855Y433969D01*
X32914Y433842D01*
X32969Y433713D01*
X33021Y433583D01*
X33069Y433451D01*
X33114Y433318D01*
X33155Y433184D01*
X33192Y433049D01*
X33225Y432913D01*
X33254Y432775D01*
X33279Y432638D01*
X33301Y432499D01*
X33319Y432360D01*
X33332Y432220D01*
X33342Y432080D01*
X33348Y431940D01*
X33350Y431800D01*
X33348Y431660D01*
X33342Y431520D01*
X33332Y431380D01*
X33319Y431240D01*
X33301Y431101D01*
X33279Y430962D01*
X33254Y430825D01*
X33225Y430687D01*
X33192Y430551D01*
X33155Y430416D01*
X33114Y430282D01*
X33069Y430149D01*
X33021Y430017D01*
X32969Y429887D01*
X32914Y429758D01*
X32855Y429631D01*
X32792Y429505D01*
X32726Y429381D01*
X32657Y429260D01*
X32584Y429140D01*
X32507Y429022D01*
X32428Y428907D01*
X32345Y428793D01*
X32259Y428683D01*
X32170Y428574D01*
X32078Y428468D01*
X31983Y428365D01*
X31886Y428264D01*
X31785Y428167D01*
X31682Y428072D01*
X31576Y427980D01*
X31467Y427891D01*
X31357Y427805D01*
X31243Y427722D01*
X31128Y427643D01*
X31010Y427566D01*
X30890Y427493D01*
X30769Y427424D01*
X30645Y427358D01*
X30519Y427295D01*
X30392Y427236D01*
X30263Y427181D01*
X30133Y427129D01*
X30001Y427081D01*
X29868Y427036D01*
X29734Y426995D01*
X29599Y426958D01*
X29463Y426925D01*
X29325Y426896D01*
X29188Y426871D01*
X29049Y426849D01*
X28910Y426831D01*
X28770Y426818D01*
X28630Y426808D01*
X28490Y426802D01*
X28350Y426800D01*
X28350Y411400D02*
X28490Y411398D01*
X28630Y411392D01*
X28770Y411382D01*
X28910Y411369D01*
X29049Y411351D01*
X29188Y411329D01*
X29325Y411304D01*
X29463Y411275D01*
X29599Y411242D01*
X29734Y411205D01*
X29868Y411164D01*
X30001Y411119D01*
X30133Y411071D01*
X30263Y411019D01*
X30392Y410964D01*
X30519Y410905D01*
X30645Y410842D01*
X30769Y410776D01*
X30890Y410707D01*
X31010Y410634D01*
X31128Y410557D01*
X31243Y410478D01*
X31357Y410395D01*
X31467Y410309D01*
X31576Y410220D01*
X31682Y410128D01*
X31785Y410033D01*
X31886Y409936D01*
X31983Y409835D01*
X32078Y409732D01*
X32170Y409626D01*
X32259Y409517D01*
X32345Y409407D01*
X32428Y409293D01*
X32507Y409178D01*
X32584Y409060D01*
X32657Y408940D01*
X32726Y408819D01*
X32792Y408695D01*
X32855Y408569D01*
X32914Y408442D01*
X32969Y408313D01*
X33021Y408183D01*
X33069Y408051D01*
X33114Y407918D01*
X33155Y407784D01*
X33192Y407649D01*
X33225Y407513D01*
X33254Y407375D01*
X33279Y407238D01*
X33301Y407099D01*
X33319Y406960D01*
X33332Y406820D01*
X33342Y406680D01*
X33348Y406540D01*
X33350Y406400D01*
X33348Y406260D01*
X33342Y406120D01*
X33332Y405980D01*
X33319Y405840D01*
X33301Y405701D01*
X33279Y405562D01*
X33254Y405425D01*
X33225Y405287D01*
X33192Y405151D01*
X33155Y405016D01*
X33114Y404882D01*
X33069Y404749D01*
X33021Y404617D01*
X32969Y404487D01*
X32914Y404358D01*
X32855Y404231D01*
X32792Y404105D01*
X32726Y403981D01*
X32657Y403860D01*
X32584Y403740D01*
X32507Y403622D01*
X32428Y403507D01*
X32345Y403393D01*
X32259Y403283D01*
X32170Y403174D01*
X32078Y403068D01*
X31983Y402965D01*
X31886Y402864D01*
X31785Y402767D01*
X31682Y402672D01*
X31576Y402580D01*
X31467Y402491D01*
X31357Y402405D01*
X31243Y402322D01*
X31128Y402243D01*
X31010Y402166D01*
X30890Y402093D01*
X30769Y402024D01*
X30645Y401958D01*
X30519Y401895D01*
X30392Y401836D01*
X30263Y401781D01*
X30133Y401729D01*
X30001Y401681D01*
X29868Y401636D01*
X29734Y401595D01*
X29599Y401558D01*
X29463Y401525D01*
X29325Y401496D01*
X29188Y401471D01*
X29049Y401449D01*
X28910Y401431D01*
X28770Y401418D01*
X28630Y401408D01*
X28490Y401402D01*
X28350Y401400D01*
X28350Y386000D02*
X28490Y385998D01*
X28630Y385992D01*
X28770Y385982D01*
X28910Y385969D01*
X29049Y385951D01*
X29188Y385929D01*
X29325Y385904D01*
X29463Y385875D01*
X29599Y385842D01*
X29734Y385805D01*
X29868Y385764D01*
X30001Y385719D01*
X30133Y385671D01*
X30263Y385619D01*
X30392Y385564D01*
X30519Y385505D01*
X30645Y385442D01*
X30769Y385376D01*
X30890Y385307D01*
X31010Y385234D01*
X31128Y385157D01*
X31243Y385078D01*
X31357Y384995D01*
X31467Y384909D01*
X31576Y384820D01*
X31682Y384728D01*
X31785Y384633D01*
X31886Y384536D01*
X31983Y384435D01*
X32078Y384332D01*
X32170Y384226D01*
X32259Y384117D01*
X32345Y384007D01*
X32428Y383893D01*
X32507Y383778D01*
X32584Y383660D01*
X32657Y383540D01*
X32726Y383419D01*
X32792Y383295D01*
X32855Y383169D01*
X32914Y383042D01*
X32969Y382913D01*
X33021Y382783D01*
X33069Y382651D01*
X33114Y382518D01*
X33155Y382384D01*
X33192Y382249D01*
X33225Y382113D01*
X33254Y381975D01*
X33279Y381838D01*
X33301Y381699D01*
X33319Y381560D01*
X33332Y381420D01*
X33342Y381280D01*
X33348Y381140D01*
X33350Y381000D01*
X33348Y380860D01*
X33342Y380720D01*
X33332Y380580D01*
X33319Y380440D01*
X33301Y380301D01*
X33279Y380162D01*
X33254Y380025D01*
X33225Y379887D01*
X33192Y379751D01*
X33155Y379616D01*
X33114Y379482D01*
X33069Y379349D01*
X33021Y379217D01*
X32969Y379087D01*
X32914Y378958D01*
X32855Y378831D01*
X32792Y378705D01*
X32726Y378581D01*
X32657Y378460D01*
X32584Y378340D01*
X32507Y378222D01*
X32428Y378107D01*
X32345Y377993D01*
X32259Y377883D01*
X32170Y377774D01*
X32078Y377668D01*
X31983Y377565D01*
X31886Y377464D01*
X31785Y377367D01*
X31682Y377272D01*
X31576Y377180D01*
X31467Y377091D01*
X31357Y377005D01*
X31243Y376922D01*
X31128Y376843D01*
X31010Y376766D01*
X30890Y376693D01*
X30769Y376624D01*
X30645Y376558D01*
X30519Y376495D01*
X30392Y376436D01*
X30263Y376381D01*
X30133Y376329D01*
X30001Y376281D01*
X29868Y376236D01*
X29734Y376195D01*
X29599Y376158D01*
X29463Y376125D01*
X29325Y376096D01*
X29188Y376071D01*
X29049Y376049D01*
X28910Y376031D01*
X28770Y376018D01*
X28630Y376008D01*
X28490Y376002D01*
X28350Y376000D01*
X28350Y360600D02*
X28490Y360598D01*
X28630Y360592D01*
X28770Y360582D01*
X28910Y360569D01*
X29049Y360551D01*
X29188Y360529D01*
X29325Y360504D01*
X29463Y360475D01*
X29599Y360442D01*
X29734Y360405D01*
X29868Y360364D01*
X30001Y360319D01*
X30133Y360271D01*
X30263Y360219D01*
X30392Y360164D01*
X30519Y360105D01*
X30645Y360042D01*
X30769Y359976D01*
X30890Y359907D01*
X31010Y359834D01*
X31128Y359757D01*
X31243Y359678D01*
X31357Y359595D01*
X31467Y359509D01*
X31576Y359420D01*
X31682Y359328D01*
X31785Y359233D01*
X31886Y359136D01*
X31983Y359035D01*
X32078Y358932D01*
X32170Y358826D01*
X32259Y358717D01*
X32345Y358607D01*
X32428Y358493D01*
X32507Y358378D01*
X32584Y358260D01*
X32657Y358140D01*
X32726Y358019D01*
X32792Y357895D01*
X32855Y357769D01*
X32914Y357642D01*
X32969Y357513D01*
X33021Y357383D01*
X33069Y357251D01*
X33114Y357118D01*
X33155Y356984D01*
X33192Y356849D01*
X33225Y356713D01*
X33254Y356575D01*
X33279Y356438D01*
X33301Y356299D01*
X33319Y356160D01*
X33332Y356020D01*
X33342Y355880D01*
X33348Y355740D01*
X33350Y355600D01*
X33348Y355460D01*
X33342Y355320D01*
X33332Y355180D01*
X33319Y355040D01*
X33301Y354901D01*
X33279Y354762D01*
X33254Y354625D01*
X33225Y354487D01*
X33192Y354351D01*
X33155Y354216D01*
X33114Y354082D01*
X33069Y353949D01*
X33021Y353817D01*
X32969Y353687D01*
X32914Y353558D01*
X32855Y353431D01*
X32792Y353305D01*
X32726Y353181D01*
X32657Y353060D01*
X32584Y352940D01*
X32507Y352822D01*
X32428Y352707D01*
X32345Y352593D01*
X32259Y352483D01*
X32170Y352374D01*
X32078Y352268D01*
X31983Y352165D01*
X31886Y352064D01*
X31785Y351967D01*
X31682Y351872D01*
X31576Y351780D01*
X31467Y351691D01*
X31357Y351605D01*
X31243Y351522D01*
X31128Y351443D01*
X31010Y351366D01*
X30890Y351293D01*
X30769Y351224D01*
X30645Y351158D01*
X30519Y351095D01*
X30392Y351036D01*
X30263Y350981D01*
X30133Y350929D01*
X30001Y350881D01*
X29868Y350836D01*
X29734Y350795D01*
X29599Y350758D01*
X29463Y350725D01*
X29325Y350696D01*
X29188Y350671D01*
X29049Y350649D01*
X28910Y350631D01*
X28770Y350618D01*
X28630Y350608D01*
X28490Y350602D01*
X28350Y350600D01*
X28350Y335200D02*
X28490Y335198D01*
X28630Y335192D01*
X28770Y335182D01*
X28910Y335169D01*
X29049Y335151D01*
X29188Y335129D01*
X29325Y335104D01*
X29463Y335075D01*
X29599Y335042D01*
X29734Y335005D01*
X29868Y334964D01*
X30001Y334919D01*
X30133Y334871D01*
X30263Y334819D01*
X30392Y334764D01*
X30519Y334705D01*
X30645Y334642D01*
X30769Y334576D01*
X30890Y334507D01*
X31010Y334434D01*
X31128Y334357D01*
X31243Y334278D01*
X31357Y334195D01*
X31467Y334109D01*
X31576Y334020D01*
X31682Y333928D01*
X31785Y333833D01*
X31886Y333736D01*
X31983Y333635D01*
X32078Y333532D01*
X32170Y333426D01*
X32259Y333317D01*
X32345Y333207D01*
X32428Y333093D01*
X32507Y332978D01*
X32584Y332860D01*
X32657Y332740D01*
X32726Y332619D01*
X32792Y332495D01*
X32855Y332369D01*
X32914Y332242D01*
X32969Y332113D01*
X33021Y331983D01*
X33069Y331851D01*
X33114Y331718D01*
X33155Y331584D01*
X33192Y331449D01*
X33225Y331313D01*
X33254Y331175D01*
X33279Y331038D01*
X33301Y330899D01*
X33319Y330760D01*
X33332Y330620D01*
X33342Y330480D01*
X33348Y330340D01*
X33350Y330200D01*
X33348Y330060D01*
X33342Y329920D01*
X33332Y329780D01*
X33319Y329640D01*
X33301Y329501D01*
X33279Y329362D01*
X33254Y329225D01*
X33225Y329087D01*
X33192Y328951D01*
X33155Y328816D01*
X33114Y328682D01*
X33069Y328549D01*
X33021Y328417D01*
X32969Y328287D01*
X32914Y328158D01*
X32855Y328031D01*
X32792Y327905D01*
X32726Y327781D01*
X32657Y327660D01*
X32584Y327540D01*
X32507Y327422D01*
X32428Y327307D01*
X32345Y327193D01*
X32259Y327083D01*
X32170Y326974D01*
X32078Y326868D01*
X31983Y326765D01*
X31886Y326664D01*
X31785Y326567D01*
X31682Y326472D01*
X31576Y326380D01*
X31467Y326291D01*
X31357Y326205D01*
X31243Y326122D01*
X31128Y326043D01*
X31010Y325966D01*
X30890Y325893D01*
X30769Y325824D01*
X30645Y325758D01*
X30519Y325695D01*
X30392Y325636D01*
X30263Y325581D01*
X30133Y325529D01*
X30001Y325481D01*
X29868Y325436D01*
X29734Y325395D01*
X29599Y325358D01*
X29463Y325325D01*
X29325Y325296D01*
X29188Y325271D01*
X29049Y325249D01*
X28910Y325231D01*
X28770Y325218D01*
X28630Y325208D01*
X28490Y325202D01*
X28350Y325200D01*
X28350Y309800D02*
X28490Y309798D01*
X28630Y309792D01*
X28770Y309782D01*
X28910Y309769D01*
X29049Y309751D01*
X29188Y309729D01*
X29325Y309704D01*
X29463Y309675D01*
X29599Y309642D01*
X29734Y309605D01*
X29868Y309564D01*
X30001Y309519D01*
X30133Y309471D01*
X30263Y309419D01*
X30392Y309364D01*
X30519Y309305D01*
X30645Y309242D01*
X30769Y309176D01*
X30890Y309107D01*
X31010Y309034D01*
X31128Y308957D01*
X31243Y308878D01*
X31357Y308795D01*
X31467Y308709D01*
X31576Y308620D01*
X31682Y308528D01*
X31785Y308433D01*
X31886Y308336D01*
X31983Y308235D01*
X32078Y308132D01*
X32170Y308026D01*
X32259Y307917D01*
X32345Y307807D01*
X32428Y307693D01*
X32507Y307578D01*
X32584Y307460D01*
X32657Y307340D01*
X32726Y307219D01*
X32792Y307095D01*
X32855Y306969D01*
X32914Y306842D01*
X32969Y306713D01*
X33021Y306583D01*
X33069Y306451D01*
X33114Y306318D01*
X33155Y306184D01*
X33192Y306049D01*
X33225Y305913D01*
X33254Y305775D01*
X33279Y305638D01*
X33301Y305499D01*
X33319Y305360D01*
X33332Y305220D01*
X33342Y305080D01*
X33348Y304940D01*
X33350Y304800D01*
X33348Y304660D01*
X33342Y304520D01*
X33332Y304380D01*
X33319Y304240D01*
X33301Y304101D01*
X33279Y303962D01*
X33254Y303825D01*
X33225Y303687D01*
X33192Y303551D01*
X33155Y303416D01*
X33114Y303282D01*
X33069Y303149D01*
X33021Y303017D01*
X32969Y302887D01*
X32914Y302758D01*
X32855Y302631D01*
X32792Y302505D01*
X32726Y302381D01*
X32657Y302260D01*
X32584Y302140D01*
X32507Y302022D01*
X32428Y301907D01*
X32345Y301793D01*
X32259Y301683D01*
X32170Y301574D01*
X32078Y301468D01*
X31983Y301365D01*
X31886Y301264D01*
X31785Y301167D01*
X31682Y301072D01*
X31576Y300980D01*
X31467Y300891D01*
X31357Y300805D01*
X31243Y300722D01*
X31128Y300643D01*
X31010Y300566D01*
X30890Y300493D01*
X30769Y300424D01*
X30645Y300358D01*
X30519Y300295D01*
X30392Y300236D01*
X30263Y300181D01*
X30133Y300129D01*
X30001Y300081D01*
X29868Y300036D01*
X29734Y299995D01*
X29599Y299958D01*
X29463Y299925D01*
X29325Y299896D01*
X29188Y299871D01*
X29049Y299849D01*
X28910Y299831D01*
X28770Y299818D01*
X28630Y299808D01*
X28490Y299802D01*
X28350Y299800D01*
X28350Y284400D02*
X28490Y284398D01*
X28630Y284392D01*
X28770Y284382D01*
X28910Y284369D01*
X29049Y284351D01*
X29188Y284329D01*
X29325Y284304D01*
X29463Y284275D01*
X29599Y284242D01*
X29734Y284205D01*
X29868Y284164D01*
X30001Y284119D01*
X30133Y284071D01*
X30263Y284019D01*
X30392Y283964D01*
X30519Y283905D01*
X30645Y283842D01*
X30769Y283776D01*
X30890Y283707D01*
X31010Y283634D01*
X31128Y283557D01*
X31243Y283478D01*
X31357Y283395D01*
X31467Y283309D01*
X31576Y283220D01*
X31682Y283128D01*
X31785Y283033D01*
X31886Y282936D01*
X31983Y282835D01*
X32078Y282732D01*
X32170Y282626D01*
X32259Y282517D01*
X32345Y282407D01*
X32428Y282293D01*
X32507Y282178D01*
X32584Y282060D01*
X32657Y281940D01*
X32726Y281819D01*
X32792Y281695D01*
X32855Y281569D01*
X32914Y281442D01*
X32969Y281313D01*
X33021Y281183D01*
X33069Y281051D01*
X33114Y280918D01*
X33155Y280784D01*
X33192Y280649D01*
X33225Y280513D01*
X33254Y280375D01*
X33279Y280238D01*
X33301Y280099D01*
X33319Y279960D01*
X33332Y279820D01*
X33342Y279680D01*
X33348Y279540D01*
X33350Y279400D01*
X33348Y279260D01*
X33342Y279120D01*
X33332Y278980D01*
X33319Y278840D01*
X33301Y278701D01*
X33279Y278562D01*
X33254Y278425D01*
X33225Y278287D01*
X33192Y278151D01*
X33155Y278016D01*
X33114Y277882D01*
X33069Y277749D01*
X33021Y277617D01*
X32969Y277487D01*
X32914Y277358D01*
X32855Y277231D01*
X32792Y277105D01*
X32726Y276981D01*
X32657Y276860D01*
X32584Y276740D01*
X32507Y276622D01*
X32428Y276507D01*
X32345Y276393D01*
X32259Y276283D01*
X32170Y276174D01*
X32078Y276068D01*
X31983Y275965D01*
X31886Y275864D01*
X31785Y275767D01*
X31682Y275672D01*
X31576Y275580D01*
X31467Y275491D01*
X31357Y275405D01*
X31243Y275322D01*
X31128Y275243D01*
X31010Y275166D01*
X30890Y275093D01*
X30769Y275024D01*
X30645Y274958D01*
X30519Y274895D01*
X30392Y274836D01*
X30263Y274781D01*
X30133Y274729D01*
X30001Y274681D01*
X29868Y274636D01*
X29734Y274595D01*
X29599Y274558D01*
X29463Y274525D01*
X29325Y274496D01*
X29188Y274471D01*
X29049Y274449D01*
X28910Y274431D01*
X28770Y274418D01*
X28630Y274408D01*
X28490Y274402D01*
X28350Y274400D01*
X28350Y259000D02*
X28490Y258998D01*
X28630Y258992D01*
X28770Y258982D01*
X28910Y258969D01*
X29049Y258951D01*
X29188Y258929D01*
X29325Y258904D01*
X29463Y258875D01*
X29599Y258842D01*
X29734Y258805D01*
X29868Y258764D01*
X30001Y258719D01*
X30133Y258671D01*
X30263Y258619D01*
X30392Y258564D01*
X30519Y258505D01*
X30645Y258442D01*
X30769Y258376D01*
X30890Y258307D01*
X31010Y258234D01*
X31128Y258157D01*
X31243Y258078D01*
X31357Y257995D01*
X31467Y257909D01*
X31576Y257820D01*
X31682Y257728D01*
X31785Y257633D01*
X31886Y257536D01*
X31983Y257435D01*
X32078Y257332D01*
X32170Y257226D01*
X32259Y257117D01*
X32345Y257007D01*
X32428Y256893D01*
X32507Y256778D01*
X32584Y256660D01*
X32657Y256540D01*
X32726Y256419D01*
X32792Y256295D01*
X32855Y256169D01*
X32914Y256042D01*
X32969Y255913D01*
X33021Y255783D01*
X33069Y255651D01*
X33114Y255518D01*
X33155Y255384D01*
X33192Y255249D01*
X33225Y255113D01*
X33254Y254975D01*
X33279Y254838D01*
X33301Y254699D01*
X33319Y254560D01*
X33332Y254420D01*
X33342Y254280D01*
X33348Y254140D01*
X33350Y254000D01*
X33348Y253860D01*
X33342Y253720D01*
X33332Y253580D01*
X33319Y253440D01*
X33301Y253301D01*
X33279Y253162D01*
X33254Y253025D01*
X33225Y252887D01*
X33192Y252751D01*
X33155Y252616D01*
X33114Y252482D01*
X33069Y252349D01*
X33021Y252217D01*
X32969Y252087D01*
X32914Y251958D01*
X32855Y251831D01*
X32792Y251705D01*
X32726Y251581D01*
X32657Y251460D01*
X32584Y251340D01*
X32507Y251222D01*
X32428Y251107D01*
X32345Y250993D01*
X32259Y250883D01*
X32170Y250774D01*
X32078Y250668D01*
X31983Y250565D01*
X31886Y250464D01*
X31785Y250367D01*
X31682Y250272D01*
X31576Y250180D01*
X31467Y250091D01*
X31357Y250005D01*
X31243Y249922D01*
X31128Y249843D01*
X31010Y249766D01*
X30890Y249693D01*
X30769Y249624D01*
X30645Y249558D01*
X30519Y249495D01*
X30392Y249436D01*
X30263Y249381D01*
X30133Y249329D01*
X30001Y249281D01*
X29868Y249236D01*
X29734Y249195D01*
X29599Y249158D01*
X29463Y249125D01*
X29325Y249096D01*
X29188Y249071D01*
X29049Y249049D01*
X28910Y249031D01*
X28770Y249018D01*
X28630Y249008D01*
X28490Y249002D01*
X28350Y249000D01*
X28350Y233600D02*
X28490Y233598D01*
X28630Y233592D01*
X28770Y233582D01*
X28910Y233569D01*
X29049Y233551D01*
X29188Y233529D01*
X29325Y233504D01*
X29463Y233475D01*
X29599Y233442D01*
X29734Y233405D01*
X29868Y233364D01*
X30001Y233319D01*
X30133Y233271D01*
X30263Y233219D01*
X30392Y233164D01*
X30519Y233105D01*
X30645Y233042D01*
X30769Y232976D01*
X30890Y232907D01*
X31010Y232834D01*
X31128Y232757D01*
X31243Y232678D01*
X31357Y232595D01*
X31467Y232509D01*
X31576Y232420D01*
X31682Y232328D01*
X31785Y232233D01*
X31886Y232136D01*
X31983Y232035D01*
X32078Y231932D01*
X32170Y231826D01*
X32259Y231717D01*
X32345Y231607D01*
X32428Y231493D01*
X32507Y231378D01*
X32584Y231260D01*
X32657Y231140D01*
X32726Y231019D01*
X32792Y230895D01*
X32855Y230769D01*
X32914Y230642D01*
X32969Y230513D01*
X33021Y230383D01*
X33069Y230251D01*
X33114Y230118D01*
X33155Y229984D01*
X33192Y229849D01*
X33225Y229713D01*
X33254Y229575D01*
X33279Y229438D01*
X33301Y229299D01*
X33319Y229160D01*
X33332Y229020D01*
X33342Y228880D01*
X33348Y228740D01*
X33350Y228600D01*
X33348Y228460D01*
X33342Y228320D01*
X33332Y228180D01*
X33319Y228040D01*
X33301Y227901D01*
X33279Y227762D01*
X33254Y227625D01*
X33225Y227487D01*
X33192Y227351D01*
X33155Y227216D01*
X33114Y227082D01*
X33069Y226949D01*
X33021Y226817D01*
X32969Y226687D01*
X32914Y226558D01*
X32855Y226431D01*
X32792Y226305D01*
X32726Y226181D01*
X32657Y226060D01*
X32584Y225940D01*
X32507Y225822D01*
X32428Y225707D01*
X32345Y225593D01*
X32259Y225483D01*
X32170Y225374D01*
X32078Y225268D01*
X31983Y225165D01*
X31886Y225064D01*
X31785Y224967D01*
X31682Y224872D01*
X31576Y224780D01*
X31467Y224691D01*
X31357Y224605D01*
X31243Y224522D01*
X31128Y224443D01*
X31010Y224366D01*
X30890Y224293D01*
X30769Y224224D01*
X30645Y224158D01*
X30519Y224095D01*
X30392Y224036D01*
X30263Y223981D01*
X30133Y223929D01*
X30001Y223881D01*
X29868Y223836D01*
X29734Y223795D01*
X29599Y223758D01*
X29463Y223725D01*
X29325Y223696D01*
X29188Y223671D01*
X29049Y223649D01*
X28910Y223631D01*
X28770Y223618D01*
X28630Y223608D01*
X28490Y223602D01*
X28350Y223600D01*
X128350Y724900D02*
X128352Y724760D01*
X128358Y724620D01*
X128368Y724480D01*
X128381Y724340D01*
X128399Y724201D01*
X128421Y724062D01*
X128446Y723925D01*
X128475Y723787D01*
X128508Y723651D01*
X128545Y723516D01*
X128586Y723382D01*
X128631Y723249D01*
X128679Y723117D01*
X128731Y722987D01*
X128786Y722858D01*
X128845Y722731D01*
X128908Y722605D01*
X128974Y722481D01*
X129043Y722360D01*
X129116Y722240D01*
X129193Y722122D01*
X129272Y722007D01*
X129355Y721893D01*
X129441Y721783D01*
X129530Y721674D01*
X129622Y721568D01*
X129717Y721465D01*
X129814Y721364D01*
X129915Y721267D01*
X130018Y721172D01*
X130124Y721080D01*
X130233Y720991D01*
X130343Y720905D01*
X130457Y720822D01*
X130572Y720743D01*
X130690Y720666D01*
X130810Y720593D01*
X130931Y720524D01*
X131055Y720458D01*
X131181Y720395D01*
X131308Y720336D01*
X131437Y720281D01*
X131567Y720229D01*
X131699Y720181D01*
X131832Y720136D01*
X131966Y720095D01*
X132101Y720058D01*
X132237Y720025D01*
X132375Y719996D01*
X132512Y719971D01*
X132651Y719949D01*
X132790Y719931D01*
X132930Y719918D01*
X133070Y719908D01*
X133210Y719902D01*
X133350Y719900D01*
X133490Y719902D01*
X133630Y719908D01*
X133770Y719918D01*
X133910Y719931D01*
X134049Y719949D01*
X134188Y719971D01*
X134325Y719996D01*
X134463Y720025D01*
X134599Y720058D01*
X134734Y720095D01*
X134868Y720136D01*
X135001Y720181D01*
X135133Y720229D01*
X135263Y720281D01*
X135392Y720336D01*
X135519Y720395D01*
X135645Y720458D01*
X135769Y720524D01*
X135890Y720593D01*
X136010Y720666D01*
X136128Y720743D01*
X136243Y720822D01*
X136357Y720905D01*
X136467Y720991D01*
X136576Y721080D01*
X136682Y721172D01*
X136785Y721267D01*
X136886Y721364D01*
X136983Y721465D01*
X137078Y721568D01*
X137170Y721674D01*
X137259Y721783D01*
X137345Y721893D01*
X137428Y722007D01*
X137507Y722122D01*
X137584Y722240D01*
X137657Y722360D01*
X137726Y722481D01*
X137792Y722605D01*
X137855Y722731D01*
X137914Y722858D01*
X137969Y722987D01*
X138021Y723117D01*
X138069Y723249D01*
X138114Y723382D01*
X138155Y723516D01*
X138192Y723651D01*
X138225Y723787D01*
X138254Y723925D01*
X138279Y724062D01*
X138301Y724201D01*
X138319Y724340D01*
X138332Y724480D01*
X138342Y724620D01*
X138348Y724760D01*
X138350Y724900D01*
X112950Y724900D02*
X112948Y724760D01*
X112942Y724620D01*
X112932Y724480D01*
X112919Y724340D01*
X112901Y724201D01*
X112879Y724062D01*
X112854Y723925D01*
X112825Y723787D01*
X112792Y723651D01*
X112755Y723516D01*
X112714Y723382D01*
X112669Y723249D01*
X112621Y723117D01*
X112569Y722987D01*
X112514Y722858D01*
X112455Y722731D01*
X112392Y722605D01*
X112326Y722481D01*
X112257Y722360D01*
X112184Y722240D01*
X112107Y722122D01*
X112028Y722007D01*
X111945Y721893D01*
X111859Y721783D01*
X111770Y721674D01*
X111678Y721568D01*
X111583Y721465D01*
X111486Y721364D01*
X111385Y721267D01*
X111282Y721172D01*
X111176Y721080D01*
X111067Y720991D01*
X110957Y720905D01*
X110843Y720822D01*
X110728Y720743D01*
X110610Y720666D01*
X110490Y720593D01*
X110369Y720524D01*
X110245Y720458D01*
X110119Y720395D01*
X109992Y720336D01*
X109863Y720281D01*
X109733Y720229D01*
X109601Y720181D01*
X109468Y720136D01*
X109334Y720095D01*
X109199Y720058D01*
X109063Y720025D01*
X108925Y719996D01*
X108788Y719971D01*
X108649Y719949D01*
X108510Y719931D01*
X108370Y719918D01*
X108230Y719908D01*
X108090Y719902D01*
X107950Y719900D01*
X107810Y719902D01*
X107670Y719908D01*
X107530Y719918D01*
X107390Y719931D01*
X107251Y719949D01*
X107112Y719971D01*
X106975Y719996D01*
X106837Y720025D01*
X106701Y720058D01*
X106566Y720095D01*
X106432Y720136D01*
X106299Y720181D01*
X106167Y720229D01*
X106037Y720281D01*
X105908Y720336D01*
X105781Y720395D01*
X105655Y720458D01*
X105531Y720524D01*
X105410Y720593D01*
X105290Y720666D01*
X105172Y720743D01*
X105057Y720822D01*
X104943Y720905D01*
X104833Y720991D01*
X104724Y721080D01*
X104618Y721172D01*
X104515Y721267D01*
X104414Y721364D01*
X104317Y721465D01*
X104222Y721568D01*
X104130Y721674D01*
X104041Y721783D01*
X103955Y721893D01*
X103872Y722007D01*
X103793Y722122D01*
X103716Y722240D01*
X103643Y722360D01*
X103574Y722481D01*
X103508Y722605D01*
X103445Y722731D01*
X103386Y722858D01*
X103331Y722987D01*
X103279Y723117D01*
X103231Y723249D01*
X103186Y723382D01*
X103145Y723516D01*
X103108Y723651D01*
X103075Y723787D01*
X103046Y723925D01*
X103021Y724062D01*
X102999Y724201D01*
X102981Y724340D01*
X102968Y724480D01*
X102958Y724620D01*
X102952Y724760D01*
X102950Y724900D01*
X153750Y724900D02*
X153752Y724760D01*
X153758Y724620D01*
X153768Y724480D01*
X153781Y724340D01*
X153799Y724201D01*
X153821Y724062D01*
X153846Y723925D01*
X153875Y723787D01*
X153908Y723651D01*
X153945Y723516D01*
X153986Y723382D01*
X154031Y723249D01*
X154079Y723117D01*
X154131Y722987D01*
X154186Y722858D01*
X154245Y722731D01*
X154308Y722605D01*
X154374Y722481D01*
X154443Y722360D01*
X154516Y722240D01*
X154593Y722122D01*
X154672Y722007D01*
X154755Y721893D01*
X154841Y721783D01*
X154930Y721674D01*
X155022Y721568D01*
X155117Y721465D01*
X155214Y721364D01*
X155315Y721267D01*
X155418Y721172D01*
X155524Y721080D01*
X155633Y720991D01*
X155743Y720905D01*
X155857Y720822D01*
X155972Y720743D01*
X156090Y720666D01*
X156210Y720593D01*
X156331Y720524D01*
X156455Y720458D01*
X156581Y720395D01*
X156708Y720336D01*
X156837Y720281D01*
X156967Y720229D01*
X157099Y720181D01*
X157232Y720136D01*
X157366Y720095D01*
X157501Y720058D01*
X157637Y720025D01*
X157775Y719996D01*
X157912Y719971D01*
X158051Y719949D01*
X158190Y719931D01*
X158330Y719918D01*
X158470Y719908D01*
X158610Y719902D01*
X158750Y719900D01*
X158890Y719902D01*
X159030Y719908D01*
X159170Y719918D01*
X159310Y719931D01*
X159449Y719949D01*
X159588Y719971D01*
X159725Y719996D01*
X159863Y720025D01*
X159999Y720058D01*
X160134Y720095D01*
X160268Y720136D01*
X160401Y720181D01*
X160533Y720229D01*
X160663Y720281D01*
X160792Y720336D01*
X160919Y720395D01*
X161045Y720458D01*
X161169Y720524D01*
X161290Y720593D01*
X161410Y720666D01*
X161528Y720743D01*
X161643Y720822D01*
X161757Y720905D01*
X161867Y720991D01*
X161976Y721080D01*
X162082Y721172D01*
X162185Y721267D01*
X162286Y721364D01*
X162383Y721465D01*
X162478Y721568D01*
X162570Y721674D01*
X162659Y721783D01*
X162745Y721893D01*
X162828Y722007D01*
X162907Y722122D01*
X162984Y722240D01*
X163057Y722360D01*
X163126Y722481D01*
X163192Y722605D01*
X163255Y722731D01*
X163314Y722858D01*
X163369Y722987D01*
X163421Y723117D01*
X163469Y723249D01*
X163514Y723382D01*
X163555Y723516D01*
X163592Y723651D01*
X163625Y723787D01*
X163654Y723925D01*
X163679Y724062D01*
X163701Y724201D01*
X163719Y724340D01*
X163732Y724480D01*
X163742Y724620D01*
X163748Y724760D01*
X163750Y724900D01*
D11*
X205509Y736264D02*
X205509Y749822D01*
X205509Y736264D02*
X208220Y733552D01*
X213644Y733552D01*
X216355Y736264D01*
X216355Y749822D01*
X221880Y744399D02*
X227304Y749822D01*
X227304Y733552D01*
X232727Y733552D02*
X221880Y733552D01*
X152908Y326487D02*
X136638Y326487D01*
X136638Y334622D01*
X139350Y337334D01*
X144773Y337334D01*
X147485Y334622D01*
X147485Y326487D01*
X147485Y331911D02*
X152908Y337334D01*
X152908Y342859D02*
X142061Y342859D01*
X136638Y348282D01*
X142061Y353706D01*
X152908Y353706D01*
X144773Y353706D02*
X144773Y342859D01*
X136638Y367365D02*
X139350Y370077D01*
X136638Y367365D02*
X136638Y361942D01*
X139350Y359230D01*
X142061Y359230D01*
X144773Y361942D01*
X144773Y367365D01*
X147485Y370077D01*
X150196Y370077D01*
X152908Y367365D01*
X152908Y361942D01*
X150196Y359230D01*
X152908Y375602D02*
X136638Y375602D01*
X136638Y383737D01*
X139350Y386449D01*
X144773Y386449D01*
X147485Y383737D01*
X147485Y375602D01*
X152908Y391974D02*
X136638Y391974D01*
X136638Y400109D01*
X139350Y402820D01*
X142061Y402820D01*
X144773Y400109D01*
X147485Y402820D01*
X150196Y402820D01*
X152908Y400109D01*
X152908Y391974D01*
X144773Y391974D02*
X144773Y400109D01*
X136638Y408345D02*
X136638Y419192D01*
X136638Y408345D02*
X152908Y408345D01*
X152908Y419192D01*
X144773Y413768D02*
X144773Y408345D01*
X152908Y424717D02*
X136638Y424717D01*
X136638Y432852D01*
X139350Y435563D01*
X144773Y435563D01*
X147485Y432852D01*
X147485Y424717D01*
X147485Y430140D02*
X152908Y435563D01*
X152908Y441088D02*
X136638Y441088D01*
X136638Y449223D01*
X139350Y451935D01*
X144773Y451935D01*
X147485Y449223D01*
X147485Y441088D01*
X147485Y446512D02*
X152908Y451935D01*
X139350Y457460D02*
X136638Y457460D01*
X139350Y457460D02*
X144773Y462883D01*
X139350Y468306D01*
X136638Y468306D01*
X144773Y462883D02*
X152908Y462883D01*
X155620Y473831D02*
X155620Y484678D01*
X152908Y490203D02*
X136638Y490203D01*
X136638Y498338D01*
X139350Y501050D01*
X144773Y501050D01*
X147485Y498338D01*
X147485Y490203D01*
X152908Y506575D02*
X152908Y511998D01*
X152908Y509286D02*
X136638Y509286D01*
X136638Y506575D02*
X136638Y511998D01*
X136638Y525624D02*
X139350Y528336D01*
X136638Y525624D02*
X136638Y520201D01*
X139350Y517489D01*
X150196Y517489D01*
X152908Y520201D01*
X152908Y525624D01*
X150196Y528336D01*
X136638Y536572D02*
X136638Y541995D01*
X136638Y536572D02*
X139350Y533860D01*
X150196Y533860D01*
X152908Y536572D01*
X152908Y541995D01*
X150196Y544707D01*
X139350Y544707D01*
X136638Y541995D01*
X136638Y558367D02*
X139350Y561079D01*
X136638Y558367D02*
X136638Y552944D01*
X139350Y550232D01*
X142061Y550232D01*
X144773Y552944D01*
X144773Y558367D01*
X147485Y561079D01*
X150196Y561079D01*
X152908Y558367D01*
X152908Y552944D01*
X150196Y550232D01*
X152908Y566604D02*
X136638Y566604D01*
X142061Y572027D01*
X136638Y577450D01*
X152908Y577450D01*
X152908Y582975D02*
X136638Y582975D01*
X152908Y582975D02*
X152908Y591110D01*
X150196Y593822D01*
X139350Y593822D01*
X136638Y591110D01*
X136638Y582975D01*
X144773Y599347D02*
X144773Y610193D01*
X152908Y621142D02*
X136638Y621142D01*
X136638Y626565D02*
X136638Y615718D01*
X136638Y632090D02*
X152908Y632090D01*
X144773Y632090D02*
X144773Y642936D01*
X136638Y642936D02*
X152908Y642936D01*
X730250Y387350D02*
X730250Y365760D01*
X730250Y387350D02*
X730408Y387352D01*
X730567Y387358D01*
X730725Y387368D01*
X730882Y387382D01*
X731040Y387399D01*
X731196Y387421D01*
X731353Y387446D01*
X731508Y387476D01*
X731663Y387509D01*
X731817Y387546D01*
X731970Y387587D01*
X732122Y387632D01*
X732272Y387681D01*
X732422Y387733D01*
X732570Y387789D01*
X732717Y387849D01*
X732862Y387912D01*
X733005Y387979D01*
X733147Y388049D01*
X733287Y388123D01*
X733425Y388201D01*
X733561Y388282D01*
X733695Y388366D01*
X733827Y388453D01*
X733957Y388544D01*
X734084Y388638D01*
X734209Y388735D01*
X734332Y388836D01*
X734452Y388939D01*
X734569Y389045D01*
X734684Y389154D01*
X734796Y389266D01*
X734905Y389381D01*
X735011Y389498D01*
X735114Y389618D01*
X735215Y389741D01*
X735312Y389866D01*
X735406Y389993D01*
X735497Y390123D01*
X735584Y390255D01*
X735668Y390389D01*
X735749Y390525D01*
X735827Y390663D01*
X735901Y390803D01*
X735971Y390945D01*
X736038Y391088D01*
X736101Y391233D01*
X736161Y391380D01*
X736217Y391528D01*
X736269Y391678D01*
X736318Y391828D01*
X736363Y391980D01*
X736404Y392133D01*
X736441Y392287D01*
X736474Y392442D01*
X736504Y392597D01*
X736529Y392754D01*
X736551Y392910D01*
X736568Y393068D01*
X736582Y393225D01*
X736592Y393383D01*
X736598Y393542D01*
X736600Y393700D01*
X736598Y393858D01*
X736592Y394017D01*
X736582Y394175D01*
X736568Y394332D01*
X736551Y394490D01*
X736529Y394646D01*
X736504Y394803D01*
X736474Y394958D01*
X736441Y395113D01*
X736404Y395267D01*
X736363Y395420D01*
X736318Y395572D01*
X736269Y395722D01*
X736217Y395872D01*
X736161Y396020D01*
X736101Y396167D01*
X736038Y396312D01*
X735971Y396455D01*
X735901Y396597D01*
X735827Y396737D01*
X735749Y396875D01*
X735668Y397011D01*
X735584Y397145D01*
X735497Y397277D01*
X735406Y397407D01*
X735312Y397534D01*
X735215Y397659D01*
X735114Y397782D01*
X735011Y397902D01*
X734905Y398019D01*
X734796Y398134D01*
X734684Y398246D01*
X734569Y398355D01*
X734452Y398461D01*
X734332Y398564D01*
X734209Y398665D01*
X734084Y398762D01*
X733957Y398856D01*
X733827Y398947D01*
X733695Y399034D01*
X733561Y399118D01*
X733425Y399199D01*
X733287Y399277D01*
X733147Y399351D01*
X733005Y399421D01*
X732862Y399488D01*
X732717Y399551D01*
X732570Y399611D01*
X732422Y399667D01*
X732272Y399719D01*
X732122Y399768D01*
X731970Y399813D01*
X731817Y399854D01*
X731663Y399891D01*
X731508Y399924D01*
X731353Y399954D01*
X731196Y399979D01*
X731040Y400001D01*
X730882Y400018D01*
X730725Y400032D01*
X730567Y400042D01*
X730408Y400048D01*
X730250Y400050D01*
X730250Y365760D02*
X933450Y365760D01*
X933450Y421640D01*
X730250Y421640D01*
X730250Y400050D01*
D15*
X725297Y371988D02*
X725297Y366649D01*
X725297Y369318D02*
X709281Y369318D01*
X709281Y366649D02*
X709281Y371988D01*
X709281Y385571D02*
X711951Y388241D01*
X709281Y385571D02*
X709281Y380233D01*
X711951Y377563D01*
X722628Y377563D01*
X725297Y380233D01*
X725297Y385571D01*
X722628Y388241D01*
X714620Y393935D02*
X709281Y399274D01*
X725297Y399274D01*
X725297Y404612D02*
X725297Y393935D01*
X743839Y400953D02*
X743839Y384937D01*
X743839Y400953D02*
X751847Y400953D01*
X754516Y398283D01*
X754516Y392945D01*
X751847Y390276D01*
X743839Y390276D01*
X768218Y400953D02*
X770888Y398283D01*
X768218Y400953D02*
X762880Y400953D01*
X760211Y398283D01*
X760211Y387606D01*
X762880Y384937D01*
X768218Y384937D01*
X770888Y387606D01*
X776582Y384937D02*
X776582Y400953D01*
X787259Y400953D01*
X781921Y392945D02*
X776582Y392945D01*
X792954Y398283D02*
X795623Y400953D01*
X800962Y400953D01*
X803631Y398283D01*
X803631Y395614D01*
X800962Y392945D01*
X803631Y390276D01*
X803631Y387606D01*
X800962Y384937D01*
X795623Y384937D01*
X792954Y387606D01*
X792954Y390276D01*
X795623Y392945D01*
X792954Y395614D01*
X792954Y398283D01*
X795623Y392945D02*
X800962Y392945D01*
X809325Y400953D02*
X820002Y400953D01*
X809325Y400953D02*
X809325Y392945D01*
X814664Y395614D01*
X817333Y395614D01*
X820002Y392945D01*
X820002Y387606D01*
X817333Y384937D01*
X811995Y384937D01*
X809325Y387606D01*
X825697Y400953D02*
X836374Y400953D01*
X836374Y398283D01*
X825697Y387606D01*
X825697Y384937D01*
X850076Y384937D02*
X850076Y400953D01*
X842068Y392945D01*
X852746Y392945D01*
X858440Y384937D02*
X858440Y400953D01*
X866448Y400953D01*
X869117Y398283D01*
X869117Y392945D01*
X866448Y390276D01*
X858440Y390276D01*
D11*
X933450Y308610D02*
X755650Y308610D01*
X755650Y250190D02*
X933450Y250190D01*
X933450Y308610D01*
X755650Y308610D02*
X755650Y289560D01*
X755650Y269240D02*
X755650Y250190D01*
X755650Y269240D02*
X755897Y269243D01*
X756145Y269252D01*
X756392Y269267D01*
X756638Y269288D01*
X756884Y269315D01*
X757129Y269348D01*
X757374Y269387D01*
X757617Y269432D01*
X757859Y269483D01*
X758100Y269540D01*
X758339Y269602D01*
X758577Y269671D01*
X758813Y269745D01*
X759047Y269825D01*
X759279Y269910D01*
X759509Y270002D01*
X759737Y270098D01*
X759962Y270201D01*
X760185Y270308D01*
X760405Y270422D01*
X760622Y270540D01*
X760837Y270664D01*
X761048Y270793D01*
X761256Y270927D01*
X761461Y271066D01*
X761662Y271210D01*
X761860Y271358D01*
X762054Y271512D01*
X762244Y271670D01*
X762430Y271833D01*
X762612Y272000D01*
X762790Y272172D01*
X762964Y272348D01*
X763134Y272528D01*
X763299Y272713D01*
X763459Y272901D01*
X763615Y273093D01*
X763767Y273289D01*
X763913Y273488D01*
X764055Y273691D01*
X764191Y273898D01*
X764323Y274107D01*
X764449Y274320D01*
X764570Y274536D01*
X764686Y274754D01*
X764796Y274976D01*
X764901Y275200D01*
X765001Y275426D01*
X765095Y275655D01*
X765183Y275886D01*
X765266Y276120D01*
X765343Y276355D01*
X765414Y276592D01*
X765480Y276830D01*
X765539Y277070D01*
X765593Y277312D01*
X765641Y277555D01*
X765683Y277798D01*
X765719Y278043D01*
X765749Y278289D01*
X765773Y278535D01*
X765791Y278782D01*
X765803Y279029D01*
X765809Y279276D01*
X765809Y279524D01*
X765803Y279771D01*
X765791Y280018D01*
X765773Y280265D01*
X765749Y280511D01*
X765719Y280757D01*
X765683Y281002D01*
X765641Y281245D01*
X765593Y281488D01*
X765539Y281730D01*
X765480Y281970D01*
X765414Y282208D01*
X765343Y282445D01*
X765266Y282680D01*
X765183Y282914D01*
X765095Y283145D01*
X765001Y283374D01*
X764901Y283600D01*
X764796Y283824D01*
X764686Y284046D01*
X764570Y284264D01*
X764449Y284480D01*
X764323Y284693D01*
X764191Y284902D01*
X764055Y285109D01*
X763913Y285312D01*
X763767Y285511D01*
X763615Y285707D01*
X763459Y285899D01*
X763299Y286087D01*
X763134Y286272D01*
X762964Y286452D01*
X762790Y286628D01*
X762612Y286800D01*
X762430Y286967D01*
X762244Y287130D01*
X762054Y287288D01*
X761860Y287442D01*
X761662Y287590D01*
X761461Y287734D01*
X761256Y287873D01*
X761048Y288007D01*
X760837Y288136D01*
X760622Y288260D01*
X760405Y288378D01*
X760185Y288492D01*
X759962Y288599D01*
X759737Y288702D01*
X759509Y288798D01*
X759279Y288890D01*
X759047Y288975D01*
X758813Y289055D01*
X758577Y289129D01*
X758339Y289198D01*
X758100Y289260D01*
X757859Y289317D01*
X757617Y289368D01*
X757374Y289413D01*
X757129Y289452D01*
X756884Y289485D01*
X756638Y289512D01*
X756392Y289533D01*
X756145Y289548D01*
X755897Y289557D01*
X755650Y289560D01*
D14*
X749298Y249555D02*
X739765Y249555D01*
X749298Y249555D02*
X751205Y251462D01*
X751205Y255275D01*
X749298Y257182D01*
X739765Y257182D01*
X741672Y261249D02*
X739765Y263156D01*
X739765Y266969D01*
X741672Y268875D01*
X743579Y268875D01*
X745485Y266969D01*
X745485Y265062D01*
X745485Y266969D02*
X747392Y268875D01*
X749298Y268875D01*
X751205Y266969D01*
X751205Y263156D01*
X749298Y261249D01*
X777875Y285125D02*
X785502Y285125D01*
X785502Y283218D01*
X777875Y275592D01*
X777875Y273685D01*
X795289Y273685D02*
X795289Y285125D01*
X789569Y279405D01*
X797195Y279405D01*
X801263Y273685D02*
X801263Y285125D01*
X801263Y279405D02*
X808889Y279405D01*
X808889Y285125D02*
X808889Y273685D01*
X818677Y285125D02*
X820583Y283218D01*
X818677Y285125D02*
X814864Y285125D01*
X812957Y283218D01*
X812957Y275592D01*
X814864Y273685D01*
X818677Y273685D01*
X820583Y275592D01*
X828464Y273685D02*
X828464Y285125D01*
X824651Y285125D02*
X832277Y285125D01*
X836345Y281312D02*
X840158Y285125D01*
X840158Y273685D01*
X836345Y273685D02*
X843971Y273685D01*
X848039Y273685D02*
X855665Y273685D01*
X848039Y273685D02*
X855665Y281312D01*
X855665Y283218D01*
X853759Y285125D01*
X849945Y285125D01*
X848039Y283218D01*
X859733Y285125D02*
X867359Y285125D01*
X859733Y285125D02*
X859733Y279405D01*
X863546Y281312D01*
X865453Y281312D01*
X867359Y279405D01*
X867359Y275592D01*
X865453Y273685D01*
X861639Y273685D01*
X859733Y275592D01*
X871427Y273685D02*
X871427Y285125D01*
X879053Y273685D01*
X879053Y285125D01*
D11*
X376420Y174950D02*
X334780Y174950D01*
X376420Y174950D02*
X376420Y193350D01*
X334780Y193350D01*
X334780Y174950D01*
X349250Y184150D02*
X355600Y184150D01*
X365760Y190500D02*
X365760Y177800D01*
X355600Y184150D01*
X370840Y184150D01*
X365760Y190500D02*
X355600Y184150D01*
X355600Y190500D01*
X355600Y184150D02*
X355600Y177800D01*
D16*
X341630Y184000D03*
D17*
X379595Y184150D03*
X331605Y184150D03*
D14*
X294005Y202565D02*
X282565Y202565D01*
X294005Y202565D02*
X294005Y208285D01*
X292098Y210192D01*
X284472Y210192D01*
X282565Y208285D01*
X282565Y202565D01*
X294005Y214259D02*
X294005Y221885D01*
X294005Y214259D02*
X286379Y221885D01*
X284472Y221885D01*
X282565Y219979D01*
X282565Y216166D01*
X284472Y214259D01*
X296535Y187328D02*
X300349Y183515D01*
X296535Y187328D02*
X307975Y187328D01*
X307975Y183515D02*
X307975Y191142D01*
X307975Y195209D02*
X296535Y195209D01*
X307975Y202835D01*
X296535Y202835D01*
X296535Y206903D02*
X296535Y214529D01*
X296535Y206903D02*
X302255Y206903D01*
X300349Y210716D01*
X300349Y212623D01*
X302255Y214529D01*
X306068Y214529D01*
X307975Y212623D01*
X307975Y208810D01*
X306068Y206903D01*
X298442Y218597D02*
X296535Y220504D01*
X296535Y224317D01*
X298442Y226223D01*
X300349Y226223D01*
X302255Y224317D01*
X304162Y226223D01*
X306068Y226223D01*
X307975Y224317D01*
X307975Y220504D01*
X306068Y218597D01*
X304162Y218597D01*
X302255Y220504D01*
X300349Y218597D01*
X298442Y218597D01*
X302255Y220504D02*
X302255Y224317D01*
X300349Y230291D02*
X296535Y234104D01*
X307975Y234104D01*
X307975Y230291D02*
X307975Y237917D01*
X306068Y241985D02*
X307975Y243891D01*
X307975Y247705D01*
X306068Y249611D01*
X298442Y249611D01*
X296535Y247705D01*
X296535Y243891D01*
X298442Y241985D01*
X300349Y241985D01*
X302255Y243891D01*
X302255Y249611D01*
D11*
X412750Y647700D02*
X412750Y660400D01*
X419100Y666750D01*
X431800Y666750D02*
X438150Y660400D01*
X419100Y666750D02*
X412750Y673100D01*
X412750Y685800D01*
X419100Y692150D01*
X431800Y692150D02*
X438150Y685800D01*
X438150Y673100D01*
X431800Y666750D01*
X431800Y641350D02*
X419100Y641350D01*
X412750Y647700D01*
X431800Y641350D02*
X438150Y647700D01*
X438150Y660400D01*
X419100Y692150D02*
X412750Y698500D01*
X412750Y711200D01*
X419100Y717550D01*
X431800Y717550D02*
X438150Y711200D01*
X438150Y698500D01*
X431800Y692150D01*
X412750Y723900D02*
X412750Y736600D01*
X419100Y742950D01*
X431800Y742950D01*
X438150Y736600D01*
X419100Y717550D02*
X412750Y723900D01*
X431800Y717550D02*
X438150Y723900D01*
X438150Y736600D01*
D14*
X419725Y634368D02*
X423539Y630555D01*
X419725Y634368D02*
X431165Y634368D01*
X431165Y630555D02*
X431165Y638182D01*
X431165Y751845D02*
X419725Y751845D01*
X425445Y746125D01*
X425445Y753752D01*
X408305Y643892D02*
X406398Y641985D01*
X408305Y643892D02*
X408305Y645798D01*
X406398Y647705D01*
X396865Y647705D01*
X396865Y645798D02*
X396865Y649612D01*
X408305Y653679D02*
X408305Y661305D01*
X408305Y653679D02*
X400679Y661305D01*
X398772Y661305D01*
X396865Y659399D01*
X396865Y655586D01*
X398772Y653679D01*
X396865Y701042D02*
X396865Y704855D01*
X396865Y701042D02*
X398772Y699135D01*
X406398Y699135D01*
X408305Y701042D01*
X408305Y704855D01*
X406398Y706762D01*
X398772Y706762D01*
X396865Y704855D01*
X396865Y710829D02*
X408305Y710829D01*
X408305Y718455D01*
X396865Y722523D02*
X396865Y730149D01*
X396865Y722523D02*
X408305Y722523D01*
X408305Y730149D01*
X402585Y726336D02*
X402585Y722523D01*
X396865Y734217D02*
X408305Y734217D01*
X408305Y739937D01*
X406398Y741843D01*
X398772Y741843D01*
X396865Y739937D01*
X396865Y734217D01*
X897850Y754150D02*
X897850Y630150D01*
X897850Y754150D02*
X765850Y754150D01*
X765850Y630150D01*
X897850Y630150D01*
X816850Y666150D02*
X816850Y718150D01*
X801850Y692150D02*
X801859Y692886D01*
X801886Y693622D01*
X801931Y694357D01*
X801994Y695091D01*
X802076Y695822D01*
X802175Y696552D01*
X802292Y697279D01*
X802426Y698003D01*
X802579Y698723D01*
X802749Y699439D01*
X802937Y700151D01*
X803142Y700859D01*
X803364Y701560D01*
X803604Y702257D01*
X803860Y702947D01*
X804134Y703631D01*
X804424Y704307D01*
X804730Y704977D01*
X805053Y705638D01*
X805392Y706292D01*
X805747Y706937D01*
X806118Y707573D01*
X806504Y708200D01*
X806906Y708817D01*
X807322Y709424D01*
X807754Y710021D01*
X808200Y710607D01*
X808660Y711182D01*
X809134Y711745D01*
X809621Y712297D01*
X810123Y712836D01*
X810637Y713363D01*
X811164Y713877D01*
X811703Y714379D01*
X812255Y714866D01*
X812818Y715340D01*
X813393Y715800D01*
X813979Y716246D01*
X814576Y716678D01*
X815183Y717094D01*
X815800Y717496D01*
X816427Y717882D01*
X817063Y718253D01*
X817708Y718608D01*
X818362Y718947D01*
X819023Y719270D01*
X819693Y719576D01*
X820369Y719866D01*
X821053Y720140D01*
X821743Y720396D01*
X822440Y720636D01*
X823141Y720858D01*
X823849Y721063D01*
X824561Y721251D01*
X825277Y721421D01*
X825997Y721574D01*
X826721Y721708D01*
X827448Y721825D01*
X828178Y721924D01*
X828909Y722006D01*
X829643Y722069D01*
X830378Y722114D01*
X831114Y722141D01*
X831850Y722150D01*
X832586Y722141D01*
X833322Y722114D01*
X834057Y722069D01*
X834791Y722006D01*
X835522Y721924D01*
X836252Y721825D01*
X836979Y721708D01*
X837703Y721574D01*
X838423Y721421D01*
X839139Y721251D01*
X839851Y721063D01*
X840559Y720858D01*
X841260Y720636D01*
X841957Y720396D01*
X842647Y720140D01*
X843331Y719866D01*
X844007Y719576D01*
X844677Y719270D01*
X845338Y718947D01*
X845992Y718608D01*
X846637Y718253D01*
X847273Y717882D01*
X847900Y717496D01*
X848517Y717094D01*
X849124Y716678D01*
X849721Y716246D01*
X850307Y715800D01*
X850882Y715340D01*
X851445Y714866D01*
X851997Y714379D01*
X852536Y713877D01*
X853063Y713363D01*
X853577Y712836D01*
X854079Y712297D01*
X854566Y711745D01*
X855040Y711182D01*
X855500Y710607D01*
X855946Y710021D01*
X856378Y709424D01*
X856794Y708817D01*
X857196Y708200D01*
X857582Y707573D01*
X857953Y706937D01*
X858308Y706292D01*
X858647Y705638D01*
X858970Y704977D01*
X859276Y704307D01*
X859566Y703631D01*
X859840Y702947D01*
X860096Y702257D01*
X860336Y701560D01*
X860558Y700859D01*
X860763Y700151D01*
X860951Y699439D01*
X861121Y698723D01*
X861274Y698003D01*
X861408Y697279D01*
X861525Y696552D01*
X861624Y695822D01*
X861706Y695091D01*
X861769Y694357D01*
X861814Y693622D01*
X861841Y692886D01*
X861850Y692150D01*
X861841Y691414D01*
X861814Y690678D01*
X861769Y689943D01*
X861706Y689209D01*
X861624Y688478D01*
X861525Y687748D01*
X861408Y687021D01*
X861274Y686297D01*
X861121Y685577D01*
X860951Y684861D01*
X860763Y684149D01*
X860558Y683441D01*
X860336Y682740D01*
X860096Y682043D01*
X859840Y681353D01*
X859566Y680669D01*
X859276Y679993D01*
X858970Y679323D01*
X858647Y678662D01*
X858308Y678008D01*
X857953Y677363D01*
X857582Y676727D01*
X857196Y676100D01*
X856794Y675483D01*
X856378Y674876D01*
X855946Y674279D01*
X855500Y673693D01*
X855040Y673118D01*
X854566Y672555D01*
X854079Y672003D01*
X853577Y671464D01*
X853063Y670937D01*
X852536Y670423D01*
X851997Y669921D01*
X851445Y669434D01*
X850882Y668960D01*
X850307Y668500D01*
X849721Y668054D01*
X849124Y667622D01*
X848517Y667206D01*
X847900Y666804D01*
X847273Y666418D01*
X846637Y666047D01*
X845992Y665692D01*
X845338Y665353D01*
X844677Y665030D01*
X844007Y664724D01*
X843331Y664434D01*
X842647Y664160D01*
X841957Y663904D01*
X841260Y663664D01*
X840559Y663442D01*
X839851Y663237D01*
X839139Y663049D01*
X838423Y662879D01*
X837703Y662726D01*
X836979Y662592D01*
X836252Y662475D01*
X835522Y662376D01*
X834791Y662294D01*
X834057Y662231D01*
X833322Y662186D01*
X832586Y662159D01*
X831850Y662150D01*
X831114Y662159D01*
X830378Y662186D01*
X829643Y662231D01*
X828909Y662294D01*
X828178Y662376D01*
X827448Y662475D01*
X826721Y662592D01*
X825997Y662726D01*
X825277Y662879D01*
X824561Y663049D01*
X823849Y663237D01*
X823141Y663442D01*
X822440Y663664D01*
X821743Y663904D01*
X821053Y664160D01*
X820369Y664434D01*
X819693Y664724D01*
X819023Y665030D01*
X818362Y665353D01*
X817708Y665692D01*
X817063Y666047D01*
X816427Y666418D01*
X815800Y666804D01*
X815183Y667206D01*
X814576Y667622D01*
X813979Y668054D01*
X813393Y668500D01*
X812818Y668960D01*
X812255Y669434D01*
X811703Y669921D01*
X811164Y670423D01*
X810637Y670937D01*
X810123Y671464D01*
X809621Y672003D01*
X809134Y672555D01*
X808660Y673118D01*
X808200Y673693D01*
X807754Y674279D01*
X807322Y674876D01*
X806906Y675483D01*
X806504Y676100D01*
X806118Y676727D01*
X805747Y677363D01*
X805392Y678008D01*
X805053Y678662D01*
X804730Y679323D01*
X804424Y679993D01*
X804134Y680669D01*
X803860Y681353D01*
X803604Y682043D01*
X803364Y682740D01*
X803142Y683441D01*
X802937Y684149D01*
X802749Y684861D01*
X802579Y685577D01*
X802426Y686297D01*
X802292Y687021D01*
X802175Y687748D01*
X802076Y688478D01*
X801994Y689209D01*
X801931Y689943D01*
X801886Y690678D01*
X801859Y691414D01*
X801850Y692150D01*
D12*
X736597Y675454D02*
X734648Y673505D01*
X734648Y669607D01*
X736597Y667658D01*
X738546Y667658D01*
X740495Y669607D01*
X740495Y673505D01*
X742444Y675454D01*
X744393Y675454D01*
X746342Y673505D01*
X746342Y669607D01*
X744393Y667658D01*
X746342Y679352D02*
X734648Y679352D01*
X742444Y683250D02*
X746342Y679352D01*
X742444Y683250D02*
X746342Y687148D01*
X734648Y687148D01*
X738546Y691046D02*
X734648Y694944D01*
X746342Y694944D01*
X746342Y691046D02*
X746342Y698842D01*
X922348Y641902D02*
X922348Y634106D01*
X934042Y634106D01*
X934042Y641902D01*
X928195Y638004D02*
X928195Y634106D01*
X922348Y651647D02*
X924297Y653596D01*
X922348Y651647D02*
X922348Y647749D01*
X924297Y645800D01*
X932093Y645800D01*
X934042Y647749D01*
X934042Y651647D01*
X932093Y653596D01*
X926246Y657494D02*
X922348Y661392D01*
X934042Y661392D01*
X934042Y657494D02*
X934042Y665290D01*
X934042Y669188D02*
X934042Y676984D01*
X934042Y669188D02*
X926246Y676984D01*
X924297Y676984D01*
X922348Y675035D01*
X922348Y671137D01*
X924297Y669188D01*
X922348Y680882D02*
X922348Y688678D01*
X922348Y680882D02*
X934042Y680882D01*
X934042Y688678D01*
X928195Y684780D02*
X928195Y680882D01*
X935991Y692576D02*
X935991Y700372D01*
X924297Y712066D02*
X922348Y710117D01*
X922348Y706219D01*
X924297Y704270D01*
X926246Y704270D01*
X928195Y706219D01*
X928195Y710117D01*
X930144Y712066D01*
X932093Y712066D01*
X934042Y710117D01*
X934042Y706219D01*
X932093Y704270D01*
X934042Y715964D02*
X922348Y715964D01*
X930144Y719862D02*
X934042Y715964D01*
X930144Y719862D02*
X934042Y723760D01*
X922348Y723760D01*
D11*
X755650Y326390D02*
X755650Y283210D01*
X730250Y283210D02*
X730250Y326390D01*
X732790Y280670D02*
X753110Y280670D01*
X753110Y328930D02*
X732790Y328930D01*
X755650Y283210D02*
X755648Y283110D01*
X755642Y283011D01*
X755632Y282911D01*
X755619Y282813D01*
X755601Y282714D01*
X755580Y282617D01*
X755555Y282521D01*
X755526Y282425D01*
X755493Y282331D01*
X755457Y282238D01*
X755417Y282147D01*
X755373Y282057D01*
X755326Y281969D01*
X755276Y281883D01*
X755222Y281799D01*
X755165Y281717D01*
X755105Y281638D01*
X755041Y281560D01*
X754975Y281486D01*
X754906Y281414D01*
X754834Y281345D01*
X754760Y281279D01*
X754682Y281215D01*
X754603Y281155D01*
X754521Y281098D01*
X754437Y281044D01*
X754351Y280994D01*
X754263Y280947D01*
X754173Y280903D01*
X754082Y280863D01*
X753989Y280827D01*
X753895Y280794D01*
X753799Y280765D01*
X753703Y280740D01*
X753606Y280719D01*
X753507Y280701D01*
X753409Y280688D01*
X753309Y280678D01*
X753210Y280672D01*
X753110Y280670D01*
X755650Y326390D02*
X755648Y326490D01*
X755642Y326589D01*
X755632Y326689D01*
X755619Y326787D01*
X755601Y326886D01*
X755580Y326983D01*
X755555Y327079D01*
X755526Y327175D01*
X755493Y327269D01*
X755457Y327362D01*
X755417Y327453D01*
X755373Y327543D01*
X755326Y327631D01*
X755276Y327717D01*
X755222Y327801D01*
X755165Y327883D01*
X755105Y327962D01*
X755041Y328040D01*
X754975Y328114D01*
X754906Y328186D01*
X754834Y328255D01*
X754760Y328321D01*
X754682Y328385D01*
X754603Y328445D01*
X754521Y328502D01*
X754437Y328556D01*
X754351Y328606D01*
X754263Y328653D01*
X754173Y328697D01*
X754082Y328737D01*
X753989Y328773D01*
X753895Y328806D01*
X753799Y328835D01*
X753703Y328860D01*
X753606Y328881D01*
X753507Y328899D01*
X753409Y328912D01*
X753309Y328922D01*
X753210Y328928D01*
X753110Y328930D01*
X730250Y283210D02*
X730252Y283110D01*
X730258Y283011D01*
X730268Y282911D01*
X730281Y282813D01*
X730299Y282714D01*
X730320Y282617D01*
X730345Y282521D01*
X730374Y282425D01*
X730407Y282331D01*
X730443Y282238D01*
X730483Y282147D01*
X730527Y282057D01*
X730574Y281969D01*
X730624Y281883D01*
X730678Y281799D01*
X730735Y281717D01*
X730795Y281638D01*
X730859Y281560D01*
X730925Y281486D01*
X730994Y281414D01*
X731066Y281345D01*
X731140Y281279D01*
X731218Y281215D01*
X731297Y281155D01*
X731379Y281098D01*
X731463Y281044D01*
X731549Y280994D01*
X731637Y280947D01*
X731727Y280903D01*
X731818Y280863D01*
X731911Y280827D01*
X732005Y280794D01*
X732101Y280765D01*
X732197Y280740D01*
X732294Y280719D01*
X732393Y280701D01*
X732491Y280688D01*
X732591Y280678D01*
X732690Y280672D01*
X732790Y280670D01*
X730250Y326390D02*
X730252Y326490D01*
X730258Y326589D01*
X730268Y326689D01*
X730281Y326787D01*
X730299Y326886D01*
X730320Y326983D01*
X730345Y327079D01*
X730374Y327175D01*
X730407Y327269D01*
X730443Y327362D01*
X730483Y327453D01*
X730527Y327543D01*
X730574Y327631D01*
X730624Y327717D01*
X730678Y327801D01*
X730735Y327883D01*
X730795Y327962D01*
X730859Y328040D01*
X730925Y328114D01*
X730994Y328186D01*
X731066Y328255D01*
X731140Y328321D01*
X731218Y328385D01*
X731297Y328445D01*
X731379Y328502D01*
X731463Y328556D01*
X731549Y328606D01*
X731637Y328653D01*
X731727Y328697D01*
X731818Y328737D01*
X731911Y328773D01*
X732005Y328806D01*
X732101Y328835D01*
X732197Y328860D01*
X732294Y328881D01*
X732393Y328899D01*
X732491Y328912D01*
X732591Y328922D01*
X732690Y328928D01*
X732790Y328930D01*
X742950Y302260D02*
X742950Y300990D01*
D18*
X742950Y302260D02*
X750570Y302260D01*
X742950Y302260D02*
X735330Y302260D01*
X742950Y307340D02*
X750570Y307340D01*
X742950Y307340D02*
X735330Y307340D01*
D11*
X742950Y307340D02*
X742950Y308610D01*
D14*
X725168Y275672D02*
X717542Y275672D01*
X715635Y277579D01*
X715635Y281392D01*
X717542Y283299D01*
X725168Y283299D01*
X727075Y281392D01*
X727075Y277579D01*
X725168Y275672D01*
X717542Y283299D01*
X725168Y287366D02*
X727075Y287366D01*
X725168Y287366D02*
X725168Y289273D01*
X727075Y289273D01*
X727075Y287366D01*
X719449Y293213D02*
X715635Y297026D01*
X727075Y297026D01*
X727075Y293213D02*
X727075Y300839D01*
X725168Y304907D02*
X719449Y304907D01*
X725168Y304907D02*
X727075Y306814D01*
X727075Y312533D01*
X719449Y312533D01*
X715635Y316601D02*
X727075Y316601D01*
X715635Y316601D02*
X715635Y324227D01*
X721355Y320414D02*
X721355Y316601D01*
D11*
X730250Y397510D02*
X730250Y440690D01*
X704850Y440690D02*
X704850Y397510D01*
X707390Y394970D02*
X727710Y394970D01*
X727710Y443230D02*
X707390Y443230D01*
X730250Y397510D02*
X730248Y397410D01*
X730242Y397311D01*
X730232Y397211D01*
X730219Y397113D01*
X730201Y397014D01*
X730180Y396917D01*
X730155Y396821D01*
X730126Y396725D01*
X730093Y396631D01*
X730057Y396538D01*
X730017Y396447D01*
X729973Y396357D01*
X729926Y396269D01*
X729876Y396183D01*
X729822Y396099D01*
X729765Y396017D01*
X729705Y395938D01*
X729641Y395860D01*
X729575Y395786D01*
X729506Y395714D01*
X729434Y395645D01*
X729360Y395579D01*
X729282Y395515D01*
X729203Y395455D01*
X729121Y395398D01*
X729037Y395344D01*
X728951Y395294D01*
X728863Y395247D01*
X728773Y395203D01*
X728682Y395163D01*
X728589Y395127D01*
X728495Y395094D01*
X728399Y395065D01*
X728303Y395040D01*
X728206Y395019D01*
X728107Y395001D01*
X728009Y394988D01*
X727909Y394978D01*
X727810Y394972D01*
X727710Y394970D01*
X730250Y440690D02*
X730248Y440790D01*
X730242Y440889D01*
X730232Y440989D01*
X730219Y441087D01*
X730201Y441186D01*
X730180Y441283D01*
X730155Y441379D01*
X730126Y441475D01*
X730093Y441569D01*
X730057Y441662D01*
X730017Y441753D01*
X729973Y441843D01*
X729926Y441931D01*
X729876Y442017D01*
X729822Y442101D01*
X729765Y442183D01*
X729705Y442262D01*
X729641Y442340D01*
X729575Y442414D01*
X729506Y442486D01*
X729434Y442555D01*
X729360Y442621D01*
X729282Y442685D01*
X729203Y442745D01*
X729121Y442802D01*
X729037Y442856D01*
X728951Y442906D01*
X728863Y442953D01*
X728773Y442997D01*
X728682Y443037D01*
X728589Y443073D01*
X728495Y443106D01*
X728399Y443135D01*
X728303Y443160D01*
X728206Y443181D01*
X728107Y443199D01*
X728009Y443212D01*
X727909Y443222D01*
X727810Y443228D01*
X727710Y443230D01*
X704850Y397510D02*
X704852Y397410D01*
X704858Y397311D01*
X704868Y397211D01*
X704881Y397113D01*
X704899Y397014D01*
X704920Y396917D01*
X704945Y396821D01*
X704974Y396725D01*
X705007Y396631D01*
X705043Y396538D01*
X705083Y396447D01*
X705127Y396357D01*
X705174Y396269D01*
X705224Y396183D01*
X705278Y396099D01*
X705335Y396017D01*
X705395Y395938D01*
X705459Y395860D01*
X705525Y395786D01*
X705594Y395714D01*
X705666Y395645D01*
X705740Y395579D01*
X705818Y395515D01*
X705897Y395455D01*
X705979Y395398D01*
X706063Y395344D01*
X706149Y395294D01*
X706237Y395247D01*
X706327Y395203D01*
X706418Y395163D01*
X706511Y395127D01*
X706605Y395094D01*
X706701Y395065D01*
X706797Y395040D01*
X706894Y395019D01*
X706993Y395001D01*
X707091Y394988D01*
X707191Y394978D01*
X707290Y394972D01*
X707390Y394970D01*
X704850Y440690D02*
X704852Y440790D01*
X704858Y440889D01*
X704868Y440989D01*
X704881Y441087D01*
X704899Y441186D01*
X704920Y441283D01*
X704945Y441379D01*
X704974Y441475D01*
X705007Y441569D01*
X705043Y441662D01*
X705083Y441753D01*
X705127Y441843D01*
X705174Y441931D01*
X705224Y442017D01*
X705278Y442101D01*
X705335Y442183D01*
X705395Y442262D01*
X705459Y442340D01*
X705525Y442414D01*
X705594Y442486D01*
X705666Y442555D01*
X705740Y442621D01*
X705818Y442685D01*
X705897Y442745D01*
X705979Y442802D01*
X706063Y442856D01*
X706149Y442906D01*
X706237Y442953D01*
X706327Y442997D01*
X706418Y443037D01*
X706511Y443073D01*
X706605Y443106D01*
X706701Y443135D01*
X706797Y443160D01*
X706894Y443181D01*
X706993Y443199D01*
X707091Y443212D01*
X707191Y443222D01*
X707290Y443228D01*
X707390Y443230D01*
X717550Y416560D02*
X717550Y415290D01*
D18*
X717550Y416560D02*
X725170Y416560D01*
X717550Y416560D02*
X709930Y416560D01*
X717550Y421640D02*
X725170Y421640D01*
X717550Y421640D02*
X709930Y421640D01*
D11*
X717550Y421640D02*
X717550Y422910D01*
D14*
X699768Y389972D02*
X692142Y389972D01*
X690235Y391879D01*
X690235Y395692D01*
X692142Y397599D01*
X699768Y397599D01*
X701675Y395692D01*
X701675Y391879D01*
X699768Y389972D01*
X692142Y397599D01*
X699768Y401666D02*
X701675Y401666D01*
X699768Y401666D02*
X699768Y403573D01*
X701675Y403573D01*
X701675Y401666D01*
X694049Y407513D02*
X690235Y411326D01*
X701675Y411326D01*
X701675Y407513D02*
X701675Y415139D01*
X699768Y419207D02*
X694049Y419207D01*
X699768Y419207D02*
X701675Y421114D01*
X701675Y426833D01*
X694049Y426833D01*
X690235Y430901D02*
X701675Y430901D01*
X690235Y430901D02*
X690235Y438527D01*
X695955Y434714D02*
X695955Y430901D01*
D19*
X346202Y234950D02*
X346202Y228600D01*
X346202Y222250D01*
D11*
X346202Y228600D02*
X334010Y228600D01*
D19*
X352552Y228600D02*
X352552Y234950D01*
X352552Y228600D02*
X352552Y222250D01*
D11*
X352552Y228600D02*
X364490Y228600D01*
X312420Y238760D02*
X312420Y218440D01*
X314960Y215900D02*
X383540Y215900D01*
X386080Y218440D02*
X386080Y238760D01*
X383540Y241300D02*
X314960Y241300D01*
X383540Y241300D02*
X383640Y241298D01*
X383739Y241292D01*
X383839Y241282D01*
X383937Y241269D01*
X384036Y241251D01*
X384133Y241230D01*
X384229Y241205D01*
X384325Y241176D01*
X384419Y241143D01*
X384512Y241107D01*
X384603Y241067D01*
X384693Y241023D01*
X384781Y240976D01*
X384867Y240926D01*
X384951Y240872D01*
X385033Y240815D01*
X385112Y240755D01*
X385190Y240691D01*
X385264Y240625D01*
X385336Y240556D01*
X385405Y240484D01*
X385471Y240410D01*
X385535Y240332D01*
X385595Y240253D01*
X385652Y240171D01*
X385706Y240087D01*
X385756Y240001D01*
X385803Y239913D01*
X385847Y239823D01*
X385887Y239732D01*
X385923Y239639D01*
X385956Y239545D01*
X385985Y239449D01*
X386010Y239353D01*
X386031Y239256D01*
X386049Y239157D01*
X386062Y239059D01*
X386072Y238959D01*
X386078Y238860D01*
X386080Y238760D01*
X386080Y218440D02*
X386078Y218340D01*
X386072Y218241D01*
X386062Y218141D01*
X386049Y218043D01*
X386031Y217944D01*
X386010Y217847D01*
X385985Y217751D01*
X385956Y217655D01*
X385923Y217561D01*
X385887Y217468D01*
X385847Y217377D01*
X385803Y217287D01*
X385756Y217199D01*
X385706Y217113D01*
X385652Y217029D01*
X385595Y216947D01*
X385535Y216868D01*
X385471Y216790D01*
X385405Y216716D01*
X385336Y216644D01*
X385264Y216575D01*
X385190Y216509D01*
X385112Y216445D01*
X385033Y216385D01*
X384951Y216328D01*
X384867Y216274D01*
X384781Y216224D01*
X384693Y216177D01*
X384603Y216133D01*
X384512Y216093D01*
X384419Y216057D01*
X384325Y216024D01*
X384229Y215995D01*
X384133Y215970D01*
X384036Y215949D01*
X383937Y215931D01*
X383839Y215918D01*
X383739Y215908D01*
X383640Y215902D01*
X383540Y215900D01*
X314960Y215900D02*
X314860Y215902D01*
X314761Y215908D01*
X314661Y215918D01*
X314563Y215931D01*
X314464Y215949D01*
X314367Y215970D01*
X314271Y215995D01*
X314175Y216024D01*
X314081Y216057D01*
X313988Y216093D01*
X313897Y216133D01*
X313807Y216177D01*
X313719Y216224D01*
X313633Y216274D01*
X313549Y216328D01*
X313467Y216385D01*
X313388Y216445D01*
X313310Y216509D01*
X313236Y216575D01*
X313164Y216644D01*
X313095Y216716D01*
X313029Y216790D01*
X312965Y216868D01*
X312905Y216947D01*
X312848Y217029D01*
X312794Y217113D01*
X312744Y217199D01*
X312697Y217287D01*
X312653Y217377D01*
X312613Y217468D01*
X312577Y217561D01*
X312544Y217655D01*
X312515Y217751D01*
X312490Y217847D01*
X312469Y217944D01*
X312451Y218043D01*
X312438Y218141D01*
X312428Y218241D01*
X312422Y218340D01*
X312420Y218440D01*
X312420Y238760D02*
X312422Y238860D01*
X312428Y238959D01*
X312438Y239059D01*
X312451Y239157D01*
X312469Y239256D01*
X312490Y239353D01*
X312515Y239449D01*
X312544Y239545D01*
X312577Y239639D01*
X312613Y239732D01*
X312653Y239823D01*
X312697Y239913D01*
X312744Y240001D01*
X312794Y240087D01*
X312848Y240171D01*
X312905Y240253D01*
X312965Y240332D01*
X313029Y240410D01*
X313095Y240484D01*
X313164Y240556D01*
X313236Y240625D01*
X313310Y240691D01*
X313388Y240755D01*
X313467Y240815D01*
X313549Y240872D01*
X313633Y240926D01*
X313719Y240976D01*
X313807Y241023D01*
X313897Y241067D01*
X313988Y241107D01*
X314081Y241143D01*
X314175Y241176D01*
X314271Y241205D01*
X314367Y241230D01*
X314464Y241251D01*
X314563Y241269D01*
X314661Y241282D01*
X314761Y241292D01*
X314860Y241298D01*
X314960Y241300D01*
D14*
X366507Y211465D02*
X368414Y209558D01*
X366507Y211465D02*
X362694Y211465D01*
X360787Y209558D01*
X360787Y201932D01*
X362694Y200025D01*
X366507Y200025D01*
X368414Y201932D01*
X372481Y209558D02*
X374388Y211465D01*
X378201Y211465D01*
X380108Y209558D01*
X380108Y207652D01*
X378201Y205745D01*
X380108Y203838D01*
X380108Y201932D01*
X378201Y200025D01*
X374388Y200025D01*
X372481Y201932D01*
X372481Y203838D01*
X374388Y205745D01*
X372481Y207652D01*
X372481Y209558D01*
X374388Y205745D02*
X378201Y205745D01*
X319408Y212735D02*
X315595Y208922D01*
X319408Y212735D02*
X319408Y201295D01*
X315595Y201295D02*
X323222Y201295D01*
X327289Y203202D02*
X327289Y210828D01*
X329196Y212735D01*
X333009Y212735D01*
X334915Y210828D01*
X334915Y203202D01*
X333009Y201295D01*
X329196Y201295D01*
X327289Y203202D01*
X334915Y210828D01*
X338983Y208922D02*
X338983Y203202D01*
X340890Y201295D01*
X346609Y201295D01*
X346609Y208922D01*
X350677Y212735D02*
X350677Y201295D01*
X350677Y212735D02*
X358303Y212735D01*
X354490Y207015D02*
X350677Y207015D01*
D19*
X479552Y508000D02*
X479552Y514350D01*
X479552Y508000D02*
X479552Y501650D01*
D11*
X479552Y508000D02*
X467360Y508000D01*
D19*
X485902Y508000D02*
X485902Y514350D01*
X485902Y508000D02*
X485902Y501650D01*
D11*
X485902Y508000D02*
X497840Y508000D01*
X445770Y518160D02*
X445770Y497840D01*
X448310Y495300D02*
X516890Y495300D01*
X519430Y497840D02*
X519430Y518160D01*
X516890Y520700D02*
X448310Y520700D01*
X516890Y520700D02*
X516990Y520698D01*
X517089Y520692D01*
X517189Y520682D01*
X517287Y520669D01*
X517386Y520651D01*
X517483Y520630D01*
X517579Y520605D01*
X517675Y520576D01*
X517769Y520543D01*
X517862Y520507D01*
X517953Y520467D01*
X518043Y520423D01*
X518131Y520376D01*
X518217Y520326D01*
X518301Y520272D01*
X518383Y520215D01*
X518462Y520155D01*
X518540Y520091D01*
X518614Y520025D01*
X518686Y519956D01*
X518755Y519884D01*
X518821Y519810D01*
X518885Y519732D01*
X518945Y519653D01*
X519002Y519571D01*
X519056Y519487D01*
X519106Y519401D01*
X519153Y519313D01*
X519197Y519223D01*
X519237Y519132D01*
X519273Y519039D01*
X519306Y518945D01*
X519335Y518849D01*
X519360Y518753D01*
X519381Y518656D01*
X519399Y518557D01*
X519412Y518459D01*
X519422Y518359D01*
X519428Y518260D01*
X519430Y518160D01*
X519430Y497840D02*
X519428Y497740D01*
X519422Y497641D01*
X519412Y497541D01*
X519399Y497443D01*
X519381Y497344D01*
X519360Y497247D01*
X519335Y497151D01*
X519306Y497055D01*
X519273Y496961D01*
X519237Y496868D01*
X519197Y496777D01*
X519153Y496687D01*
X519106Y496599D01*
X519056Y496513D01*
X519002Y496429D01*
X518945Y496347D01*
X518885Y496268D01*
X518821Y496190D01*
X518755Y496116D01*
X518686Y496044D01*
X518614Y495975D01*
X518540Y495909D01*
X518462Y495845D01*
X518383Y495785D01*
X518301Y495728D01*
X518217Y495674D01*
X518131Y495624D01*
X518043Y495577D01*
X517953Y495533D01*
X517862Y495493D01*
X517769Y495457D01*
X517675Y495424D01*
X517579Y495395D01*
X517483Y495370D01*
X517386Y495349D01*
X517287Y495331D01*
X517189Y495318D01*
X517089Y495308D01*
X516990Y495302D01*
X516890Y495300D01*
X448310Y495300D02*
X448210Y495302D01*
X448111Y495308D01*
X448011Y495318D01*
X447913Y495331D01*
X447814Y495349D01*
X447717Y495370D01*
X447621Y495395D01*
X447525Y495424D01*
X447431Y495457D01*
X447338Y495493D01*
X447247Y495533D01*
X447157Y495577D01*
X447069Y495624D01*
X446983Y495674D01*
X446899Y495728D01*
X446817Y495785D01*
X446738Y495845D01*
X446660Y495909D01*
X446586Y495975D01*
X446514Y496044D01*
X446445Y496116D01*
X446379Y496190D01*
X446315Y496268D01*
X446255Y496347D01*
X446198Y496429D01*
X446144Y496513D01*
X446094Y496599D01*
X446047Y496687D01*
X446003Y496777D01*
X445963Y496868D01*
X445927Y496961D01*
X445894Y497055D01*
X445865Y497151D01*
X445840Y497247D01*
X445819Y497344D01*
X445801Y497443D01*
X445788Y497541D01*
X445778Y497641D01*
X445772Y497740D01*
X445770Y497840D01*
X445770Y518160D02*
X445772Y518260D01*
X445778Y518359D01*
X445788Y518459D01*
X445801Y518557D01*
X445819Y518656D01*
X445840Y518753D01*
X445865Y518849D01*
X445894Y518945D01*
X445927Y519039D01*
X445963Y519132D01*
X446003Y519223D01*
X446047Y519313D01*
X446094Y519401D01*
X446144Y519487D01*
X446198Y519571D01*
X446255Y519653D01*
X446315Y519732D01*
X446379Y519810D01*
X446445Y519884D01*
X446514Y519956D01*
X446586Y520025D01*
X446660Y520091D01*
X446738Y520155D01*
X446817Y520215D01*
X446899Y520272D01*
X446983Y520326D01*
X447069Y520376D01*
X447157Y520423D01*
X447247Y520467D01*
X447338Y520507D01*
X447431Y520543D01*
X447525Y520576D01*
X447621Y520605D01*
X447717Y520630D01*
X447814Y520651D01*
X447913Y520669D01*
X448011Y520682D01*
X448111Y520692D01*
X448210Y520698D01*
X448310Y520700D01*
D14*
X456572Y534678D02*
X454665Y536585D01*
X450852Y536585D01*
X448945Y534678D01*
X448945Y527052D01*
X450852Y525145D01*
X454665Y525145D01*
X456572Y527052D01*
X460639Y534678D02*
X462546Y536585D01*
X466359Y536585D01*
X468265Y534678D01*
X468265Y532772D01*
X466359Y530865D01*
X464452Y530865D01*
X466359Y530865D02*
X468265Y528958D01*
X468265Y527052D01*
X466359Y525145D01*
X462546Y525145D01*
X460639Y527052D01*
X452758Y492135D02*
X448945Y488322D01*
X452758Y492135D02*
X452758Y480695D01*
X448945Y480695D02*
X456572Y480695D01*
X460639Y482602D02*
X460639Y490228D01*
X462546Y492135D01*
X466359Y492135D01*
X468265Y490228D01*
X468265Y482602D01*
X466359Y480695D01*
X462546Y480695D01*
X460639Y482602D01*
X468265Y490228D01*
X472333Y488322D02*
X472333Y482602D01*
X474240Y480695D01*
X479959Y480695D01*
X479959Y488322D01*
X484027Y492135D02*
X484027Y480695D01*
X484027Y492135D02*
X491653Y492135D01*
X487840Y486415D02*
X484027Y486415D01*
D11*
X800100Y483870D02*
X800102Y483970D01*
X800108Y484069D01*
X800118Y484169D01*
X800131Y484267D01*
X800149Y484366D01*
X800170Y484463D01*
X800195Y484559D01*
X800224Y484655D01*
X800257Y484749D01*
X800293Y484842D01*
X800333Y484933D01*
X800377Y485023D01*
X800424Y485111D01*
X800474Y485197D01*
X800528Y485281D01*
X800585Y485363D01*
X800645Y485442D01*
X800709Y485520D01*
X800775Y485594D01*
X800844Y485666D01*
X800916Y485735D01*
X800990Y485801D01*
X801068Y485865D01*
X801147Y485925D01*
X801229Y485982D01*
X801313Y486036D01*
X801399Y486086D01*
X801487Y486133D01*
X801577Y486177D01*
X801668Y486217D01*
X801761Y486253D01*
X801855Y486286D01*
X801951Y486315D01*
X802047Y486340D01*
X802144Y486361D01*
X802243Y486379D01*
X802341Y486392D01*
X802441Y486402D01*
X802540Y486408D01*
X802640Y486410D01*
X800100Y468630D02*
X800102Y468530D01*
X800108Y468431D01*
X800118Y468331D01*
X800131Y468233D01*
X800149Y468134D01*
X800170Y468037D01*
X800195Y467941D01*
X800224Y467845D01*
X800257Y467751D01*
X800293Y467658D01*
X800333Y467567D01*
X800377Y467477D01*
X800424Y467389D01*
X800474Y467303D01*
X800528Y467219D01*
X800585Y467137D01*
X800645Y467058D01*
X800709Y466980D01*
X800775Y466906D01*
X800844Y466834D01*
X800916Y466765D01*
X800990Y466699D01*
X801068Y466635D01*
X801147Y466575D01*
X801229Y466518D01*
X801313Y466464D01*
X801399Y466414D01*
X801487Y466367D01*
X801577Y466323D01*
X801668Y466283D01*
X801761Y466247D01*
X801855Y466214D01*
X801951Y466185D01*
X802047Y466160D01*
X802144Y466139D01*
X802243Y466121D01*
X802341Y466108D01*
X802441Y466098D01*
X802540Y466092D01*
X802640Y466090D01*
X848360Y466090D02*
X848460Y466092D01*
X848559Y466098D01*
X848659Y466108D01*
X848757Y466121D01*
X848856Y466139D01*
X848953Y466160D01*
X849049Y466185D01*
X849145Y466214D01*
X849239Y466247D01*
X849332Y466283D01*
X849423Y466323D01*
X849513Y466367D01*
X849601Y466414D01*
X849687Y466464D01*
X849771Y466518D01*
X849853Y466575D01*
X849932Y466635D01*
X850010Y466699D01*
X850084Y466765D01*
X850156Y466834D01*
X850225Y466906D01*
X850291Y466980D01*
X850355Y467058D01*
X850415Y467137D01*
X850472Y467219D01*
X850526Y467303D01*
X850576Y467389D01*
X850623Y467477D01*
X850667Y467567D01*
X850707Y467658D01*
X850743Y467751D01*
X850776Y467845D01*
X850805Y467941D01*
X850830Y468037D01*
X850851Y468134D01*
X850869Y468233D01*
X850882Y468331D01*
X850892Y468431D01*
X850898Y468530D01*
X850900Y468630D01*
X850900Y483870D02*
X850898Y483970D01*
X850892Y484069D01*
X850882Y484169D01*
X850869Y484267D01*
X850851Y484366D01*
X850830Y484463D01*
X850805Y484559D01*
X850776Y484655D01*
X850743Y484749D01*
X850707Y484842D01*
X850667Y484933D01*
X850623Y485023D01*
X850576Y485111D01*
X850526Y485197D01*
X850472Y485281D01*
X850415Y485363D01*
X850355Y485442D01*
X850291Y485520D01*
X850225Y485594D01*
X850156Y485666D01*
X850084Y485735D01*
X850010Y485801D01*
X849932Y485865D01*
X849853Y485925D01*
X849771Y485982D01*
X849687Y486036D01*
X849601Y486086D01*
X849513Y486133D01*
X849423Y486177D01*
X849332Y486217D01*
X849239Y486253D01*
X849145Y486286D01*
X849049Y486315D01*
X848953Y486340D01*
X848856Y486361D01*
X848757Y486379D01*
X848659Y486392D01*
X848559Y486402D01*
X848460Y486408D01*
X848360Y486410D01*
X800100Y483870D02*
X800100Y468630D01*
X802640Y486410D02*
X806450Y486410D01*
X807720Y485140D01*
X806450Y466090D02*
X802640Y466090D01*
X806450Y466090D02*
X807720Y467360D01*
X843280Y485140D02*
X844550Y486410D01*
X843280Y485140D02*
X807720Y485140D01*
X843280Y467360D02*
X844550Y466090D01*
X843280Y467360D02*
X807720Y467360D01*
X844550Y486410D02*
X848360Y486410D01*
X848360Y466090D02*
X844550Y466090D01*
X850900Y468630D02*
X850900Y483870D01*
D20*
X852805Y476250D03*
X798195Y476250D03*
D12*
X773938Y470408D02*
X765040Y470408D01*
X765040Y474857D01*
X766523Y476340D01*
X769489Y476340D01*
X770972Y474857D01*
X770972Y470408D01*
X770972Y473374D02*
X773938Y476340D01*
X768006Y479529D02*
X765040Y482495D01*
X773938Y482495D01*
X773938Y479529D02*
X773938Y485461D01*
X814201Y480830D02*
X814201Y471932D01*
X809752Y476381D02*
X814201Y480830D01*
X815684Y476381D02*
X809752Y476381D01*
X818873Y473415D02*
X818873Y471932D01*
X818873Y473415D02*
X820356Y473415D01*
X820356Y471932D01*
X818873Y471932D01*
X823434Y480830D02*
X829366Y480830D01*
X829366Y479347D01*
X823434Y473415D01*
X823434Y471932D01*
X832555Y471932D02*
X832555Y480830D01*
X832555Y474898D02*
X838487Y480830D01*
X834038Y476381D02*
X838487Y471932D01*
D11*
X825500Y509270D02*
X825502Y509370D01*
X825508Y509469D01*
X825518Y509569D01*
X825531Y509667D01*
X825549Y509766D01*
X825570Y509863D01*
X825595Y509959D01*
X825624Y510055D01*
X825657Y510149D01*
X825693Y510242D01*
X825733Y510333D01*
X825777Y510423D01*
X825824Y510511D01*
X825874Y510597D01*
X825928Y510681D01*
X825985Y510763D01*
X826045Y510842D01*
X826109Y510920D01*
X826175Y510994D01*
X826244Y511066D01*
X826316Y511135D01*
X826390Y511201D01*
X826468Y511265D01*
X826547Y511325D01*
X826629Y511382D01*
X826713Y511436D01*
X826799Y511486D01*
X826887Y511533D01*
X826977Y511577D01*
X827068Y511617D01*
X827161Y511653D01*
X827255Y511686D01*
X827351Y511715D01*
X827447Y511740D01*
X827544Y511761D01*
X827643Y511779D01*
X827741Y511792D01*
X827841Y511802D01*
X827940Y511808D01*
X828040Y511810D01*
X825500Y494030D02*
X825502Y493930D01*
X825508Y493831D01*
X825518Y493731D01*
X825531Y493633D01*
X825549Y493534D01*
X825570Y493437D01*
X825595Y493341D01*
X825624Y493245D01*
X825657Y493151D01*
X825693Y493058D01*
X825733Y492967D01*
X825777Y492877D01*
X825824Y492789D01*
X825874Y492703D01*
X825928Y492619D01*
X825985Y492537D01*
X826045Y492458D01*
X826109Y492380D01*
X826175Y492306D01*
X826244Y492234D01*
X826316Y492165D01*
X826390Y492099D01*
X826468Y492035D01*
X826547Y491975D01*
X826629Y491918D01*
X826713Y491864D01*
X826799Y491814D01*
X826887Y491767D01*
X826977Y491723D01*
X827068Y491683D01*
X827161Y491647D01*
X827255Y491614D01*
X827351Y491585D01*
X827447Y491560D01*
X827544Y491539D01*
X827643Y491521D01*
X827741Y491508D01*
X827841Y491498D01*
X827940Y491492D01*
X828040Y491490D01*
X873760Y491490D02*
X873860Y491492D01*
X873959Y491498D01*
X874059Y491508D01*
X874157Y491521D01*
X874256Y491539D01*
X874353Y491560D01*
X874449Y491585D01*
X874545Y491614D01*
X874639Y491647D01*
X874732Y491683D01*
X874823Y491723D01*
X874913Y491767D01*
X875001Y491814D01*
X875087Y491864D01*
X875171Y491918D01*
X875253Y491975D01*
X875332Y492035D01*
X875410Y492099D01*
X875484Y492165D01*
X875556Y492234D01*
X875625Y492306D01*
X875691Y492380D01*
X875755Y492458D01*
X875815Y492537D01*
X875872Y492619D01*
X875926Y492703D01*
X875976Y492789D01*
X876023Y492877D01*
X876067Y492967D01*
X876107Y493058D01*
X876143Y493151D01*
X876176Y493245D01*
X876205Y493341D01*
X876230Y493437D01*
X876251Y493534D01*
X876269Y493633D01*
X876282Y493731D01*
X876292Y493831D01*
X876298Y493930D01*
X876300Y494030D01*
X876300Y509270D02*
X876298Y509370D01*
X876292Y509469D01*
X876282Y509569D01*
X876269Y509667D01*
X876251Y509766D01*
X876230Y509863D01*
X876205Y509959D01*
X876176Y510055D01*
X876143Y510149D01*
X876107Y510242D01*
X876067Y510333D01*
X876023Y510423D01*
X875976Y510511D01*
X875926Y510597D01*
X875872Y510681D01*
X875815Y510763D01*
X875755Y510842D01*
X875691Y510920D01*
X875625Y510994D01*
X875556Y511066D01*
X875484Y511135D01*
X875410Y511201D01*
X875332Y511265D01*
X875253Y511325D01*
X875171Y511382D01*
X875087Y511436D01*
X875001Y511486D01*
X874913Y511533D01*
X874823Y511577D01*
X874732Y511617D01*
X874639Y511653D01*
X874545Y511686D01*
X874449Y511715D01*
X874353Y511740D01*
X874256Y511761D01*
X874157Y511779D01*
X874059Y511792D01*
X873959Y511802D01*
X873860Y511808D01*
X873760Y511810D01*
X825500Y509270D02*
X825500Y494030D01*
X828040Y511810D02*
X831850Y511810D01*
X833120Y510540D01*
X831850Y491490D02*
X828040Y491490D01*
X831850Y491490D02*
X833120Y492760D01*
X868680Y510540D02*
X869950Y511810D01*
X868680Y510540D02*
X833120Y510540D01*
X868680Y492760D02*
X869950Y491490D01*
X868680Y492760D02*
X833120Y492760D01*
X869950Y511810D02*
X873760Y511810D01*
X873760Y491490D02*
X869950Y491490D01*
X876300Y494030D02*
X876300Y509270D01*
D20*
X878205Y501650D03*
X823595Y501650D03*
D12*
X799338Y495808D02*
X790440Y495808D01*
X790440Y500257D01*
X791923Y501740D01*
X794889Y501740D01*
X796372Y500257D01*
X796372Y495808D01*
X796372Y498774D02*
X799338Y501740D01*
X799338Y504929D02*
X799338Y510861D01*
X799338Y504929D02*
X793406Y510861D01*
X791923Y510861D01*
X790440Y509378D01*
X790440Y506412D01*
X791923Y504929D01*
X839601Y506230D02*
X839601Y497332D01*
X835152Y501781D02*
X839601Y506230D01*
X841084Y501781D02*
X835152Y501781D01*
X844273Y498815D02*
X844273Y497332D01*
X844273Y498815D02*
X845756Y498815D01*
X845756Y497332D01*
X844273Y497332D01*
X848834Y506230D02*
X854766Y506230D01*
X854766Y504747D01*
X848834Y498815D01*
X848834Y497332D01*
X857955Y497332D02*
X857955Y506230D01*
X857955Y500298D02*
X863887Y506230D01*
X859438Y501781D02*
X863887Y497332D01*
D11*
X664210Y457200D02*
X664210Y254000D01*
X605790Y254000D02*
X605790Y457200D01*
X605790Y254000D02*
X664210Y254000D01*
X664210Y457200D02*
X645160Y457200D01*
X624840Y457200D02*
X605790Y457200D01*
X624840Y457200D02*
X624843Y456953D01*
X624852Y456705D01*
X624867Y456458D01*
X624888Y456212D01*
X624915Y455966D01*
X624948Y455721D01*
X624987Y455476D01*
X625032Y455233D01*
X625083Y454991D01*
X625140Y454750D01*
X625202Y454511D01*
X625271Y454273D01*
X625345Y454037D01*
X625425Y453803D01*
X625510Y453571D01*
X625602Y453341D01*
X625698Y453113D01*
X625801Y452888D01*
X625908Y452665D01*
X626022Y452445D01*
X626140Y452228D01*
X626264Y452013D01*
X626393Y451802D01*
X626527Y451594D01*
X626666Y451389D01*
X626810Y451188D01*
X626958Y450990D01*
X627112Y450796D01*
X627270Y450606D01*
X627433Y450420D01*
X627600Y450238D01*
X627772Y450060D01*
X627948Y449886D01*
X628128Y449716D01*
X628313Y449551D01*
X628501Y449391D01*
X628693Y449235D01*
X628889Y449083D01*
X629088Y448937D01*
X629291Y448795D01*
X629498Y448659D01*
X629707Y448527D01*
X629920Y448401D01*
X630136Y448280D01*
X630354Y448164D01*
X630576Y448054D01*
X630800Y447949D01*
X631026Y447849D01*
X631255Y447755D01*
X631486Y447667D01*
X631720Y447584D01*
X631955Y447507D01*
X632192Y447436D01*
X632430Y447370D01*
X632670Y447311D01*
X632912Y447257D01*
X633155Y447209D01*
X633398Y447167D01*
X633643Y447131D01*
X633889Y447101D01*
X634135Y447077D01*
X634382Y447059D01*
X634629Y447047D01*
X634876Y447041D01*
X635124Y447041D01*
X635371Y447047D01*
X635618Y447059D01*
X635865Y447077D01*
X636111Y447101D01*
X636357Y447131D01*
X636602Y447167D01*
X636845Y447209D01*
X637088Y447257D01*
X637330Y447311D01*
X637570Y447370D01*
X637808Y447436D01*
X638045Y447507D01*
X638280Y447584D01*
X638514Y447667D01*
X638745Y447755D01*
X638974Y447849D01*
X639200Y447949D01*
X639424Y448054D01*
X639646Y448164D01*
X639864Y448280D01*
X640080Y448401D01*
X640293Y448527D01*
X640502Y448659D01*
X640709Y448795D01*
X640912Y448937D01*
X641111Y449083D01*
X641307Y449235D01*
X641499Y449391D01*
X641687Y449551D01*
X641872Y449716D01*
X642052Y449886D01*
X642228Y450060D01*
X642400Y450238D01*
X642567Y450420D01*
X642730Y450606D01*
X642888Y450796D01*
X643042Y450990D01*
X643190Y451188D01*
X643334Y451389D01*
X643473Y451594D01*
X643607Y451802D01*
X643736Y452013D01*
X643860Y452228D01*
X643978Y452445D01*
X644092Y452665D01*
X644199Y452888D01*
X644302Y453113D01*
X644398Y453341D01*
X644490Y453571D01*
X644575Y453803D01*
X644655Y454037D01*
X644729Y454273D01*
X644798Y454511D01*
X644860Y454750D01*
X644917Y454991D01*
X644968Y455233D01*
X645013Y455476D01*
X645052Y455721D01*
X645085Y455966D01*
X645112Y456212D01*
X645133Y456458D01*
X645148Y456705D01*
X645157Y456953D01*
X645160Y457200D01*
D14*
X606425Y463552D02*
X606425Y473085D01*
X606425Y463552D02*
X608332Y461645D01*
X612145Y461645D01*
X614052Y463552D01*
X614052Y473085D01*
X623839Y473085D02*
X623839Y461645D01*
X618119Y467365D02*
X623839Y473085D01*
X625745Y467365D02*
X618119Y467365D01*
X629275Y333546D02*
X629275Y325919D01*
X629275Y333546D02*
X631182Y333546D01*
X638808Y325919D01*
X640715Y325919D01*
X640715Y343333D02*
X629275Y343333D01*
X634995Y337613D01*
X634995Y345240D01*
X640715Y349307D02*
X629275Y349307D01*
X634995Y349307D02*
X634995Y356934D01*
X629275Y356934D02*
X640715Y356934D01*
X629275Y366721D02*
X631182Y368627D01*
X629275Y366721D02*
X629275Y362908D01*
X631182Y361001D01*
X638808Y361001D01*
X640715Y362908D01*
X640715Y366721D01*
X638808Y368627D01*
X640715Y376508D02*
X629275Y376508D01*
X629275Y372695D02*
X629275Y380321D01*
X633089Y384389D02*
X629275Y388202D01*
X640715Y388202D01*
X640715Y384389D02*
X640715Y392015D01*
X629275Y396083D02*
X629275Y403709D01*
X629275Y396083D02*
X634995Y396083D01*
X633089Y399896D01*
X633089Y401803D01*
X634995Y403709D01*
X638808Y403709D01*
X640715Y401803D01*
X640715Y397990D01*
X638808Y396083D01*
X631182Y407777D02*
X629275Y409683D01*
X629275Y413497D01*
X631182Y415403D01*
X633089Y415403D01*
X634995Y413497D01*
X634995Y411590D01*
X634995Y413497D02*
X636902Y415403D01*
X638808Y415403D01*
X640715Y413497D01*
X640715Y409683D01*
X638808Y407777D01*
X640715Y419471D02*
X629275Y419471D01*
X640715Y427097D01*
X629275Y427097D01*
D11*
X365760Y457200D02*
X365760Y254000D01*
X307340Y254000D02*
X307340Y457200D01*
X307340Y254000D02*
X365760Y254000D01*
X365760Y457200D02*
X346710Y457200D01*
X326390Y457200D02*
X307340Y457200D01*
X326390Y457200D02*
X326393Y456953D01*
X326402Y456705D01*
X326417Y456458D01*
X326438Y456212D01*
X326465Y455966D01*
X326498Y455721D01*
X326537Y455476D01*
X326582Y455233D01*
X326633Y454991D01*
X326690Y454750D01*
X326752Y454511D01*
X326821Y454273D01*
X326895Y454037D01*
X326975Y453803D01*
X327060Y453571D01*
X327152Y453341D01*
X327248Y453113D01*
X327351Y452888D01*
X327458Y452665D01*
X327572Y452445D01*
X327690Y452228D01*
X327814Y452013D01*
X327943Y451802D01*
X328077Y451594D01*
X328216Y451389D01*
X328360Y451188D01*
X328508Y450990D01*
X328662Y450796D01*
X328820Y450606D01*
X328983Y450420D01*
X329150Y450238D01*
X329322Y450060D01*
X329498Y449886D01*
X329678Y449716D01*
X329863Y449551D01*
X330051Y449391D01*
X330243Y449235D01*
X330439Y449083D01*
X330638Y448937D01*
X330841Y448795D01*
X331048Y448659D01*
X331257Y448527D01*
X331470Y448401D01*
X331686Y448280D01*
X331904Y448164D01*
X332126Y448054D01*
X332350Y447949D01*
X332576Y447849D01*
X332805Y447755D01*
X333036Y447667D01*
X333270Y447584D01*
X333505Y447507D01*
X333742Y447436D01*
X333980Y447370D01*
X334220Y447311D01*
X334462Y447257D01*
X334705Y447209D01*
X334948Y447167D01*
X335193Y447131D01*
X335439Y447101D01*
X335685Y447077D01*
X335932Y447059D01*
X336179Y447047D01*
X336426Y447041D01*
X336674Y447041D01*
X336921Y447047D01*
X337168Y447059D01*
X337415Y447077D01*
X337661Y447101D01*
X337907Y447131D01*
X338152Y447167D01*
X338395Y447209D01*
X338638Y447257D01*
X338880Y447311D01*
X339120Y447370D01*
X339358Y447436D01*
X339595Y447507D01*
X339830Y447584D01*
X340064Y447667D01*
X340295Y447755D01*
X340524Y447849D01*
X340750Y447949D01*
X340974Y448054D01*
X341196Y448164D01*
X341414Y448280D01*
X341630Y448401D01*
X341843Y448527D01*
X342052Y448659D01*
X342259Y448795D01*
X342462Y448937D01*
X342661Y449083D01*
X342857Y449235D01*
X343049Y449391D01*
X343237Y449551D01*
X343422Y449716D01*
X343602Y449886D01*
X343778Y450060D01*
X343950Y450238D01*
X344117Y450420D01*
X344280Y450606D01*
X344438Y450796D01*
X344592Y450990D01*
X344740Y451188D01*
X344884Y451389D01*
X345023Y451594D01*
X345157Y451802D01*
X345286Y452013D01*
X345410Y452228D01*
X345528Y452445D01*
X345642Y452665D01*
X345749Y452888D01*
X345852Y453113D01*
X345948Y453341D01*
X346040Y453571D01*
X346125Y453803D01*
X346205Y454037D01*
X346279Y454273D01*
X346348Y454511D01*
X346410Y454750D01*
X346467Y454991D01*
X346518Y455233D01*
X346563Y455476D01*
X346602Y455721D01*
X346635Y455966D01*
X346662Y456212D01*
X346683Y456458D01*
X346698Y456705D01*
X346707Y456953D01*
X346710Y457200D01*
D14*
X307975Y463552D02*
X307975Y473085D01*
X307975Y463552D02*
X309882Y461645D01*
X313695Y461645D01*
X315602Y463552D01*
X315602Y473085D01*
X319669Y473085D02*
X327295Y473085D01*
X319669Y473085D02*
X319669Y467365D01*
X323482Y469272D01*
X325389Y469272D01*
X327295Y467365D01*
X327295Y463552D01*
X325389Y461645D01*
X321576Y461645D01*
X319669Y463552D01*
X330825Y333546D02*
X330825Y325919D01*
X330825Y333546D02*
X332732Y333546D01*
X340358Y325919D01*
X342265Y325919D01*
X342265Y343333D02*
X330825Y343333D01*
X336545Y337613D01*
X336545Y345240D01*
X342265Y349307D02*
X330825Y349307D01*
X336545Y349307D02*
X336545Y356934D01*
X330825Y356934D02*
X342265Y356934D01*
X330825Y366721D02*
X332732Y368627D01*
X330825Y366721D02*
X330825Y362908D01*
X332732Y361001D01*
X340358Y361001D01*
X342265Y362908D01*
X342265Y366721D01*
X340358Y368627D01*
X342265Y376508D02*
X330825Y376508D01*
X330825Y372695D02*
X330825Y380321D01*
X334639Y384389D02*
X330825Y388202D01*
X342265Y388202D01*
X342265Y384389D02*
X342265Y392015D01*
X330825Y396083D02*
X330825Y403709D01*
X330825Y396083D02*
X336545Y396083D01*
X334639Y399896D01*
X334639Y401803D01*
X336545Y403709D01*
X340358Y403709D01*
X342265Y401803D01*
X342265Y397990D01*
X340358Y396083D01*
X332732Y407777D02*
X330825Y409683D01*
X330825Y413497D01*
X332732Y415403D01*
X334639Y415403D01*
X336545Y413497D01*
X336545Y411590D01*
X336545Y413497D02*
X338452Y415403D01*
X340358Y415403D01*
X342265Y413497D01*
X342265Y409683D01*
X340358Y407777D01*
X342265Y419471D02*
X330825Y419471D01*
X342265Y427097D01*
X330825Y427097D01*
D11*
X511810Y330200D02*
X511810Y127000D01*
X453390Y127000D02*
X453390Y330200D01*
X453390Y127000D02*
X511810Y127000D01*
X511810Y330200D02*
X492760Y330200D01*
X472440Y330200D02*
X453390Y330200D01*
X472440Y330200D02*
X472443Y329953D01*
X472452Y329705D01*
X472467Y329458D01*
X472488Y329212D01*
X472515Y328966D01*
X472548Y328721D01*
X472587Y328476D01*
X472632Y328233D01*
X472683Y327991D01*
X472740Y327750D01*
X472802Y327511D01*
X472871Y327273D01*
X472945Y327037D01*
X473025Y326803D01*
X473110Y326571D01*
X473202Y326341D01*
X473298Y326113D01*
X473401Y325888D01*
X473508Y325665D01*
X473622Y325445D01*
X473740Y325228D01*
X473864Y325013D01*
X473993Y324802D01*
X474127Y324594D01*
X474266Y324389D01*
X474410Y324188D01*
X474558Y323990D01*
X474712Y323796D01*
X474870Y323606D01*
X475033Y323420D01*
X475200Y323238D01*
X475372Y323060D01*
X475548Y322886D01*
X475728Y322716D01*
X475913Y322551D01*
X476101Y322391D01*
X476293Y322235D01*
X476489Y322083D01*
X476688Y321937D01*
X476891Y321795D01*
X477098Y321659D01*
X477307Y321527D01*
X477520Y321401D01*
X477736Y321280D01*
X477954Y321164D01*
X478176Y321054D01*
X478400Y320949D01*
X478626Y320849D01*
X478855Y320755D01*
X479086Y320667D01*
X479320Y320584D01*
X479555Y320507D01*
X479792Y320436D01*
X480030Y320370D01*
X480270Y320311D01*
X480512Y320257D01*
X480755Y320209D01*
X480998Y320167D01*
X481243Y320131D01*
X481489Y320101D01*
X481735Y320077D01*
X481982Y320059D01*
X482229Y320047D01*
X482476Y320041D01*
X482724Y320041D01*
X482971Y320047D01*
X483218Y320059D01*
X483465Y320077D01*
X483711Y320101D01*
X483957Y320131D01*
X484202Y320167D01*
X484445Y320209D01*
X484688Y320257D01*
X484930Y320311D01*
X485170Y320370D01*
X485408Y320436D01*
X485645Y320507D01*
X485880Y320584D01*
X486114Y320667D01*
X486345Y320755D01*
X486574Y320849D01*
X486800Y320949D01*
X487024Y321054D01*
X487246Y321164D01*
X487464Y321280D01*
X487680Y321401D01*
X487893Y321527D01*
X488102Y321659D01*
X488309Y321795D01*
X488512Y321937D01*
X488711Y322083D01*
X488907Y322235D01*
X489099Y322391D01*
X489287Y322551D01*
X489472Y322716D01*
X489652Y322886D01*
X489828Y323060D01*
X490000Y323238D01*
X490167Y323420D01*
X490330Y323606D01*
X490488Y323796D01*
X490642Y323990D01*
X490790Y324188D01*
X490934Y324389D01*
X491073Y324594D01*
X491207Y324802D01*
X491336Y325013D01*
X491460Y325228D01*
X491578Y325445D01*
X491692Y325665D01*
X491799Y325888D01*
X491902Y326113D01*
X491998Y326341D01*
X492090Y326571D01*
X492175Y326803D01*
X492255Y327037D01*
X492329Y327273D01*
X492398Y327511D01*
X492460Y327750D01*
X492517Y327991D01*
X492568Y328233D01*
X492613Y328476D01*
X492652Y328721D01*
X492685Y328966D01*
X492712Y329212D01*
X492733Y329458D01*
X492748Y329705D01*
X492757Y329953D01*
X492760Y330200D01*
D14*
X454025Y336552D02*
X454025Y346085D01*
X454025Y336552D02*
X455932Y334645D01*
X459745Y334645D01*
X461652Y336552D01*
X461652Y346085D01*
X469532Y344178D02*
X473345Y346085D01*
X469532Y344178D02*
X465719Y340365D01*
X465719Y336552D01*
X467626Y334645D01*
X471439Y334645D01*
X473345Y336552D01*
X473345Y338458D01*
X471439Y340365D01*
X465719Y340365D01*
X476875Y206546D02*
X476875Y198919D01*
X476875Y206546D02*
X478782Y206546D01*
X486408Y198919D01*
X488315Y198919D01*
X488315Y216333D02*
X476875Y216333D01*
X482595Y210613D01*
X482595Y218240D01*
X488315Y222307D02*
X476875Y222307D01*
X482595Y222307D02*
X482595Y229934D01*
X476875Y229934D02*
X488315Y229934D01*
X476875Y239721D02*
X478782Y241627D01*
X476875Y239721D02*
X476875Y235908D01*
X478782Y234001D01*
X486408Y234001D01*
X488315Y235908D01*
X488315Y239721D01*
X486408Y241627D01*
X488315Y249508D02*
X476875Y249508D01*
X476875Y245695D02*
X476875Y253321D01*
X480689Y257389D02*
X476875Y261202D01*
X488315Y261202D01*
X488315Y257389D02*
X488315Y265015D01*
X476875Y269083D02*
X476875Y276709D01*
X476875Y269083D02*
X482595Y269083D01*
X480689Y272896D01*
X480689Y274803D01*
X482595Y276709D01*
X486408Y276709D01*
X488315Y274803D01*
X488315Y270990D01*
X486408Y269083D01*
X478782Y280777D02*
X476875Y282683D01*
X476875Y286497D01*
X478782Y288403D01*
X480689Y288403D01*
X482595Y286497D01*
X482595Y284590D01*
X482595Y286497D02*
X484502Y288403D01*
X486408Y288403D01*
X488315Y286497D01*
X488315Y282683D01*
X486408Y280777D01*
X488315Y292471D02*
X476875Y292471D01*
X488315Y300097D01*
X476875Y300097D01*
D11*
X298450Y749300D02*
X285750Y749300D01*
X279400Y755650D01*
X279400Y768350D02*
X285750Y774700D01*
X279400Y755650D02*
X273050Y749300D01*
X260350Y749300D01*
X254000Y755650D01*
X254000Y768350D02*
X260350Y774700D01*
X273050Y774700D01*
X279400Y768350D01*
X304800Y768350D02*
X304800Y755650D01*
X298450Y749300D01*
X304800Y768350D02*
X298450Y774700D01*
X285750Y774700D01*
X254000Y755650D02*
X247650Y749300D01*
X234950Y749300D01*
X228600Y755650D01*
X228600Y768350D02*
X234950Y774700D01*
X247650Y774700D01*
X254000Y768350D01*
X222250Y749300D02*
X209550Y749300D01*
X203200Y755650D01*
X203200Y768350D02*
X209550Y774700D01*
X203200Y755650D02*
X196850Y749300D01*
X184150Y749300D01*
X177800Y755650D01*
X177800Y768350D02*
X184150Y774700D01*
X196850Y774700D01*
X203200Y768350D01*
X222250Y749300D02*
X228600Y755650D01*
X228600Y768350D02*
X222250Y774700D01*
X209550Y774700D01*
X177800Y755650D02*
X171450Y749300D01*
X158750Y749300D01*
X152400Y755650D01*
X152400Y768350D02*
X158750Y774700D01*
X171450Y774700D01*
X177800Y768350D01*
X146050Y749300D02*
X133350Y749300D01*
X127000Y755650D01*
X127000Y768350D02*
X133350Y774700D01*
X127000Y755650D02*
X120650Y749300D01*
X107950Y749300D01*
X101600Y755650D01*
X101600Y768350D02*
X107950Y774700D01*
X120650Y774700D01*
X127000Y768350D01*
X146050Y749300D02*
X152400Y755650D01*
X152400Y768350D02*
X146050Y774700D01*
X133350Y774700D01*
X101600Y755650D02*
X95250Y749300D01*
X82550Y749300D01*
X76200Y755650D01*
X76200Y768350D02*
X82550Y774700D01*
X95250Y774700D01*
X101600Y768350D01*
X69850Y749300D02*
X57150Y749300D01*
X50800Y755650D01*
X50800Y768350D02*
X57150Y774700D01*
X50800Y755650D02*
X44450Y749300D01*
X50800Y768350D02*
X44450Y774700D01*
X69850Y749300D02*
X76200Y755650D01*
X76200Y768350D02*
X69850Y774700D01*
X57150Y774700D01*
X44450Y749300D02*
X31750Y749300D01*
X25400Y755650D01*
X25400Y768350D02*
X31750Y774700D01*
X44450Y774700D01*
X25400Y768350D02*
X25400Y755650D01*
D14*
X304800Y749300D02*
X304800Y774700D01*
X279400Y774700D01*
X279400Y749300D01*
X304800Y749300D01*
X283954Y732155D02*
X282047Y734062D01*
X283954Y732155D02*
X285860Y732155D01*
X287767Y734062D01*
X287767Y743595D01*
X285860Y743595D02*
X289674Y743595D01*
X299461Y743595D02*
X299461Y732155D01*
X293741Y737875D02*
X299461Y743595D01*
X301368Y737875D02*
X293741Y737875D01*
D11*
X340360Y463550D02*
X383540Y463550D01*
X383540Y488950D02*
X340360Y488950D01*
X337820Y486410D02*
X337820Y466090D01*
X386080Y466090D02*
X386080Y486410D01*
X340360Y463550D02*
X340260Y463552D01*
X340161Y463558D01*
X340061Y463568D01*
X339963Y463581D01*
X339864Y463599D01*
X339767Y463620D01*
X339671Y463645D01*
X339575Y463674D01*
X339481Y463707D01*
X339388Y463743D01*
X339297Y463783D01*
X339207Y463827D01*
X339119Y463874D01*
X339033Y463924D01*
X338949Y463978D01*
X338867Y464035D01*
X338788Y464095D01*
X338710Y464159D01*
X338636Y464225D01*
X338564Y464294D01*
X338495Y464366D01*
X338429Y464440D01*
X338365Y464518D01*
X338305Y464597D01*
X338248Y464679D01*
X338194Y464763D01*
X338144Y464849D01*
X338097Y464937D01*
X338053Y465027D01*
X338013Y465118D01*
X337977Y465211D01*
X337944Y465305D01*
X337915Y465401D01*
X337890Y465497D01*
X337869Y465594D01*
X337851Y465693D01*
X337838Y465791D01*
X337828Y465891D01*
X337822Y465990D01*
X337820Y466090D01*
X383540Y463550D02*
X383640Y463552D01*
X383739Y463558D01*
X383839Y463568D01*
X383937Y463581D01*
X384036Y463599D01*
X384133Y463620D01*
X384229Y463645D01*
X384325Y463674D01*
X384419Y463707D01*
X384512Y463743D01*
X384603Y463783D01*
X384693Y463827D01*
X384781Y463874D01*
X384867Y463924D01*
X384951Y463978D01*
X385033Y464035D01*
X385112Y464095D01*
X385190Y464159D01*
X385264Y464225D01*
X385336Y464294D01*
X385405Y464366D01*
X385471Y464440D01*
X385535Y464518D01*
X385595Y464597D01*
X385652Y464679D01*
X385706Y464763D01*
X385756Y464849D01*
X385803Y464937D01*
X385847Y465027D01*
X385887Y465118D01*
X385923Y465211D01*
X385956Y465305D01*
X385985Y465401D01*
X386010Y465497D01*
X386031Y465594D01*
X386049Y465693D01*
X386062Y465791D01*
X386072Y465891D01*
X386078Y465990D01*
X386080Y466090D01*
X340360Y488950D02*
X340260Y488948D01*
X340161Y488942D01*
X340061Y488932D01*
X339963Y488919D01*
X339864Y488901D01*
X339767Y488880D01*
X339671Y488855D01*
X339575Y488826D01*
X339481Y488793D01*
X339388Y488757D01*
X339297Y488717D01*
X339207Y488673D01*
X339119Y488626D01*
X339033Y488576D01*
X338949Y488522D01*
X338867Y488465D01*
X338788Y488405D01*
X338710Y488341D01*
X338636Y488275D01*
X338564Y488206D01*
X338495Y488134D01*
X338429Y488060D01*
X338365Y487982D01*
X338305Y487903D01*
X338248Y487821D01*
X338194Y487737D01*
X338144Y487651D01*
X338097Y487563D01*
X338053Y487473D01*
X338013Y487382D01*
X337977Y487289D01*
X337944Y487195D01*
X337915Y487099D01*
X337890Y487003D01*
X337869Y486906D01*
X337851Y486807D01*
X337838Y486709D01*
X337828Y486609D01*
X337822Y486510D01*
X337820Y486410D01*
X383540Y488950D02*
X383640Y488948D01*
X383739Y488942D01*
X383839Y488932D01*
X383937Y488919D01*
X384036Y488901D01*
X384133Y488880D01*
X384229Y488855D01*
X384325Y488826D01*
X384419Y488793D01*
X384512Y488757D01*
X384603Y488717D01*
X384693Y488673D01*
X384781Y488626D01*
X384867Y488576D01*
X384951Y488522D01*
X385033Y488465D01*
X385112Y488405D01*
X385190Y488341D01*
X385264Y488275D01*
X385336Y488206D01*
X385405Y488134D01*
X385471Y488060D01*
X385535Y487982D01*
X385595Y487903D01*
X385652Y487821D01*
X385706Y487737D01*
X385756Y487651D01*
X385803Y487563D01*
X385847Y487473D01*
X385887Y487382D01*
X385923Y487289D01*
X385956Y487195D01*
X385985Y487099D01*
X386010Y487003D01*
X386031Y486906D01*
X386049Y486807D01*
X386062Y486709D01*
X386072Y486609D01*
X386078Y486510D01*
X386080Y486410D01*
X359410Y476250D02*
X358140Y476250D01*
D18*
X359410Y476250D02*
X359410Y468630D01*
X359410Y476250D02*
X359410Y483870D01*
X364490Y476250D02*
X364490Y468630D01*
X364490Y476250D02*
X364490Y483870D01*
D11*
X364490Y476250D02*
X365760Y476250D01*
D14*
X332822Y494032D02*
X332822Y501658D01*
X334729Y503565D01*
X338542Y503565D01*
X340449Y501658D01*
X340449Y494032D01*
X338542Y492125D01*
X334729Y492125D01*
X332822Y494032D01*
X340449Y501658D01*
X344516Y494032D02*
X344516Y492125D01*
X344516Y494032D02*
X346423Y494032D01*
X346423Y492125D01*
X344516Y492125D01*
X350363Y499752D02*
X354176Y503565D01*
X354176Y492125D01*
X350363Y492125D02*
X357989Y492125D01*
X362057Y494032D02*
X362057Y499752D01*
X362057Y494032D02*
X363964Y492125D01*
X369683Y492125D01*
X369683Y499752D01*
X373751Y503565D02*
X373751Y492125D01*
X373751Y503565D02*
X381377Y503565D01*
X377564Y497845D02*
X373751Y497845D01*
D11*
X638810Y457200D02*
X681990Y457200D01*
X681990Y482600D02*
X638810Y482600D01*
X636270Y480060D02*
X636270Y459740D01*
X684530Y459740D02*
X684530Y480060D01*
X638810Y457200D02*
X638710Y457202D01*
X638611Y457208D01*
X638511Y457218D01*
X638413Y457231D01*
X638314Y457249D01*
X638217Y457270D01*
X638121Y457295D01*
X638025Y457324D01*
X637931Y457357D01*
X637838Y457393D01*
X637747Y457433D01*
X637657Y457477D01*
X637569Y457524D01*
X637483Y457574D01*
X637399Y457628D01*
X637317Y457685D01*
X637238Y457745D01*
X637160Y457809D01*
X637086Y457875D01*
X637014Y457944D01*
X636945Y458016D01*
X636879Y458090D01*
X636815Y458168D01*
X636755Y458247D01*
X636698Y458329D01*
X636644Y458413D01*
X636594Y458499D01*
X636547Y458587D01*
X636503Y458677D01*
X636463Y458768D01*
X636427Y458861D01*
X636394Y458955D01*
X636365Y459051D01*
X636340Y459147D01*
X636319Y459244D01*
X636301Y459343D01*
X636288Y459441D01*
X636278Y459541D01*
X636272Y459640D01*
X636270Y459740D01*
X681990Y457200D02*
X682090Y457202D01*
X682189Y457208D01*
X682289Y457218D01*
X682387Y457231D01*
X682486Y457249D01*
X682583Y457270D01*
X682679Y457295D01*
X682775Y457324D01*
X682869Y457357D01*
X682962Y457393D01*
X683053Y457433D01*
X683143Y457477D01*
X683231Y457524D01*
X683317Y457574D01*
X683401Y457628D01*
X683483Y457685D01*
X683562Y457745D01*
X683640Y457809D01*
X683714Y457875D01*
X683786Y457944D01*
X683855Y458016D01*
X683921Y458090D01*
X683985Y458168D01*
X684045Y458247D01*
X684102Y458329D01*
X684156Y458413D01*
X684206Y458499D01*
X684253Y458587D01*
X684297Y458677D01*
X684337Y458768D01*
X684373Y458861D01*
X684406Y458955D01*
X684435Y459051D01*
X684460Y459147D01*
X684481Y459244D01*
X684499Y459343D01*
X684512Y459441D01*
X684522Y459541D01*
X684528Y459640D01*
X684530Y459740D01*
X638810Y482600D02*
X638710Y482598D01*
X638611Y482592D01*
X638511Y482582D01*
X638413Y482569D01*
X638314Y482551D01*
X638217Y482530D01*
X638121Y482505D01*
X638025Y482476D01*
X637931Y482443D01*
X637838Y482407D01*
X637747Y482367D01*
X637657Y482323D01*
X637569Y482276D01*
X637483Y482226D01*
X637399Y482172D01*
X637317Y482115D01*
X637238Y482055D01*
X637160Y481991D01*
X637086Y481925D01*
X637014Y481856D01*
X636945Y481784D01*
X636879Y481710D01*
X636815Y481632D01*
X636755Y481553D01*
X636698Y481471D01*
X636644Y481387D01*
X636594Y481301D01*
X636547Y481213D01*
X636503Y481123D01*
X636463Y481032D01*
X636427Y480939D01*
X636394Y480845D01*
X636365Y480749D01*
X636340Y480653D01*
X636319Y480556D01*
X636301Y480457D01*
X636288Y480359D01*
X636278Y480259D01*
X636272Y480160D01*
X636270Y480060D01*
X681990Y482600D02*
X682090Y482598D01*
X682189Y482592D01*
X682289Y482582D01*
X682387Y482569D01*
X682486Y482551D01*
X682583Y482530D01*
X682679Y482505D01*
X682775Y482476D01*
X682869Y482443D01*
X682962Y482407D01*
X683053Y482367D01*
X683143Y482323D01*
X683231Y482276D01*
X683317Y482226D01*
X683401Y482172D01*
X683483Y482115D01*
X683562Y482055D01*
X683640Y481991D01*
X683714Y481925D01*
X683786Y481856D01*
X683855Y481784D01*
X683921Y481710D01*
X683985Y481632D01*
X684045Y481553D01*
X684102Y481471D01*
X684156Y481387D01*
X684206Y481301D01*
X684253Y481213D01*
X684297Y481123D01*
X684337Y481032D01*
X684373Y480939D01*
X684406Y480845D01*
X684435Y480749D01*
X684460Y480653D01*
X684481Y480556D01*
X684499Y480457D01*
X684512Y480359D01*
X684522Y480259D01*
X684528Y480160D01*
X684530Y480060D01*
X657860Y469900D02*
X656590Y469900D01*
D18*
X657860Y469900D02*
X657860Y462280D01*
X657860Y469900D02*
X657860Y477520D01*
X662940Y469900D02*
X662940Y462280D01*
X662940Y469900D02*
X662940Y477520D01*
D11*
X662940Y469900D02*
X664210Y469900D01*
D14*
X631272Y487682D02*
X631272Y495308D01*
X633179Y497215D01*
X636992Y497215D01*
X638899Y495308D01*
X638899Y487682D01*
X636992Y485775D01*
X633179Y485775D01*
X631272Y487682D01*
X638899Y495308D01*
X642966Y487682D02*
X642966Y485775D01*
X642966Y487682D02*
X644873Y487682D01*
X644873Y485775D01*
X642966Y485775D01*
X648813Y493402D02*
X652626Y497215D01*
X652626Y485775D01*
X648813Y485775D02*
X656439Y485775D01*
X660507Y487682D02*
X660507Y493402D01*
X660507Y487682D02*
X662414Y485775D01*
X668133Y485775D01*
X668133Y493402D01*
X672201Y497215D02*
X672201Y485775D01*
X672201Y497215D02*
X679827Y497215D01*
X676014Y491495D02*
X672201Y491495D01*
D11*
X558800Y326390D02*
X558800Y283210D01*
X533400Y283210D02*
X533400Y326390D01*
X535940Y280670D02*
X556260Y280670D01*
X556260Y328930D02*
X535940Y328930D01*
X558800Y283210D02*
X558798Y283110D01*
X558792Y283011D01*
X558782Y282911D01*
X558769Y282813D01*
X558751Y282714D01*
X558730Y282617D01*
X558705Y282521D01*
X558676Y282425D01*
X558643Y282331D01*
X558607Y282238D01*
X558567Y282147D01*
X558523Y282057D01*
X558476Y281969D01*
X558426Y281883D01*
X558372Y281799D01*
X558315Y281717D01*
X558255Y281638D01*
X558191Y281560D01*
X558125Y281486D01*
X558056Y281414D01*
X557984Y281345D01*
X557910Y281279D01*
X557832Y281215D01*
X557753Y281155D01*
X557671Y281098D01*
X557587Y281044D01*
X557501Y280994D01*
X557413Y280947D01*
X557323Y280903D01*
X557232Y280863D01*
X557139Y280827D01*
X557045Y280794D01*
X556949Y280765D01*
X556853Y280740D01*
X556756Y280719D01*
X556657Y280701D01*
X556559Y280688D01*
X556459Y280678D01*
X556360Y280672D01*
X556260Y280670D01*
X558800Y326390D02*
X558798Y326490D01*
X558792Y326589D01*
X558782Y326689D01*
X558769Y326787D01*
X558751Y326886D01*
X558730Y326983D01*
X558705Y327079D01*
X558676Y327175D01*
X558643Y327269D01*
X558607Y327362D01*
X558567Y327453D01*
X558523Y327543D01*
X558476Y327631D01*
X558426Y327717D01*
X558372Y327801D01*
X558315Y327883D01*
X558255Y327962D01*
X558191Y328040D01*
X558125Y328114D01*
X558056Y328186D01*
X557984Y328255D01*
X557910Y328321D01*
X557832Y328385D01*
X557753Y328445D01*
X557671Y328502D01*
X557587Y328556D01*
X557501Y328606D01*
X557413Y328653D01*
X557323Y328697D01*
X557232Y328737D01*
X557139Y328773D01*
X557045Y328806D01*
X556949Y328835D01*
X556853Y328860D01*
X556756Y328881D01*
X556657Y328899D01*
X556559Y328912D01*
X556459Y328922D01*
X556360Y328928D01*
X556260Y328930D01*
X533400Y283210D02*
X533402Y283110D01*
X533408Y283011D01*
X533418Y282911D01*
X533431Y282813D01*
X533449Y282714D01*
X533470Y282617D01*
X533495Y282521D01*
X533524Y282425D01*
X533557Y282331D01*
X533593Y282238D01*
X533633Y282147D01*
X533677Y282057D01*
X533724Y281969D01*
X533774Y281883D01*
X533828Y281799D01*
X533885Y281717D01*
X533945Y281638D01*
X534009Y281560D01*
X534075Y281486D01*
X534144Y281414D01*
X534216Y281345D01*
X534290Y281279D01*
X534368Y281215D01*
X534447Y281155D01*
X534529Y281098D01*
X534613Y281044D01*
X534699Y280994D01*
X534787Y280947D01*
X534877Y280903D01*
X534968Y280863D01*
X535061Y280827D01*
X535155Y280794D01*
X535251Y280765D01*
X535347Y280740D01*
X535444Y280719D01*
X535543Y280701D01*
X535641Y280688D01*
X535741Y280678D01*
X535840Y280672D01*
X535940Y280670D01*
X533400Y326390D02*
X533402Y326490D01*
X533408Y326589D01*
X533418Y326689D01*
X533431Y326787D01*
X533449Y326886D01*
X533470Y326983D01*
X533495Y327079D01*
X533524Y327175D01*
X533557Y327269D01*
X533593Y327362D01*
X533633Y327453D01*
X533677Y327543D01*
X533724Y327631D01*
X533774Y327717D01*
X533828Y327801D01*
X533885Y327883D01*
X533945Y327962D01*
X534009Y328040D01*
X534075Y328114D01*
X534144Y328186D01*
X534216Y328255D01*
X534290Y328321D01*
X534368Y328385D01*
X534447Y328445D01*
X534529Y328502D01*
X534613Y328556D01*
X534699Y328606D01*
X534787Y328653D01*
X534877Y328697D01*
X534968Y328737D01*
X535061Y328773D01*
X535155Y328806D01*
X535251Y328835D01*
X535347Y328860D01*
X535444Y328881D01*
X535543Y328899D01*
X535641Y328912D01*
X535741Y328922D01*
X535840Y328928D01*
X535940Y328930D01*
X546100Y302260D02*
X546100Y300990D01*
D18*
X546100Y302260D02*
X553720Y302260D01*
X546100Y302260D02*
X538480Y302260D01*
X546100Y307340D02*
X553720Y307340D01*
X546100Y307340D02*
X538480Y307340D01*
D11*
X546100Y307340D02*
X546100Y308610D01*
D14*
X565142Y275672D02*
X572768Y275672D01*
X565142Y275672D02*
X563235Y277579D01*
X563235Y281392D01*
X565142Y283299D01*
X572768Y283299D01*
X574675Y281392D01*
X574675Y277579D01*
X572768Y275672D01*
X565142Y283299D01*
X572768Y287366D02*
X574675Y287366D01*
X572768Y287366D02*
X572768Y289273D01*
X574675Y289273D01*
X574675Y287366D01*
X567049Y293213D02*
X563235Y297026D01*
X574675Y297026D01*
X574675Y293213D02*
X574675Y300839D01*
X572768Y304907D02*
X567049Y304907D01*
X572768Y304907D02*
X574675Y306814D01*
X574675Y312533D01*
X567049Y312533D01*
X563235Y316601D02*
X574675Y316601D01*
X563235Y316601D02*
X563235Y324227D01*
X568955Y320414D02*
X568955Y316601D01*
D11*
X353060Y165100D02*
X340360Y165100D01*
X353060Y165100D02*
X355600Y162560D01*
X353060Y139700D02*
X340360Y139700D01*
X353060Y139700D02*
X355600Y142240D01*
X381000Y162560D02*
X383540Y165100D01*
X381000Y162560D02*
X355600Y162560D01*
X381000Y142240D02*
X383540Y139700D01*
X381000Y142240D02*
X355600Y142240D01*
X383540Y165100D02*
X396240Y165100D01*
X396240Y139700D02*
X383540Y139700D01*
D21*
X353060Y142240D02*
X353060Y162560D01*
X340360Y162560D02*
X340360Y142240D01*
X396240Y142240D02*
X396240Y162560D01*
X383540Y162560D02*
X383540Y142240D01*
D11*
X406400Y147320D02*
X406400Y157480D01*
X406400Y147320D02*
X403860Y147320D01*
X396240Y139700D01*
X403860Y157480D02*
X406400Y157480D01*
X403860Y157480D02*
X396240Y165100D01*
X340360Y165100D02*
X332740Y157480D01*
X330200Y157480D01*
X330200Y147320D01*
X332740Y147320D01*
X340360Y139700D01*
D21*
X355600Y152400D02*
X381000Y152400D01*
D22*
X408178Y152400D03*
X328422Y152400D03*
D14*
X307975Y140335D02*
X296535Y140335D01*
X296535Y147962D01*
X302255Y144148D02*
X302255Y140335D01*
X307975Y157749D02*
X296535Y157749D01*
X302255Y152029D01*
X302255Y159655D01*
M02*
