G04 EAGLE Gerber RS-274X export*
G75*
%MOMM*%
%FSLAX34Y34*%
%LPD*%
%INTop Copper*%
%IPPOS*%
%AMOC8*
5,1,8,0,0,1.08239X$1,22.5*%
G01*
%ADD10R,1.270000X9.525000*%
%ADD11R,1.270000X6.985000*%
%ADD12C,5.715000*%
%ADD13C,1.500000*%
%ADD14R,3.500000X1.700000*%
%ADD15R,1.700000X3.500000*%
%ADD16C,1.219200*%
%ADD17C,1.700000*%
%ADD18C,1.524000*%
%ADD19R,1.500000X1.500000*%
%ADD20R,3.216000X3.216000*%
%ADD21P,1.319650X8X292.500000*%
%ADD22P,1.319650X8X22.500000*%
%ADD23P,1.649562X8X22.500000*%
%ADD24P,1.319650X8X202.500000*%
%ADD25C,0.254000*%
%ADD26C,0.965200*%
%ADD27C,0.812800*%


D10*
X241300Y40640D03*
X266700Y40640D03*
X292100Y40640D03*
X317500Y40640D03*
D11*
X342900Y52070D03*
D10*
X368300Y40640D03*
X393700Y40640D03*
X419100Y40640D03*
X444500Y40640D03*
X469900Y40640D03*
X495300Y40640D03*
X520700Y40640D03*
X546100Y40640D03*
X571500Y40640D03*
X596900Y40640D03*
X622300Y40640D03*
X647700Y40640D03*
X673100Y40640D03*
X698500Y40640D03*
X723900Y40640D03*
D12*
X255905Y172720D03*
X709295Y172720D03*
D13*
X222250Y228600D03*
X222250Y254000D03*
X222250Y381000D03*
X222250Y406400D03*
X222250Y279400D03*
X222250Y304800D03*
X222250Y355600D03*
X222250Y330200D03*
X222250Y431800D03*
X222250Y457200D03*
X222250Y482600D03*
X222250Y508000D03*
X222250Y533400D03*
X222250Y558800D03*
X222250Y584200D03*
X222250Y609600D03*
X222250Y635000D03*
X222250Y660400D03*
X222250Y685800D03*
X222250Y711200D03*
X44450Y711200D03*
X44450Y685800D03*
X44450Y660400D03*
X44450Y635000D03*
X44450Y609600D03*
X44450Y584200D03*
X44450Y558800D03*
X44450Y533400D03*
X44450Y508000D03*
X44450Y482600D03*
X44450Y457200D03*
X44450Y431800D03*
X44450Y406400D03*
X44450Y381000D03*
X44450Y355600D03*
X44450Y330200D03*
X44450Y304800D03*
X44450Y279400D03*
X44450Y254000D03*
X44450Y228600D03*
D14*
X233350Y228600D03*
X233350Y254000D03*
X233350Y279400D03*
X233350Y304800D03*
X233350Y330200D03*
X233350Y355600D03*
X233350Y381000D03*
X233350Y406400D03*
X233350Y431800D03*
X233350Y457200D03*
X233350Y482600D03*
X233350Y508000D03*
X233350Y533400D03*
X233350Y558800D03*
X233350Y584200D03*
X233350Y609600D03*
X233350Y635000D03*
X233350Y660400D03*
X233350Y685800D03*
X233350Y711200D03*
X33350Y711200D03*
X33350Y685800D03*
X33350Y660400D03*
X33350Y635000D03*
X33350Y609600D03*
X33350Y584200D03*
X33350Y558800D03*
X33350Y533400D03*
X33350Y508000D03*
X33350Y482600D03*
X33350Y457200D03*
X33350Y431800D03*
X33350Y406400D03*
X33350Y381000D03*
X33350Y355600D03*
X33350Y330200D03*
X33350Y304800D03*
X33350Y279400D03*
X33350Y254000D03*
X33350Y228600D03*
D13*
X158750Y708900D03*
X133350Y708900D03*
X107950Y708900D03*
D15*
X158750Y719150D03*
X133350Y719150D03*
X107950Y719150D03*
D16*
X742950Y361696D02*
X742950Y349504D01*
X768350Y349504D02*
X768350Y361696D01*
X793750Y361696D02*
X793750Y349504D01*
X819150Y349504D02*
X819150Y361696D01*
X844550Y361696D02*
X844550Y349504D01*
X869950Y349504D02*
X869950Y361696D01*
X895350Y361696D02*
X895350Y349504D01*
X920750Y349504D02*
X920750Y361696D01*
X920750Y425704D02*
X920750Y437896D01*
X895350Y437896D02*
X895350Y425704D01*
X869950Y425704D02*
X869950Y437896D01*
X844550Y437896D02*
X844550Y425704D01*
X819150Y425704D02*
X819150Y437896D01*
X793750Y437896D02*
X793750Y425704D01*
X768350Y425704D02*
X768350Y437896D01*
X742950Y437896D02*
X742950Y425704D01*
X768350Y247396D02*
X768350Y235204D01*
X793750Y235204D02*
X793750Y247396D01*
X920750Y247396D02*
X920750Y235204D01*
X920750Y311404D02*
X920750Y323596D01*
X819150Y247396D02*
X819150Y235204D01*
X844550Y235204D02*
X844550Y247396D01*
X895350Y247396D02*
X895350Y235204D01*
X869950Y235204D02*
X869950Y247396D01*
X895350Y311404D02*
X895350Y323596D01*
X869950Y323596D02*
X869950Y311404D01*
X844550Y311404D02*
X844550Y323596D01*
X819150Y323596D02*
X819150Y311404D01*
X793750Y311404D02*
X793750Y323596D01*
X768350Y323596D02*
X768350Y311404D01*
D17*
X317500Y184150D03*
X393700Y184150D03*
D18*
X417830Y654050D02*
X433070Y654050D01*
X433070Y679450D02*
X417830Y679450D01*
X417830Y704850D02*
X433070Y704850D01*
X433070Y730250D02*
X417830Y730250D01*
D19*
X906850Y667150D03*
X906850Y692150D03*
X906850Y717150D03*
X761850Y667150D03*
X761850Y717150D03*
D20*
X831850Y631150D03*
X831850Y753150D03*
D21*
X742950Y317500D03*
X742950Y292100D03*
X717550Y431800D03*
X717550Y406400D03*
D22*
X323850Y228600D03*
X374650Y228600D03*
X457200Y508000D03*
X508000Y508000D03*
X787400Y476250D03*
X863600Y476250D03*
X812800Y501650D03*
X889000Y501650D03*
D23*
X419100Y184150D03*
D16*
X590804Y444500D02*
X602996Y444500D01*
X602996Y419100D02*
X590804Y419100D01*
X590804Y292100D02*
X602996Y292100D01*
X602996Y266700D02*
X590804Y266700D01*
X590804Y393700D02*
X602996Y393700D01*
X602996Y368300D02*
X590804Y368300D01*
X590804Y317500D02*
X602996Y317500D01*
X602996Y342900D02*
X590804Y342900D01*
X667004Y266700D02*
X679196Y266700D01*
X679196Y292100D02*
X667004Y292100D01*
X667004Y317500D02*
X679196Y317500D01*
X679196Y342900D02*
X667004Y342900D01*
X667004Y368300D02*
X679196Y368300D01*
X679196Y393700D02*
X667004Y393700D01*
X667004Y419100D02*
X679196Y419100D01*
X679196Y444500D02*
X667004Y444500D01*
X304546Y444500D02*
X292354Y444500D01*
X292354Y419100D02*
X304546Y419100D01*
X304546Y292100D02*
X292354Y292100D01*
X292354Y266700D02*
X304546Y266700D01*
X304546Y393700D02*
X292354Y393700D01*
X292354Y368300D02*
X304546Y368300D01*
X304546Y317500D02*
X292354Y317500D01*
X292354Y342900D02*
X304546Y342900D01*
X368554Y266700D02*
X380746Y266700D01*
X380746Y292100D02*
X368554Y292100D01*
X368554Y317500D02*
X380746Y317500D01*
X380746Y342900D02*
X368554Y342900D01*
X368554Y368300D02*
X380746Y368300D01*
X380746Y393700D02*
X368554Y393700D01*
X368554Y419100D02*
X380746Y419100D01*
X380746Y444500D02*
X368554Y444500D01*
X438404Y317500D02*
X450596Y317500D01*
X450596Y292100D02*
X438404Y292100D01*
X438404Y165100D02*
X450596Y165100D01*
X450596Y139700D02*
X438404Y139700D01*
X438404Y266700D02*
X450596Y266700D01*
X450596Y241300D02*
X438404Y241300D01*
X438404Y190500D02*
X450596Y190500D01*
X450596Y215900D02*
X438404Y215900D01*
X514604Y139700D02*
X526796Y139700D01*
X526796Y165100D02*
X514604Y165100D01*
X514604Y190500D02*
X526796Y190500D01*
X526796Y215900D02*
X514604Y215900D01*
X514604Y241300D02*
X526796Y241300D01*
X526796Y266700D02*
X514604Y266700D01*
X514604Y292100D02*
X526796Y292100D01*
X526796Y317500D02*
X514604Y317500D01*
D18*
X292100Y754380D02*
X292100Y769620D01*
X266700Y769620D02*
X266700Y754380D01*
X241300Y754380D02*
X241300Y769620D01*
X215900Y769620D02*
X215900Y754380D01*
X190500Y754380D02*
X190500Y769620D01*
X165100Y769620D02*
X165100Y754380D01*
X139700Y754380D02*
X139700Y769620D01*
X114300Y769620D02*
X114300Y754380D01*
X88900Y754380D02*
X88900Y769620D01*
X63500Y769620D02*
X63500Y754380D01*
X38100Y754380D02*
X38100Y769620D01*
D23*
X292100Y812800D03*
D24*
X374650Y476250D03*
X349250Y476250D03*
X673100Y469900D03*
X647700Y469900D03*
D21*
X546100Y317500D03*
X546100Y292100D03*
D23*
X304800Y704850D03*
X304800Y654050D03*
D16*
X317500Y158496D02*
X317500Y146304D01*
X419100Y146304D02*
X419100Y158496D01*
D25*
X233350Y228600D02*
X223838Y228600D01*
X223838Y149225D01*
X223838Y228600D02*
X222250Y228600D01*
D26*
X223838Y149225D03*
D25*
X222250Y254000D02*
X233350Y254000D01*
X280988Y254000D01*
X280988Y200025D01*
X368300Y171450D02*
X368300Y40640D01*
D26*
X280988Y200025D03*
X368300Y171450D03*
D25*
X233350Y304800D02*
X222250Y304800D01*
X233350Y304800D02*
X255588Y304800D01*
X255588Y263525D01*
X260350Y258763D01*
X285750Y258763D01*
X285750Y211138D01*
X300038Y196850D01*
X300038Y125413D01*
D26*
X300038Y125413D03*
D25*
X233350Y330200D02*
X222250Y330200D01*
X341313Y325438D02*
X347663Y319088D01*
X347663Y180975D01*
X346075Y179388D01*
X393700Y131763D02*
X393700Y40640D01*
D26*
X341313Y325438D03*
X346075Y179388D03*
X393700Y131763D03*
D25*
X233350Y355600D02*
X222250Y355600D01*
X233350Y355600D02*
X263525Y355600D01*
X263525Y266700D01*
X377825Y188913D02*
X381000Y185738D01*
X381000Y98425D01*
D26*
X263525Y266700D03*
X377825Y188913D03*
X381000Y98425D03*
D25*
X233350Y381000D02*
X222250Y381000D01*
X349250Y377825D02*
X358775Y368300D01*
X358775Y144463D01*
X407988Y100013D02*
X419100Y88900D01*
X419100Y40640D01*
D26*
X349250Y377825D03*
X358775Y144463D03*
X407988Y100013D03*
D25*
X233350Y431800D02*
X222250Y431800D01*
X209550Y419100D01*
X209550Y174625D01*
D26*
X209550Y174625D03*
D25*
X222250Y457200D02*
X233350Y457200D01*
X333375Y455613D02*
X341313Y447675D01*
X341313Y336550D01*
X354013Y323850D01*
X354013Y166688D01*
X350838Y163513D01*
X411163Y120650D02*
X444500Y87313D01*
X444500Y40640D01*
D26*
X333375Y455613D03*
X350838Y163513D03*
X411163Y120650D03*
D25*
X673100Y342900D02*
X688975Y358775D01*
X688975Y371475D01*
X682625Y377825D01*
X641350Y377825D01*
X641350Y266700D01*
X565150Y219075D02*
X554038Y219075D01*
X565150Y219075D02*
X565150Y215900D01*
X568325Y212725D01*
X568325Y195263D01*
X546100Y173038D01*
X546100Y40640D01*
D26*
X641350Y266700D03*
X554038Y219075D03*
D25*
X650875Y346075D02*
X673100Y368300D01*
X650875Y346075D02*
X650875Y263525D01*
X647700Y260350D01*
X647700Y193675D01*
X565150Y180975D02*
X554038Y169863D01*
X554038Y95250D01*
D26*
X647700Y193675D03*
X565150Y180975D03*
X554038Y95250D03*
D25*
X579438Y349250D02*
X582613Y352425D01*
X579438Y349250D02*
X579438Y306388D01*
X574675Y301625D01*
X574675Y219075D01*
X577850Y215900D01*
X577850Y123825D01*
X581025Y120650D01*
X581025Y95250D01*
X571500Y85725D01*
X571500Y40640D01*
D26*
X582613Y352425D03*
D25*
X487363Y250825D02*
X484188Y247650D01*
X484188Y123825D01*
X509588Y98425D01*
D26*
X487363Y250825D03*
X509588Y98425D03*
D25*
X471488Y215900D02*
X471488Y355600D01*
X590550Y227013D02*
X596900Y220663D01*
X596900Y40640D01*
D26*
X471488Y355600D03*
X471488Y215900D03*
X590550Y227013D03*
D25*
X463550Y350838D02*
X463550Y363538D01*
X463550Y350838D02*
X466725Y347663D01*
X466725Y222250D01*
X463550Y219075D01*
X463550Y160338D01*
X468313Y155575D01*
X468313Y103188D01*
X473075Y98425D01*
D26*
X463550Y363538D03*
X473075Y98425D03*
D25*
X623888Y158750D02*
X623888Y352425D01*
X623888Y158750D02*
X627063Y155575D01*
X627063Y144463D01*
X622300Y139700D01*
X622300Y40640D01*
D26*
X623888Y352425D03*
D25*
X400050Y342900D02*
X374650Y317500D01*
X708025Y377825D02*
X722313Y363538D01*
X722313Y204788D01*
X741363Y185738D01*
X741363Y128588D01*
X698500Y85725D01*
X698500Y40640D01*
D26*
X400050Y342900D03*
X708025Y377825D03*
D25*
X754063Y280988D02*
X793750Y241300D01*
X754063Y280988D02*
X754063Y466725D01*
X336550Y487363D02*
X315913Y466725D01*
X315913Y234950D01*
X304800Y223838D01*
X304800Y131763D01*
X314325Y122238D01*
X314325Y44450D01*
X317500Y41275D01*
X317500Y40640D01*
D26*
X754063Y466725D03*
X336550Y487363D03*
D27*
X349250Y444500D02*
X374650Y419100D01*
X349250Y444500D02*
X349250Y476250D01*
X233350Y533400D02*
X222250Y533400D01*
X222250Y406400D02*
X233350Y406400D01*
X44450Y406400D02*
X33350Y406400D01*
X33350Y533400D02*
X44450Y533400D01*
X58738Y419100D02*
X47625Y407988D01*
X58738Y419100D02*
X58738Y520700D01*
X47625Y531813D01*
X47625Y407988D02*
X44450Y406400D01*
X47625Y531813D02*
X44450Y533400D01*
X290513Y452438D02*
X298450Y444500D01*
X290513Y452438D02*
X290513Y571500D01*
X282575Y579438D01*
X271463Y579438D01*
X271463Y577850D01*
X258763Y565150D01*
X258763Y547688D01*
X246063Y534988D01*
X236538Y534988D01*
X233350Y533400D01*
X88900Y762000D02*
X100013Y773113D01*
X100013Y776288D01*
X107950Y784225D01*
X165100Y784225D01*
X165100Y762000D01*
X230188Y773113D02*
X241300Y762000D01*
X230188Y773113D02*
X230188Y776288D01*
X222250Y784225D01*
X165100Y784225D01*
X44450Y660400D02*
X33350Y660400D01*
X222250Y660400D02*
X233350Y660400D01*
X481013Y534988D02*
X508000Y508000D01*
X481013Y534988D02*
X481013Y598488D01*
X425450Y654050D01*
X87313Y573088D02*
X49213Y534988D01*
X87313Y573088D02*
X87313Y758825D01*
X49213Y534988D02*
X44450Y533400D01*
X87313Y758825D02*
X88900Y762000D01*
X908050Y342900D02*
X920750Y355600D01*
X908050Y342900D02*
X908050Y254000D01*
X920750Y241300D01*
X742950Y381000D02*
X717550Y406400D01*
X742950Y381000D02*
X742950Y355600D01*
X673100Y419100D02*
X647700Y444500D01*
X647700Y469900D01*
X647700Y444500D02*
X596900Y444500D01*
X730250Y304800D02*
X742950Y292100D01*
X730250Y304800D02*
X730250Y341313D01*
X741363Y352425D01*
X742950Y355600D01*
X44450Y279400D02*
X33350Y279400D01*
X222250Y279400D02*
X233350Y279400D01*
X647700Y96838D02*
X647700Y40640D01*
X546100Y292100D02*
X539750Y292100D01*
X520700Y292100D01*
X501650Y312738D02*
X496888Y317500D01*
X501650Y312738D02*
X501650Y309563D01*
X517525Y293688D01*
X520700Y292100D01*
X501650Y141288D02*
X500063Y139700D01*
X501650Y141288D02*
X501650Y146050D01*
X520700Y165100D01*
X520700Y190500D01*
X520700Y215900D01*
X520700Y241300D01*
X539750Y258763D02*
X539750Y292100D01*
X539750Y258763D02*
X523875Y242888D01*
X520700Y241300D01*
X525463Y488950D02*
X509588Y504825D01*
X525463Y488950D02*
X525463Y347663D01*
X498475Y320675D01*
X509588Y504825D02*
X508000Y508000D01*
X498475Y320675D02*
X496888Y317500D01*
D26*
X647700Y96838D03*
X496888Y317500D03*
X500063Y139700D03*
D27*
X673100Y444500D02*
X673100Y469900D01*
X546100Y317500D02*
X520700Y317500D01*
X669925Y471488D02*
X658813Y482600D01*
X547688Y482600D01*
X547688Y320675D01*
X669925Y471488D02*
X673100Y469900D01*
X547688Y320675D02*
X546100Y317500D01*
X419100Y184150D02*
X419100Y152400D01*
X419100Y184150D02*
X393700Y184150D01*
X374650Y444500D02*
X374650Y476250D01*
X376238Y508000D02*
X419100Y508000D01*
X457200Y508000D01*
X376238Y508000D02*
X376238Y479425D01*
X374650Y476250D01*
X371475Y733425D02*
X292100Y812800D01*
X371475Y733425D02*
X371475Y514350D01*
X374650Y511175D01*
X376238Y508000D01*
X420688Y374650D02*
X420688Y304800D01*
X420688Y187325D01*
X420688Y374650D02*
X419100Y376238D01*
X419100Y508000D01*
X420688Y187325D02*
X419100Y184150D01*
X420688Y304800D02*
X423863Y304800D01*
D26*
X423863Y304800D03*
D25*
X655638Y300038D02*
X673100Y317500D01*
X655638Y300038D02*
X655638Y257175D01*
X560388Y209550D02*
X538163Y187325D01*
X538163Y95250D01*
D26*
X655638Y257175D03*
X560388Y209550D03*
X538163Y95250D03*
D25*
X688975Y276225D02*
X673100Y292100D01*
X688975Y276225D02*
X688975Y196850D01*
X631825Y139700D01*
X631825Y138113D01*
X530225Y125413D02*
X520700Y115888D01*
X520700Y40640D01*
D26*
X631825Y138113D03*
X530225Y125413D03*
D25*
X574675Y371475D02*
X596900Y393700D01*
X574675Y371475D02*
X574675Y307975D01*
X569913Y303213D01*
X569913Y217488D01*
X573088Y214313D01*
X573088Y117475D01*
X496888Y100013D02*
X485775Y111125D01*
X496888Y100013D02*
X496888Y95250D01*
D26*
X573088Y117475D03*
X485775Y111125D03*
X496888Y95250D03*
D25*
X619125Y346075D02*
X596900Y368300D01*
X619125Y346075D02*
X619125Y152400D01*
X477838Y150813D02*
X476250Y152400D01*
X477838Y150813D02*
X477838Y104775D01*
X488950Y93663D01*
X488950Y92075D01*
X495300Y85725D01*
X495300Y40640D01*
D26*
X619125Y152400D03*
X476250Y152400D03*
D25*
X557213Y333375D02*
X566738Y342900D01*
X557213Y333375D02*
X557213Y268288D01*
X506413Y252413D02*
X490538Y236538D01*
X490538Y128588D01*
X492125Y127000D01*
D26*
X566738Y342900D03*
X557213Y268288D03*
X506413Y252413D03*
X492125Y127000D03*
D25*
X579438Y300038D02*
X596900Y317500D01*
X579438Y300038D02*
X579438Y263525D01*
X582613Y260350D01*
X582613Y196850D01*
X585788Y193675D01*
X463550Y149225D02*
X460375Y152400D01*
X463550Y149225D02*
X463550Y92075D01*
X469900Y85725D01*
X469900Y40640D01*
D26*
X585788Y193675D03*
X460375Y152400D03*
D25*
X44450Y228600D02*
X33350Y228600D01*
X133350Y708900D02*
X133350Y719150D01*
D27*
X863600Y476250D02*
X889000Y501650D01*
X44450Y330200D02*
X33350Y330200D01*
X717550Y431800D02*
X742950Y431800D01*
X715963Y679450D02*
X425450Y679450D01*
X715963Y679450D02*
X715963Y434975D01*
X717550Y431800D01*
X201613Y485775D02*
X47625Y331788D01*
X201613Y485775D02*
X201613Y711200D01*
X47625Y331788D02*
X44450Y330200D01*
D26*
X201613Y711200D03*
D27*
X44450Y254000D02*
X33350Y254000D01*
X317500Y222250D02*
X323850Y228600D01*
X317500Y222250D02*
X317500Y184150D01*
D25*
X444500Y215900D02*
X460375Y231775D01*
X460375Y250825D01*
X444500Y266700D01*
X609600Y280988D02*
X614363Y276225D01*
X614363Y158750D01*
X611188Y155575D01*
X611188Y96838D01*
D26*
X609600Y280988D03*
X611188Y96838D03*
D25*
X44450Y381000D02*
X33350Y381000D01*
X768350Y431800D02*
X787400Y450850D01*
X787400Y476250D01*
X468313Y687388D02*
X425450Y730250D01*
X468313Y687388D02*
X744538Y687388D01*
X744538Y519113D01*
X787400Y476250D01*
X44450Y558800D02*
X33350Y558800D01*
X793750Y431800D02*
X801688Y439738D01*
X801688Y490538D01*
X812800Y501650D01*
X407194Y723106D02*
X406400Y723900D01*
X407194Y723106D02*
X425450Y704850D01*
X406400Y723900D02*
X406400Y735013D01*
X412750Y741363D01*
X749300Y741363D01*
X749300Y563563D01*
X811213Y501650D01*
X812800Y501650D01*
X406400Y646113D02*
X384175Y623888D01*
X406400Y646113D02*
X406400Y722313D01*
X407194Y723106D01*
D26*
X384175Y623888D03*
D25*
X844550Y355600D02*
X860425Y339725D01*
X879475Y339725D01*
X879475Y403225D01*
X854075Y428625D01*
X854075Y471488D01*
X852488Y473075D01*
X852488Y661988D01*
X906463Y715963D01*
X906850Y717150D01*
X833438Y392113D02*
X869950Y355600D01*
X833438Y392113D02*
X833438Y592138D01*
X774700Y650875D01*
X774700Y703263D01*
X762000Y715963D01*
X761850Y717150D01*
X885825Y282575D02*
X844550Y241300D01*
X885825Y282575D02*
X885825Y411163D01*
X895350Y420688D01*
X895350Y431800D01*
X828675Y250825D02*
X819150Y241300D01*
X828675Y250825D02*
X828675Y444500D01*
X809625Y463550D01*
X325438Y463550D02*
X325438Y241300D01*
X334963Y231775D01*
X334963Y195263D01*
X330200Y190500D01*
X330200Y103188D01*
X322263Y95250D01*
D26*
X809625Y463550D03*
X325438Y463550D03*
X322263Y95250D03*
D25*
X877888Y223838D02*
X895350Y241300D01*
X877888Y223838D02*
X809625Y223838D01*
X809625Y371475D01*
X768350Y412750D01*
X333375Y431800D02*
X333375Y239713D01*
X339725Y233363D01*
X339725Y188913D01*
X292100Y169863D02*
X292100Y40640D01*
D26*
X768350Y412750D03*
X333375Y431800D03*
X339725Y188913D03*
X292100Y169863D03*
D25*
X428625Y225425D02*
X444500Y241300D01*
X428625Y225425D02*
X428625Y212725D01*
X438150Y203200D01*
D26*
X438150Y203200D03*
D25*
X233350Y482600D02*
X222250Y482600D01*
X268288Y668338D02*
X304800Y704850D01*
X268288Y668338D02*
X268288Y588963D01*
X250825Y571500D01*
X209550Y571500D01*
X209550Y495300D01*
X222250Y482600D01*
X198438Y163513D02*
X266700Y95250D01*
X198438Y163513D02*
X198438Y460375D01*
X220663Y482600D01*
X222250Y482600D01*
D26*
X266700Y95250D03*
D25*
X407988Y307975D02*
X411163Y311150D01*
X411163Y473075D01*
X388938Y495300D01*
X233350Y508000D02*
X222250Y508000D01*
D26*
X407988Y307975D03*
X388938Y495300D03*
D25*
X696913Y266700D02*
X700088Y269875D01*
X700088Y495300D01*
X233350Y558800D02*
X222250Y558800D01*
D26*
X696913Y266700D03*
X700088Y495300D03*
D25*
X298450Y292100D02*
X277813Y312738D01*
X277813Y566738D01*
X233350Y584200D02*
X222250Y584200D01*
D26*
X277813Y566738D03*
D25*
X44450Y508000D02*
X33350Y508000D01*
X33350Y584200D02*
X44450Y584200D01*
X474663Y195263D02*
X479425Y200025D01*
X479425Y360363D01*
X441325Y398463D01*
X441325Y477838D01*
X468313Y504825D01*
X468313Y566738D01*
D26*
X474663Y195263D03*
X468313Y566738D03*
D25*
X233350Y609600D02*
X222250Y609600D01*
X292100Y762000D02*
X273050Y781050D01*
X255588Y781050D01*
X255588Y627063D01*
X238125Y609600D01*
X233350Y609600D01*
X233350Y635000D02*
X222250Y635000D01*
X263525Y758825D02*
X266700Y762000D01*
X263525Y758825D02*
X263525Y609600D01*
X250825Y596900D01*
X211138Y596900D01*
X211138Y623888D01*
X222250Y635000D01*
X222250Y685800D02*
X233350Y685800D01*
X233350Y711200D02*
X222250Y711200D01*
X222250Y730250D02*
X190500Y762000D01*
X222250Y730250D02*
X222250Y711200D01*
X44450Y711200D02*
X33350Y711200D01*
X33350Y685800D02*
X44450Y685800D01*
X44450Y635000D02*
X33350Y635000D01*
X57150Y755650D02*
X63500Y762000D01*
X57150Y755650D02*
X57150Y647700D01*
X44450Y635000D01*
X44450Y609600D02*
X33350Y609600D01*
X33350Y457200D02*
X44450Y457200D01*
X487363Y300038D02*
X520700Y266700D01*
X487363Y300038D02*
X487363Y355600D01*
D26*
X487363Y355600D03*
D25*
X461963Y309563D02*
X444500Y292100D01*
X461963Y309563D02*
X461963Y346075D01*
X431800Y376238D01*
X431800Y379413D01*
X44450Y431800D02*
X33350Y431800D01*
D26*
X431800Y379413D03*
D25*
X612775Y385763D02*
X631825Y366713D01*
X631825Y222250D01*
D26*
X612775Y385763D03*
X631825Y222250D03*
D25*
X403225Y396875D02*
X374650Y368300D01*
X403225Y396875D02*
X403225Y415925D01*
X793750Y376238D02*
X804863Y365125D01*
X804863Y180975D01*
X723900Y100013D01*
X723900Y40640D01*
D26*
X403225Y415925D03*
X793750Y376238D03*
D27*
X342900Y139700D02*
X339725Y142875D01*
X342900Y139700D02*
X342900Y52070D01*
D26*
X339725Y142875D03*
M02*
